{
  "accessors": [
    {
      "bufferView": 0,
      "componentType": 5123,
      "count": 16380,
      "name": "accessorIndices",
      "type": "SCALAR"
    },
    {
      "bufferView": 1,
      "componentType": 5126,
      "count": 6428,
      "max": [
        0.259114981,
        0.92159,
        1.06322038
      ],
      "min": [
        -3.80488682,
        -0.310489774,
        -1.3671571
      ],
      "name": "accessorPositions",
      "type": "VEC3"
    },
    {
      "bufferView": 1,
      "byteOffset": 77136,
      "componentType": 5126,
      "count": 6428,
      "name": "accessorNormals",
      "type": "VEC3"
    },
    {
      "bufferView": 2,
      "componentType": 5126,
      "count": 6428,
      "name": "accessorUVs",
      "type": "VEC2"
    },
    {
      "bufferView": 0,
      "byteOffset": 32760,
      "componentType": 5123,
      "count": 138,
      "name": "accessorIndices",
      "type": "SCALAR"
    },
    {
      "bufferView": 1,
      "byteOffset": 154272,
      "componentType": 5126,
      "count": 64,
      "max": [
        0.127627134,
        0.127627611,
        0.003543973
      ],
      "min": [
        -0.1276269,
        -0.127627373,
        -0.00354403257
      ],
      "name": "accessorPositions",
      "type": "VEC3"
    },
    {
      "bufferView": 1,
      "byteOffset": 155040,
      "componentType": 5126,
      "count": 64,
      "name": "accessorNormals",
      "type": "VEC3"
    },
    {
      "bufferView": 2,
      "byteOffset": 51424,
      "componentType": 5126,
      "count": 64,
      "name": "accessorUVs",
      "type": "VEC2"
    },
    {
      "bufferView": 0,
      "byteOffset": 33036,
      "componentType": 5123,
      "count": 138,
      "name": "accessorIndices",
      "type": "SCALAR"
    },
    {
      "bufferView": 1,
      "byteOffset": 155808,
      "componentType": 5126,
      "count": 64,
      "max": [
        0.127627134,
        0.127627611,
        0.003543973
      ],
      "min": [
        -0.1276269,
        -0.127627373,
        -0.00354403257
      ],
      "name": "accessorPositions",
      "type": "VEC3"
    },
    {
      "bufferView": 1,
      "byteOffset": 156576,
      "componentType": 5126,
      "count": 64,
      "name": "accessorNormals",
      "type": "VEC3"
    },
    {
      "bufferView": 2,
      "byteOffset": 51936,
      "componentType": 5126,
      "count": 64,
      "name": "accessorUVs",
      "type": "VEC2"
    },
    {
      "bufferView": 0,
      "byteOffset": 33312,
      "componentType": 5123,
      "count": 11736,
      "name": "accessorIndices",
      "type": "SCALAR"
    },
    {
      "bufferView": 1,
      "byteOffset": 157344,
      "componentType": 5126,
      "count": 6759,
      "max": [
        0.328063756,
        2.58396626,
        1.26013529
      ],
      "min": [
        -0.329796821,
        -3.45651746,
        -0.576844156
      ],
      "name": "accessorPositions",
      "type": "VEC3"
    },
    {
      "bufferView": 1,
      "byteOffset": 238452,
      "componentType": 5126,
      "count": 6759,
      "name": "accessorNormals",
      "type": "VEC3"
    },
    {
      "bufferView": 2,
      "byteOffset": 52448,
      "componentType": 5126,
      "count": 6759,
      "name": "accessorUVs",
      "type": "VEC2"
    }
  ],
  "asset": {
    "generator": "babylon.js glTF exporter for 3dsmax 2024 v20251021.2",
    "version": "2.0"
  },
  "bufferViews": [
    {
      "buffer": 0,
      "byteLength": 56784,
      "name": "bufferViewScalar"
    },
    {
      "buffer": 0,
      "byteLength": 319560,
      "byteOffset": 56784,
      "byteStride": 12,
      "name": "bufferViewFloatVec3"
    },
    {
      "buffer": 0,
      "byteLength": 106520,
      "byteOffset": 376344,
      "byteStride": 8,
      "name": "bufferViewFloatVec2"
    }
  ],
  "buffers": [
    {
      "byteLength": 482864,
      "uri": "bin/RM_sig_M_MM2_WB_2.bin"
    }
  ],
  "images": [
    {
      "uri": "textures\\RM_izostyk_N.ktx2"
    },
    {
      "uri": "textures\\RM_izostyk_ORM.ktx2"
    },
    {
      "uri": "textures\\RM_izostyk_RGBA.ktx2"
    },
    {
      "uri": "textures\\RM_MM1-2_N.ktx2"
    },
    {
      "uri": "textures\\RM_MM1-2_ORM.ktx2"
    },
    {
      "uri": "textures\\RM_MM1-2_RGBA.ktx2"
    }
  ],
  "materials": [
    {
      "name": "Material #34",
      "normalTexture": {
        "index": 0
      },
      "occlusionTexture": {
        "index": 1
      },
      "pbrMetallicRoughness": {
        "baseColorTexture": {
          "index": 2
        },
        "metallicRoughnessTexture": {
          "index": 1
        }
      }
    },
    {
      "name": "Линзы",
      "pbrMetallicRoughness": {
        "metallicFactor": 0.0,
        "roughnessFactor": 0.450053632
      }
    },
    {
      "name": "Material #35",
      "normalTexture": {
        "index": 3
      },
      "occlusionTexture": {
        "index": 4
      },
      "pbrMetallicRoughness": {
        "baseColorTexture": {
          "index": 5
        },
        "metallicRoughnessTexture": {
          "index": 4
        }
      }
    }
  ],
  "meshes": [
    {
      "name": "Изостык",
      "primitives": [
        {
          "attributes": {
            "NORMAL": 2,
            "POSITION": 1,
            "TEXCOORD_0": 3
          },
          "indices": 0,
          "material": 0
        }
      ]
    },
    {
      "name": "BLUE_Lens",
      "primitives": [
        {
          "attributes": {
            "NORMAL": 6,
            "POSITION": 5,
            "TEXCOORD_0": 7
          },
          "indices": 4,
          "material": 1
        }
      ]
    },
    {
      "name": "WHITE_Lens",
      "primitives": [
        {
          "attributes": {
            "NORMAL": 10,
            "POSITION": 9,
            "TEXCOORD_0": 11
          },
          "indices": 8,
          "material": 1
        }
      ]
    },
    {
      "name": "Светофор 2",
      "primitives": [
        {
          "attributes": {
            "NORMAL": 14,
            "POSITION": 13,
            "TEXCOORD_0": 15
          },
          "indices": 12,
          "material": 2
        }
      ]
    }
  ],
  "nodes": [
    {
      "mesh": 0,
      "name": "Изостык",
      "translation": [
        0.0,
        -0.073162064,
        0.0
      ]
    },
    {
      "mesh": 1,
      "name": "BLUE_Lens",
      "scale": [
        0.901611447,
        0.901611447,
        1.0
      ],
      "translation": [
        1.17288295e-08,
        4.67747831,
        2.49093819
      ]
    },
    {
      "mesh": 2,
      "name": "WHITE_Lens",
      "scale": [
        0.901611447,
        0.901611447,
        1.0
      ],
      "translation": [
        1.17288295e-08,
        4.98146963,
        2.490938
      ]
    },
    {
      "mesh": 3,
      "name": "Светофор 2",
      "translation": [
        1.1920929e-07,
        2.89083338,
        1.92134869
      ]
    }
  ],
  "samplers": [
    {
      "magFilter": 9729,
      "minFilter": 9987
    }
  ],
  "scene": 0,
  "scenes": [
    {
      "nodes": [
        0,
        1,
        2,
        3
      ]
    }
  ],
  "textures": [
    {
      "name": "RM_izostyk_N.jpg",
      "sampler": 0,
      "source": 0
    },
    {
      "name": "RM_izostyk_ORM.jpg",
      "sampler": 0,
      "source": 1
    },
    {
      "name": "RM_izostyk_RGBA.jpg",
      "sampler": 0,
      "source": 2
    },
    {
      "name": "RM_MM1-2_N.jpg",
      "sampler": 0,
      "source": 3
    },
    {
      "name": "RM_MM1-2_ORM.jpg",
      "sampler": 0,
      "source": 4
    },
    {
      "name": "RM_MM1-2_RGBA.jpg",
      "sampler": 0,
      "source": 5
    }
  ]
}