{
  "accessors": [
    {
      "bufferView": 0,
      "componentType": 5123,
      "count": 16380,
      "name": "accessorIndices",
      "type": "SCALAR"
    },
    {
      "bufferView": 1,
      "componentType": 5126,
      "count": 6428,
      "max": [
        0.259114981,
        0.92159,
        1.06322038
      ],
      "min": [
        -3.80488682,
        -0.310489774,
        -1.3671571
      ],
      "name": "accessorPositions",
      "type": "VEC3"
    },
    {
      "bufferView": 1,
      "byteOffset": 77136,
      "componentType": 5126,
      "count": 6428,
      "name": "accessorNormals",
      "type": "VEC3"
    },
    {
      "bufferView": 2,
      "componentType": 5126,
      "count": 6428,
      "name": "accessorUVs",
      "type": "VEC2"
    },
    {
      "bufferView": 0,
      "byteOffset": 32760,
      "componentType": 5123,
      "count": 21264,
      "name": "accessorIndices",
      "type": "SCALAR"
    },
    {
      "bufferView": 1,
      "byteOffset": 154272,
      "componentType": 5126,
      "count": 12451,
      "max": [
        0.367640883,
        3.65999985,
        1.26013541
      ],
      "min": [
        -0.371108443,
        -3.913684,
        -1.12091637
      ],
      "name": "accessorPositions",
      "type": "VEC3"
    },
    {
      "bufferView": 1,
      "byteOffset": 303684,
      "componentType": 5126,
      "count": 12451,
      "name": "accessorNormals",
      "type": "VEC3"
    },
    {
      "bufferView": 2,
      "byteOffset": 51424,
      "componentType": 5126,
      "count": 12451,
      "name": "accessorUVs",
      "type": "VEC2"
    },
    {
      "bufferView": 0,
      "byteOffset": 75288,
      "componentType": 5123,
      "count": 138,
      "name": "accessorIndices",
      "type": "SCALAR"
    },
    {
      "bufferView": 1,
      "byteOffset": 453096,
      "componentType": 5126,
      "count": 64,
      "max": [
        0.127627134,
        0.127627611,
        0.003543973
      ],
      "min": [
        -0.1276269,
        -0.127627373,
        -0.00354403257
      ],
      "name": "accessorPositions",
      "type": "VEC3"
    },
    {
      "bufferView": 1,
      "byteOffset": 453864,
      "componentType": 5126,
      "count": 64,
      "name": "accessorNormals",
      "type": "VEC3"
    },
    {
      "bufferView": 2,
      "byteOffset": 151032,
      "componentType": 5126,
      "count": 64,
      "name": "accessorUVs",
      "type": "VEC2"
    },
    {
      "bufferView": 0,
      "byteOffset": 75564,
      "componentType": 5123,
      "count": 138,
      "name": "accessorIndices",
      "type": "SCALAR"
    },
    {
      "bufferView": 1,
      "byteOffset": 454632,
      "componentType": 5126,
      "count": 64,
      "max": [
        0.127627015,
        0.127627611,
        0.00354385376
      ],
      "min": [
        -0.127627015,
        -0.127627373,
        -0.00354415178
      ],
      "name": "accessorPositions",
      "type": "VEC3"
    },
    {
      "bufferView": 1,
      "byteOffset": 455400,
      "componentType": 5126,
      "count": 64,
      "name": "accessorNormals",
      "type": "VEC3"
    },
    {
      "bufferView": 2,
      "byteOffset": 151544,
      "componentType": 5126,
      "count": 64,
      "name": "accessorUVs",
      "type": "VEC2"
    },
    {
      "bufferView": 0,
      "byteOffset": 75840,
      "componentType": 5123,
      "count": 138,
      "name": "accessorIndices",
      "type": "SCALAR"
    },
    {
      "bufferView": 1,
      "byteOffset": 456168,
      "componentType": 5126,
      "count": 64,
      "max": [
        0.127627134,
        0.127627611,
        0.003543973
      ],
      "min": [
        -0.1276269,
        -0.127627373,
        -0.00354403257
      ],
      "name": "accessorPositions",
      "type": "VEC3"
    },
    {
      "bufferView": 1,
      "byteOffset": 456936,
      "componentType": 5126,
      "count": 64,
      "name": "accessorNormals",
      "type": "VEC3"
    },
    {
      "bufferView": 2,
      "byteOffset": 152056,
      "componentType": 5126,
      "count": 64,
      "name": "accessorUVs",
      "type": "VEC2"
    },
    {
      "bufferView": 0,
      "byteOffset": 76116,
      "componentType": 5123,
      "count": 138,
      "name": "accessorIndices",
      "type": "SCALAR"
    },
    {
      "bufferView": 1,
      "byteOffset": 457704,
      "componentType": 5126,
      "count": 64,
      "max": [
        0.127627134,
        0.127627611,
        0.003543973
      ],
      "min": [
        -0.1276269,
        -0.127627373,
        -0.00354403257
      ],
      "name": "accessorPositions",
      "type": "VEC3"
    },
    {
      "bufferView": 1,
      "byteOffset": 458472,
      "componentType": 5126,
      "count": 64,
      "name": "accessorNormals",
      "type": "VEC3"
    },
    {
      "bufferView": 2,
      "byteOffset": 152568,
      "componentType": 5126,
      "count": 64,
      "name": "accessorUVs",
      "type": "VEC2"
    },
    {
      "bufferView": 0,
      "byteOffset": 76392,
      "componentType": 5123,
      "count": 138,
      "name": "accessorIndices",
      "type": "SCALAR"
    },
    {
      "bufferView": 1,
      "byteOffset": 459240,
      "componentType": 5126,
      "count": 64,
      "max": [
        0.127627134,
        0.127627611,
        0.003543973
      ],
      "min": [
        -0.1276269,
        -0.127627373,
        -0.00354403257
      ],
      "name": "accessorPositions",
      "type": "VEC3"
    },
    {
      "bufferView": 1,
      "byteOffset": 460008,
      "componentType": 5126,
      "count": 64,
      "name": "accessorNormals",
      "type": "VEC3"
    },
    {
      "bufferView": 2,
      "byteOffset": 153080,
      "componentType": 5126,
      "count": 64,
      "name": "accessorUVs",
      "type": "VEC2"
    }
  ],
  "asset": {
    "generator": "babylon.js glTF exporter for 3dsmax 2024 v20251021.2",
    "version": "2.0"
  },
  "bufferViews": [
    {
      "buffer": 0,
      "byteLength": 76668,
      "name": "bufferViewScalar"
    },
    {
      "buffer": 0,
      "byteLength": 460776,
      "byteOffset": 76668,
      "byteStride": 12,
      "name": "bufferViewFloatVec3"
    },
    {
      "buffer": 0,
      "byteLength": 153592,
      "byteOffset": 537444,
      "byteStride": 8,
      "name": "bufferViewFloatVec2"
    }
  ],
  "buffers": [
    {
      "byteLength": 691036,
      "uri": "bin/RM_sig_P_MM2_YGx+RYW_3+3.bin"
    }
  ],
  "images": [
    {
      "uri": "textures\\RM_izostyk_N.ktx2"
    },
    {
      "uri": "textures\\RM_izostyk_ORM.ktx2"
    },
    {
      "uri": "textures\\RM_izostyk_RGBA.ktx2"
    },
    {
      "uri": "textures\\RM_MM1-2_N.ktx2"
    },
    {
      "uri": "textures\\RM_MM1-2_ORM.ktx2"
    },
    {
      "uri": "textures\\RM_MM1-2_RGBA.ktx2"
    }
  ],
  "materials": [
    {
      "name": "Material #34",
      "normalTexture": {
        "index": 0
      },
      "occlusionTexture": {
        "index": 1
      },
      "pbrMetallicRoughness": {
        "baseColorTexture": {
          "index": 2
        },
        "metallicRoughnessTexture": {
          "index": 1
        }
      }
    },
    {
      "name": "Material #35",
      "normalTexture": {
        "index": 3
      },
      "occlusionTexture": {
        "index": 4
      },
      "pbrMetallicRoughness": {
        "baseColorTexture": {
          "index": 5
        },
        "metallicRoughnessTexture": {
          "index": 4
        }
      }
    },
    {
      "name": "Линзы",
      "pbrMetallicRoughness": {
        "metallicFactor": 0.0,
        "roughnessFactor": 0.450053632
      }
    }
  ],
  "meshes": [
    {
      "name": "Изостык",
      "primitives": [
        {
          "attributes": {
            "NORMAL": 2,
            "POSITION": 1,
            "TEXCOORD_0": 3
          },
          "indices": 0,
          "material": 0
        }
      ]
    },
    {
      "name": "Светофор 3+2",
      "primitives": [
        {
          "attributes": {
            "NORMAL": 6,
            "POSITION": 5,
            "TEXCOORD_0": 7
          },
          "indices": 4,
          "material": 1
        }
      ]
    },
    {
      "name": "BOTTOM_YELLOW_Lens",
      "primitives": [
        {
          "attributes": {
            "NORMAL": 10,
            "POSITION": 9,
            "TEXCOORD_0": 11
          },
          "indices": 8,
          "material": 2
        }
      ]
    },
    {
      "name": "WHITE_Lens",
      "primitives": [
        {
          "attributes": {
            "NORMAL": 14,
            "POSITION": 13,
            "TEXCOORD_0": 15
          },
          "indices": 12,
          "material": 2
        }
      ]
    },
    {
      "name": "YELLOW_Lens",
      "primitives": [
        {
          "attributes": {
            "NORMAL": 18,
            "POSITION": 17,
            "TEXCOORD_0": 19
          },
          "indices": 16,
          "material": 2
        }
      ]
    },
    {
      "name": "RED_Lens",
      "primitives": [
        {
          "attributes": {
            "NORMAL": 22,
            "POSITION": 21,
            "TEXCOORD_0": 23
          },
          "indices": 20,
          "material": 2
        }
      ]
    },
    {
      "name": "GREEN_Lens",
      "primitives": [
        {
          "attributes": {
            "NORMAL": 26,
            "POSITION": 25,
            "TEXCOORD_0": 27
          },
          "indices": 24,
          "material": 2
        }
      ]
    }
  ],
  "nodes": [
    {
      "mesh": 0,
      "name": "Изостык",
      "translation": [
        0.0,
        -0.073162064,
        0.0
      ]
    },
    {
      "mesh": 1,
      "name": "Светофор 3+2",
      "translation": [
        0.0,
        3.34799981,
        1.92134857
      ]
    },
    {
      "mesh": 2,
      "name": "BOTTOM_YELLOW_Lens",
      "scale": [
        0.8670209,
        0.8670209,
        1.0
      ],
      "translation": [
        1.31732959e-05,
        4.67752075,
        2.49093843
      ]
    },
    {
      "mesh": 3,
      "name": "WHITE_Lens",
      "scale": [
        0.8670209,
        0.8670209,
        1.0
      ],
      "translation": [
        0.000184849181,
        4.37262154,
        2.49093866
      ]
    },
    {
      "mesh": 4,
      "name": "YELLOW_Lens",
      "scale": [
        0.8962057,
        0.8962057,
        1.0
      ],
      "translation": [
        1.23736994e-08,
        6.446229,
        2.49093819
      ]
    },
    {
      "mesh": 5,
      "name": "RED_Lens",
      "scale": [
        0.8962057,
        0.8962057,
        1.0
      ],
      "translation": [
        1.23736994e-08,
        4.98147,
        2.49093819
      ]
    },
    {
      "mesh": 6,
      "name": "GREEN_Lens",
      "scale": [
        0.8962057,
        0.8962057,
        1.0
      ],
      "translation": [
        1.23736994e-08,
        6.14224672,
        2.49022937
      ]
    }
  ],
  "samplers": [
    {
      "magFilter": 9729,
      "minFilter": 9987
    }
  ],
  "scene": 0,
  "scenes": [
    {
      "nodes": [
        0,
        1,
        2,
        3,
        4,
        5,
        6
      ]
    }
  ],
  "textures": [
    {
      "name": "RM_izostyk_N.jpg",
      "sampler": 0,
      "source": 0
    },
    {
      "name": "RM_izostyk_ORM.jpg",
      "sampler": 0,
      "source": 1
    },
    {
      "name": "RM_izostyk_RGBA.jpg",
      "sampler": 0,
      "source": 2
    },
    {
      "name": "RM_MM1-2_N.jpg",
      "sampler": 0,
      "source": 3
    },
    {
      "name": "RM_MM1-2_ORM.jpg",
      "sampler": 0,
      "source": 4
    },
    {
      "name": "RM_MM1-2_RGBA.jpg",
      "sampler": 0,
      "source": 5
    }
  ]
}