{
  "accessors": [
    {
      "bufferView": 0,
      "componentType": 5126,
      "count": 192,
      "max": [
        18.7331,
        -0.2,
        5.99999
      ],
      "min": [
        -18.7334,
        -10.2206,
        -96
      ],
      "type": "VEC3"
    },
    {
      "bufferView": 1,
      "componentType": 5126,
      "count": 192,
      "max": [
        0.647246,
        0.964509,
        0.696413
      ],
      "min": [
        -0.647242,
        0.516415,
        -0.696411
      ],
      "type": "VEC3"
    },
    {
      "bufferView": 2,
      "componentType": 5126,
      "count": 192,
      "max": [
        0.374769,
        1.0004
      ],
      "min": [
        0,
        0.1
      ],
      "type": "VEC2"
    },
    {
      "bufferView": 3,
      "componentType": 5125,
      "count": 630,
      "max": [
        191
      ],
      "min": [
        0
      ],
      "type": "SCALAR"
    }
  ],
  "asset": {
    "version": "2.0"
  },
  "bufferViews": [
    {
      "buffer": 0,
      "byteLength": 2304,
      "byteOffset": 0,
      "target": 34962
    },
    {
      "buffer": 0,
      "byteLength": 2304,
      "byteOffset": 2304,
      "target": 34962
    },
    {
      "buffer": 0,
      "byteLength": 1536,
      "byteOffset": 4608,
      "target": 34962
    },
    {
      "buffer": 0,
      "byteLength": 2520,
      "byteOffset": 6144,
      "target": 34963
    }
  ],
  "buffers": [
    {
      "byteLength": 8664,
      "uri": "bin/1nasip_90_TSM.bin"
    }
  ],
  "images": [
    {
      "uri": "..\\textures\\nasip_TSM.ktx2"
    }
  ],
  "materials": [
    {
      "pbrMetallicRoughness": {
        "baseColorTexture": {
          "index": 0,
          "texCoord": 0
        }
      }
    }
  ],
  "meshes": [
    {
      "primitives": [
        {
          "attributes": {
            "NORMAL": 1,
            "POSITION": 0,
            "TEXCOORD_0": 2
          },
          "indices": 3,
          "material": 0,
          "mode": 4
        }
      ]
    }
  ],
  "nodes": [
    {
      "mesh": 0
    }
  ],
  "samplers": [
    {
      "magFilter": 9729,
      "minFilter": 9987,
      "wrapS": 10497,
      "wrapT": 10497
    }
  ],
  "scene": 0,
  "scenes": [
    {
      "nodes": [
        0
      ]
    }
  ],
  "textures": [
    {
      "sampler": 0,
      "source": 0
    }
  ]
}