{
  "accessors": [
    {
      "bufferView": 0,
      "componentType": 5126,
      "count": 912,
      "max": [
        2.6851,
        10.9914,
        0.375352
      ],
      "min": [
        -1.04983,
        6.78818,
        -0.404859
      ],
      "type": "VEC3"
    },
    {
      "bufferView": 1,
      "componentType": 5126,
      "count": 912,
      "max": [
        1,
        1,
        1
      ],
      "min": [
        -1,
        -1,
        -1
      ],
      "type": "VEC3"
    },
    {
      "bufferView": 2,
      "componentType": 5126,
      "count": 912,
      "max": [
        2.23082,
        0.750101
      ],
      "min": [
        -0.998183,
        0.009386
      ],
      "type": "VEC2"
    },
    {
      "bufferView": 3,
      "componentType": 5125,
      "count": 1470,
      "max": [
        911
      ],
      "min": [
        0
      ],
      "type": "SCALAR"
    }
  ],
  "asset": {
    "version": "2.0"
  },
  "bufferViews": [
    {
      "buffer": 0,
      "byteLength": 10944,
      "byteOffset": 0,
      "target": 34962
    },
    {
      "buffer": 0,
      "byteLength": 10944,
      "byteOffset": 10944,
      "target": 34962
    },
    {
      "buffer": 0,
      "byteLength": 7296,
      "byteOffset": 21888,
      "target": 34962
    },
    {
      "buffer": 0,
      "byteLength": 5880,
      "byteOffset": 29184,
      "target": 34963
    }
  ],
  "buffers": [
    {
      "byteLength": 35064,
      "uri": "bin/1op0r4.3_.bin"
    }
  ],
  "images": [
    {
      "uri": "..\\textures\\1op04.3_.ktx2"
    }
  ],
  "materials": [
    {
      "pbrMetallicRoughness": {
        "baseColorTexture": {
          "index": 0,
          "texCoord": 0
        }
      }
    }
  ],
  "meshes": [
    {
      "primitives": [
        {
          "attributes": {
            "NORMAL": 1,
            "POSITION": 0,
            "TEXCOORD_0": 2
          },
          "indices": 3,
          "material": 0,
          "mode": 4
        }
      ]
    }
  ],
  "nodes": [
    {
      "mesh": 0
    }
  ],
  "samplers": [
    {
      "magFilter": 9729,
      "minFilter": 9987,
      "wrapS": 10497,
      "wrapT": 10497
    }
  ],
  "scene": 0,
  "scenes": [
    {
      "nodes": [
        0
      ]
    }
  ],
  "textures": [
    {
      "sampler": 0,
      "source": 0
    }
  ]
}