{
  "accessors": [
    {
      "bufferView": 0,
      "componentType": 5126,
      "count": 366,
      "max": [
        0.782737,
        10.513,
        0.190507
      ],
      "min": [
        -2.47445,
        6.83544,
        -0.190507
      ],
      "type": "VEC3"
    },
    {
      "bufferView": 1,
      "componentType": 5126,
      "count": 366,
      "max": [
        1,
        1,
        1
      ],
      "min": [
        -1,
        -1,
        -1
      ],
      "type": "VEC3"
    },
    {
      "bufferView": 2,
      "componentType": 5126,
      "count": 366,
      "max": [
        0.545472,
        0.872607
      ],
      "min": [
        0.155918,
        0.000943533
      ],
      "type": "VEC2"
    },
    {
      "bufferView": 3,
      "componentType": 5125,
      "count": 732,
      "max": [
        365
      ],
      "min": [
        0
      ],
      "type": "SCALAR"
    }
  ],
  "asset": {
    "version": "2.0"
  },
  "bufferViews": [
    {
      "buffer": 0,
      "byteLength": 4392,
      "byteOffset": 0,
      "target": 34962
    },
    {
      "buffer": 0,
      "byteLength": 4392,
      "byteOffset": 4392,
      "target": 34962
    },
    {
      "buffer": 0,
      "byteLength": 2928,
      "byteOffset": 8784,
      "target": 34962
    },
    {
      "buffer": 0,
      "byteLength": 2928,
      "byteOffset": 11712,
      "target": 34963
    }
  ],
  "buffers": [
    {
      "byteLength": 14640,
      "uri": "bin/1op0l4.1_.bin"
    }
  ],
  "images": [
    {
      "uri": "..\\textures\\KontSet_2.ktx2"
    }
  ],
  "materials": [
    {
      "alphaMode": "BLEND",
      "pbrMetallicRoughness": {
        "baseColorTexture": {
          "index": 0,
          "texCoord": 0
        }
      }
    }
  ],
  "meshes": [
    {
      "primitives": [
        {
          "attributes": {
            "NORMAL": 1,
            "POSITION": 0,
            "TEXCOORD_0": 2
          },
          "indices": 3,
          "material": 0,
          "mode": 4
        }
      ]
    }
  ],
  "nodes": [
    {
      "mesh": 0
    }
  ],
  "samplers": [
    {
      "magFilter": 9729,
      "minFilter": 9987,
      "wrapS": 10497,
      "wrapT": 10497
    }
  ],
  "scene": 0,
  "scenes": [
    {
      "nodes": [
        0
      ]
    }
  ],
  "textures": [
    {
      "sampler": 0,
      "source": 0
    }
  ]
}