{
  "accessors": [
    {
      "bufferView": 0,
      "componentType": 5126,
      "count": 2134,
      "max": [
        4.74452,
        9.72408,
        0.435395
      ],
      "min": [
        4.05419,
        -2.77573,
        -0.429207
      ],
      "type": "VEC3"
    },
    {
      "bufferView": 1,
      "componentType": 5126,
      "count": 2134,
      "max": [
        1,
        1,
        1
      ],
      "min": [
        -1,
        -1,
        -1
      ],
      "type": "VEC3"
    },
    {
      "bufferView": 2,
      "componentType": 5126,
      "count": 2134,
      "max": [
        0.995663,
        0.653256
      ],
      "min": [
        0.00493115,
        0.00396901
      ],
      "type": "VEC2"
    },
    {
      "bufferView": 3,
      "componentType": 5125,
      "count": 2496,
      "max": [
        2133
      ],
      "min": [
        0
      ],
      "type": "SCALAR"
    }
  ],
  "asset": {
    "version": "2.0"
  },
  "bufferViews": [
    {
      "buffer": 0,
      "byteLength": 25608,
      "byteOffset": 0,
      "target": 34962
    },
    {
      "buffer": 0,
      "byteLength": 25608,
      "byteOffset": 25608,
      "target": 34962
    },
    {
      "buffer": 0,
      "byteLength": 17072,
      "byteOffset": 51216,
      "target": 34962
    },
    {
      "buffer": 0,
      "byteLength": 9984,
      "byteOffset": 68288,
      "target": 34963
    }
  ],
  "buffers": [
    {
      "byteLength": 78272,
      "uri": "bin/1op0r4.4.bin"
    }
  ],
  "images": [
    {
      "uri": "..\\textures\\1op04.4.ktx2"
    }
  ],
  "materials": [
    {
      "pbrMetallicRoughness": {
        "baseColorTexture": {
          "index": 0,
          "texCoord": 0
        }
      }
    }
  ],
  "meshes": [
    {
      "primitives": [
        {
          "attributes": {
            "NORMAL": 1,
            "POSITION": 0,
            "TEXCOORD_0": 2
          },
          "indices": 3,
          "material": 0,
          "mode": 4
        }
      ]
    }
  ],
  "nodes": [
    {
      "mesh": 0
    }
  ],
  "samplers": [
    {
      "magFilter": 9729,
      "minFilter": 9987,
      "wrapS": 10497,
      "wrapT": 10497
    }
  ],
  "scene": 0,
  "scenes": [
    {
      "nodes": [
        0
      ]
    }
  ],
  "textures": [
    {
      "sampler": 0,
      "source": 0
    }
  ]
}