{
  "accessors": [
    {
      "bufferView": 0,
      "componentType": 5126,
      "count": 2044,
      "max": [
        4.74854,
        12.3187,
        0.427777
      ],
      "min": [
        3.51999,
        -2.77573,
        -0.429192
      ],
      "type": "VEC3"
    },
    {
      "bufferView": 1,
      "componentType": 5126,
      "count": 2044,
      "max": [
        1,
        1,
        1
      ],
      "min": [
        -1,
        -1,
        -1
      ],
      "type": "VEC3"
    },
    {
      "bufferView": 2,
      "componentType": 5126,
      "count": 2044,
      "max": [
        0.995091,
        0.648089
      ],
      "min": [
        0.0039275,
        0.217659
      ],
      "type": "VEC2"
    },
    {
      "bufferView": 3,
      "componentType": 5125,
      "count": 4086,
      "max": [
        2043
      ],
      "min": [
        0
      ],
      "type": "SCALAR"
    }
  ],
  "asset": {
    "version": "2.0"
  },
  "bufferViews": [
    {
      "buffer": 0,
      "byteLength": 24528,
      "byteOffset": 0,
      "target": 34962
    },
    {
      "buffer": 0,
      "byteLength": 24528,
      "byteOffset": 24528,
      "target": 34962
    },
    {
      "buffer": 0,
      "byteLength": 16352,
      "byteOffset": 49056,
      "target": 34962
    },
    {
      "buffer": 0,
      "byteLength": 16344,
      "byteOffset": 65408,
      "target": 34963
    }
  ],
  "buffers": [
    {
      "byteLength": 81752,
      "uri": "bin/1op0r4.3.bin"
    }
  ],
  "images": [
    {
      "uri": "..\\textures\\1op04.3.ktx2"
    }
  ],
  "materials": [
    {
      "pbrMetallicRoughness": {
        "baseColorTexture": {
          "index": 0,
          "texCoord": 0
        }
      }
    }
  ],
  "meshes": [
    {
      "primitives": [
        {
          "attributes": {
            "NORMAL": 1,
            "POSITION": 0,
            "TEXCOORD_0": 2
          },
          "indices": 3,
          "material": 0,
          "mode": 4
        }
      ]
    }
  ],
  "nodes": [
    {
      "mesh": 0
    }
  ],
  "samplers": [
    {
      "magFilter": 9729,
      "minFilter": 9987,
      "wrapS": 10497,
      "wrapT": 10497
    }
  ],
  "scene": 0,
  "scenes": [
    {
      "nodes": [
        0
      ]
    }
  ],
  "textures": [
    {
      "sampler": 0,
      "source": 0
    }
  ]
}