{
  "accessors": [
    {
      "bufferView": 0,
      "componentType": 5126,
      "count": 1456,
      "max": [
        4.85606,
        12.5082,
        0.794119
      ],
      "min": [
        3.49443,
        -2.76916,
        -0.713404
      ],
      "type": "VEC3"
    },
    {
      "bufferView": 1,
      "componentType": 5126,
      "count": 1456,
      "max": [
        1,
        1,
        1
      ],
      "min": [
        -1,
        -1,
        -1
      ],
      "type": "VEC3"
    },
    {
      "bufferView": 2,
      "componentType": 5126,
      "count": 1456,
      "max": [
        0.991152,
        0.995934
      ],
      "min": [
        0.00385702,
        0.00133699
      ],
      "type": "VEC2"
    },
    {
      "bufferView": 3,
      "componentType": 5125,
      "count": 2637,
      "max": [
        1455
      ],
      "min": [
        0
      ],
      "type": "SCALAR"
    }
  ],
  "asset": {
    "version": "2.0"
  },
  "bufferViews": [
    {
      "buffer": 0,
      "byteLength": 17472,
      "byteOffset": 0,
      "target": 34962
    },
    {
      "buffer": 0,
      "byteLength": 17472,
      "byteOffset": 17472,
      "target": 34962
    },
    {
      "buffer": 0,
      "byteLength": 11648,
      "byteOffset": 34944,
      "target": 34962
    },
    {
      "buffer": 0,
      "byteLength": 10548,
      "byteOffset": 46592,
      "target": 34963
    }
  ],
  "buffers": [
    {
      "byteLength": 57140,
      "uri": "bin/1op0r4.5.bin"
    }
  ],
  "images": [
    {
      "uri": "..\\textures\\1op04.5.ktx2"
    }
  ],
  "materials": [
    {
      "pbrMetallicRoughness": {
        "baseColorTexture": {
          "index": 0,
          "texCoord": 0
        }
      }
    }
  ],
  "meshes": [
    {
      "primitives": [
        {
          "attributes": {
            "NORMAL": 1,
            "POSITION": 0,
            "TEXCOORD_0": 2
          },
          "indices": 3,
          "material": 0,
          "mode": 4
        }
      ]
    }
  ],
  "nodes": [
    {
      "mesh": 0
    }
  ],
  "samplers": [
    {
      "magFilter": 9729,
      "minFilter": 9987,
      "wrapS": 10497,
      "wrapT": 10497
    }
  ],
  "scene": 0,
  "scenes": [
    {
      "nodes": [
        0
      ]
    }
  ],
  "textures": [
    {
      "sampler": 0,
      "source": 0
    }
  ]
}