{
  "accessors": [
    {
      "bufferView": 0,
      "componentType": 5126,
      "count": 4116,
      "max": [
        6.66867,
        10.9398,
        0.378866
      ],
      "min": [
        -6.6445,
        9.7177,
        -0.379544
      ],
      "type": "VEC3"
    },
    {
      "bufferView": 1,
      "componentType": 5126,
      "count": 4116,
      "max": [
        1,
        1,
        1
      ],
      "min": [
        -1,
        -1,
        -1
      ],
      "type": "VEC3"
    },
    {
      "bufferView": 2,
      "componentType": 5126,
      "count": 4116,
      "max": [
        1.00012,
        0.692257
      ],
      "min": [
        0.00101048,
        0.103607
      ],
      "type": "VEC2"
    },
    {
      "bufferView": 3,
      "componentType": 5125,
      "count": 4320,
      "max": [
        4115
      ],
      "min": [
        0
      ],
      "type": "SCALAR"
    }
  ],
  "asset": {
    "version": "2.0"
  },
  "bufferViews": [
    {
      "buffer": 0,
      "byteLength": 49392,
      "byteOffset": 0,
      "target": 34962
    },
    {
      "buffer": 0,
      "byteLength": 49392,
      "byteOffset": 49392,
      "target": 34962
    },
    {
      "buffer": 0,
      "byteLength": 32928,
      "byteOffset": 98784,
      "target": 34962
    },
    {
      "buffer": 0,
      "byteLength": 17280,
      "byteOffset": 131712,
      "target": 34963
    }
  ],
  "buffers": [
    {
      "byteLength": 148992,
      "uri": "bin/1op4.3_.bin"
    }
  ],
  "images": [
    {
      "uri": "..\\textures\\1op4.3_.ktx2"
    }
  ],
  "materials": [
    {
      "pbrMetallicRoughness": {
        "baseColorTexture": {
          "index": 0,
          "texCoord": 0
        }
      }
    }
  ],
  "meshes": [
    {
      "primitives": [
        {
          "attributes": {
            "NORMAL": 1,
            "POSITION": 0,
            "TEXCOORD_0": 2
          },
          "indices": 3,
          "material": 0,
          "mode": 4
        }
      ]
    }
  ],
  "nodes": [
    {
      "mesh": 0
    }
  ],
  "samplers": [
    {
      "magFilter": 9729,
      "minFilter": 9987,
      "wrapS": 10497,
      "wrapT": 10497
    }
  ],
  "scene": 0,
  "scenes": [
    {
      "nodes": [
        0
      ]
    }
  ],
  "textures": [
    {
      "sampler": 0,
      "source": 0
    }
  ]
}