{
  "accessors": [
    {
      "bufferView": 0,
      "componentType": 5126,
      "count": 940,
      "max": [
        1.35,
        0.311741,
        -8.05017e-05
      ],
      "min": [
        -1.35,
        -0.06782,
        -5.00001
      ],
      "type": "VEC3"
    },
    {
      "bufferView": 1,
      "componentType": 5126,
      "count": 940,
      "max": [
        1,
        0.999028,
        1
      ],
      "min": [
        -1,
        -0.912556,
        -1
      ],
      "type": "VEC3"
    },
    {
      "bufferView": 2,
      "componentType": 5126,
      "count": 940,
      "max": [
        0.960324,
        0.971098
      ],
      "min": [
        0.200713,
        6.59986e-05
      ],
      "type": "VEC2"
    },
    {
      "bufferView": 3,
      "componentType": 5125,
      "count": 1998,
      "max": [
        939
      ],
      "min": [
        0
      ],
      "type": "SCALAR"
    }
  ],
  "asset": {
    "version": "2.0"
  },
  "bufferViews": [
    {
      "buffer": 0,
      "byteLength": 11280,
      "byteOffset": 0,
      "target": 34962
    },
    {
      "buffer": 0,
      "byteLength": 11280,
      "byteOffset": 11280,
      "target": 34962
    },
    {
      "buffer": 0,
      "byteLength": 7520,
      "byteOffset": 22560,
      "target": 34962
    },
    {
      "buffer": 0,
      "byteLength": 7992,
      "byteOffset": 30080,
      "target": 34963
    }
  ],
  "buffers": [
    {
      "byteLength": 38072,
      "uri": "bin/1track_s_4.bin"
    }
  ],
  "images": [
    {
      "uri": "..\\textures\\TBB_Rails.ktx2"
    }
  ],
  "materials": [
    {
      "alphaMode": "BLEND",
      "pbrMetallicRoughness": {
        "baseColorTexture": {
          "index": 0,
          "texCoord": 0
        }
      }
    }
  ],
  "meshes": [
    {
      "primitives": [
        {
          "attributes": {
            "NORMAL": 1,
            "POSITION": 0,
            "TEXCOORD_0": 2
          },
          "indices": 3,
          "material": 0,
          "mode": 4
        }
      ]
    }
  ],
  "nodes": [
    {
      "mesh": 0
    }
  ],
  "samplers": [
    {
      "magFilter": 9729,
      "minFilter": 9987,
      "wrapS": 10497,
      "wrapT": 10497
    }
  ],
  "scene": 0,
  "scenes": [
    {
      "nodes": [
        0
      ]
    }
  ],
  "textures": [
    {
      "sampler": 0,
      "source": 0
    }
  ]
}