{
  "accessors": [
    {
      "bufferView": 0,
      "componentType": 5126,
      "count": 36997,
      "max": [
        3.40664,
        0.441619,
        3.11318
      ],
      "min": [
        -8.90663,
        -0.504614,
        -76.7213
      ],
      "type": "VEC3"
    },
    {
      "bufferView": 1,
      "componentType": 5126,
      "count": 36997,
      "max": [
        1,
        1,
        1
      ],
      "min": [
        -1,
        -1,
        -1
      ],
      "type": "VEC3"
    },
    {
      "bufferView": 2,
      "componentType": 5126,
      "count": 36997,
      "max": [
        0.960329,
        0.971188
      ],
      "min": [
        0.0010975,
        -1.33239e-06
      ],
      "type": "VEC2"
    },
    {
      "bufferView": 3,
      "componentType": 5125,
      "count": 73332,
      "max": [
        36996
      ],
      "min": [
        0
      ],
      "type": "SCALAR"
    }
  ],
  "asset": {
    "version": "2.0"
  },
  "bufferViews": [
    {
      "buffer": 0,
      "byteLength": 443964,
      "byteOffset": 0,
      "target": 34962
    },
    {
      "buffer": 0,
      "byteLength": 443964,
      "byteOffset": 443964,
      "target": 34962
    },
    {
      "buffer": 0,
      "byteLength": 295976,
      "byteOffset": 887928,
      "target": 34962
    },
    {
      "buffer": 0,
      "byteLength": 293328,
      "byteOffset": 1183904,
      "target": 34963
    }
  ],
  "buffers": [
    {
      "byteLength": 1477232,
      "uri": "bin/2track2-2_5.5_TSM.bin"
    }
  ],
  "images": [
    {
      "uri": "..\\textures\\TBB_Rails.ktx2"
    }
  ],
  "materials": [
    {
      "alphaMode": "BLEND",
      "pbrMetallicRoughness": {
        "baseColorTexture": {
          "index": 0,
          "texCoord": 0
        }
      }
    }
  ],
  "meshes": [
    {
      "primitives": [
        {
          "attributes": {
            "NORMAL": 1,
            "POSITION": 0,
            "TEXCOORD_0": 2
          },
          "indices": 3,
          "material": 0,
          "mode": 4
        }
      ]
    }
  ],
  "nodes": [
    {
      "mesh": 0
    }
  ],
  "samplers": [
    {
      "magFilter": 9729,
      "minFilter": 9987,
      "wrapS": 10497,
      "wrapT": 10497
    }
  ],
  "scene": 0,
  "scenes": [
    {
      "nodes": [
        0
      ]
    }
  ],
  "textures": [
    {
      "sampler": 0,
      "source": 0
    }
  ]
}