{
  "accessors": [
    {
      "bufferView": 0,
      "componentType": 5126,
      "count": 1402,
      "max": [
        0.399346,
        9.52933,
        0.00518417
      ],
      "min": [
        -0.705083,
        -3.22001,
        -47.7526
      ],
      "type": "VEC3"
    },
    {
      "bufferView": 1,
      "componentType": 5126,
      "count": 1402,
      "max": [
        1,
        1,
        1
      ],
      "min": [
        -1,
        -1,
        -1
      ],
      "type": "VEC3"
    },
    {
      "bufferView": 2,
      "componentType": 5126,
      "count": 1402,
      "max": [
        0.999282,
        0.8647
      ],
      "min": [
        0.00101112,
        0.00100404
      ],
      "type": "VEC2"
    },
    {
      "bufferView": 3,
      "componentType": 5125,
      "count": 3018,
      "max": [
        1401
      ],
      "min": [
        0
      ],
      "type": "SCALAR"
    }
  ],
  "asset": {
    "version": "2.0"
  },
  "bufferViews": [
    {
      "buffer": 0,
      "byteLength": 16824,
      "byteOffset": 0,
      "target": 34962
    },
    {
      "buffer": 0,
      "byteLength": 16824,
      "byteOffset": 16824,
      "target": 34962
    },
    {
      "buffer": 0,
      "byteLength": 11216,
      "byteOffset": 33648,
      "target": 34962
    },
    {
      "buffer": 0,
      "byteLength": 12072,
      "byteOffset": 44864,
      "target": 34963
    }
  ],
  "buffers": [
    {
      "byteLength": 56936,
      "uri": "bin/KP40m_front.bin"
    }
  ],
  "images": [
    {
      "uri": "..\\textures\\KontSet_1.ktx2"
    }
  ],
  "materials": [
    {
      "alphaMode": "BLEND",
      "pbrMetallicRoughness": {
        "baseColorTexture": {
          "index": 0,
          "texCoord": 0
        }
      }
    }
  ],
  "meshes": [
    {
      "primitives": [
        {
          "attributes": {
            "NORMAL": 1,
            "POSITION": 0,
            "TEXCOORD_0": 2
          },
          "indices": 3,
          "material": 0,
          "mode": 4
        }
      ]
    }
  ],
  "nodes": [
    {
      "mesh": 0
    }
  ],
  "samplers": [
    {
      "magFilter": 9729,
      "minFilter": 9987,
      "wrapS": 10497,
      "wrapT": 10497
    }
  ],
  "scene": 0,
  "scenes": [
    {
      "nodes": [
        0
      ]
    }
  ],
  "textures": [
    {
      "sampler": 0,
      "source": 0
    }
  ]
}