{
  "accessors": [
    {
      "bufferView": 0,
      "componentType": 5126,
      "count": 838,
      "max": [
        4.09787,
        1.11254,
        0.0010272
      ],
      "min": [
        -3.98646,
        -2.16568,
        -10.001
      ],
      "type": "VEC3"
    },
    {
      "bufferView": 1,
      "componentType": 5126,
      "count": 838,
      "max": [
        1,
        1,
        1
      ],
      "min": [
        -1,
        -1,
        -1
      ],
      "type": "VEC3"
    },
    {
      "bufferView": 2,
      "componentType": 5126,
      "count": 838,
      "max": [
        0.989485,
        0.990667
      ],
      "min": [
        0.00797057,
        0.0361392
      ],
      "type": "VEC2"
    },
    {
      "bufferView": 3,
      "componentType": 5125,
      "count": 1416,
      "max": [
        837
      ],
      "min": [
        0
      ],
      "type": "SCALAR"
    }
  ],
  "asset": {
    "version": "2.0"
  },
  "bufferViews": [
    {
      "buffer": 0,
      "byteLength": 10056,
      "byteOffset": 0,
      "target": 34962
    },
    {
      "buffer": 0,
      "byteLength": 10056,
      "byteOffset": 10056,
      "target": 34962
    },
    {
      "buffer": 0,
      "byteLength": 6704,
      "byteOffset": 20112,
      "target": 34962
    },
    {
      "buffer": 0,
      "byteLength": 5664,
      "byteOffset": 26816,
      "target": 34963
    }
  ],
  "buffers": [
    {
      "byteLength": 32480,
      "uri": "bin/KZDM_10m_zab.bin"
    }
  ],
  "images": [
    {
      "uri": "..\\textures\\KZDM_most_2.ktx2"
    }
  ],
  "materials": [
    {
      "alphaMode": "BLEND",
      "pbrMetallicRoughness": {
        "baseColorTexture": {
          "index": 0,
          "texCoord": 0
        }
      }
    }
  ],
  "meshes": [
    {
      "primitives": [
        {
          "attributes": {
            "NORMAL": 1,
            "POSITION": 0,
            "TEXCOORD_0": 2
          },
          "indices": 3,
          "material": 0,
          "mode": 4
        }
      ]
    }
  ],
  "nodes": [
    {
      "mesh": 0
    }
  ],
  "samplers": [
    {
      "magFilter": 9729,
      "minFilter": 9987,
      "wrapS": 10497,
      "wrapT": 10497
    }
  ],
  "scene": 0,
  "scenes": [
    {
      "nodes": [
        0
      ]
    }
  ],
  "textures": [
    {
      "sampler": 0,
      "source": 0
    }
  ]
}