{
  "accessors": [
    {
      "bufferView": 0,
      "componentType": 5126,
      "count": 1124,
      "max": [
        3.94534,
        10.0267,
        0.299999
      ],
      "min": [
        -1.8353,
        -0.335445,
        -50.3
      ],
      "type": "VEC3"
    },
    {
      "bufferView": 1,
      "componentType": 5126,
      "count": 1124,
      "max": [
        1,
        1,
        1
      ],
      "min": [
        -1,
        -1,
        -1
      ],
      "type": "VEC3"
    },
    {
      "bufferView": 2,
      "componentType": 5126,
      "count": 1124,
      "max": [
        0.982431,
        0.989555
      ],
      "min": [
        0.00383143,
        -5.74114e-06
      ],
      "type": "VEC2"
    },
    {
      "bufferView": 3,
      "componentType": 5125,
      "count": 2064,
      "max": [
        1123
      ],
      "min": [
        0
      ],
      "type": "SCALAR"
    }
  ],
  "asset": {
    "version": "2.0"
  },
  "bufferViews": [
    {
      "buffer": 0,
      "byteLength": 13488,
      "byteOffset": 0,
      "target": 34962
    },
    {
      "buffer": 0,
      "byteLength": 13488,
      "byteOffset": 13488,
      "target": 34962
    },
    {
      "buffer": 0,
      "byteLength": 8992,
      "byteOffset": 26976,
      "target": 34962
    },
    {
      "buffer": 0,
      "byteLength": 8256,
      "byteOffset": 35968,
      "target": 34963
    }
  ],
  "buffers": [
    {
      "byteLength": 44224,
      "uri": "bin/KZDM_opkr.bin"
    }
  ],
  "images": [
    {
      "uri": "..\\textures\\KontSet_2.ktx2"
    }
  ],
  "materials": [
    {
      "alphaMode": "BLEND",
      "pbrMetallicRoughness": {
        "baseColorTexture": {
          "index": 0,
          "texCoord": 0
        }
      }
    }
  ],
  "meshes": [
    {
      "primitives": [
        {
          "attributes": {
            "NORMAL": 1,
            "POSITION": 0,
            "TEXCOORD_0": 2
          },
          "indices": 3,
          "material": 0,
          "mode": 4
        }
      ]
    }
  ],
  "nodes": [
    {
      "mesh": 0
    }
  ],
  "samplers": [
    {
      "magFilter": 9729,
      "minFilter": 9987,
      "wrapS": 10497,
      "wrapT": 10497
    }
  ],
  "scene": 0,
  "scenes": [
    {
      "nodes": [
        0
      ]
    }
  ],
  "textures": [
    {
      "sampler": 0,
      "source": 0
    }
  ]
}