{
  "accessors": [
    {
      "bufferView": 0,
      "componentType": 5126,
      "count": 84574,
      "max": [
        3.78542,
        23.8857,
        0.00462341
      ],
      "min": [
        -3.78542,
        -3.73627,
        -128.004
      ],
      "type": "VEC3"
    },
    {
      "bufferView": 1,
      "componentType": 5126,
      "count": 84574,
      "max": [
        1,
        1,
        1
      ],
      "min": [
        -1,
        -1,
        -1
      ],
      "type": "VEC3"
    },
    {
      "bufferView": 2,
      "componentType": 5126,
      "count": 84574,
      "max": [
        1,
        1
      ],
      "min": [
        0,
        0
      ],
      "type": "VEC2"
    },
    {
      "bufferView": 3,
      "componentType": 5125,
      "count": 108330,
      "max": [
        84573
      ],
      "min": [
        0
      ],
      "type": "SCALAR"
    }
  ],
  "asset": {
    "version": "2.0"
  },
  "bufferViews": [
    {
      "buffer": 0,
      "byteLength": 1014888,
      "byteOffset": 0,
      "target": 34962
    },
    {
      "buffer": 0,
      "byteLength": 1014888,
      "byteOffset": 1014888,
      "target": 34962
    },
    {
      "buffer": 0,
      "byteLength": 676592,
      "byteOffset": 2029776,
      "target": 34962
    },
    {
      "buffer": 0,
      "byteLength": 433320,
      "byteOffset": 2706368,
      "target": 34963
    }
  ],
  "buffers": [
    {
      "byteLength": 3139688,
      "uri": "bin/KZDM_arka_127m.bin"
    }
  ],
  "images": [
    {
      "uri": "..\\textures\\KZDM_arka_127m.ktx2"
    }
  ],
  "materials": [
    {
      "pbrMetallicRoughness": {
        "baseColorTexture": {
          "index": 0,
          "texCoord": 0
        }
      }
    }
  ],
  "meshes": [
    {
      "primitives": [
        {
          "attributes": {
            "NORMAL": 1,
            "POSITION": 0,
            "TEXCOORD_0": 2
          },
          "indices": 3,
          "material": 0,
          "mode": 4
        }
      ]
    }
  ],
  "nodes": [
    {
      "mesh": 0
    }
  ],
  "samplers": [
    {
      "magFilter": 9729,
      "minFilter": 9987,
      "wrapS": 10497,
      "wrapT": 10497
    }
  ],
  "scene": 0,
  "scenes": [
    {
      "nodes": [
        0
      ]
    }
  ],
  "textures": [
    {
      "sampler": 0,
      "source": 0
    }
  ]
}