{
  "accessors": [
    {
      "bufferView": 0,
      "componentType": 5126,
      "count": 598,
      "max": [
        4.13068,
        9.52933,
        0.334283
      ],
      "min": [
        -0.395283,
        -2.42849,
        -0.335717
      ],
      "type": "VEC3"
    },
    {
      "bufferView": 1,
      "componentType": 5126,
      "count": 598,
      "max": [
        1,
        1,
        1
      ],
      "min": [
        -1,
        -1,
        -1
      ],
      "type": "VEC3"
    },
    {
      "bufferView": 2,
      "componentType": 5126,
      "count": 598,
      "max": [
        0.25227,
        0.864238
      ],
      "min": [
        0.00177704,
        0.000936835
      ],
      "type": "VEC2"
    },
    {
      "bufferView": 3,
      "componentType": 5125,
      "count": 1098,
      "max": [
        597
      ],
      "min": [
        0
      ],
      "type": "SCALAR"
    }
  ],
  "asset": {
    "version": "2.0"
  },
  "bufferViews": [
    {
      "buffer": 0,
      "byteLength": 7176,
      "byteOffset": 0,
      "target": 34962
    },
    {
      "buffer": 0,
      "byteLength": 7176,
      "byteOffset": 7176,
      "target": 34962
    },
    {
      "buffer": 0,
      "byteLength": 4784,
      "byteOffset": 14352,
      "target": 34962
    },
    {
      "buffer": 0,
      "byteLength": 4392,
      "byteOffset": 19136,
      "target": 34963
    }
  ],
  "buffers": [
    {
      "byteLength": 23528,
      "uri": "bin/opk1r.bin"
    }
  ],
  "images": [
    {
      "uri": "..\\textures\\KontSet_1.ktx2"
    }
  ],
  "materials": [
    {
      "alphaMode": "BLEND",
      "pbrMetallicRoughness": {
        "baseColorTexture": {
          "index": 0,
          "texCoord": 0
        }
      }
    }
  ],
  "meshes": [
    {
      "primitives": [
        {
          "attributes": {
            "NORMAL": 1,
            "POSITION": 0,
            "TEXCOORD_0": 2
          },
          "indices": 3,
          "material": 0,
          "mode": 4
        }
      ]
    }
  ],
  "nodes": [
    {
      "mesh": 0
    }
  ],
  "samplers": [
    {
      "magFilter": 9729,
      "minFilter": 9987,
      "wrapS": 10497,
      "wrapT": 10497
    }
  ],
  "scene": 0,
  "scenes": [
    {
      "nodes": [
        0
      ]
    }
  ],
  "textures": [
    {
      "sampler": 0,
      "source": 0
    }
  ]
}