{
  "accessors": [
    {
      "bufferView": 0,
      "componentType": 5126,
      "count": 269,
      "max": [
        3.25767,
        9.319,
        0.0909004
      ],
      "min": [
        -0.61463,
        6.80826,
        -0.0908012
      ],
      "type": "VEC3"
    },
    {
      "bufferView": 1,
      "componentType": 5126,
      "count": 269,
      "max": [
        1,
        0.999965,
        1
      ],
      "min": [
        -1,
        -0.999965,
        -1
      ],
      "type": "VEC3"
    },
    {
      "bufferView": 2,
      "componentType": 5126,
      "count": 269,
      "max": [
        0.2523,
        0.8638
      ],
      "min": [
        0.0724888,
        0.169059
      ],
      "type": "VEC2"
    },
    {
      "bufferView": 3,
      "componentType": 5125,
      "count": 504,
      "max": [
        268
      ],
      "min": [
        0
      ],
      "type": "SCALAR"
    }
  ],
  "asset": {
    "version": "2.0"
  },
  "bufferViews": [
    {
      "buffer": 0,
      "byteLength": 3228,
      "byteOffset": 0,
      "target": 34962
    },
    {
      "buffer": 0,
      "byteLength": 3228,
      "byteOffset": 3228,
      "target": 34962
    },
    {
      "buffer": 0,
      "byteLength": 2152,
      "byteOffset": 6456,
      "target": 34962
    },
    {
      "buffer": 0,
      "byteLength": 2016,
      "byteOffset": 8608,
      "target": 34963
    }
  ],
  "buffers": [
    {
      "byteLength": 10624,
      "uri": "bin/opk1r7.bin"
    }
  ],
  "images": [
    {
      "uri": "..\\textures\\KontSet_4.ktx2"
    }
  ],
  "materials": [
    {
      "alphaMode": "BLEND",
      "pbrMetallicRoughness": {
        "baseColorTexture": {
          "index": 0,
          "texCoord": 0
        }
      }
    }
  ],
  "meshes": [
    {
      "primitives": [
        {
          "attributes": {
            "NORMAL": 1,
            "POSITION": 0,
            "TEXCOORD_0": 2
          },
          "indices": 3,
          "material": 0,
          "mode": 4
        }
      ]
    }
  ],
  "nodes": [
    {
      "mesh": 0
    }
  ],
  "samplers": [
    {
      "magFilter": 9729,
      "minFilter": 9987,
      "wrapS": 10497,
      "wrapT": 10497
    }
  ],
  "scene": 0,
  "scenes": [
    {
      "nodes": [
        0
      ]
    }
  ],
  "textures": [
    {
      "sampler": 0,
      "source": 0
    }
  ]
}