{
  "accessors": [
    {
      "bufferView": 0,
      "componentType": 5126,
      "count": 3828,
      "max": [
        1.8353,
        9.52933,
        5.68645
      ],
      "min": [
        -4.77837,
        -3.22001,
        -105.674
      ],
      "type": "VEC3"
    },
    {
      "bufferView": 1,
      "componentType": 5126,
      "count": 3828,
      "max": [
        1,
        1,
        1
      ],
      "min": [
        -1,
        -1,
        -1
      ],
      "type": "VEC3"
    },
    {
      "bufferView": 2,
      "componentType": 5126,
      "count": 3828,
      "max": [
        0.999579,
        0.8647
      ],
      "min": [
        0.000663955,
        0.000706188
      ],
      "type": "VEC2"
    },
    {
      "bufferView": 3,
      "componentType": 5125,
      "count": 7764,
      "max": [
        3827
      ],
      "min": [
        0
      ],
      "type": "SCALAR"
    }
  ],
  "asset": {
    "version": "2.0"
  },
  "bufferViews": [
    {
      "buffer": 0,
      "byteLength": 45936,
      "byteOffset": 0,
      "target": 34962
    },
    {
      "buffer": 0,
      "byteLength": 45936,
      "byteOffset": 45936,
      "target": 34962
    },
    {
      "buffer": 0,
      "byteLength": 30624,
      "byteOffset": 91872,
      "target": 34962
    },
    {
      "buffer": 0,
      "byteLength": 31056,
      "byteOffset": 122496,
      "target": 34963
    }
  ],
  "buffers": [
    {
      "byteLength": 153552,
      "uri": "bin/opk_anker_ntL.bin"
    }
  ],
  "images": [
    {
      "uri": "..\\textures\\KontSet_1.ktx2"
    }
  ],
  "materials": [
    {
      "alphaMode": "BLEND",
      "pbrMetallicRoughness": {
        "baseColorTexture": {
          "index": 0,
          "texCoord": 0
        }
      }
    }
  ],
  "meshes": [
    {
      "primitives": [
        {
          "attributes": {
            "NORMAL": 1,
            "POSITION": 0,
            "TEXCOORD_0": 2
          },
          "indices": 3,
          "material": 0,
          "mode": 4
        }
      ]
    }
  ],
  "nodes": [
    {
      "mesh": 0
    }
  ],
  "samplers": [
    {
      "magFilter": 9729,
      "minFilter": 9987,
      "wrapS": 10497,
      "wrapT": 10497
    }
  ],
  "scene": 0,
  "scenes": [
    {
      "nodes": [
        0
      ]
    }
  ],
  "textures": [
    {
      "sampler": 0,
      "source": 0
    }
  ]
}