{
  "accessors": [
    {
      "bufferView": 0,
      "componentType": 5126,
      "count": 5620,
      "max": [
        1.83538,
        9.52681,
        58.0669
      ],
      "min": [
        -5.02234,
        -3.22001,
        -108.192
      ],
      "type": "VEC3"
    },
    {
      "bufferView": 1,
      "componentType": 5126,
      "count": 5620,
      "max": [
        1,
        1,
        1
      ],
      "min": [
        -1,
        -1,
        -1
      ],
      "type": "VEC3"
    },
    {
      "bufferView": 2,
      "componentType": 5126,
      "count": 5620,
      "max": [
        1.00341,
        0.86535
      ],
      "min": [
        7.08508e-05,
        -3.99426e-05
      ],
      "type": "VEC2"
    },
    {
      "bufferView": 3,
      "componentType": 5125,
      "count": 9804,
      "max": [
        5619
      ],
      "min": [
        0
      ],
      "type": "SCALAR"
    }
  ],
  "asset": {
    "version": "2.0"
  },
  "bufferViews": [
    {
      "buffer": 0,
      "byteLength": 67440,
      "byteOffset": 0,
      "target": 34962
    },
    {
      "buffer": 0,
      "byteLength": 67440,
      "byteOffset": 67440,
      "target": 34962
    },
    {
      "buffer": 0,
      "byteLength": 44960,
      "byteOffset": 134880,
      "target": 34962
    },
    {
      "buffer": 0,
      "byteLength": 39216,
      "byteOffset": 179840,
      "target": 34963
    }
  ],
  "buffers": [
    {
      "byteLength": 219056,
      "uri": "bin/opk_ankerL.bin"
    }
  ],
  "images": [
    {
      "uri": "..\\textures\\KontSet_1.ktx2"
    }
  ],
  "materials": [
    {
      "alphaMode": "BLEND",
      "pbrMetallicRoughness": {
        "baseColorTexture": {
          "index": 0,
          "texCoord": 0
        }
      }
    }
  ],
  "meshes": [
    {
      "primitives": [
        {
          "attributes": {
            "NORMAL": 1,
            "POSITION": 0,
            "TEXCOORD_0": 2
          },
          "indices": 3,
          "material": 0,
          "mode": 4
        }
      ]
    }
  ],
  "nodes": [
    {
      "mesh": 0
    }
  ],
  "samplers": [
    {
      "magFilter": 9729,
      "minFilter": 9987,
      "wrapS": 10497,
      "wrapT": 10497
    }
  ],
  "scene": 0,
  "scenes": [
    {
      "nodes": [
        0
      ]
    }
  ],
  "textures": [
    {
      "sampler": 0,
      "source": 0
    }
  ]
}