{
  "accessors": [
    {
      "bufferView": 0,
      "componentType": 5126,
      "count": 8184,
      "max": [
        1.8353,
        9.51079,
        57.8037
      ],
      "min": [
        -5.02234,
        -3.22001,
        -107.779
      ],
      "type": "VEC3"
    },
    {
      "bufferView": 1,
      "componentType": 5126,
      "count": 8184,
      "max": [
        1,
        1,
        1
      ],
      "min": [
        -1,
        -1,
        -1
      ],
      "type": "VEC3"
    },
    {
      "bufferView": 2,
      "componentType": 5126,
      "count": 8184,
      "max": [
        0.999579,
        0.8647
      ],
      "min": [
        0.00189118,
        0.00194014
      ],
      "type": "VEC2"
    },
    {
      "bufferView": 3,
      "componentType": 5125,
      "count": 16812,
      "max": [
        8183
      ],
      "min": [
        0
      ],
      "type": "SCALAR"
    }
  ],
  "asset": {
    "version": "2.0"
  },
  "bufferViews": [
    {
      "buffer": 0,
      "byteLength": 98208,
      "byteOffset": 0,
      "target": 34962
    },
    {
      "buffer": 0,
      "byteLength": 98208,
      "byteOffset": 98208,
      "target": 34962
    },
    {
      "buffer": 0,
      "byteLength": 65472,
      "byteOffset": 196416,
      "target": 34962
    },
    {
      "buffer": 0,
      "byteLength": 67248,
      "byteOffset": 261888,
      "target": 34963
    }
  ],
  "buffers": [
    {
      "byteLength": 329136,
      "uri": "bin/opk_ankerL1.bin"
    }
  ],
  "images": [
    {
      "uri": "..\\textures\\KontSet_1.ktx2"
    }
  ],
  "materials": [
    {
      "alphaMode": "BLEND",
      "pbrMetallicRoughness": {
        "baseColorTexture": {
          "index": 0,
          "texCoord": 0
        }
      }
    }
  ],
  "meshes": [
    {
      "primitives": [
        {
          "attributes": {
            "NORMAL": 1,
            "POSITION": 0,
            "TEXCOORD_0": 2
          },
          "indices": 3,
          "material": 0,
          "mode": 4
        }
      ]
    }
  ],
  "nodes": [
    {
      "mesh": 0
    }
  ],
  "samplers": [
    {
      "magFilter": 9729,
      "minFilter": 9987,
      "wrapS": 10497,
      "wrapT": 10497
    }
  ],
  "scene": 0,
  "scenes": [
    {
      "nodes": [
        0
      ]
    }
  ],
  "textures": [
    {
      "sampler": 0,
      "source": 0
    }
  ]
}