{
  "accessors": [
    {
      "bufferView": 0,
      "componentType": 5126,
      "count": 8116,
      "max": [
        5.02233,
        9.52933,
        57.779
      ],
      "min": [
        -1.8353,
        -3.22001,
        -107.804
      ],
      "type": "VEC3"
    },
    {
      "bufferView": 1,
      "componentType": 5126,
      "count": 8116,
      "max": [
        1,
        1,
        1
      ],
      "min": [
        -1,
        -1,
        -1
      ],
      "type": "VEC3"
    },
    {
      "bufferView": 2,
      "componentType": 5126,
      "count": 8116,
      "max": [
        0.999579,
        0.864927
      ],
      "min": [
        7.08508e-05,
        6.49497e-05
      ],
      "type": "VEC2"
    },
    {
      "bufferView": 3,
      "componentType": 5125,
      "count": 17028,
      "max": [
        8115
      ],
      "min": [
        0
      ],
      "type": "SCALAR"
    }
  ],
  "asset": {
    "version": "2.0"
  },
  "bufferViews": [
    {
      "buffer": 0,
      "byteLength": 97392,
      "byteOffset": 0,
      "target": 34962
    },
    {
      "buffer": 0,
      "byteLength": 97392,
      "byteOffset": 97392,
      "target": 34962
    },
    {
      "buffer": 0,
      "byteLength": 64928,
      "byteOffset": 194784,
      "target": 34962
    },
    {
      "buffer": 0,
      "byteLength": 68112,
      "byteOffset": 259712,
      "target": 34963
    }
  ],
  "buffers": [
    {
      "byteLength": 327824,
      "uri": "bin/opk_ankerR4.bin"
    }
  ],
  "images": [
    {
      "uri": "..\\textures\\KontSet_1.ktx2"
    }
  ],
  "materials": [
    {
      "alphaMode": "BLEND",
      "pbrMetallicRoughness": {
        "baseColorTexture": {
          "index": 0,
          "texCoord": 0
        }
      }
    }
  ],
  "meshes": [
    {
      "primitives": [
        {
          "attributes": {
            "NORMAL": 1,
            "POSITION": 0,
            "TEXCOORD_0": 2
          },
          "indices": 3,
          "material": 0,
          "mode": 4
        }
      ]
    }
  ],
  "nodes": [
    {
      "mesh": 0
    }
  ],
  "samplers": [
    {
      "magFilter": 9729,
      "minFilter": 9987,
      "wrapS": 10497,
      "wrapT": 10497
    }
  ],
  "scene": 0,
  "scenes": [
    {
      "nodes": [
        0
      ]
    }
  ],
  "textures": [
    {
      "sampler": 0,
      "source": 0
    }
  ]
}