{
  "accessors": [
    {
      "bufferView": 0,
      "componentType": 5126,
      "count": 9765,
      "max": [
        1.68022,
        9.91986,
        1.23654
      ],
      "min": [
        -4.03094,
        -3.66147,
        -100.006
      ],
      "type": "VEC3"
    },
    {
      "bufferView": 1,
      "componentType": 5126,
      "count": 9765,
      "max": [
        1,
        1,
        1
      ],
      "min": [
        -1,
        -1,
        -1
      ],
      "type": "VEC3"
    },
    {
      "bufferView": 2,
      "componentType": 5126,
      "count": 9765,
      "max": [
        0.975626,
        0.910406
      ],
      "min": [
        0.00354519,
        0.00636899
      ],
      "type": "VEC2"
    },
    {
      "bufferView": 3,
      "componentType": 5125,
      "count": 19434,
      "max": [
        9764
      ],
      "min": [
        0
      ],
      "type": "SCALAR"
    }
  ],
  "asset": {
    "version": "2.0"
  },
  "bufferViews": [
    {
      "buffer": 0,
      "byteLength": 117180,
      "byteOffset": 0,
      "target": 34962
    },
    {
      "buffer": 0,
      "byteLength": 117180,
      "byteOffset": 117180,
      "target": 34962
    },
    {
      "buffer": 0,
      "byteLength": 78120,
      "byteOffset": 234360,
      "target": 34962
    },
    {
      "buffer": 0,
      "byteLength": 77736,
      "byteOffset": 312480,
      "target": 34963
    }
  ],
  "buffers": [
    {
      "byteLength": 390216,
      "uri": "bin/opkl_m.bin"
    }
  ],
  "images": [
    {
      "uri": "..\\textures\\opk_m.ktx2"
    }
  ],
  "materials": [
    {
      "pbrMetallicRoughness": {
        "baseColorTexture": {
          "index": 0,
          "texCoord": 0
        }
      }
    }
  ],
  "meshes": [
    {
      "primitives": [
        {
          "attributes": {
            "NORMAL": 1,
            "POSITION": 0,
            "TEXCOORD_0": 2
          },
          "indices": 3,
          "material": 0,
          "mode": 4
        }
      ]
    }
  ],
  "nodes": [
    {
      "mesh": 0
    }
  ],
  "samplers": [
    {
      "magFilter": 9729,
      "minFilter": 9987,
      "wrapS": 10497,
      "wrapT": 10497
    }
  ],
  "scene": 0,
  "scenes": [
    {
      "nodes": [
        0
      ]
    }
  ],
  "textures": [
    {
      "sampler": 0,
      "source": 0
    }
  ]
}