{
  "accessors": [
    {
      "bufferView": 0,
      "componentType": 5126,
      "count": 106,
      "max": [
        750,
        750,
        750
      ],
      "min": [
        -750,
        -287.012,
        -750
      ],
      "type": "VEC3"
    },
    {
      "bufferView": 1,
      "componentType": 5126,
      "count": 106,
      "max": [
        0.962638,
        0.191483,
        0.962638
      ],
      "min": [
        -0.962638,
        -0.980048,
        -0.962638
      ],
      "type": "VEC3"
    },
    {
      "bufferView": 2,
      "componentType": 5126,
      "count": 106,
      "max": [
        0.999,
        0.998124
      ],
      "min": [
        0.001,
        0
      ],
      "type": "VEC2"
    },
    {
      "bufferView": 3,
      "componentType": 5125,
      "count": 432,
      "max": [
        105
      ],
      "min": [
        0
      ],
      "type": "SCALAR"
    }
  ],
  "asset": {
    "version": "2.0"
  },
  "bufferViews": [
    {
      "buffer": 0,
      "byteLength": 1272,
      "byteOffset": 0,
      "target": 34962
    },
    {
      "buffer": 0,
      "byteLength": 1272,
      "byteOffset": 1272,
      "target": 34962
    },
    {
      "buffer": 0,
      "byteLength": 848,
      "byteOffset": 2544,
      "target": 34962
    },
    {
      "buffer": 0,
      "byteLength": 1728,
      "byteOffset": 3392,
      "target": 34963
    }
  ],
  "buffers": [
    {
      "byteLength": 5120,
      "uri": "bin/sky.bin"
    }
  ],
  "images": [
    {
      "uri": "..\\textures\\sky_day.ktx2"
    }
  ],
  "materials": [
    {
      "pbrMetallicRoughness": {
        "baseColorTexture": {
          "index": 0,
          "texCoord": 0
        }
      }
    }
  ],
  "meshes": [
    {
      "primitives": [
        {
          "attributes": {
            "NORMAL": 1,
            "POSITION": 0,
            "TEXCOORD_0": 2
          },
          "indices": 3,
          "material": 0,
          "mode": 4
        }
      ]
    }
  ],
  "nodes": [
    {
      "mesh": 0
    }
  ],
  "samplers": [
    {
      "magFilter": 9729,
      "minFilter": 9987,
      "wrapS": 10497,
      "wrapT": 10497
    }
  ],
  "scene": 0,
  "scenes": [
    {
      "nodes": [
        0
      ]
    }
  ],
  "textures": [
    {
      "sampler": 0,
      "source": 0
    }
  ]
}