{
  "accessors": [
    {
      "bufferView": 0,
      "componentType": 5126,
      "count": 158,
      "max": [
        9.03976,
        1.92091,
        62.4117
      ],
      "min": [
        -56.963,
        -20.4135,
        -161.692
      ],
      "type": "VEC3"
    },
    {
      "bufferView": 1,
      "componentType": 5126,
      "count": 158,
      "max": [
        0.849461,
        0.999857,
        0.616689
      ],
      "min": [
        -0.46534,
        0.519505,
        -0.491558
      ],
      "type": "VEC3"
    },
    {
      "bufferView": 2,
      "componentType": 5126,
      "count": 158,
      "max": [
        0.980458,
        1.97533
      ],
      "min": [
        0.0154966,
        -0.98427
      ],
      "type": "VEC2"
    },
    {
      "bufferView": 3,
      "componentType": 5125,
      "count": 822,
      "max": [
        157
      ],
      "min": [
        0
      ],
      "type": "SCALAR"
    }
  ],
  "asset": {
    "version": "2.0"
  },
  "bufferViews": [
    {
      "buffer": 0,
      "byteLength": 1896,
      "byteOffset": 0,
      "target": 34962
    },
    {
      "buffer": 0,
      "byteLength": 1896,
      "byteOffset": 1896,
      "target": 34962
    },
    {
      "buffer": 0,
      "byteLength": 1264,
      "byteOffset": 3792,
      "target": 34962
    },
    {
      "buffer": 0,
      "byteLength": 3288,
      "byteOffset": 5056,
      "target": 34963
    }
  ],
  "buffers": [
    {
      "byteLength": 8344,
      "uri": "bin/steepL.bin"
    }
  ],
  "images": [
    {
      "uri": "..\\textures\\trava.ktx2"
    }
  ],
  "materials": [
    {
      "pbrMetallicRoughness": {
        "baseColorTexture": {
          "index": 0,
          "texCoord": 0
        }
      }
    }
  ],
  "meshes": [
    {
      "primitives": [
        {
          "attributes": {
            "NORMAL": 1,
            "POSITION": 0,
            "TEXCOORD_0": 2
          },
          "indices": 3,
          "material": 0,
          "mode": 4
        }
      ]
    }
  ],
  "nodes": [
    {
      "mesh": 0
    }
  ],
  "samplers": [
    {
      "magFilter": 9729,
      "minFilter": 9987,
      "wrapS": 10497,
      "wrapT": 10497
    }
  ],
  "scene": 0,
  "scenes": [
    {
      "nodes": [
        0
      ]
    }
  ],
  "textures": [
    {
      "sampler": 0,
      "source": 0
    }
  ]
}