{
  "accessors": [
    {
      "bufferView": 0,
      "componentType": 5126,
      "count": 235393,
      "max": [
        3.39202,
        0.441734,
        0.40315
      ],
      "min": [
        -267.964,
        -0.504614,
        -449.869
      ],
      "type": "VEC3"
    },
    {
      "bufferView": 1,
      "componentType": 5126,
      "count": 235393,
      "max": [
        1,
        1,
        1
      ],
      "min": [
        -1,
        -1,
        -1
      ],
      "type": "VEC3"
    },
    {
      "bufferView": 2,
      "componentType": 5126,
      "count": 235393,
      "max": [
        0.960329,
        0.971188
      ],
      "min": [
        0.0010975,
        -1.33239e-06
      ],
      "type": "VEC2"
    },
    {
      "bufferView": 3,
      "componentType": 5125,
      "count": 521781,
      "max": [
        235392
      ],
      "min": [
        0
      ],
      "type": "SCALAR"
    }
  ],
  "asset": {
    "version": "2.0"
  },
  "bufferViews": [
    {
      "buffer": 0,
      "byteLength": 2824716,
      "byteOffset": 0,
      "target": 34962
    },
    {
      "buffer": 0,
      "byteLength": 2824716,
      "byteOffset": 2824716,
      "target": 34962
    },
    {
      "buffer": 0,
      "byteLength": 1883144,
      "byteOffset": 5649432,
      "target": 34962
    },
    {
      "buffer": 0,
      "byteLength": 2087124,
      "byteOffset": 7532576,
      "target": 34963
    }
  ],
  "buffers": [
    {
      "byteLength": 9619700,
      "uri": "bin/str_tr.bin"
    }
  ],
  "images": [
    {
      "uri": "..\\textures\\TBB_Rails.ktx2"
    }
  ],
  "materials": [
    {
      "alphaMode": "BLEND",
      "pbrMetallicRoughness": {
        "baseColorTexture": {
          "index": 0,
          "texCoord": 0
        }
      }
    }
  ],
  "meshes": [
    {
      "primitives": [
        {
          "attributes": {
            "NORMAL": 1,
            "POSITION": 0,
            "TEXCOORD_0": 2
          },
          "indices": 3,
          "material": 0,
          "mode": 4
        }
      ]
    }
  ],
  "nodes": [
    {
      "mesh": 0
    }
  ],
  "samplers": [
    {
      "magFilter": 9729,
      "minFilter": 9987,
      "wrapS": 10497,
      "wrapT": 10497
    }
  ],
  "scene": 0,
  "scenes": [
    {
      "nodes": [
        0
      ]
    }
  ],
  "textures": [
    {
      "sampler": 0,
      "source": 0
    }
  ]
}