{
  "accessors": [
    {
      "bufferView": 0,
      "componentType": 5126,
      "count": 12661,
      "max": [
        0.677939,
        0.311741,
        -33.6206
      ],
      "min": [
        -8.29512,
        -0.332085,
        -90.4
      ],
      "type": "VEC3"
    },
    {
      "bufferView": 1,
      "componentType": 5126,
      "count": 12661,
      "max": [
        1,
        0.999967,
        1
      ],
      "min": [
        -1,
        -0.912617,
        -1
      ],
      "type": "VEC3"
    },
    {
      "bufferView": 2,
      "componentType": 5126,
      "count": 12661,
      "max": [
        0.960324,
        0.971098
      ],
      "min": [
        0.0010975,
        0
      ],
      "type": "VEC2"
    },
    {
      "bufferView": 3,
      "componentType": 5125,
      "count": 28950,
      "max": [
        12660
      ],
      "min": [
        0
      ],
      "type": "SCALAR"
    }
  ],
  "asset": {
    "version": "2.0"
  },
  "bufferViews": [
    {
      "buffer": 0,
      "byteLength": 151932,
      "byteOffset": 0,
      "target": 34962
    },
    {
      "buffer": 0,
      "byteLength": 151932,
      "byteOffset": 151932,
      "target": 34962
    },
    {
      "buffer": 0,
      "byteLength": 101288,
      "byteOffset": 303864,
      "target": 34962
    },
    {
      "buffer": 0,
      "byteLength": 115800,
      "byteOffset": 405152,
      "target": 34963
    }
  ],
  "buffers": [
    {
      "byteLength": 520952,
      "uri": "bin/TSM_track_1l9_L_Pr.bin"
    }
  ],
  "images": [
    {
      "uri": "..\\textures\\TBB_Rails.ktx2"
    }
  ],
  "materials": [
    {
      "alphaMode": "BLEND",
      "pbrMetallicRoughness": {
        "baseColorTexture": {
          "index": 0,
          "texCoord": 0
        }
      }
    }
  ],
  "meshes": [
    {
      "primitives": [
        {
          "attributes": {
            "NORMAL": 1,
            "POSITION": 0,
            "TEXCOORD_0": 2
          },
          "indices": 3,
          "material": 0,
          "mode": 4
        }
      ]
    }
  ],
  "nodes": [
    {
      "mesh": 0
    }
  ],
  "samplers": [
    {
      "magFilter": 9729,
      "minFilter": 9987,
      "wrapS": 10497,
      "wrapT": 10497
    }
  ],
  "scene": 0,
  "scenes": [
    {
      "nodes": [
        0
      ]
    }
  ],
  "textures": [
    {
      "sampler": 0,
      "source": 0
    }
  ]
}