{
  "accessors": [
    {
      "bufferView": 0,
      "componentType": 5126,
      "count": 19136,
      "max": [
        5.70429,
        0.441619,
        55.5238
      ],
      "min": [
        -3.40664,
        -0.504614,
        -0.400001
      ],
      "type": "VEC3"
    },
    {
      "bufferView": 1,
      "componentType": 5126,
      "count": 19136,
      "max": [
        1,
        1,
        1
      ],
      "min": [
        -1,
        -1,
        -1
      ],
      "type": "VEC3"
    },
    {
      "bufferView": 2,
      "componentType": 5126,
      "count": 19136,
      "max": [
        0.960329,
        0.971188
      ],
      "min": [
        0.0010975,
        -1.33239e-06
      ],
      "type": "VEC2"
    },
    {
      "bufferView": 3,
      "componentType": 5125,
      "count": 39813,
      "max": [
        19135
      ],
      "min": [
        0
      ],
      "type": "SCALAR"
    }
  ],
  "asset": {
    "version": "2.0"
  },
  "bufferViews": [
    {
      "buffer": 0,
      "byteLength": 229632,
      "byteOffset": 0,
      "target": 34962
    },
    {
      "buffer": 0,
      "byteLength": 229632,
      "byteOffset": 229632,
      "target": 34962
    },
    {
      "buffer": 0,
      "byteLength": 153088,
      "byteOffset": 459264,
      "target": 34962
    },
    {
      "buffer": 0,
      "byteLength": 159252,
      "byteOffset": 612352,
      "target": 34963
    }
  ],
  "buffers": [
    {
      "byteLength": 771604,
      "uri": "bin/TSM_Jction_1l11_R_Nz.bin"
    }
  ],
  "images": [
    {
      "uri": "..\\textures\\TBB_Rails.ktx2"
    }
  ],
  "materials": [
    {
      "alphaMode": "BLEND",
      "pbrMetallicRoughness": {
        "baseColorTexture": {
          "index": 0,
          "texCoord": 0
        }
      }
    }
  ],
  "meshes": [
    {
      "primitives": [
        {
          "attributes": {
            "NORMAL": 1,
            "POSITION": 0,
            "TEXCOORD_0": 2
          },
          "indices": 3,
          "material": 0,
          "mode": 4
        }
      ]
    }
  ],
  "nodes": [
    {
      "mesh": 0
    }
  ],
  "samplers": [
    {
      "magFilter": 9729,
      "minFilter": 9987,
      "wrapS": 10497,
      "wrapT": 10497
    }
  ],
  "scene": 0,
  "scenes": [
    {
      "nodes": [
        0
      ]
    }
  ],
  "textures": [
    {
      "sampler": 0,
      "source": 0
    }
  ]
}