{
  "accessors": [
    {
      "bufferView": 0,
      "componentType": 5126,
      "count": 2520,
      "max": [
        18.7334,
        -0.2,
        97.6844
      ],
      "min": [
        -23.7583,
        -10.2206,
        -7.97363
      ],
      "type": "VEC3"
    },
    {
      "bufferView": 1,
      "componentType": 5126,
      "count": 2520,
      "max": [
        0.70469,
        1,
        0.584875
      ],
      "min": [
        -0.701214,
        0.575315,
        -0.6403
      ],
      "type": "VEC3"
    },
    {
      "bufferView": 2,
      "componentType": 5126,
      "count": 2520,
      "max": [
        0.374769,
        1
      ],
      "min": [
        0,
        0
      ],
      "type": "VEC2"
    },
    {
      "bufferView": 3,
      "componentType": 5125,
      "count": 2520,
      "max": [
        2519
      ],
      "min": [
        0
      ],
      "type": "SCALAR"
    }
  ],
  "asset": {
    "version": "2.0"
  },
  "bufferViews": [
    {
      "buffer": 0,
      "byteLength": 30240,
      "byteOffset": 0,
      "target": 34962
    },
    {
      "buffer": 0,
      "byteLength": 30240,
      "byteOffset": 30240,
      "target": 34962
    },
    {
      "buffer": 0,
      "byteLength": 20160,
      "byteOffset": 60480,
      "target": 34962
    },
    {
      "buffer": 0,
      "byteLength": 10080,
      "byteOffset": 80640,
      "target": 34963
    }
  ],
  "buffers": [
    {
      "byteLength": 90720,
      "uri": "bin/TSM_nasip_1l9_L_Nz.bin"
    }
  ],
  "images": [
    {
      "uri": "..\\textures\\nasip_TSM.ktx2"
    }
  ],
  "materials": [
    {
      "pbrMetallicRoughness": {
        "baseColorTexture": {
          "index": 0,
          "texCoord": 0
        }
      }
    }
  ],
  "meshes": [
    {
      "primitives": [
        {
          "attributes": {
            "NORMAL": 1,
            "POSITION": 0,
            "TEXCOORD_0": 2
          },
          "indices": 3,
          "material": 0,
          "mode": 4
        }
      ]
    }
  ],
  "nodes": [
    {
      "mesh": 0
    }
  ],
  "samplers": [
    {
      "magFilter": 9729,
      "minFilter": 9987,
      "wrapS": 10497,
      "wrapT": 10497
    }
  ],
  "scene": 0,
  "scenes": [
    {
      "nodes": [
        0
      ]
    }
  ],
  "textures": [
    {
      "sampler": 0,
      "source": 0
    }
  ]
}