{
  "accessors": [
    {
      "bufferView": 0,
      "componentType": 5126,
      "count": 1072,
      "max": [
        115.831,
        23.1404,
        1.8019
      ],
      "min": [
        -1.13114,
        -0.934843,
        -100.401
      ],
      "type": "VEC3"
    },
    {
      "bufferView": 1,
      "componentType": 5126,
      "count": 1072,
      "max": [
        0.981733,
        0.0798399,
        0.737657
      ],
      "min": [
        -0.981733,
        -0.0798401,
        -0.737657
      ],
      "type": "VEC3"
    },
    {
      "bufferView": 2,
      "componentType": 5126,
      "count": 1072,
      "max": [
        0.98907,
        0.710627
      ],
      "min": [
        0.00102213,
        0.239481
      ],
      "type": "VEC2"
    },
    {
      "bufferView": 3,
      "componentType": 5125,
      "count": 1608,
      "max": [
        1071
      ],
      "min": [
        0
      ],
      "type": "SCALAR"
    }
  ],
  "asset": {
    "version": "2.0"
  },
  "bufferViews": [
    {
      "buffer": 0,
      "byteLength": 12864,
      "byteOffset": 0,
      "target": 34962
    },
    {
      "buffer": 0,
      "byteLength": 12864,
      "byteOffset": 12864,
      "target": 34962
    },
    {
      "buffer": 0,
      "byteLength": 8576,
      "byteOffset": 25728,
      "target": 34962
    },
    {
      "buffer": 0,
      "byteLength": 6432,
      "byteOffset": 34304,
      "target": 34963
    }
  ],
  "buffers": [
    {
      "byteLength": 40736,
      "uri": "bin/v_forest28r.bin"
    }
  ],
  "images": [
    {
      "uri": "..\\textures\\v_forest444.ktx2"
    }
  ],
  "materials": [
    {
      "alphaMode": "BLEND",
      "pbrMetallicRoughness": {
        "baseColorTexture": {
          "index": 0,
          "texCoord": 0
        }
      }
    }
  ],
  "meshes": [
    {
      "primitives": [
        {
          "attributes": {
            "NORMAL": 1,
            "POSITION": 0,
            "TEXCOORD_0": 2
          },
          "indices": 3,
          "material": 0,
          "mode": 4
        }
      ]
    }
  ],
  "nodes": [
    {
      "mesh": 0
    }
  ],
  "samplers": [
    {
      "magFilter": 9729,
      "minFilter": 9987,
      "wrapS": 10497,
      "wrapT": 10497
    }
  ],
  "scene": 0,
  "scenes": [
    {
      "nodes": [
        0
      ]
    }
  ],
  "textures": [
    {
      "sampler": 0,
      "source": 0
    }
  ]
}