{
  "accessors": [
    {
      "bufferView": 0,
      "componentType": 5126,
      "count": 1436,
      "max": [
        10.2142,
        8.86576,
        0.131796
      ],
      "min": [
        -0.768028,
        6.49007,
        -99.1228
      ],
      "type": "VEC3"
    },
    {
      "bufferView": 1,
      "componentType": 5126,
      "count": 1436,
      "max": [
        0.999945,
        1,
        0.999945
      ],
      "min": [
        -0.999945,
        -0.999999,
        -0.999945
      ],
      "type": "VEC3"
    },
    {
      "bufferView": 2,
      "componentType": 5126,
      "count": 1436,
      "max": [
        0.997783,
        0.8647
      ],
      "min": [
        0.0726362,
        0.479644
      ],
      "type": "VEC2"
    },
    {
      "bufferView": 3,
      "componentType": 5125,
      "count": 2928,
      "max": [
        1435
      ],
      "min": [
        0
      ],
      "type": "SCALAR"
    }
  ],
  "asset": {
    "version": "2.0"
  },
  "bufferViews": [
    {
      "buffer": 0,
      "byteLength": 17232,
      "byteOffset": 0,
      "target": 34962
    },
    {
      "buffer": 0,
      "byteLength": 17232,
      "byteOffset": 17232,
      "target": 34962
    },
    {
      "buffer": 0,
      "byteLength": 11488,
      "byteOffset": 34464,
      "target": 34962
    },
    {
      "buffer": 0,
      "byteLength": 11712,
      "byteOffset": 45952,
      "target": 34963
    }
  ],
  "buffers": [
    {
      "byteLength": 57664,
      "uri": "bin/wire-500r.bin"
    }
  ],
  "images": [
    {
      "uri": "..\\textures\\KontSet_1.ktx2"
    }
  ],
  "materials": [
    {
      "alphaMode": "BLEND",
      "pbrMetallicRoughness": {
        "baseColorTexture": {
          "index": 0,
          "texCoord": 0
        }
      }
    }
  ],
  "meshes": [
    {
      "primitives": [
        {
          "attributes": {
            "NORMAL": 1,
            "POSITION": 0,
            "TEXCOORD_0": 2
          },
          "indices": 3,
          "material": 0,
          "mode": 4
        }
      ]
    }
  ],
  "nodes": [
    {
      "mesh": 0
    }
  ],
  "samplers": [
    {
      "magFilter": 9729,
      "minFilter": 9987,
      "wrapS": 10497,
      "wrapT": 10497
    }
  ],
  "scene": 0,
  "scenes": [
    {
      "nodes": [
        0
      ]
    }
  ],
  "textures": [
    {
      "sampler": 0,
      "source": 0
    }
  ]
}