{
  "accessors": [
    {
      "bufferView": 0,
      "componentType": 5126,
      "count": 1476,
      "max": [
        1.54663,
        8.87103,
        1.12971
      ],
      "min": [
        -1.57881,
        6.49008,
        -100.008
      ],
      "type": "VEC3"
    },
    {
      "bufferView": 1,
      "componentType": 5126,
      "count": 1476,
      "max": [
        1,
        1,
        1
      ],
      "min": [
        -1,
        -0.999999,
        -1
      ],
      "type": "VEC3"
    },
    {
      "bufferView": 2,
      "componentType": 5126,
      "count": 1476,
      "max": [
        0.997783,
        0.8647
      ],
      "min": [
        0.0726362,
        0.479644
      ],
      "type": "VEC2"
    },
    {
      "bufferView": 3,
      "componentType": 5125,
      "count": 3000,
      "max": [
        1475
      ],
      "min": [
        0
      ],
      "type": "SCALAR"
    }
  ],
  "asset": {
    "version": "2.0"
  },
  "bufferViews": [
    {
      "buffer": 0,
      "byteLength": 17712,
      "byteOffset": 0,
      "target": 34962
    },
    {
      "buffer": 0,
      "byteLength": 17712,
      "byteOffset": 17712,
      "target": 34962
    },
    {
      "buffer": 0,
      "byteLength": 11808,
      "byteOffset": 35424,
      "target": 34962
    },
    {
      "buffer": 0,
      "byteLength": 12000,
      "byteOffset": 47232,
      "target": 34963
    }
  ],
  "buffers": [
    {
      "byteLength": 59232,
      "uri": "bin/wire.bin"
    }
  ],
  "images": [
    {
      "uri": "..\\textures\\KontSet_1.ktx2"
    }
  ],
  "materials": [
    {
      "alphaMode": "BLEND",
      "pbrMetallicRoughness": {
        "baseColorTexture": {
          "index": 0,
          "texCoord": 0
        }
      }
    }
  ],
  "meshes": [
    {
      "primitives": [
        {
          "attributes": {
            "NORMAL": 1,
            "POSITION": 0,
            "TEXCOORD_0": 2
          },
          "indices": 3,
          "material": 0,
          "mode": 4
        }
      ]
    }
  ],
  "nodes": [
    {
      "mesh": 0
    }
  ],
  "samplers": [
    {
      "magFilter": 9729,
      "minFilter": 9987,
      "wrapS": 10497,
      "wrapT": 10497
    }
  ],
  "scene": 0,
  "scenes": [
    {
      "nodes": [
        0
      ]
    }
  ],
  "textures": [
    {
      "sampler": 0,
      "source": 0
    }
  ]
}