{
  "accessors": [
    {
      "bufferView": 0,
      "componentType": 5126,
      "count": 58,
      "max": [
        0.176507,
        2.09509,
        0.0591258
      ],
      "min": [
        -0.176507,
        -0.000147654,
        -0.0591258
      ],
      "type": "VEC3"
    },
    {
      "bufferView": 1,
      "componentType": 5126,
      "count": 58,
      "max": [
        0.92388,
        1,
        1
      ],
      "min": [
        -0.92388,
        -5.78415e-08,
        -1
      ],
      "type": "VEC3"
    },
    {
      "bufferView": 2,
      "componentType": 5126,
      "count": 58,
      "max": [
        0.999187,
        0.857917
      ],
      "min": [
        0.840642,
        0.126808
      ],
      "type": "VEC2"
    },
    {
      "bufferView": 3,
      "componentType": 5125,
      "count": 138,
      "max": [
        57
      ],
      "min": [
        0
      ],
      "type": "SCALAR"
    }
  ],
  "asset": {
    "version": "2.0"
  },
  "bufferViews": [
    {
      "buffer": 0,
      "byteLength": 696,
      "byteOffset": 0,
      "target": 34962
    },
    {
      "buffer": 0,
      "byteLength": 696,
      "byteOffset": 696,
      "target": 34962
    },
    {
      "buffer": 0,
      "byteLength": 464,
      "byteOffset": 1392,
      "target": 34962
    },
    {
      "buffer": 0,
      "byteLength": 552,
      "byteOffset": 1856,
      "target": 34963
    }
  ],
  "buffers": [
    {
      "byteLength": 2408,
      "uri": "bin/Znak_S.bin"
    }
  ],
  "images": [
    {
      "uri": "..\\textures\\KM_ZnakSignal.ktx2"
    }
  ],
  "materials": [
    {
      "alphaMode": "BLEND",
      "pbrMetallicRoughness": {
        "baseColorTexture": {
          "index": 0,
          "texCoord": 0
        }
      }
    }
  ],
  "meshes": [
    {
      "primitives": [
        {
          "attributes": {
            "NORMAL": 1,
            "POSITION": 0,
            "TEXCOORD_0": 2
          },
          "indices": 3,
          "material": 0,
          "mode": 4
        }
      ]
    }
  ],
  "nodes": [
    {
      "mesh": 0
    }
  ],
  "samplers": [
    {
      "magFilter": 9729,
      "minFilter": 9987,
      "wrapS": 10497,
      "wrapT": 10497
    }
  ],
  "scene": 0,
  "scenes": [
    {
      "nodes": [
        0
      ]
    }
  ],
  "textures": [
    {
      "sampler": 0,
      "source": 0
    }
  ]
}