{
	"asset":{
		"generator":"Khronos glTF Blender I/O v4.4.56",
		"version":"2.0"
	},
	"extensionsUsed":[
		"KHR_materials_specular"
	],
	"scene":0,
	"scenes":[
		{
			"name":"Scene",
			"nodes":[
				0,
				1,
				2,
				3,
				4,
				5,
				6,
				7,
				8,
				9,
				10,
				11,
				12,
				13,
				14,
				15,
				16,
				17,
				18,
				19,
				20,
				21,
				22,
				23,
				24,
				25,
				26,
				27,
				28,
				29,
				30,
				31,
				32,
				33,
				34,
				35,
				36,
				37,
				38,
				39,
				40,
				41,
				42,
				43,
				44,
				45,
				46
			]
		}
	],
	"nodes":[
		{
			"mesh":0,
			"name":"AB"
		},
		{
			"mesh":1,
			"name":"Avtotormoz"
		},
		{
			"mesh":2,
			"name":"Body"
		},
		{
			"mesh":3,
			"name":"Boige-1"
		},
		{
			"mesh":4,
			"name":"Generator_privod"
		},
		{
			"mesh":5,
			"name":"Gen_Kardan",
			"rotation":[
				0,
				0,
				-0.024847835302352905,
				0.9996912479400635
			],
			"translation":[
				0.6300899386405945,
				0.4827692210674286,
				6.5139241218566895
			]
		},
		{
			"mesh":6,
			"name":"Gen_Mufta1",
			"translation":[
				1.3648345470428467,
				0.45256224274635315,
				6.516220569610596
			]
		},
		{
			"mesh":7,
			"name":"Generator"
		},
		{
			"mesh":8,
			"name":"Wheel-3",
			"translation":[
				0,
				0.4749999940395355,
				7.29996919631958
			]
		},
		{
			"mesh":9,
			"name":"Wheel-4",
			"translation":[
				0,
				0.4749999940395355,
				9.699999809265137
			]
		},
		{
			"mesh":10,
			"name":"Boige-2"
		},
		{
			"mesh":11,
			"name":"Wheel-2",
			"translation":[
				0,
				0.4749999940395355,
				-7.300015449523926
			]
		},
		{
			"mesh":12,
			"name":"Wheel-1",
			"translation":[
				0,
				0.4749999940395355,
				-9.700011253356934
			]
		},
		{
			"mesh":13,
			"name":"Bufera"
		},
		{
			"mesh":14,
			"name":"otpuskVR"
		},
		{
			"mesh":15,
			"name":"DeflektorChesnokova"
		},
		{
			"mesh":16,
			"name":"ECHTK"
		},
		{
			"mesh":17,
			"name":"Kabel_gen"
		},
		{
			"mesh":18,
			"name":"KoncevoyRuk_1"
		},
		{
			"mesh":19,
			"name":"KoncevoyRuk_2"
		},
		{
			"mesh":20,
			"name":"LestnicaKrisha"
		},
		{
			"mesh":21,
			"name":"PinchOFF"
		},
		{
			"mesh":22,
			"name":"PinchON"
		},
		{
			"mesh":23,
			"name":"Poruchni"
		},
		{
			"mesh":24,
			"name":"RascepRich"
		},
		{
			"mesh":25,
			"name":"Reshetka_vent"
		},
		{
			"mesh":26,
			"name":"Rezina_ram"
		},
		{
			"mesh":27,
			"name":"Rozetky_otopl"
		},
		{
			"mesh":28,
			"name":"RSH_Gen"
		},
		{
			"mesh":29,
			"name":"SA-3-1"
		},
		{
			"mesh":30,
			"name":"SA-3-2"
		},
		{
			"mesh":31,
			"name":"Stupenki"
		},
		{
			"mesh":32,
			"name":"TRP"
		},
		{
			"mesh":33,
			"name":"Trub_kotla"
		},
		{
			"mesh":34,
			"name":"Yashik_3kV"
		},
		{
			"mesh":35,
			"name":"End_of_train_red_fwd_up_r",
			"translation":[
				1.2999999523162842,
				3.240000009536743,
				-12.02299976348877
			]
		},
		{
			"mesh":35,
			"name":"End_of_train_red_fwd_up_l",
			"translation":[
				-1.2899999618530273,
				3.240000009536743,
				-12.02299976348877
			]
		},
		{
			"mesh":35,
			"name":"End_of_train_red_fwd_bot_l",
			"translation":[
				-1.2999999523162842,
				1.4000000953674316,
				-12.02299976348877
			]
		},
		{
			"mesh":36,
			"name":"End_of_train_red_bwd_up_r",
			"translation":[
				-1.2999999523162842,
				3.240000009536743,
				12.02299976348877
			]
		},
		{
			"mesh":36,
			"name":"End_of_train_red_bwd_up_l",
			"translation":[
				1.2899999618530273,
				3.240000009536743,
				12.02299976348877
			]
		},
		{
			"mesh":36,
			"name":"End_of_train_red_bwd_bot_l",
			"translation":[
				1.2999999523162842,
				1.4000000953674316,
				12.02299976348877
			]
		},
		{
			"mesh":37,
			"name":"End_of_train_lamps_fwd_up_r",
			"rotation":[
				0,
				-1,
				0,
				4.371138828673793e-08
			],
			"translation":[
				1.2999999523162842,
				3.240000009536743,
				-12.02299976348877
			]
		},
		{
			"mesh":37,
			"name":"End_of_train_lamps_fwd_up_l",
			"rotation":[
				0,
				-1,
				0,
				4.371138828673793e-08
			],
			"translation":[
				-1.2899999618530273,
				3.240000009536743,
				-12.02299976348877
			]
		},
		{
			"mesh":37,
			"name":"End_of_train_lamps_fwd_bot_l",
			"rotation":[
				0,
				-1,
				0,
				4.371138828673793e-08
			],
			"translation":[
				-1.2999999523162842,
				1.4000000953674316,
				-12.02299976348877
			]
		},
		{
			"mesh":37,
			"name":"End_of_train_lamps_bwd_up_r",
			"translation":[
				-1.2999999523162842,
				3.240000009536743,
				12.02299976348877
			]
		},
		{
			"mesh":37,
			"name":"End_of_train_lamps_bwd_up_l",
			"translation":[
				1.2899999618530273,
				3.240000009536743,
				12.02299976348877
			]
		},
		{
			"mesh":37,
			"name":"End_of_train_lamps_bwd_bot_l",
			"translation":[
				1.2999999523162842,
				1.4000000953674316,
				12.02299976348877
			]
		}
	],
	"materials":[
		{
			"extensions":{
				"KHR_materials_specular":{
					"specularFactor":0
				}
			},
			"name":"Material_pass_21071",
			"pbrMetallicRoughness":{
				"baseColorTexture":{
					"index":0
				},
				"roughnessFactor":0.75
			}
		},
		{
			"doubleSided":true,
			"extensions":{
				"KHR_materials_specular":{
					"specularFactor":0
				}
			},
			"name":"Material_pass_21071_two_sided",
			"pbrMetallicRoughness":{
				"baseColorTexture":{
					"index":1
				},
				"roughnessFactor":0.75
			}
		},
		{
			"extensions":{
				"KHR_materials_specular":{
					"specularFactor":0
				}
			},
			"name":"Material_pass_21071_rezina",
			"pbrMetallicRoughness":{
				"baseColorTexture":{
					"index":2
				},
				"metallicFactor":0.0625,
				"roughnessFactor":0.875
			}
		},
		{
			"emissiveTexture":{
				"index":3
			},
			"extensions":{
				"KHR_materials_specular":{
					"specularFactor":0
				}
			},
			"name":"Material_pass_21071_emission",
			"pbrMetallicRoughness":{
				"baseColorFactor":[
					0,
					0,
					0,
					1
				],
				"roughnessFactor":0.5
			}
		},
		{
			"alphaMode":"BLEND",
			"extensions":{
				"KHR_materials_specular":{
					"specularFactor":0
				}
			},
			"name":"Material_pass_21071_alfa",
			"pbrMetallicRoughness":{
				"baseColorFactor":[
					1,
					1,
					1,
					0.25
				],
				"baseColorTexture":{
					"index":4
				},
				"roughnessFactor":0.125
			}
		}
	],
	"meshes":[
		{
			"name":"AB",
			"primitives":[
				{
					"attributes":{
						"POSITION":0,
						"NORMAL":1,
						"TEXCOORD_0":2
					},
					"indices":3,
					"material":0
				}
			]
		},
		{
			"name":"Avtotormoz",
			"primitives":[
				{
					"attributes":{
						"POSITION":4,
						"NORMAL":5,
						"TEXCOORD_0":6
					},
					"indices":7,
					"material":0
				}
			]
		},
		{
			"name":"Body",
			"primitives":[
				{
					"attributes":{
						"POSITION":8,
						"NORMAL":9,
						"TEXCOORD_0":10
					},
					"indices":11,
					"material":1
				}
			]
		},
		{
			"name":"Boige-1",
			"primitives":[
				{
					"attributes":{
						"POSITION":12,
						"NORMAL":13,
						"TEXCOORD_0":14
					},
					"indices":15,
					"material":0
				}
			]
		},
		{
			"name":"Generator_privod",
			"primitives":[
				{
					"attributes":{
						"POSITION":16,
						"NORMAL":17,
						"TEXCOORD_0":18
					},
					"indices":19,
					"material":0
				}
			]
		},
		{
			"name":"Gen_Kardan",
			"primitives":[
				{
					"attributes":{
						"POSITION":20,
						"NORMAL":21,
						"TEXCOORD_0":22
					},
					"indices":23,
					"material":0
				}
			]
		},
		{
			"name":"Gen_Mufta1",
			"primitives":[
				{
					"attributes":{
						"POSITION":24,
						"NORMAL":25,
						"TEXCOORD_0":26
					},
					"indices":27,
					"material":0
				}
			]
		},
		{
			"name":"Generator",
			"primitives":[
				{
					"attributes":{
						"POSITION":28,
						"NORMAL":29,
						"TEXCOORD_0":30
					},
					"indices":31,
					"material":0
				}
			]
		},
		{
			"name":"Wheel-3",
			"primitives":[
				{
					"attributes":{
						"POSITION":32,
						"NORMAL":33,
						"TEXCOORD_0":34
					},
					"indices":35,
					"material":0
				}
			]
		},
		{
			"name":"Wheel-4",
			"primitives":[
				{
					"attributes":{
						"POSITION":36,
						"NORMAL":37,
						"TEXCOORD_0":38
					},
					"indices":39,
					"material":0
				}
			]
		},
		{
			"name":"Boige-2",
			"primitives":[
				{
					"attributes":{
						"POSITION":40,
						"NORMAL":41,
						"TEXCOORD_0":42
					},
					"indices":43,
					"material":0
				}
			]
		},
		{
			"name":"Wheel-2",
			"primitives":[
				{
					"attributes":{
						"POSITION":44,
						"NORMAL":45,
						"TEXCOORD_0":46
					},
					"indices":39,
					"material":0
				}
			]
		},
		{
			"name":"Wheel-1",
			"primitives":[
				{
					"attributes":{
						"POSITION":47,
						"NORMAL":48,
						"TEXCOORD_0":49
					},
					"indices":39,
					"material":0
				}
			]
		},
		{
			"name":"Bufera",
			"primitives":[
				{
					"attributes":{
						"POSITION":50,
						"NORMAL":51,
						"TEXCOORD_0":52
					},
					"indices":53,
					"material":0
				}
			]
		},
		{
			"name":"otpuskVR",
			"primitives":[
				{
					"attributes":{
						"POSITION":54,
						"NORMAL":55,
						"TEXCOORD_0":56
					},
					"indices":57,
					"material":0
				}
			]
		},
		{
			"name":"DeflektorChesnokova",
			"primitives":[
				{
					"attributes":{
						"POSITION":58,
						"NORMAL":59,
						"TEXCOORD_0":60
					},
					"indices":61,
					"material":0
				}
			]
		},
		{
			"name":"ECHTK",
			"primitives":[
				{
					"attributes":{
						"POSITION":62,
						"NORMAL":63,
						"TEXCOORD_0":64
					},
					"indices":65,
					"material":0
				}
			]
		},
		{
			"name":"Kabel_gen",
			"primitives":[
				{
					"attributes":{
						"POSITION":66,
						"NORMAL":67,
						"TEXCOORD_0":68
					},
					"indices":23,
					"material":0
				}
			]
		},
		{
			"name":"KoncevoyRuk_1",
			"primitives":[
				{
					"attributes":{
						"POSITION":69,
						"NORMAL":70,
						"TEXCOORD_0":71
					},
					"indices":72,
					"material":2
				}
			]
		},
		{
			"name":"KoncevoyRuk_2",
			"primitives":[
				{
					"attributes":{
						"POSITION":73,
						"NORMAL":74,
						"TEXCOORD_0":75
					},
					"indices":72,
					"material":2
				}
			]
		},
		{
			"name":"LestnicaKrisha",
			"primitives":[
				{
					"attributes":{
						"POSITION":76,
						"NORMAL":77,
						"TEXCOORD_0":78
					},
					"indices":79,
					"material":0
				}
			]
		},
		{
			"name":"PinchOFF",
			"primitives":[
				{
					"attributes":{
						"POSITION":80,
						"NORMAL":81,
						"TEXCOORD_0":82
					},
					"indices":83,
					"material":2
				}
			]
		},
		{
			"name":"PinchON",
			"primitives":[
				{
					"attributes":{
						"POSITION":84,
						"NORMAL":85,
						"TEXCOORD_0":86
					},
					"indices":83,
					"material":2
				}
			]
		},
		{
			"name":"Poruchni",
			"primitives":[
				{
					"attributes":{
						"POSITION":87,
						"NORMAL":88,
						"TEXCOORD_0":89
					},
					"indices":90,
					"material":0
				}
			]
		},
		{
			"name":"RascepRich",
			"primitives":[
				{
					"attributes":{
						"POSITION":91,
						"NORMAL":92,
						"TEXCOORD_0":93
					},
					"indices":94,
					"material":0
				}
			]
		},
		{
			"name":"Reshetka_vent",
			"primitives":[
				{
					"attributes":{
						"POSITION":95,
						"NORMAL":96,
						"TEXCOORD_0":97
					},
					"indices":98,
					"material":0
				}
			]
		},
		{
			"name":"Rezina_ram",
			"primitives":[
				{
					"attributes":{
						"POSITION":99,
						"NORMAL":100,
						"TEXCOORD_0":101
					},
					"indices":102,
					"material":2
				}
			]
		},
		{
			"name":"Rozetky_otopl",
			"primitives":[
				{
					"attributes":{
						"POSITION":103,
						"NORMAL":104,
						"TEXCOORD_0":105
					},
					"indices":106,
					"material":0
				}
			]
		},
		{
			"name":"RSH_Gen",
			"primitives":[
				{
					"attributes":{
						"POSITION":107,
						"NORMAL":108,
						"TEXCOORD_0":109
					},
					"indices":110,
					"material":0
				}
			]
		},
		{
			"name":"SA-3-1",
			"primitives":[
				{
					"attributes":{
						"POSITION":111,
						"NORMAL":112,
						"TEXCOORD_0":113
					},
					"indices":114,
					"material":0
				}
			]
		},
		{
			"name":"SA-3-2",
			"primitives":[
				{
					"attributes":{
						"POSITION":115,
						"NORMAL":116,
						"TEXCOORD_0":117
					},
					"indices":114,
					"material":0
				}
			]
		},
		{
			"name":"Stupenki",
			"primitives":[
				{
					"attributes":{
						"POSITION":118,
						"NORMAL":119,
						"TEXCOORD_0":120
					},
					"indices":106,
					"material":0
				}
			]
		},
		{
			"name":"TRP",
			"primitives":[
				{
					"attributes":{
						"POSITION":121,
						"NORMAL":122,
						"TEXCOORD_0":123
					},
					"indices":124,
					"material":0
				}
			]
		},
		{
			"name":"Trub_kotla",
			"primitives":[
				{
					"attributes":{
						"POSITION":125,
						"NORMAL":126,
						"TEXCOORD_0":127
					},
					"indices":31,
					"material":0
				}
			]
		},
		{
			"name":"Yashik_3kV",
			"primitives":[
				{
					"attributes":{
						"POSITION":128,
						"NORMAL":129,
						"TEXCOORD_0":130
					},
					"indices":131,
					"material":0
				}
			]
		},
		{
			"name":"End_of_train_red_fwd",
			"primitives":[
				{
					"attributes":{
						"POSITION":132,
						"NORMAL":133,
						"TEXCOORD_0":134
					},
					"indices":135,
					"material":3
				}
			]
		},
		{
			"name":"End_of_train_red_bwd",
			"primitives":[
				{
					"attributes":{
						"POSITION":136,
						"NORMAL":137,
						"TEXCOORD_0":138
					},
					"indices":135,
					"material":3
				}
			]
		},
		{
			"name":"End_of_train_lamps",
			"primitives":[
				{
					"attributes":{
						"POSITION":139,
						"NORMAL":140,
						"TEXCOORD_0":141
					},
					"indices":142,
					"material":0
				},
				{
					"attributes":{
						"POSITION":143,
						"NORMAL":144,
						"TEXCOORD_0":145
					},
					"indices":135,
					"material":4
				}
			]
		}
	],
	"textures":[
		{
			"sampler":0,
			"source":0
		},
		{
			"sampler":0,
			"source":0
		},
		{
			"sampler":0,
			"source":0
		},
		{
			"sampler":0,
			"source":0
		},
		{
			"sampler":0,
			"source":0
		}
	],
	"images":[
		{
			"mimeType":"image/png",
			"name":"pass_rzd-21071",
			"uri":"T_pass_rzd-21071/pass_rzd-21071.png"
		}
	],
	"accessors":[
		{
			"bufferView":0,
			"componentType":5126,
			"count":1056,
			"max":[
				-0.2654796242713928,
				1.2560302019119263,
				-0.3858354985713959
			],
			"min":[
				-1.5440021753311157,
				0.351025253534317,
				-4.76479959487915
			],
			"type":"VEC3"
		},
		{
			"bufferView":1,
			"componentType":5126,
			"count":1056,
			"type":"VEC3"
		},
		{
			"bufferView":2,
			"componentType":5126,
			"count":1056,
			"type":"VEC2"
		},
		{
			"bufferView":3,
			"componentType":5123,
			"count":1056,
			"type":"SCALAR"
		},
		{
			"bufferView":4,
			"componentType":5126,
			"count":1530,
			"max":[
				0.410537987947464,
				1.1121059656143188,
				2.461151123046875
			],
			"min":[
				-1.1427429914474487,
				0.38635900616645813,
				-0.5493690371513367
			],
			"type":"VEC3"
		},
		{
			"bufferView":5,
			"componentType":5126,
			"count":1530,
			"type":"VEC3"
		},
		{
			"bufferView":6,
			"componentType":5126,
			"count":1530,
			"type":"VEC2"
		},
		{
			"bufferView":7,
			"componentType":5123,
			"count":1530,
			"type":"SCALAR"
		},
		{
			"bufferView":8,
			"componentType":5126,
			"count":2394,
			"max":[
				1.5540199279785156,
				4.394890308380127,
				12.281000137329102
			],
			"min":[
				-1.5540201663970947,
				0.2812940180301666,
				-12.281000137329102
			],
			"type":"VEC3"
		},
		{
			"bufferView":9,
			"componentType":5126,
			"count":2394,
			"type":"VEC3"
		},
		{
			"bufferView":10,
			"componentType":5126,
			"count":2394,
			"type":"VEC2"
		},
		{
			"bufferView":11,
			"componentType":5123,
			"count":2496,
			"type":"SCALAR"
		},
		{
			"bufferView":12,
			"componentType":5126,
			"count":13518,
			"max":[
				1.594249963760376,
				1.0720199346542358,
				10.449779510498047
			],
			"min":[
				-1.594249963760376,
				0.19289496541023254,
				6.466700077056885
			],
			"type":"VEC3"
		},
		{
			"bufferView":13,
			"componentType":5126,
			"count":13518,
			"type":"VEC3"
		},
		{
			"bufferView":14,
			"componentType":5126,
			"count":13518,
			"type":"VEC2"
		},
		{
			"bufferView":15,
			"componentType":5123,
			"count":13518,
			"type":"SCALAR"
		},
		{
			"bufferView":16,
			"componentType":5126,
			"count":577,
			"max":[
				1.365339994430542,
				0.7957699298858643,
				7.505155086517334
			],
			"min":[
				-0.21520699560642242,
				0.2675774097442627,
				5.965579986572266
			],
			"type":"VEC3"
		},
		{
			"bufferView":17,
			"componentType":5126,
			"count":577,
			"type":"VEC3"
		},
		{
			"bufferView":18,
			"componentType":5126,
			"count":577,
			"type":"VEC2"
		},
		{
			"bufferView":19,
			"componentType":5123,
			"count":846,
			"type":"SCALAR"
		},
		{
			"bufferView":20,
			"componentType":5126,
			"count":36,
			"max":[
				0.4077592194080353,
				0.04198671132326126,
				0.035413265228271484
			],
			"min":[
				-0.40775904059410095,
				-0.04198676347732544,
				-0.035414695739746094
			],
			"type":"VEC3"
		},
		{
			"bufferView":21,
			"componentType":5126,
			"count":36,
			"type":"VEC3"
		},
		{
			"bufferView":22,
			"componentType":5126,
			"count":36,
			"type":"VEC2"
		},
		{
			"bufferView":23,
			"componentType":5123,
			"count":36,
			"type":"SCALAR"
		},
		{
			"bufferView":24,
			"componentType":5126,
			"count":24,
			"max":[
				1.1920928955078125e-07,
				0.08663594722747803,
				0.08239507675170898
			],
			"min":[
				1.1920928955078125e-07,
				-0.08663582801818848,
				-0.08239459991455078
			],
			"type":"VEC3"
		},
		{
			"bufferView":25,
			"componentType":5126,
			"count":24,
			"type":"VEC3"
		},
		{
			"bufferView":26,
			"componentType":5126,
			"count":24,
			"type":"VEC2"
		},
		{
			"bufferView":27,
			"componentType":5123,
			"count":24,
			"type":"SCALAR"
		},
		{
			"bufferView":28,
			"componentType":5126,
			"count":318,
			"max":[
				0.22688688337802887,
				0.7031821012496948,
				6.691072940826416
			],
			"min":[
				-0.26206672191619873,
				0.31567665934562683,
				6.271450042724609
			],
			"type":"VEC3"
		},
		{
			"bufferView":29,
			"componentType":5126,
			"count":318,
			"type":"VEC3"
		},
		{
			"bufferView":30,
			"componentType":5126,
			"count":318,
			"type":"VEC2"
		},
		{
			"bufferView":31,
			"componentType":5123,
			"count":318,
			"type":"SCALAR"
		},
		{
			"bufferView":32,
			"componentType":5126,
			"count":822,
			"max":[
				1.365339994430542,
				0.5169463157653809,
				0.5090498328208923
			],
			"min":[
				-0.8512400388717651,
				-0.5169457197189331,
				-0.50913006067276
			],
			"type":"VEC3"
		},
		{
			"bufferView":33,
			"componentType":5126,
			"count":822,
			"type":"VEC3"
		},
		{
			"bufferView":34,
			"componentType":5126,
			"count":822,
			"type":"VEC2"
		},
		{
			"bufferView":35,
			"componentType":5123,
			"count":996,
			"type":"SCALAR"
		},
		{
			"bufferView":36,
			"componentType":5126,
			"count":732,
			"max":[
				0.8512400388717651,
				0.5169937014579773,
				0.5090770721435547
			],
			"min":[
				-0.8512399196624756,
				-0.5168983340263367,
				-0.5091028213500977
			],
			"type":"VEC3"
		},
		{
			"bufferView":37,
			"componentType":5126,
			"count":732,
			"type":"VEC3"
		},
		{
			"bufferView":38,
			"componentType":5126,
			"count":732,
			"type":"VEC2"
		},
		{
			"bufferView":39,
			"componentType":5123,
			"count":732,
			"type":"SCALAR"
		},
		{
			"bufferView":40,
			"componentType":5126,
			"count":13248,
			"max":[
				1.5942496061325073,
				1.0720202922821045,
				-6.550149917602539
			],
			"min":[
				-1.5942503213882446,
				0.1928953230381012,
				-10.449850082397461
			],
			"type":"VEC3"
		},
		{
			"bufferView":41,
			"componentType":5126,
			"count":13248,
			"type":"VEC3"
		},
		{
			"bufferView":42,
			"componentType":5126,
			"count":13248,
			"type":"VEC2"
		},
		{
			"bufferView":43,
			"componentType":5123,
			"count":13248,
			"type":"SCALAR"
		},
		{
			"bufferView":44,
			"componentType":5126,
			"count":732,
			"max":[
				0.8512396216392517,
				0.5169941186904907,
				0.5091085433959961
			],
			"min":[
				-0.851240336894989,
				-0.516897976398468,
				-0.5090775489807129
			],
			"type":"VEC3"
		},
		{
			"bufferView":45,
			"componentType":5126,
			"count":732,
			"type":"VEC3"
		},
		{
			"bufferView":46,
			"componentType":5126,
			"count":732,
			"type":"VEC2"
		},
		{
			"bufferView":47,
			"componentType":5126,
			"count":732,
			"max":[
				0.8512396216392517,
				0.5169944763183594,
				0.5091047286987305
			],
			"min":[
				-0.851240336894989,
				-0.5168976187705994,
				-0.5090818405151367
			],
			"type":"VEC3"
		},
		{
			"bufferView":48,
			"componentType":5126,
			"count":732,
			"type":"VEC3"
		},
		{
			"bufferView":49,
			"componentType":5126,
			"count":732,
			"type":"VEC2"
		},
		{
			"bufferView":50,
			"componentType":5126,
			"count":960,
			"max":[
				1.1927000284194946,
				1.3603699207305908,
				12.498800277709961
			],
			"min":[
				-1.1927000284194946,
				0.7752499580383301,
				-12.498800277709961
			],
			"type":"VEC3"
		},
		{
			"bufferView":51,
			"componentType":5126,
			"count":960,
			"type":"VEC3"
		},
		{
			"bufferView":52,
			"componentType":5126,
			"count":960,
			"type":"VEC2"
		},
		{
			"bufferView":53,
			"componentType":5123,
			"count":960,
			"type":"SCALAR"
		},
		{
			"bufferView":54,
			"componentType":5126,
			"count":144,
			"max":[
				1.4664980173110962,
				1.2093778848648071,
				1.849407434463501
			],
			"min":[
				-1.4088319540023804,
				0.492635041475296,
				1.629120945930481
			],
			"type":"VEC3"
		},
		{
			"bufferView":55,
			"componentType":5126,
			"count":144,
			"type":"VEC3"
		},
		{
			"bufferView":56,
			"componentType":5126,
			"count":144,
			"type":"VEC2"
		},
		{
			"bufferView":57,
			"componentType":5123,
			"count":144,
			"type":"SCALAR"
		},
		{
			"bufferView":58,
			"componentType":5126,
			"count":2244,
			"max":[
				1.0694621801376343,
				4.684200286865234,
				11.295706748962402
			],
			"min":[
				-1.280578851699829,
				4.172194480895996,
				-11.504361152648926
			],
			"type":"VEC3"
		},
		{
			"bufferView":59,
			"componentType":5126,
			"count":2244,
			"type":"VEC3"
		},
		{
			"bufferView":60,
			"componentType":5126,
			"count":2244,
			"type":"VEC2"
		},
		{
			"bufferView":61,
			"componentType":5123,
			"count":2244,
			"type":"SCALAR"
		},
		{
			"bufferView":62,
			"componentType":5126,
			"count":756,
			"max":[
				1.348120093345642,
				1.245579719543457,
				-4.9347076416015625
			],
			"min":[
				-1.4194226264953613,
				0.2233389914035797,
				-6.65048360824585
			],
			"type":"VEC3"
		},
		{
			"bufferView":63,
			"componentType":5126,
			"count":756,
			"type":"VEC3"
		},
		{
			"bufferView":64,
			"componentType":5126,
			"count":756,
			"type":"VEC2"
		},
		{
			"bufferView":65,
			"componentType":5123,
			"count":756,
			"type":"SCALAR"
		},
		{
			"bufferView":66,
			"componentType":5126,
			"count":36,
			"max":[
				0.0887613296508789,
				0.9135409593582153,
				6.320027828216553
			],
			"min":[
				-0.08827691525220871,
				0.37489697337150574,
				5.777262210845947
			],
			"type":"VEC3"
		},
		{
			"bufferView":67,
			"componentType":5126,
			"count":36,
			"type":"VEC3"
		},
		{
			"bufferView":68,
			"componentType":5126,
			"count":36,
			"type":"VEC2"
		},
		{
			"bufferView":69,
			"componentType":5126,
			"count":690,
			"max":[
				0.472701758146286,
				1.281773567199707,
				12.563690185546875
			],
			"min":[
				-0.0693916603922844,
				0.3756919205188751,
				11.048430442810059
			],
			"type":"VEC3"
		},
		{
			"bufferView":70,
			"componentType":5126,
			"count":690,
			"type":"VEC3"
		},
		{
			"bufferView":71,
			"componentType":5126,
			"count":690,
			"type":"VEC2"
		},
		{
			"bufferView":72,
			"componentType":5123,
			"count":690,
			"type":"SCALAR"
		},
		{
			"bufferView":73,
			"componentType":5126,
			"count":690,
			"max":[
				0.06938976794481277,
				1.281773567199707,
				-11.048430442810059
			],
			"min":[
				-0.4727035462856293,
				0.3756919205188751,
				-12.563690185546875
			],
			"type":"VEC3"
		},
		{
			"bufferView":74,
			"componentType":5126,
			"count":690,
			"type":"VEC3"
		},
		{
			"bufferView":75,
			"componentType":5126,
			"count":690,
			"type":"VEC2"
		},
		{
			"bufferView":76,
			"componentType":5126,
			"count":480,
			"max":[
				1.5220757722854614,
				4.398410320281982,
				12.130542755126953
			],
			"min":[
				-1.5207535028457642,
				1.2303847074508667,
				-12.13055419921875
			],
			"type":"VEC3"
		},
		{
			"bufferView":77,
			"componentType":5126,
			"count":480,
			"type":"VEC3"
		},
		{
			"bufferView":78,
			"componentType":5126,
			"count":480,
			"type":"VEC2"
		},
		{
			"bufferView":79,
			"componentType":5123,
			"count":480,
			"type":"SCALAR"
		},
		{
			"bufferView":80,
			"componentType":5126,
			"count":306,
			"max":[
				-0.8865822553634644,
				1.4984102249145508,
				-11.861987113952637
			],
			"min":[
				-1.4818960428237915,
				0.43713316321372986,
				-12.145445823669434
			],
			"type":"VEC3"
		},
		{
			"bufferView":81,
			"componentType":5126,
			"count":306,
			"type":"VEC3"
		},
		{
			"bufferView":82,
			"componentType":5126,
			"count":306,
			"type":"VEC2"
		},
		{
			"bufferView":83,
			"componentType":5123,
			"count":306,
			"type":"SCALAR"
		},
		{
			"bufferView":84,
			"componentType":5126,
			"count":306,
			"max":[
				0.9251141548156738,
				0.7821431159973145,
				12.883536338806152
			],
			"min":[
				0.787278950214386,
				0.2617782652378082,
				11.862982749938965
			],
			"type":"VEC3"
		},
		{
			"bufferView":85,
			"componentType":5126,
			"count":306,
			"type":"VEC3"
		},
		{
			"bufferView":86,
			"componentType":5126,
			"count":306,
			"type":"VEC2"
		},
		{
			"bufferView":87,
			"componentType":5126,
			"count":1152,
			"max":[
				1.671173095703125,
				2.6369881629943848,
				11.93390941619873
			],
			"min":[
				-1.671162486076355,
				1.3001784086227417,
				-11.933720588684082
			],
			"type":"VEC3"
		},
		{
			"bufferView":88,
			"componentType":5126,
			"count":1152,
			"type":"VEC3"
		},
		{
			"bufferView":89,
			"componentType":5126,
			"count":1152,
			"type":"VEC2"
		},
		{
			"bufferView":90,
			"componentType":5123,
			"count":1152,
			"type":"SCALAR"
		},
		{
			"bufferView":91,
			"componentType":5126,
			"count":804,
			"max":[
				1.2346999645233154,
				1.0369600057601929,
				12.374899864196777
			],
			"min":[
				-1.2347099781036377,
				0.48114797472953796,
				-12.374899864196777
			],
			"type":"VEC3"
		},
		{
			"bufferView":92,
			"componentType":5126,
			"count":804,
			"type":"VEC3"
		},
		{
			"bufferView":93,
			"componentType":5126,
			"count":804,
			"type":"VEC2"
		},
		{
			"bufferView":94,
			"componentType":5123,
			"count":804,
			"type":"SCALAR"
		},
		{
			"bufferView":95,
			"componentType":5126,
			"count":84,
			"max":[
				1.603149652481079,
				4.053302764892578,
				11.660228729248047
			],
			"min":[
				-1.6028273105621338,
				3.5255982875823975,
				10.861750602722168
			],
			"type":"VEC3"
		},
		{
			"bufferView":96,
			"componentType":5126,
			"count":84,
			"type":"VEC3"
		},
		{
			"bufferView":97,
			"componentType":5126,
			"count":84,
			"type":"VEC2"
		},
		{
			"bufferView":98,
			"componentType":5123,
			"count":84,
			"type":"SCALAR"
		},
		{
			"bufferView":99,
			"componentType":5126,
			"count":648,
			"max":[
				0.8905868530273438,
				3.6816399097442627,
				12.500800132751465
			],
			"min":[
				-0.8900181651115417,
				1.368749976158142,
				-12.500800132751465
			],
			"type":"VEC3"
		},
		{
			"bufferView":100,
			"componentType":5126,
			"count":648,
			"type":"VEC3"
		},
		{
			"bufferView":101,
			"componentType":5126,
			"count":648,
			"type":"VEC2"
		},
		{
			"bufferView":102,
			"componentType":5123,
			"count":648,
			"type":"SCALAR"
		},
		{
			"bufferView":103,
			"componentType":5126,
			"count":558,
			"max":[
				0.9393069744110107,
				1.2917399406433105,
				12.14579963684082
			],
			"min":[
				-0.9393090009689331,
				0.6687339544296265,
				-12.14579963684082
			],
			"type":"VEC3"
		},
		{
			"bufferView":104,
			"componentType":5126,
			"count":558,
			"type":"VEC3"
		},
		{
			"bufferView":105,
			"componentType":5126,
			"count":558,
			"type":"VEC2"
		},
		{
			"bufferView":106,
			"componentType":5123,
			"count":558,
			"type":"SCALAR"
		},
		{
			"bufferView":107,
			"componentType":5126,
			"count":114,
			"max":[
				-0.26547855138778687,
				1.2560266256332397,
				5.328514575958252
			],
			"min":[
				-1.5244102478027344,
				0.41776707768440247,
				4.5131049156188965
			],
			"type":"VEC3"
		},
		{
			"bufferView":108,
			"componentType":5126,
			"count":114,
			"type":"VEC3"
		},
		{
			"bufferView":109,
			"componentType":5126,
			"count":114,
			"type":"VEC2"
		},
		{
			"bufferView":110,
			"componentType":5123,
			"count":114,
			"type":"SCALAR"
		},
		{
			"bufferView":111,
			"componentType":5126,
			"count":624,
			"max":[
				0.410931795835495,
				1.2874199151992798,
				12.635199546813965
			],
			"min":[
				-0.41092821955680847,
				0.8337399959564209,
				11.661999702453613
			],
			"type":"VEC3"
		},
		{
			"bufferView":112,
			"componentType":5126,
			"count":624,
			"type":"VEC3"
		},
		{
			"bufferView":113,
			"componentType":5126,
			"count":624,
			"type":"VEC2"
		},
		{
			"bufferView":114,
			"componentType":5123,
			"count":624,
			"type":"SCALAR"
		},
		{
			"bufferView":115,
			"componentType":5126,
			"count":624,
			"max":[
				0.41093000769615173,
				1.2874199151992798,
				-11.661999702453613
			],
			"min":[
				-0.41093000769615173,
				0.8337399959564209,
				-12.635199546813965
			],
			"type":"VEC3"
		},
		{
			"bufferView":116,
			"componentType":5126,
			"count":624,
			"type":"VEC3"
		},
		{
			"bufferView":117,
			"componentType":5126,
			"count":624,
			"type":"VEC2"
		},
		{
			"bufferView":118,
			"componentType":5126,
			"count":558,
			"max":[
				1.578969955444336,
				1.2886699438095093,
				11.777000427246094
			],
			"min":[
				-1.578969955444336,
				0.5374360084533691,
				-11.77180004119873
			],
			"type":"VEC3"
		},
		{
			"bufferView":119,
			"componentType":5126,
			"count":558,
			"type":"VEC3"
		},
		{
			"bufferView":120,
			"componentType":5126,
			"count":558,
			"type":"VEC2"
		},
		{
			"bufferView":121,
			"componentType":5126,
			"count":390,
			"max":[
				0.6776569485664368,
				0.977747917175293,
				6.914899826049805
			],
			"min":[
				-0.6806120276451111,
				0.8028658628463745,
				-6.906869888305664
			],
			"type":"VEC3"
		},
		{
			"bufferView":122,
			"componentType":5126,
			"count":390,
			"type":"VEC3"
		},
		{
			"bufferView":123,
			"componentType":5126,
			"count":390,
			"type":"VEC2"
		},
		{
			"bufferView":124,
			"componentType":5123,
			"count":390,
			"type":"SCALAR"
		},
		{
			"bufferView":125,
			"componentType":5126,
			"count":318,
			"max":[
				1.4666962623596191,
				4.757346153259277,
				10.588497161865234
			],
			"min":[
				0.873071014881134,
				4.000766277313232,
				9.481311798095703
			],
			"type":"VEC3"
		},
		{
			"bufferView":126,
			"componentType":5126,
			"count":318,
			"type":"VEC3"
		},
		{
			"bufferView":127,
			"componentType":5126,
			"count":318,
			"type":"VEC2"
		},
		{
			"bufferView":128,
			"componentType":5126,
			"count":444,
			"max":[
				1.5244088172912598,
				1.3563963174819946,
				10.887901306152344
			],
			"min":[
				0.2654780149459839,
				0.3230164349079132,
				1.855866551399231
			],
			"type":"VEC3"
		},
		{
			"bufferView":129,
			"componentType":5126,
			"count":444,
			"type":"VEC3"
		},
		{
			"bufferView":130,
			"componentType":5126,
			"count":444,
			"type":"VEC2"
		},
		{
			"bufferView":131,
			"componentType":5123,
			"count":444,
			"type":"SCALAR"
		},
		{
			"bufferView":132,
			"componentType":5126,
			"count":10,
			"max":[
				0.04874992370605469,
				0.059828758239746094,
				4.261853536746685e-09
			],
			"min":[
				-0.04874992370605469,
				-0.05982851982116699,
				-0.03656291961669922
			],
			"type":"VEC3"
		},
		{
			"bufferView":133,
			"componentType":5126,
			"count":10,
			"type":"VEC3"
		},
		{
			"bufferView":134,
			"componentType":5126,
			"count":10,
			"type":"VEC2"
		},
		{
			"bufferView":135,
			"componentType":5123,
			"count":24,
			"type":"SCALAR"
		},
		{
			"bufferView":136,
			"componentType":5126,
			"count":10,
			"max":[
				0.04874992370605469,
				0.059828758239746094,
				0.03656291961669922
			],
			"min":[
				-0.04874992370605469,
				-0.05982851982116699,
				0
			],
			"type":"VEC3"
		},
		{
			"bufferView":137,
			"componentType":5126,
			"count":10,
			"type":"VEC3"
		},
		{
			"bufferView":138,
			"componentType":5126,
			"count":10,
			"type":"VEC2"
		},
		{
			"bufferView":139,
			"componentType":5126,
			"count":50,
			"max":[
				0.07664000988006592,
				0.13866686820983887,
				0.03750038146972656
			],
			"min":[
				-0.08386003971099854,
				-0.11274313926696777,
				-0.0034008026123046875
			],
			"type":"VEC3"
		},
		{
			"bufferView":140,
			"componentType":5126,
			"count":50,
			"type":"VEC3"
		},
		{
			"bufferView":141,
			"componentType":5126,
			"count":50,
			"type":"VEC2"
		},
		{
			"bufferView":142,
			"componentType":5123,
			"count":96,
			"type":"SCALAR"
		},
		{
			"bufferView":143,
			"componentType":5126,
			"count":10,
			"max":[
				0.04999995231628418,
				0.05318117141723633,
				0.03750038146972656
			],
			"min":[
				-0.04999995231628418,
				-0.05318093299865723,
				0
			],
			"type":"VEC3"
		},
		{
			"bufferView":144,
			"componentType":5126,
			"count":10,
			"type":"VEC3"
		},
		{
			"bufferView":145,
			"componentType":5126,
			"count":10,
			"type":"VEC2"
		}
	],
	"bufferViews":[
		{
			"buffer":0,
			"byteLength":12672,
			"byteOffset":0,
			"target":34962
		},
		{
			"buffer":0,
			"byteLength":12672,
			"byteOffset":12672,
			"target":34962
		},
		{
			"buffer":0,
			"byteLength":8448,
			"byteOffset":25344,
			"target":34962
		},
		{
			"buffer":0,
			"byteLength":2112,
			"byteOffset":33792,
			"target":34963
		},
		{
			"buffer":0,
			"byteLength":18360,
			"byteOffset":35904,
			"target":34962
		},
		{
			"buffer":0,
			"byteLength":18360,
			"byteOffset":54264,
			"target":34962
		},
		{
			"buffer":0,
			"byteLength":12240,
			"byteOffset":72624,
			"target":34962
		},
		{
			"buffer":0,
			"byteLength":3060,
			"byteOffset":84864,
			"target":34963
		},
		{
			"buffer":0,
			"byteLength":28728,
			"byteOffset":87924,
			"target":34962
		},
		{
			"buffer":0,
			"byteLength":28728,
			"byteOffset":116652,
			"target":34962
		},
		{
			"buffer":0,
			"byteLength":19152,
			"byteOffset":145380,
			"target":34962
		},
		{
			"buffer":0,
			"byteLength":4992,
			"byteOffset":164532,
			"target":34963
		},
		{
			"buffer":0,
			"byteLength":162216,
			"byteOffset":169524,
			"target":34962
		},
		{
			"buffer":0,
			"byteLength":162216,
			"byteOffset":331740,
			"target":34962
		},
		{
			"buffer":0,
			"byteLength":108144,
			"byteOffset":493956,
			"target":34962
		},
		{
			"buffer":0,
			"byteLength":27036,
			"byteOffset":602100,
			"target":34963
		},
		{
			"buffer":0,
			"byteLength":6924,
			"byteOffset":629136,
			"target":34962
		},
		{
			"buffer":0,
			"byteLength":6924,
			"byteOffset":636060,
			"target":34962
		},
		{
			"buffer":0,
			"byteLength":4616,
			"byteOffset":642984,
			"target":34962
		},
		{
			"buffer":0,
			"byteLength":1692,
			"byteOffset":647600,
			"target":34963
		},
		{
			"buffer":0,
			"byteLength":432,
			"byteOffset":649292,
			"target":34962
		},
		{
			"buffer":0,
			"byteLength":432,
			"byteOffset":649724,
			"target":34962
		},
		{
			"buffer":0,
			"byteLength":288,
			"byteOffset":650156,
			"target":34962
		},
		{
			"buffer":0,
			"byteLength":72,
			"byteOffset":650444,
			"target":34963
		},
		{
			"buffer":0,
			"byteLength":288,
			"byteOffset":650516,
			"target":34962
		},
		{
			"buffer":0,
			"byteLength":288,
			"byteOffset":650804,
			"target":34962
		},
		{
			"buffer":0,
			"byteLength":192,
			"byteOffset":651092,
			"target":34962
		},
		{
			"buffer":0,
			"byteLength":48,
			"byteOffset":651284,
			"target":34963
		},
		{
			"buffer":0,
			"byteLength":3816,
			"byteOffset":651332,
			"target":34962
		},
		{
			"buffer":0,
			"byteLength":3816,
			"byteOffset":655148,
			"target":34962
		},
		{
			"buffer":0,
			"byteLength":2544,
			"byteOffset":658964,
			"target":34962
		},
		{
			"buffer":0,
			"byteLength":636,
			"byteOffset":661508,
			"target":34963
		},
		{
			"buffer":0,
			"byteLength":9864,
			"byteOffset":662144,
			"target":34962
		},
		{
			"buffer":0,
			"byteLength":9864,
			"byteOffset":672008,
			"target":34962
		},
		{
			"buffer":0,
			"byteLength":6576,
			"byteOffset":681872,
			"target":34962
		},
		{
			"buffer":0,
			"byteLength":1992,
			"byteOffset":688448,
			"target":34963
		},
		{
			"buffer":0,
			"byteLength":8784,
			"byteOffset":690440,
			"target":34962
		},
		{
			"buffer":0,
			"byteLength":8784,
			"byteOffset":699224,
			"target":34962
		},
		{
			"buffer":0,
			"byteLength":5856,
			"byteOffset":708008,
			"target":34962
		},
		{
			"buffer":0,
			"byteLength":1464,
			"byteOffset":713864,
			"target":34963
		},
		{
			"buffer":0,
			"byteLength":158976,
			"byteOffset":715328,
			"target":34962
		},
		{
			"buffer":0,
			"byteLength":158976,
			"byteOffset":874304,
			"target":34962
		},
		{
			"buffer":0,
			"byteLength":105984,
			"byteOffset":1033280,
			"target":34962
		},
		{
			"buffer":0,
			"byteLength":26496,
			"byteOffset":1139264,
			"target":34963
		},
		{
			"buffer":0,
			"byteLength":8784,
			"byteOffset":1165760,
			"target":34962
		},
		{
			"buffer":0,
			"byteLength":8784,
			"byteOffset":1174544,
			"target":34962
		},
		{
			"buffer":0,
			"byteLength":5856,
			"byteOffset":1183328,
			"target":34962
		},
		{
			"buffer":0,
			"byteLength":8784,
			"byteOffset":1189184,
			"target":34962
		},
		{
			"buffer":0,
			"byteLength":8784,
			"byteOffset":1197968,
			"target":34962
		},
		{
			"buffer":0,
			"byteLength":5856,
			"byteOffset":1206752,
			"target":34962
		},
		{
			"buffer":0,
			"byteLength":11520,
			"byteOffset":1212608,
			"target":34962
		},
		{
			"buffer":0,
			"byteLength":11520,
			"byteOffset":1224128,
			"target":34962
		},
		{
			"buffer":0,
			"byteLength":7680,
			"byteOffset":1235648,
			"target":34962
		},
		{
			"buffer":0,
			"byteLength":1920,
			"byteOffset":1243328,
			"target":34963
		},
		{
			"buffer":0,
			"byteLength":1728,
			"byteOffset":1245248,
			"target":34962
		},
		{
			"buffer":0,
			"byteLength":1728,
			"byteOffset":1246976,
			"target":34962
		},
		{
			"buffer":0,
			"byteLength":1152,
			"byteOffset":1248704,
			"target":34962
		},
		{
			"buffer":0,
			"byteLength":288,
			"byteOffset":1249856,
			"target":34963
		},
		{
			"buffer":0,
			"byteLength":26928,
			"byteOffset":1250144,
			"target":34962
		},
		{
			"buffer":0,
			"byteLength":26928,
			"byteOffset":1277072,
			"target":34962
		},
		{
			"buffer":0,
			"byteLength":17952,
			"byteOffset":1304000,
			"target":34962
		},
		{
			"buffer":0,
			"byteLength":4488,
			"byteOffset":1321952,
			"target":34963
		},
		{
			"buffer":0,
			"byteLength":9072,
			"byteOffset":1326440,
			"target":34962
		},
		{
			"buffer":0,
			"byteLength":9072,
			"byteOffset":1335512,
			"target":34962
		},
		{
			"buffer":0,
			"byteLength":6048,
			"byteOffset":1344584,
			"target":34962
		},
		{
			"buffer":0,
			"byteLength":1512,
			"byteOffset":1350632,
			"target":34963
		},
		{
			"buffer":0,
			"byteLength":432,
			"byteOffset":1352144,
			"target":34962
		},
		{
			"buffer":0,
			"byteLength":432,
			"byteOffset":1352576,
			"target":34962
		},
		{
			"buffer":0,
			"byteLength":288,
			"byteOffset":1353008,
			"target":34962
		},
		{
			"buffer":0,
			"byteLength":8280,
			"byteOffset":1353296,
			"target":34962
		},
		{
			"buffer":0,
			"byteLength":8280,
			"byteOffset":1361576,
			"target":34962
		},
		{
			"buffer":0,
			"byteLength":5520,
			"byteOffset":1369856,
			"target":34962
		},
		{
			"buffer":0,
			"byteLength":1380,
			"byteOffset":1375376,
			"target":34963
		},
		{
			"buffer":0,
			"byteLength":8280,
			"byteOffset":1376756,
			"target":34962
		},
		{
			"buffer":0,
			"byteLength":8280,
			"byteOffset":1385036,
			"target":34962
		},
		{
			"buffer":0,
			"byteLength":5520,
			"byteOffset":1393316,
			"target":34962
		},
		{
			"buffer":0,
			"byteLength":5760,
			"byteOffset":1398836,
			"target":34962
		},
		{
			"buffer":0,
			"byteLength":5760,
			"byteOffset":1404596,
			"target":34962
		},
		{
			"buffer":0,
			"byteLength":3840,
			"byteOffset":1410356,
			"target":34962
		},
		{
			"buffer":0,
			"byteLength":960,
			"byteOffset":1414196,
			"target":34963
		},
		{
			"buffer":0,
			"byteLength":3672,
			"byteOffset":1415156,
			"target":34962
		},
		{
			"buffer":0,
			"byteLength":3672,
			"byteOffset":1418828,
			"target":34962
		},
		{
			"buffer":0,
			"byteLength":2448,
			"byteOffset":1422500,
			"target":34962
		},
		{
			"buffer":0,
			"byteLength":612,
			"byteOffset":1424948,
			"target":34963
		},
		{
			"buffer":0,
			"byteLength":3672,
			"byteOffset":1425560,
			"target":34962
		},
		{
			"buffer":0,
			"byteLength":3672,
			"byteOffset":1429232,
			"target":34962
		},
		{
			"buffer":0,
			"byteLength":2448,
			"byteOffset":1432904,
			"target":34962
		},
		{
			"buffer":0,
			"byteLength":13824,
			"byteOffset":1435352,
			"target":34962
		},
		{
			"buffer":0,
			"byteLength":13824,
			"byteOffset":1449176,
			"target":34962
		},
		{
			"buffer":0,
			"byteLength":9216,
			"byteOffset":1463000,
			"target":34962
		},
		{
			"buffer":0,
			"byteLength":2304,
			"byteOffset":1472216,
			"target":34963
		},
		{
			"buffer":0,
			"byteLength":9648,
			"byteOffset":1474520,
			"target":34962
		},
		{
			"buffer":0,
			"byteLength":9648,
			"byteOffset":1484168,
			"target":34962
		},
		{
			"buffer":0,
			"byteLength":6432,
			"byteOffset":1493816,
			"target":34962
		},
		{
			"buffer":0,
			"byteLength":1608,
			"byteOffset":1500248,
			"target":34963
		},
		{
			"buffer":0,
			"byteLength":1008,
			"byteOffset":1501856,
			"target":34962
		},
		{
			"buffer":0,
			"byteLength":1008,
			"byteOffset":1502864,
			"target":34962
		},
		{
			"buffer":0,
			"byteLength":672,
			"byteOffset":1503872,
			"target":34962
		},
		{
			"buffer":0,
			"byteLength":168,
			"byteOffset":1504544,
			"target":34963
		},
		{
			"buffer":0,
			"byteLength":7776,
			"byteOffset":1504712,
			"target":34962
		},
		{
			"buffer":0,
			"byteLength":7776,
			"byteOffset":1512488,
			"target":34962
		},
		{
			"buffer":0,
			"byteLength":5184,
			"byteOffset":1520264,
			"target":34962
		},
		{
			"buffer":0,
			"byteLength":1296,
			"byteOffset":1525448,
			"target":34963
		},
		{
			"buffer":0,
			"byteLength":6696,
			"byteOffset":1526744,
			"target":34962
		},
		{
			"buffer":0,
			"byteLength":6696,
			"byteOffset":1533440,
			"target":34962
		},
		{
			"buffer":0,
			"byteLength":4464,
			"byteOffset":1540136,
			"target":34962
		},
		{
			"buffer":0,
			"byteLength":1116,
			"byteOffset":1544600,
			"target":34963
		},
		{
			"buffer":0,
			"byteLength":1368,
			"byteOffset":1545716,
			"target":34962
		},
		{
			"buffer":0,
			"byteLength":1368,
			"byteOffset":1547084,
			"target":34962
		},
		{
			"buffer":0,
			"byteLength":912,
			"byteOffset":1548452,
			"target":34962
		},
		{
			"buffer":0,
			"byteLength":228,
			"byteOffset":1549364,
			"target":34963
		},
		{
			"buffer":0,
			"byteLength":7488,
			"byteOffset":1549592,
			"target":34962
		},
		{
			"buffer":0,
			"byteLength":7488,
			"byteOffset":1557080,
			"target":34962
		},
		{
			"buffer":0,
			"byteLength":4992,
			"byteOffset":1564568,
			"target":34962
		},
		{
			"buffer":0,
			"byteLength":1248,
			"byteOffset":1569560,
			"target":34963
		},
		{
			"buffer":0,
			"byteLength":7488,
			"byteOffset":1570808,
			"target":34962
		},
		{
			"buffer":0,
			"byteLength":7488,
			"byteOffset":1578296,
			"target":34962
		},
		{
			"buffer":0,
			"byteLength":4992,
			"byteOffset":1585784,
			"target":34962
		},
		{
			"buffer":0,
			"byteLength":6696,
			"byteOffset":1590776,
			"target":34962
		},
		{
			"buffer":0,
			"byteLength":6696,
			"byteOffset":1597472,
			"target":34962
		},
		{
			"buffer":0,
			"byteLength":4464,
			"byteOffset":1604168,
			"target":34962
		},
		{
			"buffer":0,
			"byteLength":4680,
			"byteOffset":1608632,
			"target":34962
		},
		{
			"buffer":0,
			"byteLength":4680,
			"byteOffset":1613312,
			"target":34962
		},
		{
			"buffer":0,
			"byteLength":3120,
			"byteOffset":1617992,
			"target":34962
		},
		{
			"buffer":0,
			"byteLength":780,
			"byteOffset":1621112,
			"target":34963
		},
		{
			"buffer":0,
			"byteLength":3816,
			"byteOffset":1621892,
			"target":34962
		},
		{
			"buffer":0,
			"byteLength":3816,
			"byteOffset":1625708,
			"target":34962
		},
		{
			"buffer":0,
			"byteLength":2544,
			"byteOffset":1629524,
			"target":34962
		},
		{
			"buffer":0,
			"byteLength":5328,
			"byteOffset":1632068,
			"target":34962
		},
		{
			"buffer":0,
			"byteLength":5328,
			"byteOffset":1637396,
			"target":34962
		},
		{
			"buffer":0,
			"byteLength":3552,
			"byteOffset":1642724,
			"target":34962
		},
		{
			"buffer":0,
			"byteLength":888,
			"byteOffset":1646276,
			"target":34963
		},
		{
			"buffer":0,
			"byteLength":120,
			"byteOffset":1647164,
			"target":34962
		},
		{
			"buffer":0,
			"byteLength":120,
			"byteOffset":1647284,
			"target":34962
		},
		{
			"buffer":0,
			"byteLength":80,
			"byteOffset":1647404,
			"target":34962
		},
		{
			"buffer":0,
			"byteLength":48,
			"byteOffset":1647484,
			"target":34963
		},
		{
			"buffer":0,
			"byteLength":120,
			"byteOffset":1647532,
			"target":34962
		},
		{
			"buffer":0,
			"byteLength":120,
			"byteOffset":1647652,
			"target":34962
		},
		{
			"buffer":0,
			"byteLength":80,
			"byteOffset":1647772,
			"target":34962
		},
		{
			"buffer":0,
			"byteLength":600,
			"byteOffset":1647852,
			"target":34962
		},
		{
			"buffer":0,
			"byteLength":600,
			"byteOffset":1648452,
			"target":34962
		},
		{
			"buffer":0,
			"byteLength":400,
			"byteOffset":1649052,
			"target":34962
		},
		{
			"buffer":0,
			"byteLength":192,
			"byteOffset":1649452,
			"target":34963
		},
		{
			"buffer":0,
			"byteLength":120,
			"byteOffset":1649644,
			"target":34962
		},
		{
			"buffer":0,
			"byteLength":120,
			"byteOffset":1649764,
			"target":34962
		},
		{
			"buffer":0,
			"byteLength":80,
			"byteOffset":1649884,
			"target":34962
		}
	],
	"samplers":[
		{
			"magFilter":9729,
			"minFilter":9987
		}
	],
	"buffers":[
		{
			"byteLength":1649964,
			"uri":"Pass_TVZ_62-425_1.bin"
		}
	]
}
