{
	"asset":{
		"generator":"Khronos glTF Blender I/O v4.4.56",
		"version":"2.0"
	},
	"extensionsUsed":[
		"KHR_materials_specular"
	],
	"scene":0,
	"scenes":[
		{
			"name":"Scene",
			"nodes":[
				0
			]
		}
	],
	"nodes":[
		{
			"mesh":0,
			"name":"Windows"
		}
	],
	"materials":[
		{
			"emissiveTexture":{
				"index":0
			},
			"extensions":{
				"KHR_materials_specular":{
					"specularFactor":0
				}
			},
			"name":"Material_pass_21071_two_sided",
			"pbrMetallicRoughness":{
				"baseColorTexture":{
					"index":1
				},
				"roughnessFactor":0.75
			}
		}
	],
	"meshes":[
		{
			"name":"Body.001",
			"primitives":[
				{
					"attributes":{
						"POSITION":0,
						"NORMAL":1,
						"TEXCOORD_0":2
					},
					"indices":3,
					"material":0
				}
			]
		}
	],
	"textures":[
		{
			"sampler":0,
			"source":0
		},
		{
			"sampler":0,
			"source":1
		}
	],
	"images":[
		{
			"mimeType":"image/png",
			"name":"pass_rzd-21071_emis",
			"uri":"T_pass_rzd-21071/pass_rzd-21071_emis.png"
		},
		{
			"mimeType":"image/png",
			"name":"pass_rzd-21071",
			"uri":"T_pass_rzd-21071/pass_rzd-21071.png"
		}
	],
	"accessors":[
		{
			"bufferView":0,
			"componentType":5126,
			"count":429,
			"max":[
				1.5570980310440063,
				3.385866403579712,
				10.571849822998047
			],
			"min":[
				-1.5571353435516357,
				2.512178897857666,
				-10.547335624694824
			],
			"type":"VEC3"
		},
		{
			"bufferView":1,
			"componentType":5126,
			"count":429,
			"type":"VEC3"
		},
		{
			"bufferView":2,
			"componentType":5126,
			"count":429,
			"type":"VEC2"
		},
		{
			"bufferView":3,
			"componentType":5123,
			"count":1143,
			"type":"SCALAR"
		}
	],
	"bufferViews":[
		{
			"buffer":0,
			"byteLength":5148,
			"byteOffset":0,
			"target":34962
		},
		{
			"buffer":0,
			"byteLength":5148,
			"byteOffset":5148,
			"target":34962
		},
		{
			"buffer":0,
			"byteLength":3432,
			"byteOffset":10296,
			"target":34962
		},
		{
			"buffer":0,
			"byteLength":2286,
			"byteOffset":13728,
			"target":34963
		}
	],
	"samplers":[
		{
			"magFilter":9729,
			"minFilter":9987
		}
	],
	"buffers":[
		{
			"byteLength":16016,
			"uri":"Pass_TVZ_62-425_1_windows.bin"
		}
	]
}
