{
	"asset":{
		"generator":"Khronos glTF Blender I/O v4.4.56",
		"version":"2.0"
	},
	"extensionsUsed":[
		"KHR_materials_specular"
	],
	"scene":0,
	"scenes":[
		{
			"name":"Scene",
			"nodes":[
				0
			]
		}
	],
	"nodes":[
		{
			"mesh":0,
			"name":"Windows",
			"translation":[
				-0.0010000000474974513,
				0,
				0
			]
		}
	],
	"materials":[
		{
			"emissiveTexture":{
				"index":0
			},
			"extensions":{
				"KHR_materials_specular":{
					"specularFactor":0
				}
			},
			"name":"Material_pass_11100_two_sided",
			"pbrMetallicRoughness":{
				"baseColorTexture":{
					"index":1
				},
				"roughnessFactor":0.75
			}
		}
	],
	"meshes":[
		{
			"name":"Body.014",
			"primitives":[
				{
					"attributes":{
						"POSITION":0,
						"NORMAL":1,
						"TEXCOORD_0":2
					},
					"indices":3,
					"material":0
				}
			]
		}
	],
	"textures":[
		{
			"sampler":0,
			"source":0
		},
		{
			"sampler":0,
			"source":1
		}
	],
	"images":[
		{
			"mimeType":"image/png",
			"name":"pass_rzd-11100_emis",
			"uri":"T_pass_rzd-11100/pass_rzd-11100_emis.png"
		},
		{
			"mimeType":"image/png",
			"name":"pass_rzd-11100",
			"uri":"T_pass_rzd-11100/pass_rzd-11100.png"
		}
	],
	"accessors":[
		{
			"bufferView":0,
			"componentType":5126,
			"count":503,
			"max":[
				1.531044602394104,
				3.4436380863189697,
				10.653294563293457
			],
			"min":[
				-1.5290096998214722,
				2.5198771953582764,
				-10.670856475830078
			],
			"type":"VEC3"
		},
		{
			"bufferView":1,
			"componentType":5126,
			"count":503,
			"type":"VEC3"
		},
		{
			"bufferView":2,
			"componentType":5126,
			"count":503,
			"type":"VEC2"
		},
		{
			"bufferView":3,
			"componentType":5123,
			"count":1353,
			"type":"SCALAR"
		}
	],
	"bufferViews":[
		{
			"buffer":0,
			"byteLength":6036,
			"byteOffset":0,
			"target":34962
		},
		{
			"buffer":0,
			"byteLength":6036,
			"byteOffset":6036,
			"target":34962
		},
		{
			"buffer":0,
			"byteLength":4024,
			"byteOffset":12072,
			"target":34962
		},
		{
			"buffer":0,
			"byteLength":2706,
			"byteOffset":16096,
			"target":34963
		}
	],
	"samplers":[
		{
			"magFilter":9729,
			"minFilter":9987
		}
	],
	"buffers":[
		{
			"byteLength":18804,
			"uri":"Pass_CupAmm4_windows.bin"
		}
	]
}
