{
	"asset":{
		"generator":"Khronos glTF Blender I/O v4.4.56",
		"version":"2.0"
	},
	"extensionsUsed":[
		"KHR_materials_specular"
	],
	"scene":0,
	"scenes":[
		{
			"name":"Scene",
			"nodes":[
				0,
				1,
				2,
				3,
				4,
				5,
				6,
				7,
				8,
				9,
				10,
				11,
				12,
				13,
				14,
				15,
				16,
				17,
				18,
				19,
				20,
				21,
				22,
				23,
				24,
				25,
				26,
				27,
				28,
				29,
				30,
				31,
				32,
				33,
				34,
				35,
				36,
				37,
				38,
				39,
				40,
				41,
				42,
				43,
				44,
				45
			]
		}
	],
	"nodes":[
		{
			"mesh":0,
			"name":"Scene Root_AB_AB-OFFSET_AB-GEODE_02 - Default_0"
		},
		{
			"mesh":1,
			"name":"Scene Root_Avtotormoz292_Avtotormoz292-OFFSET_Avtotormoz292-GEO"
		},
		{
			"mesh":2,
			"name":"Scene Root_Body_Body-OFFSET_Body-GEODE_02 - Default_0"
		},
		{
			"mesh":3,
			"name":"Scene Root_Body_Boige-1_Boige-1-GEODE_02 - Default_0"
		},
		{
			"mesh":4,
			"name":"Wheel-1",
			"translation":[
				-0.000371308415196836,
				0.7861886620521545,
				9.900015830993652
			]
		},
		{
			"mesh":5,
			"name":"Wheel-2",
			"translation":[
				-0.0003634359163697809,
				0.7861772179603577,
				7.500026226043701
			]
		},
		{
			"mesh":6,
			"name":"Scene Root_Body_Boige-2_Boige-2-GEODE_02 - Default_0"
		},
		{
			"mesh":7,
			"name":"Wheel-3",
			"translation":[
				-0.00037148306728340685,
				0.7861886024475098,
				-7.499985694885254
			]
		},
		{
			"mesh":8,
			"name":"Wheel-4",
			"translation":[
				-0.00037138364859856665,
				0.786188542842865,
				-9.89998722076416
			]
		},
		{
			"mesh":9,
			"name":"Scene Root_Body_DCG-4435_DCG-4435-GEODE_02 - Default_0"
		},
		{
			"mesh":10,
			"name":"Gen_Kardan",
			"rotation":[
				-0.6916242241859436,
				0,
				0,
				0.7222574949264526
			],
			"translation":[
				-0.0011820680228993297,
				0.8140935301780701,
				6.359710693359375
			]
		},
		{
			"mesh":11,
			"name":"Gen_Mufta1",
			"rotation":[
				-0.7071068286895752,
				0,
				0,
				0.7071068286895752
			],
			"translation":[
				0.0008727312670089304,
				0.8500000834465027,
				5.524901866912842
			]
		},
		{
			"mesh":12,
			"name":"Scene Root_Bufera_Bufera-GEODE_02 - Default_0"
		},
		{
			"mesh":13,
			"name":"Scene Root_Chep_otpuskVR_Chep_otpuskVR-OFFSET_Chep_otpuskVR-GEO"
		},
		{
			"mesh":14,
			"name":"Scene Root_Deflektor_Deflektor-OFFSET_Deflektor-GEODE_02 - Defa"
		},
		{
			"mesh":15,
			"name":"Scene Root_FanTrub_FanTrub-OFFSET_FanTrub-GEODE_02 - Default_0"
		},
		{
			"mesh":16,
			"name":"Scene Root_Fartuki_Fartuki-OFFSET_Fartuki-GEODE_02 - Default_0"
		},
		{
			"mesh":17,
			"name":"Scene Root_Hvost_signal_Hvost_signal-GEODE_02 - Default_0"
		},
		{
			"mesh":18,
			"name":"Scene Root_Kabel_G_Kabel_G-OFFSET_Kabel_G-GEODE_02 - Default_0"
		},
		{
			"mesh":19,
			"name":"Scene Root_KoncevoyRuk_1_KoncevoyRuk_1-GEODE_02 - Default_0"
		},
		{
			"mesh":20,
			"name":"Scene Root_KoncevoyRuk_2_KoncevoyRuk_2-GEODE_02 - Default_0"
		},
		{
			"mesh":21,
			"name":"Scene Root_Kronsht_gerlic_Kronsht_gerlic-GEODE_02 - Default_0"
		},
		{
			"mesh":22,
			"name":"Scene Root_LestnicaKrisha_LestnicaKrisha-GEODE_02 - Default_0"
		},
		{
			"mesh":23,
			"name":"Scene Root_MAB-II_MAB-II-GEODE_02 - Default_0"
		},
		{
			"mesh":24,
			"name":"Scene Root_Perehod_det_Perehod_det-GEODE_02 - Default_0"
		},
		{
			"mesh":25,
			"name":"Scene Root_PinchOFF_2_PinchOFF_2-OFFSET_PinchOFF_2-GEODE_02 - D"
		},
		{
			"mesh":26,
			"name":"Scene Root_PinchON_PinchON-GEODE_02 - Default_0"
		},
		{
			"mesh":27,
			"name":"Scene Root_Podtambur_Podtambur-OFFSET_Podtambur-GEODE_02 - Defa"
		},
		{
			"mesh":28,
			"name":"Scene Root_Podveska_ConcRuk_Podveska_ConcRuk-OFFSET_Podveska_Co"
		},
		{
			"mesh":29,
			"name":"Scene Root_Poruchny_ut_Poruchny_ut-GEODE_02 - Default_0"
		},
		{
			"mesh":30,
			"name":"Scene Root_PredohrKV_PredohrKV-OFFSET_PredohrKV-GEODE_02 - Defa"
		},
		{
			"mesh":31,
			"name":"Scene Root_PredohrSkob_PredohrSkob-GEODE_02 - Default_0"
		},
		{
			"mesh":32,
			"name":"Scene Root_Rascep_Rascep-OFFSET_Rascep-GEODE_02 - Default_0"
		},
		{
			"mesh":33,
			"name":"Scene Root_RezinaPerehod_RezinaPerehod-GEODE_02 - Default_0"
		},
		{
			"mesh":34,
			"name":"Scene Root_RozetkiOT_RozetkiOT-OFFSET_RozetkiOT-GEODE_02 - Defa"
		},
		{
			"mesh":35,
			"name":"Scene Root_SA-3-1_SA-3-1-OFFSET_SA-3-1-GEODE_02 - Default_0"
		},
		{
			"mesh":36,
			"name":"Scene Root_SA-3-2_SA-3-2-OFFSET_SA-3-2-GEODE_02 - Default_0"
		},
		{
			"mesh":37,
			"name":"Scene Root_Stupenky_Stupenky-OFFSET_Stupenky-GEODE_02 - Default"
		},
		{
			"mesh":38,
			"name":"Scene Root_TehLuk_TehLuk-GEODE_02 - Default_0"
		},
		{
			"mesh":39,
			"name":"Scene Root_TRP_TRP-OFFSET_TRP-GEODE_02 - Default_0"
		},
		{
			"mesh":40,
			"name":"Scene Root_Truby_kotla_Truby_kotla-GEODE_02 - Default_0"
		},
		{
			"mesh":41,
			"name":"Scene Root_Yashik_3000Kv_Yashik_3000Kv-OFFSET_Yashik_3000Kv-GEO"
		},
		{
			"mesh":42,
			"name":"Scene Root_Yashik_KU_Yashik_KU-OFFSET_Yashik_KU-GEODE_02 - Defa"
		},
		{
			"mesh":43,
			"name":"Scene Root_Yashik_RSH_Yashik_RSH-OFFSET_Yashik_RSH-GEODE_02 - D"
		},
		{
			"mesh":44,
			"name":"Scene Root_Yashik_VU_Yashik_VU-OFFSET_Yashik_VU-GEODE_02 - Defa"
		},
		{
			"mesh":45,
			"name":"Scene Root_ZaglushkaPinch_ZaglushkaPinch-OFFSET_ZaglushkaPinch-"
		}
	],
	"materials":[
		{
			"alphaMode":"BLEND",
			"doubleSided":true,
			"extensions":{
				"KHR_materials_specular":{
					"specularFactor":0
				}
			},
			"name":"material_1.003",
			"pbrMetallicRoughness":{
				"baseColorTexture":{
					"index":0
				},
				"metallicFactor":0,
				"roughnessFactor":0.6837722063064575
			}
		}
	],
	"meshes":[
		{
			"name":"Scene Root_AB_AB-OFFSET_AB-GEODE_02 - Default_0.001",
			"primitives":[
				{
					"attributes":{
						"POSITION":0,
						"NORMAL":1,
						"TEXCOORD_0":2
					},
					"indices":3,
					"material":0
				}
			]
		},
		{
			"name":"Scene Root_Avtotormoz292_Avtotormoz292-OFFSET_Avtotormoz292-GEO",
			"primitives":[
				{
					"attributes":{
						"POSITION":4,
						"NORMAL":5,
						"TEXCOORD_0":6
					},
					"indices":7,
					"material":0
				}
			]
		},
		{
			"name":"Scene Root_Body_Body-OFFSET_Body-GEODE_02 - Default_0.003",
			"primitives":[
				{
					"attributes":{
						"POSITION":8,
						"NORMAL":9,
						"TEXCOORD_0":10
					},
					"indices":11,
					"material":0
				}
			]
		},
		{
			"name":"Scene Root_Body_Boige-1_Boige-1-GEODE_02 - Default_0.003",
			"primitives":[
				{
					"attributes":{
						"POSITION":12,
						"NORMAL":13,
						"TEXCOORD_0":14
					},
					"indices":15,
					"material":0
				}
			]
		},
		{
			"name":"Scene Root_Body_Boige-1_Wheel-1_Wheel-1-OFFSET_Wheel-1-GEOD.002",
			"primitives":[
				{
					"attributes":{
						"POSITION":16,
						"NORMAL":17,
						"TEXCOORD_0":18
					},
					"indices":19,
					"material":0
				}
			]
		},
		{
			"name":"Scene Root_Body_Boige-1_Wheel-2_Wheel-2-OFFSET_Wheel-2-GEOD.002",
			"primitives":[
				{
					"attributes":{
						"POSITION":20,
						"NORMAL":21,
						"TEXCOORD_0":22
					},
					"indices":23,
					"material":0
				}
			]
		},
		{
			"name":"Scene Root_Body_Boige-2_Boige-2-GEODE_02 - Default_0.003",
			"primitives":[
				{
					"attributes":{
						"POSITION":24,
						"NORMAL":25,
						"TEXCOORD_0":26
					},
					"indices":27,
					"material":0
				}
			]
		},
		{
			"name":"Scene Root_Body_Boige-2_Wheel-3_Wheel-3-OFFSET_Wheel-3-GEOD.002",
			"primitives":[
				{
					"attributes":{
						"POSITION":28,
						"NORMAL":29,
						"TEXCOORD_0":30
					},
					"indices":19,
					"material":0
				}
			]
		},
		{
			"name":"Scene Root_Body_Boige-2_Wheel-4_Wheel-4-OFFSET_Wheel-4-GEOD.002",
			"primitives":[
				{
					"attributes":{
						"POSITION":31,
						"NORMAL":32,
						"TEXCOORD_0":33
					},
					"indices":19,
					"material":0
				}
			]
		},
		{
			"name":"Scene Root_Body_DCG-4435_DCG-4435-GEODE_02 - Default_0.001",
			"primitives":[
				{
					"attributes":{
						"POSITION":34,
						"NORMAL":35,
						"TEXCOORD_0":36
					},
					"indices":37,
					"material":0
				}
			]
		},
		{
			"name":"Scene Root_Body_DCG-4435_Gen_Kardan_Gen_Kardan-OFFSET_Gen_K",
			"primitives":[
				{
					"attributes":{
						"POSITION":38,
						"NORMAL":39,
						"TEXCOORD_0":40
					},
					"indices":41,
					"material":0
				}
			]
		},
		{
			"name":"Scene Root_Body_DCG-4435_Gen_Mufta1_Gen_Mufta1-GEODE_02 - D",
			"primitives":[
				{
					"attributes":{
						"POSITION":42,
						"NORMAL":43,
						"TEXCOORD_0":44
					},
					"indices":45,
					"material":0
				}
			]
		},
		{
			"name":"Scene Root_Bufera_Bufera-GEODE_02 - Default_0.002",
			"primitives":[
				{
					"attributes":{
						"POSITION":46,
						"NORMAL":47,
						"TEXCOORD_0":48
					},
					"indices":49,
					"material":0
				}
			]
		},
		{
			"name":"Scene Root_Chep_otpuskVR_Chep_otpuskVR-OFFSET_Chep_otpuskVR.001",
			"primitives":[
				{
					"attributes":{
						"POSITION":50,
						"NORMAL":51,
						"TEXCOORD_0":52
					},
					"indices":53,
					"material":0
				}
			]
		},
		{
			"name":"Scene Root_Deflektor_Deflektor-OFFSET_Deflektor-GEODE_02 - .002",
			"primitives":[
				{
					"attributes":{
						"POSITION":54,
						"NORMAL":55,
						"TEXCOORD_0":56
					},
					"indices":57,
					"material":0
				}
			]
		},
		{
			"name":"Scene Root_FanTrub_FanTrub-OFFSET_FanTrub-GEODE_02 - Defaul",
			"primitives":[
				{
					"attributes":{
						"POSITION":58,
						"NORMAL":59,
						"TEXCOORD_0":60
					},
					"indices":61,
					"material":0
				}
			]
		},
		{
			"name":"Scene Root_Fartuki_Fartuki-OFFSET_Fartuki-GEODE_02 - Defaul.002",
			"primitives":[
				{
					"attributes":{
						"POSITION":62,
						"NORMAL":63,
						"TEXCOORD_0":64
					},
					"indices":65,
					"material":0
				}
			]
		},
		{
			"name":"Scene Root_Hvost_signal_Hvost_signal-GEODE_02 - Default_0.003",
			"primitives":[
				{
					"attributes":{
						"POSITION":66,
						"NORMAL":67,
						"TEXCOORD_0":68
					},
					"indices":69,
					"material":0
				}
			]
		},
		{
			"name":"Scene Root_Kabel_G_Kabel_G-OFFSET_Kabel_G-GEODE_02 - Defaul.001",
			"primitives":[
				{
					"attributes":{
						"POSITION":70,
						"NORMAL":71,
						"TEXCOORD_0":72
					},
					"indices":73,
					"material":0
				}
			]
		},
		{
			"name":"Scene Root_KoncevoyRuk_1_KoncevoyRuk_1-GEODE_02 - Default_0.003",
			"primitives":[
				{
					"attributes":{
						"POSITION":74,
						"NORMAL":75,
						"TEXCOORD_0":76
					},
					"indices":77,
					"material":0
				}
			]
		},
		{
			"name":"Scene Root_KoncevoyRuk_2_KoncevoyRuk_2-GEODE_02 - Default_0.003",
			"primitives":[
				{
					"attributes":{
						"POSITION":78,
						"NORMAL":79,
						"TEXCOORD_0":80
					},
					"indices":77,
					"material":0
				}
			]
		},
		{
			"name":"Scene Root_Kronsht_gerlic_Kronsht_gerlic-GEODE_02 - Default_0",
			"primitives":[
				{
					"attributes":{
						"POSITION":81,
						"NORMAL":82,
						"TEXCOORD_0":83
					},
					"indices":84,
					"material":0
				}
			]
		},
		{
			"name":"Scene Root_LestnicaKrisha_LestnicaKrisha-GEODE_02 - Default.002",
			"primitives":[
				{
					"attributes":{
						"POSITION":85,
						"NORMAL":86,
						"TEXCOORD_0":87
					},
					"indices":88,
					"material":0
				}
			]
		},
		{
			"name":"Scene Root_MAB-II_MAB-II-GEODE_02 - Default_0.001",
			"primitives":[
				{
					"attributes":{
						"POSITION":89,
						"NORMAL":90,
						"TEXCOORD_0":91
					},
					"indices":92,
					"material":0
				}
			]
		},
		{
			"name":"Scene Root_Perehod_det_Perehod_det-GEODE_02 - Default_0.003",
			"primitives":[
				{
					"attributes":{
						"POSITION":93,
						"NORMAL":94,
						"TEXCOORD_0":95
					},
					"indices":69,
					"material":0
				}
			]
		},
		{
			"name":"Scene Root_PinchOFF_2_PinchOFF_2-OFFSET_PinchOFF_2-GEODE_02.002",
			"primitives":[
				{
					"attributes":{
						"POSITION":96,
						"NORMAL":97,
						"TEXCOORD_0":98
					},
					"indices":99,
					"material":0
				}
			]
		},
		{
			"name":"Scene Root_PinchON_PinchON-GEODE_02 - Default_0.003",
			"primitives":[
				{
					"attributes":{
						"POSITION":100,
						"NORMAL":101,
						"TEXCOORD_0":102
					},
					"indices":99,
					"material":0
				}
			]
		},
		{
			"name":"Scene Root_Podtambur_Podtambur-OFFSET_Podtambur-GEODE_02 - .002",
			"primitives":[
				{
					"attributes":{
						"POSITION":103,
						"NORMAL":104,
						"TEXCOORD_0":105
					},
					"indices":106,
					"material":0
				}
			]
		},
		{
			"name":"Scene Root_Podveska_ConcRuk_Podveska_ConcRuk-OFFSET_Podvesk.002",
			"primitives":[
				{
					"attributes":{
						"POSITION":107,
						"NORMAL":108,
						"TEXCOORD_0":109
					},
					"indices":110,
					"material":0
				}
			]
		},
		{
			"name":"Scene Root_Poruchny_ut_Poruchny_ut-GEODE_02 - Default_0.002",
			"primitives":[
				{
					"attributes":{
						"POSITION":111,
						"NORMAL":112,
						"TEXCOORD_0":113
					},
					"indices":114,
					"material":0
				}
			]
		},
		{
			"name":"Scene Root_PredohrKV_PredohrKV-OFFSET_PredohrKV-GEODE_02 - .001",
			"primitives":[
				{
					"attributes":{
						"POSITION":115,
						"NORMAL":116,
						"TEXCOORD_0":117
					},
					"indices":69,
					"material":0
				}
			]
		},
		{
			"name":"Scene Root_PredohrSkob_PredohrSkob-GEODE_02 - Default_0.003",
			"primitives":[
				{
					"attributes":{
						"POSITION":118,
						"NORMAL":119,
						"TEXCOORD_0":120
					},
					"indices":121,
					"material":0
				}
			]
		},
		{
			"name":"Scene Root_Rascep_Rascep-OFFSET_Rascep-GEODE_02 - Default_0.003",
			"primitives":[
				{
					"attributes":{
						"POSITION":122,
						"NORMAL":123,
						"TEXCOORD_0":124
					},
					"indices":125,
					"material":0
				}
			]
		},
		{
			"name":"Scene Root_RezinaPerehod_RezinaPerehod-GEODE_02 - Default_0.003",
			"primitives":[
				{
					"attributes":{
						"POSITION":126,
						"NORMAL":127,
						"TEXCOORD_0":128
					},
					"indices":129,
					"material":0
				}
			]
		},
		{
			"name":"Scene Root_RozetkiOT_RozetkiOT-OFFSET_RozetkiOT-GEODE_02 - .002",
			"primitives":[
				{
					"attributes":{
						"POSITION":130,
						"NORMAL":131,
						"TEXCOORD_0":132
					},
					"indices":133,
					"material":0
				}
			]
		},
		{
			"name":"Scene Root_SA-3-1_SA-3-1-OFFSET_SA-3-1-GEODE_02 - Default_0.003",
			"primitives":[
				{
					"attributes":{
						"POSITION":134,
						"NORMAL":135,
						"TEXCOORD_0":136
					},
					"indices":137,
					"material":0
				}
			]
		},
		{
			"name":"Scene Root_SA-3-2_SA-3-2-OFFSET_SA-3-2-GEODE_02 - Default_0.003",
			"primitives":[
				{
					"attributes":{
						"POSITION":138,
						"NORMAL":139,
						"TEXCOORD_0":140
					},
					"indices":137,
					"material":0
				}
			]
		},
		{
			"name":"Scene Root_Stupenky_Stupenky-OFFSET_Stupenky-GEODE_02 - Def.002",
			"primitives":[
				{
					"attributes":{
						"POSITION":141,
						"NORMAL":142,
						"TEXCOORD_0":143
					},
					"indices":144,
					"material":0
				}
			]
		},
		{
			"name":"Scene Root_TehLuk_TehLuk-GEODE_02 - Default_0.003",
			"primitives":[
				{
					"attributes":{
						"POSITION":145,
						"NORMAL":146,
						"TEXCOORD_0":147
					},
					"indices":148,
					"material":0
				}
			]
		},
		{
			"name":"Scene Root_TRP_TRP-OFFSET_TRP-GEODE_02 - Default_0.003",
			"primitives":[
				{
					"attributes":{
						"POSITION":149,
						"NORMAL":150,
						"TEXCOORD_0":151
					},
					"indices":152,
					"material":0
				}
			]
		},
		{
			"name":"Scene Root_Truby_kotla_Truby_kotla-GEODE_02 - Default_0.002",
			"primitives":[
				{
					"attributes":{
						"POSITION":153,
						"NORMAL":154,
						"TEXCOORD_0":155
					},
					"indices":156,
					"material":0
				}
			]
		},
		{
			"name":"Scene Root_Yashik_3000Kv_Yashik_3000Kv-OFFSET_Yashik_3000Kv.002",
			"primitives":[
				{
					"attributes":{
						"POSITION":157,
						"NORMAL":158,
						"TEXCOORD_0":159
					},
					"indices":110,
					"material":0
				}
			]
		},
		{
			"name":"Scene Root_Yashik_KU_Yashik_KU-OFFSET_Yashik_KU-GEODE_02 - .001",
			"primitives":[
				{
					"attributes":{
						"POSITION":160,
						"NORMAL":161,
						"TEXCOORD_0":162
					},
					"indices":163,
					"material":0
				}
			]
		},
		{
			"name":"Scene Root_Yashik_RSH_Yashik_RSH-OFFSET_Yashik_RSH-GEODE_02.001",
			"primitives":[
				{
					"attributes":{
						"POSITION":164,
						"NORMAL":165,
						"TEXCOORD_0":166
					},
					"indices":167,
					"material":0
				}
			]
		},
		{
			"name":"Scene Root_Yashik_VU_Yashik_VU-OFFSET_Yashik_VU-GEODE_02 - .001",
			"primitives":[
				{
					"attributes":{
						"POSITION":168,
						"NORMAL":169,
						"TEXCOORD_0":170
					},
					"indices":171,
					"material":0
				}
			]
		},
		{
			"name":"Scene Root_ZaglushkaPinch_ZaglushkaPinch-OFFSET_ZaglushkaPi.002",
			"primitives":[
				{
					"attributes":{
						"POSITION":172,
						"NORMAL":173,
						"TEXCOORD_0":174
					},
					"indices":175,
					"material":0
				}
			]
		}
	],
	"textures":[
		{
			"sampler":0,
			"source":0
		}
	],
	"images":[
		{
			"mimeType":"image/png",
			"name":"pass_rzd-17669.tga",
			"uri":"T_pass_rzd-17669/pass_rzd-17669_tga.png"
		}
	],
	"accessors":[
		{
			"bufferView":0,
			"componentType":5126,
			"count":852,
			"max":[
				1.5354000329971313,
				1.4895620346069336,
				-1.0672800540924072
			],
			"min":[
				-1.5354050397872925,
				0.7364169955253601,
				-6.131100177764893
			],
			"type":"VEC3"
		},
		{
			"bufferView":1,
			"componentType":5126,
			"count":852,
			"type":"VEC3"
		},
		{
			"bufferView":2,
			"componentType":5126,
			"count":852,
			"type":"VEC2"
		},
		{
			"bufferView":3,
			"componentType":5123,
			"count":852,
			"type":"SCALAR"
		},
		{
			"bufferView":4,
			"componentType":5126,
			"count":1494,
			"max":[
				0.5122040510177612,
				1.573762059211731,
				1.584704041481018
			],
			"min":[
				-1.1427420377731323,
				0.7761359810829163,
				-0.8995271921157837
			],
			"type":"VEC3"
		},
		{
			"bufferView":5,
			"componentType":5126,
			"count":1494,
			"type":"VEC3"
		},
		{
			"bufferView":6,
			"componentType":5126,
			"count":1494,
			"type":"VEC2"
		},
		{
			"bufferView":7,
			"componentType":5123,
			"count":1494,
			"type":"SCALAR"
		},
		{
			"bufferView":8,
			"componentType":5126,
			"count":981,
			"max":[
				1.5293200016021729,
				4.668553829193115,
				12.211299896240234
			],
			"min":[
				-1.529579997062683,
				1.1425739526748657,
				-12.211299896240234
			],
			"type":"VEC3"
		},
		{
			"bufferView":9,
			"componentType":5126,
			"count":981,
			"type":"VEC3"
		},
		{
			"bufferView":10,
			"componentType":5126,
			"count":981,
			"type":"VEC2"
		},
		{
			"bufferView":11,
			"componentType":5123,
			"count":981,
			"type":"SCALAR"
		},
		{
			"bufferView":12,
			"componentType":5126,
			"count":13764,
			"max":[
				1.594249963760376,
				1.3840199708938599,
				10.649849891662598
			],
			"min":[
				-1.594249963760376,
				0.5048949718475342,
				6.750150203704834
			],
			"type":"VEC3"
		},
		{
			"bufferView":13,
			"componentType":5126,
			"count":13764,
			"type":"VEC3"
		},
		{
			"bufferView":14,
			"componentType":5126,
			"count":13764,
			"type":"VEC2"
		},
		{
			"bufferView":15,
			"componentType":5123,
			"count":13764,
			"type":"SCALAR"
		},
		{
			"bufferView":16,
			"componentType":5126,
			"count":732,
			"max":[
				0.8516115546226501,
				0.5169913172721863,
				0.5090742111206055
			],
			"min":[
				-0.8508685231208801,
				-0.5168986916542053,
				-0.5091085433959961
			],
			"type":"VEC3"
		},
		{
			"bufferView":17,
			"componentType":5126,
			"count":732,
			"type":"VEC3"
		},
		{
			"bufferView":18,
			"componentType":5126,
			"count":732,
			"type":"VEC2"
		},
		{
			"bufferView":19,
			"componentType":5123,
			"count":732,
			"type":"SCALAR"
		},
		{
			"bufferView":20,
			"componentType":5126,
			"count":900,
			"max":[
				0.8516032695770264,
				0.5170027613639832,
				0.5090670585632324
			],
			"min":[
				-0.8508768081665039,
				-0.5168872475624084,
				-0.5091161727905273
			],
			"type":"VEC3"
		},
		{
			"bufferView":21,
			"componentType":5126,
			"count":900,
			"type":"VEC3"
		},
		{
			"bufferView":22,
			"componentType":5126,
			"count":900,
			"type":"VEC2"
		},
		{
			"bufferView":23,
			"componentType":5123,
			"count":900,
			"type":"SCALAR"
		},
		{
			"bufferView":24,
			"componentType":5126,
			"count":13248,
			"max":[
				1.594249963760376,
				1.3840199708938599,
				-6.750150203704834
			],
			"min":[
				-1.594249963760376,
				0.5048949718475342,
				-10.649849891662598
			],
			"type":"VEC3"
		},
		{
			"bufferView":25,
			"componentType":5126,
			"count":13248,
			"type":"VEC3"
		},
		{
			"bufferView":26,
			"componentType":5126,
			"count":13248,
			"type":"VEC2"
		},
		{
			"bufferView":27,
			"componentType":5123,
			"count":13248,
			"type":"SCALAR"
		},
		{
			"bufferView":28,
			"componentType":5126,
			"count":732,
			"max":[
				0.8516116738319397,
				0.516991376876831,
				0.5090756416320801
			],
			"min":[
				-0.8508684039115906,
				-0.5168986320495605,
				-0.5091075897216797
			],
			"type":"VEC3"
		},
		{
			"bufferView":29,
			"componentType":5126,
			"count":732,
			"type":"VEC3"
		},
		{
			"bufferView":30,
			"componentType":5126,
			"count":732,
			"type":"VEC2"
		},
		{
			"bufferView":31,
			"componentType":5126,
			"count":732,
			"max":[
				0.8516116142272949,
				0.5169914364814758,
				0.5090770721435547
			],
			"min":[
				-0.8508684635162354,
				-0.5168985724449158,
				-0.5091056823730469
			],
			"type":"VEC3"
		},
		{
			"bufferView":32,
			"componentType":5126,
			"count":732,
			"type":"VEC3"
		},
		{
			"bufferView":33,
			"componentType":5126,
			"count":732,
			"type":"VEC2"
		},
		{
			"bufferView":34,
			"componentType":5126,
			"count":936,
			"max":[
				0.3911975622177124,
				1.5060510635375977,
				5.602386951446533
			],
			"min":[
				-0.3894645571708679,
				0.5257970094680786,
				4.2470221519470215
			],
			"type":"VEC3"
		},
		{
			"bufferView":35,
			"componentType":5126,
			"count":936,
			"type":"VEC3"
		},
		{
			"bufferView":36,
			"componentType":5126,
			"count":936,
			"type":"VEC2"
		},
		{
			"bufferView":37,
			"componentType":5123,
			"count":936,
			"type":"SCALAR"
		},
		{
			"bufferView":38,
			"componentType":5126,
			"count":180,
			"max":[
				0.051952067762613297,
				0.7622392177581787,
				0.0625457912683487
			],
			"min":[
				-0.05199366435408592,
				-0.76332688331604,
				-0.06206914037466049
			],
			"type":"VEC3"
		},
		{
			"bufferView":39,
			"componentType":5126,
			"count":180,
			"type":"VEC3"
		},
		{
			"bufferView":40,
			"componentType":5126,
			"count":180,
			"type":"VEC2"
		},
		{
			"bufferView":41,
			"componentType":5123,
			"count":180,
			"type":"SCALAR"
		},
		{
			"bufferView":42,
			"componentType":5126,
			"count":132,
			"max":[
				0.12904441356658936,
				0.10319995880126953,
				0.1353898048400879
			],
			"min":[
				-0.12886156141757965,
				-0.07570505142211914,
				-0.13539016246795654
			],
			"type":"VEC3"
		},
		{
			"bufferView":43,
			"componentType":5126,
			"count":132,
			"type":"VEC3"
		},
		{
			"bufferView":44,
			"componentType":5126,
			"count":132,
			"type":"VEC2"
		},
		{
			"bufferView":45,
			"componentType":5123,
			"count":132,
			"type":"SCALAR"
		},
		{
			"bufferView":46,
			"componentType":5126,
			"count":2256,
			"max":[
				1.2317689657211304,
				1.5712900161743164,
				12.496600151062012
			],
			"min":[
				-1.231650948524475,
				1.1801600456237793,
				-12.496600151062012
			],
			"type":"VEC3"
		},
		{
			"bufferView":47,
			"componentType":5126,
			"count":2256,
			"type":"VEC3"
		},
		{
			"bufferView":48,
			"componentType":5126,
			"count":2256,
			"type":"VEC2"
		},
		{
			"bufferView":49,
			"componentType":5123,
			"count":2256,
			"type":"SCALAR"
		},
		{
			"bufferView":50,
			"componentType":5126,
			"count":144,
			"max":[
				1.44966721534729,
				1.4383509159088135,
				1.0458451509475708
			],
			"min":[
				-1.356812834739685,
				0.7951019406318665,
				0.9584810137748718
			],
			"type":"VEC3"
		},
		{
			"bufferView":51,
			"componentType":5126,
			"count":144,
			"type":"VEC3"
		},
		{
			"bufferView":52,
			"componentType":5126,
			"count":144,
			"type":"VEC2"
		},
		{
			"bufferView":53,
			"componentType":5123,
			"count":144,
			"type":"SCALAR"
		},
		{
			"bufferView":54,
			"componentType":5126,
			"count":252,
			"max":[
				-0.6658239960670471,
				4.694353103637695,
				10.639899253845215
			],
			"min":[
				-1.2851719856262207,
				4.414103984832764,
				-11.607992172241211
			],
			"type":"VEC3"
		},
		{
			"bufferView":55,
			"componentType":5126,
			"count":252,
			"type":"VEC3"
		},
		{
			"bufferView":56,
			"componentType":5126,
			"count":252,
			"type":"VEC2"
		},
		{
			"bufferView":57,
			"componentType":5123,
			"count":252,
			"type":"SCALAR"
		},
		{
			"bufferView":58,
			"componentType":5126,
			"count":36,
			"max":[
				-1.2139291763305664,
				1.5082844495773315,
				10.635552406311035
			],
			"min":[
				-1.4790308475494385,
				1.1806566715240479,
				10.454158782958984
			],
			"type":"VEC3"
		},
		{
			"bufferView":59,
			"componentType":5126,
			"count":36,
			"type":"VEC3"
		},
		{
			"bufferView":60,
			"componentType":5126,
			"count":36,
			"type":"VEC2"
		},
		{
			"bufferView":61,
			"componentType":5123,
			"count":36,
			"type":"SCALAR"
		},
		{
			"bufferView":62,
			"componentType":5126,
			"count":12,
			"max":[
				0.4108690023422241,
				2.2292540073394775,
				12.346199989318848
			],
			"min":[
				-0.4108709990978241,
				1.711893916130066,
				-12.346199989318848
			],
			"type":"VEC3"
		},
		{
			"bufferView":63,
			"componentType":5126,
			"count":12,
			"type":"VEC3"
		},
		{
			"bufferView":64,
			"componentType":5126,
			"count":12,
			"type":"VEC2"
		},
		{
			"bufferView":65,
			"componentType":5123,
			"count":12,
			"type":"SCALAR"
		},
		{
			"bufferView":66,
			"componentType":5126,
			"count":288,
			"max":[
				1.374709963798523,
				3.90228009223938,
				12.254500389099121
			],
			"min":[
				-1.374709963798523,
				1.9956799745559692,
				-12.254500389099121
			],
			"type":"VEC3"
		},
		{
			"bufferView":67,
			"componentType":5126,
			"count":288,
			"type":"VEC3"
		},
		{
			"bufferView":68,
			"componentType":5126,
			"count":288,
			"type":"VEC2"
		},
		{
			"bufferView":69,
			"componentType":5123,
			"count":288,
			"type":"SCALAR"
		},
		{
			"bufferView":70,
			"componentType":5126,
			"count":204,
			"max":[
				-0.1312084197998047,
				1.502845048904419,
				5.128117084503174
			],
			"min":[
				-0.7063539028167725,
				1.0498145818710327,
				3.652622938156128
			],
			"type":"VEC3"
		},
		{
			"bufferView":71,
			"componentType":5126,
			"count":204,
			"type":"VEC3"
		},
		{
			"bufferView":72,
			"componentType":5126,
			"count":204,
			"type":"VEC2"
		},
		{
			"bufferView":73,
			"componentType":5123,
			"count":204,
			"type":"SCALAR"
		},
		{
			"bufferView":74,
			"componentType":5126,
			"count":636,
			"max":[
				0.4727019965648651,
				1.316033959388733,
				12.563699722290039
			],
			"min":[
				-0.06939209997653961,
				0.6859180331230164,
				9.935600280761719
			],
			"type":"VEC3"
		},
		{
			"bufferView":75,
			"componentType":5126,
			"count":636,
			"type":"VEC3"
		},
		{
			"bufferView":76,
			"componentType":5126,
			"count":636,
			"type":"VEC2"
		},
		{
			"bufferView":77,
			"componentType":5123,
			"count":636,
			"type":"SCALAR"
		},
		{
			"bufferView":78,
			"componentType":5126,
			"count":636,
			"max":[
				0.0693902000784874,
				1.316033959388733,
				-9.935600280761719
			],
			"min":[
				-0.4727030098438263,
				0.6859180331230164,
				-12.563699722290039
			],
			"type":"VEC3"
		},
		{
			"bufferView":79,
			"componentType":5126,
			"count":636,
			"type":"VEC3"
		},
		{
			"bufferView":80,
			"componentType":5126,
			"count":636,
			"type":"VEC2"
		},
		{
			"bufferView":81,
			"componentType":5126,
			"count":456,
			"max":[
				1.4763652086257935,
				1.4138344526290894,
				10.885034561157227
			],
			"min":[
				-1.476814866065979,
				1.2949851751327515,
				-10.885364532470703
			],
			"type":"VEC3"
		},
		{
			"bufferView":82,
			"componentType":5126,
			"count":456,
			"type":"VEC3"
		},
		{
			"bufferView":83,
			"componentType":5126,
			"count":456,
			"type":"VEC2"
		},
		{
			"bufferView":84,
			"componentType":5123,
			"count":456,
			"type":"SCALAR"
		},
		{
			"bufferView":85,
			"componentType":5126,
			"count":1020,
			"max":[
				1.4115300178527832,
				4.744810104370117,
				12.332200050354004
			],
			"min":[
				-1.4115300178527832,
				1.5372300148010254,
				-12.332200050354004
			],
			"type":"VEC3"
		},
		{
			"bufferView":86,
			"componentType":5126,
			"count":1020,
			"type":"VEC3"
		},
		{
			"bufferView":87,
			"componentType":5126,
			"count":1020,
			"type":"VEC2"
		},
		{
			"bufferView":88,
			"componentType":5123,
			"count":1020,
			"type":"SCALAR"
		},
		{
			"bufferView":89,
			"componentType":5126,
			"count":2529,
			"max":[
				1.4951659440994263,
				1.459818959236145,
				3.4453399181365967
			],
			"min":[
				-0.8403699994087219,
				0.5739079713821411,
				-0.922249972820282
			],
			"type":"VEC3"
		},
		{
			"bufferView":90,
			"componentType":5126,
			"count":2529,
			"type":"VEC3"
		},
		{
			"bufferView":91,
			"componentType":5126,
			"count":2529,
			"type":"VEC2"
		},
		{
			"bufferView":92,
			"componentType":5123,
			"count":2529,
			"type":"SCALAR"
		},
		{
			"bufferView":93,
			"componentType":5126,
			"count":288,
			"max":[
				0.4973732531070709,
				3.6603100299835205,
				12.203399658203125
			],
			"min":[
				-0.4972767233848572,
				2.641319990158081,
				-12.203399658203125
			],
			"type":"VEC3"
		},
		{
			"bufferView":94,
			"componentType":5126,
			"count":288,
			"type":"VEC3"
		},
		{
			"bufferView":95,
			"componentType":5126,
			"count":288,
			"type":"VEC2"
		},
		{
			"bufferView":96,
			"componentType":5126,
			"count":306,
			"max":[
				-0.8865818381309509,
				1.8667739629745483,
				-12.071200370788574
			],
			"min":[
				-1.3628119230270386,
				0.7449060082435608,
				-12.34529972076416
			],
			"type":"VEC3"
		},
		{
			"bufferView":97,
			"componentType":5126,
			"count":306,
			"type":"VEC3"
		},
		{
			"bufferView":98,
			"componentType":5126,
			"count":306,
			"type":"VEC2"
		},
		{
			"bufferView":99,
			"componentType":5123,
			"count":306,
			"type":"SCALAR"
		},
		{
			"bufferView":100,
			"componentType":5126,
			"count":306,
			"max":[
				0.9251142144203186,
				1.089877963066101,
				12.883536338806152
			],
			"min":[
				0.7872790098190308,
				0.569514811038971,
				12.07115364074707
			],
			"type":"VEC3"
		},
		{
			"bufferView":101,
			"componentType":5126,
			"count":306,
			"type":"VEC3"
		},
		{
			"bufferView":102,
			"componentType":5126,
			"count":306,
			"type":"VEC2"
		},
		{
			"bufferView":103,
			"componentType":5126,
			"count":528,
			"max":[
				1.5294500589370728,
				1.6292239427566528,
				11.928400039672852
			],
			"min":[
				-1.5288900136947632,
				1.4137539863586426,
				-11.928400039672852
			],
			"type":"VEC3"
		},
		{
			"bufferView":104,
			"componentType":5126,
			"count":528,
			"type":"VEC3"
		},
		{
			"bufferView":105,
			"componentType":5126,
			"count":528,
			"type":"VEC2"
		},
		{
			"bufferView":106,
			"componentType":5123,
			"count":528,
			"type":"SCALAR"
		},
		{
			"bufferView":107,
			"componentType":5126,
			"count":24,
			"max":[
				0.0971062034368515,
				1.3041839599609375,
				11.900899887084961
			],
			"min":[
				-0.09710799902677536,
				0.6608280539512634,
				-11.900899887084961
			],
			"type":"VEC3"
		},
		{
			"bufferView":108,
			"componentType":5126,
			"count":24,
			"type":"VEC3"
		},
		{
			"bufferView":109,
			"componentType":5126,
			"count":24,
			"type":"VEC2"
		},
		{
			"bufferView":110,
			"componentType":5123,
			"count":24,
			"type":"SCALAR"
		},
		{
			"bufferView":111,
			"componentType":5126,
			"count":2016,
			"max":[
				1.5691584348678589,
				2.9952540397644043,
				12.07610034942627
			],
			"min":[
				-1.5687614679336548,
				1.705746054649353,
				-12.07610034942627
			],
			"type":"VEC3"
		},
		{
			"bufferView":112,
			"componentType":5126,
			"count":2016,
			"type":"VEC3"
		},
		{
			"bufferView":113,
			"componentType":5126,
			"count":2016,
			"type":"VEC2"
		},
		{
			"bufferView":114,
			"componentType":5123,
			"count":2016,
			"type":"SCALAR"
		},
		{
			"bufferView":115,
			"componentType":5126,
			"count":288,
			"max":[
				0.327908992767334,
				1.5002527236938477,
				6.52546501159668
			],
			"min":[
				-0.3258621394634247,
				0.5519877672195435,
				5.749654293060303
			],
			"type":"VEC3"
		},
		{
			"bufferView":116,
			"componentType":5126,
			"count":288,
			"type":"VEC3"
		},
		{
			"bufferView":117,
			"componentType":5126,
			"count":288,
			"type":"VEC2"
		},
		{
			"bufferView":118,
			"componentType":5126,
			"count":216,
			"max":[
				0.6742200255393982,
				1.511240005493164,
				6.547369956970215
			],
			"min":[
				-0.6876260042190552,
				1.2046699523925781,
				-6.5474700927734375
			],
			"type":"VEC3"
		},
		{
			"bufferView":119,
			"componentType":5126,
			"count":216,
			"type":"VEC3"
		},
		{
			"bufferView":120,
			"componentType":5126,
			"count":216,
			"type":"VEC2"
		},
		{
			"bufferView":121,
			"componentType":5123,
			"count":216,
			"type":"SCALAR"
		},
		{
			"bufferView":122,
			"componentType":5126,
			"count":786,
			"max":[
				1.3588299751281738,
				1.3531140089035034,
				12.365400314331055
			],
			"min":[
				-1.3588299751281738,
				0.7585240006446838,
				-12.365400314331055
			],
			"type":"VEC3"
		},
		{
			"bufferView":123,
			"componentType":5126,
			"count":786,
			"type":"VEC3"
		},
		{
			"bufferView":124,
			"componentType":5126,
			"count":786,
			"type":"VEC2"
		},
		{
			"bufferView":125,
			"componentType":5123,
			"count":786,
			"type":"SCALAR"
		},
		{
			"bufferView":126,
			"componentType":5126,
			"count":408,
			"max":[
				0.8905868530273438,
				4.101940155029297,
				12.505800247192383
			],
			"min":[
				-0.8900181651115417,
				1.7067099809646606,
				-12.505800247192383
			],
			"type":"VEC3"
		},
		{
			"bufferView":127,
			"componentType":5126,
			"count":408,
			"type":"VEC3"
		},
		{
			"bufferView":128,
			"componentType":5126,
			"count":408,
			"type":"VEC2"
		},
		{
			"bufferView":129,
			"componentType":5123,
			"count":408,
			"type":"SCALAR"
		},
		{
			"bufferView":130,
			"componentType":5126,
			"count":558,
			"max":[
				0.9393069744110107,
				1.5105040073394775,
				12.14579963684082
			],
			"min":[
				-0.9393090009689331,
				0.9768270254135132,
				-12.14579963684082
			],
			"type":"VEC3"
		},
		{
			"bufferView":131,
			"componentType":5126,
			"count":558,
			"type":"VEC3"
		},
		{
			"bufferView":132,
			"componentType":5126,
			"count":558,
			"type":"VEC2"
		},
		{
			"bufferView":133,
			"componentType":5123,
			"count":558,
			"type":"SCALAR"
		},
		{
			"bufferView":134,
			"componentType":5126,
			"count":606,
			"max":[
				0.2796057164669037,
				1.5994269847869873,
				12.63521957397461
			],
			"min":[
				-0.26976561546325684,
				1.145745038986206,
				11.662010192871094
			],
			"type":"VEC3"
		},
		{
			"bufferView":135,
			"componentType":5126,
			"count":606,
			"type":"VEC3"
		},
		{
			"bufferView":136,
			"componentType":5126,
			"count":606,
			"type":"VEC2"
		},
		{
			"bufferView":137,
			"componentType":5123,
			"count":606,
			"type":"SCALAR"
		},
		{
			"bufferView":138,
			"componentType":5126,
			"count":606,
			"max":[
				0.2697637975215912,
				1.5994269847869873,
				-11.662010192871094
			],
			"min":[
				-0.2796076238155365,
				1.145745038986206,
				-12.63521957397461
			],
			"type":"VEC3"
		},
		{
			"bufferView":139,
			"componentType":5126,
			"count":606,
			"type":"VEC3"
		},
		{
			"bufferView":140,
			"componentType":5126,
			"count":606,
			"type":"VEC2"
		},
		{
			"bufferView":141,
			"componentType":5126,
			"count":756,
			"max":[
				1.5850199460983276,
				1.5033040046691895,
				11.95479965209961
			],
			"min":[
				-1.5850199460983276,
				0.7619380354881287,
				-11.92080020904541
			],
			"type":"VEC3"
		},
		{
			"bufferView":142,
			"componentType":5126,
			"count":756,
			"type":"VEC3"
		},
		{
			"bufferView":143,
			"componentType":5126,
			"count":756,
			"type":"VEC2"
		},
		{
			"bufferView":144,
			"componentType":5123,
			"count":756,
			"type":"SCALAR"
		},
		{
			"bufferView":145,
			"componentType":5126,
			"count":168,
			"max":[
				0.7940530180931091,
				4.707910060882568,
				11.96090030670166
			],
			"min":[
				-0.808555006980896,
				4.581600189208984,
				-11.958600044250488
			],
			"type":"VEC3"
		},
		{
			"bufferView":146,
			"componentType":5126,
			"count":168,
			"type":"VEC3"
		},
		{
			"bufferView":147,
			"componentType":5126,
			"count":168,
			"type":"VEC2"
		},
		{
			"bufferView":148,
			"componentType":5123,
			"count":168,
			"type":"SCALAR"
		},
		{
			"bufferView":149,
			"componentType":5126,
			"count":354,
			"max":[
				0.6804669499397278,
				1.5175399780273438,
				7.133760929107666
			],
			"min":[
				-0.6804659962654114,
				1.187056064605713,
				-7.143208980560303
			],
			"type":"VEC3"
		},
		{
			"bufferView":150,
			"componentType":5126,
			"count":354,
			"type":"VEC3"
		},
		{
			"bufferView":151,
			"componentType":5126,
			"count":354,
			"type":"VEC2"
		},
		{
			"bufferView":152,
			"componentType":5123,
			"count":354,
			"type":"SCALAR"
		},
		{
			"bufferView":153,
			"componentType":5126,
			"count":561,
			"max":[
				1.400681972503662,
				4.872683048248291,
				10.734602928161621
			],
			"min":[
				0.6661980152130127,
				4.396477222442627,
				8.925498008728027
			],
			"type":"VEC3"
		},
		{
			"bufferView":154,
			"componentType":5126,
			"count":561,
			"type":"VEC3"
		},
		{
			"bufferView":155,
			"componentType":5126,
			"count":561,
			"type":"VEC2"
		},
		{
			"bufferView":156,
			"componentType":5123,
			"count":561,
			"type":"SCALAR"
		},
		{
			"bufferView":157,
			"componentType":5126,
			"count":24,
			"max":[
				1.3692959547042847,
				1.4482041597366333,
				6.017881870269775
			],
			"min":[
				0.834443986415863,
				0.6926159858703613,
				5.029397487640381
			],
			"type":"VEC3"
		},
		{
			"bufferView":158,
			"componentType":5126,
			"count":24,
			"type":"VEC3"
		},
		{
			"bufferView":159,
			"componentType":5126,
			"count":24,
			"type":"VEC2"
		},
		{
			"bufferView":160,
			"componentType":5126,
			"count":72,
			"max":[
				-0.7926373481750488,
				1.4475598335266113,
				2.833768367767334
			],
			"min":[
				-1.3613626956939697,
				0.7353065609931946,
				1.6917552947998047
			],
			"type":"VEC3"
		},
		{
			"bufferView":161,
			"componentType":5126,
			"count":72,
			"type":"VEC3"
		},
		{
			"bufferView":162,
			"componentType":5126,
			"count":72,
			"type":"VEC2"
		},
		{
			"bufferView":163,
			"componentType":5123,
			"count":72,
			"type":"SCALAR"
		},
		{
			"bufferView":164,
			"componentType":5126,
			"count":816,
			"max":[
				-0.795212984085083,
				1.5072461366653442,
				7.024940013885498
			],
			"min":[
				-1.4192670583724976,
				0.6919142007827759,
				4.069827079772949
			],
			"type":"VEC3"
		},
		{
			"bufferView":165,
			"componentType":5126,
			"count":816,
			"type":"VEC3"
		},
		{
			"bufferView":166,
			"componentType":5126,
			"count":816,
			"type":"VEC2"
		},
		{
			"bufferView":167,
			"componentType":5123,
			"count":816,
			"type":"SCALAR"
		},
		{
			"bufferView":168,
			"componentType":5126,
			"count":60,
			"max":[
				-0.8412835597991943,
				1.448203682899475,
				4.132494926452637
			],
			"min":[
				-1.4194961786270142,
				0.692615807056427,
				2.862365245819092
			],
			"type":"VEC3"
		},
		{
			"bufferView":169,
			"componentType":5126,
			"count":60,
			"type":"VEC3"
		},
		{
			"bufferView":170,
			"componentType":5126,
			"count":60,
			"type":"VEC2"
		},
		{
			"bufferView":171,
			"componentType":5123,
			"count":60,
			"type":"SCALAR"
		},
		{
			"bufferView":172,
			"componentType":5126,
			"count":696,
			"max":[
				1.419619083404541,
				2.1247599124908447,
				12.427102088928223
			],
			"min":[
				-1.4196245670318604,
				1.8553400039672852,
				-12.427080154418945
			],
			"type":"VEC3"
		},
		{
			"bufferView":173,
			"componentType":5126,
			"count":696,
			"type":"VEC3"
		},
		{
			"bufferView":174,
			"componentType":5126,
			"count":696,
			"type":"VEC2"
		},
		{
			"bufferView":175,
			"componentType":5123,
			"count":696,
			"type":"SCALAR"
		}
	],
	"bufferViews":[
		{
			"buffer":0,
			"byteLength":10224,
			"byteOffset":0,
			"target":34962
		},
		{
			"buffer":0,
			"byteLength":10224,
			"byteOffset":10224,
			"target":34962
		},
		{
			"buffer":0,
			"byteLength":6816,
			"byteOffset":20448,
			"target":34962
		},
		{
			"buffer":0,
			"byteLength":1704,
			"byteOffset":27264,
			"target":34963
		},
		{
			"buffer":0,
			"byteLength":17928,
			"byteOffset":28968,
			"target":34962
		},
		{
			"buffer":0,
			"byteLength":17928,
			"byteOffset":46896,
			"target":34962
		},
		{
			"buffer":0,
			"byteLength":11952,
			"byteOffset":64824,
			"target":34962
		},
		{
			"buffer":0,
			"byteLength":2988,
			"byteOffset":76776,
			"target":34963
		},
		{
			"buffer":0,
			"byteLength":11772,
			"byteOffset":79764,
			"target":34962
		},
		{
			"buffer":0,
			"byteLength":11772,
			"byteOffset":91536,
			"target":34962
		},
		{
			"buffer":0,
			"byteLength":7848,
			"byteOffset":103308,
			"target":34962
		},
		{
			"buffer":0,
			"byteLength":1962,
			"byteOffset":111156,
			"target":34963
		},
		{
			"buffer":0,
			"byteLength":165168,
			"byteOffset":113120,
			"target":34962
		},
		{
			"buffer":0,
			"byteLength":165168,
			"byteOffset":278288,
			"target":34962
		},
		{
			"buffer":0,
			"byteLength":110112,
			"byteOffset":443456,
			"target":34962
		},
		{
			"buffer":0,
			"byteLength":27528,
			"byteOffset":553568,
			"target":34963
		},
		{
			"buffer":0,
			"byteLength":8784,
			"byteOffset":581096,
			"target":34962
		},
		{
			"buffer":0,
			"byteLength":8784,
			"byteOffset":589880,
			"target":34962
		},
		{
			"buffer":0,
			"byteLength":5856,
			"byteOffset":598664,
			"target":34962
		},
		{
			"buffer":0,
			"byteLength":1464,
			"byteOffset":604520,
			"target":34963
		},
		{
			"buffer":0,
			"byteLength":10800,
			"byteOffset":605984,
			"target":34962
		},
		{
			"buffer":0,
			"byteLength":10800,
			"byteOffset":616784,
			"target":34962
		},
		{
			"buffer":0,
			"byteLength":7200,
			"byteOffset":627584,
			"target":34962
		},
		{
			"buffer":0,
			"byteLength":1800,
			"byteOffset":634784,
			"target":34963
		},
		{
			"buffer":0,
			"byteLength":158976,
			"byteOffset":636584,
			"target":34962
		},
		{
			"buffer":0,
			"byteLength":158976,
			"byteOffset":795560,
			"target":34962
		},
		{
			"buffer":0,
			"byteLength":105984,
			"byteOffset":954536,
			"target":34962
		},
		{
			"buffer":0,
			"byteLength":26496,
			"byteOffset":1060520,
			"target":34963
		},
		{
			"buffer":0,
			"byteLength":8784,
			"byteOffset":1087016,
			"target":34962
		},
		{
			"buffer":0,
			"byteLength":8784,
			"byteOffset":1095800,
			"target":34962
		},
		{
			"buffer":0,
			"byteLength":5856,
			"byteOffset":1104584,
			"target":34962
		},
		{
			"buffer":0,
			"byteLength":8784,
			"byteOffset":1110440,
			"target":34962
		},
		{
			"buffer":0,
			"byteLength":8784,
			"byteOffset":1119224,
			"target":34962
		},
		{
			"buffer":0,
			"byteLength":5856,
			"byteOffset":1128008,
			"target":34962
		},
		{
			"buffer":0,
			"byteLength":11232,
			"byteOffset":1133864,
			"target":34962
		},
		{
			"buffer":0,
			"byteLength":11232,
			"byteOffset":1145096,
			"target":34962
		},
		{
			"buffer":0,
			"byteLength":7488,
			"byteOffset":1156328,
			"target":34962
		},
		{
			"buffer":0,
			"byteLength":1872,
			"byteOffset":1163816,
			"target":34963
		},
		{
			"buffer":0,
			"byteLength":2160,
			"byteOffset":1165688,
			"target":34962
		},
		{
			"buffer":0,
			"byteLength":2160,
			"byteOffset":1167848,
			"target":34962
		},
		{
			"buffer":0,
			"byteLength":1440,
			"byteOffset":1170008,
			"target":34962
		},
		{
			"buffer":0,
			"byteLength":360,
			"byteOffset":1171448,
			"target":34963
		},
		{
			"buffer":0,
			"byteLength":1584,
			"byteOffset":1171808,
			"target":34962
		},
		{
			"buffer":0,
			"byteLength":1584,
			"byteOffset":1173392,
			"target":34962
		},
		{
			"buffer":0,
			"byteLength":1056,
			"byteOffset":1174976,
			"target":34962
		},
		{
			"buffer":0,
			"byteLength":264,
			"byteOffset":1176032,
			"target":34963
		},
		{
			"buffer":0,
			"byteLength":27072,
			"byteOffset":1176296,
			"target":34962
		},
		{
			"buffer":0,
			"byteLength":27072,
			"byteOffset":1203368,
			"target":34962
		},
		{
			"buffer":0,
			"byteLength":18048,
			"byteOffset":1230440,
			"target":34962
		},
		{
			"buffer":0,
			"byteLength":4512,
			"byteOffset":1248488,
			"target":34963
		},
		{
			"buffer":0,
			"byteLength":1728,
			"byteOffset":1253000,
			"target":34962
		},
		{
			"buffer":0,
			"byteLength":1728,
			"byteOffset":1254728,
			"target":34962
		},
		{
			"buffer":0,
			"byteLength":1152,
			"byteOffset":1256456,
			"target":34962
		},
		{
			"buffer":0,
			"byteLength":288,
			"byteOffset":1257608,
			"target":34963
		},
		{
			"buffer":0,
			"byteLength":3024,
			"byteOffset":1257896,
			"target":34962
		},
		{
			"buffer":0,
			"byteLength":3024,
			"byteOffset":1260920,
			"target":34962
		},
		{
			"buffer":0,
			"byteLength":2016,
			"byteOffset":1263944,
			"target":34962
		},
		{
			"buffer":0,
			"byteLength":504,
			"byteOffset":1265960,
			"target":34963
		},
		{
			"buffer":0,
			"byteLength":432,
			"byteOffset":1266464,
			"target":34962
		},
		{
			"buffer":0,
			"byteLength":432,
			"byteOffset":1266896,
			"target":34962
		},
		{
			"buffer":0,
			"byteLength":288,
			"byteOffset":1267328,
			"target":34962
		},
		{
			"buffer":0,
			"byteLength":72,
			"byteOffset":1267616,
			"target":34963
		},
		{
			"buffer":0,
			"byteLength":144,
			"byteOffset":1267688,
			"target":34962
		},
		{
			"buffer":0,
			"byteLength":144,
			"byteOffset":1267832,
			"target":34962
		},
		{
			"buffer":0,
			"byteLength":96,
			"byteOffset":1267976,
			"target":34962
		},
		{
			"buffer":0,
			"byteLength":24,
			"byteOffset":1268072,
			"target":34963
		},
		{
			"buffer":0,
			"byteLength":3456,
			"byteOffset":1268096,
			"target":34962
		},
		{
			"buffer":0,
			"byteLength":3456,
			"byteOffset":1271552,
			"target":34962
		},
		{
			"buffer":0,
			"byteLength":2304,
			"byteOffset":1275008,
			"target":34962
		},
		{
			"buffer":0,
			"byteLength":576,
			"byteOffset":1277312,
			"target":34963
		},
		{
			"buffer":0,
			"byteLength":2448,
			"byteOffset":1277888,
			"target":34962
		},
		{
			"buffer":0,
			"byteLength":2448,
			"byteOffset":1280336,
			"target":34962
		},
		{
			"buffer":0,
			"byteLength":1632,
			"byteOffset":1282784,
			"target":34962
		},
		{
			"buffer":0,
			"byteLength":408,
			"byteOffset":1284416,
			"target":34963
		},
		{
			"buffer":0,
			"byteLength":7632,
			"byteOffset":1284824,
			"target":34962
		},
		{
			"buffer":0,
			"byteLength":7632,
			"byteOffset":1292456,
			"target":34962
		},
		{
			"buffer":0,
			"byteLength":5088,
			"byteOffset":1300088,
			"target":34962
		},
		{
			"buffer":0,
			"byteLength":1272,
			"byteOffset":1305176,
			"target":34963
		},
		{
			"buffer":0,
			"byteLength":7632,
			"byteOffset":1306448,
			"target":34962
		},
		{
			"buffer":0,
			"byteLength":7632,
			"byteOffset":1314080,
			"target":34962
		},
		{
			"buffer":0,
			"byteLength":5088,
			"byteOffset":1321712,
			"target":34962
		},
		{
			"buffer":0,
			"byteLength":5472,
			"byteOffset":1326800,
			"target":34962
		},
		{
			"buffer":0,
			"byteLength":5472,
			"byteOffset":1332272,
			"target":34962
		},
		{
			"buffer":0,
			"byteLength":3648,
			"byteOffset":1337744,
			"target":34962
		},
		{
			"buffer":0,
			"byteLength":912,
			"byteOffset":1341392,
			"target":34963
		},
		{
			"buffer":0,
			"byteLength":12240,
			"byteOffset":1342304,
			"target":34962
		},
		{
			"buffer":0,
			"byteLength":12240,
			"byteOffset":1354544,
			"target":34962
		},
		{
			"buffer":0,
			"byteLength":8160,
			"byteOffset":1366784,
			"target":34962
		},
		{
			"buffer":0,
			"byteLength":2040,
			"byteOffset":1374944,
			"target":34963
		},
		{
			"buffer":0,
			"byteLength":30348,
			"byteOffset":1376984,
			"target":34962
		},
		{
			"buffer":0,
			"byteLength":30348,
			"byteOffset":1407332,
			"target":34962
		},
		{
			"buffer":0,
			"byteLength":20232,
			"byteOffset":1437680,
			"target":34962
		},
		{
			"buffer":0,
			"byteLength":5058,
			"byteOffset":1457912,
			"target":34963
		},
		{
			"buffer":0,
			"byteLength":3456,
			"byteOffset":1462972,
			"target":34962
		},
		{
			"buffer":0,
			"byteLength":3456,
			"byteOffset":1466428,
			"target":34962
		},
		{
			"buffer":0,
			"byteLength":2304,
			"byteOffset":1469884,
			"target":34962
		},
		{
			"buffer":0,
			"byteLength":3672,
			"byteOffset":1472188,
			"target":34962
		},
		{
			"buffer":0,
			"byteLength":3672,
			"byteOffset":1475860,
			"target":34962
		},
		{
			"buffer":0,
			"byteLength":2448,
			"byteOffset":1479532,
			"target":34962
		},
		{
			"buffer":0,
			"byteLength":612,
			"byteOffset":1481980,
			"target":34963
		},
		{
			"buffer":0,
			"byteLength":3672,
			"byteOffset":1482592,
			"target":34962
		},
		{
			"buffer":0,
			"byteLength":3672,
			"byteOffset":1486264,
			"target":34962
		},
		{
			"buffer":0,
			"byteLength":2448,
			"byteOffset":1489936,
			"target":34962
		},
		{
			"buffer":0,
			"byteLength":6336,
			"byteOffset":1492384,
			"target":34962
		},
		{
			"buffer":0,
			"byteLength":6336,
			"byteOffset":1498720,
			"target":34962
		},
		{
			"buffer":0,
			"byteLength":4224,
			"byteOffset":1505056,
			"target":34962
		},
		{
			"buffer":0,
			"byteLength":1056,
			"byteOffset":1509280,
			"target":34963
		},
		{
			"buffer":0,
			"byteLength":288,
			"byteOffset":1510336,
			"target":34962
		},
		{
			"buffer":0,
			"byteLength":288,
			"byteOffset":1510624,
			"target":34962
		},
		{
			"buffer":0,
			"byteLength":192,
			"byteOffset":1510912,
			"target":34962
		},
		{
			"buffer":0,
			"byteLength":48,
			"byteOffset":1511104,
			"target":34963
		},
		{
			"buffer":0,
			"byteLength":24192,
			"byteOffset":1511152,
			"target":34962
		},
		{
			"buffer":0,
			"byteLength":24192,
			"byteOffset":1535344,
			"target":34962
		},
		{
			"buffer":0,
			"byteLength":16128,
			"byteOffset":1559536,
			"target":34962
		},
		{
			"buffer":0,
			"byteLength":4032,
			"byteOffset":1575664,
			"target":34963
		},
		{
			"buffer":0,
			"byteLength":3456,
			"byteOffset":1579696,
			"target":34962
		},
		{
			"buffer":0,
			"byteLength":3456,
			"byteOffset":1583152,
			"target":34962
		},
		{
			"buffer":0,
			"byteLength":2304,
			"byteOffset":1586608,
			"target":34962
		},
		{
			"buffer":0,
			"byteLength":2592,
			"byteOffset":1588912,
			"target":34962
		},
		{
			"buffer":0,
			"byteLength":2592,
			"byteOffset":1591504,
			"target":34962
		},
		{
			"buffer":0,
			"byteLength":1728,
			"byteOffset":1594096,
			"target":34962
		},
		{
			"buffer":0,
			"byteLength":432,
			"byteOffset":1595824,
			"target":34963
		},
		{
			"buffer":0,
			"byteLength":9432,
			"byteOffset":1596256,
			"target":34962
		},
		{
			"buffer":0,
			"byteLength":9432,
			"byteOffset":1605688,
			"target":34962
		},
		{
			"buffer":0,
			"byteLength":6288,
			"byteOffset":1615120,
			"target":34962
		},
		{
			"buffer":0,
			"byteLength":1572,
			"byteOffset":1621408,
			"target":34963
		},
		{
			"buffer":0,
			"byteLength":4896,
			"byteOffset":1622980,
			"target":34962
		},
		{
			"buffer":0,
			"byteLength":4896,
			"byteOffset":1627876,
			"target":34962
		},
		{
			"buffer":0,
			"byteLength":3264,
			"byteOffset":1632772,
			"target":34962
		},
		{
			"buffer":0,
			"byteLength":816,
			"byteOffset":1636036,
			"target":34963
		},
		{
			"buffer":0,
			"byteLength":6696,
			"byteOffset":1636852,
			"target":34962
		},
		{
			"buffer":0,
			"byteLength":6696,
			"byteOffset":1643548,
			"target":34962
		},
		{
			"buffer":0,
			"byteLength":4464,
			"byteOffset":1650244,
			"target":34962
		},
		{
			"buffer":0,
			"byteLength":1116,
			"byteOffset":1654708,
			"target":34963
		},
		{
			"buffer":0,
			"byteLength":7272,
			"byteOffset":1655824,
			"target":34962
		},
		{
			"buffer":0,
			"byteLength":7272,
			"byteOffset":1663096,
			"target":34962
		},
		{
			"buffer":0,
			"byteLength":4848,
			"byteOffset":1670368,
			"target":34962
		},
		{
			"buffer":0,
			"byteLength":1212,
			"byteOffset":1675216,
			"target":34963
		},
		{
			"buffer":0,
			"byteLength":7272,
			"byteOffset":1676428,
			"target":34962
		},
		{
			"buffer":0,
			"byteLength":7272,
			"byteOffset":1683700,
			"target":34962
		},
		{
			"buffer":0,
			"byteLength":4848,
			"byteOffset":1690972,
			"target":34962
		},
		{
			"buffer":0,
			"byteLength":9072,
			"byteOffset":1695820,
			"target":34962
		},
		{
			"buffer":0,
			"byteLength":9072,
			"byteOffset":1704892,
			"target":34962
		},
		{
			"buffer":0,
			"byteLength":6048,
			"byteOffset":1713964,
			"target":34962
		},
		{
			"buffer":0,
			"byteLength":1512,
			"byteOffset":1720012,
			"target":34963
		},
		{
			"buffer":0,
			"byteLength":2016,
			"byteOffset":1721524,
			"target":34962
		},
		{
			"buffer":0,
			"byteLength":2016,
			"byteOffset":1723540,
			"target":34962
		},
		{
			"buffer":0,
			"byteLength":1344,
			"byteOffset":1725556,
			"target":34962
		},
		{
			"buffer":0,
			"byteLength":336,
			"byteOffset":1726900,
			"target":34963
		},
		{
			"buffer":0,
			"byteLength":4248,
			"byteOffset":1727236,
			"target":34962
		},
		{
			"buffer":0,
			"byteLength":4248,
			"byteOffset":1731484,
			"target":34962
		},
		{
			"buffer":0,
			"byteLength":2832,
			"byteOffset":1735732,
			"target":34962
		},
		{
			"buffer":0,
			"byteLength":708,
			"byteOffset":1738564,
			"target":34963
		},
		{
			"buffer":0,
			"byteLength":6732,
			"byteOffset":1739272,
			"target":34962
		},
		{
			"buffer":0,
			"byteLength":6732,
			"byteOffset":1746004,
			"target":34962
		},
		{
			"buffer":0,
			"byteLength":4488,
			"byteOffset":1752736,
			"target":34962
		},
		{
			"buffer":0,
			"byteLength":1122,
			"byteOffset":1757224,
			"target":34963
		},
		{
			"buffer":0,
			"byteLength":288,
			"byteOffset":1758348,
			"target":34962
		},
		{
			"buffer":0,
			"byteLength":288,
			"byteOffset":1758636,
			"target":34962
		},
		{
			"buffer":0,
			"byteLength":192,
			"byteOffset":1758924,
			"target":34962
		},
		{
			"buffer":0,
			"byteLength":864,
			"byteOffset":1759116,
			"target":34962
		},
		{
			"buffer":0,
			"byteLength":864,
			"byteOffset":1759980,
			"target":34962
		},
		{
			"buffer":0,
			"byteLength":576,
			"byteOffset":1760844,
			"target":34962
		},
		{
			"buffer":0,
			"byteLength":144,
			"byteOffset":1761420,
			"target":34963
		},
		{
			"buffer":0,
			"byteLength":9792,
			"byteOffset":1761564,
			"target":34962
		},
		{
			"buffer":0,
			"byteLength":9792,
			"byteOffset":1771356,
			"target":34962
		},
		{
			"buffer":0,
			"byteLength":6528,
			"byteOffset":1781148,
			"target":34962
		},
		{
			"buffer":0,
			"byteLength":1632,
			"byteOffset":1787676,
			"target":34963
		},
		{
			"buffer":0,
			"byteLength":720,
			"byteOffset":1789308,
			"target":34962
		},
		{
			"buffer":0,
			"byteLength":720,
			"byteOffset":1790028,
			"target":34962
		},
		{
			"buffer":0,
			"byteLength":480,
			"byteOffset":1790748,
			"target":34962
		},
		{
			"buffer":0,
			"byteLength":120,
			"byteOffset":1791228,
			"target":34963
		},
		{
			"buffer":0,
			"byteLength":8352,
			"byteOffset":1791348,
			"target":34962
		},
		{
			"buffer":0,
			"byteLength":8352,
			"byteOffset":1799700,
			"target":34962
		},
		{
			"buffer":0,
			"byteLength":5568,
			"byteOffset":1808052,
			"target":34962
		},
		{
			"buffer":0,
			"byteLength":1392,
			"byteOffset":1813620,
			"target":34963
		}
	],
	"samplers":[
		{
			"magFilter":9729,
			"minFilter":9987
		}
	],
	"buffers":[
		{
			"byteLength":1815012,
			"uri":"Pass_CupAmmBar1.bin"
		}
	]
}
