{
	"asset":{
		"generator":"Khronos glTF Blender I/O v4.4.56",
		"version":"2.0"
	},
	"extensionsUsed":[
		"KHR_materials_specular"
	],
	"scene":0,
	"scenes":[
		{
			"name":"Scene",
			"nodes":[
				0,
				1,
				2,
				3,
				4,
				5,
				6,
				7,
				8,
				9,
				10,
				11,
				12,
				13,
				14,
				15,
				16,
				17,
				18,
				19,
				20,
				21,
				22,
				23,
				24,
				25,
				26,
				27,
				28,
				29,
				30,
				31,
				32,
				33,
				34,
				35,
				36,
				37,
				38,
				39,
				40,
				41,
				42,
				43,
				44,
				45,
				46,
				47,
				48,
				49,
				50,
				51,
				52,
				53,
				54,
				55,
				56,
				57,
				58
			]
		}
	],
	"nodes":[
		{
			"mesh":0,
			"name":"AB"
		},
		{
			"mesh":1,
			"name":"Anten"
		},
		{
			"mesh":2,
			"name":"Avtotormoz242"
		},
		{
			"mesh":3,
			"name":"Belevoy_yachik"
		},
		{
			"mesh":4,
			"name":"Body"
		},
		{
			"mesh":5,
			"name":"Boige-1"
		},
		{
			"mesh":6,
			"name":"Wheel-1",
			"translation":[
				0,
				0.4749999940395355,
				9.900015830993652
			]
		},
		{
			"mesh":7,
			"name":"Wheel-2",
			"translation":[
				0,
				0.4749999940395355,
				7.500026226043701
			]
		},
		{
			"mesh":8,
			"name":"Boige-2"
		},
		{
			"mesh":9,
			"name":"Wheel-3",
			"translation":[
				0,
				0.4749999940395355,
				-7.499985694885254
			]
		},
		{
			"mesh":10,
			"name":"Wheel-4",
			"translation":[
				0,
				0.4749999940395355,
				-9.89998722076416
			]
		},
		{
			"mesh":11,
			"name":"DCG-4435"
		},
		{
			"mesh":12,
			"name":"Gen_Kardan",
			"rotation":[
				0.015425453893840313,
				0.7069385051727295,
				0.015425452962517738,
				0.7069385051727295
			],
			"translation":[
				-0.0011817908380180597,
				0.5020935535430908,
				6.359714984893799
			]
		},
		{
			"mesh":13,
			"name":"Gen_Mufta1",
			"rotation":[
				0,
				0.7071068286895752,
				0,
				0.7071068286895752
			],
			"translation":[
				0.0008727312670089304,
				0.5380001068115234,
				5.524901866912842
			]
		},
		{
			"mesh":14,
			"name":"Br_Pipe"
		},
		{
			"mesh":15,
			"name":"Bufera"
		},
		{
			"mesh":16,
			"name":"otpuskVR"
		},
		{
			"mesh":17,
			"name":"Deflektor"
		},
		{
			"mesh":18,
			"name":"ECHT"
		},
		{
			"mesh":19,
			"name":"Fartuki"
		},
		{
			"mesh":20,
			"name":"End_of_train_lamps_bwd_up_r",
			"translation":[
				-1.2903900146484375,
				3.450003147125244,
				12.21500015258789
			]
		},
		{
			"mesh":21,
			"name":"Kabel_G"
		},
		{
			"mesh":22,
			"name":"KoncevoyRuk_1"
		},
		{
			"mesh":23,
			"name":"KoncevoyRuk_2"
		},
		{
			"mesh":24,
			"name":"LestnicaKrisha"
		},
		{
			"mesh":25,
			"name":"Perehod_det"
		},
		{
			"mesh":26,
			"name":"PinchOFF"
		},
		{
			"mesh":27,
			"name":"PinchON"
		},
		{
			"mesh":28,
			"name":"Podtambur"
		},
		{
			"mesh":29,
			"name":"Podveska_ConcRuk"
		},
		{
			"mesh":30,
			"name":"Poruchny_ut"
		},
		{
			"mesh":31,
			"name":"PredohrKV"
		},
		{
			"mesh":32,
			"name":"PredohrSkob"
		},
		{
			"mesh":33,
			"name":"Rascep"
		},
		{
			"mesh":34,
			"name":"Reshetki_KU"
		},
		{
			"mesh":35,
			"name":"RezinaPerehod"
		},
		{
			"mesh":36,
			"name":"RozetkiOT"
		},
		{
			"mesh":37,
			"name":"SA-3-1"
		},
		{
			"mesh":38,
			"name":"SA-3-2"
		},
		{
			"mesh":39,
			"name":"Stupenky"
		},
		{
			"mesh":40,
			"name":"TehLuk"
		},
		{
			"mesh":41,
			"name":"TRP"
		},
		{
			"mesh":42,
			"name":"Truby_kotla"
		},
		{
			"mesh":43,
			"name":"Vent_KU"
		},
		{
			"mesh":44,
			"name":"Yashik_3kV"
		},
		{
			"mesh":45,
			"name":"Yashik_RCH"
		},
		{
			"mesh":46,
			"name":"Yashik_VU"
		},
		{
			"mesh":47,
			"name":"ZaglushkaPinch"
		},
		{
			"mesh":48,
			"name":"End_of_train_red_bwd_up_r",
			"translation":[
				-1.2903900146484375,
				3.450003147125244,
				12.21500015258789
			]
		},
		{
			"mesh":20,
			"name":"End_of_train_lamps_bwd_up_l",
			"translation":[
				1.2903900146484375,
				3.450003147125244,
				12.21500015258789
			]
		},
		{
			"mesh":48,
			"name":"End_of_train_red_bwd_up_l",
			"translation":[
				1.2903900146484375,
				3.450003147125244,
				12.21500015258789
			]
		},
		{
			"mesh":20,
			"name":"End_of_train_lamps_bwd_bot_l",
			"translation":[
				1.149999976158142,
				1.8000000715255737,
				12.21500015258789
			]
		},
		{
			"mesh":48,
			"name":"End_of_train_red_bwd_bot_l",
			"translation":[
				1.149999976158142,
				1.8000000715255737,
				12.21500015258789
			]
		},
		{
			"mesh":20,
			"name":"End_of_train_lamps_fwd_up_r",
			"rotation":[
				0,
				-1,
				0,
				4.371138828673793e-08
			],
			"translation":[
				1.2903900146484375,
				3.450003147125244,
				-12.21500015258789
			]
		},
		{
			"mesh":20,
			"name":"End_of_train_lamps_fwd_up_l",
			"rotation":[
				0,
				-1,
				0,
				4.371138828673793e-08
			],
			"translation":[
				-1.2903900146484375,
				3.450003147125244,
				-12.21500015258789
			]
		},
		{
			"mesh":20,
			"name":"End_of_train_lamps_fwd_bot_l",
			"rotation":[
				0,
				-1,
				0,
				4.371138828673793e-08
			],
			"translation":[
				-1.149999976158142,
				1.8000000715255737,
				-12.21500015258789
			]
		},
		{
			"mesh":49,
			"name":"End_of_train_red_fwd_up_r",
			"translation":[
				1.2903900146484375,
				3.450003147125244,
				-12.21500015258789
			]
		},
		{
			"mesh":49,
			"name":"End_of_train_red_fwd_up_l",
			"translation":[
				-1.2903900146484375,
				3.450003147125244,
				-12.21500015258789
			]
		},
		{
			"mesh":49,
			"name":"End_of_train_red_fwd_bot_l",
			"translation":[
				-1.149999976158142,
				1.8000000715255737,
				-12.21500015258789
			]
		}
	],
	"materials":[
		{
			"extensions":{
				"KHR_materials_specular":{
					"specularFactor":0
				}
			},
			"name":"Material_pass_16733",
			"pbrMetallicRoughness":{
				"baseColorTexture":{
					"index":0
				},
				"roughnessFactor":0.75
			}
		},
		{
			"doubleSided":true,
			"extensions":{
				"KHR_materials_specular":{
					"specularFactor":0
				}
			},
			"name":"Material_pass_16733_two_sided",
			"pbrMetallicRoughness":{
				"baseColorTexture":{
					"index":1
				},
				"roughnessFactor":0.75
			}
		},
		{
			"alphaMode":"BLEND",
			"extensions":{
				"KHR_materials_specular":{
					"specularFactor":0
				}
			},
			"name":"Material_pass_16733_alfa",
			"pbrMetallicRoughness":{
				"baseColorFactor":[
					1,
					1,
					1,
					0.25
				],
				"baseColorTexture":{
					"index":2
				},
				"roughnessFactor":0.125
			}
		},
		{
			"extensions":{
				"KHR_materials_specular":{
					"specularFactor":0
				}
			},
			"name":"Material_pass_16733_rezina",
			"pbrMetallicRoughness":{
				"baseColorTexture":{
					"index":3
				},
				"metallicFactor":0.0625,
				"roughnessFactor":0.875
			}
		},
		{
			"emissiveTexture":{
				"index":4
			},
			"extensions":{
				"KHR_materials_specular":{
					"specularFactor":0
				}
			},
			"name":"Material_pass_16733_emission",
			"pbrMetallicRoughness":{
				"baseColorFactor":[
					0,
					0,
					0,
					1
				],
				"roughnessFactor":0.5
			}
		}
	],
	"meshes":[
		{
			"name":"AB",
			"primitives":[
				{
					"attributes":{
						"POSITION":0,
						"NORMAL":1,
						"TEXCOORD_0":2
					},
					"indices":3,
					"material":0
				}
			]
		},
		{
			"name":"Anten",
			"primitives":[
				{
					"attributes":{
						"POSITION":4,
						"NORMAL":5,
						"TEXCOORD_0":6
					},
					"indices":7,
					"material":0
				}
			]
		},
		{
			"name":"Avtotormoz242",
			"primitives":[
				{
					"attributes":{
						"POSITION":8,
						"NORMAL":9,
						"TEXCOORD_0":10
					},
					"indices":11,
					"material":0
				}
			]
		},
		{
			"name":"Belevoy_yachik",
			"primitives":[
				{
					"attributes":{
						"POSITION":12,
						"NORMAL":13,
						"TEXCOORD_0":14
					},
					"indices":15,
					"material":0
				}
			]
		},
		{
			"name":"Body",
			"primitives":[
				{
					"attributes":{
						"POSITION":16,
						"NORMAL":17,
						"TEXCOORD_0":18
					},
					"indices":19,
					"material":1
				}
			]
		},
		{
			"name":"Boige-1",
			"primitives":[
				{
					"attributes":{
						"POSITION":20,
						"NORMAL":21,
						"TEXCOORD_0":22
					},
					"indices":23,
					"material":0
				}
			]
		},
		{
			"name":"Wheel-1",
			"primitives":[
				{
					"attributes":{
						"POSITION":24,
						"NORMAL":25,
						"TEXCOORD_0":26
					},
					"indices":27,
					"material":0
				}
			]
		},
		{
			"name":"Wheel-2",
			"primitives":[
				{
					"attributes":{
						"POSITION":28,
						"NORMAL":29,
						"TEXCOORD_0":30
					},
					"indices":31,
					"material":0
				}
			]
		},
		{
			"name":"Boige-2",
			"primitives":[
				{
					"attributes":{
						"POSITION":32,
						"NORMAL":33,
						"TEXCOORD_0":34
					},
					"indices":35,
					"material":0
				}
			]
		},
		{
			"name":"Wheel-3",
			"primitives":[
				{
					"attributes":{
						"POSITION":36,
						"NORMAL":37,
						"TEXCOORD_0":38
					},
					"indices":27,
					"material":0
				}
			]
		},
		{
			"name":"Wheel-4",
			"primitives":[
				{
					"attributes":{
						"POSITION":39,
						"NORMAL":40,
						"TEXCOORD_0":41
					},
					"indices":27,
					"material":0
				}
			]
		},
		{
			"name":"DCG-4435",
			"primitives":[
				{
					"attributes":{
						"POSITION":42,
						"NORMAL":43,
						"TEXCOORD_0":44
					},
					"indices":45,
					"material":0
				}
			]
		},
		{
			"name":"Gen_Kardan",
			"primitives":[
				{
					"attributes":{
						"POSITION":46,
						"NORMAL":47,
						"TEXCOORD_0":48
					},
					"indices":49,
					"material":0
				}
			]
		},
		{
			"name":"Gen_Mufta1",
			"primitives":[
				{
					"attributes":{
						"POSITION":50,
						"NORMAL":51,
						"TEXCOORD_0":52
					},
					"indices":53,
					"material":0
				}
			]
		},
		{
			"name":"Br_Pipe",
			"primitives":[
				{
					"attributes":{
						"POSITION":54,
						"NORMAL":55,
						"TEXCOORD_0":56
					},
					"indices":57,
					"material":0
				}
			]
		},
		{
			"name":"Bufera",
			"primitives":[
				{
					"attributes":{
						"POSITION":58,
						"NORMAL":59,
						"TEXCOORD_0":60
					},
					"indices":61,
					"material":0
				}
			]
		},
		{
			"name":"otpuskVR",
			"primitives":[
				{
					"attributes":{
						"POSITION":62,
						"NORMAL":63,
						"TEXCOORD_0":64
					},
					"indices":65,
					"material":0
				}
			]
		},
		{
			"name":"Deflektor",
			"primitives":[
				{
					"attributes":{
						"POSITION":66,
						"NORMAL":67,
						"TEXCOORD_0":68
					},
					"indices":69,
					"material":0
				}
			]
		},
		{
			"name":"ECHT",
			"primitives":[
				{
					"attributes":{
						"POSITION":70,
						"NORMAL":71,
						"TEXCOORD_0":72
					},
					"indices":73,
					"material":0
				}
			]
		},
		{
			"name":"Fartuki",
			"primitives":[
				{
					"attributes":{
						"POSITION":74,
						"NORMAL":75,
						"TEXCOORD_0":76
					},
					"indices":77,
					"material":0
				}
			]
		},
		{
			"name":"End_of_train_lamps",
			"primitives":[
				{
					"attributes":{
						"POSITION":78,
						"NORMAL":79,
						"TEXCOORD_0":80
					},
					"indices":81,
					"material":0
				},
				{
					"attributes":{
						"POSITION":82,
						"NORMAL":83,
						"TEXCOORD_0":84
					},
					"indices":85,
					"material":2
				}
			]
		},
		{
			"name":"Kabel_G",
			"primitives":[
				{
					"attributes":{
						"POSITION":86,
						"NORMAL":87,
						"TEXCOORD_0":88
					},
					"indices":89,
					"material":3
				}
			]
		},
		{
			"name":"KoncevoyRuk_1",
			"primitives":[
				{
					"attributes":{
						"POSITION":90,
						"NORMAL":91,
						"TEXCOORD_0":92
					},
					"indices":93,
					"material":3
				}
			]
		},
		{
			"name":"KoncevoyRuk_2",
			"primitives":[
				{
					"attributes":{
						"POSITION":94,
						"NORMAL":95,
						"TEXCOORD_0":96
					},
					"indices":93,
					"material":3
				}
			]
		},
		{
			"name":"LestnicaKrisha",
			"primitives":[
				{
					"attributes":{
						"POSITION":97,
						"NORMAL":98,
						"TEXCOORD_0":99
					},
					"indices":100,
					"material":0
				}
			]
		},
		{
			"name":"Perehod_det",
			"primitives":[
				{
					"attributes":{
						"POSITION":101,
						"NORMAL":102,
						"TEXCOORD_0":103
					},
					"indices":104,
					"material":0
				}
			]
		},
		{
			"name":"PinchOFF",
			"primitives":[
				{
					"attributes":{
						"POSITION":105,
						"NORMAL":106,
						"TEXCOORD_0":107
					},
					"indices":108,
					"material":3
				}
			]
		},
		{
			"name":"PinchON",
			"primitives":[
				{
					"attributes":{
						"POSITION":109,
						"NORMAL":110,
						"TEXCOORD_0":111
					},
					"indices":108,
					"material":3
				}
			]
		},
		{
			"name":"Podtambur",
			"primitives":[
				{
					"attributes":{
						"POSITION":112,
						"NORMAL":113,
						"TEXCOORD_0":114
					},
					"indices":115,
					"material":0
				}
			]
		},
		{
			"name":"Podveska_ConcRuk",
			"primitives":[
				{
					"attributes":{
						"POSITION":116,
						"NORMAL":117,
						"TEXCOORD_0":118
					},
					"indices":15,
					"material":0
				}
			]
		},
		{
			"name":"Poruchny_ut",
			"primitives":[
				{
					"attributes":{
						"POSITION":119,
						"NORMAL":120,
						"TEXCOORD_0":121
					},
					"indices":122,
					"material":0
				}
			]
		},
		{
			"name":"PredohrKV",
			"primitives":[
				{
					"attributes":{
						"POSITION":123,
						"NORMAL":124,
						"TEXCOORD_0":125
					},
					"indices":104,
					"material":0
				}
			]
		},
		{
			"name":"PredohrSkob",
			"primitives":[
				{
					"attributes":{
						"POSITION":126,
						"NORMAL":127,
						"TEXCOORD_0":128
					},
					"indices":129,
					"material":0
				}
			]
		},
		{
			"name":"Rascep",
			"primitives":[
				{
					"attributes":{
						"POSITION":130,
						"NORMAL":131,
						"TEXCOORD_0":132
					},
					"indices":133,
					"material":0
				}
			]
		},
		{
			"name":"Reshetki_KU",
			"primitives":[
				{
					"attributes":{
						"POSITION":134,
						"NORMAL":135,
						"TEXCOORD_0":136
					},
					"indices":65,
					"material":0
				}
			]
		},
		{
			"name":"RezinaPerehod",
			"primitives":[
				{
					"attributes":{
						"POSITION":137,
						"NORMAL":138,
						"TEXCOORD_0":139
					},
					"indices":140,
					"material":3
				}
			]
		},
		{
			"name":"RozetkiOT",
			"primitives":[
				{
					"attributes":{
						"POSITION":141,
						"NORMAL":142,
						"TEXCOORD_0":143
					},
					"indices":144,
					"material":0
				}
			]
		},
		{
			"name":"SA-3-1",
			"primitives":[
				{
					"attributes":{
						"POSITION":145,
						"NORMAL":146,
						"TEXCOORD_0":147
					},
					"indices":148,
					"material":0
				}
			]
		},
		{
			"name":"SA-3-2",
			"primitives":[
				{
					"attributes":{
						"POSITION":149,
						"NORMAL":150,
						"TEXCOORD_0":151
					},
					"indices":148,
					"material":0
				}
			]
		},
		{
			"name":"Stupenky",
			"primitives":[
				{
					"attributes":{
						"POSITION":152,
						"NORMAL":153,
						"TEXCOORD_0":154
					},
					"indices":155,
					"material":0
				}
			]
		},
		{
			"name":"TehLuk",
			"primitives":[
				{
					"attributes":{
						"POSITION":156,
						"NORMAL":157,
						"TEXCOORD_0":158
					},
					"indices":159,
					"material":0
				}
			]
		},
		{
			"name":"TRP",
			"primitives":[
				{
					"attributes":{
						"POSITION":160,
						"NORMAL":161,
						"TEXCOORD_0":162
					},
					"indices":163,
					"material":0
				}
			]
		},
		{
			"name":"Truby_kotla",
			"primitives":[
				{
					"attributes":{
						"POSITION":164,
						"NORMAL":165,
						"TEXCOORD_0":166
					},
					"indices":167,
					"material":0
				}
			]
		},
		{
			"name":"Vent_KU",
			"primitives":[
				{
					"attributes":{
						"POSITION":168,
						"NORMAL":169,
						"TEXCOORD_0":170
					},
					"indices":171,
					"material":0
				}
			]
		},
		{
			"name":"Yashik_3kV",
			"primitives":[
				{
					"attributes":{
						"POSITION":172,
						"NORMAL":173,
						"TEXCOORD_0":174
					},
					"indices":15,
					"material":0
				}
			]
		},
		{
			"name":"Yashik_RCH",
			"primitives":[
				{
					"attributes":{
						"POSITION":175,
						"NORMAL":176,
						"TEXCOORD_0":177
					},
					"indices":178,
					"material":0
				}
			]
		},
		{
			"name":"Yashik_VU",
			"primitives":[
				{
					"attributes":{
						"POSITION":179,
						"NORMAL":180,
						"TEXCOORD_0":181
					},
					"indices":182,
					"material":0
				}
			]
		},
		{
			"name":"ZaglushkaPinch",
			"primitives":[
				{
					"attributes":{
						"POSITION":183,
						"NORMAL":184,
						"TEXCOORD_0":185
					},
					"indices":186,
					"material":0
				}
			]
		},
		{
			"name":"End_of_train_red_bwd",
			"primitives":[
				{
					"attributes":{
						"POSITION":187,
						"NORMAL":188,
						"TEXCOORD_0":189
					},
					"indices":85,
					"material":4
				}
			]
		},
		{
			"name":"End_of_train_red_fwd",
			"primitives":[
				{
					"attributes":{
						"POSITION":190,
						"NORMAL":191,
						"TEXCOORD_0":192
					},
					"indices":85,
					"material":4
				}
			]
		}
	],
	"textures":[
		{
			"sampler":0,
			"source":0
		},
		{
			"sampler":0,
			"source":0
		},
		{
			"sampler":0,
			"source":0
		},
		{
			"sampler":0,
			"source":0
		},
		{
			"sampler":0,
			"source":0
		}
	],
	"images":[
		{
			"mimeType":"image/png",
			"name":"pass_rzd-16733",
			"uri":"T_pass_rzd-16733/pass_rzd-16733.png"
		}
	],
	"accessors":[
		{
			"bufferView":0,
			"componentType":5126,
			"count":714,
			"max":[
				1.535858154296875,
				1.1775699853897095,
				0.30838993191719055
			],
			"min":[
				-1.5373708009719849,
				0.4244209825992584,
				-4.755420207977295
			],
			"type":"VEC3"
		},
		{
			"bufferView":1,
			"componentType":5126,
			"count":714,
			"type":"VEC3"
		},
		{
			"bufferView":2,
			"componentType":5126,
			"count":714,
			"type":"VEC2"
		},
		{
			"bufferView":3,
			"componentType":5123,
			"count":714,
			"type":"SCALAR"
		},
		{
			"bufferView":4,
			"componentType":5126,
			"count":2178,
			"max":[
				0.3600650429725647,
				4.826014041900635,
				8.139616012573242
			],
			"min":[
				-0.6480547189712524,
				4.327863693237305,
				-7.29153299331665
			],
			"type":"VEC3"
		},
		{
			"bufferView":5,
			"componentType":5126,
			"count":2178,
			"type":"VEC3"
		},
		{
			"bufferView":6,
			"componentType":5126,
			"count":2178,
			"type":"VEC2"
		},
		{
			"bufferView":7,
			"componentType":5123,
			"count":2178,
			"type":"SCALAR"
		},
		{
			"bufferView":8,
			"componentType":5126,
			"count":1512,
			"max":[
				0.5122050046920776,
				1.2617629766464233,
				1.584704041481018
			],
			"min":[
				-1.1427429914474487,
				0.4769990146160126,
				-0.8995360136032104
			],
			"type":"VEC3"
		},
		{
			"bufferView":9,
			"componentType":5126,
			"count":1512,
			"type":"VEC3"
		},
		{
			"bufferView":10,
			"componentType":5126,
			"count":1512,
			"type":"VEC2"
		},
		{
			"bufferView":11,
			"componentType":5123,
			"count":1512,
			"type":"SCALAR"
		},
		{
			"bufferView":12,
			"componentType":5126,
			"count":24,
			"max":[
				1.3129892349243164,
				1.109984040260315,
				3.1091501712799072
			],
			"min":[
				0.8079814910888672,
				0.4330122768878937,
				1.831631064414978
			],
			"type":"VEC3"
		},
		{
			"bufferView":13,
			"componentType":5126,
			"count":24,
			"type":"VEC3"
		},
		{
			"bufferView":14,
			"componentType":5126,
			"count":24,
			"type":"VEC2"
		},
		{
			"bufferView":15,
			"componentType":5123,
			"count":24,
			"type":"SCALAR"
		},
		{
			"bufferView":16,
			"componentType":5126,
			"count":917,
			"max":[
				1.5293200016021729,
				4.35655403137207,
				12.211299896240234
			],
			"min":[
				-1.529579997062683,
				0.8305739164352417,
				-12.211299896240234
			],
			"type":"VEC3"
		},
		{
			"bufferView":17,
			"componentType":5126,
			"count":917,
			"type":"VEC3"
		},
		{
			"bufferView":18,
			"componentType":5126,
			"count":917,
			"type":"VEC2"
		},
		{
			"bufferView":19,
			"componentType":5123,
			"count":981,
			"type":"SCALAR"
		},
		{
			"bufferView":20,
			"componentType":5126,
			"count":13572,
			"max":[
				1.5550899505615234,
				1.0720199346542358,
				10.649849891662598
			],
			"min":[
				-1.5550899505615234,
				0.16596299409866333,
				6.750150203704834
			],
			"type":"VEC3"
		},
		{
			"bufferView":21,
			"componentType":5126,
			"count":13572,
			"type":"VEC3"
		},
		{
			"bufferView":22,
			"componentType":5126,
			"count":13572,
			"type":"VEC2"
		},
		{
			"bufferView":23,
			"componentType":5123,
			"count":13572,
			"type":"SCALAR"
		},
		{
			"bufferView":24,
			"componentType":5126,
			"count":732,
			"max":[
				0.8512402176856995,
				0.5169913172721863,
				0.5090742111206055
			],
			"min":[
				-0.8512398600578308,
				-0.5168986916542053,
				-0.5091085433959961
			],
			"type":"VEC3"
		},
		{
			"bufferView":25,
			"componentType":5126,
			"count":732,
			"type":"VEC3"
		},
		{
			"bufferView":26,
			"componentType":5126,
			"count":732,
			"type":"VEC2"
		},
		{
			"bufferView":27,
			"componentType":5123,
			"count":732,
			"type":"SCALAR"
		},
		{
			"bufferView":28,
			"componentType":5126,
			"count":900,
			"max":[
				0.8512398600578308,
				0.5170027613639832,
				0.5090670585632324
			],
			"min":[
				-0.8512402176856995,
				-0.5168872475624084,
				-0.5091161727905273
			],
			"type":"VEC3"
		},
		{
			"bufferView":29,
			"componentType":5126,
			"count":900,
			"type":"VEC3"
		},
		{
			"bufferView":30,
			"componentType":5126,
			"count":900,
			"type":"VEC2"
		},
		{
			"bufferView":31,
			"componentType":5123,
			"count":900,
			"type":"SCALAR"
		},
		{
			"bufferView":32,
			"componentType":5126,
			"count":13056,
			"max":[
				1.5550899505615234,
				1.0720199346542358,
				-6.750150203704834
			],
			"min":[
				-1.5550899505615234,
				0.16596299409866333,
				-10.649849891662598
			],
			"type":"VEC3"
		},
		{
			"bufferView":33,
			"componentType":5126,
			"count":13056,
			"type":"VEC3"
		},
		{
			"bufferView":34,
			"componentType":5126,
			"count":13056,
			"type":"VEC2"
		},
		{
			"bufferView":35,
			"componentType":5123,
			"count":13056,
			"type":"SCALAR"
		},
		{
			"bufferView":36,
			"componentType":5126,
			"count":732,
			"max":[
				0.8512402176856995,
				0.516991376876831,
				0.5090756416320801
			],
			"min":[
				-0.8512398600578308,
				-0.5168986320495605,
				-0.5091075897216797
			],
			"type":"VEC3"
		},
		{
			"bufferView":37,
			"componentType":5126,
			"count":732,
			"type":"VEC3"
		},
		{
			"bufferView":38,
			"componentType":5126,
			"count":732,
			"type":"VEC2"
		},
		{
			"bufferView":39,
			"componentType":5126,
			"count":732,
			"max":[
				0.8512402176856995,
				0.5169914364814758,
				0.5090770721435547
			],
			"min":[
				-0.8512398600578308,
				-0.5168985724449158,
				-0.5091056823730469
			],
			"type":"VEC3"
		},
		{
			"bufferView":40,
			"componentType":5126,
			"count":732,
			"type":"VEC3"
		},
		{
			"bufferView":41,
			"componentType":5126,
			"count":732,
			"type":"VEC2"
		},
		{
			"bufferView":42,
			"componentType":5126,
			"count":936,
			"max":[
				0.3911975622177124,
				1.1940510272979736,
				5.602386951446533
			],
			"min":[
				-0.3894645571708679,
				0.21379700303077698,
				4.2470221519470215
			],
			"type":"VEC3"
		},
		{
			"bufferView":43,
			"componentType":5126,
			"count":936,
			"type":"VEC3"
		},
		{
			"bufferView":44,
			"componentType":5126,
			"count":936,
			"type":"VEC2"
		},
		{
			"bufferView":45,
			"componentType":5123,
			"count":936,
			"type":"SCALAR"
		},
		{
			"bufferView":46,
			"componentType":5126,
			"count":180,
			"max":[
				0.7623686194419861,
				0.05199342966079712,
				0.06424236297607422
			],
			"min":[
				-0.7634511590003967,
				-0.051951825618743896,
				-0.06376839429140091
			],
			"type":"VEC3"
		},
		{
			"bufferView":47,
			"componentType":5126,
			"count":180,
			"type":"VEC3"
		},
		{
			"bufferView":48,
			"componentType":5126,
			"count":180,
			"type":"VEC2"
		},
		{
			"bufferView":49,
			"componentType":5123,
			"count":180,
			"type":"SCALAR"
		},
		{
			"bufferView":50,
			"componentType":5126,
			"count":132,
			"max":[
				0.10319995880126953,
				0.12886156141757965,
				0.1353897899389267
			],
			"min":[
				-0.07570506632328033,
				-0.12904441356658936,
				-0.13539014756679535
			],
			"type":"VEC3"
		},
		{
			"bufferView":51,
			"componentType":5126,
			"count":132,
			"type":"VEC3"
		},
		{
			"bufferView":52,
			"componentType":5126,
			"count":132,
			"type":"VEC2"
		},
		{
			"bufferView":53,
			"componentType":5123,
			"count":132,
			"type":"SCALAR"
		},
		{
			"bufferView":54,
			"componentType":5126,
			"count":36,
			"max":[
				1.4662662744522095,
				1.1114659309387207,
				1.9137507677078247
			],
			"min":[
				-1.4666879177093506,
				0.930693507194519,
				1.2610454559326172
			],
			"type":"VEC3"
		},
		{
			"bufferView":55,
			"componentType":5126,
			"count":36,
			"type":"VEC3"
		},
		{
			"bufferView":56,
			"componentType":5126,
			"count":36,
			"type":"VEC2"
		},
		{
			"bufferView":57,
			"componentType":5123,
			"count":36,
			"type":"SCALAR"
		},
		{
			"bufferView":58,
			"componentType":5126,
			"count":2256,
			"max":[
				1.2317689657211304,
				1.2592899799346924,
				12.496600151062012
			],
			"min":[
				-1.231650948524475,
				0.8681600093841553,
				-12.496600151062012
			],
			"type":"VEC3"
		},
		{
			"bufferView":59,
			"componentType":5126,
			"count":2256,
			"type":"VEC3"
		},
		{
			"bufferView":60,
			"componentType":5126,
			"count":2256,
			"type":"VEC2"
		},
		{
			"bufferView":61,
			"componentType":5123,
			"count":2256,
			"type":"SCALAR"
		},
		{
			"bufferView":62,
			"componentType":5126,
			"count":144,
			"max":[
				1.5460904836654663,
				1.127864956855774,
				1.006002426147461
			],
			"min":[
				-1.2416126728057861,
				0.4831019341945648,
				0.6536151170730591
			],
			"type":"VEC3"
		},
		{
			"bufferView":63,
			"componentType":5126,
			"count":144,
			"type":"VEC3"
		},
		{
			"bufferView":64,
			"componentType":5126,
			"count":144,
			"type":"VEC2"
		},
		{
			"bufferView":65,
			"componentType":5123,
			"count":144,
			"type":"SCALAR"
		},
		{
			"bufferView":66,
			"componentType":5126,
			"count":252,
			"max":[
				-0.6658239960670471,
				4.38235330581665,
				10.639899253845215
			],
			"min":[
				-1.2851719856262207,
				4.102104187011719,
				-11.607992172241211
			],
			"type":"VEC3"
		},
		{
			"bufferView":67,
			"componentType":5126,
			"count":252,
			"type":"VEC3"
		},
		{
			"bufferView":68,
			"componentType":5126,
			"count":252,
			"type":"VEC2"
		},
		{
			"bufferView":69,
			"componentType":5123,
			"count":252,
			"type":"SCALAR"
		},
		{
			"bufferView":70,
			"componentType":5126,
			"count":750,
			"max":[
				1.3482648134231567,
				1.245579719543457,
				-5.020707607269287
			],
			"min":[
				-1.4194226264953613,
				0.2613733112812042,
				-6.736483573913574
			],
			"type":"VEC3"
		},
		{
			"bufferView":71,
			"componentType":5126,
			"count":750,
			"type":"VEC3"
		},
		{
			"bufferView":72,
			"componentType":5126,
			"count":750,
			"type":"VEC2"
		},
		{
			"bufferView":73,
			"componentType":5123,
			"count":750,
			"type":"SCALAR"
		},
		{
			"bufferView":74,
			"componentType":5126,
			"count":12,
			"max":[
				0.4108690023422241,
				1.9172539710998535,
				12.346199989318848
			],
			"min":[
				-0.4108709990978241,
				1.399893879890442,
				-12.346199989318848
			],
			"type":"VEC3"
		},
		{
			"bufferView":75,
			"componentType":5126,
			"count":12,
			"type":"VEC3"
		},
		{
			"bufferView":76,
			"componentType":5126,
			"count":12,
			"type":"VEC2"
		},
		{
			"bufferView":77,
			"componentType":5123,
			"count":12,
			"type":"SCALAR"
		},
		{
			"bufferView":78,
			"componentType":5126,
			"count":50,
			"max":[
				0.07664000988006592,
				0.13866686820983887,
				0.03750038146972656
			],
			"min":[
				-0.08386003971099854,
				-0.11274313926696777,
				-0.0034008026123046875
			],
			"type":"VEC3"
		},
		{
			"bufferView":79,
			"componentType":5126,
			"count":50,
			"type":"VEC3"
		},
		{
			"bufferView":80,
			"componentType":5126,
			"count":50,
			"type":"VEC2"
		},
		{
			"bufferView":81,
			"componentType":5123,
			"count":96,
			"type":"SCALAR"
		},
		{
			"bufferView":82,
			"componentType":5126,
			"count":10,
			"max":[
				0.04999995231628418,
				0.05318117141723633,
				0.03750038146972656
			],
			"min":[
				-0.04999995231628418,
				-0.05318093299865723,
				0
			],
			"type":"VEC3"
		},
		{
			"bufferView":83,
			"componentType":5126,
			"count":10,
			"type":"VEC3"
		},
		{
			"bufferView":84,
			"componentType":5126,
			"count":10,
			"type":"VEC2"
		},
		{
			"bufferView":85,
			"componentType":5123,
			"count":24,
			"type":"SCALAR"
		},
		{
			"bufferView":86,
			"componentType":5126,
			"count":204,
			"max":[
				-0.1312084197998047,
				1.190845012664795,
				5.128117084503174
			],
			"min":[
				-0.7063539028167725,
				0.7378145456314087,
				3.7566490173339844
			],
			"type":"VEC3"
		},
		{
			"bufferView":87,
			"componentType":5126,
			"count":204,
			"type":"VEC3"
		},
		{
			"bufferView":88,
			"componentType":5126,
			"count":204,
			"type":"VEC2"
		},
		{
			"bufferView":89,
			"componentType":5123,
			"count":204,
			"type":"SCALAR"
		},
		{
			"bufferView":90,
			"componentType":5126,
			"count":636,
			"max":[
				0.4727019965648651,
				1.0040339231491089,
				12.563699722290039
			],
			"min":[
				-0.06939209997653961,
				0.3739180266857147,
				9.935600280761719
			],
			"type":"VEC3"
		},
		{
			"bufferView":91,
			"componentType":5126,
			"count":636,
			"type":"VEC3"
		},
		{
			"bufferView":92,
			"componentType":5126,
			"count":636,
			"type":"VEC2"
		},
		{
			"bufferView":93,
			"componentType":5123,
			"count":636,
			"type":"SCALAR"
		},
		{
			"bufferView":94,
			"componentType":5126,
			"count":636,
			"max":[
				0.0693902000784874,
				1.0040339231491089,
				-9.935600280761719
			],
			"min":[
				-0.4727030098438263,
				0.3739180266857147,
				-12.563699722290039
			],
			"type":"VEC3"
		},
		{
			"bufferView":95,
			"componentType":5126,
			"count":636,
			"type":"VEC3"
		},
		{
			"bufferView":96,
			"componentType":5126,
			"count":636,
			"type":"VEC2"
		},
		{
			"bufferView":97,
			"componentType":5126,
			"count":1020,
			"max":[
				1.4115300178527832,
				4.432810306549072,
				12.332200050354004
			],
			"min":[
				-1.4115300178527832,
				1.2252299785614014,
				-12.332200050354004
			],
			"type":"VEC3"
		},
		{
			"bufferView":98,
			"componentType":5126,
			"count":1020,
			"type":"VEC3"
		},
		{
			"bufferView":99,
			"componentType":5126,
			"count":1020,
			"type":"VEC2"
		},
		{
			"bufferView":100,
			"componentType":5123,
			"count":1020,
			"type":"SCALAR"
		},
		{
			"bufferView":101,
			"componentType":5126,
			"count":288,
			"max":[
				0.4973732531070709,
				3.3483099937438965,
				12.203399658203125
			],
			"min":[
				-0.4972767233848572,
				2.329319953918457,
				-12.203399658203125
			],
			"type":"VEC3"
		},
		{
			"bufferView":102,
			"componentType":5126,
			"count":288,
			"type":"VEC3"
		},
		{
			"bufferView":103,
			"componentType":5126,
			"count":288,
			"type":"VEC2"
		},
		{
			"bufferView":104,
			"componentType":5123,
			"count":288,
			"type":"SCALAR"
		},
		{
			"bufferView":105,
			"componentType":5126,
			"count":306,
			"max":[
				-0.8865818381309509,
				1.5547739267349243,
				-12.071200370788574
			],
			"min":[
				-1.3628119230270386,
				0.43290600180625916,
				-12.34529972076416
			],
			"type":"VEC3"
		},
		{
			"bufferView":106,
			"componentType":5126,
			"count":306,
			"type":"VEC3"
		},
		{
			"bufferView":107,
			"componentType":5126,
			"count":306,
			"type":"VEC2"
		},
		{
			"bufferView":108,
			"componentType":5123,
			"count":306,
			"type":"SCALAR"
		},
		{
			"bufferView":109,
			"componentType":5126,
			"count":306,
			"max":[
				0.9251142144203186,
				0.777877926826477,
				12.883536338806152
			],
			"min":[
				0.7872790098190308,
				0.2575148046016693,
				12.07115364074707
			],
			"type":"VEC3"
		},
		{
			"bufferView":110,
			"componentType":5126,
			"count":306,
			"type":"VEC3"
		},
		{
			"bufferView":111,
			"componentType":5126,
			"count":306,
			"type":"VEC2"
		},
		{
			"bufferView":112,
			"componentType":5126,
			"count":528,
			"max":[
				1.5294500589370728,
				1.3172239065170288,
				11.928400039672852
			],
			"min":[
				-1.5288900136947632,
				1.1017539501190186,
				-11.928400039672852
			],
			"type":"VEC3"
		},
		{
			"bufferView":113,
			"componentType":5126,
			"count":528,
			"type":"VEC3"
		},
		{
			"bufferView":114,
			"componentType":5126,
			"count":528,
			"type":"VEC2"
		},
		{
			"bufferView":115,
			"componentType":5123,
			"count":528,
			"type":"SCALAR"
		},
		{
			"bufferView":116,
			"componentType":5126,
			"count":24,
			"max":[
				0.0971062034368515,
				0.9921839237213135,
				11.900899887084961
			],
			"min":[
				-0.09710799902677536,
				0.3488280475139618,
				-11.900899887084961
			],
			"type":"VEC3"
		},
		{
			"bufferView":117,
			"componentType":5126,
			"count":24,
			"type":"VEC3"
		},
		{
			"bufferView":118,
			"componentType":5126,
			"count":24,
			"type":"VEC2"
		},
		{
			"bufferView":119,
			"componentType":5126,
			"count":2016,
			"max":[
				1.5691584348678589,
				2.6832540035247803,
				12.07610034942627
			],
			"min":[
				-1.5687614679336548,
				1.393746018409729,
				-12.07610034942627
			],
			"type":"VEC3"
		},
		{
			"bufferView":120,
			"componentType":5126,
			"count":2016,
			"type":"VEC3"
		},
		{
			"bufferView":121,
			"componentType":5126,
			"count":2016,
			"type":"VEC2"
		},
		{
			"bufferView":122,
			"componentType":5123,
			"count":2016,
			"type":"SCALAR"
		},
		{
			"bufferView":123,
			"componentType":5126,
			"count":288,
			"max":[
				0.327908992767334,
				1.1882526874542236,
				6.52546501159668
			],
			"min":[
				-0.3258621394634247,
				0.23998776078224182,
				5.749654293060303
			],
			"type":"VEC3"
		},
		{
			"bufferView":124,
			"componentType":5126,
			"count":288,
			"type":"VEC3"
		},
		{
			"bufferView":125,
			"componentType":5126,
			"count":288,
			"type":"VEC2"
		},
		{
			"bufferView":126,
			"componentType":5126,
			"count":216,
			"max":[
				0.6742200255393982,
				1.19923996925354,
				6.547369956970215
			],
			"min":[
				-0.6876260042190552,
				0.8926699161529541,
				-6.5474700927734375
			],
			"type":"VEC3"
		},
		{
			"bufferView":127,
			"componentType":5126,
			"count":216,
			"type":"VEC3"
		},
		{
			"bufferView":128,
			"componentType":5126,
			"count":216,
			"type":"VEC2"
		},
		{
			"bufferView":129,
			"componentType":5123,
			"count":216,
			"type":"SCALAR"
		},
		{
			"bufferView":130,
			"componentType":5126,
			"count":786,
			"max":[
				1.3588299751281738,
				1.0411139726638794,
				12.365400314331055
			],
			"min":[
				-1.3588299751281738,
				0.4465239942073822,
				-12.365400314331055
			],
			"type":"VEC3"
		},
		{
			"bufferView":131,
			"componentType":5126,
			"count":786,
			"type":"VEC3"
		},
		{
			"bufferView":132,
			"componentType":5126,
			"count":786,
			"type":"VEC2"
		},
		{
			"bufferView":133,
			"componentType":5123,
			"count":786,
			"type":"SCALAR"
		},
		{
			"bufferView":134,
			"componentType":5126,
			"count":144,
			"max":[
				1.5515269041061401,
				4.053302764892578,
				11.910229682922363
			],
			"min":[
				-1.551206111907959,
				3.5255982875823975,
				10.822172164916992
			],
			"type":"VEC3"
		},
		{
			"bufferView":135,
			"componentType":5126,
			"count":144,
			"type":"VEC3"
		},
		{
			"bufferView":136,
			"componentType":5126,
			"count":144,
			"type":"VEC2"
		},
		{
			"bufferView":137,
			"componentType":5126,
			"count":408,
			"max":[
				0.8905868530273438,
				3.789940118789673,
				12.505800247192383
			],
			"min":[
				-0.8900181651115417,
				1.3947099447250366,
				-12.505800247192383
			],
			"type":"VEC3"
		},
		{
			"bufferView":138,
			"componentType":5126,
			"count":408,
			"type":"VEC3"
		},
		{
			"bufferView":139,
			"componentType":5126,
			"count":408,
			"type":"VEC2"
		},
		{
			"bufferView":140,
			"componentType":5123,
			"count":408,
			"type":"SCALAR"
		},
		{
			"bufferView":141,
			"componentType":5126,
			"count":534,
			"max":[
				0.9393069744110107,
				1.3161839246749878,
				12.14579963684082
			],
			"min":[
				-0.9393090009689331,
				0.6648269891738892,
				-12.14579963684082
			],
			"type":"VEC3"
		},
		{
			"bufferView":142,
			"componentType":5126,
			"count":534,
			"type":"VEC3"
		},
		{
			"bufferView":143,
			"componentType":5126,
			"count":534,
			"type":"VEC2"
		},
		{
			"bufferView":144,
			"componentType":5123,
			"count":534,
			"type":"SCALAR"
		},
		{
			"bufferView":145,
			"componentType":5126,
			"count":606,
			"max":[
				0.2796057164669037,
				1.2874269485473633,
				12.63521957397461
			],
			"min":[
				-0.26976561546325684,
				0.833745002746582,
				11.662010192871094
			],
			"type":"VEC3"
		},
		{
			"bufferView":146,
			"componentType":5126,
			"count":606,
			"type":"VEC3"
		},
		{
			"bufferView":147,
			"componentType":5126,
			"count":606,
			"type":"VEC2"
		},
		{
			"bufferView":148,
			"componentType":5123,
			"count":606,
			"type":"SCALAR"
		},
		{
			"bufferView":149,
			"componentType":5126,
			"count":606,
			"max":[
				0.2697637975215912,
				1.2874269485473633,
				-11.662010192871094
			],
			"min":[
				-0.2796076238155365,
				0.833745002746582,
				-12.63521957397461
			],
			"type":"VEC3"
		},
		{
			"bufferView":150,
			"componentType":5126,
			"count":606,
			"type":"VEC3"
		},
		{
			"bufferView":151,
			"componentType":5126,
			"count":606,
			"type":"VEC2"
		},
		{
			"bufferView":152,
			"componentType":5126,
			"count":756,
			"max":[
				1.5850199460983276,
				1.1913039684295654,
				11.95479965209961
			],
			"min":[
				-1.5850199460983276,
				0.449938029050827,
				-11.92080020904541
			],
			"type":"VEC3"
		},
		{
			"bufferView":153,
			"componentType":5126,
			"count":756,
			"type":"VEC3"
		},
		{
			"bufferView":154,
			"componentType":5126,
			"count":756,
			"type":"VEC2"
		},
		{
			"bufferView":155,
			"componentType":5123,
			"count":756,
			"type":"SCALAR"
		},
		{
			"bufferView":156,
			"componentType":5126,
			"count":168,
			"max":[
				0.7940530180931091,
				4.395910263061523,
				11.96090030670166
			],
			"min":[
				-0.808555006980896,
				4.2696003913879395,
				-11.958600044250488
			],
			"type":"VEC3"
		},
		{
			"bufferView":157,
			"componentType":5126,
			"count":168,
			"type":"VEC3"
		},
		{
			"bufferView":158,
			"componentType":5126,
			"count":168,
			"type":"VEC2"
		},
		{
			"bufferView":159,
			"componentType":5123,
			"count":168,
			"type":"SCALAR"
		},
		{
			"bufferView":160,
			"componentType":5126,
			"count":366,
			"max":[
				0.6804669499397278,
				1.2055399417877197,
				7.143450736999512
			],
			"min":[
				-0.6804659962654114,
				0.8750560283660889,
				-7.142949104309082
			],
			"type":"VEC3"
		},
		{
			"bufferView":161,
			"componentType":5126,
			"count":366,
			"type":"VEC3"
		},
		{
			"bufferView":162,
			"componentType":5126,
			"count":366,
			"type":"VEC2"
		},
		{
			"bufferView":163,
			"componentType":5123,
			"count":366,
			"type":"SCALAR"
		},
		{
			"bufferView":164,
			"componentType":5126,
			"count":561,
			"max":[
				1.400681972503662,
				4.560683250427246,
				10.734602928161621
			],
			"min":[
				0.6661980152130127,
				4.084477424621582,
				8.925498008728027
			],
			"type":"VEC3"
		},
		{
			"bufferView":165,
			"componentType":5126,
			"count":561,
			"type":"VEC3"
		},
		{
			"bufferView":166,
			"componentType":5126,
			"count":561,
			"type":"VEC2"
		},
		{
			"bufferView":167,
			"componentType":5123,
			"count":561,
			"type":"SCALAR"
		},
		{
			"bufferView":168,
			"componentType":5126,
			"count":186,
			"max":[
				0.36328956484794617,
				4.44584321975708,
				11.846153259277344
			],
			"min":[
				-0.3668094575405121,
				4.348306179046631,
				10.407610893249512
			],
			"type":"VEC3"
		},
		{
			"bufferView":169,
			"componentType":5126,
			"count":186,
			"type":"VEC3"
		},
		{
			"bufferView":170,
			"componentType":5126,
			"count":186,
			"type":"VEC2"
		},
		{
			"bufferView":171,
			"componentType":5123,
			"count":186,
			"type":"SCALAR"
		},
		{
			"bufferView":172,
			"componentType":5126,
			"count":24,
			"max":[
				1.3692959547042847,
				1.1362041234970093,
				6.063251495361328
			],
			"min":[
				0.834443986415863,
				0.3806159794330597,
				5.074767589569092
			],
			"type":"VEC3"
		},
		{
			"bufferView":173,
			"componentType":5126,
			"count":24,
			"type":"VEC3"
		},
		{
			"bufferView":174,
			"componentType":5126,
			"count":24,
			"type":"VEC2"
		},
		{
			"bufferView":175,
			"componentType":5126,
			"count":102,
			"max":[
				-0.5611932873725891,
				1.2422471046447754,
				5.378566265106201
			],
			"min":[
				-1.240167260169983,
				0.2952992618083954,
				3.5856168270111084
			],
			"type":"VEC3"
		},
		{
			"bufferView":176,
			"componentType":5126,
			"count":102,
			"type":"VEC3"
		},
		{
			"bufferView":177,
			"componentType":5126,
			"count":102,
			"type":"VEC2"
		},
		{
			"bufferView":178,
			"componentType":5123,
			"count":102,
			"type":"SCALAR"
		},
		{
			"bufferView":179,
			"componentType":5126,
			"count":72,
			"max":[
				-0.5611932873725891,
				1.1252745389938354,
				3.6438252925872803
			],
			"min":[
				-1.2401666641235352,
				0.3301275670528412,
				2.0735766887664795
			],
			"type":"VEC3"
		},
		{
			"bufferView":180,
			"componentType":5126,
			"count":72,
			"type":"VEC3"
		},
		{
			"bufferView":181,
			"componentType":5126,
			"count":72,
			"type":"VEC2"
		},
		{
			"bufferView":182,
			"componentType":5123,
			"count":72,
			"type":"SCALAR"
		},
		{
			"bufferView":183,
			"componentType":5126,
			"count":696,
			"max":[
				1.419619083404541,
				1.8127598762512207,
				12.427102088928223
			],
			"min":[
				-1.4196245670318604,
				1.5433399677276611,
				-12.427080154418945
			],
			"type":"VEC3"
		},
		{
			"bufferView":184,
			"componentType":5126,
			"count":696,
			"type":"VEC3"
		},
		{
			"bufferView":185,
			"componentType":5126,
			"count":696,
			"type":"VEC2"
		},
		{
			"bufferView":186,
			"componentType":5123,
			"count":696,
			"type":"SCALAR"
		},
		{
			"bufferView":187,
			"componentType":5126,
			"count":10,
			"max":[
				0.04874992370605469,
				0.059828758239746094,
				0.03656291961669922
			],
			"min":[
				-0.04874992370605469,
				-0.05982851982116699,
				0
			],
			"type":"VEC3"
		},
		{
			"bufferView":188,
			"componentType":5126,
			"count":10,
			"type":"VEC3"
		},
		{
			"bufferView":189,
			"componentType":5126,
			"count":10,
			"type":"VEC2"
		},
		{
			"bufferView":190,
			"componentType":5126,
			"count":10,
			"max":[
				0.04874992370605469,
				0.059828758239746094,
				4.261853536746685e-09
			],
			"min":[
				-0.04874992370605469,
				-0.05982851982116699,
				-0.03656291961669922
			],
			"type":"VEC3"
		},
		{
			"bufferView":191,
			"componentType":5126,
			"count":10,
			"type":"VEC3"
		},
		{
			"bufferView":192,
			"componentType":5126,
			"count":10,
			"type":"VEC2"
		}
	],
	"bufferViews":[
		{
			"buffer":0,
			"byteLength":8568,
			"byteOffset":0,
			"target":34962
		},
		{
			"buffer":0,
			"byteLength":8568,
			"byteOffset":8568,
			"target":34962
		},
		{
			"buffer":0,
			"byteLength":5712,
			"byteOffset":17136,
			"target":34962
		},
		{
			"buffer":0,
			"byteLength":1428,
			"byteOffset":22848,
			"target":34963
		},
		{
			"buffer":0,
			"byteLength":26136,
			"byteOffset":24276,
			"target":34962
		},
		{
			"buffer":0,
			"byteLength":26136,
			"byteOffset":50412,
			"target":34962
		},
		{
			"buffer":0,
			"byteLength":17424,
			"byteOffset":76548,
			"target":34962
		},
		{
			"buffer":0,
			"byteLength":4356,
			"byteOffset":93972,
			"target":34963
		},
		{
			"buffer":0,
			"byteLength":18144,
			"byteOffset":98328,
			"target":34962
		},
		{
			"buffer":0,
			"byteLength":18144,
			"byteOffset":116472,
			"target":34962
		},
		{
			"buffer":0,
			"byteLength":12096,
			"byteOffset":134616,
			"target":34962
		},
		{
			"buffer":0,
			"byteLength":3024,
			"byteOffset":146712,
			"target":34963
		},
		{
			"buffer":0,
			"byteLength":288,
			"byteOffset":149736,
			"target":34962
		},
		{
			"buffer":0,
			"byteLength":288,
			"byteOffset":150024,
			"target":34962
		},
		{
			"buffer":0,
			"byteLength":192,
			"byteOffset":150312,
			"target":34962
		},
		{
			"buffer":0,
			"byteLength":48,
			"byteOffset":150504,
			"target":34963
		},
		{
			"buffer":0,
			"byteLength":11004,
			"byteOffset":150552,
			"target":34962
		},
		{
			"buffer":0,
			"byteLength":11004,
			"byteOffset":161556,
			"target":34962
		},
		{
			"buffer":0,
			"byteLength":7336,
			"byteOffset":172560,
			"target":34962
		},
		{
			"buffer":0,
			"byteLength":1962,
			"byteOffset":179896,
			"target":34963
		},
		{
			"buffer":0,
			"byteLength":162864,
			"byteOffset":181860,
			"target":34962
		},
		{
			"buffer":0,
			"byteLength":162864,
			"byteOffset":344724,
			"target":34962
		},
		{
			"buffer":0,
			"byteLength":108576,
			"byteOffset":507588,
			"target":34962
		},
		{
			"buffer":0,
			"byteLength":27144,
			"byteOffset":616164,
			"target":34963
		},
		{
			"buffer":0,
			"byteLength":8784,
			"byteOffset":643308,
			"target":34962
		},
		{
			"buffer":0,
			"byteLength":8784,
			"byteOffset":652092,
			"target":34962
		},
		{
			"buffer":0,
			"byteLength":5856,
			"byteOffset":660876,
			"target":34962
		},
		{
			"buffer":0,
			"byteLength":1464,
			"byteOffset":666732,
			"target":34963
		},
		{
			"buffer":0,
			"byteLength":10800,
			"byteOffset":668196,
			"target":34962
		},
		{
			"buffer":0,
			"byteLength":10800,
			"byteOffset":678996,
			"target":34962
		},
		{
			"buffer":0,
			"byteLength":7200,
			"byteOffset":689796,
			"target":34962
		},
		{
			"buffer":0,
			"byteLength":1800,
			"byteOffset":696996,
			"target":34963
		},
		{
			"buffer":0,
			"byteLength":156672,
			"byteOffset":698796,
			"target":34962
		},
		{
			"buffer":0,
			"byteLength":156672,
			"byteOffset":855468,
			"target":34962
		},
		{
			"buffer":0,
			"byteLength":104448,
			"byteOffset":1012140,
			"target":34962
		},
		{
			"buffer":0,
			"byteLength":26112,
			"byteOffset":1116588,
			"target":34963
		},
		{
			"buffer":0,
			"byteLength":8784,
			"byteOffset":1142700,
			"target":34962
		},
		{
			"buffer":0,
			"byteLength":8784,
			"byteOffset":1151484,
			"target":34962
		},
		{
			"buffer":0,
			"byteLength":5856,
			"byteOffset":1160268,
			"target":34962
		},
		{
			"buffer":0,
			"byteLength":8784,
			"byteOffset":1166124,
			"target":34962
		},
		{
			"buffer":0,
			"byteLength":8784,
			"byteOffset":1174908,
			"target":34962
		},
		{
			"buffer":0,
			"byteLength":5856,
			"byteOffset":1183692,
			"target":34962
		},
		{
			"buffer":0,
			"byteLength":11232,
			"byteOffset":1189548,
			"target":34962
		},
		{
			"buffer":0,
			"byteLength":11232,
			"byteOffset":1200780,
			"target":34962
		},
		{
			"buffer":0,
			"byteLength":7488,
			"byteOffset":1212012,
			"target":34962
		},
		{
			"buffer":0,
			"byteLength":1872,
			"byteOffset":1219500,
			"target":34963
		},
		{
			"buffer":0,
			"byteLength":2160,
			"byteOffset":1221372,
			"target":34962
		},
		{
			"buffer":0,
			"byteLength":2160,
			"byteOffset":1223532,
			"target":34962
		},
		{
			"buffer":0,
			"byteLength":1440,
			"byteOffset":1225692,
			"target":34962
		},
		{
			"buffer":0,
			"byteLength":360,
			"byteOffset":1227132,
			"target":34963
		},
		{
			"buffer":0,
			"byteLength":1584,
			"byteOffset":1227492,
			"target":34962
		},
		{
			"buffer":0,
			"byteLength":1584,
			"byteOffset":1229076,
			"target":34962
		},
		{
			"buffer":0,
			"byteLength":1056,
			"byteOffset":1230660,
			"target":34962
		},
		{
			"buffer":0,
			"byteLength":264,
			"byteOffset":1231716,
			"target":34963
		},
		{
			"buffer":0,
			"byteLength":432,
			"byteOffset":1231980,
			"target":34962
		},
		{
			"buffer":0,
			"byteLength":432,
			"byteOffset":1232412,
			"target":34962
		},
		{
			"buffer":0,
			"byteLength":288,
			"byteOffset":1232844,
			"target":34962
		},
		{
			"buffer":0,
			"byteLength":72,
			"byteOffset":1233132,
			"target":34963
		},
		{
			"buffer":0,
			"byteLength":27072,
			"byteOffset":1233204,
			"target":34962
		},
		{
			"buffer":0,
			"byteLength":27072,
			"byteOffset":1260276,
			"target":34962
		},
		{
			"buffer":0,
			"byteLength":18048,
			"byteOffset":1287348,
			"target":34962
		},
		{
			"buffer":0,
			"byteLength":4512,
			"byteOffset":1305396,
			"target":34963
		},
		{
			"buffer":0,
			"byteLength":1728,
			"byteOffset":1309908,
			"target":34962
		},
		{
			"buffer":0,
			"byteLength":1728,
			"byteOffset":1311636,
			"target":34962
		},
		{
			"buffer":0,
			"byteLength":1152,
			"byteOffset":1313364,
			"target":34962
		},
		{
			"buffer":0,
			"byteLength":288,
			"byteOffset":1314516,
			"target":34963
		},
		{
			"buffer":0,
			"byteLength":3024,
			"byteOffset":1314804,
			"target":34962
		},
		{
			"buffer":0,
			"byteLength":3024,
			"byteOffset":1317828,
			"target":34962
		},
		{
			"buffer":0,
			"byteLength":2016,
			"byteOffset":1320852,
			"target":34962
		},
		{
			"buffer":0,
			"byteLength":504,
			"byteOffset":1322868,
			"target":34963
		},
		{
			"buffer":0,
			"byteLength":9000,
			"byteOffset":1323372,
			"target":34962
		},
		{
			"buffer":0,
			"byteLength":9000,
			"byteOffset":1332372,
			"target":34962
		},
		{
			"buffer":0,
			"byteLength":6000,
			"byteOffset":1341372,
			"target":34962
		},
		{
			"buffer":0,
			"byteLength":1500,
			"byteOffset":1347372,
			"target":34963
		},
		{
			"buffer":0,
			"byteLength":144,
			"byteOffset":1348872,
			"target":34962
		},
		{
			"buffer":0,
			"byteLength":144,
			"byteOffset":1349016,
			"target":34962
		},
		{
			"buffer":0,
			"byteLength":96,
			"byteOffset":1349160,
			"target":34962
		},
		{
			"buffer":0,
			"byteLength":24,
			"byteOffset":1349256,
			"target":34963
		},
		{
			"buffer":0,
			"byteLength":600,
			"byteOffset":1349280,
			"target":34962
		},
		{
			"buffer":0,
			"byteLength":600,
			"byteOffset":1349880,
			"target":34962
		},
		{
			"buffer":0,
			"byteLength":400,
			"byteOffset":1350480,
			"target":34962
		},
		{
			"buffer":0,
			"byteLength":192,
			"byteOffset":1350880,
			"target":34963
		},
		{
			"buffer":0,
			"byteLength":120,
			"byteOffset":1351072,
			"target":34962
		},
		{
			"buffer":0,
			"byteLength":120,
			"byteOffset":1351192,
			"target":34962
		},
		{
			"buffer":0,
			"byteLength":80,
			"byteOffset":1351312,
			"target":34962
		},
		{
			"buffer":0,
			"byteLength":48,
			"byteOffset":1351392,
			"target":34963
		},
		{
			"buffer":0,
			"byteLength":2448,
			"byteOffset":1351440,
			"target":34962
		},
		{
			"buffer":0,
			"byteLength":2448,
			"byteOffset":1353888,
			"target":34962
		},
		{
			"buffer":0,
			"byteLength":1632,
			"byteOffset":1356336,
			"target":34962
		},
		{
			"buffer":0,
			"byteLength":408,
			"byteOffset":1357968,
			"target":34963
		},
		{
			"buffer":0,
			"byteLength":7632,
			"byteOffset":1358376,
			"target":34962
		},
		{
			"buffer":0,
			"byteLength":7632,
			"byteOffset":1366008,
			"target":34962
		},
		{
			"buffer":0,
			"byteLength":5088,
			"byteOffset":1373640,
			"target":34962
		},
		{
			"buffer":0,
			"byteLength":1272,
			"byteOffset":1378728,
			"target":34963
		},
		{
			"buffer":0,
			"byteLength":7632,
			"byteOffset":1380000,
			"target":34962
		},
		{
			"buffer":0,
			"byteLength":7632,
			"byteOffset":1387632,
			"target":34962
		},
		{
			"buffer":0,
			"byteLength":5088,
			"byteOffset":1395264,
			"target":34962
		},
		{
			"buffer":0,
			"byteLength":12240,
			"byteOffset":1400352,
			"target":34962
		},
		{
			"buffer":0,
			"byteLength":12240,
			"byteOffset":1412592,
			"target":34962
		},
		{
			"buffer":0,
			"byteLength":8160,
			"byteOffset":1424832,
			"target":34962
		},
		{
			"buffer":0,
			"byteLength":2040,
			"byteOffset":1432992,
			"target":34963
		},
		{
			"buffer":0,
			"byteLength":3456,
			"byteOffset":1435032,
			"target":34962
		},
		{
			"buffer":0,
			"byteLength":3456,
			"byteOffset":1438488,
			"target":34962
		},
		{
			"buffer":0,
			"byteLength":2304,
			"byteOffset":1441944,
			"target":34962
		},
		{
			"buffer":0,
			"byteLength":576,
			"byteOffset":1444248,
			"target":34963
		},
		{
			"buffer":0,
			"byteLength":3672,
			"byteOffset":1444824,
			"target":34962
		},
		{
			"buffer":0,
			"byteLength":3672,
			"byteOffset":1448496,
			"target":34962
		},
		{
			"buffer":0,
			"byteLength":2448,
			"byteOffset":1452168,
			"target":34962
		},
		{
			"buffer":0,
			"byteLength":612,
			"byteOffset":1454616,
			"target":34963
		},
		{
			"buffer":0,
			"byteLength":3672,
			"byteOffset":1455228,
			"target":34962
		},
		{
			"buffer":0,
			"byteLength":3672,
			"byteOffset":1458900,
			"target":34962
		},
		{
			"buffer":0,
			"byteLength":2448,
			"byteOffset":1462572,
			"target":34962
		},
		{
			"buffer":0,
			"byteLength":6336,
			"byteOffset":1465020,
			"target":34962
		},
		{
			"buffer":0,
			"byteLength":6336,
			"byteOffset":1471356,
			"target":34962
		},
		{
			"buffer":0,
			"byteLength":4224,
			"byteOffset":1477692,
			"target":34962
		},
		{
			"buffer":0,
			"byteLength":1056,
			"byteOffset":1481916,
			"target":34963
		},
		{
			"buffer":0,
			"byteLength":288,
			"byteOffset":1482972,
			"target":34962
		},
		{
			"buffer":0,
			"byteLength":288,
			"byteOffset":1483260,
			"target":34962
		},
		{
			"buffer":0,
			"byteLength":192,
			"byteOffset":1483548,
			"target":34962
		},
		{
			"buffer":0,
			"byteLength":24192,
			"byteOffset":1483740,
			"target":34962
		},
		{
			"buffer":0,
			"byteLength":24192,
			"byteOffset":1507932,
			"target":34962
		},
		{
			"buffer":0,
			"byteLength":16128,
			"byteOffset":1532124,
			"target":34962
		},
		{
			"buffer":0,
			"byteLength":4032,
			"byteOffset":1548252,
			"target":34963
		},
		{
			"buffer":0,
			"byteLength":3456,
			"byteOffset":1552284,
			"target":34962
		},
		{
			"buffer":0,
			"byteLength":3456,
			"byteOffset":1555740,
			"target":34962
		},
		{
			"buffer":0,
			"byteLength":2304,
			"byteOffset":1559196,
			"target":34962
		},
		{
			"buffer":0,
			"byteLength":2592,
			"byteOffset":1561500,
			"target":34962
		},
		{
			"buffer":0,
			"byteLength":2592,
			"byteOffset":1564092,
			"target":34962
		},
		{
			"buffer":0,
			"byteLength":1728,
			"byteOffset":1566684,
			"target":34962
		},
		{
			"buffer":0,
			"byteLength":432,
			"byteOffset":1568412,
			"target":34963
		},
		{
			"buffer":0,
			"byteLength":9432,
			"byteOffset":1568844,
			"target":34962
		},
		{
			"buffer":0,
			"byteLength":9432,
			"byteOffset":1578276,
			"target":34962
		},
		{
			"buffer":0,
			"byteLength":6288,
			"byteOffset":1587708,
			"target":34962
		},
		{
			"buffer":0,
			"byteLength":1572,
			"byteOffset":1593996,
			"target":34963
		},
		{
			"buffer":0,
			"byteLength":1728,
			"byteOffset":1595568,
			"target":34962
		},
		{
			"buffer":0,
			"byteLength":1728,
			"byteOffset":1597296,
			"target":34962
		},
		{
			"buffer":0,
			"byteLength":1152,
			"byteOffset":1599024,
			"target":34962
		},
		{
			"buffer":0,
			"byteLength":4896,
			"byteOffset":1600176,
			"target":34962
		},
		{
			"buffer":0,
			"byteLength":4896,
			"byteOffset":1605072,
			"target":34962
		},
		{
			"buffer":0,
			"byteLength":3264,
			"byteOffset":1609968,
			"target":34962
		},
		{
			"buffer":0,
			"byteLength":816,
			"byteOffset":1613232,
			"target":34963
		},
		{
			"buffer":0,
			"byteLength":6408,
			"byteOffset":1614048,
			"target":34962
		},
		{
			"buffer":0,
			"byteLength":6408,
			"byteOffset":1620456,
			"target":34962
		},
		{
			"buffer":0,
			"byteLength":4272,
			"byteOffset":1626864,
			"target":34962
		},
		{
			"buffer":0,
			"byteLength":1068,
			"byteOffset":1631136,
			"target":34963
		},
		{
			"buffer":0,
			"byteLength":7272,
			"byteOffset":1632204,
			"target":34962
		},
		{
			"buffer":0,
			"byteLength":7272,
			"byteOffset":1639476,
			"target":34962
		},
		{
			"buffer":0,
			"byteLength":4848,
			"byteOffset":1646748,
			"target":34962
		},
		{
			"buffer":0,
			"byteLength":1212,
			"byteOffset":1651596,
			"target":34963
		},
		{
			"buffer":0,
			"byteLength":7272,
			"byteOffset":1652808,
			"target":34962
		},
		{
			"buffer":0,
			"byteLength":7272,
			"byteOffset":1660080,
			"target":34962
		},
		{
			"buffer":0,
			"byteLength":4848,
			"byteOffset":1667352,
			"target":34962
		},
		{
			"buffer":0,
			"byteLength":9072,
			"byteOffset":1672200,
			"target":34962
		},
		{
			"buffer":0,
			"byteLength":9072,
			"byteOffset":1681272,
			"target":34962
		},
		{
			"buffer":0,
			"byteLength":6048,
			"byteOffset":1690344,
			"target":34962
		},
		{
			"buffer":0,
			"byteLength":1512,
			"byteOffset":1696392,
			"target":34963
		},
		{
			"buffer":0,
			"byteLength":2016,
			"byteOffset":1697904,
			"target":34962
		},
		{
			"buffer":0,
			"byteLength":2016,
			"byteOffset":1699920,
			"target":34962
		},
		{
			"buffer":0,
			"byteLength":1344,
			"byteOffset":1701936,
			"target":34962
		},
		{
			"buffer":0,
			"byteLength":336,
			"byteOffset":1703280,
			"target":34963
		},
		{
			"buffer":0,
			"byteLength":4392,
			"byteOffset":1703616,
			"target":34962
		},
		{
			"buffer":0,
			"byteLength":4392,
			"byteOffset":1708008,
			"target":34962
		},
		{
			"buffer":0,
			"byteLength":2928,
			"byteOffset":1712400,
			"target":34962
		},
		{
			"buffer":0,
			"byteLength":732,
			"byteOffset":1715328,
			"target":34963
		},
		{
			"buffer":0,
			"byteLength":6732,
			"byteOffset":1716060,
			"target":34962
		},
		{
			"buffer":0,
			"byteLength":6732,
			"byteOffset":1722792,
			"target":34962
		},
		{
			"buffer":0,
			"byteLength":4488,
			"byteOffset":1729524,
			"target":34962
		},
		{
			"buffer":0,
			"byteLength":1122,
			"byteOffset":1734012,
			"target":34963
		},
		{
			"buffer":0,
			"byteLength":2232,
			"byteOffset":1735136,
			"target":34962
		},
		{
			"buffer":0,
			"byteLength":2232,
			"byteOffset":1737368,
			"target":34962
		},
		{
			"buffer":0,
			"byteLength":1488,
			"byteOffset":1739600,
			"target":34962
		},
		{
			"buffer":0,
			"byteLength":372,
			"byteOffset":1741088,
			"target":34963
		},
		{
			"buffer":0,
			"byteLength":288,
			"byteOffset":1741460,
			"target":34962
		},
		{
			"buffer":0,
			"byteLength":288,
			"byteOffset":1741748,
			"target":34962
		},
		{
			"buffer":0,
			"byteLength":192,
			"byteOffset":1742036,
			"target":34962
		},
		{
			"buffer":0,
			"byteLength":1224,
			"byteOffset":1742228,
			"target":34962
		},
		{
			"buffer":0,
			"byteLength":1224,
			"byteOffset":1743452,
			"target":34962
		},
		{
			"buffer":0,
			"byteLength":816,
			"byteOffset":1744676,
			"target":34962
		},
		{
			"buffer":0,
			"byteLength":204,
			"byteOffset":1745492,
			"target":34963
		},
		{
			"buffer":0,
			"byteLength":864,
			"byteOffset":1745696,
			"target":34962
		},
		{
			"buffer":0,
			"byteLength":864,
			"byteOffset":1746560,
			"target":34962
		},
		{
			"buffer":0,
			"byteLength":576,
			"byteOffset":1747424,
			"target":34962
		},
		{
			"buffer":0,
			"byteLength":144,
			"byteOffset":1748000,
			"target":34963
		},
		{
			"buffer":0,
			"byteLength":8352,
			"byteOffset":1748144,
			"target":34962
		},
		{
			"buffer":0,
			"byteLength":8352,
			"byteOffset":1756496,
			"target":34962
		},
		{
			"buffer":0,
			"byteLength":5568,
			"byteOffset":1764848,
			"target":34962
		},
		{
			"buffer":0,
			"byteLength":1392,
			"byteOffset":1770416,
			"target":34963
		},
		{
			"buffer":0,
			"byteLength":120,
			"byteOffset":1771808,
			"target":34962
		},
		{
			"buffer":0,
			"byteLength":120,
			"byteOffset":1771928,
			"target":34962
		},
		{
			"buffer":0,
			"byteLength":80,
			"byteOffset":1772048,
			"target":34962
		},
		{
			"buffer":0,
			"byteLength":120,
			"byteOffset":1772128,
			"target":34962
		},
		{
			"buffer":0,
			"byteLength":120,
			"byteOffset":1772248,
			"target":34962
		},
		{
			"buffer":0,
			"byteLength":80,
			"byteOffset":1772368,
			"target":34962
		}
	],
	"samplers":[
		{
			"magFilter":9729,
			"minFilter":9987
		}
	],
	"buffers":[
		{
			"byteLength":1772448,
			"uri":"Pass_CupAmm7.bin"
		}
	]
}
