{
	"asset":{
		"generator":"Khronos glTF Blender I/O v4.4.56",
		"version":"2.0"
	},
	"extensionsUsed":[
		"KHR_materials_specular"
	],
	"scene":0,
	"scenes":[
		{
			"name":"Scene",
			"nodes":[
				0
			]
		}
	],
	"nodes":[
		{
			"mesh":0,
			"name":"Windows"
		}
	],
	"materials":[
		{
			"doubleSided":true,
			"emissiveTexture":{
				"index":0
			},
			"extensions":{
				"KHR_materials_specular":{
					"specularFactor":0
				}
			},
			"name":"Material_pass_17669_two_sided",
			"pbrMetallicRoughness":{
				"baseColorTexture":{
					"index":1
				},
				"roughnessFactor":0.75
			}
		}
	],
	"meshes":[
		{
			"name":"Body.001",
			"primitives":[
				{
					"attributes":{
						"POSITION":0,
						"NORMAL":1,
						"TEXCOORD_0":2
					},
					"indices":3,
					"material":0
				}
			]
		}
	],
	"textures":[
		{
			"sampler":0,
			"source":0
		},
		{
			"sampler":0,
			"source":1
		}
	],
	"images":[
		{
			"mimeType":"image/png",
			"name":"pass_rzd-17669_emis",
			"uri":"T_pass_rzd-17669/pass_rzd-17669_emis.png"
		},
		{
			"mimeType":"image/png",
			"name":"pass_rzd-17669",
			"uri":"T_pass_rzd-17669/pass_rzd-17669.png"
		}
	],
	"accessors":[
		{
			"bufferView":0,
			"componentType":5126,
			"count":411,
			"max":[
				1.5320316553115845,
				3.433246612548828,
				10.65506649017334
			],
			"min":[
				-1.5320075750350952,
				2.5426793098449707,
				-10.6854887008667
			],
			"type":"VEC3"
		},
		{
			"bufferView":1,
			"componentType":5126,
			"count":411,
			"type":"VEC3"
		},
		{
			"bufferView":2,
			"componentType":5126,
			"count":411,
			"type":"VEC2"
		},
		{
			"bufferView":3,
			"componentType":5123,
			"count":1095,
			"type":"SCALAR"
		}
	],
	"bufferViews":[
		{
			"buffer":0,
			"byteLength":4932,
			"byteOffset":0,
			"target":34962
		},
		{
			"buffer":0,
			"byteLength":4932,
			"byteOffset":4932,
			"target":34962
		},
		{
			"buffer":0,
			"byteLength":3288,
			"byteOffset":9864,
			"target":34962
		},
		{
			"buffer":0,
			"byteLength":2190,
			"byteOffset":13152,
			"target":34963
		}
	],
	"samplers":[
		{
			"magFilter":9729,
			"minFilter":9987
		}
	],
	"buffers":[
		{
			"byteLength":15344,
			"uri":"Pass_CupAmmBar1_windows.bin"
		}
	]
}
