{
	"asset":{
		"generator":"Khronos glTF Blender I/O v4.4.56",
		"version":"2.0"
	},
	"extensionsUsed":[
		"KHR_materials_specular"
	],
	"scene":0,
	"scenes":[
		{
			"name":"Scene",
			"nodes":[
				0
			]
		}
	],
	"nodes":[
		{
			"mesh":0,
			"name":"Windows"
		}
	],
	"materials":[
		{
			"emissiveTexture":{
				"index":0
			},
			"extensions":{
				"KHR_materials_specular":{
					"specularFactor":0
				}
			},
			"name":"Material_pass_16733_two_sided",
			"pbrMetallicRoughness":{
				"baseColorTexture":{
					"index":1
				},
				"roughnessFactor":0.75
			}
		}
	],
	"meshes":[
		{
			"name":"Body.001",
			"primitives":[
				{
					"attributes":{
						"POSITION":0,
						"NORMAL":1,
						"TEXCOORD_0":2
					},
					"indices":3,
					"material":0
				}
			]
		}
	],
	"textures":[
		{
			"sampler":0,
			"source":0
		},
		{
			"sampler":0,
			"source":1
		}
	],
	"images":[
		{
			"mimeType":"image/png",
			"name":"pass_rzd-16733_emis",
			"uri":"T_pass_rzd-16733/pass_rzd-16733_emis.png"
		},
		{
			"mimeType":"image/png",
			"name":"pass_rzd-16733",
			"uri":"T_pass_rzd-16733/pass_rzd-16733.png"
		}
	],
	"accessors":[
		{
			"bufferView":0,
			"componentType":5126,
			"count":397,
			"max":[
				1.532028317451477,
				3.4490954875946045,
				10.67559814453125
			],
			"min":[
				-1.5320076942443848,
				2.535071849822998,
				-9.37299919128418
			],
			"type":"VEC3"
		},
		{
			"bufferView":1,
			"componentType":5126,
			"count":397,
			"type":"VEC3"
		},
		{
			"bufferView":2,
			"componentType":5126,
			"count":397,
			"type":"VEC2"
		},
		{
			"bufferView":3,
			"componentType":5123,
			"count":1044,
			"type":"SCALAR"
		}
	],
	"bufferViews":[
		{
			"buffer":0,
			"byteLength":4764,
			"byteOffset":0,
			"target":34962
		},
		{
			"buffer":0,
			"byteLength":4764,
			"byteOffset":4764,
			"target":34962
		},
		{
			"buffer":0,
			"byteLength":3176,
			"byteOffset":9528,
			"target":34962
		},
		{
			"buffer":0,
			"byteLength":2088,
			"byteOffset":12704,
			"target":34963
		}
	],
	"samplers":[
		{
			"magFilter":9729,
			"minFilter":9987
		}
	],
	"buffers":[
		{
			"byteLength":14792,
			"uri":"Pass_CupAmm7_windows.bin"
		}
	]
}
