{
    "asset": {
        "version": "2.0"
    },
    "scenes": [
        {
            "nodes": [0]
        }
    ],
    "scene": 0,
    "nodes": [
        {
            "name": "Scene Root",
            "children": [1, 5, 8, 11, 14, 17, 20, 24, 28, 32, 36, 39, 43, 47, 50, 54, 58, 62, 66, 69, 72, 75, 78, 81, 84, 88, 92, 95, 99, 102, 106, 109, 112],
            "matrix": [
                1.000000, 0.000000, 0.000000, 0.000000,
                0.000000, 0.000000, -1.000000, 0.000000,
                0.000000, 1.000000, 0.000000, 0.000000,
                0.000000, 0.000000, 0.000000, 1.000000
            ]
        },
        {
            "name": "Stupenky",
            "children": [2],
            "matrix": [
                1.000000, 0.000000, 0.000000, 0.000000,
                0.000000, 1.000000, 0.000000, 0.000000,
                0.000000, 0.000000, 1.000000, 0.000000,
                0.000000, -0.000000, 0.000000, 1.000000
            ]
        },
        {
            "name": "Stupenky-OFFSET",
            "children": [3],
            "matrix": [
                1.000000, 0.000000, 0.000000, 0.000000,
                0.000000, 1.000000, 0.000000, 0.000000,
                0.000000, 0.000000, 1.000000, 0.000000,
                0.000000, 0.000000, 0.067534, 1.000000
            ]
        },
        {
            "name": "Stupenky-GEODE",
            "children": [4]
        },
        {
            "name": "02 - Default",
            "mesh": 0
        },
        {
            "name": "PredohrSkob",
            "children": [6],
            "matrix": [
                0.000000, 0.000000, 0.000000, 0.000000,
                0.000000, 0.000000, -0.000000, 0.000000,
                0.000000, 0.000000, 0.000000, 0.000000,
                0.000000, 0.000000, -0.000000, 0.000000
            ]
        },
        {
            "name": "PredohrSkob-GEODE",
            "children": [7]
        },
        {
            "name": "02 - Default",
            "mesh": 1
        },
        {
            "name": "KoncevoyRuk_1",
            "children": [9],
            "matrix": [
                1.000000, 0.000000, 0.000000, 0.000000,
                0.000000, 1.000000, 0.000000, 0.000000,
                0.000000, 0.000000, 1.000000, 0.000000,
                0.000000, -0.000000, 0.067534, 1.000000
            ]
        },
        {
            "name": "KoncevoyRuk_1-GEODE",
            "children": [10]
        },
        {
            "name": "02 - Default",
            "mesh": 2
        },
        {
            "name": "KoncevoyRuk_2",
            "children": [12],
            "matrix": [
                1.000000, 0.000000, 0.000000, 0.000000,
                0.000000, 1.000000, 0.000000, 0.000000,
                0.000000, 0.000000, 1.000000, 0.000000,
                0.000000, -0.000000, 0.067534, 1.000000
            ]
        },
        {
            "name": "KoncevoyRuk_2-GEODE",
            "children": [13]
        },
        {
            "name": "02 - Default",
            "mesh": 3
        },
        {
            "name": "PinchON",
            "children": [15],
            "matrix": [
                1.000000, 0.000000, 0.000000, 0.000000,
                0.000000, 1.000000, 0.000000, 0.000000,
                0.000000, 0.000000, 1.000000, 0.000000,
                0.900758, -12.500300, 0.650838, 1.000000
            ]
        },
        {
            "name": "PinchON-GEODE",
            "children": [16]
        },
        {
            "name": "02 - Default",
            "mesh": 4
        },
        {
            "name": "LestnicaKrisha",
            "children": [18],
            "matrix": [
                1.000000, 0.000000, 0.000000, 0.000000,
                0.000000, 1.000000, 0.000000, 0.000000,
                0.000000, 0.000000, 1.000000, 0.000000,
                0.000000, 0.000000, 0.000000, 1.000000
            ]
        },
        {
            "name": "LestnicaKrisha-GEODE",
            "children": [19]
        },
        {
            "name": "02 - Default",
            "mesh": 5
        },
        {
            "name": "Podveska_ConcRuk",
            "children": [21],
            "matrix": [
                1.000000, 0.000000, 0.000000, 0.000000,
                0.000000, 1.000000, 0.000000, 0.000000,
                0.000000, 0.000000, 1.000000, 0.000000,
                0.000000, -0.000000, 0.000000, 1.000000
            ]
        },
        {
            "name": "Podveska_ConcRuk-OFFSET",
            "children": [22],
            "matrix": [
                1.000000, 0.000000, 0.000000, 0.000000,
                0.000000, 1.000000, 0.000000, 0.000000,
                0.000000, 0.000000, 1.000000, 0.000000,
                0.000000, 0.000000, 0.067534, 1.000000
            ]
        },
        {
            "name": "Podveska_ConcRuk-GEODE",
            "children": [23]
        },
        {
            "name": "02 - Default",
            "mesh": 6
        },
        {
            "name": "ZaglushkaPinch",
            "children": [25],
            "matrix": [
                1.000000, 0.000000, 0.000000, 0.000000,
                0.000000, 1.000000, 0.000000, 0.000000,
                0.000000, 0.000000, 1.000000, 0.000000,
                -0.000001, -0.000002, 0.000000, 1.000000
            ]
        },
        {
            "name": "ZaglushkaPinch-OFFSET",
            "children": [26],
            "matrix": [
                1.000000, 0.000000, 0.000000, 0.000000,
                0.000000, 1.000000, 0.000000, 0.000000,
                0.000000, 0.000000, 1.000000, 0.000000,
                -1.328660, 12.319900, 1.990050, 1.000000
            ]
        },
        {
            "name": "ZaglushkaPinch-GEODE",
            "children": [27]
        },
        {
            "name": "02 - Default",
            "mesh": 7
        },
        {
            "name": "RozetkiOT",
            "children": [29],
            "matrix": [
                1.000000, 0.000000, 0.000000, 0.000000,
                0.000000, 1.000000, 0.000000, 0.000000,
                0.000000, 0.000000, 1.000000, 0.000000,
                0.000000, -0.000000, 0.000000, 1.000000
            ]
        },
        {
            "name": "RozetkiOT-OFFSET",
            "children": [30],
            "matrix": [
                1.000000, 0.000000, 0.000000, 0.000000,
                0.000000, 1.000000, 0.000000, 0.000000,
                0.000000, 0.000000, 1.000000, 0.000000,
                0.000000, 0.000000, 0.067534, 1.000000
            ]
        },
        {
            "name": "RozetkiOT-GEODE",
            "children": [31]
        },
        {
            "name": "02 - Default",
            "mesh": 8
        },
        {
            "name": "Rascep",
            "children": [33],
            "matrix": [
                1.000000, 0.000000, 0.000000, 0.000000,
                0.000000, 1.000000, 0.000000, 0.000000,
                0.000000, 0.000000, 1.000000, 0.000000,
                0.000000, -0.000000, 0.000000, 1.000000
            ]
        },
        {
            "name": "Rascep-OFFSET",
            "children": [34],
            "matrix": [
                1.000000, 0.000000, 0.000000, 0.000000,
                0.000000, 1.000000, 0.000000, 0.000000,
                0.000000, 0.000000, 1.000000, 0.000000,
                0.000000, 0.000000, 0.067534, 1.000000
            ]
        },
        {
            "name": "Rascep-GEODE",
            "children": [35]
        },
        {
            "name": "02 - Default",
            "mesh": 9
        },
        {
            "name": "Hvost_signal",
            "children": [37],
            "matrix": [
                1.000000, 0.000000, 0.000000, 0.000000,
                0.000000, 1.000000, 0.000000, 0.000000,
                0.000000, 0.000000, 1.000000, 0.000000,
                0.000000, -0.000000, 0.000000, 1.000000
            ]
        },
        {
            "name": "Hvost_signal-GEODE",
            "children": [38]
        },
        {
            "name": "02 - Default",
            "mesh": 10
        },
        {
            "name": "Podtambur",
            "children": [40],
            "matrix": [
                1.000000, 0.000000, 0.000000, 0.000000,
                0.000000, 1.000000, 0.000000, 0.000000,
                0.000000, 0.000000, 1.000000, 0.000000,
                0.000000, -0.000000, 0.000000, 1.000000
            ]
        },
        {
            "name": "Podtambur-OFFSET",
            "children": [41],
            "matrix": [
                1.000000, 0.000000, 0.000000, 0.000000,
                0.000000, 1.000000, 0.000000, 0.000000,
                0.000000, 0.000000, 1.000000, 0.000000,
                0.000000, 0.000000, 0.067534, 1.000000
            ]
        },
        {
            "name": "Podtambur-GEODE",
            "children": [42]
        },
        {
            "name": "02 - Default",
            "mesh": 11
        },
        {
            "name": "Fartuki",
            "children": [44],
            "matrix": [
                1.000000, 0.000000, 0.000000, 0.000000,
                0.000000, 1.000000, 0.000000, 0.000000,
                0.000000, 0.000000, 1.000000, 0.000000,
                0.000000, -0.000000, 0.000000, 1.000000
            ]
        },
        {
            "name": "Fartuki-OFFSET",
            "children": [45],
            "matrix": [
                1.000000, 0.000000, 0.000000, 0.000000,
                0.000000, 1.000000, 0.000000, 0.000000,
                0.000000, 0.000000, 1.000000, 0.000000,
                0.000000, 0.000000, 0.067534, 1.000000
            ]
        },
        {
            "name": "Fartuki-GEODE",
            "children": [46]
        },
        {
            "name": "02 - Default",
            "mesh": 12
        },
        {
            "name": "Perehod_det",
            "children": [48],
            "matrix": [
                1.000000, 0.000000, 0.000000, 0.000000,
                0.000000, 1.000000, 0.000000, 0.000000,
                0.000000, 0.000000, 1.000000, 0.000000,
                0.000049, 0.000000, 0.000000, 1.000000
            ]
        },
        {
            "name": "Perehod_det-GEODE",
            "children": [49]
        },
        {
            "name": "02 - Default",
            "mesh": 13
        },
        {
            "name": "SA-3-1",
            "children": [51],
            "matrix": [
                0.000000, 0.000000, 0.000000, 0.000000,
                0.000000, 0.000000, 0.000000, 0.000000,
                0.000000, 0.000000, 0.000000, 0.000000,
                0.000000, 0.000000, 0.000000, 0.000000
            ]
        },
        {
            "name": "SA-3-1-OFFSET",
            "children": [52],
            "matrix": [
                -1.000000, -0.000000, 0.000000, 0.000000,
                0.000000, -1.000000, 0.000000, 0.000000,
                0.000000, 0.000000, 1.000000, 0.000000,
                -0.080043, -7.995270, 1.286420, 1.000000
            ]
        },
        {
            "name": "SA-3-1-GEODE",
            "children": [53]
        },
        {
            "name": "02 - Default",
            "mesh": 14
        },
        {
            "name": "SA-3-2",
            "children": [55],
            "matrix": [
                -1.000000, -0.000000, 0.000000, 0.000000,
                0.000000, -1.000000, 0.000000, 0.000000,
                0.000000, 0.000000, 1.000000, 0.000000,
                0.000000, 0.000000, 0.000000, 1.000000
            ]
        },
        {
            "name": "SA-3-2-OFFSET",
            "children": [56],
            "matrix": [
                -1.000000, -0.000000, 0.000000, 0.000000,
                0.000000, -1.000000, 0.000000, 0.000000,
                0.000000, 0.000000, 1.000000, 0.000000,
                -0.080043, -7.995270, 1.286420, 1.000000
            ]
        },
        {
            "name": "SA-3-2-GEODE",
            "children": [57]
        },
        {
            "name": "02 - Default",
            "mesh": 15
        },
        {
            "name": "PinchOFF_2",
            "children": [59],
            "matrix": [
                -1.000000, -0.000000, 0.000000, 0.000000,
                0.000000, -1.000000, 0.000000, 0.000000,
                0.000000, 0.000000, 1.000000, 0.000000,
                0.000000, -0.000000, 0.000000, 1.000000
            ]
        },
        {
            "name": "PinchOFF_2-OFFSET",
            "children": [60],
            "matrix": [
                1.000000, 0.000000, 0.000000, 0.000000,
                0.000000, 1.000000, 0.000000, 0.000000,
                0.000000, 0.000000, 1.000000, 0.000000,
                0.000000, 0.000000, 0.067534, 1.000000
            ]
        },
        {
            "name": "PinchOFF_2-GEODE",
            "children": [61]
        },
        {
            "name": "02 - Default",
            "mesh": 16
        },
        {
            "name": "FanTrub",
            "children": [63],
            "matrix": [
                1.000000, 0.000000, 0.000000, 0.000000,
                0.000000, 1.000000, 0.000000, 0.000000,
                0.000000, 0.000000, 1.000000, 0.000000,
                0.000000, 0.000038, 0.000000, 1.000000
            ]
        },
        {
            "name": "FanTrub-OFFSET",
            "children": [64],
            "matrix": [
                0.194885, 0.000000, 0.000000, 0.000000,
                0.000000, 0.194885, 0.000000, 0.000000,
                0.000000, 0.000000, 0.194885, 0.000000,
                -1.292470, -10.745000, 1.048220, 1.000000
            ]
        },
        {
            "name": "FanTrub-GEODE",
            "children": [65]
        },
        {
            "name": "02 - Default",
            "mesh": 17
        },
        {
            "name": "Poruchny_ut",
            "children": [67],
            "matrix": [
                1.000000, 0.000000, 0.000000, 0.000000,
                0.000000, 1.000000, 0.000000, 0.000000,
                0.000000, 0.000000, 1.000000, 0.000000,
                0.000199, 0.000000, 2.350500, 1.000000
            ]
        },
        {
            "name": "Poruchny_ut-GEODE",
            "children": [68]
        },
        {
            "name": "02 - Default",
            "mesh": 18
        },
        {
            "name": "Bufera",
            "children": [70],
            "matrix": [
                1.000000, 0.000000, 0.000000, 0.000000,
                0.000000, 1.000000, 0.000000, 0.000000,
                0.000000, 0.000000, 1.000000, 0.000000,
                0.000059, 0.000000, 0.000000, 1.000000
            ]
        },
        {
            "name": "Bufera-GEODE",
            "children": [71]
        },
        {
            "name": "02 - Default",
            "mesh": 19
        },
        {
            "name": "TRP",
            "children": [73],
            "matrix": [
                0.000000, 0.000000, 0.000000, 0.000000,
                0.000000, 0.000000, 0.000000, 0.000000,
                0.000000, 0.000000, 0.000000, 0.000000,
                0.000000, 0.000000, 0.000000, 0.000000
            ]
        },
        {
            "name": "TRP-GEODE",
            "children": [74]
        },
        {
            "name": "02 - Default",
            "mesh": 20
        },
        {
            "name": "AB",
            "children": [76],
            "matrix": [
                1.000000, 0.000000, 0.000000, 0.000000,
                0.000000, 1.000000, 0.000000, 0.000000,
                0.000000, 0.000000, 1.000000, 0.000000,
                -1.160550, 0.133584, 1.106480, 1.000000
            ]
        },
        {
            "name": "AB-GEODE",
            "children": [77]
        },
        {
            "name": "02 - Default",
            "mesh": 21
        },
        {
            "name": "MAB-II",
            "children": [79],
            "matrix": [
                1.000000, 0.000000, 0.000000, 0.000000,
                0.000000, 1.000000, 0.000000, 0.000000,
                0.000000, 0.000000, 1.000000, 0.000000,
                1.005670, -4.111570, 1.005140, 1.000000
            ]
        },
        {
            "name": "MAB-II-GEODE",
            "children": [80]
        },
        {
            "name": "02 - Default",
            "mesh": 22
        },
        {
            "name": "Avtotormoz242",
            "children": [82],
            "matrix": [
                0.817979, 0.000000, 0.000000, 0.000000,
                0.000000, 0.817979, 0.000000, 0.000000,
                0.000000, 0.000000, 1.105430, 0.000000,
                -0.433996, 1.661490, 1.012400, 1.000000
            ]
        },
        {
            "name": "Avtotormoz242-GEODE",
            "children": [83]
        },
        {
            "name": "02 - Default",
            "mesh": 23
        },
        {
            "name": "YashikMAB",
            "children": [85],
            "matrix": [
                1.154800, 0.000000, 0.000000, 0.000000,
                0.000000, 1.154800, 0.000000, 0.000000,
                0.000000, 0.000000, 1.154800, 0.000000,
                1.077090, 0.276577, 1.079640, 1.000000
            ]
        },
        {
            "name": "YashikMAB-OFFSET",
            "children": [86],
            "matrix": [
                1.000000, 0.000000, 0.000000, 0.000000,
                0.000000, 1.000000, 0.000000, 0.000000,
                0.000000, 0.000000, 1.000000, 0.000000,
                0.000000, 0.109237, -0.246244, 1.000000
            ]
        },
        {
            "name": "YashikMAB-GEODE",
            "children": [87]
        },
        {
            "name": "02 - Default",
            "mesh": 24
        },
        {
            "name": "Yashik_3Kv",
            "children": [89],
            "matrix": [
                0.712451, 0.000000, 0.000000, 0.000000,
                0.000000, 0.868035, 0.000000, 0.000000,
                0.000000, 0.000000, 0.727101, 0.000000,
                0.952584, -5.822190, 1.445330, 1.000000
            ]
        },
        {
            "name": "Yashik_3Kv-OFFSET",
            "children": [90],
            "matrix": [
                1.000000, 0.000000, 0.000000, 0.000000,
                0.000000, 1.000000, 0.000000, 0.000000,
                0.000000, 0.000000, 1.000000, 0.000000,
                0.000000, 0.000000, -0.966540, 1.000000
            ]
        },
        {
            "name": "Yashik_3Kv-GEODE",
            "children": [91]
        },
        {
            "name": "02 - Default",
            "mesh": 25
        },
        {
            "name": "OtpuskVR",
            "children": [93],
            "matrix": [
                1.000000, 0.000000, -0.000000, 0.000000,
                -0.000000, 1.000000, 0.000000, 0.000000,
                0.000000, -0.000000, 1.000000, 0.000000,
                0.247318, 0.808794, 1.009060, 1.000000
            ]
        },
        {
            "name": "OtpuskVR-GEODE",
            "children": [94]
        },
        {
            "name": "02 - Default",
            "mesh": 26
        },
        {
            "name": "MainRaspredShit",
            "children": [96],
            "matrix": [
                0.465475, 0.000000, 0.000000, 0.000000,
                0.000000, 1.150370, 0.000000, 0.000000,
                0.000000, 0.000000, 1.077400, 0.000000,
                1.009850, 2.827510, 1.004470, 1.000000
            ]
        },
        {
            "name": "MainRaspredShit-OFFSET",
            "children": [97],
            "matrix": [
                1.000000, 0.000000, 0.000000, 0.000000,
                0.000000, 1.000000, 0.000000, 0.000000,
                0.000000, 0.000000, 1.000000, 0.000000,
                0.000000, 0.000000, -0.397867, 1.000000
            ]
        },
        {
            "name": "MainRaspredShit-GEODE",
            "children": [98]
        },
        {
            "name": "02 - Default",
            "mesh": 27
        },
        {
            "name": "PredohrSkob001",
            "children": [100],
            "matrix": [
                0.000000, 0.000000, 0.000000, 0.000000,
                0.000000, 0.000000, 0.000000, 0.000000,
                0.000000, 0.000000, 0.000000, 0.000000,
                0.000000, 0.000000, 0.000000, 0.000000
            ]
        },
        {
            "name": "PredohrSkob001-GEODE",
            "children": [101]
        },
        {
            "name": "02 - Default",
            "mesh": 28
        },
        {
            "name": "PredohrKV",
            "children": [103],
            "matrix": [
                -1.000000, 0.000000, 0.000000, 0.000000,
                -0.000000, -1.000000, 0.000000, 0.000000,
                0.000000, 0.000000, 1.000000, 0.000000,
                0.000000, 6.138000, 1.026120, 1.000000
            ]
        },
        {
            "name": "PredohrKV-OFFSET",
            "children": [104],
            "matrix": [
                1.000000, 0.000000, 0.000000, 0.000000,
                0.000000, 1.000000, 0.000000, 0.000000,
                0.000000, 0.000000, 1.000000, 0.000000,
                -0.000042, 0.000025, -0.033443, 1.000000
            ]
        },
        {
            "name": "PredohrKV-GEODE",
            "children": [105]
        },
        {
            "name": "02 - Default",
            "mesh": 29
        },
        {
            "name": "Roof_nadstr",
            "children": [107],
            "matrix": [
                1.000000, 0.000000, 0.000000, 0.000000,
                0.000000, 1.000000, 0.000000, 0.000000,
                0.000000, 0.000000, 1.000000, 0.000000,
                0.034112, -0.000153, 4.716020, 1.000000
            ]
        },
        {
            "name": "Roof_nadstr-GEODE",
            "children": [108]
        },
        {
            "name": "02 - Default",
            "mesh": 30
        },
        {
            "name": "RezinaPerehod",
            "children": [110],
            "matrix": [
                1.000000, 0.000000, 0.000000, 0.000000,
                0.000000, 1.000000, 0.000000, 0.000000,
                0.000000, 0.000000, 1.000000, 0.000000,
                0.000285, 0.000000, 0.000000, 1.000000
            ]
        },
        {
            "name": "RezinaPerehod-GEODE",
            "children": [111]
        },
        {
            "name": "02 - Default",
            "mesh": 31
        },
        {
            "name": "Body",
            "children": [113, 116, 127, 138],
            "matrix": [
                1.000000, 0.000000, 0.000000, 0.000000,
                0.000000, 1.000000, 0.000000, 0.000000,
                0.000000, 0.000000, 1.000000, 0.000000,
                0.000000, -0.000000, 0.000000, 1.000000
            ]
        },
        {
            "name": "Body-OFFSET",
            "children": [114],
            "matrix": [
                1.000000, 0.000000, 0.000000, 0.000000,
                0.000000, 1.000000, 0.000000, 0.000000,
                0.000000, 0.000000, 1.000000, 0.000000,
                0.000000, 0.000000, 0.067534, 1.000000
            ]
        },
        {
            "name": "Body-GEODE",
            "children": [115]
        },
        {
            "name": "02 - Default",
            "mesh": 32
        },
        {
            "name": "Boige-1",
            "children": [117, 119, 123],
            "matrix": [
                1.000000, 0.000000, 0.000000, 0.000000,
                0.000000, 1.000000, 0.000000, 0.000000,
                0.000000, 0.000000, 1.000000, 0.000000,
                0.000000, -8.700000, 0.000000, 1.000000
            ]
        },
        {
            "name": "Boige-1-GEODE",
            "children": [118]
        },
        {
            "name": "02 - Default",
            "mesh": 33
        },
        {
            "name": "Wheel-1",
            "children": [120],
            "matrix": [
                1.000000, 0.000000, 0.000000, 0.000000,
                0.000000, 1.000000, 0.000000, 0.000000,
                0.000000, 0.000000, 1.000000, 0.000000,
                0.000000, -1.200000, 0.786236, 1.000000
            ]
        },
        {
            "name": "Wheel-1-OFFSET",
            "children": [121],
            "matrix": [
                -1.000000, -0.000000, 0.000000, 0.000000,
                0.000000, -1.000000, 0.000000, 0.000000,
                0.000000, 0.000000, 1.000000, 0.000000,
                -0.000000, 1.200000, -0.786236, 1.000000
            ]
        },
        {
            "name": "Wheel-1-GEODE",
            "children": [122]
        },
        {
            "name": "02 - Default",
            "mesh": 34
        },
        {
            "name": "Wheel-2",
            "children": [124],
            "matrix": [
                1.000000, 0.000000, 0.000000, 0.000000,
                0.000000, 1.000000, 0.000000, 0.000000,
                0.000000, 0.000000, 1.000000, 0.000000,
                0.000000, 1.200000, 0.786236, 1.000000
            ]
        },
        {
            "name": "Wheel-2-OFFSET",
            "children": [125],
            "matrix": [
                -1.000000, -0.000000, 0.000000, 0.000000,
                0.000000, -1.000000, 0.000000, 0.000000,
                0.000000, 0.000000, 1.000000, 0.000000,
                -0.000000, 1.200000, -0.786236, 1.000000
            ]
        },
        {
            "name": "Wheel-2-GEODE",
            "children": [126]
        },
        {
            "name": "02 - Default",
            "mesh": 35
        },
        {
            "name": "Boige-2",
            "children": [128, 130, 134],
            "matrix": [
                1.000000, 0.000000, 0.000000, 0.000000,
                0.000000, 1.000000, 0.000000, 0.000000,
                0.000000, 0.000000, 1.000000, 0.000000,
                0.000000, 8.700000, 0.000000, 1.000000
            ]
        },
        {
            "name": "Boige-2-GEODE",
            "children": [129]
        },
        {
            "name": "02 - Default",
            "mesh": 36
        },
        {
            "name": "Wheel-4",
            "children": [131],
            "matrix": [
                1.000000, 0.000000, 0.000000, 0.000000,
                0.000000, 1.000000, 0.000000, 0.000000,
                0.000000, 0.000000, 1.000000, 0.000000,
                0.000000, 1.200000, 0.786236, 1.000000
            ]
        },
        {
            "name": "Wheel-4-OFFSET",
            "children": [132],
            "matrix": [
                -1.000000, -0.000000, 0.000000, 0.000000,
                0.000000, -1.000000, 0.000000, 0.000000,
                0.000000, 0.000000, 1.000000, 0.000000,
                -0.000000, 1.200000, -0.786236, 1.000000
            ]
        },
        {
            "name": "Wheel-4-GEODE",
            "children": [133]
        },
        {
            "name": "02 - Default",
            "mesh": 37
        },
        {
            "name": "Wheel-3",
            "children": [135],
            "matrix": [
                1.000000, 0.000000, 0.000000, 0.000000,
                0.000000, 1.000000, 0.000000, 0.000000,
                0.000000, 0.000000, 1.000000, 0.000000,
                -0.000000, -1.200000, 0.786236, 1.000000
            ]
        },
        {
            "name": "Wheel-3-OFFSET",
            "children": [136],
            "matrix": [
                -1.000000, -0.000000, 0.000000, 0.000000,
                0.000000, -1.000000, 0.000000, 0.000000,
                0.000000, 0.000000, 1.000000, 0.000000,
                0.000000, -1.200000, -0.786236, 1.000000
            ]
        },
        {
            "name": "Wheel-3-GEODE",
            "children": [137]
        },
        {
            "name": "02 - Default",
            "mesh": 38
        },
        {
            "name": "DCG-4435",
            "children": [139, 141, 144],
            "matrix": [
                1.000000, 0.000000, 0.000000, 0.000000,
                0.000000, 1.000000, 0.000000, 0.000000,
                0.000000, 0.000000, 1.000000, 0.000000,
                -0.000000, 5.034990, 0.850412, 1.000000
            ]
        },
        {
            "name": "DCG-4435-GEODE",
            "children": [140]
        },
        {
            "name": "02 - Default",
            "mesh": 39
        },
        {
            "name": "Gen_Mufta1",
            "children": [142],
            "matrix": [
                -1.000000, -0.000000, 0.000000, 0.000000,
                0.000000, -1.000000, 0.000000, 0.000000,
                0.000000, 0.000000, 1.000000, 0.000000,
                0.000000, 0.497015, -0.000412, 1.000000
            ]
        },
        {
            "name": "Gen_Mufta1-GEODE",
            "children": [143]
        },
        {
            "name": "02 - Default",
            "mesh": 40
        },
        {
            "name": "Gen_Kardan",
            "children": [145],
            "matrix": [
                -1.000000, 0.000000, -0.000000, 0.000000,
                -0.000000, -0.998971, 0.045363, 0.000000,
                -0.000000, 0.045363, 0.998971, 0.000000,
                0.000000, 2.087010, -0.071535, 1.000000
            ]
        },
        {
            "name": "Gen_Kardan-OFFSET",
            "children": [146],
            "matrix": [
                1.000000, 0.000000, -0.000000, 0.000000,
                -0.000000, 0.999048, 0.043619, 0.000000,
                0.000000, -0.043619, 0.999048, 0.000000,
                0.000000, 0.760554, 0.000000, 1.000000
            ]
        },
        {
            "name": "Gen_Kardan-GEODE",
            "children": [147]
        },
        {
            "name": "02 - Default",
            "mesh": 41
        }
    ],
    "buffers": [
        {
            "byteLength": 1995300,
            "uri": "Pass_RestAmm2.bin"
        }
    ],
    "bufferViews": [
        {
            "buffer": 0,
            "byteLength": 24192,
            "byteOffset": 0,
            "target": 34962
        },
        {
            "buffer": 0,
            "byteLength": 3024,
            "byteOffset": 24192,
            "target": 34963
        },
        {
            "buffer": 0,
            "byteLength": 6912,
            "byteOffset": 27216,
            "target": 34962
        },
        {
            "buffer": 0,
            "byteLength": 864,
            "byteOffset": 34128,
            "target": 34963
        },
        {
            "buffer": 0,
            "byteLength": 20352,
            "byteOffset": 34992,
            "target": 34962
        },
        {
            "buffer": 0,
            "byteLength": 2544,
            "byteOffset": 55344,
            "target": 34963
        },
        {
            "buffer": 0,
            "byteLength": 20352,
            "byteOffset": 57888,
            "target": 34962
        },
        {
            "buffer": 0,
            "byteLength": 2544,
            "byteOffset": 78240,
            "target": 34963
        },
        {
            "buffer": 0,
            "byteLength": 9792,
            "byteOffset": 80784,
            "target": 34962
        },
        {
            "buffer": 0,
            "byteLength": 1224,
            "byteOffset": 90576,
            "target": 34963
        },
        {
            "buffer": 0,
            "byteLength": 32640,
            "byteOffset": 91800,
            "target": 34962
        },
        {
            "buffer": 0,
            "byteLength": 4080,
            "byteOffset": 124440,
            "target": 34963
        },
        {
            "buffer": 0,
            "byteLength": 768,
            "byteOffset": 128520,
            "target": 34962
        },
        {
            "buffer": 0,
            "byteLength": 96,
            "byteOffset": 129288,
            "target": 34963
        },
        {
            "buffer": 0,
            "byteLength": 22272,
            "byteOffset": 129384,
            "target": 34962
        },
        {
            "buffer": 0,
            "byteLength": 2784,
            "byteOffset": 151656,
            "target": 34963
        },
        {
            "buffer": 0,
            "byteLength": 17088,
            "byteOffset": 154440,
            "target": 34962
        },
        {
            "buffer": 0,
            "byteLength": 2136,
            "byteOffset": 171528,
            "target": 34963
        },
        {
            "buffer": 0,
            "byteLength": 25152,
            "byteOffset": 173664,
            "target": 34962
        },
        {
            "buffer": 0,
            "byteLength": 3144,
            "byteOffset": 198816,
            "target": 34963
        },
        {
            "buffer": 0,
            "byteLength": 9216,
            "byteOffset": 201960,
            "target": 34962
        },
        {
            "buffer": 0,
            "byteLength": 1152,
            "byteOffset": 211176,
            "target": 34963
        },
        {
            "buffer": 0,
            "byteLength": 16896,
            "byteOffset": 212328,
            "target": 34962
        },
        {
            "buffer": 0,
            "byteLength": 2112,
            "byteOffset": 229224,
            "target": 34963
        },
        {
            "buffer": 0,
            "byteLength": 384,
            "byteOffset": 231336,
            "target": 34962
        },
        {
            "buffer": 0,
            "byteLength": 48,
            "byteOffset": 231720,
            "target": 34963
        },
        {
            "buffer": 0,
            "byteLength": 9216,
            "byteOffset": 231768,
            "target": 34962
        },
        {
            "buffer": 0,
            "byteLength": 1152,
            "byteOffset": 240984,
            "target": 34963
        },
        {
            "buffer": 0,
            "byteLength": 19392,
            "byteOffset": 242136,
            "target": 34962
        },
        {
            "buffer": 0,
            "byteLength": 2424,
            "byteOffset": 261528,
            "target": 34963
        },
        {
            "buffer": 0,
            "byteLength": 19392,
            "byteOffset": 263952,
            "target": 34962
        },
        {
            "buffer": 0,
            "byteLength": 2424,
            "byteOffset": 283344,
            "target": 34963
        },
        {
            "buffer": 0,
            "byteLength": 9792,
            "byteOffset": 285768,
            "target": 34962
        },
        {
            "buffer": 0,
            "byteLength": 1224,
            "byteOffset": 295560,
            "target": 34963
        },
        {
            "buffer": 0,
            "byteLength": 1152,
            "byteOffset": 296784,
            "target": 34962
        },
        {
            "buffer": 0,
            "byteLength": 144,
            "byteOffset": 297936,
            "target": 34963
        },
        {
            "buffer": 0,
            "byteLength": 64512,
            "byteOffset": 298080,
            "target": 34962
        },
        {
            "buffer": 0,
            "byteLength": 8064,
            "byteOffset": 362592,
            "target": 34963
        },
        {
            "buffer": 0,
            "byteLength": 72192,
            "byteOffset": 370656,
            "target": 34962
        },
        {
            "buffer": 0,
            "byteLength": 9024,
            "byteOffset": 442848,
            "target": 34963
        },
        {
            "buffer": 0,
            "byteLength": 11712,
            "byteOffset": 451872,
            "target": 34962
        },
        {
            "buffer": 0,
            "byteLength": 1464,
            "byteOffset": 463584,
            "target": 34963
        },
        {
            "buffer": 0,
            "byteLength": 22080,
            "byteOffset": 465048,
            "target": 34962
        },
        {
            "buffer": 0,
            "byteLength": 2760,
            "byteOffset": 487128,
            "target": 34963
        },
        {
            "buffer": 0,
            "byteLength": 83424,
            "byteOffset": 489888,
            "target": 34962
        },
        {
            "buffer": 0,
            "byteLength": 10428,
            "byteOffset": 573312,
            "target": 34963
        },
        {
            "buffer": 0,
            "byteLength": 49344,
            "byteOffset": 583740,
            "target": 34962
        },
        {
            "buffer": 0,
            "byteLength": 6168,
            "byteOffset": 633084,
            "target": 34963
        },
        {
            "buffer": 0,
            "byteLength": 2304,
            "byteOffset": 639252,
            "target": 34962
        },
        {
            "buffer": 0,
            "byteLength": 288,
            "byteOffset": 641556,
            "target": 34963
        },
        {
            "buffer": 0,
            "byteLength": 5376,
            "byteOffset": 641844,
            "target": 34962
        },
        {
            "buffer": 0,
            "byteLength": 672,
            "byteOffset": 647220,
            "target": 34963
        },
        {
            "buffer": 0,
            "byteLength": 4608,
            "byteOffset": 647892,
            "target": 34962
        },
        {
            "buffer": 0,
            "byteLength": 576,
            "byteOffset": 652500,
            "target": 34963
        },
        {
            "buffer": 0,
            "byteLength": 768,
            "byteOffset": 653076,
            "target": 34962
        },
        {
            "buffer": 0,
            "byteLength": 96,
            "byteOffset": 653844,
            "target": 34963
        },
        {
            "buffer": 0,
            "byteLength": 6912,
            "byteOffset": 653940,
            "target": 34962
        },
        {
            "buffer": 0,
            "byteLength": 864,
            "byteOffset": 660852,
            "target": 34963
        },
        {
            "buffer": 0,
            "byteLength": 9216,
            "byteOffset": 661716,
            "target": 34962
        },
        {
            "buffer": 0,
            "byteLength": 1152,
            "byteOffset": 670932,
            "target": 34963
        },
        {
            "buffer": 0,
            "byteLength": 41568,
            "byteOffset": 672084,
            "target": 34962
        },
        {
            "buffer": 0,
            "byteLength": 5196,
            "byteOffset": 713652,
            "target": 34963
        },
        {
            "buffer": 0,
            "byteLength": 13056,
            "byteOffset": 718848,
            "target": 34962
        },
        {
            "buffer": 0,
            "byteLength": 1632,
            "byteOffset": 731904,
            "target": 34963
        },
        {
            "buffer": 0,
            "byteLength": 31392,
            "byteOffset": 733536,
            "target": 34962
        },
        {
            "buffer": 0,
            "byteLength": 3924,
            "byteOffset": 764928,
            "target": 34963
        },
        {
            "buffer": 0,
            "byteLength": 463872,
            "byteOffset": 768852,
            "target": 34962
        },
        {
            "buffer": 0,
            "byteLength": 57984,
            "byteOffset": 1232724,
            "target": 34963
        },
        {
            "buffer": 0,
            "byteLength": 23424,
            "byteOffset": 1290708,
            "target": 34962
        },
        {
            "buffer": 0,
            "byteLength": 2928,
            "byteOffset": 1314132,
            "target": 34963
        },
        {
            "buffer": 0,
            "byteLength": 23424,
            "byteOffset": 1317060,
            "target": 34962
        },
        {
            "buffer": 0,
            "byteLength": 2928,
            "byteOffset": 1340484,
            "target": 34963
        },
        {
            "buffer": 0,
            "byteLength": 480384,
            "byteOffset": 1343412,
            "target": 34962
        },
        {
            "buffer": 0,
            "byteLength": 60048,
            "byteOffset": 1823796,
            "target": 34963
        },
        {
            "buffer": 0,
            "byteLength": 23424,
            "byteOffset": 1883844,
            "target": 34962
        },
        {
            "buffer": 0,
            "byteLength": 2928,
            "byteOffset": 1907268,
            "target": 34963
        },
        {
            "buffer": 0,
            "byteLength": 28800,
            "byteOffset": 1910196,
            "target": 34962
        },
        {
            "buffer": 0,
            "byteLength": 3600,
            "byteOffset": 1938996,
            "target": 34963
        },
        {
            "buffer": 0,
            "byteLength": 36864,
            "byteOffset": 1942596,
            "target": 34962
        },
        {
            "buffer": 0,
            "byteLength": 4608,
            "byteOffset": 1979460,
            "target": 34963
        },
        {
            "buffer": 0,
            "byteLength": 4224,
            "byteOffset": 1984068,
            "target": 34962
        },
        {
            "buffer": 0,
            "byteLength": 528,
            "byteOffset": 1988292,
            "target": 34963
        },
        {
            "buffer": 0,
            "byteLength": 5760,
            "byteOffset": 1988820,
            "target": 34962
        },
        {
            "buffer": 0,
            "byteLength": 720,
            "byteOffset": 1994580,
            "target": 34963
        }
    ],
    "accessors": [
        {
            "bufferView": 0,
            "byteOffset": 0,
            "componentType": 5126,
            "count": 756,
            "min": [-1.585020, -11.954800, 0.694404],
            "max": [1.585020, 11.920800, 1.435770],
            "type": "VEC3"
        },
        {
            "bufferView": 0,
            "byteOffset": 9072,
            "componentType": 5126,
            "count": 756,
            "type": "VEC3"
        },
        {
            "bufferView": 0,
            "byteOffset": 18144,
            "componentType": 5126,
            "count": 756,
            "type": "VEC2"
        },
        {
            "bufferView": 1,
            "byteOffset": 0,
            "componentType": 5125,
            "count": 756,
            "type": "SCALAR"
        },
        {
            "bufferView": 2,
            "byteOffset": 0,
            "componentType": 5126,
            "count": 216,
            "min": [-0.687626, -6.547370, 1.204670],
            "max": [0.674220, 6.547470, 1.511240],
            "type": "VEC3"
        },
        {
            "bufferView": 2,
            "byteOffset": 2592,
            "componentType": 5126,
            "count": 216,
            "type": "VEC3"
        },
        {
            "bufferView": 2,
            "byteOffset": 5184,
            "componentType": 5126,
            "count": 216,
            "type": "VEC2"
        },
        {
            "bufferView": 3,
            "byteOffset": 0,
            "componentType": 5125,
            "count": 216,
            "type": "SCALAR"
        },
        {
            "bufferView": 4,
            "byteOffset": 0,
            "componentType": 5126,
            "count": 636,
            "min": [-0.069392, -12.563700, 0.618384],
            "max": [0.472702, -9.935600, 1.248500],
            "type": "VEC3"
        },
        {
            "bufferView": 4,
            "byteOffset": 7632,
            "componentType": 5126,
            "count": 636,
            "type": "VEC3"
        },
        {
            "bufferView": 4,
            "byteOffset": 15264,
            "componentType": 5126,
            "count": 636,
            "type": "VEC2"
        },
        {
            "bufferView": 5,
            "byteOffset": 0,
            "componentType": 5125,
            "count": 636,
            "type": "SCALAR"
        },
        {
            "bufferView": 6,
            "byteOffset": 0,
            "componentType": 5126,
            "count": 636,
            "min": [-0.472703, 9.935600, 0.618384],
            "max": [0.069390, 12.563700, 1.248500],
            "type": "VEC3"
        },
        {
            "bufferView": 6,
            "byteOffset": 7632,
            "componentType": 5126,
            "count": 636,
            "type": "VEC3"
        },
        {
            "bufferView": 6,
            "byteOffset": 15264,
            "componentType": 5126,
            "count": 636,
            "type": "VEC2"
        },
        {
            "bufferView": 7,
            "byteOffset": 0,
            "componentType": 5125,
            "count": 636,
            "type": "SCALAR"
        },
        {
            "bufferView": 8,
            "byteOffset": 0,
            "componentType": 5126,
            "count": 306,
            "min": [-0.113479, -0.383236, -0.081323],
            "max": [0.024356, 0.429146, 0.439040],
            "type": "VEC3"
        },
        {
            "bufferView": 8,
            "byteOffset": 3672,
            "componentType": 5126,
            "count": 306,
            "type": "VEC3"
        },
        {
            "bufferView": 8,
            "byteOffset": 7344,
            "componentType": 5126,
            "count": 306,
            "type": "VEC2"
        },
        {
            "bufferView": 9,
            "byteOffset": 0,
            "componentType": 5125,
            "count": 306,
            "type": "SCALAR"
        },
        {
            "bufferView": 10,
            "byteOffset": 0,
            "componentType": 5126,
            "count": 1020,
            "min": [-1.411530, -12.332200, 1.537230],
            "max": [1.411530, 12.332200, 4.744810],
            "type": "VEC3"
        },
        {
            "bufferView": 10,
            "byteOffset": 12240,
            "componentType": 5126,
            "count": 1020,
            "type": "VEC3"
        },
        {
            "bufferView": 10,
            "byteOffset": 24480,
            "componentType": 5126,
            "count": 1020,
            "type": "VEC2"
        },
        {
            "bufferView": 11,
            "byteOffset": 0,
            "componentType": 5125,
            "count": 1020,
            "type": "SCALAR"
        },
        {
            "bufferView": 12,
            "byteOffset": 0,
            "componentType": 5126,
            "count": 24,
            "min": [-0.097108, -11.900900, 0.593294],
            "max": [0.097106, 11.900900, 1.236650],
            "type": "VEC3"
        },
        {
            "bufferView": 12,
            "byteOffset": 288,
            "componentType": 5126,
            "count": 24,
            "type": "VEC3"
        },
        {
            "bufferView": 12,
            "byteOffset": 576,
            "componentType": 5126,
            "count": 24,
            "type": "VEC2"
        },
        {
            "bufferView": 13,
            "byteOffset": 0,
            "componentType": 5125,
            "count": 24,
            "type": "SCALAR"
        },
        {
            "bufferView": 14,
            "byteOffset": 0,
            "componentType": 5126,
            "count": 696,
            "min": [-0.090964, -24.747000, -0.134710],
            "max": [2.748280, 0.107182, 0.134710],
            "type": "VEC3"
        },
        {
            "bufferView": 14,
            "byteOffset": 8352,
            "componentType": 5126,
            "count": 696,
            "type": "VEC3"
        },
        {
            "bufferView": 14,
            "byteOffset": 16704,
            "componentType": 5126,
            "count": 696,
            "type": "VEC2"
        },
        {
            "bufferView": 15,
            "byteOffset": 0,
            "componentType": 5125,
            "count": 696,
            "type": "SCALAR"
        },
        {
            "bufferView": 16,
            "byteOffset": 0,
            "componentType": 5126,
            "count": 534,
            "min": [-0.939309, -12.145800, 0.909293],
            "max": [0.939307, 12.145800, 1.560650],
            "type": "VEC3"
        },
        {
            "bufferView": 16,
            "byteOffset": 6408,
            "componentType": 5126,
            "count": 534,
            "type": "VEC3"
        },
        {
            "bufferView": 16,
            "byteOffset": 12816,
            "componentType": 5126,
            "count": 534,
            "type": "VEC2"
        },
        {
            "bufferView": 17,
            "byteOffset": 0,
            "componentType": 5125,
            "count": 534,
            "type": "SCALAR"
        },
        {
            "bufferView": 18,
            "byteOffset": 0,
            "componentType": 5126,
            "count": 786,
            "min": [-1.358830, -12.365400, 0.690990],
            "max": [1.358830, 12.365400, 1.285580],
            "type": "VEC3"
        },
        {
            "bufferView": 18,
            "byteOffset": 9432,
            "componentType": 5126,
            "count": 786,
            "type": "VEC3"
        },
        {
            "bufferView": 18,
            "byteOffset": 18864,
            "componentType": 5126,
            "count": 786,
            "type": "VEC2"
        },
        {
            "bufferView": 19,
            "byteOffset": 0,
            "componentType": 5125,
            "count": 786,
            "type": "SCALAR"
        },
        {
            "bufferView": 20,
            "byteOffset": 0,
            "componentType": 5126,
            "count": 288,
            "min": [-1.374710, -12.254500, 1.995680],
            "max": [1.374710, 12.254500, 3.902280],
            "type": "VEC3"
        },
        {
            "bufferView": 20,
            "byteOffset": 3456,
            "componentType": 5126,
            "count": 288,
            "type": "VEC3"
        },
        {
            "bufferView": 20,
            "byteOffset": 6912,
            "componentType": 5126,
            "count": 288,
            "type": "VEC2"
        },
        {
            "bufferView": 21,
            "byteOffset": 0,
            "componentType": 5125,
            "count": 288,
            "type": "SCALAR"
        },
        {
            "bufferView": 22,
            "byteOffset": 0,
            "componentType": 5126,
            "count": 528,
            "min": [-1.528890, -11.928400, 1.346220],
            "max": [1.529450, 11.928400, 1.561690],
            "type": "VEC3"
        },
        {
            "bufferView": 22,
            "byteOffset": 6336,
            "componentType": 5126,
            "count": 528,
            "type": "VEC3"
        },
        {
            "bufferView": 22,
            "byteOffset": 12672,
            "componentType": 5126,
            "count": 528,
            "type": "VEC2"
        },
        {
            "bufferView": 23,
            "byteOffset": 0,
            "componentType": 5125,
            "count": 528,
            "type": "SCALAR"
        },
        {
            "bufferView": 24,
            "byteOffset": 0,
            "componentType": 5126,
            "count": 12,
            "min": [-0.410871, -12.346200, 1.644360],
            "max": [0.410869, 12.346200, 2.161720],
            "type": "VEC3"
        },
        {
            "bufferView": 24,
            "byteOffset": 144,
            "componentType": 5126,
            "count": 12,
            "type": "VEC3"
        },
        {
            "bufferView": 24,
            "byteOffset": 288,
            "componentType": 5126,
            "count": 12,
            "type": "VEC2"
        },
        {
            "bufferView": 25,
            "byteOffset": 0,
            "componentType": 5125,
            "count": 12,
            "type": "SCALAR"
        },
        {
            "bufferView": 26,
            "byteOffset": 0,
            "componentType": 5126,
            "count": 288,
            "min": [-0.497326, -12.203400, 2.641320],
            "max": [0.497324, 12.203400, 3.660310],
            "type": "VEC3"
        },
        {
            "bufferView": 26,
            "byteOffset": 3456,
            "componentType": 5126,
            "count": 288,
            "type": "VEC3"
        },
        {
            "bufferView": 26,
            "byteOffset": 6912,
            "componentType": 5126,
            "count": 288,
            "type": "VEC2"
        },
        {
            "bufferView": 27,
            "byteOffset": 0,
            "componentType": 5125,
            "count": 288,
            "type": "SCALAR"
        },
        {
            "bufferView": 28,
            "byteOffset": 0,
            "componentType": 5126,
            "count": 606,
            "min": [-0.359647, 3.666740, -0.140675],
            "max": [0.189724, 4.639950, 0.313007],
            "type": "VEC3"
        },
        {
            "bufferView": 28,
            "byteOffset": 7272,
            "componentType": 5126,
            "count": 606,
            "type": "VEC3"
        },
        {
            "bufferView": 28,
            "byteOffset": 14544,
            "componentType": 5126,
            "count": 606,
            "type": "VEC2"
        },
        {
            "bufferView": 29,
            "byteOffset": 0,
            "componentType": 5125,
            "count": 606,
            "type": "SCALAR"
        },
        {
            "bufferView": 30,
            "byteOffset": 0,
            "componentType": 5126,
            "count": 606,
            "min": [-0.359647, 3.666740, -0.140675],
            "max": [0.189724, 4.639950, 0.313007],
            "type": "VEC3"
        },
        {
            "bufferView": 30,
            "byteOffset": 7272,
            "componentType": 5126,
            "count": 606,
            "type": "VEC3"
        },
        {
            "bufferView": 30,
            "byteOffset": 14544,
            "componentType": 5126,
            "count": 606,
            "type": "VEC2"
        },
        {
            "bufferView": 31,
            "byteOffset": 0,
            "componentType": 5125,
            "count": 606,
            "type": "SCALAR"
        },
        {
            "bufferView": 32,
            "byteOffset": 0,
            "componentType": 5126,
            "count": 306,
            "min": [0.886580, -12.345300, 0.677372],
            "max": [1.362810, -12.071200, 1.799240],
            "type": "VEC3"
        },
        {
            "bufferView": 32,
            "byteOffset": 3672,
            "componentType": 5126,
            "count": 306,
            "type": "VEC3"
        },
        {
            "bufferView": 32,
            "byteOffset": 7344,
            "componentType": 5126,
            "count": 306,
            "type": "VEC2"
        },
        {
            "bufferView": 33,
            "byteOffset": 0,
            "componentType": 5125,
            "count": 306,
            "type": "SCALAR"
        },
        {
            "bufferView": 34,
            "byteOffset": 0,
            "componentType": 5126,
            "count": 36,
            "min": [-0.957260, 0.158052, 0.679576],
            "max": [0.403038, 1.088830, 2.360710],
            "type": "VEC3"
        },
        {
            "bufferView": 34,
            "byteOffset": 432,
            "componentType": 5126,
            "count": 36,
            "type": "VEC3"
        },
        {
            "bufferView": 34,
            "byteOffset": 864,
            "componentType": 5126,
            "count": 36,
            "type": "VEC2"
        },
        {
            "bufferView": 35,
            "byteOffset": 0,
            "componentType": 5125,
            "count": 36,
            "type": "SCALAR"
        },
        {
            "bufferView": 36,
            "byteOffset": 0,
            "componentType": 5126,
            "count": 2016,
            "min": [-1.568960, -12.076100, -0.644754],
            "max": [1.568960, 12.076100, 0.644754],
            "type": "VEC3"
        },
        {
            "bufferView": 36,
            "byteOffset": 24192,
            "componentType": 5126,
            "count": 2016,
            "type": "VEC3"
        },
        {
            "bufferView": 36,
            "byteOffset": 48384,
            "componentType": 5126,
            "count": 2016,
            "type": "VEC2"
        },
        {
            "bufferView": 37,
            "byteOffset": 0,
            "componentType": 5125,
            "count": 2016,
            "type": "SCALAR"
        },
        {
            "bufferView": 38,
            "byteOffset": 0,
            "componentType": 5126,
            "count": 2256,
            "min": [-1.231710, -12.496600, 1.180160],
            "max": [1.231710, 12.496600, 1.571290],
            "type": "VEC3"
        },
        {
            "bufferView": 38,
            "byteOffset": 27072,
            "componentType": 5126,
            "count": 2256,
            "type": "VEC3"
        },
        {
            "bufferView": 38,
            "byteOffset": 54144,
            "componentType": 5126,
            "count": 2256,
            "type": "VEC2"
        },
        {
            "bufferView": 39,
            "byteOffset": 0,
            "componentType": 5125,
            "count": 2256,
            "type": "SCALAR"
        },
        {
            "bufferView": 40,
            "byteOffset": 0,
            "componentType": 5126,
            "count": 366,
            "min": [-0.680466, -7.133760, 1.187060],
            "max": [0.680465, 7.133760, 1.517540],
            "type": "VEC3"
        },
        {
            "bufferView": 40,
            "byteOffset": 4392,
            "componentType": 5126,
            "count": 366,
            "type": "VEC3"
        },
        {
            "bufferView": 40,
            "byteOffset": 8784,
            "componentType": 5126,
            "count": 366,
            "type": "VEC2"
        },
        {
            "bufferView": 41,
            "byteOffset": 0,
            "componentType": 5125,
            "count": 366,
            "type": "SCALAR"
        },
        {
            "bufferView": 42,
            "byteOffset": 0,
            "componentType": 5126,
            "count": 690,
            "min": [-0.374855, -5.164910, -0.379098],
            "max": [0.374855, 5.164910, 0.379098],
            "type": "VEC3"
        },
        {
            "bufferView": 42,
            "byteOffset": 8280,
            "componentType": 5126,
            "count": 690,
            "type": "VEC3"
        },
        {
            "bufferView": 42,
            "byteOffset": 16560,
            "componentType": 5126,
            "count": 690,
            "type": "VEC2"
        },
        {
            "bufferView": 43,
            "byteOffset": 0,
            "componentType": 5125,
            "count": 690,
            "type": "SCALAR"
        },
        {
            "bufferView": 44,
            "byteOffset": 0,
            "componentType": 5126,
            "count": 2607,
            "min": [-0.489758, -1.045530, -0.431232],
            "max": [0.498702, 3.702030, 0.454679],
            "type": "VEC3"
        },
        {
            "bufferView": 44,
            "byteOffset": 31284,
            "componentType": 5126,
            "count": 2607,
            "type": "VEC3"
        },
        {
            "bufferView": 44,
            "byteOffset": 62568,
            "componentType": 5126,
            "count": 2607,
            "type": "VEC2"
        },
        {
            "bufferView": 45,
            "byteOffset": 0,
            "componentType": 5125,
            "count": 2607,
            "type": "SCALAR"
        },
        {
            "bufferView": 46,
            "byteOffset": 0,
            "componentType": 5126,
            "count": 1542,
            "min": [-0.866460, -1.786770, -0.161420],
            "max": [1.156750, 0.495976, 0.507823],
            "type": "VEC3"
        },
        {
            "bufferView": 46,
            "byteOffset": 18504,
            "componentType": 5126,
            "count": 1542,
            "type": "VEC3"
        },
        {
            "bufferView": 46,
            "byteOffset": 37008,
            "componentType": 5126,
            "count": 1542,
            "type": "VEC2"
        },
        {
            "bufferView": 47,
            "byteOffset": 0,
            "componentType": 5125,
            "count": 1542,
            "type": "SCALAR"
        },
        {
            "bufferView": 48,
            "byteOffset": 0,
            "componentType": 5126,
            "count": 72,
            "min": [-0.246244, -0.679435, -0.055378],
            "max": [0.246244, 0.309492, 0.561398],
            "type": "VEC3"
        },
        {
            "bufferView": 48,
            "byteOffset": 864,
            "componentType": 5126,
            "count": 72,
            "type": "VEC3"
        },
        {
            "bufferView": 48,
            "byteOffset": 1728,
            "componentType": 5126,
            "count": 72,
            "type": "VEC2"
        },
        {
            "bufferView": 49,
            "byteOffset": 0,
            "componentType": 5125,
            "count": 72,
            "type": "SCALAR"
        },
        {
            "bufferView": 50,
            "byteOffset": 0,
            "componentType": 5126,
            "count": 168,
            "min": [-0.356651, -1.096810, -0.074172],
            "max": [0.394071, 0.588313, 1.094030],
            "type": "VEC3"
        },
        {
            "bufferView": 50,
            "byteOffset": 2016,
            "componentType": 5126,
            "count": 168,
            "type": "VEC3"
        },
        {
            "bufferView": 50,
            "byteOffset": 4032,
            "componentType": 5126,
            "count": 168,
            "type": "VEC2"
        },
        {
            "bufferView": 51,
            "byteOffset": 0,
            "componentType": 5125,
            "count": 168,
            "type": "SCALAR"
        },
        {
            "bufferView": 52,
            "byteOffset": 0,
            "componentType": 5126,
            "count": 144,
            "min": [-1.604130, -0.018383, -0.104378],
            "max": [1.237900, 0.039346, 0.529338],
            "type": "VEC3"
        },
        {
            "bufferView": 52,
            "byteOffset": 1728,
            "componentType": 5126,
            "count": 144,
            "type": "VEC3"
        },
        {
            "bufferView": 52,
            "byteOffset": 3456,
            "componentType": 5126,
            "count": 144,
            "type": "VEC2"
        },
        {
            "bufferView": 53,
            "byteOffset": 0,
            "componentType": 5125,
            "count": 144,
            "type": "SCALAR"
        },
        {
            "bufferView": 54,
            "byteOffset": 0,
            "componentType": 5126,
            "count": 24,
            "min": [-0.667606, -0.512432, 0.000000],
            "max": [0.667606, 0.512432, 0.795734],
            "type": "VEC3"
        },
        {
            "bufferView": 54,
            "byteOffset": 288,
            "componentType": 5126,
            "count": 24,
            "type": "VEC3"
        },
        {
            "bufferView": 54,
            "byteOffset": 576,
            "componentType": 5126,
            "count": 24,
            "type": "VEC2"
        },
        {
            "bufferView": 55,
            "byteOffset": 0,
            "componentType": 5125,
            "count": 24,
            "type": "SCALAR"
        },
        {
            "bufferView": 56,
            "byteOffset": 0,
            "componentType": 5126,
            "count": 216,
            "min": [-0.687626, -6.547370, 1.204670],
            "max": [0.674220, 6.547470, 1.511240],
            "type": "VEC3"
        },
        {
            "bufferView": 56,
            "byteOffset": 2592,
            "componentType": 5126,
            "count": 216,
            "type": "VEC3"
        },
        {
            "bufferView": 56,
            "byteOffset": 5184,
            "componentType": 5126,
            "count": 216,
            "type": "VEC2"
        },
        {
            "bufferView": 57,
            "byteOffset": 0,
            "componentType": 5125,
            "count": 216,
            "type": "SCALAR"
        },
        {
            "bufferView": 58,
            "byteOffset": 0,
            "componentType": 5126,
            "count": 288,
            "min": [-0.326844, -0.387930, -0.440689],
            "max": [0.326927, 0.387881, 0.507576],
            "type": "VEC3"
        },
        {
            "bufferView": 58,
            "byteOffset": 3456,
            "componentType": 5126,
            "count": 288,
            "type": "VEC3"
        },
        {
            "bufferView": 58,
            "byteOffset": 6912,
            "componentType": 5126,
            "count": 288,
            "type": "VEC2"
        },
        {
            "bufferView": 59,
            "byteOffset": 0,
            "componentType": 5125,
            "count": 288,
            "type": "SCALAR"
        },
        {
            "bufferView": 60,
            "byteOffset": 0,
            "componentType": 5126,
            "count": 1299,
            "min": [-1.323820, -11.960700, -0.319546],
            "max": [1.366570, 11.958800, 0.244688],
            "type": "VEC3"
        },
        {
            "bufferView": 60,
            "byteOffset": 15588,
            "componentType": 5126,
            "count": 1299,
            "type": "VEC3"
        },
        {
            "bufferView": 60,
            "byteOffset": 31176,
            "componentType": 5126,
            "count": 1299,
            "type": "VEC2"
        },
        {
            "bufferView": 61,
            "byteOffset": 0,
            "componentType": 5125,
            "count": 1299,
            "type": "SCALAR"
        },
        {
            "bufferView": 62,
            "byteOffset": 0,
            "componentType": 5126,
            "count": 408,
            "min": [-0.890303, -12.505800, 1.706710],
            "max": [0.890302, 12.505800, 4.101940],
            "type": "VEC3"
        },
        {
            "bufferView": 62,
            "byteOffset": 4896,
            "componentType": 5126,
            "count": 408,
            "type": "VEC3"
        },
        {
            "bufferView": 62,
            "byteOffset": 9792,
            "componentType": 5126,
            "count": 408,
            "type": "VEC2"
        },
        {
            "bufferView": 63,
            "byteOffset": 0,
            "componentType": 5125,
            "count": 408,
            "type": "SCALAR"
        },
        {
            "bufferView": 64,
            "byteOffset": 0,
            "componentType": 5126,
            "count": 981,
            "min": [-1.529580, -12.211300, 1.075040],
            "max": [1.529320, 12.211300, 4.601020],
            "type": "VEC3"
        },
        {
            "bufferView": 64,
            "byteOffset": 11772,
            "componentType": 5126,
            "count": 981,
            "type": "VEC3"
        },
        {
            "bufferView": 64,
            "byteOffset": 23544,
            "componentType": 5126,
            "count": 981,
            "type": "VEC2"
        },
        {
            "bufferView": 65,
            "byteOffset": 0,
            "componentType": 5125,
            "count": 981,
            "type": "SCALAR"
        },
        {
            "bufferView": 66,
            "byteOffset": 0,
            "componentType": 5126,
            "count": 14496,
            "min": [-1.594250, -1.949850, 0.504895],
            "max": [1.594250, 1.949850, 1.384020],
            "type": "VEC3"
        },
        {
            "bufferView": 66,
            "byteOffset": 173952,
            "componentType": 5126,
            "count": 14496,
            "type": "VEC3"
        },
        {
            "bufferView": 66,
            "byteOffset": 347904,
            "componentType": 5126,
            "count": 14496,
            "type": "VEC2"
        },
        {
            "bufferView": 67,
            "byteOffset": 0,
            "componentType": 5125,
            "count": 14496,
            "type": "SCALAR"
        },
        {
            "bufferView": 68,
            "byteOffset": 0,
            "componentType": 5126,
            "count": 732,
            "min": [-0.851240, 0.690907, 0.269290],
            "max": [0.851240, 1.709090, 1.303180],
            "type": "VEC3"
        },
        {
            "bufferView": 68,
            "byteOffset": 8784,
            "componentType": 5126,
            "count": 732,
            "type": "VEC3"
        },
        {
            "bufferView": 68,
            "byteOffset": 17568,
            "componentType": 5126,
            "count": 732,
            "type": "VEC2"
        },
        {
            "bufferView": 69,
            "byteOffset": 0,
            "componentType": 5125,
            "count": 732,
            "type": "SCALAR"
        },
        {
            "bufferView": 70,
            "byteOffset": 0,
            "componentType": 5126,
            "count": 732,
            "min": [-0.851240, 0.690907, 0.269290],
            "max": [0.851240, 1.709090, 1.303180],
            "type": "VEC3"
        },
        {
            "bufferView": 70,
            "byteOffset": 8784,
            "componentType": 5126,
            "count": 732,
            "type": "VEC3"
        },
        {
            "bufferView": 70,
            "byteOffset": 17568,
            "componentType": 5126,
            "count": 732,
            "type": "VEC2"
        },
        {
            "bufferView": 71,
            "byteOffset": 0,
            "componentType": 5125,
            "count": 732,
            "type": "SCALAR"
        },
        {
            "bufferView": 72,
            "byteOffset": 0,
            "componentType": 5126,
            "count": 15012,
            "min": [-1.594250, -1.949850, 0.504895],
            "max": [1.594250, 1.949850, 1.384020],
            "type": "VEC3"
        },
        {
            "bufferView": 72,
            "byteOffset": 180144,
            "componentType": 5126,
            "count": 15012,
            "type": "VEC3"
        },
        {
            "bufferView": 72,
            "byteOffset": 360288,
            "componentType": 5126,
            "count": 15012,
            "type": "VEC2"
        },
        {
            "bufferView": 73,
            "byteOffset": 0,
            "componentType": 5125,
            "count": 15012,
            "type": "SCALAR"
        },
        {
            "bufferView": 74,
            "byteOffset": 0,
            "componentType": 5126,
            "count": 732,
            "min": [-0.851240, 0.690907, 0.269290],
            "max": [0.851240, 1.709090, 1.303180],
            "type": "VEC3"
        },
        {
            "bufferView": 74,
            "byteOffset": 8784,
            "componentType": 5126,
            "count": 732,
            "type": "VEC3"
        },
        {
            "bufferView": 74,
            "byteOffset": 17568,
            "componentType": 5126,
            "count": 732,
            "type": "VEC2"
        },
        {
            "bufferView": 75,
            "byteOffset": 0,
            "componentType": 5125,
            "count": 732,
            "type": "SCALAR"
        },
        {
            "bufferView": 76,
            "byteOffset": 0,
            "componentType": 5126,
            "count": 900,
            "min": [-0.851240, -1.709090, 0.269290],
            "max": [0.851240, -0.690907, 1.303180],
            "type": "VEC3"
        },
        {
            "bufferView": 76,
            "byteOffset": 10800,
            "componentType": 5126,
            "count": 900,
            "type": "VEC3"
        },
        {
            "bufferView": 76,
            "byteOffset": 21600,
            "componentType": 5126,
            "count": 900,
            "type": "VEC2"
        },
        {
            "bufferView": 77,
            "byteOffset": 0,
            "componentType": 5125,
            "count": 900,
            "type": "SCALAR"
        },
        {
            "bufferView": 78,
            "byteOffset": 0,
            "componentType": 5126,
            "count": 1152,
            "min": [-0.390085, -2.076400, -0.324616],
            "max": [0.707770, 0.567392, 0.655639],
            "type": "VEC3"
        },
        {
            "bufferView": 78,
            "byteOffset": 13824,
            "componentType": 5126,
            "count": 1152,
            "type": "VEC3"
        },
        {
            "bufferView": 78,
            "byteOffset": 27648,
            "componentType": 5126,
            "count": 1152,
            "type": "VEC2"
        },
        {
            "bufferView": 79,
            "byteOffset": 0,
            "componentType": 5125,
            "count": 1152,
            "type": "SCALAR"
        },
        {
            "bufferView": 80,
            "byteOffset": 0,
            "componentType": 5126,
            "count": 132,
            "min": [-0.128953, -0.068615, -0.135390],
            "max": [0.128953, 0.110290, 0.135390],
            "type": "VEC3"
        },
        {
            "bufferView": 80,
            "byteOffset": 1584,
            "componentType": 5126,
            "count": 132,
            "type": "VEC3"
        },
        {
            "bufferView": 80,
            "byteOffset": 3168,
            "componentType": 5126,
            "count": 132,
            "type": "VEC2"
        },
        {
            "bufferView": 81,
            "byteOffset": 0,
            "componentType": 5125,
            "count": 132,
            "type": "SCALAR"
        },
        {
            "bufferView": 82,
            "byteOffset": 0,
            "componentType": 5126,
            "count": 180,
            "min": [-0.051972, -0.762400, -0.091709],
            "max": [0.051973, 0.766619, 0.093201],
            "type": "VEC3"
        },
        {
            "bufferView": 82,
            "byteOffset": 2160,
            "componentType": 5126,
            "count": 180,
            "type": "VEC3"
        },
        {
            "bufferView": 82,
            "byteOffset": 4320,
            "componentType": 5126,
            "count": 180,
            "type": "VEC2"
        },
        {
            "bufferView": 83,
            "byteOffset": 0,
            "componentType": 5125,
            "count": 180,
            "type": "SCALAR"
        }
    ],
    "images": [
        {
            "uri": "T_pass_rzd-65361//pass_rzd-65361.tga"
        }
    ],
    "samplers": [
        {
            "magFilter": 9729,
            "minFilter": 9987,
            "wrapS": 10497,
            "wrapT": 10497
        }
    ],
    "textures": [
        {
            "sampler": 0,
            "source": 0
        }
    ],
    "materials": [
        {
            "name": "02 - Default",
            "pbrMetallicRoughness": {
                "baseColorTexture": {
                    "index": 0,
                    "texCoord": 0
                }
            },
            "alphaMode": "OPAQUE"
        }
    ],
    "meshes": [
        {
            "name": "02 - Default",
            "primitives": [
                {
                    "attributes": {
                        "POSITION": 0,
                        "NORMAL": 1,
                        "TEXCOORD_0": 2
                    },
                    "indices": 3,
                    "material": 0,
                    "mode": 4
                }
            ]
        },
        {
            "name": "02 - Default",
            "primitives": [
                {
                    "attributes": {
                        "POSITION": 4,
                        "NORMAL": 5,
                        "TEXCOORD_0": 6
                    },
                    "indices": 7,
                    "material": 0,
                    "mode": 4
                }
            ]
        },
        {
            "name": "02 - Default",
            "primitives": [
                {
                    "attributes": {
                        "POSITION": 8,
                        "NORMAL": 9,
                        "TEXCOORD_0": 10
                    },
                    "indices": 11,
                    "material": 0,
                    "mode": 4
                }
            ]
        },
        {
            "name": "02 - Default",
            "primitives": [
                {
                    "attributes": {
                        "POSITION": 12,
                        "NORMAL": 13,
                        "TEXCOORD_0": 14
                    },
                    "indices": 15,
                    "material": 0,
                    "mode": 4
                }
            ]
        },
        {
            "name": "02 - Default",
            "primitives": [
                {
                    "attributes": {
                        "POSITION": 16,
                        "NORMAL": 17,
                        "TEXCOORD_0": 18
                    },
                    "indices": 19,
                    "material": 0,
                    "mode": 4
                }
            ]
        },
        {
            "name": "02 - Default",
            "primitives": [
                {
                    "attributes": {
                        "POSITION": 20,
                        "NORMAL": 21,
                        "TEXCOORD_0": 22
                    },
                    "indices": 23,
                    "material": 0,
                    "mode": 4
                }
            ]
        },
        {
            "name": "02 - Default",
            "primitives": [
                {
                    "attributes": {
                        "POSITION": 24,
                        "NORMAL": 25,
                        "TEXCOORD_0": 26
                    },
                    "indices": 27,
                    "material": 0,
                    "mode": 4
                }
            ]
        },
        {
            "name": "02 - Default",
            "primitives": [
                {
                    "attributes": {
                        "POSITION": 28,
                        "NORMAL": 29,
                        "TEXCOORD_0": 30
                    },
                    "indices": 31,
                    "material": 0,
                    "mode": 4
                }
            ]
        },
        {
            "name": "02 - Default",
            "primitives": [
                {
                    "attributes": {
                        "POSITION": 32,
                        "NORMAL": 33,
                        "TEXCOORD_0": 34
                    },
                    "indices": 35,
                    "material": 0,
                    "mode": 4
                }
            ]
        },
        {
            "name": "02 - Default",
            "primitives": [
                {
                    "attributes": {
                        "POSITION": 36,
                        "NORMAL": 37,
                        "TEXCOORD_0": 38
                    },
                    "indices": 39,
                    "material": 0,
                    "mode": 4
                }
            ]
        },
        {
            "name": "02 - Default",
            "primitives": [
                {
                    "attributes": {
                        "POSITION": 40,
                        "NORMAL": 41,
                        "TEXCOORD_0": 42
                    },
                    "indices": 43,
                    "material": 0,
                    "mode": 4
                }
            ]
        },
        {
            "name": "02 - Default",
            "primitives": [
                {
                    "attributes": {
                        "POSITION": 44,
                        "NORMAL": 45,
                        "TEXCOORD_0": 46
                    },
                    "indices": 47,
                    "material": 0,
                    "mode": 4
                }
            ]
        },
        {
            "name": "02 - Default",
            "primitives": [
                {
                    "attributes": {
                        "POSITION": 48,
                        "NORMAL": 49,
                        "TEXCOORD_0": 50
                    },
                    "indices": 51,
                    "material": 0,
                    "mode": 4
                }
            ]
        },
        {
            "name": "02 - Default",
            "primitives": [
                {
                    "attributes": {
                        "POSITION": 52,
                        "NORMAL": 53,
                        "TEXCOORD_0": 54
                    },
                    "indices": 55,
                    "material": 0,
                    "mode": 4
                }
            ]
        },
        {
            "name": "02 - Default",
            "primitives": [
                {
                    "attributes": {
                        "POSITION": 56,
                        "NORMAL": 57,
                        "TEXCOORD_0": 58
                    },
                    "indices": 59,
                    "material": 0,
                    "mode": 4
                }
            ]
        },
        {
            "name": "02 - Default",
            "primitives": [
                {
                    "attributes": {
                        "POSITION": 60,
                        "NORMAL": 61,
                        "TEXCOORD_0": 62
                    },
                    "indices": 63,
                    "material": 0,
                    "mode": 4
                }
            ]
        },
        {
            "name": "02 - Default",
            "primitives": [
                {
                    "attributes": {
                        "POSITION": 64,
                        "NORMAL": 65,
                        "TEXCOORD_0": 66
                    },
                    "indices": 67,
                    "material": 0,
                    "mode": 4
                }
            ]
        },
        {
            "name": "02 - Default",
            "primitives": [
                {
                    "attributes": {
                        "POSITION": 68,
                        "NORMAL": 69,
                        "TEXCOORD_0": 70
                    },
                    "indices": 71,
                    "material": 0,
                    "mode": 4
                }
            ]
        },
        {
            "name": "02 - Default",
            "primitives": [
                {
                    "attributes": {
                        "POSITION": 72,
                        "NORMAL": 73,
                        "TEXCOORD_0": 74
                    },
                    "indices": 75,
                    "material": 0,
                    "mode": 4
                }
            ]
        },
        {
            "name": "02 - Default",
            "primitives": [
                {
                    "attributes": {
                        "POSITION": 76,
                        "NORMAL": 77,
                        "TEXCOORD_0": 78
                    },
                    "indices": 79,
                    "material": 0,
                    "mode": 4
                }
            ]
        },
        {
            "name": "02 - Default",
            "primitives": [
                {
                    "attributes": {
                        "POSITION": 80,
                        "NORMAL": 81,
                        "TEXCOORD_0": 82
                    },
                    "indices": 83,
                    "material": 0,
                    "mode": 4
                }
            ]
        },
        {
            "name": "02 - Default",
            "primitives": [
                {
                    "attributes": {
                        "POSITION": 84,
                        "NORMAL": 85,
                        "TEXCOORD_0": 86
                    },
                    "indices": 87,
                    "material": 0,
                    "mode": 4
                }
            ]
        },
        {
            "name": "02 - Default",
            "primitives": [
                {
                    "attributes": {
                        "POSITION": 88,
                        "NORMAL": 89,
                        "TEXCOORD_0": 90
                    },
                    "indices": 91,
                    "material": 0,
                    "mode": 4
                }
            ]
        },
        {
            "name": "02 - Default",
            "primitives": [
                {
                    "attributes": {
                        "POSITION": 92,
                        "NORMAL": 93,
                        "TEXCOORD_0": 94
                    },
                    "indices": 95,
                    "material": 0,
                    "mode": 4
                }
            ]
        },
        {
            "name": "02 - Default",
            "primitives": [
                {
                    "attributes": {
                        "POSITION": 96,
                        "NORMAL": 97,
                        "TEXCOORD_0": 98
                    },
                    "indices": 99,
                    "material": 0,
                    "mode": 4
                }
            ]
        },
        {
            "name": "02 - Default",
            "primitives": [
                {
                    "attributes": {
                        "POSITION": 100,
                        "NORMAL": 101,
                        "TEXCOORD_0": 102
                    },
                    "indices": 103,
                    "material": 0,
                    "mode": 4
                }
            ]
        },
        {
            "name": "02 - Default",
            "primitives": [
                {
                    "attributes": {
                        "POSITION": 104,
                        "NORMAL": 105,
                        "TEXCOORD_0": 106
                    },
                    "indices": 107,
                    "material": 0,
                    "mode": 4
                }
            ]
        },
        {
            "name": "02 - Default",
            "primitives": [
                {
                    "attributes": {
                        "POSITION": 108,
                        "NORMAL": 109,
                        "TEXCOORD_0": 110
                    },
                    "indices": 111,
                    "material": 0,
                    "mode": 4
                }
            ]
        },
        {
            "name": "02 - Default",
            "primitives": [
                {
                    "attributes": {
                        "POSITION": 112,
                        "NORMAL": 113,
                        "TEXCOORD_0": 114
                    },
                    "indices": 115,
                    "material": 0,
                    "mode": 4
                }
            ]
        },
        {
            "name": "02 - Default",
            "primitives": [
                {
                    "attributes": {
                        "POSITION": 116,
                        "NORMAL": 117,
                        "TEXCOORD_0": 118
                    },
                    "indices": 119,
                    "material": 0,
                    "mode": 4
                }
            ]
        },
        {
            "name": "02 - Default",
            "primitives": [
                {
                    "attributes": {
                        "POSITION": 120,
                        "NORMAL": 121,
                        "TEXCOORD_0": 122
                    },
                    "indices": 123,
                    "material": 0,
                    "mode": 4
                }
            ]
        },
        {
            "name": "02 - Default",
            "primitives": [
                {
                    "attributes": {
                        "POSITION": 124,
                        "NORMAL": 125,
                        "TEXCOORD_0": 126
                    },
                    "indices": 127,
                    "material": 0,
                    "mode": 4
                }
            ]
        },
        {
            "name": "02 - Default",
            "primitives": [
                {
                    "attributes": {
                        "POSITION": 128,
                        "NORMAL": 129,
                        "TEXCOORD_0": 130
                    },
                    "indices": 131,
                    "material": 0,
                    "mode": 4
                }
            ]
        },
        {
            "name": "02 - Default",
            "primitives": [
                {
                    "attributes": {
                        "POSITION": 132,
                        "NORMAL": 133,
                        "TEXCOORD_0": 134
                    },
                    "indices": 135,
                    "material": 0,
                    "mode": 4
                }
            ]
        },
        {
            "name": "02 - Default",
            "primitives": [
                {
                    "attributes": {
                        "POSITION": 136,
                        "NORMAL": 137,
                        "TEXCOORD_0": 138
                    },
                    "indices": 139,
                    "material": 0,
                    "mode": 4
                }
            ]
        },
        {
            "name": "02 - Default",
            "primitives": [
                {
                    "attributes": {
                        "POSITION": 140,
                        "NORMAL": 141,
                        "TEXCOORD_0": 142
                    },
                    "indices": 143,
                    "material": 0,
                    "mode": 4
                }
            ]
        },
        {
            "name": "02 - Default",
            "primitives": [
                {
                    "attributes": {
                        "POSITION": 144,
                        "NORMAL": 145,
                        "TEXCOORD_0": 146
                    },
                    "indices": 147,
                    "material": 0,
                    "mode": 4
                }
            ]
        },
        {
            "name": "02 - Default",
            "primitives": [
                {
                    "attributes": {
                        "POSITION": 148,
                        "NORMAL": 149,
                        "TEXCOORD_0": 150
                    },
                    "indices": 151,
                    "material": 0,
                    "mode": 4
                }
            ]
        },
        {
            "name": "02 - Default",
            "primitives": [
                {
                    "attributes": {
                        "POSITION": 152,
                        "NORMAL": 153,
                        "TEXCOORD_0": 154
                    },
                    "indices": 155,
                    "material": 0,
                    "mode": 4
                }
            ]
        },
        {
            "name": "02 - Default",
            "primitives": [
                {
                    "attributes": {
                        "POSITION": 156,
                        "NORMAL": 157,
                        "TEXCOORD_0": 158
                    },
                    "indices": 159,
                    "material": 0,
                    "mode": 4
                }
            ]
        },
        {
            "name": "02 - Default",
            "primitives": [
                {
                    "attributes": {
                        "POSITION": 160,
                        "NORMAL": 161,
                        "TEXCOORD_0": 162
                    },
                    "indices": 163,
                    "material": 0,
                    "mode": 4
                }
            ]
        },
        {
            "name": "02 - Default",
            "primitives": [
                {
                    "attributes": {
                        "POSITION": 164,
                        "NORMAL": 165,
                        "TEXCOORD_0": 166
                    },
                    "indices": 167,
                    "material": 0,
                    "mode": 4
                }
            ]
        }
    ]
}