{
	"asset":{
		"generator":"Khronos glTF Blender I/O v4.4.56",
		"version":"2.0"
	},
	"extensionsUsed":[
		"KHR_materials_specular"
	],
	"scene":0,
	"scenes":[
		{
			"name":"Scene",
			"nodes":[
				0
			]
		}
	],
	"nodes":[
		{
			"mesh":0,
			"name":"Windows"
		}
	],
	"materials":[
		{
			"emissiveTexture":{
				"index":0
			},
			"extensions":{
				"KHR_materials_specular":{
					"specularFactor":0
				}
			},
			"name":"Material_pass_25924_two_sided",
			"pbrMetallicRoughness":{
				"baseColorTexture":{
					"index":1
				},
				"roughnessFactor":0.75
			}
		}
	],
	"meshes":[
		{
			"name":"Body.001",
			"primitives":[
				{
					"attributes":{
						"POSITION":0,
						"NORMAL":1,
						"TEXCOORD_0":2
					},
					"indices":3,
					"material":0
				}
			]
		}
	],
	"textures":[
		{
			"sampler":0,
			"source":0
		},
		{
			"sampler":0,
			"source":1
		}
	],
	"images":[
		{
			"mimeType":"image/png",
			"name":"pass_rzd-25924_emis",
			"uri":"T_pass_rzd-25924/pass_rzd-25924_emis.png"
		},
		{
			"mimeType":"image/png",
			"name":"pass_rzd-25924",
			"uri":"T_pass_rzd-25924/pass_rzd-25924.png"
		}
	],
	"accessors":[
		{
			"bufferView":0,
			"componentType":5126,
			"count":428,
			"max":[
				1.5561010837554932,
				3.4055979251861572,
				10.51318645477295
			],
			"min":[
				-1.5551364421844482,
				2.5019428730010986,
				-10.528281211853027
			],
			"type":"VEC3"
		},
		{
			"bufferView":1,
			"componentType":5126,
			"count":428,
			"type":"VEC3"
		},
		{
			"bufferView":2,
			"componentType":5126,
			"count":428,
			"type":"VEC2"
		},
		{
			"bufferView":3,
			"componentType":5123,
			"count":1140,
			"type":"SCALAR"
		}
	],
	"bufferViews":[
		{
			"buffer":0,
			"byteLength":5136,
			"byteOffset":0,
			"target":34962
		},
		{
			"buffer":0,
			"byteLength":5136,
			"byteOffset":5136,
			"target":34962
		},
		{
			"buffer":0,
			"byteLength":3424,
			"byteOffset":10272,
			"target":34962
		},
		{
			"buffer":0,
			"byteLength":2280,
			"byteOffset":13696,
			"target":34963
		}
	],
	"samplers":[
		{
			"magFilter":9729,
			"minFilter":9987
		}
	],
	"buffers":[
		{
			"byteLength":15976,
			"uri":"Pass_TVZ_61-826-kvr_windows.bin"
		}
	]
}
