{
	"asset":{
		"generator":"Khronos glTF Blender I/O v4.4.56",
		"version":"2.0"
	},
	"extensionsUsed":[
		"KHR_materials_specular"
	],
	"scene":0,
	"scenes":[
		{
			"name":"Scene",
			"nodes":[
				0,
				1,
				2,
				3,
				4,
				5,
				6,
				7,
				8,
				9,
				10,
				11,
				12,
				13,
				14,
				15,
				16,
				17,
				18,
				19,
				20,
				21,
				22,
				23,
				24,
				25,
				26,
				27,
				28,
				29,
				30,
				31,
				32,
				33,
				34,
				35,
				36,
				37,
				38,
				39,
				40,
				41
			]
		}
	],
	"nodes":[
		{
			"mesh":0,
			"name":"Scene Root_AB_AB-OFFSET_AB-GEODE_02 - Default_0"
		},
		{
			"mesh":1,
			"name":"Scene Root_Avtotormoz_Avtotormoz-GEODE_02 - Default_0"
		},
		{
			"mesh":2,
			"name":"Scene Root_Belevaya_yama_Belevaya_yama-OFFSET_Belevaya_yama-GEO"
		},
		{
			"mesh":3,
			"name":"Scene Root_Body_Body-OFFSET_Body-GEODE_02 - Default_0"
		},
		{
			"mesh":4,
			"name":"Scene Root_Body_Boige-1_Boige-1-GEODE_02 - Default_0"
		},
		{
			"mesh":5,
			"name":"Wheel-1",
			"translation":[
				0.0003721245739143342,
				0.7861897945404053,
				9.699983596801758
			]
		},
		{
			"mesh":6,
			"name":"Wheel-2",
			"translation":[
				0.00036380518577061594,
				0.7861783504486084,
				7.2999982833862305
			]
		},
		{
			"mesh":7,
			"name":"Scene Root_Body_Boige-2_Boige-2-GEODE_02 - Default_0"
		},
		{
			"mesh":8,
			"name":"Wheel-3",
			"translation":[
				0.0003721955872606486,
				0.7861900329589844,
				-7.300013065338135
			]
		},
		{
			"mesh":9,
			"name":"Wheel-4",
			"translation":[
				0.0003721003304235637,
				0.7861896753311157,
				-9.700007438659668
			]
		},
		{
			"mesh":10,
			"name":"Gen_Kardan",
			"rotation":[
				-0.6899521350860596,
				0,
				0,
				0.7238550186157227
			],
			"translation":[
				-0.001182087929919362,
				0.8144404292106628,
				6.159027099609375
			]
		},
		{
			"mesh":11,
			"name":"Gen_Mufta1",
			"rotation":[
				-0.7071068286895752,
				0,
				0,
				0.7071068286895752
			],
			"translation":[
				0.0008622794412076473,
				0.8500015139579773,
				5.324026107788086
			]
		},
		{
			"mesh":12,
			"name":"Scene Root_Body_Generator_Generator-OFFSET_Generator-GEODE_02 -"
		},
		{
			"mesh":13,
			"name":"Scene Root_Br_Pipe_Br_Pipe-OFFSET_Br_Pipe-GEODE_02 - Default_0"
		},
		{
			"mesh":14,
			"name":"Scene Root_Bufera_Bufera-OFFSET_Bufera-GEODE_02 - Default_0"
		},
		{
			"mesh":15,
			"name":"Scene Root_Chep_otpuskVR_Chep_otpuskVR-GEODE_02 - Default_0"
		},
		{
			"mesh":16,
			"name":"Scene Root_Deflektory_Deflektory-OFFSET_Deflektory-GEODE_02 - D"
		},
		{
			"mesh":17,
			"name":"Scene Root_ECHT_ECHT-OFFSET_ECHT-GEODE_02 - Default_0"
		},
		{
			"mesh":18,
			"name":"Scene Root_Hvost_signaly_Hvost_signaly-OFFSET_Hvost_signaly-GEO"
		},
		{
			"mesh":19,
			"name":"Scene Root_KoncevoyRuk_1_KoncevoyRuk_1-OFFSET_KoncevoyRuk_1-GEO"
		},
		{
			"mesh":20,
			"name":"Scene Root_KoncevoyRuk_2_KoncevoyRuk_2-OFFSET_KoncevoyRuk_2-GEO"
		},
		{
			"mesh":21,
			"name":"Scene Root_Korzina_gen_Korzina_gen-GEODE_02 - Default_0"
		},
		{
			"mesh":22,
			"name":"Scene Root_Object001_Object001-OFFSET_Object001-GEODE_02 - Defa"
		},
		{
			"mesh":23,
			"name":"Scene Root_PinchOFF_2_PinchOFF_2-OFFSET_PinchOFF_2-GEODE_02 - D"
		},
		{
			"mesh":24,
			"name":"Scene Root_PinchON_PinchON-OFFSET_PinchON-GEODE_02 - Default_0"
		},
		{
			"mesh":25,
			"name":"Scene Root_Poruchni_Poruchni-GEODE_02 - Default_0"
		},
		{
			"mesh":26,
			"name":"Scene Root_PredohrKV_PredohrKV-OFFSET_PredohrKV-GEODE_02 - Defa"
		},
		{
			"mesh":27,
			"name":"Scene Root_RascepRich_RascepRich-GEODE_02 - Default_0"
		},
		{
			"mesh":28,
			"name":"Scene Root_Reshetki_KU_Reshetki_KU-OFFSET_Reshetki_KU-GEODE_02 "
		},
		{
			"mesh":29,
			"name":"Scene Root_Rezina_ram_Rezina_ram-OFFSET_Rezina_ram-GEODE_02 - D"
		},
		{
			"mesh":30,
			"name":"Scene Root_Roof_luk_Roof_luk-OFFSET_Roof_luk-GEODE_02 - Default"
		},
		{
			"mesh":31,
			"name":"Scene Root_RozetkiOT_RozetkiOT-OFFSET_RozetkiOT-GEODE_02 - Defa"
		},
		{
			"mesh":32,
			"name":"Scene Root_SA-3-1_SA-3-1-OFFSET_SA-3-1-GEODE_02 - Default_0"
		},
		{
			"mesh":33,
			"name":"Scene Root_SA-3-2_SA-3-2-OFFSET_SA-3-2-GEODE_02 - Default_0"
		},
		{
			"mesh":34,
			"name":"Scene Root_Stupenki_Stupenki-OFFSET_Stupenki-GEODE_02 - Default"
		},
		{
			"mesh":35,
			"name":"Scene Root_TRP_TRP-OFFSET_TRP-GEODE_02 - Default_0"
		},
		{
			"mesh":36,
			"name":"Scene Root_Trub_TM_Trub_TM-OFFSET_Trub_TM-GEODE_02 - Default_0"
		},
		{
			"mesh":37,
			"name":"Scene Root_Trube_titan_Trube_titan-OFFSET_Trube_titan-GEODE_02 "
		},
		{
			"mesh":38,
			"name":"Scene Root_Vent_KU_Vent_KU-GEODE_02 - Default_0"
		},
		{
			"mesh":39,
			"name":"Scene Root_Yashik_3Kv_Yashik_3Kv-OFFSET_Yashik_3Kv-GEODE_02 - D"
		},
		{
			"mesh":40,
			"name":"Scene Root_Yashik_RCH_Yashik_RCH-OFFSET_Yashik_RCH-GEODE_02 - D"
		},
		{
			"mesh":41,
			"name":"Scene Root_Yashik_VU_Yashik_VU-OFFSET_Yashik_VU-GEODE_02 - Defa"
		}
	],
	"materials":[
		{
			"alphaMode":"BLEND",
			"doubleSided":true,
			"extensions":{
				"KHR_materials_specular":{
					"specularFactor":0
				}
			},
			"name":"material_1.006",
			"pbrMetallicRoughness":{
				"baseColorTexture":{
					"index":0
				},
				"metallicFactor":0,
				"roughnessFactor":0.6837722063064575
			}
		}
	],
	"meshes":[
		{
			"name":"Scene Root_AB_AB-OFFSET_AB-GEODE_02 - Default_0.002",
			"primitives":[
				{
					"attributes":{
						"POSITION":0,
						"NORMAL":1,
						"TEXCOORD_0":2
					},
					"indices":3,
					"material":0
				}
			]
		},
		{
			"name":"Scene Root_Avtotormoz_Avtotormoz-GEODE_02 - Default_0.002",
			"primitives":[
				{
					"attributes":{
						"POSITION":4,
						"NORMAL":5,
						"TEXCOORD_0":6
					},
					"indices":7,
					"material":0
				}
			]
		},
		{
			"name":"Scene Root_Belevaya_yama_Belevaya_yama-OFFSET_Belevaya_yama",
			"primitives":[
				{
					"attributes":{
						"POSITION":8,
						"NORMAL":9,
						"TEXCOORD_0":10
					},
					"indices":11,
					"material":0
				}
			]
		},
		{
			"name":"Scene Root_Body_Body-OFFSET_Body-GEODE_02 - Default_0.005",
			"primitives":[
				{
					"attributes":{
						"POSITION":12,
						"NORMAL":13,
						"TEXCOORD_0":14
					},
					"indices":15,
					"material":0
				}
			]
		},
		{
			"name":"Scene Root_Body_Boige-1_Boige-1-GEODE_02 - Default_0.006",
			"primitives":[
				{
					"attributes":{
						"POSITION":16,
						"NORMAL":17,
						"TEXCOORD_0":18
					},
					"indices":19,
					"material":0
				}
			]
		},
		{
			"name":"Scene Root_Body_Boige-1_Wheel-1_Wheel-1-OFFSET_Wheel-1-GEOD.005",
			"primitives":[
				{
					"attributes":{
						"POSITION":20,
						"NORMAL":21,
						"TEXCOORD_0":22
					},
					"indices":23,
					"material":0
				}
			]
		},
		{
			"name":"Scene Root_Body_Boige-1_Wheel-2_Wheel-2-OFFSET_Wheel-2-GEOD.005",
			"primitives":[
				{
					"attributes":{
						"POSITION":24,
						"NORMAL":25,
						"TEXCOORD_0":26
					},
					"indices":27,
					"material":0
				}
			]
		},
		{
			"name":"Scene Root_Body_Boige-2_Boige-2-GEODE_02 - Default_0.006",
			"primitives":[
				{
					"attributes":{
						"POSITION":28,
						"NORMAL":29,
						"TEXCOORD_0":30
					},
					"indices":31,
					"material":0
				}
			]
		},
		{
			"name":"Scene Root_Body_Boige-2_Wheel-3_Wheel-3-OFFSET_Wheel-3-GEOD.005",
			"primitives":[
				{
					"attributes":{
						"POSITION":32,
						"NORMAL":33,
						"TEXCOORD_0":34
					},
					"indices":23,
					"material":0
				}
			]
		},
		{
			"name":"Scene Root_Body_Boige-2_Wheel-4_Wheel-4-OFFSET_Wheel-4-GEOD.005",
			"primitives":[
				{
					"attributes":{
						"POSITION":35,
						"NORMAL":36,
						"TEXCOORD_0":37
					},
					"indices":23,
					"material":0
				}
			]
		},
		{
			"name":"Scene Root_Body_Generator_Gen_Kardan_Gen_Kardan-OFFSET_Gen_",
			"primitives":[
				{
					"attributes":{
						"POSITION":38,
						"NORMAL":39,
						"TEXCOORD_0":40
					},
					"indices":41,
					"material":0
				}
			]
		},
		{
			"name":"Scene Root_Body_Generator_Gen_Mufta1_Gen_Mufta1-GEODE_02 - ",
			"primitives":[
				{
					"attributes":{
						"POSITION":42,
						"NORMAL":43,
						"TEXCOORD_0":44
					},
					"indices":45,
					"material":0
				}
			]
		},
		{
			"name":"Scene Root_Body_Generator_Generator-OFFSET_Generator-GEODE_",
			"primitives":[
				{
					"attributes":{
						"POSITION":46,
						"NORMAL":47,
						"TEXCOORD_0":48
					},
					"indices":23,
					"material":0
				}
			]
		},
		{
			"name":"Scene Root_Br_Pipe_Br_Pipe-OFFSET_Br_Pipe-GEODE_02 - Defaul.001",
			"primitives":[
				{
					"attributes":{
						"POSITION":49,
						"NORMAL":50,
						"TEXCOORD_0":51
					},
					"indices":52,
					"material":0
				}
			]
		},
		{
			"name":"Scene Root_Bufera_Bufera-OFFSET_Bufera-GEODE_02 - Default_0.002",
			"primitives":[
				{
					"attributes":{
						"POSITION":53,
						"NORMAL":54,
						"TEXCOORD_0":55
					},
					"indices":56,
					"material":0
				}
			]
		},
		{
			"name":"Scene Root_Chep_otpuskVR_Chep_otpuskVR-GEODE_02 - Default_0.001",
			"primitives":[
				{
					"attributes":{
						"POSITION":57,
						"NORMAL":58,
						"TEXCOORD_0":59
					},
					"indices":60,
					"material":0
				}
			]
		},
		{
			"name":"Scene Root_Deflektory_Deflektory-OFFSET_Deflektory-GEODE_02",
			"primitives":[
				{
					"attributes":{
						"POSITION":61,
						"NORMAL":62,
						"TEXCOORD_0":63
					},
					"indices":64,
					"material":0
				}
			]
		},
		{
			"name":"Scene Root_ECHT_ECHT-OFFSET_ECHT-GEODE_02 - Default_0.002",
			"primitives":[
				{
					"attributes":{
						"POSITION":65,
						"NORMAL":66,
						"TEXCOORD_0":67
					},
					"indices":68,
					"material":0
				}
			]
		},
		{
			"name":"Scene Root_Hvost_signaly_Hvost_signaly-OFFSET_Hvost_signaly",
			"primitives":[
				{
					"attributes":{
						"POSITION":69,
						"NORMAL":70,
						"TEXCOORD_0":71
					},
					"indices":72,
					"material":0
				}
			]
		},
		{
			"name":"Scene Root_KoncevoyRuk_1_KoncevoyRuk_1-OFFSET_KoncevoyRuk_1",
			"primitives":[
				{
					"attributes":{
						"POSITION":73,
						"NORMAL":74,
						"TEXCOORD_0":75
					},
					"indices":76,
					"material":0
				}
			]
		},
		{
			"name":"Scene Root_KoncevoyRuk_2_KoncevoyRuk_2-OFFSET_KoncevoyRuk_2",
			"primitives":[
				{
					"attributes":{
						"POSITION":77,
						"NORMAL":78,
						"TEXCOORD_0":79
					},
					"indices":76,
					"material":0
				}
			]
		},
		{
			"name":"Scene Root_Korzina_gen_Korzina_gen-GEODE_02 - Default_0.001",
			"primitives":[
				{
					"attributes":{
						"POSITION":80,
						"NORMAL":81,
						"TEXCOORD_0":82
					},
					"indices":83,
					"material":0
				}
			]
		},
		{
			"name":"Scene Root_Object001_Object001-OFFSET_Object001-GEODE_02 - Defa",
			"primitives":[
				{
					"attributes":{
						"POSITION":84,
						"NORMAL":85,
						"TEXCOORD_0":86
					},
					"indices":87,
					"material":0
				}
			]
		},
		{
			"name":"Scene Root_PinchOFF_2_PinchOFF_2-OFFSET_PinchOFF_2-GEODE_02.005",
			"primitives":[
				{
					"attributes":{
						"POSITION":88,
						"NORMAL":89,
						"TEXCOORD_0":90
					},
					"indices":91,
					"material":0
				}
			]
		},
		{
			"name":"Scene Root_PinchON_PinchON-OFFSET_PinchON-GEODE_02 - Defaul",
			"primitives":[
				{
					"attributes":{
						"POSITION":92,
						"NORMAL":93,
						"TEXCOORD_0":94
					},
					"indices":91,
					"material":0
				}
			]
		},
		{
			"name":"Scene Root_Poruchni_Poruchni-GEODE_02 - Default_0.001",
			"primitives":[
				{
					"attributes":{
						"POSITION":95,
						"NORMAL":96,
						"TEXCOORD_0":97
					},
					"indices":98,
					"material":0
				}
			]
		},
		{
			"name":"Scene Root_PredohrKV_PredohrKV-OFFSET_PredohrKV-GEODE_02 - .004",
			"primitives":[
				{
					"attributes":{
						"POSITION":99,
						"NORMAL":100,
						"TEXCOORD_0":101
					},
					"indices":102,
					"material":0
				}
			]
		},
		{
			"name":"Scene Root_RascepRich_RascepRich-GEODE_02 - Default_0.001",
			"primitives":[
				{
					"attributes":{
						"POSITION":103,
						"NORMAL":104,
						"TEXCOORD_0":105
					},
					"indices":106,
					"material":0
				}
			]
		},
		{
			"name":"Scene Root_Reshetki_KU_Reshetki_KU-OFFSET_Reshetki_KU-GEODE.001",
			"primitives":[
				{
					"attributes":{
						"POSITION":107,
						"NORMAL":108,
						"TEXCOORD_0":109
					},
					"indices":60,
					"material":0
				}
			]
		},
		{
			"name":"Scene Root_Rezina_ram_Rezina_ram-OFFSET_Rezina_ram-GEODE_02 - D",
			"primitives":[
				{
					"attributes":{
						"POSITION":110,
						"NORMAL":111,
						"TEXCOORD_0":112
					},
					"indices":113,
					"material":0
				}
			]
		},
		{
			"name":"Scene Root_Roof_luk_Roof_luk-OFFSET_Roof_luk-GEODE_02 - Def",
			"primitives":[
				{
					"attributes":{
						"POSITION":114,
						"NORMAL":115,
						"TEXCOORD_0":116
					},
					"indices":64,
					"material":0
				}
			]
		},
		{
			"name":"Scene Root_RozetkiOT_RozetkiOT-OFFSET_RozetkiOT-GEODE_02 - .005",
			"primitives":[
				{
					"attributes":{
						"POSITION":117,
						"NORMAL":118,
						"TEXCOORD_0":119
					},
					"indices":120,
					"material":0
				}
			]
		},
		{
			"name":"Scene Root_SA-3-1_SA-3-1-OFFSET_SA-3-1-GEODE_02 - Default_0.006",
			"primitives":[
				{
					"attributes":{
						"POSITION":121,
						"NORMAL":122,
						"TEXCOORD_0":123
					},
					"indices":124,
					"material":0
				}
			]
		},
		{
			"name":"Scene Root_SA-3-2_SA-3-2-OFFSET_SA-3-2-GEODE_02 - Default_0.006",
			"primitives":[
				{
					"attributes":{
						"POSITION":125,
						"NORMAL":126,
						"TEXCOORD_0":127
					},
					"indices":124,
					"material":0
				}
			]
		},
		{
			"name":"Scene Root_Stupenki_Stupenki-OFFSET_Stupenki-GEODE_02 - Def",
			"primitives":[
				{
					"attributes":{
						"POSITION":128,
						"NORMAL":129,
						"TEXCOORD_0":130
					},
					"indices":120,
					"material":0
				}
			]
		},
		{
			"name":"Scene Root_TRP_TRP-OFFSET_TRP-GEODE_02 - Default_0.005",
			"primitives":[
				{
					"attributes":{
						"POSITION":131,
						"NORMAL":132,
						"TEXCOORD_0":133
					},
					"indices":134,
					"material":0
				}
			]
		},
		{
			"name":"Scene Root_Trub_TM_Trub_TM-OFFSET_Trub_TM-GEODE_02 - Defaul",
			"primitives":[
				{
					"attributes":{
						"POSITION":135,
						"NORMAL":136,
						"TEXCOORD_0":137
					},
					"indices":138,
					"material":0
				}
			]
		},
		{
			"name":"Scene Root_Trube_titan_Trube_titan-OFFSET_Trube_titan-GEODE",
			"primitives":[
				{
					"attributes":{
						"POSITION":139,
						"NORMAL":140,
						"TEXCOORD_0":141
					},
					"indices":142,
					"material":0
				}
			]
		},
		{
			"name":"Scene Root_Vent_KU_Vent_KU-GEODE_02 - Default_0.002",
			"primitives":[
				{
					"attributes":{
						"POSITION":143,
						"NORMAL":144,
						"TEXCOORD_0":145
					},
					"indices":138,
					"material":0
				}
			]
		},
		{
			"name":"Scene Root_Yashik_3Kv_Yashik_3Kv-OFFSET_Yashik_3Kv-GEODE_02.001",
			"primitives":[
				{
					"attributes":{
						"POSITION":146,
						"NORMAL":147,
						"TEXCOORD_0":148
					},
					"indices":149,
					"material":0
				}
			]
		},
		{
			"name":"Scene Root_Yashik_RCH_Yashik_RCH-OFFSET_Yashik_RCH-GEODE_02.001",
			"primitives":[
				{
					"attributes":{
						"POSITION":150,
						"NORMAL":151,
						"TEXCOORD_0":152
					},
					"indices":153,
					"material":0
				}
			]
		},
		{
			"name":"Scene Root_Yashik_VU_Yashik_VU-OFFSET_Yashik_VU-GEODE_02 - .003",
			"primitives":[
				{
					"attributes":{
						"POSITION":154,
						"NORMAL":155,
						"TEXCOORD_0":156
					},
					"indices":157,
					"material":0
				}
			]
		}
	],
	"textures":[
		{
			"sampler":0,
			"source":0
		}
	],
	"images":[
		{
			"mimeType":"image/png",
			"name":"pass_rzd-25924",
			"uri":"T_pass_rzd-25924/pass_rzd-25924.png"
		}
	],
	"accessors":[
		{
			"bufferView":0,
			"componentType":5126,
			"count":1104,
			"max":[
				1.4198802709579468,
				1.4789149761199951,
				-0.8800097703933716
			],
			"min":[
				-1.4198802709579468,
				0.7523890137672424,
				-4.860020160675049
			],
			"type":"VEC3"
		},
		{
			"bufferView":1,
			"componentType":5126,
			"count":1104,
			"type":"VEC3"
		},
		{
			"bufferView":2,
			"componentType":5126,
			"count":1104,
			"type":"VEC2"
		},
		{
			"bufferView":3,
			"componentType":5123,
			"count":1104,
			"type":"SCALAR"
		},
		{
			"bufferView":4,
			"componentType":5126,
			"count":1506,
			"max":[
				0.4105345904827118,
				1.4356626272201538,
				1.1404192447662354
			],
			"min":[
				-1.1427428722381592,
				0.7117331027984619,
				-0.8560581207275391
			],
			"type":"VEC3"
		},
		{
			"bufferView":5,
			"componentType":5126,
			"count":1506,
			"type":"VEC3"
		},
		{
			"bufferView":6,
			"componentType":5126,
			"count":1506,
			"type":"VEC2"
		},
		{
			"bufferView":7,
			"componentType":5123,
			"count":1506,
			"type":"SCALAR"
		},
		{
			"bufferView":8,
			"componentType":5126,
			"count":210,
			"max":[
				1.3320549726486206,
				1.5171489715576172,
				0.978117048740387
			],
			"min":[
				0.5715699791908264,
				0.6363890171051025,
				-0.5211349725723267
			],
			"type":"VEC3"
		},
		{
			"bufferView":9,
			"componentType":5126,
			"count":210,
			"type":"VEC3"
		},
		{
			"bufferView":10,
			"componentType":5126,
			"count":210,
			"type":"VEC2"
		},
		{
			"bufferView":11,
			"componentType":5123,
			"count":210,
			"type":"SCALAR"
		},
		{
			"bufferView":12,
			"componentType":5126,
			"count":2556,
			"max":[
				1.5540200471878052,
				4.664772033691406,
				12.308732986450195
			],
			"min":[
				-1.5540200471878052,
				0.5932930707931519,
				-12.308723449707031
			],
			"type":"VEC3"
		},
		{
			"bufferView":13,
			"componentType":5126,
			"count":2556,
			"type":"VEC3"
		},
		{
			"bufferView":14,
			"componentType":5126,
			"count":2556,
			"type":"VEC2"
		},
		{
			"bufferView":15,
			"componentType":5123,
			"count":2556,
			"type":"SCALAR"
		},
		{
			"bufferView":16,
			"componentType":5126,
			"count":13572,
			"max":[
				1.5550907850265503,
				1.3840231895446777,
				10.44983959197998
			],
			"min":[
				-1.5550909042358398,
				0.4779641032218933,
				6.550152778625488
			],
			"type":"VEC3"
		},
		{
			"bufferView":17,
			"componentType":5126,
			"count":13572,
			"type":"VEC3"
		},
		{
			"bufferView":18,
			"componentType":5126,
			"count":13572,
			"type":"VEC2"
		},
		{
			"bufferView":19,
			"componentType":5123,
			"count":13572,
			"type":"SCALAR"
		},
		{
			"bufferView":20,
			"componentType":5126,
			"count":732,
			"max":[
				0.8508687615394592,
				0.5169954299926758,
				0.509099006652832
			],
			"min":[
				-0.8516122102737427,
				-0.5168991088867188,
				-0.5090827941894531
			],
			"type":"VEC3"
		},
		{
			"bufferView":21,
			"componentType":5126,
			"count":732,
			"type":"VEC3"
		},
		{
			"bufferView":22,
			"componentType":5126,
			"count":732,
			"type":"VEC2"
		},
		{
			"bufferView":23,
			"componentType":5123,
			"count":732,
			"type":"SCALAR"
		},
		{
			"bufferView":24,
			"componentType":5126,
			"count":900,
			"max":[
				0.850877046585083,
				0.5170068740844727,
				0.5090932846069336
			],
			"min":[
				-0.8516039252281189,
				-0.5168876647949219,
				-0.5090889930725098
			],
			"type":"VEC3"
		},
		{
			"bufferView":25,
			"componentType":5126,
			"count":900,
			"type":"VEC3"
		},
		{
			"bufferView":26,
			"componentType":5126,
			"count":900,
			"type":"VEC2"
		},
		{
			"bufferView":27,
			"componentType":5123,
			"count":900,
			"type":"SCALAR"
		},
		{
			"bufferView":28,
			"componentType":5126,
			"count":13056,
			"max":[
				1.5550907850265503,
				1.3840231895446777,
				-6.550152778625488
			],
			"min":[
				-1.5550909042358398,
				0.4779641032218933,
				-10.44983959197998
			],
			"type":"VEC3"
		},
		{
			"bufferView":29,
			"componentType":5126,
			"count":13056,
			"type":"VEC3"
		},
		{
			"bufferView":30,
			"componentType":5126,
			"count":13056,
			"type":"VEC2"
		},
		{
			"bufferView":31,
			"componentType":5123,
			"count":13056,
			"type":"SCALAR"
		},
		{
			"bufferView":32,
			"componentType":5126,
			"count":732,
			"max":[
				0.8508687019348145,
				0.5169951915740967,
				0.5091037750244141
			],
			"min":[
				-0.8516122698783875,
				-0.5168993473052979,
				-0.5090785026550293
			],
			"type":"VEC3"
		},
		{
			"bufferView":33,
			"componentType":5126,
			"count":732,
			"type":"VEC3"
		},
		{
			"bufferView":34,
			"componentType":5126,
			"count":732,
			"type":"VEC2"
		},
		{
			"bufferView":35,
			"componentType":5126,
			"count":732,
			"max":[
				0.8508687615394592,
				0.5169955492019653,
				0.5091066360473633
			],
			"min":[
				-0.8516122102737427,
				-0.5168989896774292,
				-0.5090751647949219
			],
			"type":"VEC3"
		},
		{
			"bufferView":36,
			"componentType":5126,
			"count":732,
			"type":"VEC3"
		},
		{
			"bufferView":37,
			"componentType":5126,
			"count":732,
			"type":"VEC2"
		},
		{
			"bufferView":38,
			"componentType":5126,
			"count":180,
			"max":[
				0.051952071487903595,
				0.7646989226341248,
				0.06122351065278053
			],
			"min":[
				-0.0519937202334404,
				-0.765777051448822,
				-0.06129749119281769
			],
			"type":"VEC3"
		},
		{
			"bufferView":39,
			"componentType":5126,
			"count":180,
			"type":"VEC3"
		},
		{
			"bufferView":40,
			"componentType":5126,
			"count":180,
			"type":"VEC2"
		},
		{
			"bufferView":41,
			"componentType":5123,
			"count":180,
			"type":"SCALAR"
		},
		{
			"bufferView":42,
			"componentType":5126,
			"count":132,
			"max":[
				0.12905481457710266,
				0.11097097396850586,
				0.13539022207260132
			],
			"min":[
				-0.12885108590126038,
				-0.07699298858642578,
				-0.1353902816772461
			],
			"type":"VEC3"
		},
		{
			"bufferView":43,
			"componentType":5126,
			"count":132,
			"type":"VEC3"
		},
		{
			"bufferView":44,
			"componentType":5126,
			"count":132,
			"type":"VEC2"
		},
		{
			"bufferView":45,
			"componentType":5123,
			"count":132,
			"type":"SCALAR"
		},
		{
			"bufferView":46,
			"componentType":5126,
			"count":732,
			"max":[
				0.36832675337791443,
				1.1166242361068726,
				5.21637487411499
			],
			"min":[
				-0.6049408316612244,
				0.5842031836509705,
				3.739888906478882
			],
			"type":"VEC3"
		},
		{
			"bufferView":47,
			"componentType":5126,
			"count":732,
			"type":"VEC3"
		},
		{
			"bufferView":48,
			"componentType":5126,
			"count":732,
			"type":"VEC2"
		},
		{
			"bufferView":49,
			"componentType":5126,
			"count":36,
			"max":[
				1.4662662744522095,
				1.4632059335708618,
				-0.37806031107902527
			],
			"min":[
				-1.4666879177093506,
				1.2824335098266602,
				-1.0307656526565552
			],
			"type":"VEC3"
		},
		{
			"bufferView":50,
			"componentType":5126,
			"count":36,
			"type":"VEC3"
		},
		{
			"bufferView":51,
			"componentType":5126,
			"count":36,
			"type":"VEC2"
		},
		{
			"bufferView":52,
			"componentType":5123,
			"count":36,
			"type":"SCALAR"
		},
		{
			"bufferView":53,
			"componentType":5126,
			"count":864,
			"max":[
				1.1927008628845215,
				1.67775559425354,
				12.498753547668457
			],
			"min":[
				-1.1927008628845215,
				1.0872504711151123,
				-12.498763084411621
			],
			"type":"VEC3"
		},
		{
			"bufferView":54,
			"componentType":5126,
			"count":864,
			"type":"VEC3"
		},
		{
			"bufferView":55,
			"componentType":5126,
			"count":864,
			"type":"VEC2"
		},
		{
			"bufferView":56,
			"componentType":5123,
			"count":864,
			"type":"SCALAR"
		},
		{
			"bufferView":57,
			"componentType":5126,
			"count":144,
			"max":[
				1.2879481315612793,
				1.5213779211044312,
				1.4111900329589844
			],
			"min":[
				-1.4088319540023804,
				0.8046351075172424,
				0.5236272215843201
			],
			"type":"VEC3"
		},
		{
			"bufferView":58,
			"componentType":5126,
			"count":144,
			"type":"VEC3"
		},
		{
			"bufferView":59,
			"componentType":5126,
			"count":144,
			"type":"VEC2"
		},
		{
			"bufferView":60,
			"componentType":5123,
			"count":144,
			"type":"SCALAR"
		},
		{
			"bufferView":61,
			"componentType":5126,
			"count":168,
			"max":[
				0.8961470127105713,
				4.70450496673584,
				10.334470748901367
			],
			"min":[
				-0.9493079781532288,
				4.562986373901367,
				-11.676878929138184
			],
			"type":"VEC3"
		},
		{
			"bufferView":62,
			"componentType":5126,
			"count":168,
			"type":"VEC3"
		},
		{
			"bufferView":63,
			"componentType":5126,
			"count":168,
			"type":"VEC2"
		},
		{
			"bufferView":64,
			"componentType":5123,
			"count":168,
			"type":"SCALAR"
		},
		{
			"bufferView":65,
			"componentType":5126,
			"count":750,
			"max":[
				1.3482648134231567,
				1.557579755783081,
				-5.020707607269287
			],
			"min":[
				-1.4194226264953613,
				0.5353389978408813,
				-6.736483573913574
			],
			"type":"VEC3"
		},
		{
			"bufferView":66,
			"componentType":5126,
			"count":750,
			"type":"VEC3"
		},
		{
			"bufferView":67,
			"componentType":5126,
			"count":750,
			"type":"VEC2"
		},
		{
			"bufferView":68,
			"componentType":5123,
			"count":750,
			"type":"SCALAR"
		},
		{
			"bufferView":69,
			"componentType":5126,
			"count":288,
			"max":[
				1.381604552268982,
				3.712275505065918,
				12.140080451965332
			],
			"min":[
				-1.381824254989624,
				1.591133713722229,
				-12.140128135681152
			],
			"type":"VEC3"
		},
		{
			"bufferView":70,
			"componentType":5126,
			"count":288,
			"type":"VEC3"
		},
		{
			"bufferView":71,
			"componentType":5126,
			"count":288,
			"type":"VEC2"
		},
		{
			"bufferView":72,
			"componentType":5123,
			"count":288,
			"type":"SCALAR"
		},
		{
			"bufferView":73,
			"componentType":5126,
			"count":606,
			"max":[
				0.472701758146286,
				1.24850332736969,
				12.563690185546875
			],
			"min":[
				-0.0693916603922844,
				0.6876919269561768,
				11.827065467834473
			],
			"type":"VEC3"
		},
		{
			"bufferView":74,
			"componentType":5126,
			"count":606,
			"type":"VEC3"
		},
		{
			"bufferView":75,
			"componentType":5126,
			"count":606,
			"type":"VEC2"
		},
		{
			"bufferView":76,
			"componentType":5123,
			"count":606,
			"type":"SCALAR"
		},
		{
			"bufferView":77,
			"componentType":5126,
			"count":606,
			"max":[
				0.06938976794481277,
				1.24850332736969,
				-11.827065467834473
			],
			"min":[
				-0.47270357608795166,
				0.6876919269561768,
				-12.563690185546875
			],
			"type":"VEC3"
		},
		{
			"bufferView":78,
			"componentType":5126,
			"count":606,
			"type":"VEC3"
		},
		{
			"bufferView":79,
			"componentType":5126,
			"count":606,
			"type":"VEC2"
		},
		{
			"bufferView":80,
			"componentType":5126,
			"count":330,
			"max":[
				0.43119198083877563,
				1.2188090085983276,
				5.480754852294922
			],
			"min":[
				-0.4375520348548889,
				0.5055009722709656,
				4.488945960998535
			],
			"type":"VEC3"
		},
		{
			"bufferView":81,
			"componentType":5126,
			"count":330,
			"type":"VEC3"
		},
		{
			"bufferView":82,
			"componentType":5126,
			"count":330,
			"type":"VEC2"
		},
		{
			"bufferView":83,
			"componentType":5123,
			"count":330,
			"type":"SCALAR"
		},
		{
			"bufferView":84,
			"componentType":5126,
			"count":96,
			"max":[
				1.0059375762939453,
				1.6809321641921997,
				12.42729663848877
			],
			"min":[
				-1.0201420783996582,
				1.4281504154205322,
				12.34284782409668
			],
			"type":"VEC3"
		},
		{
			"bufferView":85,
			"componentType":5126,
			"count":96,
			"type":"VEC3"
		},
		{
			"bufferView":86,
			"componentType":5126,
			"count":96,
			"type":"VEC2"
		},
		{
			"bufferView":87,
			"componentType":5123,
			"count":96,
			"type":"SCALAR"
		},
		{
			"bufferView":88,
			"componentType":5126,
			"count":306,
			"max":[
				-0.8865822553634644,
				1.8104102611541748,
				-11.861987113952637
			],
			"min":[
				-1.4809690713882446,
				0.7491331696510315,
				-12.2048978805542
			],
			"type":"VEC3"
		},
		{
			"bufferView":89,
			"componentType":5126,
			"count":306,
			"type":"VEC3"
		},
		{
			"bufferView":90,
			"componentType":5126,
			"count":306,
			"type":"VEC2"
		},
		{
			"bufferView":91,
			"componentType":5123,
			"count":306,
			"type":"SCALAR"
		},
		{
			"bufferView":92,
			"componentType":5126,
			"count":306,
			"max":[
				0.9251141548156738,
				1.0941431522369385,
				12.883536338806152
			],
			"min":[
				0.787278950214386,
				0.5737782716751099,
				11.862982749938965
			],
			"type":"VEC3"
		},
		{
			"bufferView":93,
			"componentType":5126,
			"count":306,
			"type":"VEC3"
		},
		{
			"bufferView":94,
			"componentType":5126,
			"count":306,
			"type":"VEC2"
		},
		{
			"bufferView":95,
			"componentType":5126,
			"count":1152,
			"max":[
				1.6711699962615967,
				2.9489998817443848,
				11.851284980773926
			],
			"min":[
				-1.6711699962615967,
				1.6121799945831299,
				-11.851115226745605
			],
			"type":"VEC3"
		},
		{
			"bufferView":96,
			"componentType":5126,
			"count":1152,
			"type":"VEC3"
		},
		{
			"bufferView":97,
			"componentType":5126,
			"count":1152,
			"type":"VEC2"
		},
		{
			"bufferView":98,
			"componentType":5123,
			"count":1152,
			"type":"SCALAR"
		},
		{
			"bufferView":99,
			"componentType":5126,
			"count":162,
			"max":[
				0.3785209059715271,
				1.249751091003418,
				6.438434600830078
			],
			"min":[
				-0.3785211443901062,
				0.5070008039474487,
				5.637745380401611
			],
			"type":"VEC3"
		},
		{
			"bufferView":100,
			"componentType":5126,
			"count":162,
			"type":"VEC3"
		},
		{
			"bufferView":101,
			"componentType":5126,
			"count":162,
			"type":"VEC2"
		},
		{
			"bufferView":102,
			"componentType":5123,
			"count":162,
			"type":"SCALAR"
		},
		{
			"bufferView":103,
			"componentType":5126,
			"count":804,
			"max":[
				1.2346999645233154,
				1.3543000221252441,
				12.3572998046875
			],
			"min":[
				-1.2347099781036377,
				0.7931479811668396,
				-12.365300178527832
			],
			"type":"VEC3"
		},
		{
			"bufferView":104,
			"componentType":5126,
			"count":804,
			"type":"VEC3"
		},
		{
			"bufferView":105,
			"componentType":5126,
			"count":804,
			"type":"VEC2"
		},
		{
			"bufferView":106,
			"componentType":5123,
			"count":804,
			"type":"SCALAR"
		},
		{
			"bufferView":107,
			"componentType":5126,
			"count":144,
			"max":[
				1.603149652481079,
				4.365302562713623,
				11.732627868652344
			],
			"min":[
				-1.6028273105621338,
				3.8375983238220215,
				10.644570350646973
			],
			"type":"VEC3"
		},
		{
			"bufferView":108,
			"componentType":5126,
			"count":144,
			"type":"VEC3"
		},
		{
			"bufferView":109,
			"componentType":5126,
			"count":144,
			"type":"VEC2"
		},
		{
			"bufferView":110,
			"componentType":5126,
			"count":696,
			"max":[
				0.8905857801437378,
				3.9936492443084717,
				12.500863075256348
			],
			"min":[
				-0.8900183439254761,
				1.6807506084442139,
				-12.500791549682617
			],
			"type":"VEC3"
		},
		{
			"bufferView":111,
			"componentType":5126,
			"count":696,
			"type":"VEC3"
		},
		{
			"bufferView":112,
			"componentType":5126,
			"count":696,
			"type":"VEC2"
		},
		{
			"bufferView":113,
			"componentType":5123,
			"count":696,
			"type":"SCALAR"
		},
		{
			"bufferView":114,
			"componentType":5126,
			"count":168,
			"max":[
				1.1209299564361572,
				4.690638542175293,
				11.865906715393066
			],
			"min":[
				-1.1112200021743774,
				4.509980201721191,
				-10.692877769470215
			],
			"type":"VEC3"
		},
		{
			"bufferView":115,
			"componentType":5126,
			"count":168,
			"type":"VEC3"
		},
		{
			"bufferView":116,
			"componentType":5126,
			"count":168,
			"type":"VEC2"
		},
		{
			"bufferView":117,
			"componentType":5126,
			"count":558,
			"max":[
				0.9393051266670227,
				1.6037330627441406,
				12.14583683013916
			],
			"min":[
				-0.9393085241317749,
				0.980730414390564,
				-12.145695686340332
			],
			"type":"VEC3"
		},
		{
			"bufferView":118,
			"componentType":5126,
			"count":558,
			"type":"VEC3"
		},
		{
			"bufferView":119,
			"componentType":5126,
			"count":558,
			"type":"VEC2"
		},
		{
			"bufferView":120,
			"componentType":5123,
			"count":558,
			"type":"SCALAR"
		},
		{
			"bufferView":121,
			"componentType":5126,
			"count":618,
			"max":[
				0.2796057164669037,
				1.5994269847869873,
				12.63521957397461
			],
			"min":[
				-0.26976561546325684,
				1.145745038986206,
				11.662010192871094
			],
			"type":"VEC3"
		},
		{
			"bufferView":122,
			"componentType":5126,
			"count":618,
			"type":"VEC3"
		},
		{
			"bufferView":123,
			"componentType":5126,
			"count":618,
			"type":"VEC2"
		},
		{
			"bufferView":124,
			"componentType":5123,
			"count":618,
			"type":"SCALAR"
		},
		{
			"bufferView":125,
			"componentType":5126,
			"count":618,
			"max":[
				0.2697637975215912,
				1.5994269847869873,
				-11.662010192871094
			],
			"min":[
				-0.2796076238155365,
				1.145745038986206,
				-12.63521957397461
			],
			"type":"VEC3"
		},
		{
			"bufferView":126,
			"componentType":5126,
			"count":618,
			"type":"VEC3"
		},
		{
			"bufferView":127,
			"componentType":5126,
			"count":618,
			"type":"VEC2"
		},
		{
			"bufferView":128,
			"componentType":5126,
			"count":558,
			"max":[
				1.578978180885315,
				1.6006669998168945,
				11.73285961151123
			],
			"min":[
				-1.5789717435836792,
				0.8494359850883484,
				-11.73009967803955
			],
			"type":"VEC3"
		},
		{
			"bufferView":129,
			"componentType":5126,
			"count":558,
			"type":"VEC3"
		},
		{
			"bufferView":130,
			"componentType":5126,
			"count":558,
			"type":"VEC2"
		},
		{
			"bufferView":131,
			"componentType":5126,
			"count":390,
			"max":[
				0.6776605844497681,
				1.2897425889968872,
				6.907504558563232
			],
			"min":[
				-0.6806128025054932,
				1.114861011505127,
				-6.90843391418457
			],
			"type":"VEC3"
		},
		{
			"bufferView":132,
			"componentType":5126,
			"count":390,
			"type":"VEC3"
		},
		{
			"bufferView":133,
			"componentType":5126,
			"count":390,
			"type":"VEC2"
		},
		{
			"bufferView":134,
			"componentType":5123,
			"count":390,
			"type":"SCALAR"
		},
		{
			"bufferView":135,
			"componentType":5126,
			"count":186,
			"max":[
				0.4508446156978607,
				1.549843430519104,
				11.984126091003418
			],
			"min":[
				-0.4508437514305115,
				1.122819185256958,
				-11.984065055847168
			],
			"type":"VEC3"
		},
		{
			"bufferView":136,
			"componentType":5126,
			"count":186,
			"type":"VEC3"
		},
		{
			"bufferView":137,
			"componentType":5126,
			"count":186,
			"type":"VEC2"
		},
		{
			"bufferView":138,
			"componentType":5123,
			"count":186,
			"type":"SCALAR"
		},
		{
			"bufferView":139,
			"componentType":5126,
			"count":324,
			"max":[
				1.1201152801513672,
				4.953112602233887,
				10.670948028564453
			],
			"min":[
				0.261722207069397,
				4.512260913848877,
				9.52444839477539
			],
			"type":"VEC3"
		},
		{
			"bufferView":140,
			"componentType":5126,
			"count":324,
			"type":"VEC3"
		},
		{
			"bufferView":141,
			"componentType":5126,
			"count":324,
			"type":"VEC2"
		},
		{
			"bufferView":142,
			"componentType":5123,
			"count":324,
			"type":"SCALAR"
		},
		{
			"bufferView":143,
			"componentType":5126,
			"count":186,
			"max":[
				0.36328956484794617,
				4.757843017578125,
				11.668553352355957
			],
			"min":[
				-0.3668094575405121,
				4.660305976867676,
				10.230010986328125
			],
			"type":"VEC3"
		},
		{
			"bufferView":144,
			"componentType":5126,
			"count":186,
			"type":"VEC3"
		},
		{
			"bufferView":145,
			"componentType":5126,
			"count":186,
			"type":"VEC2"
		},
		{
			"bufferView":146,
			"componentType":5126,
			"count":396,
			"max":[
				1.2348147630691528,
				1.6683963537216187,
				10.887901306152344
			],
			"min":[
				0.4708062410354614,
				0.5649333000183105,
				1.705040693283081
			],
			"type":"VEC3"
		},
		{
			"bufferView":147,
			"componentType":5126,
			"count":396,
			"type":"VEC3"
		},
		{
			"bufferView":148,
			"componentType":5126,
			"count":396,
			"type":"VEC2"
		},
		{
			"bufferView":149,
			"componentType":5123,
			"count":396,
			"type":"SCALAR"
		},
		{
			"bufferView":150,
			"componentType":5126,
			"count":108,
			"max":[
				-0.5611932873725891,
				1.5009421110153198,
				4.476626396179199
			],
			"min":[
				-1.240167260169983,
				0.5539942383766174,
				2.6836767196655273
			],
			"type":"VEC3"
		},
		{
			"bufferView":151,
			"componentType":5126,
			"count":108,
			"type":"VEC3"
		},
		{
			"bufferView":152,
			"componentType":5126,
			"count":108,
			"type":"VEC2"
		},
		{
			"bufferView":153,
			"componentType":5123,
			"count":108,
			"type":"SCALAR"
		},
		{
			"bufferView":154,
			"componentType":5126,
			"count":78,
			"max":[
				-0.5611932873725891,
				1.3839695453643799,
				2.7418854236602783
			],
			"min":[
				-1.2401666641235352,
				0.5888225436210632,
				1.171636700630188
			],
			"type":"VEC3"
		},
		{
			"bufferView":155,
			"componentType":5126,
			"count":78,
			"type":"VEC3"
		},
		{
			"bufferView":156,
			"componentType":5126,
			"count":78,
			"type":"VEC2"
		},
		{
			"bufferView":157,
			"componentType":5123,
			"count":78,
			"type":"SCALAR"
		}
	],
	"bufferViews":[
		{
			"buffer":0,
			"byteLength":13248,
			"byteOffset":0,
			"target":34962
		},
		{
			"buffer":0,
			"byteLength":13248,
			"byteOffset":13248,
			"target":34962
		},
		{
			"buffer":0,
			"byteLength":8832,
			"byteOffset":26496,
			"target":34962
		},
		{
			"buffer":0,
			"byteLength":2208,
			"byteOffset":35328,
			"target":34963
		},
		{
			"buffer":0,
			"byteLength":18072,
			"byteOffset":37536,
			"target":34962
		},
		{
			"buffer":0,
			"byteLength":18072,
			"byteOffset":55608,
			"target":34962
		},
		{
			"buffer":0,
			"byteLength":12048,
			"byteOffset":73680,
			"target":34962
		},
		{
			"buffer":0,
			"byteLength":3012,
			"byteOffset":85728,
			"target":34963
		},
		{
			"buffer":0,
			"byteLength":2520,
			"byteOffset":88740,
			"target":34962
		},
		{
			"buffer":0,
			"byteLength":2520,
			"byteOffset":91260,
			"target":34962
		},
		{
			"buffer":0,
			"byteLength":1680,
			"byteOffset":93780,
			"target":34962
		},
		{
			"buffer":0,
			"byteLength":420,
			"byteOffset":95460,
			"target":34963
		},
		{
			"buffer":0,
			"byteLength":30672,
			"byteOffset":95880,
			"target":34962
		},
		{
			"buffer":0,
			"byteLength":30672,
			"byteOffset":126552,
			"target":34962
		},
		{
			"buffer":0,
			"byteLength":20448,
			"byteOffset":157224,
			"target":34962
		},
		{
			"buffer":0,
			"byteLength":5112,
			"byteOffset":177672,
			"target":34963
		},
		{
			"buffer":0,
			"byteLength":162864,
			"byteOffset":182784,
			"target":34962
		},
		{
			"buffer":0,
			"byteLength":162864,
			"byteOffset":345648,
			"target":34962
		},
		{
			"buffer":0,
			"byteLength":108576,
			"byteOffset":508512,
			"target":34962
		},
		{
			"buffer":0,
			"byteLength":27144,
			"byteOffset":617088,
			"target":34963
		},
		{
			"buffer":0,
			"byteLength":8784,
			"byteOffset":644232,
			"target":34962
		},
		{
			"buffer":0,
			"byteLength":8784,
			"byteOffset":653016,
			"target":34962
		},
		{
			"buffer":0,
			"byteLength":5856,
			"byteOffset":661800,
			"target":34962
		},
		{
			"buffer":0,
			"byteLength":1464,
			"byteOffset":667656,
			"target":34963
		},
		{
			"buffer":0,
			"byteLength":10800,
			"byteOffset":669120,
			"target":34962
		},
		{
			"buffer":0,
			"byteLength":10800,
			"byteOffset":679920,
			"target":34962
		},
		{
			"buffer":0,
			"byteLength":7200,
			"byteOffset":690720,
			"target":34962
		},
		{
			"buffer":0,
			"byteLength":1800,
			"byteOffset":697920,
			"target":34963
		},
		{
			"buffer":0,
			"byteLength":156672,
			"byteOffset":699720,
			"target":34962
		},
		{
			"buffer":0,
			"byteLength":156672,
			"byteOffset":856392,
			"target":34962
		},
		{
			"buffer":0,
			"byteLength":104448,
			"byteOffset":1013064,
			"target":34962
		},
		{
			"buffer":0,
			"byteLength":26112,
			"byteOffset":1117512,
			"target":34963
		},
		{
			"buffer":0,
			"byteLength":8784,
			"byteOffset":1143624,
			"target":34962
		},
		{
			"buffer":0,
			"byteLength":8784,
			"byteOffset":1152408,
			"target":34962
		},
		{
			"buffer":0,
			"byteLength":5856,
			"byteOffset":1161192,
			"target":34962
		},
		{
			"buffer":0,
			"byteLength":8784,
			"byteOffset":1167048,
			"target":34962
		},
		{
			"buffer":0,
			"byteLength":8784,
			"byteOffset":1175832,
			"target":34962
		},
		{
			"buffer":0,
			"byteLength":5856,
			"byteOffset":1184616,
			"target":34962
		},
		{
			"buffer":0,
			"byteLength":2160,
			"byteOffset":1190472,
			"target":34962
		},
		{
			"buffer":0,
			"byteLength":2160,
			"byteOffset":1192632,
			"target":34962
		},
		{
			"buffer":0,
			"byteLength":1440,
			"byteOffset":1194792,
			"target":34962
		},
		{
			"buffer":0,
			"byteLength":360,
			"byteOffset":1196232,
			"target":34963
		},
		{
			"buffer":0,
			"byteLength":1584,
			"byteOffset":1196592,
			"target":34962
		},
		{
			"buffer":0,
			"byteLength":1584,
			"byteOffset":1198176,
			"target":34962
		},
		{
			"buffer":0,
			"byteLength":1056,
			"byteOffset":1199760,
			"target":34962
		},
		{
			"buffer":0,
			"byteLength":264,
			"byteOffset":1200816,
			"target":34963
		},
		{
			"buffer":0,
			"byteLength":8784,
			"byteOffset":1201080,
			"target":34962
		},
		{
			"buffer":0,
			"byteLength":8784,
			"byteOffset":1209864,
			"target":34962
		},
		{
			"buffer":0,
			"byteLength":5856,
			"byteOffset":1218648,
			"target":34962
		},
		{
			"buffer":0,
			"byteLength":432,
			"byteOffset":1224504,
			"target":34962
		},
		{
			"buffer":0,
			"byteLength":432,
			"byteOffset":1224936,
			"target":34962
		},
		{
			"buffer":0,
			"byteLength":288,
			"byteOffset":1225368,
			"target":34962
		},
		{
			"buffer":0,
			"byteLength":72,
			"byteOffset":1225656,
			"target":34963
		},
		{
			"buffer":0,
			"byteLength":10368,
			"byteOffset":1225728,
			"target":34962
		},
		{
			"buffer":0,
			"byteLength":10368,
			"byteOffset":1236096,
			"target":34962
		},
		{
			"buffer":0,
			"byteLength":6912,
			"byteOffset":1246464,
			"target":34962
		},
		{
			"buffer":0,
			"byteLength":1728,
			"byteOffset":1253376,
			"target":34963
		},
		{
			"buffer":0,
			"byteLength":1728,
			"byteOffset":1255104,
			"target":34962
		},
		{
			"buffer":0,
			"byteLength":1728,
			"byteOffset":1256832,
			"target":34962
		},
		{
			"buffer":0,
			"byteLength":1152,
			"byteOffset":1258560,
			"target":34962
		},
		{
			"buffer":0,
			"byteLength":288,
			"byteOffset":1259712,
			"target":34963
		},
		{
			"buffer":0,
			"byteLength":2016,
			"byteOffset":1260000,
			"target":34962
		},
		{
			"buffer":0,
			"byteLength":2016,
			"byteOffset":1262016,
			"target":34962
		},
		{
			"buffer":0,
			"byteLength":1344,
			"byteOffset":1264032,
			"target":34962
		},
		{
			"buffer":0,
			"byteLength":336,
			"byteOffset":1265376,
			"target":34963
		},
		{
			"buffer":0,
			"byteLength":9000,
			"byteOffset":1265712,
			"target":34962
		},
		{
			"buffer":0,
			"byteLength":9000,
			"byteOffset":1274712,
			"target":34962
		},
		{
			"buffer":0,
			"byteLength":6000,
			"byteOffset":1283712,
			"target":34962
		},
		{
			"buffer":0,
			"byteLength":1500,
			"byteOffset":1289712,
			"target":34963
		},
		{
			"buffer":0,
			"byteLength":3456,
			"byteOffset":1291212,
			"target":34962
		},
		{
			"buffer":0,
			"byteLength":3456,
			"byteOffset":1294668,
			"target":34962
		},
		{
			"buffer":0,
			"byteLength":2304,
			"byteOffset":1298124,
			"target":34962
		},
		{
			"buffer":0,
			"byteLength":576,
			"byteOffset":1300428,
			"target":34963
		},
		{
			"buffer":0,
			"byteLength":7272,
			"byteOffset":1301004,
			"target":34962
		},
		{
			"buffer":0,
			"byteLength":7272,
			"byteOffset":1308276,
			"target":34962
		},
		{
			"buffer":0,
			"byteLength":4848,
			"byteOffset":1315548,
			"target":34962
		},
		{
			"buffer":0,
			"byteLength":1212,
			"byteOffset":1320396,
			"target":34963
		},
		{
			"buffer":0,
			"byteLength":7272,
			"byteOffset":1321608,
			"target":34962
		},
		{
			"buffer":0,
			"byteLength":7272,
			"byteOffset":1328880,
			"target":34962
		},
		{
			"buffer":0,
			"byteLength":4848,
			"byteOffset":1336152,
			"target":34962
		},
		{
			"buffer":0,
			"byteLength":3960,
			"byteOffset":1341000,
			"target":34962
		},
		{
			"buffer":0,
			"byteLength":3960,
			"byteOffset":1344960,
			"target":34962
		},
		{
			"buffer":0,
			"byteLength":2640,
			"byteOffset":1348920,
			"target":34962
		},
		{
			"buffer":0,
			"byteLength":660,
			"byteOffset":1351560,
			"target":34963
		},
		{
			"buffer":0,
			"byteLength":1152,
			"byteOffset":1352220,
			"target":34962
		},
		{
			"buffer":0,
			"byteLength":1152,
			"byteOffset":1353372,
			"target":34962
		},
		{
			"buffer":0,
			"byteLength":768,
			"byteOffset":1354524,
			"target":34962
		},
		{
			"buffer":0,
			"byteLength":192,
			"byteOffset":1355292,
			"target":34963
		},
		{
			"buffer":0,
			"byteLength":3672,
			"byteOffset":1355484,
			"target":34962
		},
		{
			"buffer":0,
			"byteLength":3672,
			"byteOffset":1359156,
			"target":34962
		},
		{
			"buffer":0,
			"byteLength":2448,
			"byteOffset":1362828,
			"target":34962
		},
		{
			"buffer":0,
			"byteLength":612,
			"byteOffset":1365276,
			"target":34963
		},
		{
			"buffer":0,
			"byteLength":3672,
			"byteOffset":1365888,
			"target":34962
		},
		{
			"buffer":0,
			"byteLength":3672,
			"byteOffset":1369560,
			"target":34962
		},
		{
			"buffer":0,
			"byteLength":2448,
			"byteOffset":1373232,
			"target":34962
		},
		{
			"buffer":0,
			"byteLength":13824,
			"byteOffset":1375680,
			"target":34962
		},
		{
			"buffer":0,
			"byteLength":13824,
			"byteOffset":1389504,
			"target":34962
		},
		{
			"buffer":0,
			"byteLength":9216,
			"byteOffset":1403328,
			"target":34962
		},
		{
			"buffer":0,
			"byteLength":2304,
			"byteOffset":1412544,
			"target":34963
		},
		{
			"buffer":0,
			"byteLength":1944,
			"byteOffset":1414848,
			"target":34962
		},
		{
			"buffer":0,
			"byteLength":1944,
			"byteOffset":1416792,
			"target":34962
		},
		{
			"buffer":0,
			"byteLength":1296,
			"byteOffset":1418736,
			"target":34962
		},
		{
			"buffer":0,
			"byteLength":324,
			"byteOffset":1420032,
			"target":34963
		},
		{
			"buffer":0,
			"byteLength":9648,
			"byteOffset":1420356,
			"target":34962
		},
		{
			"buffer":0,
			"byteLength":9648,
			"byteOffset":1430004,
			"target":34962
		},
		{
			"buffer":0,
			"byteLength":6432,
			"byteOffset":1439652,
			"target":34962
		},
		{
			"buffer":0,
			"byteLength":1608,
			"byteOffset":1446084,
			"target":34963
		},
		{
			"buffer":0,
			"byteLength":1728,
			"byteOffset":1447692,
			"target":34962
		},
		{
			"buffer":0,
			"byteLength":1728,
			"byteOffset":1449420,
			"target":34962
		},
		{
			"buffer":0,
			"byteLength":1152,
			"byteOffset":1451148,
			"target":34962
		},
		{
			"buffer":0,
			"byteLength":8352,
			"byteOffset":1452300,
			"target":34962
		},
		{
			"buffer":0,
			"byteLength":8352,
			"byteOffset":1460652,
			"target":34962
		},
		{
			"buffer":0,
			"byteLength":5568,
			"byteOffset":1469004,
			"target":34962
		},
		{
			"buffer":0,
			"byteLength":1392,
			"byteOffset":1474572,
			"target":34963
		},
		{
			"buffer":0,
			"byteLength":2016,
			"byteOffset":1475964,
			"target":34962
		},
		{
			"buffer":0,
			"byteLength":2016,
			"byteOffset":1477980,
			"target":34962
		},
		{
			"buffer":0,
			"byteLength":1344,
			"byteOffset":1479996,
			"target":34962
		},
		{
			"buffer":0,
			"byteLength":6696,
			"byteOffset":1481340,
			"target":34962
		},
		{
			"buffer":0,
			"byteLength":6696,
			"byteOffset":1488036,
			"target":34962
		},
		{
			"buffer":0,
			"byteLength":4464,
			"byteOffset":1494732,
			"target":34962
		},
		{
			"buffer":0,
			"byteLength":1116,
			"byteOffset":1499196,
			"target":34963
		},
		{
			"buffer":0,
			"byteLength":7416,
			"byteOffset":1500312,
			"target":34962
		},
		{
			"buffer":0,
			"byteLength":7416,
			"byteOffset":1507728,
			"target":34962
		},
		{
			"buffer":0,
			"byteLength":4944,
			"byteOffset":1515144,
			"target":34962
		},
		{
			"buffer":0,
			"byteLength":1236,
			"byteOffset":1520088,
			"target":34963
		},
		{
			"buffer":0,
			"byteLength":7416,
			"byteOffset":1521324,
			"target":34962
		},
		{
			"buffer":0,
			"byteLength":7416,
			"byteOffset":1528740,
			"target":34962
		},
		{
			"buffer":0,
			"byteLength":4944,
			"byteOffset":1536156,
			"target":34962
		},
		{
			"buffer":0,
			"byteLength":6696,
			"byteOffset":1541100,
			"target":34962
		},
		{
			"buffer":0,
			"byteLength":6696,
			"byteOffset":1547796,
			"target":34962
		},
		{
			"buffer":0,
			"byteLength":4464,
			"byteOffset":1554492,
			"target":34962
		},
		{
			"buffer":0,
			"byteLength":4680,
			"byteOffset":1558956,
			"target":34962
		},
		{
			"buffer":0,
			"byteLength":4680,
			"byteOffset":1563636,
			"target":34962
		},
		{
			"buffer":0,
			"byteLength":3120,
			"byteOffset":1568316,
			"target":34962
		},
		{
			"buffer":0,
			"byteLength":780,
			"byteOffset":1571436,
			"target":34963
		},
		{
			"buffer":0,
			"byteLength":2232,
			"byteOffset":1572216,
			"target":34962
		},
		{
			"buffer":0,
			"byteLength":2232,
			"byteOffset":1574448,
			"target":34962
		},
		{
			"buffer":0,
			"byteLength":1488,
			"byteOffset":1576680,
			"target":34962
		},
		{
			"buffer":0,
			"byteLength":372,
			"byteOffset":1578168,
			"target":34963
		},
		{
			"buffer":0,
			"byteLength":3888,
			"byteOffset":1578540,
			"target":34962
		},
		{
			"buffer":0,
			"byteLength":3888,
			"byteOffset":1582428,
			"target":34962
		},
		{
			"buffer":0,
			"byteLength":2592,
			"byteOffset":1586316,
			"target":34962
		},
		{
			"buffer":0,
			"byteLength":648,
			"byteOffset":1588908,
			"target":34963
		},
		{
			"buffer":0,
			"byteLength":2232,
			"byteOffset":1589556,
			"target":34962
		},
		{
			"buffer":0,
			"byteLength":2232,
			"byteOffset":1591788,
			"target":34962
		},
		{
			"buffer":0,
			"byteLength":1488,
			"byteOffset":1594020,
			"target":34962
		},
		{
			"buffer":0,
			"byteLength":4752,
			"byteOffset":1595508,
			"target":34962
		},
		{
			"buffer":0,
			"byteLength":4752,
			"byteOffset":1600260,
			"target":34962
		},
		{
			"buffer":0,
			"byteLength":3168,
			"byteOffset":1605012,
			"target":34962
		},
		{
			"buffer":0,
			"byteLength":792,
			"byteOffset":1608180,
			"target":34963
		},
		{
			"buffer":0,
			"byteLength":1296,
			"byteOffset":1608972,
			"target":34962
		},
		{
			"buffer":0,
			"byteLength":1296,
			"byteOffset":1610268,
			"target":34962
		},
		{
			"buffer":0,
			"byteLength":864,
			"byteOffset":1611564,
			"target":34962
		},
		{
			"buffer":0,
			"byteLength":216,
			"byteOffset":1612428,
			"target":34963
		},
		{
			"buffer":0,
			"byteLength":936,
			"byteOffset":1612644,
			"target":34962
		},
		{
			"buffer":0,
			"byteLength":936,
			"byteOffset":1613580,
			"target":34962
		},
		{
			"buffer":0,
			"byteLength":624,
			"byteOffset":1614516,
			"target":34962
		},
		{
			"buffer":0,
			"byteLength":156,
			"byteOffset":1615140,
			"target":34963
		}
	],
	"samplers":[
		{
			"magFilter":9729,
			"minFilter":9987
		}
	],
	"buffers":[
		{
			"byteLength":1615296,
			"uri":"Pass_TVZ_61-826-kvr.bin"
		}
	]
}
