{
	"asset":{
		"generator":"Khronos glTF Blender I/O v4.4.56",
		"version":"2.0"
	},
	"extensionsUsed":[
		"KHR_materials_specular"
	],
	"scene":0,
	"scenes":[
		{
			"name":"Scene",
			"nodes":[
				0,
				1,
				2,
				3,
				4,
				5,
				6,
				7,
				8,
				9,
				10,
				11,
				12,
				13,
				14,
				15,
				16,
				17,
				18,
				19,
				20,
				21,
				22,
				23,
				24,
				25,
				26,
				27,
				28,
				29,
				30,
				31,
				32,
				33,
				34,
				35,
				36,
				37,
				38,
				39,
				40,
				41,
				42,
				43,
				44,
				45,
				46,
				47
			]
		}
	],
	"nodes":[
		{
			"mesh":0,
			"name":"Scene Root_AB_AB-GEODE_02 - Default_0"
		},
		{
			"mesh":1,
			"name":"Scene Root_Avtotormoz_Avtotormoz-OFFSET_Avtotormoz-GEODE_02 - D"
		},
		{
			"mesh":2,
			"name":"Scene Root_Bak_ECHT_Bak_ECHT-OFFSET_Bak_ECHT-GEODE_02 - Default"
		},
		{
			"mesh":3,
			"name":"Scene Root_Belevoy_yachik_Belevoy_yachik-OFFSET_Belevoy_yachik-"
		},
		{
			"mesh":4,
			"name":"Scene Root_Body_Body-OFFSET_Body-GEODE_02 - Default_0"
		},
		{
			"mesh":5,
			"name":"Scene Root_Body_Boige-1_Boige-1-GEODE_02 - Default_0"
		},
		{
			"mesh":6,
			"name":"Wheel-1",
			"translation":[
				-0.00037147372495383024,
				0.7861886620521545,
				9.900012016296387
			]
		},
		{
			"mesh":7,
			"name":"Wheel-2",
			"translation":[
				-0.0003634359163697809,
				0.7861772179603577,
				7.500026226043701
			]
		},
		{
			"mesh":8,
			"name":"Scene Root_Body_Boige-2_Boige-2-GEODE_02 - Default_0"
		},
		{
			"mesh":9,
			"name":"Wheel-3",
			"translation":[
				-0.00037148306728340685,
				0.7861886024475098,
				-7.499985694885254
			]
		},
		{
			"mesh":10,
			"name":"Wheel-4",
			"translation":[
				-0.00037138364859856665,
				0.786188542842865,
				-9.89998722076416
			]
		},
		{
			"mesh":11,
			"name":"Scene Root_Body_G_DCG-4435_G_DCG-4435-OFFSET_G_DCG-4435-GEODE_0"
		},
		{
			"mesh":12,
			"name":"Gen_Kardan",
			"rotation":[
				-0.6931160688400269,
				0,
				0,
				0.7208260893821716
			],
			"translation":[
				-0.0011818867642432451,
				0.8140937089920044,
				6.35971212387085
			]
		},
		{
			"mesh":13,
			"name":"Gen_Mufta1",
			"rotation":[
				-0.7071068286895752,
				0,
				0,
				0.7071068286895752
			],
			"translation":[
				0.0008727312670089304,
				0.8500000834465027,
				5.524901866912842
			]
		},
		{
			"mesh":14,
			"name":"Scene Root_Bufera_Bufera-OFFSET_Bufera-GEODE_02 - Default_0"
		},
		{
			"mesh":15,
			"name":"Scene Root_Chep_otpuskVR_Chep_otpuskVR-OFFSET_Chep_otpuskVR-GEO"
		},
		{
			"mesh":16,
			"name":"Scene Root_Deflektor_Deflektor-OFFSET_Deflektor-GEODE_02 - Defa"
		},
		{
			"mesh":17,
			"name":"Scene Root_Fartuki_Fartuki-OFFSET_Fartuki-GEODE_02 - Default_0"
		},
		{
			"mesh":18,
			"name":"Scene Root_Hvost_signal_Hvost_signal-GEODE_02 - Default_0"
		},
		{
			"mesh":19,
			"name":"Scene Root_Kabel_G_Kabel_G-OFFSET_Kabel_G-GEODE_02 - Default_0"
		},
		{
			"mesh":20,
			"name":"Scene Root_KoncevoyRuk_1_KoncevoyRuk_1-GEODE_02 - Default_0"
		},
		{
			"mesh":21,
			"name":"Scene Root_KoncevoyRuk_2_KoncevoyRuk_2-GEODE_02 - Default_0"
		},
		{
			"mesh":22,
			"name":"Scene Root_LestnicaKrisha_LestnicaKrisha-GEODE_02 - Default_0"
		},
		{
			"mesh":23,
			"name":"Scene Root_MAB-II_MAB-II-OFFSET_MAB-II-GEODE_02 - Default_0"
		},
		{
			"mesh":24,
			"name":"Scene Root_Perehod_det_Perehod_det-GEODE_02 - Default_0"
		},
		{
			"mesh":25,
			"name":"Scene Root_PinchOFF_2_PinchOFF_2-OFFSET_PinchOFF_2-GEODE_02 - D"
		},
		{
			"mesh":26,
			"name":"Scene Root_PinchON_PinchON-GEODE_02 - Default_0"
		},
		{
			"mesh":27,
			"name":"Scene Root_Podtambur_Podtambur-OFFSET_Podtambur-GEODE_02 - Defa"
		},
		{
			"mesh":28,
			"name":"Scene Root_Podveska_ConcRuk_Podveska_ConcRuk-OFFSET_Podveska_Co"
		},
		{
			"mesh":29,
			"name":"Scene Root_Poruchni_utop_Poruchni_utop-OFFSET_Poruchni_utop-GEO"
		},
		{
			"mesh":30,
			"name":"Scene Root_PredohrKV_PredohrKV-OFFSET_PredohrKV-GEODE_02 - Defa"
		},
		{
			"mesh":31,
			"name":"Scene Root_PredohrSkob_PredohrSkob-GEODE_02 - Default_0"
		},
		{
			"mesh":32,
			"name":"Scene Root_RamaGen_RamaGen-OFFSET_RamaGen-GEODE_02 - Default_0"
		},
		{
			"mesh":33,
			"name":"Scene Root_Rascep_Rascep-OFFSET_Rascep-GEODE_02 - Default_0"
		},
		{
			"mesh":34,
			"name":"Scene Root_RezinaPerehod_RezinaPerehod-GEODE_02 - Default_0"
		},
		{
			"mesh":35,
			"name":"Scene Root_RozetkiOT_RozetkiOT-OFFSET_RozetkiOT-GEODE_02 - Defa"
		},
		{
			"mesh":36,
			"name":"Scene Root_SA-3-1_SA-3-1-OFFSET_SA-3-1-GEODE_02 - Default_0"
		},
		{
			"mesh":37,
			"name":"Scene Root_SA-3-2_SA-3-2-OFFSET_SA-3-2-GEODE_02 - Default_0"
		},
		{
			"mesh":38,
			"name":"Scene Root_Stupenky_Stupenky-OFFSET_Stupenky-GEODE_02 - Default"
		},
		{
			"mesh":39,
			"name":"Scene Root_TehLuk_TehLuk-GEODE_02 - Default_0"
		},
		{
			"mesh":40,
			"name":"Scene Root_TRP_TRP-OFFSET_TRP-GEODE_02 - Default_0"
		},
		{
			"mesh":41,
			"name":"Scene Root_Trub_kotla_Trub_kotla-GEODE_02 - Default_0"
		},
		{
			"mesh":42,
			"name":"Scene Root_UgolkyTorcZub_UgolkyTorcZub-GEODE_02 - Default_0"
		},
		{
			"mesh":43,
			"name":"Scene Root_Yashik_3000Kv_Yashik_3000Kv-OFFSET_Yashik_3000Kv-GEO"
		},
		{
			"mesh":44,
			"name":"Scene Root_Yashik_KU_Yashik_KU-OFFSET_Yashik_KU-GEODE_02 - Defa"
		},
		{
			"mesh":45,
			"name":"Scene Root_Yashik_RSH_Yashik_RSH-OFFSET_Yashik_RSH-GEODE_02 - D"
		},
		{
			"mesh":46,
			"name":"Scene Root_Yashik_VU_Yashik_VU-OFFSET_Yashik_VU-GEODE_02 - Defa"
		},
		{
			"mesh":47,
			"name":"Scene Root_ZaglushkaPinch_ZaglushkaPinch-OFFSET_ZaglushkaPinch-"
		}
	],
	"materials":[
		{
			"alphaMode":"BLEND",
			"doubleSided":true,
			"extensions":{
				"KHR_materials_specular":{
					"specularFactor":0
				}
			},
			"name":"material_1",
			"pbrMetallicRoughness":{
				"baseColorTexture":{
					"index":0
				},
				"metallicFactor":0,
				"roughnessFactor":0.6837722063064575
			}
		}
	],
	"meshes":[
		{
			"name":"Scene Root_AB_AB-GEODE_02 - Default_0",
			"primitives":[
				{
					"attributes":{
						"POSITION":0,
						"NORMAL":1,
						"TEXCOORD_0":2
					},
					"indices":3,
					"material":0
				}
			]
		},
		{
			"name":"Scene Root_Avtotormoz_Avtotormoz-OFFSET_Avtotormoz-GEODE_02 - D",
			"primitives":[
				{
					"attributes":{
						"POSITION":4,
						"NORMAL":5,
						"TEXCOORD_0":6
					},
					"indices":7,
					"material":0
				}
			]
		},
		{
			"name":"Scene Root_Bak_ECHT_Bak_ECHT-OFFSET_Bak_ECHT-GEODE_02 - Default",
			"primitives":[
				{
					"attributes":{
						"POSITION":8,
						"NORMAL":9,
						"TEXCOORD_0":10
					},
					"indices":11,
					"material":0
				}
			]
		},
		{
			"name":"Scene Root_Belevoy_yachik_Belevoy_yachik-OFFSET_Belevoy_yachik-",
			"primitives":[
				{
					"attributes":{
						"POSITION":12,
						"NORMAL":13,
						"TEXCOORD_0":14
					},
					"indices":15,
					"material":0
				}
			]
		},
		{
			"name":"Scene Root_Body_Body-OFFSET_Body-GEODE_02 - Default_0",
			"primitives":[
				{
					"attributes":{
						"POSITION":16,
						"NORMAL":17,
						"TEXCOORD_0":18
					},
					"indices":19,
					"material":0
				}
			]
		},
		{
			"name":"Scene Root_Body_Boige-1_Boige-1-GEODE_02 - Default_0",
			"primitives":[
				{
					"attributes":{
						"POSITION":20,
						"NORMAL":21,
						"TEXCOORD_0":22
					},
					"indices":23,
					"material":0
				}
			]
		},
		{
			"name":"Scene Root_Body_Boige-1_Wheel-1_Wheel-1-OFFSET_Wheel-1-GEODE_02",
			"primitives":[
				{
					"attributes":{
						"POSITION":24,
						"NORMAL":25,
						"TEXCOORD_0":26
					},
					"indices":27,
					"material":0
				}
			]
		},
		{
			"name":"Scene Root_Body_Boige-1_Wheel-2_Wheel-2-OFFSET_Wheel-2-GEODE_02",
			"primitives":[
				{
					"attributes":{
						"POSITION":28,
						"NORMAL":29,
						"TEXCOORD_0":30
					},
					"indices":31,
					"material":0
				}
			]
		},
		{
			"name":"Scene Root_Body_Boige-2_Boige-2-GEODE_02 - Default_0",
			"primitives":[
				{
					"attributes":{
						"POSITION":32,
						"NORMAL":33,
						"TEXCOORD_0":34
					},
					"indices":35,
					"material":0
				}
			]
		},
		{
			"name":"Scene Root_Body_Boige-2_Wheel-3_Wheel-3-OFFSET_Wheel-3-GEODE_02",
			"primitives":[
				{
					"attributes":{
						"POSITION":36,
						"NORMAL":37,
						"TEXCOORD_0":38
					},
					"indices":27,
					"material":0
				}
			]
		},
		{
			"name":"Scene Root_Body_Boige-2_Wheel-4_Wheel-4-OFFSET_Wheel-4-GEODE_02",
			"primitives":[
				{
					"attributes":{
						"POSITION":39,
						"NORMAL":40,
						"TEXCOORD_0":41
					},
					"indices":27,
					"material":0
				}
			]
		},
		{
			"name":"Scene Root_Body_G_DCG-4435_G_DCG-4435-OFFSET_G_DCG-4435-GEODE_0",
			"primitives":[
				{
					"attributes":{
						"POSITION":42,
						"NORMAL":43,
						"TEXCOORD_0":44
					},
					"indices":45,
					"material":0
				}
			]
		},
		{
			"name":"Scene Root_Body_G_DCG-4435_Gen_Kardan_Gen_Kardan-OFFSET_Gen_Kar",
			"primitives":[
				{
					"attributes":{
						"POSITION":46,
						"NORMAL":47,
						"TEXCOORD_0":48
					},
					"indices":49,
					"material":0
				}
			]
		},
		{
			"name":"Scene Root_Body_G_DCG-4435_Gen_Mufta1_Gen_Mufta1-GEODE_02 - Def",
			"primitives":[
				{
					"attributes":{
						"POSITION":50,
						"NORMAL":51,
						"TEXCOORD_0":52
					},
					"indices":53,
					"material":0
				}
			]
		},
		{
			"name":"Scene Root_Bufera_Bufera-OFFSET_Bufera-GEODE_02 - Default_0",
			"primitives":[
				{
					"attributes":{
						"POSITION":54,
						"NORMAL":55,
						"TEXCOORD_0":56
					},
					"indices":57,
					"material":0
				}
			]
		},
		{
			"name":"Scene Root_Chep_otpuskVR_Chep_otpuskVR-OFFSET_Chep_otpuskVR-GEO",
			"primitives":[
				{
					"attributes":{
						"POSITION":58,
						"NORMAL":59,
						"TEXCOORD_0":60
					},
					"indices":61,
					"material":0
				}
			]
		},
		{
			"name":"Scene Root_Deflektor_Deflektor-OFFSET_Deflektor-GEODE_02 - Defa",
			"primitives":[
				{
					"attributes":{
						"POSITION":62,
						"NORMAL":63,
						"TEXCOORD_0":64
					},
					"indices":65,
					"material":0
				}
			]
		},
		{
			"name":"Scene Root_Fartuki_Fartuki-OFFSET_Fartuki-GEODE_02 - Default_0",
			"primitives":[
				{
					"attributes":{
						"POSITION":66,
						"NORMAL":67,
						"TEXCOORD_0":68
					},
					"indices":69,
					"material":0
				}
			]
		},
		{
			"name":"Scene Root_Hvost_signal_Hvost_signal-GEODE_02 - Default_0",
			"primitives":[
				{
					"attributes":{
						"POSITION":70,
						"NORMAL":71,
						"TEXCOORD_0":72
					},
					"indices":73,
					"material":0
				}
			]
		},
		{
			"name":"Scene Root_Kabel_G_Kabel_G-OFFSET_Kabel_G-GEODE_02 - Default_0",
			"primitives":[
				{
					"attributes":{
						"POSITION":74,
						"NORMAL":75,
						"TEXCOORD_0":76
					},
					"indices":77,
					"material":0
				}
			]
		},
		{
			"name":"Scene Root_KoncevoyRuk_1_KoncevoyRuk_1-GEODE_02 - Default_0",
			"primitives":[
				{
					"attributes":{
						"POSITION":78,
						"NORMAL":79,
						"TEXCOORD_0":80
					},
					"indices":81,
					"material":0
				}
			]
		},
		{
			"name":"Scene Root_KoncevoyRuk_2_KoncevoyRuk_2-GEODE_02 - Default_0",
			"primitives":[
				{
					"attributes":{
						"POSITION":82,
						"NORMAL":83,
						"TEXCOORD_0":84
					},
					"indices":81,
					"material":0
				}
			]
		},
		{
			"name":"Scene Root_LestnicaKrisha_LestnicaKrisha-GEODE_02 - Default_0",
			"primitives":[
				{
					"attributes":{
						"POSITION":85,
						"NORMAL":86,
						"TEXCOORD_0":87
					},
					"indices":81,
					"material":0
				}
			]
		},
		{
			"name":"Scene Root_MAB-II_MAB-II-OFFSET_MAB-II-GEODE_02 - Default_0",
			"primitives":[
				{
					"attributes":{
						"POSITION":88,
						"NORMAL":89,
						"TEXCOORD_0":90
					},
					"indices":91,
					"material":0
				}
			]
		},
		{
			"name":"Scene Root_Perehod_det_Perehod_det-GEODE_02 - Default_0",
			"primitives":[
				{
					"attributes":{
						"POSITION":92,
						"NORMAL":93,
						"TEXCOORD_0":94
					},
					"indices":73,
					"material":0
				}
			]
		},
		{
			"name":"Scene Root_PinchOFF_2_PinchOFF_2-OFFSET_PinchOFF_2-GEODE_02 - D",
			"primitives":[
				{
					"attributes":{
						"POSITION":95,
						"NORMAL":96,
						"TEXCOORD_0":97
					},
					"indices":98,
					"material":0
				}
			]
		},
		{
			"name":"Scene Root_PinchON_PinchON-GEODE_02 - Default_0",
			"primitives":[
				{
					"attributes":{
						"POSITION":99,
						"NORMAL":100,
						"TEXCOORD_0":101
					},
					"indices":98,
					"material":0
				}
			]
		},
		{
			"name":"Scene Root_Podtambur_Podtambur-OFFSET_Podtambur-GEODE_02 - Defa",
			"primitives":[
				{
					"attributes":{
						"POSITION":102,
						"NORMAL":103,
						"TEXCOORD_0":104
					},
					"indices":105,
					"material":0
				}
			]
		},
		{
			"name":"Scene Root_Podveska_ConcRuk_Podveska_ConcRuk-OFFSET_Podveska_Co",
			"primitives":[
				{
					"attributes":{
						"POSITION":106,
						"NORMAL":107,
						"TEXCOORD_0":108
					},
					"indices":15,
					"material":0
				}
			]
		},
		{
			"name":"Scene Root_Poruchni_utop_Poruchni_utop-OFFSET_Poruchni_utop-GEO",
			"primitives":[
				{
					"attributes":{
						"POSITION":109,
						"NORMAL":110,
						"TEXCOORD_0":111
					},
					"indices":112,
					"material":0
				}
			]
		},
		{
			"name":"Scene Root_PredohrKV_PredohrKV-OFFSET_PredohrKV-GEODE_02 - Defa",
			"primitives":[
				{
					"attributes":{
						"POSITION":113,
						"NORMAL":114,
						"TEXCOORD_0":115
					},
					"indices":73,
					"material":0
				}
			]
		},
		{
			"name":"Scene Root_PredohrSkob_PredohrSkob-GEODE_02 - Default_0",
			"primitives":[
				{
					"attributes":{
						"POSITION":116,
						"NORMAL":117,
						"TEXCOORD_0":118
					},
					"indices":119,
					"material":0
				}
			]
		},
		{
			"name":"Scene Root_RamaGen_RamaGen-OFFSET_RamaGen-GEODE_02 - Default_0",
			"primitives":[
				{
					"attributes":{
						"POSITION":120,
						"NORMAL":121,
						"TEXCOORD_0":122
					},
					"indices":123,
					"material":0
				}
			]
		},
		{
			"name":"Scene Root_Rascep_Rascep-OFFSET_Rascep-GEODE_02 - Default_0",
			"primitives":[
				{
					"attributes":{
						"POSITION":124,
						"NORMAL":125,
						"TEXCOORD_0":126
					},
					"indices":127,
					"material":0
				}
			]
		},
		{
			"name":"Scene Root_RezinaPerehod_RezinaPerehod-GEODE_02 - Default_0",
			"primitives":[
				{
					"attributes":{
						"POSITION":128,
						"NORMAL":129,
						"TEXCOORD_0":130
					},
					"indices":131,
					"material":0
				}
			]
		},
		{
			"name":"Scene Root_RozetkiOT_RozetkiOT-OFFSET_RozetkiOT-GEODE_02 - Defa",
			"primitives":[
				{
					"attributes":{
						"POSITION":132,
						"NORMAL":133,
						"TEXCOORD_0":134
					},
					"indices":135,
					"material":0
				}
			]
		},
		{
			"name":"Scene Root_SA-3-1_SA-3-1-OFFSET_SA-3-1-GEODE_02 - Default_0",
			"primitives":[
				{
					"attributes":{
						"POSITION":136,
						"NORMAL":137,
						"TEXCOORD_0":138
					},
					"indices":139,
					"material":0
				}
			]
		},
		{
			"name":"Scene Root_SA-3-2_SA-3-2-OFFSET_SA-3-2-GEODE_02 - Default_0",
			"primitives":[
				{
					"attributes":{
						"POSITION":140,
						"NORMAL":141,
						"TEXCOORD_0":142
					},
					"indices":139,
					"material":0
				}
			]
		},
		{
			"name":"Scene Root_Stupenky_Stupenky-OFFSET_Stupenky-GEODE_02 - Default",
			"primitives":[
				{
					"attributes":{
						"POSITION":143,
						"NORMAL":144,
						"TEXCOORD_0":145
					},
					"indices":3,
					"material":0
				}
			]
		},
		{
			"name":"Scene Root_TehLuk_TehLuk-GEODE_02 - Default_0",
			"primitives":[
				{
					"attributes":{
						"POSITION":146,
						"NORMAL":147,
						"TEXCOORD_0":148
					},
					"indices":149,
					"material":0
				}
			]
		},
		{
			"name":"Scene Root_TRP_TRP-OFFSET_TRP-GEODE_02 - Default_0",
			"primitives":[
				{
					"attributes":{
						"POSITION":150,
						"NORMAL":151,
						"TEXCOORD_0":152
					},
					"indices":153,
					"material":0
				}
			]
		},
		{
			"name":"Scene Root_Trub_kotla_Trub_kotla-GEODE_02 - Default_0",
			"primitives":[
				{
					"attributes":{
						"POSITION":154,
						"NORMAL":155,
						"TEXCOORD_0":156
					},
					"indices":157,
					"material":0
				}
			]
		},
		{
			"name":"Scene Root_UgolkyTorcZub_UgolkyTorcZub-GEODE_02 - Default_0",
			"primitives":[
				{
					"attributes":{
						"POSITION":158,
						"NORMAL":159,
						"TEXCOORD_0":160
					},
					"indices":15,
					"material":0
				}
			]
		},
		{
			"name":"Scene Root_Yashik_3000Kv_Yashik_3000Kv-OFFSET_Yashik_3000Kv-GEO",
			"primitives":[
				{
					"attributes":{
						"POSITION":161,
						"NORMAL":162,
						"TEXCOORD_0":163
					},
					"indices":15,
					"material":0
				}
			]
		},
		{
			"name":"Scene Root_Yashik_KU_Yashik_KU-OFFSET_Yashik_KU-GEODE_02 - Defa",
			"primitives":[
				{
					"attributes":{
						"POSITION":164,
						"NORMAL":165,
						"TEXCOORD_0":166
					},
					"indices":167,
					"material":0
				}
			]
		},
		{
			"name":"Scene Root_Yashik_RSH_Yashik_RSH-OFFSET_Yashik_RSH-GEODE_02 - D",
			"primitives":[
				{
					"attributes":{
						"POSITION":168,
						"NORMAL":169,
						"TEXCOORD_0":170
					},
					"indices":171,
					"material":0
				}
			]
		},
		{
			"name":"Scene Root_Yashik_VU_Yashik_VU-OFFSET_Yashik_VU-GEODE_02 - Defa",
			"primitives":[
				{
					"attributes":{
						"POSITION":172,
						"NORMAL":173,
						"TEXCOORD_0":174
					},
					"indices":175,
					"material":0
				}
			]
		},
		{
			"name":"Scene Root_ZaglushkaPinch_ZaglushkaPinch-OFFSET_ZaglushkaPinch-",
			"primitives":[
				{
					"attributes":{
						"POSITION":176,
						"NORMAL":177,
						"TEXCOORD_0":178
					},
					"indices":179,
					"material":0
				}
			]
		}
	],
	"textures":[
		{
			"sampler":0,
			"source":0
		}
	],
	"images":[
		{
			"mimeType":"image/png",
			"name":"pass_rzd-13819.tga",
			"uri":"T_pass_rzd-13819/pass_rzd-13819_tga.png"
		}
	],
	"accessors":[
		{
			"bufferView":0,
			"componentType":5126,
			"count":756,
			"max":[
				1.5354000329971313,
				1.4895700216293335,
				-1.0672800540924072
			],
			"min":[
				-1.5354000329971313,
				0.7313699722290039,
				-6.13877010345459
			],
			"type":"VEC3"
		},
		{
			"bufferView":1,
			"componentType":5126,
			"count":756,
			"type":"VEC3"
		},
		{
			"bufferView":2,
			"componentType":5126,
			"count":756,
			"type":"VEC2"
		},
		{
			"bufferView":3,
			"componentType":5123,
			"count":756,
			"type":"SCALAR"
		},
		{
			"bufferView":4,
			"componentType":5126,
			"count":1320,
			"max":[
				-0.11196698993444443,
				1.5018830299377441,
				1.584704041481018
			],
			"min":[
				-1.1427420377731323,
				0.7761359810829163,
				-0.8995271921157837
			],
			"type":"VEC3"
		},
		{
			"bufferView":5,
			"componentType":5126,
			"count":1320,
			"type":"VEC3"
		},
		{
			"bufferView":6,
			"componentType":5126,
			"count":1320,
			"type":"VEC2"
		},
		{
			"bufferView":7,
			"componentType":5123,
			"count":1320,
			"type":"SCALAR"
		},
		{
			"bufferView":8,
			"componentType":5126,
			"count":2292,
			"max":[
				1.419667363166809,
				1.465399980545044,
				11.772056579589844
			],
			"min":[
				-1.4730252027511597,
				0.5965843200683594,
				-11.772400856018066
			],
			"type":"VEC3"
		},
		{
			"bufferView":9,
			"componentType":5126,
			"count":2292,
			"type":"VEC3"
		},
		{
			"bufferView":10,
			"componentType":5126,
			"count":2292,
			"type":"VEC2"
		},
		{
			"bufferView":11,
			"componentType":5123,
			"count":2292,
			"type":"SCALAR"
		},
		{
			"bufferView":12,
			"componentType":5126,
			"count":24,
			"max":[
				1.3129892349243164,
				1.421984076499939,
				-1.3537999391555786
			],
			"min":[
				0.8079814910888672,
				0.7450122833251953,
				-2.6313188076019287
			],
			"type":"VEC3"
		},
		{
			"bufferView":13,
			"componentType":5126,
			"count":24,
			"type":"VEC3"
		},
		{
			"bufferView":14,
			"componentType":5126,
			"count":24,
			"type":"VEC2"
		},
		{
			"bufferView":15,
			"componentType":5123,
			"count":24,
			"type":"SCALAR"
		},
		{
			"bufferView":16,
			"componentType":5126,
			"count":906,
			"max":[
				1.5290700197219849,
				4.668553829193115,
				12.211299896240234
			],
			"min":[
				-1.5290100574493408,
				1.1425739526748657,
				-12.212599754333496
			],
			"type":"VEC3"
		},
		{
			"bufferView":17,
			"componentType":5126,
			"count":906,
			"type":"VEC3"
		},
		{
			"bufferView":18,
			"componentType":5126,
			"count":906,
			"type":"VEC2"
		},
		{
			"bufferView":19,
			"componentType":5123,
			"count":906,
			"type":"SCALAR"
		},
		{
			"bufferView":20,
			"componentType":5126,
			"count":13764,
			"max":[
				1.594249963760376,
				1.3840199708938599,
				10.649849891662598
			],
			"min":[
				-1.594249963760376,
				0.5048949718475342,
				6.750150203704834
			],
			"type":"VEC3"
		},
		{
			"bufferView":21,
			"componentType":5126,
			"count":13764,
			"type":"VEC3"
		},
		{
			"bufferView":22,
			"componentType":5126,
			"count":13764,
			"type":"VEC2"
		},
		{
			"bufferView":23,
			"componentType":5123,
			"count":13764,
			"type":"SCALAR"
		},
		{
			"bufferView":24,
			"componentType":5126,
			"count":732,
			"max":[
				0.8516117334365845,
				0.5169913172721863,
				0.5090779066085815
			],
			"min":[
				-0.8508683443069458,
				-0.5168986916542053,
				-0.50910484790802
			],
			"type":"VEC3"
		},
		{
			"bufferView":25,
			"componentType":5126,
			"count":732,
			"type":"VEC3"
		},
		{
			"bufferView":26,
			"componentType":5126,
			"count":732,
			"type":"VEC2"
		},
		{
			"bufferView":27,
			"componentType":5123,
			"count":732,
			"type":"SCALAR"
		},
		{
			"bufferView":28,
			"componentType":5126,
			"count":900,
			"max":[
				0.8516032695770264,
				0.5170027613639832,
				0.5090670585632324
			],
			"min":[
				-0.8508768081665039,
				-0.5168872475624084,
				-0.5091161727905273
			],
			"type":"VEC3"
		},
		{
			"bufferView":29,
			"componentType":5126,
			"count":900,
			"type":"VEC3"
		},
		{
			"bufferView":30,
			"componentType":5126,
			"count":900,
			"type":"VEC2"
		},
		{
			"bufferView":31,
			"componentType":5123,
			"count":900,
			"type":"SCALAR"
		},
		{
			"bufferView":32,
			"componentType":5126,
			"count":13248,
			"max":[
				1.594249963760376,
				1.3840199708938599,
				-6.750150203704834
			],
			"min":[
				-1.594249963760376,
				0.5048949718475342,
				-10.649849891662598
			],
			"type":"VEC3"
		},
		{
			"bufferView":33,
			"componentType":5126,
			"count":13248,
			"type":"VEC3"
		},
		{
			"bufferView":34,
			"componentType":5126,
			"count":13248,
			"type":"VEC2"
		},
		{
			"bufferView":35,
			"componentType":5123,
			"count":13248,
			"type":"SCALAR"
		},
		{
			"bufferView":36,
			"componentType":5126,
			"count":732,
			"max":[
				0.8516116738319397,
				0.516991376876831,
				0.5090756416320801
			],
			"min":[
				-0.8508684039115906,
				-0.5168986320495605,
				-0.5091075897216797
			],
			"type":"VEC3"
		},
		{
			"bufferView":37,
			"componentType":5126,
			"count":732,
			"type":"VEC3"
		},
		{
			"bufferView":38,
			"componentType":5126,
			"count":732,
			"type":"VEC2"
		},
		{
			"bufferView":39,
			"componentType":5126,
			"count":732,
			"max":[
				0.8516116142272949,
				0.5169914364814758,
				0.5090770721435547
			],
			"min":[
				-0.8508684635162354,
				-0.5168985724449158,
				-0.5091056823730469
			],
			"type":"VEC3"
		},
		{
			"bufferView":40,
			"componentType":5126,
			"count":732,
			"type":"VEC3"
		},
		{
			"bufferView":41,
			"componentType":5126,
			"count":732,
			"type":"VEC2"
		},
		{
			"bufferView":42,
			"componentType":5126,
			"count":474,
			"max":[
				0.3796430230140686,
				1.188380241394043,
				5.422224998474121
			],
			"min":[
				-0.3774740695953369,
				0.5614122152328491,
				4.65121603012085
			],
			"type":"VEC3"
		},
		{
			"bufferView":43,
			"componentType":5126,
			"count":474,
			"type":"VEC3"
		},
		{
			"bufferView":44,
			"componentType":5126,
			"count":474,
			"type":"VEC2"
		},
		{
			"bufferView":45,
			"componentType":5123,
			"count":474,
			"type":"SCALAR"
		},
		{
			"bufferView":46,
			"componentType":5126,
			"count":180,
			"max":[
				0.05195188522338867,
				0.7624717354774475,
				0.06569546461105347
			],
			"min":[
				-0.051993485540151596,
				-0.7635584473609924,
				-0.06522396206855774
			],
			"type":"VEC3"
		},
		{
			"bufferView":47,
			"componentType":5126,
			"count":180,
			"type":"VEC3"
		},
		{
			"bufferView":48,
			"componentType":5126,
			"count":180,
			"type":"VEC2"
		},
		{
			"bufferView":49,
			"componentType":5123,
			"count":180,
			"type":"SCALAR"
		},
		{
			"bufferView":50,
			"componentType":5126,
			"count":132,
			"max":[
				0.12904441356658936,
				0.10319995880126953,
				0.1353898048400879
			],
			"min":[
				-0.12886156141757965,
				-0.07570505142211914,
				-0.13539016246795654
			],
			"type":"VEC3"
		},
		{
			"bufferView":51,
			"componentType":5126,
			"count":132,
			"type":"VEC3"
		},
		{
			"bufferView":52,
			"componentType":5126,
			"count":132,
			"type":"VEC2"
		},
		{
			"bufferView":53,
			"componentType":5123,
			"count":132,
			"type":"SCALAR"
		},
		{
			"bufferView":54,
			"componentType":5126,
			"count":312,
			"max":[
				1.279770016670227,
				1.5712931156158447,
				12.496600151062012
			],
			"min":[
				-1.279770016670227,
				1.1801631450653076,
				-12.496600151062012
			],
			"type":"VEC3"
		},
		{
			"bufferView":55,
			"componentType":5126,
			"count":312,
			"type":"VEC3"
		},
		{
			"bufferView":56,
			"componentType":5126,
			"count":312,
			"type":"VEC2"
		},
		{
			"bufferView":57,
			"componentType":5123,
			"count":312,
			"type":"SCALAR"
		},
		{
			"bufferView":58,
			"componentType":5126,
			"count":144,
			"max":[
				1.5460904836654663,
				1.439864993095398,
				1.006002426147461
			],
			"min":[
				-1.2416126728057861,
				0.7951019406318665,
				0.6536151170730591
			],
			"type":"VEC3"
		},
		{
			"bufferView":59,
			"componentType":5126,
			"count":144,
			"type":"VEC3"
		},
		{
			"bufferView":60,
			"componentType":5126,
			"count":144,
			"type":"VEC2"
		},
		{
			"bufferView":61,
			"componentType":5123,
			"count":144,
			"type":"SCALAR"
		},
		{
			"bufferView":62,
			"componentType":5126,
			"count":252,
			"max":[
				-0.6658239960670471,
				4.694353103637695,
				10.639899253845215
			],
			"min":[
				-1.2851719856262207,
				4.414103984832764,
				-11.607992172241211
			],
			"type":"VEC3"
		},
		{
			"bufferView":63,
			"componentType":5126,
			"count":252,
			"type":"VEC3"
		},
		{
			"bufferView":64,
			"componentType":5126,
			"count":252,
			"type":"VEC2"
		},
		{
			"bufferView":65,
			"componentType":5123,
			"count":252,
			"type":"SCALAR"
		},
		{
			"bufferView":66,
			"componentType":5126,
			"count":12,
			"max":[
				0.4108690023422241,
				2.2292540073394775,
				12.346199989318848
			],
			"min":[
				-0.4108709990978241,
				1.711893916130066,
				-12.346199989318848
			],
			"type":"VEC3"
		},
		{
			"bufferView":67,
			"componentType":5126,
			"count":12,
			"type":"VEC3"
		},
		{
			"bufferView":68,
			"componentType":5126,
			"count":12,
			"type":"VEC2"
		},
		{
			"bufferView":69,
			"componentType":5123,
			"count":12,
			"type":"SCALAR"
		},
		{
			"bufferView":70,
			"componentType":5126,
			"count":288,
			"max":[
				1.374709963798523,
				3.90228009223938,
				12.254500389099121
			],
			"min":[
				-1.374709963798523,
				1.9956799745559692,
				-12.254500389099121
			],
			"type":"VEC3"
		},
		{
			"bufferView":71,
			"componentType":5126,
			"count":288,
			"type":"VEC3"
		},
		{
			"bufferView":72,
			"componentType":5126,
			"count":288,
			"type":"VEC2"
		},
		{
			"bufferView":73,
			"componentType":5123,
			"count":288,
			"type":"SCALAR"
		},
		{
			"bufferView":74,
			"componentType":5126,
			"count":204,
			"max":[
				-0.1312084197998047,
				1.502845048904419,
				5.128117084503174
			],
			"min":[
				-0.7063539028167725,
				1.0498145818710327,
				3.652622938156128
			],
			"type":"VEC3"
		},
		{
			"bufferView":75,
			"componentType":5126,
			"count":204,
			"type":"VEC3"
		},
		{
			"bufferView":76,
			"componentType":5126,
			"count":204,
			"type":"VEC2"
		},
		{
			"bufferView":77,
			"componentType":5123,
			"count":204,
			"type":"SCALAR"
		},
		{
			"bufferView":78,
			"componentType":5126,
			"count":636,
			"max":[
				0.4727019965648651,
				1.316033959388733,
				12.563699722290039
			],
			"min":[
				-0.06939209997653961,
				0.6859180331230164,
				9.935600280761719
			],
			"type":"VEC3"
		},
		{
			"bufferView":79,
			"componentType":5126,
			"count":636,
			"type":"VEC3"
		},
		{
			"bufferView":80,
			"componentType":5126,
			"count":636,
			"type":"VEC2"
		},
		{
			"bufferView":81,
			"componentType":5123,
			"count":636,
			"type":"SCALAR"
		},
		{
			"bufferView":82,
			"componentType":5126,
			"count":636,
			"max":[
				0.0693902000784874,
				1.316033959388733,
				-9.935600280761719
			],
			"min":[
				-0.4727030098438263,
				0.6859180331230164,
				-12.563699722290039
			],
			"type":"VEC3"
		},
		{
			"bufferView":83,
			"componentType":5126,
			"count":636,
			"type":"VEC3"
		},
		{
			"bufferView":84,
			"componentType":5126,
			"count":636,
			"type":"VEC2"
		},
		{
			"bufferView":85,
			"componentType":5126,
			"count":636,
			"max":[
				1.4115300178527832,
				4.708270072937012,
				12.329099655151367
			],
			"min":[
				-1.4115300178527832,
				1.5372300148010254,
				-12.329099655151367
			],
			"type":"VEC3"
		},
		{
			"bufferView":86,
			"componentType":5126,
			"count":636,
			"type":"VEC3"
		},
		{
			"bufferView":87,
			"componentType":5126,
			"count":636,
			"type":"VEC2"
		},
		{
			"bufferView":88,
			"componentType":5126,
			"count":1509,
			"max":[
				1.495166301727295,
				1.4320884943008423,
				3.1516075134277344
			],
			"min":[
				-0.8403764963150024,
				0.5778984427452087,
				-1.2176309823989868
			],
			"type":"VEC3"
		},
		{
			"bufferView":89,
			"componentType":5126,
			"count":1509,
			"type":"VEC3"
		},
		{
			"bufferView":90,
			"componentType":5126,
			"count":1509,
			"type":"VEC2"
		},
		{
			"bufferView":91,
			"componentType":5123,
			"count":1509,
			"type":"SCALAR"
		},
		{
			"bufferView":92,
			"componentType":5126,
			"count":288,
			"max":[
				0.4973732531070709,
				3.6603100299835205,
				12.203399658203125
			],
			"min":[
				-0.4972767233848572,
				2.641319990158081,
				-12.203399658203125
			],
			"type":"VEC3"
		},
		{
			"bufferView":93,
			"componentType":5126,
			"count":288,
			"type":"VEC3"
		},
		{
			"bufferView":94,
			"componentType":5126,
			"count":288,
			"type":"VEC2"
		},
		{
			"bufferView":95,
			"componentType":5126,
			"count":306,
			"max":[
				-0.8865818381309509,
				1.8667739629745483,
				-12.071200370788574
			],
			"min":[
				-1.3628119230270386,
				0.7449060082435608,
				-12.34529972076416
			],
			"type":"VEC3"
		},
		{
			"bufferView":96,
			"componentType":5126,
			"count":306,
			"type":"VEC3"
		},
		{
			"bufferView":97,
			"componentType":5126,
			"count":306,
			"type":"VEC2"
		},
		{
			"bufferView":98,
			"componentType":5123,
			"count":306,
			"type":"SCALAR"
		},
		{
			"bufferView":99,
			"componentType":5126,
			"count":306,
			"max":[
				0.9251142144203186,
				1.089877963066101,
				12.883536338806152
			],
			"min":[
				0.7872790098190308,
				0.569514811038971,
				12.07115364074707
			],
			"type":"VEC3"
		},
		{
			"bufferView":100,
			"componentType":5126,
			"count":306,
			"type":"VEC3"
		},
		{
			"bufferView":101,
			"componentType":5126,
			"count":306,
			"type":"VEC2"
		},
		{
			"bufferView":102,
			"componentType":5126,
			"count":528,
			"max":[
				1.5294500589370728,
				1.6292239427566528,
				11.928400039672852
			],
			"min":[
				-1.5288900136947632,
				1.4137539863586426,
				-11.928400039672852
			],
			"type":"VEC3"
		},
		{
			"bufferView":103,
			"componentType":5126,
			"count":528,
			"type":"VEC3"
		},
		{
			"bufferView":104,
			"componentType":5126,
			"count":528,
			"type":"VEC2"
		},
		{
			"bufferView":105,
			"componentType":5123,
			"count":528,
			"type":"SCALAR"
		},
		{
			"bufferView":106,
			"componentType":5126,
			"count":24,
			"max":[
				0.0971062034368515,
				1.3041839599609375,
				11.900899887084961
			],
			"min":[
				-0.09710799902677536,
				0.6608280539512634,
				-11.900899887084961
			],
			"type":"VEC3"
		},
		{
			"bufferView":107,
			"componentType":5126,
			"count":24,
			"type":"VEC3"
		},
		{
			"bufferView":108,
			"componentType":5126,
			"count":24,
			"type":"VEC2"
		},
		{
			"bufferView":109,
			"componentType":5126,
			"count":768,
			"max":[
				1.5424000024795532,
				2.992673873901367,
				12.071100234985352
			],
			"min":[
				-1.5423500537872314,
				1.696813941001892,
				-12.071100234985352
			],
			"type":"VEC3"
		},
		{
			"bufferView":110,
			"componentType":5126,
			"count":768,
			"type":"VEC3"
		},
		{
			"bufferView":111,
			"componentType":5126,
			"count":768,
			"type":"VEC2"
		},
		{
			"bufferView":112,
			"componentType":5123,
			"count":768,
			"type":"SCALAR"
		},
		{
			"bufferView":113,
			"componentType":5126,
			"count":288,
			"max":[
				0.327908992767334,
				1.5002527236938477,
				6.52546501159668
			],
			"min":[
				-0.3258621394634247,
				0.5519877672195435,
				5.749654293060303
			],
			"type":"VEC3"
		},
		{
			"bufferView":114,
			"componentType":5126,
			"count":288,
			"type":"VEC3"
		},
		{
			"bufferView":115,
			"componentType":5126,
			"count":288,
			"type":"VEC2"
		},
		{
			"bufferView":116,
			"componentType":5126,
			"count":216,
			"max":[
				0.6742200255393982,
				1.511240005493164,
				6.547369956970215
			],
			"min":[
				-0.6876260042190552,
				1.2046699523925781,
				-6.5474700927734375
			],
			"type":"VEC3"
		},
		{
			"bufferView":117,
			"componentType":5126,
			"count":216,
			"type":"VEC3"
		},
		{
			"bufferView":118,
			"componentType":5126,
			"count":216,
			"type":"VEC2"
		},
		{
			"bufferView":119,
			"componentType":5123,
			"count":216,
			"type":"SCALAR"
		},
		{
			"bufferView":120,
			"componentType":5126,
			"count":462,
			"max":[
				0.39119791984558105,
				1.506047010421753,
				5.602391719818115
			],
			"min":[
				-0.3894646167755127,
				0.5257930159568787,
				4.24702787399292
			],
			"type":"VEC3"
		},
		{
			"bufferView":121,
			"componentType":5126,
			"count":462,
			"type":"VEC3"
		},
		{
			"bufferView":122,
			"componentType":5126,
			"count":462,
			"type":"VEC2"
		},
		{
			"bufferView":123,
			"componentType":5123,
			"count":462,
			"type":"SCALAR"
		},
		{
			"bufferView":124,
			"componentType":5126,
			"count":786,
			"max":[
				1.3588299751281738,
				1.3531140089035034,
				12.365400314331055
			],
			"min":[
				-1.3588299751281738,
				0.7585240006446838,
				-12.365400314331055
			],
			"type":"VEC3"
		},
		{
			"bufferView":125,
			"componentType":5126,
			"count":786,
			"type":"VEC3"
		},
		{
			"bufferView":126,
			"componentType":5126,
			"count":786,
			"type":"VEC2"
		},
		{
			"bufferView":127,
			"componentType":5123,
			"count":786,
			"type":"SCALAR"
		},
		{
			"bufferView":128,
			"componentType":5126,
			"count":384,
			"max":[
				0.8905868530273438,
				3.9793200492858887,
				12.505800247192383
			],
			"min":[
				-0.8900181651115417,
				1.7067099809646606,
				-12.505800247192383
			],
			"type":"VEC3"
		},
		{
			"bufferView":129,
			"componentType":5126,
			"count":384,
			"type":"VEC3"
		},
		{
			"bufferView":130,
			"componentType":5126,
			"count":384,
			"type":"VEC2"
		},
		{
			"bufferView":131,
			"componentType":5123,
			"count":384,
			"type":"SCALAR"
		},
		{
			"bufferView":132,
			"componentType":5126,
			"count":534,
			"max":[
				0.9393069744110107,
				1.6281839609146118,
				12.14579963684082
			],
			"min":[
				-0.9393090009689331,
				0.9768270254135132,
				-12.14579963684082
			],
			"type":"VEC3"
		},
		{
			"bufferView":133,
			"componentType":5126,
			"count":534,
			"type":"VEC3"
		},
		{
			"bufferView":134,
			"componentType":5126,
			"count":534,
			"type":"VEC2"
		},
		{
			"bufferView":135,
			"componentType":5123,
			"count":534,
			"type":"SCALAR"
		},
		{
			"bufferView":136,
			"componentType":5126,
			"count":606,
			"max":[
				0.2796057164669037,
				1.5994269847869873,
				12.63521957397461
			],
			"min":[
				-0.26976561546325684,
				1.145745038986206,
				11.662010192871094
			],
			"type":"VEC3"
		},
		{
			"bufferView":137,
			"componentType":5126,
			"count":606,
			"type":"VEC3"
		},
		{
			"bufferView":138,
			"componentType":5126,
			"count":606,
			"type":"VEC2"
		},
		{
			"bufferView":139,
			"componentType":5123,
			"count":606,
			"type":"SCALAR"
		},
		{
			"bufferView":140,
			"componentType":5126,
			"count":606,
			"max":[
				0.2697637975215912,
				1.5994269847869873,
				-11.662010192871094
			],
			"min":[
				-0.2796076238155365,
				1.145745038986206,
				-12.63521957397461
			],
			"type":"VEC3"
		},
		{
			"bufferView":141,
			"componentType":5126,
			"count":606,
			"type":"VEC3"
		},
		{
			"bufferView":142,
			"componentType":5126,
			"count":606,
			"type":"VEC2"
		},
		{
			"bufferView":143,
			"componentType":5126,
			"count":756,
			"max":[
				1.5850199460983276,
				1.5033040046691895,
				11.95479965209961
			],
			"min":[
				-1.5850199460983276,
				0.7619380354881287,
				-11.92080020904541
			],
			"type":"VEC3"
		},
		{
			"bufferView":144,
			"componentType":5126,
			"count":756,
			"type":"VEC3"
		},
		{
			"bufferView":145,
			"componentType":5126,
			"count":756,
			"type":"VEC2"
		},
		{
			"bufferView":146,
			"componentType":5126,
			"count":168,
			"max":[
				0.7940530180931091,
				4.707910060882568,
				11.96090030670166
			],
			"min":[
				-0.808555006980896,
				4.581600189208984,
				-11.958600044250488
			],
			"type":"VEC3"
		},
		{
			"bufferView":147,
			"componentType":5126,
			"count":168,
			"type":"VEC3"
		},
		{
			"bufferView":148,
			"componentType":5126,
			"count":168,
			"type":"VEC2"
		},
		{
			"bufferView":149,
			"componentType":5123,
			"count":168,
			"type":"SCALAR"
		},
		{
			"bufferView":150,
			"componentType":5126,
			"count":354,
			"max":[
				0.6804669499397278,
				1.5175399780273438,
				7.133760929107666
			],
			"min":[
				-0.6804659962654114,
				1.187056064605713,
				-7.143208980560303
			],
			"type":"VEC3"
		},
		{
			"bufferView":151,
			"componentType":5126,
			"count":354,
			"type":"VEC3"
		},
		{
			"bufferView":152,
			"componentType":5126,
			"count":354,
			"type":"VEC2"
		},
		{
			"bufferView":153,
			"componentType":5123,
			"count":354,
			"type":"SCALAR"
		},
		{
			"bufferView":154,
			"componentType":5126,
			"count":360,
			"max":[
				1.3345509767532349,
				4.888734817504883,
				10.751230239868164
			],
			"min":[
				0.6517990231513977,
				4.4232378005981445,
				8.8996000289917
			],
			"type":"VEC3"
		},
		{
			"bufferView":155,
			"componentType":5126,
			"count":360,
			"type":"VEC3"
		},
		{
			"bufferView":156,
			"componentType":5126,
			"count":360,
			"type":"VEC2"
		},
		{
			"bufferView":157,
			"componentType":5123,
			"count":360,
			"type":"SCALAR"
		},
		{
			"bufferView":158,
			"componentType":5126,
			"count":24,
			"max":[
				1.527999997138977,
				1.4803600311279297,
				11.966300010681152
			],
			"min":[
				-1.528980016708374,
				1.2161500453948975,
				-11.966300010681152
			],
			"type":"VEC3"
		},
		{
			"bufferView":159,
			"componentType":5126,
			"count":24,
			"type":"VEC3"
		},
		{
			"bufferView":160,
			"componentType":5126,
			"count":24,
			"type":"VEC2"
		},
		{
			"bufferView":161,
			"componentType":5126,
			"count":24,
			"max":[
				1.3692959547042847,
				1.4482041597366333,
				6.017881870269775
			],
			"min":[
				0.834443986415863,
				0.6926159858703613,
				5.029397487640381
			],
			"type":"VEC3"
		},
		{
			"bufferView":162,
			"componentType":5126,
			"count":24,
			"type":"VEC3"
		},
		{
			"bufferView":163,
			"componentType":5126,
			"count":24,
			"type":"VEC2"
		},
		{
			"bufferView":164,
			"componentType":5126,
			"count":72,
			"max":[
				-0.7926374077796936,
				1.4475598335266113,
				2.896468162536621
			],
			"min":[
				-1.3613626956939697,
				0.7353065609931946,
				1.754455327987671
			],
			"type":"VEC3"
		},
		{
			"bufferView":165,
			"componentType":5126,
			"count":72,
			"type":"VEC3"
		},
		{
			"bufferView":166,
			"componentType":5126,
			"count":72,
			"type":"VEC2"
		},
		{
			"bufferView":167,
			"componentType":5123,
			"count":72,
			"type":"SCALAR"
		},
		{
			"bufferView":168,
			"componentType":5126,
			"count":744,
			"max":[
				-0.795212984085083,
				1.5072461366653442,
				5.8761701583862305
			],
			"min":[
				-1.4192670583724976,
				0.6919142007827759,
				3.056741952896118
			],
			"type":"VEC3"
		},
		{
			"bufferView":169,
			"componentType":5126,
			"count":744,
			"type":"VEC3"
		},
		{
			"bufferView":170,
			"componentType":5126,
			"count":744,
			"type":"VEC2"
		},
		{
			"bufferView":171,
			"componentType":5123,
			"count":744,
			"type":"SCALAR"
		},
		{
			"bufferView":172,
			"componentType":5126,
			"count":60,
			"max":[
				1.36651611328125,
				1.448203682899475,
				4.455534934997559
			],
			"min":[
				0.7883036732673645,
				0.692615807056427,
				3.1854052543640137
			],
			"type":"VEC3"
		},
		{
			"bufferView":173,
			"componentType":5126,
			"count":60,
			"type":"VEC3"
		},
		{
			"bufferView":174,
			"componentType":5126,
			"count":60,
			"type":"VEC2"
		},
		{
			"bufferView":175,
			"componentType":5123,
			"count":60,
			"type":"SCALAR"
		},
		{
			"bufferView":176,
			"componentType":5126,
			"count":696,
			"max":[
				1.419619083404541,
				2.1247599124908447,
				12.427102088928223
			],
			"min":[
				-1.4196245670318604,
				1.8553400039672852,
				-12.427080154418945
			],
			"type":"VEC3"
		},
		{
			"bufferView":177,
			"componentType":5126,
			"count":696,
			"type":"VEC3"
		},
		{
			"bufferView":178,
			"componentType":5126,
			"count":696,
			"type":"VEC2"
		},
		{
			"bufferView":179,
			"componentType":5123,
			"count":696,
			"type":"SCALAR"
		}
	],
	"bufferViews":[
		{
			"buffer":0,
			"byteLength":9072,
			"byteOffset":0,
			"target":34962
		},
		{
			"buffer":0,
			"byteLength":9072,
			"byteOffset":9072,
			"target":34962
		},
		{
			"buffer":0,
			"byteLength":6048,
			"byteOffset":18144,
			"target":34962
		},
		{
			"buffer":0,
			"byteLength":1512,
			"byteOffset":24192,
			"target":34963
		},
		{
			"buffer":0,
			"byteLength":15840,
			"byteOffset":25704,
			"target":34962
		},
		{
			"buffer":0,
			"byteLength":15840,
			"byteOffset":41544,
			"target":34962
		},
		{
			"buffer":0,
			"byteLength":10560,
			"byteOffset":57384,
			"target":34962
		},
		{
			"buffer":0,
			"byteLength":2640,
			"byteOffset":67944,
			"target":34963
		},
		{
			"buffer":0,
			"byteLength":27504,
			"byteOffset":70584,
			"target":34962
		},
		{
			"buffer":0,
			"byteLength":27504,
			"byteOffset":98088,
			"target":34962
		},
		{
			"buffer":0,
			"byteLength":18336,
			"byteOffset":125592,
			"target":34962
		},
		{
			"buffer":0,
			"byteLength":4584,
			"byteOffset":143928,
			"target":34963
		},
		{
			"buffer":0,
			"byteLength":288,
			"byteOffset":148512,
			"target":34962
		},
		{
			"buffer":0,
			"byteLength":288,
			"byteOffset":148800,
			"target":34962
		},
		{
			"buffer":0,
			"byteLength":192,
			"byteOffset":149088,
			"target":34962
		},
		{
			"buffer":0,
			"byteLength":48,
			"byteOffset":149280,
			"target":34963
		},
		{
			"buffer":0,
			"byteLength":10872,
			"byteOffset":149328,
			"target":34962
		},
		{
			"buffer":0,
			"byteLength":10872,
			"byteOffset":160200,
			"target":34962
		},
		{
			"buffer":0,
			"byteLength":7248,
			"byteOffset":171072,
			"target":34962
		},
		{
			"buffer":0,
			"byteLength":1812,
			"byteOffset":178320,
			"target":34963
		},
		{
			"buffer":0,
			"byteLength":165168,
			"byteOffset":180132,
			"target":34962
		},
		{
			"buffer":0,
			"byteLength":165168,
			"byteOffset":345300,
			"target":34962
		},
		{
			"buffer":0,
			"byteLength":110112,
			"byteOffset":510468,
			"target":34962
		},
		{
			"buffer":0,
			"byteLength":27528,
			"byteOffset":620580,
			"target":34963
		},
		{
			"buffer":0,
			"byteLength":8784,
			"byteOffset":648108,
			"target":34962
		},
		{
			"buffer":0,
			"byteLength":8784,
			"byteOffset":656892,
			"target":34962
		},
		{
			"buffer":0,
			"byteLength":5856,
			"byteOffset":665676,
			"target":34962
		},
		{
			"buffer":0,
			"byteLength":1464,
			"byteOffset":671532,
			"target":34963
		},
		{
			"buffer":0,
			"byteLength":10800,
			"byteOffset":672996,
			"target":34962
		},
		{
			"buffer":0,
			"byteLength":10800,
			"byteOffset":683796,
			"target":34962
		},
		{
			"buffer":0,
			"byteLength":7200,
			"byteOffset":694596,
			"target":34962
		},
		{
			"buffer":0,
			"byteLength":1800,
			"byteOffset":701796,
			"target":34963
		},
		{
			"buffer":0,
			"byteLength":158976,
			"byteOffset":703596,
			"target":34962
		},
		{
			"buffer":0,
			"byteLength":158976,
			"byteOffset":862572,
			"target":34962
		},
		{
			"buffer":0,
			"byteLength":105984,
			"byteOffset":1021548,
			"target":34962
		},
		{
			"buffer":0,
			"byteLength":26496,
			"byteOffset":1127532,
			"target":34963
		},
		{
			"buffer":0,
			"byteLength":8784,
			"byteOffset":1154028,
			"target":34962
		},
		{
			"buffer":0,
			"byteLength":8784,
			"byteOffset":1162812,
			"target":34962
		},
		{
			"buffer":0,
			"byteLength":5856,
			"byteOffset":1171596,
			"target":34962
		},
		{
			"buffer":0,
			"byteLength":8784,
			"byteOffset":1177452,
			"target":34962
		},
		{
			"buffer":0,
			"byteLength":8784,
			"byteOffset":1186236,
			"target":34962
		},
		{
			"buffer":0,
			"byteLength":5856,
			"byteOffset":1195020,
			"target":34962
		},
		{
			"buffer":0,
			"byteLength":5688,
			"byteOffset":1200876,
			"target":34962
		},
		{
			"buffer":0,
			"byteLength":5688,
			"byteOffset":1206564,
			"target":34962
		},
		{
			"buffer":0,
			"byteLength":3792,
			"byteOffset":1212252,
			"target":34962
		},
		{
			"buffer":0,
			"byteLength":948,
			"byteOffset":1216044,
			"target":34963
		},
		{
			"buffer":0,
			"byteLength":2160,
			"byteOffset":1216992,
			"target":34962
		},
		{
			"buffer":0,
			"byteLength":2160,
			"byteOffset":1219152,
			"target":34962
		},
		{
			"buffer":0,
			"byteLength":1440,
			"byteOffset":1221312,
			"target":34962
		},
		{
			"buffer":0,
			"byteLength":360,
			"byteOffset":1222752,
			"target":34963
		},
		{
			"buffer":0,
			"byteLength":1584,
			"byteOffset":1223112,
			"target":34962
		},
		{
			"buffer":0,
			"byteLength":1584,
			"byteOffset":1224696,
			"target":34962
		},
		{
			"buffer":0,
			"byteLength":1056,
			"byteOffset":1226280,
			"target":34962
		},
		{
			"buffer":0,
			"byteLength":264,
			"byteOffset":1227336,
			"target":34963
		},
		{
			"buffer":0,
			"byteLength":3744,
			"byteOffset":1227600,
			"target":34962
		},
		{
			"buffer":0,
			"byteLength":3744,
			"byteOffset":1231344,
			"target":34962
		},
		{
			"buffer":0,
			"byteLength":2496,
			"byteOffset":1235088,
			"target":34962
		},
		{
			"buffer":0,
			"byteLength":624,
			"byteOffset":1237584,
			"target":34963
		},
		{
			"buffer":0,
			"byteLength":1728,
			"byteOffset":1238208,
			"target":34962
		},
		{
			"buffer":0,
			"byteLength":1728,
			"byteOffset":1239936,
			"target":34962
		},
		{
			"buffer":0,
			"byteLength":1152,
			"byteOffset":1241664,
			"target":34962
		},
		{
			"buffer":0,
			"byteLength":288,
			"byteOffset":1242816,
			"target":34963
		},
		{
			"buffer":0,
			"byteLength":3024,
			"byteOffset":1243104,
			"target":34962
		},
		{
			"buffer":0,
			"byteLength":3024,
			"byteOffset":1246128,
			"target":34962
		},
		{
			"buffer":0,
			"byteLength":2016,
			"byteOffset":1249152,
			"target":34962
		},
		{
			"buffer":0,
			"byteLength":504,
			"byteOffset":1251168,
			"target":34963
		},
		{
			"buffer":0,
			"byteLength":144,
			"byteOffset":1251672,
			"target":34962
		},
		{
			"buffer":0,
			"byteLength":144,
			"byteOffset":1251816,
			"target":34962
		},
		{
			"buffer":0,
			"byteLength":96,
			"byteOffset":1251960,
			"target":34962
		},
		{
			"buffer":0,
			"byteLength":24,
			"byteOffset":1252056,
			"target":34963
		},
		{
			"buffer":0,
			"byteLength":3456,
			"byteOffset":1252080,
			"target":34962
		},
		{
			"buffer":0,
			"byteLength":3456,
			"byteOffset":1255536,
			"target":34962
		},
		{
			"buffer":0,
			"byteLength":2304,
			"byteOffset":1258992,
			"target":34962
		},
		{
			"buffer":0,
			"byteLength":576,
			"byteOffset":1261296,
			"target":34963
		},
		{
			"buffer":0,
			"byteLength":2448,
			"byteOffset":1261872,
			"target":34962
		},
		{
			"buffer":0,
			"byteLength":2448,
			"byteOffset":1264320,
			"target":34962
		},
		{
			"buffer":0,
			"byteLength":1632,
			"byteOffset":1266768,
			"target":34962
		},
		{
			"buffer":0,
			"byteLength":408,
			"byteOffset":1268400,
			"target":34963
		},
		{
			"buffer":0,
			"byteLength":7632,
			"byteOffset":1268808,
			"target":34962
		},
		{
			"buffer":0,
			"byteLength":7632,
			"byteOffset":1276440,
			"target":34962
		},
		{
			"buffer":0,
			"byteLength":5088,
			"byteOffset":1284072,
			"target":34962
		},
		{
			"buffer":0,
			"byteLength":1272,
			"byteOffset":1289160,
			"target":34963
		},
		{
			"buffer":0,
			"byteLength":7632,
			"byteOffset":1290432,
			"target":34962
		},
		{
			"buffer":0,
			"byteLength":7632,
			"byteOffset":1298064,
			"target":34962
		},
		{
			"buffer":0,
			"byteLength":5088,
			"byteOffset":1305696,
			"target":34962
		},
		{
			"buffer":0,
			"byteLength":7632,
			"byteOffset":1310784,
			"target":34962
		},
		{
			"buffer":0,
			"byteLength":7632,
			"byteOffset":1318416,
			"target":34962
		},
		{
			"buffer":0,
			"byteLength":5088,
			"byteOffset":1326048,
			"target":34962
		},
		{
			"buffer":0,
			"byteLength":18108,
			"byteOffset":1331136,
			"target":34962
		},
		{
			"buffer":0,
			"byteLength":18108,
			"byteOffset":1349244,
			"target":34962
		},
		{
			"buffer":0,
			"byteLength":12072,
			"byteOffset":1367352,
			"target":34962
		},
		{
			"buffer":0,
			"byteLength":3018,
			"byteOffset":1379424,
			"target":34963
		},
		{
			"buffer":0,
			"byteLength":3456,
			"byteOffset":1382444,
			"target":34962
		},
		{
			"buffer":0,
			"byteLength":3456,
			"byteOffset":1385900,
			"target":34962
		},
		{
			"buffer":0,
			"byteLength":2304,
			"byteOffset":1389356,
			"target":34962
		},
		{
			"buffer":0,
			"byteLength":3672,
			"byteOffset":1391660,
			"target":34962
		},
		{
			"buffer":0,
			"byteLength":3672,
			"byteOffset":1395332,
			"target":34962
		},
		{
			"buffer":0,
			"byteLength":2448,
			"byteOffset":1399004,
			"target":34962
		},
		{
			"buffer":0,
			"byteLength":612,
			"byteOffset":1401452,
			"target":34963
		},
		{
			"buffer":0,
			"byteLength":3672,
			"byteOffset":1402064,
			"target":34962
		},
		{
			"buffer":0,
			"byteLength":3672,
			"byteOffset":1405736,
			"target":34962
		},
		{
			"buffer":0,
			"byteLength":2448,
			"byteOffset":1409408,
			"target":34962
		},
		{
			"buffer":0,
			"byteLength":6336,
			"byteOffset":1411856,
			"target":34962
		},
		{
			"buffer":0,
			"byteLength":6336,
			"byteOffset":1418192,
			"target":34962
		},
		{
			"buffer":0,
			"byteLength":4224,
			"byteOffset":1424528,
			"target":34962
		},
		{
			"buffer":0,
			"byteLength":1056,
			"byteOffset":1428752,
			"target":34963
		},
		{
			"buffer":0,
			"byteLength":288,
			"byteOffset":1429808,
			"target":34962
		},
		{
			"buffer":0,
			"byteLength":288,
			"byteOffset":1430096,
			"target":34962
		},
		{
			"buffer":0,
			"byteLength":192,
			"byteOffset":1430384,
			"target":34962
		},
		{
			"buffer":0,
			"byteLength":9216,
			"byteOffset":1430576,
			"target":34962
		},
		{
			"buffer":0,
			"byteLength":9216,
			"byteOffset":1439792,
			"target":34962
		},
		{
			"buffer":0,
			"byteLength":6144,
			"byteOffset":1449008,
			"target":34962
		},
		{
			"buffer":0,
			"byteLength":1536,
			"byteOffset":1455152,
			"target":34963
		},
		{
			"buffer":0,
			"byteLength":3456,
			"byteOffset":1456688,
			"target":34962
		},
		{
			"buffer":0,
			"byteLength":3456,
			"byteOffset":1460144,
			"target":34962
		},
		{
			"buffer":0,
			"byteLength":2304,
			"byteOffset":1463600,
			"target":34962
		},
		{
			"buffer":0,
			"byteLength":2592,
			"byteOffset":1465904,
			"target":34962
		},
		{
			"buffer":0,
			"byteLength":2592,
			"byteOffset":1468496,
			"target":34962
		},
		{
			"buffer":0,
			"byteLength":1728,
			"byteOffset":1471088,
			"target":34962
		},
		{
			"buffer":0,
			"byteLength":432,
			"byteOffset":1472816,
			"target":34963
		},
		{
			"buffer":0,
			"byteLength":5544,
			"byteOffset":1473248,
			"target":34962
		},
		{
			"buffer":0,
			"byteLength":5544,
			"byteOffset":1478792,
			"target":34962
		},
		{
			"buffer":0,
			"byteLength":3696,
			"byteOffset":1484336,
			"target":34962
		},
		{
			"buffer":0,
			"byteLength":924,
			"byteOffset":1488032,
			"target":34963
		},
		{
			"buffer":0,
			"byteLength":9432,
			"byteOffset":1488956,
			"target":34962
		},
		{
			"buffer":0,
			"byteLength":9432,
			"byteOffset":1498388,
			"target":34962
		},
		{
			"buffer":0,
			"byteLength":6288,
			"byteOffset":1507820,
			"target":34962
		},
		{
			"buffer":0,
			"byteLength":1572,
			"byteOffset":1514108,
			"target":34963
		},
		{
			"buffer":0,
			"byteLength":4608,
			"byteOffset":1515680,
			"target":34962
		},
		{
			"buffer":0,
			"byteLength":4608,
			"byteOffset":1520288,
			"target":34962
		},
		{
			"buffer":0,
			"byteLength":3072,
			"byteOffset":1524896,
			"target":34962
		},
		{
			"buffer":0,
			"byteLength":768,
			"byteOffset":1527968,
			"target":34963
		},
		{
			"buffer":0,
			"byteLength":6408,
			"byteOffset":1528736,
			"target":34962
		},
		{
			"buffer":0,
			"byteLength":6408,
			"byteOffset":1535144,
			"target":34962
		},
		{
			"buffer":0,
			"byteLength":4272,
			"byteOffset":1541552,
			"target":34962
		},
		{
			"buffer":0,
			"byteLength":1068,
			"byteOffset":1545824,
			"target":34963
		},
		{
			"buffer":0,
			"byteLength":7272,
			"byteOffset":1546892,
			"target":34962
		},
		{
			"buffer":0,
			"byteLength":7272,
			"byteOffset":1554164,
			"target":34962
		},
		{
			"buffer":0,
			"byteLength":4848,
			"byteOffset":1561436,
			"target":34962
		},
		{
			"buffer":0,
			"byteLength":1212,
			"byteOffset":1566284,
			"target":34963
		},
		{
			"buffer":0,
			"byteLength":7272,
			"byteOffset":1567496,
			"target":34962
		},
		{
			"buffer":0,
			"byteLength":7272,
			"byteOffset":1574768,
			"target":34962
		},
		{
			"buffer":0,
			"byteLength":4848,
			"byteOffset":1582040,
			"target":34962
		},
		{
			"buffer":0,
			"byteLength":9072,
			"byteOffset":1586888,
			"target":34962
		},
		{
			"buffer":0,
			"byteLength":9072,
			"byteOffset":1595960,
			"target":34962
		},
		{
			"buffer":0,
			"byteLength":6048,
			"byteOffset":1605032,
			"target":34962
		},
		{
			"buffer":0,
			"byteLength":2016,
			"byteOffset":1611080,
			"target":34962
		},
		{
			"buffer":0,
			"byteLength":2016,
			"byteOffset":1613096,
			"target":34962
		},
		{
			"buffer":0,
			"byteLength":1344,
			"byteOffset":1615112,
			"target":34962
		},
		{
			"buffer":0,
			"byteLength":336,
			"byteOffset":1616456,
			"target":34963
		},
		{
			"buffer":0,
			"byteLength":4248,
			"byteOffset":1616792,
			"target":34962
		},
		{
			"buffer":0,
			"byteLength":4248,
			"byteOffset":1621040,
			"target":34962
		},
		{
			"buffer":0,
			"byteLength":2832,
			"byteOffset":1625288,
			"target":34962
		},
		{
			"buffer":0,
			"byteLength":708,
			"byteOffset":1628120,
			"target":34963
		},
		{
			"buffer":0,
			"byteLength":4320,
			"byteOffset":1628828,
			"target":34962
		},
		{
			"buffer":0,
			"byteLength":4320,
			"byteOffset":1633148,
			"target":34962
		},
		{
			"buffer":0,
			"byteLength":2880,
			"byteOffset":1637468,
			"target":34962
		},
		{
			"buffer":0,
			"byteLength":720,
			"byteOffset":1640348,
			"target":34963
		},
		{
			"buffer":0,
			"byteLength":288,
			"byteOffset":1641068,
			"target":34962
		},
		{
			"buffer":0,
			"byteLength":288,
			"byteOffset":1641356,
			"target":34962
		},
		{
			"buffer":0,
			"byteLength":192,
			"byteOffset":1641644,
			"target":34962
		},
		{
			"buffer":0,
			"byteLength":288,
			"byteOffset":1641836,
			"target":34962
		},
		{
			"buffer":0,
			"byteLength":288,
			"byteOffset":1642124,
			"target":34962
		},
		{
			"buffer":0,
			"byteLength":192,
			"byteOffset":1642412,
			"target":34962
		},
		{
			"buffer":0,
			"byteLength":864,
			"byteOffset":1642604,
			"target":34962
		},
		{
			"buffer":0,
			"byteLength":864,
			"byteOffset":1643468,
			"target":34962
		},
		{
			"buffer":0,
			"byteLength":576,
			"byteOffset":1644332,
			"target":34962
		},
		{
			"buffer":0,
			"byteLength":144,
			"byteOffset":1644908,
			"target":34963
		},
		{
			"buffer":0,
			"byteLength":8928,
			"byteOffset":1645052,
			"target":34962
		},
		{
			"buffer":0,
			"byteLength":8928,
			"byteOffset":1653980,
			"target":34962
		},
		{
			"buffer":0,
			"byteLength":5952,
			"byteOffset":1662908,
			"target":34962
		},
		{
			"buffer":0,
			"byteLength":1488,
			"byteOffset":1668860,
			"target":34963
		},
		{
			"buffer":0,
			"byteLength":720,
			"byteOffset":1670348,
			"target":34962
		},
		{
			"buffer":0,
			"byteLength":720,
			"byteOffset":1671068,
			"target":34962
		},
		{
			"buffer":0,
			"byteLength":480,
			"byteOffset":1671788,
			"target":34962
		},
		{
			"buffer":0,
			"byteLength":120,
			"byteOffset":1672268,
			"target":34963
		},
		{
			"buffer":0,
			"byteLength":8352,
			"byteOffset":1672388,
			"target":34962
		},
		{
			"buffer":0,
			"byteLength":8352,
			"byteOffset":1680740,
			"target":34962
		},
		{
			"buffer":0,
			"byteLength":5568,
			"byteOffset":1689092,
			"target":34962
		},
		{
			"buffer":0,
			"byteLength":1392,
			"byteOffset":1694660,
			"target":34963
		}
	],
	"samplers":[
		{
			"magFilter":9729,
			"minFilter":9987
		}
	],
	"buffers":[
		{
			"byteLength":1696052,
			"uri":"Pass_CupAmm1.bin"
		}
	]
}
