{
	"asset":{
		"generator":"Khronos glTF Blender I/O v4.4.56",
		"version":"2.0"
	},
	"extensionsUsed":[
		"KHR_materials_specular"
	],
	"scene":0,
	"scenes":[
		{
			"name":"Scene",
			"nodes":[
				0,
				1,
				2,
				3,
				4,
				5,
				6,
				7,
				8,
				9,
				10,
				11,
				12,
				13,
				14,
				15,
				16,
				17,
				18,
				19,
				20,
				21,
				22,
				23,
				24,
				25,
				26,
				27,
				28,
				29,
				30,
				31,
				32,
				33,
				34,
				35,
				36,
				37,
				38,
				39,
				40,
				41,
				42,
				43
			]
		}
	],
	"nodes":[
		{
			"mesh":0,
			"name":"Scene Root_AB_AB-GEODE_02 - Default_0"
		},
		{
			"mesh":1,
			"name":"Scene Root_Avtotormoz_Avtotormoz-GEODE_02 - Default_0"
		},
		{
			"mesh":2,
			"name":"Scene Root_BelYama_BelYama-GEODE_02 - Default_0"
		},
		{
			"mesh":3,
			"name":"Scene Root_Body_Body-OFFSET_Body-GEODE_02 - Default_0"
		},
		{
			"mesh":4,
			"name":"Scene Root_Body_Boige-1_Boige-1-GEODE_02 - Default_0"
		},
		{
			"mesh":5,
			"name":"Wheel-1",
			"translation":[
				-0.000371308415196836,
				0.7861886620521545,
				9.900015830993652
			]
		},
		{
			"mesh":6,
			"name":"Wheel-2",
			"translation":[
				-0.0003634359163697809,
				0.7861772179603577,
				7.500026226043701
			]
		},
		{
			"mesh":7,
			"name":"Scene Root_Body_Boige-2_Boige-2-GEODE_02 - Default_0"
		},
		{
			"mesh":8,
			"name":"Wheel-3",
			"translation":[
				-0.00037148306728340685,
				0.7861886024475098,
				-7.499985694885254
			]
		},
		{
			"mesh":9,
			"name":"Wheel-4",
			"translation":[
				-0.00037138364859856665,
				0.786188542842865,
				-9.89998722076416
			]
		},
		{
			"mesh":10,
			"name":"Scene Root_Body_DUGG-28B_DUGG-28B-GEODE_02 - Default_0"
		},
		{
			"mesh":11,
			"name":"Gen_Kardan",
			"rotation":[
				-0.6909595131874084,
				0,
				0,
				0.7228935360908508
			],
			"translation":[
				-0.0011818393832072616,
				0.8140941858291626,
				6.359713077545166
			]
		},
		{
			"mesh":12,
			"name":"Gen_Mufta1",
			"rotation":[
				-0.7071068286895752,
				0,
				0,
				0.7071068286895752
			],
			"translation":[
				0,
				0.8456388115882874,
				5.509201526641846
			]
		},
		{
			"mesh":13,
			"name":"Scene Root_Bufera_Bufera-GEODE_02 - Default_0"
		},
		{
			"mesh":14,
			"name":"Scene Root_Deflektor_Deflektor-OFFSET_Deflektor-GEODE_02 - Defa"
		},
		{
			"mesh":15,
			"name":"Scene Root_FanTrub_FanTrub-OFFSET_FanTrub-GEODE_02 - Default_0"
		},
		{
			"mesh":16,
			"name":"Scene Root_Fartuki_Fartuki-OFFSET_Fartuki-GEODE_02 - Default_0"
		},
		{
			"mesh":17,
			"name":"Scene Root_Hvost_signal_Hvost_signal-GEODE_02 - Default_0"
		},
		{
			"mesh":18,
			"name":"Scene Root_KoncevoyRuk_1_KoncevoyRuk_1-GEODE_02 - Default_0"
		},
		{
			"mesh":19,
			"name":"Scene Root_KoncevoyRuk_2_KoncevoyRuk_2-GEODE_02 - Default_0"
		},
		{
			"mesh":20,
			"name":"Scene Root_LestnicaKrisha_LestnicaKrisha-GEODE_02 - Default_0"
		},
		{
			"mesh":21,
			"name":"Scene Root_MAB-II_MAB-II-GEODE_02 - Default_0"
		},
		{
			"mesh":22,
			"name":"Scene Root_Perehod_det_Perehod_det-GEODE_02 - Default_0"
		},
		{
			"mesh":23,
			"name":"Scene Root_PinchOFF_2_PinchOFF_2-OFFSET_PinchOFF_2-GEODE_02 - D"
		},
		{
			"mesh":24,
			"name":"Scene Root_PinchON_PinchON-GEODE_02 - Default_0"
		},
		{
			"mesh":25,
			"name":"Scene Root_Podtambur_Podtambur-OFFSET_Podtambur-GEODE_02 - Defa"
		},
		{
			"mesh":26,
			"name":"Scene Root_Podveska_ConcRuk_Podveska_ConcRuk-OFFSET_Podveska_Co"
		},
		{
			"mesh":27,
			"name":"Scene Root_Poruchny_ut_Poruchny_ut-GEODE_02 - Default_0"
		},
		{
			"mesh":28,
			"name":"Scene Root_PredohrKV_PredohrKV-GEODE_02 - Default_0"
		},
		{
			"mesh":29,
			"name":"Scene Root_PredohrSkob_PredohrSkob-GEODE_02 - Default_0"
		},
		{
			"mesh":30,
			"name":"Scene Root_Rascep_Rascep-OFFSET_Rascep-GEODE_02 - Default_0"
		},
		{
			"mesh":31,
			"name":"Scene Root_RezinaPerehod_RezinaPerehod-GEODE_02 - Default_0"
		},
		{
			"mesh":32,
			"name":"Scene Root_RozetkiOT_RozetkiOT-OFFSET_RozetkiOT-GEODE_02 - Defa"
		},
		{
			"mesh":33,
			"name":"Scene Root_SA-3-1_SA-3-1-OFFSET_SA-3-1-GEODE_02 - Default_0"
		},
		{
			"mesh":34,
			"name":"Scene Root_SA-3-2_SA-3-2-OFFSET_SA-3-2-GEODE_02 - Default_0"
		},
		{
			"mesh":35,
			"name":"Scene Root_Stupenky_Stupenky-OFFSET_Stupenky-GEODE_02 - Default"
		},
		{
			"mesh":36,
			"name":"Scene Root_TehLuk_TehLuk-GEODE_02 - Default_0"
		},
		{
			"mesh":37,
			"name":"Scene Root_TRP_TRP-OFFSET_TRP-GEODE_02 - Default_0"
		},
		{
			"mesh":38,
			"name":"Scene Root_Truby_kotla_Truby_kotla-GEODE_02 - Default_0"
		},
		{
			"mesh":39,
			"name":"Scene Root_Umformer_Umformer-GEODE_02 - Default_0"
		},
		{
			"mesh":40,
			"name":"Scene Root_Yashik_3000Kv_Yashik_3000Kv-OFFSET_Yashik_3000Kv-GEO"
		},
		{
			"mesh":41,
			"name":"Scene Root_Yashik_KU_Yashik_KU-OFFSET_Yashik_KU-GEODE_02 - Defa"
		},
		{
			"mesh":42,
			"name":"Scene Root_Yashik_RSH_Yashik_RSH-OFFSET_Yashik_RSH-GEODE_02 - D"
		},
		{
			"mesh":43,
			"name":"Scene Root_ZaglushkaPinch_ZaglushkaPinch-OFFSET_ZaglushkaPinch-"
		}
	],
	"materials":[
		{
			"alphaMode":"BLEND",
			"doubleSided":true,
			"extensions":{
				"KHR_materials_specular":{
					"specularFactor":0
				}
			},
			"name":"material_1.001",
			"pbrMetallicRoughness":{
				"baseColorTexture":{
					"index":0
				},
				"metallicFactor":0,
				"roughnessFactor":0.6837722063064575
			}
		}
	],
	"meshes":[
		{
			"name":"Scene Root_AB_AB-GEODE_02 - Default_0.001",
			"primitives":[
				{
					"attributes":{
						"POSITION":0,
						"NORMAL":1,
						"TEXCOORD_0":2
					},
					"indices":3,
					"material":0
				}
			]
		},
		{
			"name":"Scene Root_Avtotormoz_Avtotormoz-GEODE_02 - Default_0",
			"primitives":[
				{
					"attributes":{
						"POSITION":4,
						"NORMAL":5,
						"TEXCOORD_0":6
					},
					"indices":7,
					"material":0
				}
			]
		},
		{
			"name":"Scene Root_BelYama_BelYama-GEODE_02 - Default_0",
			"primitives":[
				{
					"attributes":{
						"POSITION":8,
						"NORMAL":9,
						"TEXCOORD_0":10
					},
					"indices":11,
					"material":0
				}
			]
		},
		{
			"name":"Scene Root_Body_Body-OFFSET_Body-GEODE_02 - Default_0.001",
			"primitives":[
				{
					"attributes":{
						"POSITION":12,
						"NORMAL":13,
						"TEXCOORD_0":14
					},
					"indices":15,
					"material":0
				}
			]
		},
		{
			"name":"Scene Root_Body_Boige-1_Boige-1-GEODE_02 - Default_0.001",
			"primitives":[
				{
					"attributes":{
						"POSITION":16,
						"NORMAL":17,
						"TEXCOORD_0":18
					},
					"indices":19,
					"material":0
				}
			]
		},
		{
			"name":"Scene Root_Body_Boige-1_Wheel-1_Wheel-1-OFFSET_Wheel-1-GEOD",
			"primitives":[
				{
					"attributes":{
						"POSITION":20,
						"NORMAL":21,
						"TEXCOORD_0":22
					},
					"indices":23,
					"material":0
				}
			]
		},
		{
			"name":"Scene Root_Body_Boige-1_Wheel-2_Wheel-2-OFFSET_Wheel-2-GEOD",
			"primitives":[
				{
					"attributes":{
						"POSITION":24,
						"NORMAL":25,
						"TEXCOORD_0":26
					},
					"indices":27,
					"material":0
				}
			]
		},
		{
			"name":"Scene Root_Body_Boige-2_Boige-2-GEODE_02 - Default_0.001",
			"primitives":[
				{
					"attributes":{
						"POSITION":28,
						"NORMAL":29,
						"TEXCOORD_0":30
					},
					"indices":31,
					"material":0
				}
			]
		},
		{
			"name":"Scene Root_Body_Boige-2_Wheel-3_Wheel-3-OFFSET_Wheel-3-GEOD",
			"primitives":[
				{
					"attributes":{
						"POSITION":32,
						"NORMAL":33,
						"TEXCOORD_0":34
					},
					"indices":23,
					"material":0
				}
			]
		},
		{
			"name":"Scene Root_Body_Boige-2_Wheel-4_Wheel-4-OFFSET_Wheel-4-GEOD",
			"primitives":[
				{
					"attributes":{
						"POSITION":35,
						"NORMAL":36,
						"TEXCOORD_0":37
					},
					"indices":23,
					"material":0
				}
			]
		},
		{
			"name":"Scene Root_Body_DUGG-28B_DUGG-28B-GEODE_02 - Default_0",
			"primitives":[
				{
					"attributes":{
						"POSITION":38,
						"NORMAL":39,
						"TEXCOORD_0":40
					},
					"indices":41,
					"material":0
				}
			]
		},
		{
			"name":"Scene Root_Body_DUGG-28B_Gen_Kardan_Gen_Kardan-OFFSET_Gen_Karda",
			"primitives":[
				{
					"attributes":{
						"POSITION":42,
						"NORMAL":43,
						"TEXCOORD_0":44
					},
					"indices":45,
					"material":0
				}
			]
		},
		{
			"name":"Scene Root_Body_DUGG-28B_Gen_Mufta1_Gen_Mufta1-OFFSET_Gen_Mufta",
			"primitives":[
				{
					"attributes":{
						"POSITION":46,
						"NORMAL":47,
						"TEXCOORD_0":48
					},
					"indices":49,
					"material":0
				}
			]
		},
		{
			"name":"Scene Root_Bufera_Bufera-GEODE_02 - Default_0",
			"primitives":[
				{
					"attributes":{
						"POSITION":50,
						"NORMAL":51,
						"TEXCOORD_0":52
					},
					"indices":53,
					"material":0
				}
			]
		},
		{
			"name":"Scene Root_Deflektor_Deflektor-OFFSET_Deflektor-GEODE_02 - ",
			"primitives":[
				{
					"attributes":{
						"POSITION":54,
						"NORMAL":55,
						"TEXCOORD_0":56
					},
					"indices":57,
					"material":0
				}
			]
		},
		{
			"name":"Scene Root_FanTrub_FanTrub-OFFSET_FanTrub-GEODE_02 - Default_0",
			"primitives":[
				{
					"attributes":{
						"POSITION":58,
						"NORMAL":59,
						"TEXCOORD_0":60
					},
					"indices":61,
					"material":0
				}
			]
		},
		{
			"name":"Scene Root_Fartuki_Fartuki-OFFSET_Fartuki-GEODE_02 - Defaul",
			"primitives":[
				{
					"attributes":{
						"POSITION":62,
						"NORMAL":63,
						"TEXCOORD_0":64
					},
					"indices":65,
					"material":0
				}
			]
		},
		{
			"name":"Scene Root_Hvost_signal_Hvost_signal-GEODE_02 - Default_0.001",
			"primitives":[
				{
					"attributes":{
						"POSITION":66,
						"NORMAL":67,
						"TEXCOORD_0":68
					},
					"indices":69,
					"material":0
				}
			]
		},
		{
			"name":"Scene Root_KoncevoyRuk_1_KoncevoyRuk_1-GEODE_02 - Default_0.001",
			"primitives":[
				{
					"attributes":{
						"POSITION":70,
						"NORMAL":71,
						"TEXCOORD_0":72
					},
					"indices":73,
					"material":0
				}
			]
		},
		{
			"name":"Scene Root_KoncevoyRuk_2_KoncevoyRuk_2-GEODE_02 - Default_0.001",
			"primitives":[
				{
					"attributes":{
						"POSITION":74,
						"NORMAL":75,
						"TEXCOORD_0":76
					},
					"indices":73,
					"material":0
				}
			]
		},
		{
			"name":"Scene Root_LestnicaKrisha_LestnicaKrisha-GEODE_02 - Default",
			"primitives":[
				{
					"attributes":{
						"POSITION":77,
						"NORMAL":78,
						"TEXCOORD_0":79
					},
					"indices":80,
					"material":0
				}
			]
		},
		{
			"name":"Scene Root_MAB-II_MAB-II-GEODE_02 - Default_0",
			"primitives":[
				{
					"attributes":{
						"POSITION":81,
						"NORMAL":82,
						"TEXCOORD_0":83
					},
					"indices":84,
					"material":0
				}
			]
		},
		{
			"name":"Scene Root_Perehod_det_Perehod_det-GEODE_02 - Default_0.001",
			"primitives":[
				{
					"attributes":{
						"POSITION":85,
						"NORMAL":86,
						"TEXCOORD_0":87
					},
					"indices":69,
					"material":0
				}
			]
		},
		{
			"name":"Scene Root_PinchOFF_2_PinchOFF_2-OFFSET_PinchOFF_2-GEODE_02",
			"primitives":[
				{
					"attributes":{
						"POSITION":88,
						"NORMAL":89,
						"TEXCOORD_0":90
					},
					"indices":91,
					"material":0
				}
			]
		},
		{
			"name":"Scene Root_PinchON_PinchON-GEODE_02 - Default_0.001",
			"primitives":[
				{
					"attributes":{
						"POSITION":92,
						"NORMAL":93,
						"TEXCOORD_0":94
					},
					"indices":91,
					"material":0
				}
			]
		},
		{
			"name":"Scene Root_Podtambur_Podtambur-OFFSET_Podtambur-GEODE_02 - ",
			"primitives":[
				{
					"attributes":{
						"POSITION":95,
						"NORMAL":96,
						"TEXCOORD_0":97
					},
					"indices":98,
					"material":0
				}
			]
		},
		{
			"name":"Scene Root_Podveska_ConcRuk_Podveska_ConcRuk-OFFSET_Podvesk",
			"primitives":[
				{
					"attributes":{
						"POSITION":99,
						"NORMAL":100,
						"TEXCOORD_0":101
					},
					"indices":11,
					"material":0
				}
			]
		},
		{
			"name":"Scene Root_Poruchny_ut_Poruchny_ut-GEODE_02 - Default_0",
			"primitives":[
				{
					"attributes":{
						"POSITION":102,
						"NORMAL":103,
						"TEXCOORD_0":104
					},
					"indices":105,
					"material":0
				}
			]
		},
		{
			"name":"Scene Root_PredohrKV_PredohrKV-GEODE_02 - Default_0",
			"primitives":[
				{
					"attributes":{
						"POSITION":106,
						"NORMAL":107,
						"TEXCOORD_0":108
					},
					"indices":57,
					"material":0
				}
			]
		},
		{
			"name":"Scene Root_PredohrSkob_PredohrSkob-GEODE_02 - Default_0.001",
			"primitives":[
				{
					"attributes":{
						"POSITION":109,
						"NORMAL":110,
						"TEXCOORD_0":111
					},
					"indices":112,
					"material":0
				}
			]
		},
		{
			"name":"Scene Root_Rascep_Rascep-OFFSET_Rascep-GEODE_02 - Default_0.001",
			"primitives":[
				{
					"attributes":{
						"POSITION":113,
						"NORMAL":114,
						"TEXCOORD_0":115
					},
					"indices":116,
					"material":0
				}
			]
		},
		{
			"name":"Scene Root_RezinaPerehod_RezinaPerehod-GEODE_02 - Default_0.001",
			"primitives":[
				{
					"attributes":{
						"POSITION":117,
						"NORMAL":118,
						"TEXCOORD_0":119
					},
					"indices":120,
					"material":0
				}
			]
		},
		{
			"name":"Scene Root_RozetkiOT_RozetkiOT-OFFSET_RozetkiOT-GEODE_02 - ",
			"primitives":[
				{
					"attributes":{
						"POSITION":121,
						"NORMAL":122,
						"TEXCOORD_0":123
					},
					"indices":124,
					"material":0
				}
			]
		},
		{
			"name":"Scene Root_SA-3-1_SA-3-1-OFFSET_SA-3-1-GEODE_02 - Default_0.001",
			"primitives":[
				{
					"attributes":{
						"POSITION":125,
						"NORMAL":126,
						"TEXCOORD_0":127
					},
					"indices":128,
					"material":0
				}
			]
		},
		{
			"name":"Scene Root_SA-3-2_SA-3-2-OFFSET_SA-3-2-GEODE_02 - Default_0.001",
			"primitives":[
				{
					"attributes":{
						"POSITION":129,
						"NORMAL":130,
						"TEXCOORD_0":131
					},
					"indices":128,
					"material":0
				}
			]
		},
		{
			"name":"Scene Root_Stupenky_Stupenky-OFFSET_Stupenky-GEODE_02 - Def",
			"primitives":[
				{
					"attributes":{
						"POSITION":132,
						"NORMAL":133,
						"TEXCOORD_0":134
					},
					"indices":3,
					"material":0
				}
			]
		},
		{
			"name":"Scene Root_TehLuk_TehLuk-GEODE_02 - Default_0.001",
			"primitives":[
				{
					"attributes":{
						"POSITION":135,
						"NORMAL":136,
						"TEXCOORD_0":137
					},
					"indices":138,
					"material":0
				}
			]
		},
		{
			"name":"Scene Root_TRP_TRP-OFFSET_TRP-GEODE_02 - Default_0.001",
			"primitives":[
				{
					"attributes":{
						"POSITION":139,
						"NORMAL":140,
						"TEXCOORD_0":141
					},
					"indices":142,
					"material":0
				}
			]
		},
		{
			"name":"Scene Root_Truby_kotla_Truby_kotla-GEODE_02 - Default_0",
			"primitives":[
				{
					"attributes":{
						"POSITION":143,
						"NORMAL":144,
						"TEXCOORD_0":145
					},
					"indices":146,
					"material":0
				}
			]
		},
		{
			"name":"Scene Root_Umformer_Umformer-GEODE_02 - Default_0",
			"primitives":[
				{
					"attributes":{
						"POSITION":147,
						"NORMAL":148,
						"TEXCOORD_0":149
					},
					"indices":150,
					"material":0
				}
			]
		},
		{
			"name":"Scene Root_Yashik_3000Kv_Yashik_3000Kv-OFFSET_Yashik_3000Kv",
			"primitives":[
				{
					"attributes":{
						"POSITION":151,
						"NORMAL":152,
						"TEXCOORD_0":153
					},
					"indices":11,
					"material":0
				}
			]
		},
		{
			"name":"Scene Root_Yashik_KU_Yashik_KU-OFFSET_Yashik_KU-GEODE_02 - ",
			"primitives":[
				{
					"attributes":{
						"POSITION":154,
						"NORMAL":155,
						"TEXCOORD_0":156
					},
					"indices":61,
					"material":0
				}
			]
		},
		{
			"name":"Scene Root_Yashik_RSH_Yashik_RSH-OFFSET_Yashik_RSH-GEODE_02",
			"primitives":[
				{
					"attributes":{
						"POSITION":157,
						"NORMAL":158,
						"TEXCOORD_0":159
					},
					"indices":160,
					"material":0
				}
			]
		},
		{
			"name":"Scene Root_ZaglushkaPinch_ZaglushkaPinch-OFFSET_ZaglushkaPi",
			"primitives":[
				{
					"attributes":{
						"POSITION":161,
						"NORMAL":162,
						"TEXCOORD_0":163
					},
					"indices":164,
					"material":0
				}
			]
		}
	],
	"textures":[
		{
			"sampler":0,
			"source":0
		}
	],
	"images":[
		{
			"mimeType":"image/png",
			"name":"pass_rzd-11100.tga",
			"uri":"T_pass_rzd-11100/pass_rzd-11100_tga.png"
		}
	],
	"accessors":[
		{
			"bufferView":0,
			"componentType":5126,
			"count":756,
			"max":[
				1.5354000329971313,
				1.4895700216293335,
				-1.0672800540924072
			],
			"min":[
				-1.5354000329971313,
				0.7313699722290039,
				-6.13877010345459
			],
			"type":"VEC3"
		},
		{
			"bufferView":1,
			"componentType":5126,
			"count":756,
			"type":"VEC3"
		},
		{
			"bufferView":2,
			"componentType":5126,
			"count":756,
			"type":"VEC2"
		},
		{
			"bufferView":3,
			"componentType":5123,
			"count":756,
			"type":"SCALAR"
		},
		{
			"bufferView":4,
			"componentType":5126,
			"count":1674,
			"max":[
				1.3405030965805054,
				1.5285613536834717,
				2.1776797771453857
			],
			"min":[
				-1.3612323999404907,
				0.7740656137466431,
				-0.643173098564148
			],
			"type":"VEC3"
		},
		{
			"bufferView":5,
			"componentType":5126,
			"count":1674,
			"type":"VEC3"
		},
		{
			"bufferView":6,
			"componentType":5126,
			"count":1674,
			"type":"VEC2"
		},
		{
			"bufferView":7,
			"componentType":5123,
			"count":1674,
			"type":"SCALAR"
		},
		{
			"bufferView":8,
			"componentType":5126,
			"count":24,
			"max":[
				1.3129889965057373,
				1.4219839572906494,
				-1.2769010066986084
			],
			"min":[
				0.8079819679260254,
				0.7450120449066162,
				-2.5544180870056152
			],
			"type":"VEC3"
		},
		{
			"bufferView":9,
			"componentType":5126,
			"count":24,
			"type":"VEC3"
		},
		{
			"bufferView":10,
			"componentType":5126,
			"count":24,
			"type":"VEC2"
		},
		{
			"bufferView":11,
			"componentType":5123,
			"count":24,
			"type":"SCALAR"
		},
		{
			"bufferView":12,
			"componentType":5126,
			"count":981,
			"max":[
				1.5293200016021729,
				4.668553829193115,
				12.211299896240234
			],
			"min":[
				-1.529579997062683,
				1.1425739526748657,
				-12.211299896240234
			],
			"type":"VEC3"
		},
		{
			"bufferView":13,
			"componentType":5126,
			"count":981,
			"type":"VEC3"
		},
		{
			"bufferView":14,
			"componentType":5126,
			"count":981,
			"type":"VEC2"
		},
		{
			"bufferView":15,
			"componentType":5123,
			"count":981,
			"type":"SCALAR"
		},
		{
			"bufferView":16,
			"componentType":5126,
			"count":13764,
			"max":[
				1.594249963760376,
				1.3840199708938599,
				10.649849891662598
			],
			"min":[
				-1.594249963760376,
				0.5048949718475342,
				6.750150203704834
			],
			"type":"VEC3"
		},
		{
			"bufferView":17,
			"componentType":5126,
			"count":13764,
			"type":"VEC3"
		},
		{
			"bufferView":18,
			"componentType":5126,
			"count":13764,
			"type":"VEC2"
		},
		{
			"bufferView":19,
			"componentType":5123,
			"count":13764,
			"type":"SCALAR"
		},
		{
			"bufferView":20,
			"componentType":5126,
			"count":732,
			"max":[
				0.8516115546226501,
				0.5169913172721863,
				0.5090742111206055
			],
			"min":[
				-0.8508685231208801,
				-0.5168986916542053,
				-0.5091085433959961
			],
			"type":"VEC3"
		},
		{
			"bufferView":21,
			"componentType":5126,
			"count":732,
			"type":"VEC3"
		},
		{
			"bufferView":22,
			"componentType":5126,
			"count":732,
			"type":"VEC2"
		},
		{
			"bufferView":23,
			"componentType":5123,
			"count":732,
			"type":"SCALAR"
		},
		{
			"bufferView":24,
			"componentType":5126,
			"count":900,
			"max":[
				0.8516032695770264,
				0.5170027613639832,
				0.5090670585632324
			],
			"min":[
				-0.8508768081665039,
				-0.5168872475624084,
				-0.5091161727905273
			],
			"type":"VEC3"
		},
		{
			"bufferView":25,
			"componentType":5126,
			"count":900,
			"type":"VEC3"
		},
		{
			"bufferView":26,
			"componentType":5126,
			"count":900,
			"type":"VEC2"
		},
		{
			"bufferView":27,
			"componentType":5123,
			"count":900,
			"type":"SCALAR"
		},
		{
			"bufferView":28,
			"componentType":5126,
			"count":13248,
			"max":[
				1.594249963760376,
				1.3840199708938599,
				-6.750150203704834
			],
			"min":[
				-1.594249963760376,
				0.5048949718475342,
				-10.649849891662598
			],
			"type":"VEC3"
		},
		{
			"bufferView":29,
			"componentType":5126,
			"count":13248,
			"type":"VEC3"
		},
		{
			"bufferView":30,
			"componentType":5126,
			"count":13248,
			"type":"VEC2"
		},
		{
			"bufferView":31,
			"componentType":5123,
			"count":13248,
			"type":"SCALAR"
		},
		{
			"bufferView":32,
			"componentType":5126,
			"count":732,
			"max":[
				0.8516116738319397,
				0.516991376876831,
				0.5090756416320801
			],
			"min":[
				-0.8508684039115906,
				-0.5168986320495605,
				-0.5091075897216797
			],
			"type":"VEC3"
		},
		{
			"bufferView":33,
			"componentType":5126,
			"count":732,
			"type":"VEC3"
		},
		{
			"bufferView":34,
			"componentType":5126,
			"count":732,
			"type":"VEC2"
		},
		{
			"bufferView":35,
			"componentType":5126,
			"count":732,
			"max":[
				0.8516116142272949,
				0.5169914364814758,
				0.5090770721435547
			],
			"min":[
				-0.8508684635162354,
				-0.5168985724449158,
				-0.5091056823730469
			],
			"type":"VEC3"
		},
		{
			"bufferView":36,
			"componentType":5126,
			"count":732,
			"type":"VEC3"
		},
		{
			"bufferView":37,
			"componentType":5126,
			"count":732,
			"type":"VEC2"
		},
		{
			"bufferView":38,
			"componentType":5126,
			"count":1254,
			"max":[
				0.7093170285224915,
				1.5928720235824585,
				5.434988975524902
			],
			"min":[
				-0.4480209946632385,
				0.4981580078601837,
				3.3901100158691406
			],
			"type":"VEC3"
		},
		{
			"bufferView":39,
			"componentType":5126,
			"count":1254,
			"type":"VEC3"
		},
		{
			"bufferView":40,
			"componentType":5126,
			"count":1254,
			"type":"VEC2"
		},
		{
			"bufferView":41,
			"componentType":5123,
			"count":1254,
			"type":"SCALAR"
		},
		{
			"bufferView":42,
			"componentType":5126,
			"count":180,
			"max":[
				0.05195183679461479,
				0.7621346712112427,
				0.06114345043897629
			],
			"min":[
				-0.05199343338608742,
				-0.7632166743278503,
				-0.06066543236374855
			],
			"type":"VEC3"
		},
		{
			"bufferView":43,
			"componentType":5126,
			"count":180,
			"type":"VEC3"
		},
		{
			"bufferView":44,
			"componentType":5126,
			"count":180,
			"type":"VEC2"
		},
		{
			"bufferView":45,
			"componentType":5123,
			"count":180,
			"type":"SCALAR"
		},
		{
			"bufferView":46,
			"componentType":5126,
			"count":228,
			"max":[
				0.19970303773880005,
				0.12630844116210938,
				0.20999521017074585
			],
			"min":[
				-0.19970294833183289,
				-0.10300827771425247,
				-0.20991075038909912
			],
			"type":"VEC3"
		},
		{
			"bufferView":47,
			"componentType":5126,
			"count":228,
			"type":"VEC3"
		},
		{
			"bufferView":48,
			"componentType":5126,
			"count":228,
			"type":"VEC2"
		},
		{
			"bufferView":49,
			"componentType":5123,
			"count":228,
			"type":"SCALAR"
		},
		{
			"bufferView":50,
			"componentType":5126,
			"count":2256,
			"max":[
				1.2317689657211304,
				1.5712900161743164,
				12.496600151062012
			],
			"min":[
				-1.231650948524475,
				1.1801600456237793,
				-12.496600151062012
			],
			"type":"VEC3"
		},
		{
			"bufferView":51,
			"componentType":5126,
			"count":2256,
			"type":"VEC3"
		},
		{
			"bufferView":52,
			"componentType":5126,
			"count":2256,
			"type":"VEC2"
		},
		{
			"bufferView":53,
			"componentType":5123,
			"count":2256,
			"type":"SCALAR"
		},
		{
			"bufferView":54,
			"componentType":5126,
			"count":252,
			"max":[
				-0.6658239960670471,
				4.694353103637695,
				10.639899253845215
			],
			"min":[
				-1.2851719856262207,
				4.414103984832764,
				-11.607992172241211
			],
			"type":"VEC3"
		},
		{
			"bufferView":55,
			"componentType":5126,
			"count":252,
			"type":"VEC3"
		},
		{
			"bufferView":56,
			"componentType":5126,
			"count":252,
			"type":"VEC2"
		},
		{
			"bufferView":57,
			"componentType":5123,
			"count":252,
			"type":"SCALAR"
		},
		{
			"bufferView":58,
			"componentType":5126,
			"count":72,
			"max":[
				-1.2139291763305664,
				1.5082844495773315,
				10.835604667663574
			],
			"min":[
				-1.4790308475494385,
				1.1806566715240479,
				-10.83568286895752
			],
			"type":"VEC3"
		},
		{
			"bufferView":59,
			"componentType":5126,
			"count":72,
			"type":"VEC3"
		},
		{
			"bufferView":60,
			"componentType":5126,
			"count":72,
			"type":"VEC2"
		},
		{
			"bufferView":61,
			"componentType":5123,
			"count":72,
			"type":"SCALAR"
		},
		{
			"bufferView":62,
			"componentType":5126,
			"count":12,
			"max":[
				0.4108690023422241,
				2.2292540073394775,
				12.346199989318848
			],
			"min":[
				-0.4108709990978241,
				1.711893916130066,
				-12.346199989318848
			],
			"type":"VEC3"
		},
		{
			"bufferView":63,
			"componentType":5126,
			"count":12,
			"type":"VEC3"
		},
		{
			"bufferView":64,
			"componentType":5126,
			"count":12,
			"type":"VEC2"
		},
		{
			"bufferView":65,
			"componentType":5123,
			"count":12,
			"type":"SCALAR"
		},
		{
			"bufferView":66,
			"componentType":5126,
			"count":288,
			"max":[
				1.374709963798523,
				3.90228009223938,
				12.254500389099121
			],
			"min":[
				-1.374709963798523,
				1.9956799745559692,
				-12.254500389099121
			],
			"type":"VEC3"
		},
		{
			"bufferView":67,
			"componentType":5126,
			"count":288,
			"type":"VEC3"
		},
		{
			"bufferView":68,
			"componentType":5126,
			"count":288,
			"type":"VEC2"
		},
		{
			"bufferView":69,
			"componentType":5123,
			"count":288,
			"type":"SCALAR"
		},
		{
			"bufferView":70,
			"componentType":5126,
			"count":636,
			"max":[
				0.4727019965648651,
				1.316033959388733,
				12.563699722290039
			],
			"min":[
				-0.06939209997653961,
				0.6859180331230164,
				9.935600280761719
			],
			"type":"VEC3"
		},
		{
			"bufferView":71,
			"componentType":5126,
			"count":636,
			"type":"VEC3"
		},
		{
			"bufferView":72,
			"componentType":5126,
			"count":636,
			"type":"VEC2"
		},
		{
			"bufferView":73,
			"componentType":5123,
			"count":636,
			"type":"SCALAR"
		},
		{
			"bufferView":74,
			"componentType":5126,
			"count":636,
			"max":[
				0.0693902000784874,
				1.316033959388733,
				-9.935600280761719
			],
			"min":[
				-0.4727030098438263,
				0.6859180331230164,
				-12.563699722290039
			],
			"type":"VEC3"
		},
		{
			"bufferView":75,
			"componentType":5126,
			"count":636,
			"type":"VEC3"
		},
		{
			"bufferView":76,
			"componentType":5126,
			"count":636,
			"type":"VEC2"
		},
		{
			"bufferView":77,
			"componentType":5126,
			"count":1020,
			"max":[
				1.4115300178527832,
				4.744810104370117,
				12.332200050354004
			],
			"min":[
				-1.4115300178527832,
				1.5372300148010254,
				-12.332200050354004
			],
			"type":"VEC3"
		},
		{
			"bufferView":78,
			"componentType":5126,
			"count":1020,
			"type":"VEC3"
		},
		{
			"bufferView":79,
			"componentType":5126,
			"count":1020,
			"type":"VEC2"
		},
		{
			"bufferView":80,
			"componentType":5123,
			"count":1020,
			"type":"SCALAR"
		},
		{
			"bufferView":81,
			"componentType":5126,
			"count":2529,
			"max":[
				1.4951659440994263,
				1.459818959236145,
				3.1516199111938477
			],
			"min":[
				-0.8403699994087219,
				0.5739079713821411,
				-1.2159699201583862
			],
			"type":"VEC3"
		},
		{
			"bufferView":82,
			"componentType":5126,
			"count":2529,
			"type":"VEC3"
		},
		{
			"bufferView":83,
			"componentType":5126,
			"count":2529,
			"type":"VEC2"
		},
		{
			"bufferView":84,
			"componentType":5123,
			"count":2529,
			"type":"SCALAR"
		},
		{
			"bufferView":85,
			"componentType":5126,
			"count":288,
			"max":[
				0.4973732531070709,
				3.6603100299835205,
				12.203399658203125
			],
			"min":[
				-0.4972767233848572,
				2.641319990158081,
				-12.203399658203125
			],
			"type":"VEC3"
		},
		{
			"bufferView":86,
			"componentType":5126,
			"count":288,
			"type":"VEC3"
		},
		{
			"bufferView":87,
			"componentType":5126,
			"count":288,
			"type":"VEC2"
		},
		{
			"bufferView":88,
			"componentType":5126,
			"count":306,
			"max":[
				-0.8865818381309509,
				1.8667739629745483,
				-12.071200370788574
			],
			"min":[
				-1.3628119230270386,
				0.7449060082435608,
				-12.34529972076416
			],
			"type":"VEC3"
		},
		{
			"bufferView":89,
			"componentType":5126,
			"count":306,
			"type":"VEC3"
		},
		{
			"bufferView":90,
			"componentType":5126,
			"count":306,
			"type":"VEC2"
		},
		{
			"bufferView":91,
			"componentType":5123,
			"count":306,
			"type":"SCALAR"
		},
		{
			"bufferView":92,
			"componentType":5126,
			"count":306,
			"max":[
				0.9251142144203186,
				1.089877963066101,
				12.883536338806152
			],
			"min":[
				0.7872790098190308,
				0.569514811038971,
				12.07115364074707
			],
			"type":"VEC3"
		},
		{
			"bufferView":93,
			"componentType":5126,
			"count":306,
			"type":"VEC3"
		},
		{
			"bufferView":94,
			"componentType":5126,
			"count":306,
			"type":"VEC2"
		},
		{
			"bufferView":95,
			"componentType":5126,
			"count":528,
			"max":[
				1.5294500589370728,
				1.6292239427566528,
				11.928400039672852
			],
			"min":[
				-1.5288900136947632,
				1.4137539863586426,
				-11.928400039672852
			],
			"type":"VEC3"
		},
		{
			"bufferView":96,
			"componentType":5126,
			"count":528,
			"type":"VEC3"
		},
		{
			"bufferView":97,
			"componentType":5126,
			"count":528,
			"type":"VEC2"
		},
		{
			"bufferView":98,
			"componentType":5123,
			"count":528,
			"type":"SCALAR"
		},
		{
			"bufferView":99,
			"componentType":5126,
			"count":24,
			"max":[
				0.0971062034368515,
				1.3041839599609375,
				11.900899887084961
			],
			"min":[
				-0.09710799902677536,
				0.6608280539512634,
				-11.900899887084961
			],
			"type":"VEC3"
		},
		{
			"bufferView":100,
			"componentType":5126,
			"count":24,
			"type":"VEC3"
		},
		{
			"bufferView":101,
			"componentType":5126,
			"count":24,
			"type":"VEC2"
		},
		{
			"bufferView":102,
			"componentType":5126,
			"count":2016,
			"max":[
				1.5691584348678589,
				2.9952540397644043,
				12.07610034942627
			],
			"min":[
				-1.5687614679336548,
				1.705746054649353,
				-12.07610034942627
			],
			"type":"VEC3"
		},
		{
			"bufferView":103,
			"componentType":5126,
			"count":2016,
			"type":"VEC3"
		},
		{
			"bufferView":104,
			"componentType":5126,
			"count":2016,
			"type":"VEC2"
		},
		{
			"bufferView":105,
			"componentType":5123,
			"count":2016,
			"type":"SCALAR"
		},
		{
			"bufferView":106,
			"componentType":5126,
			"count":252,
			"max":[
				0.35478475689888,
				1.5043920278549194,
				6.887831211090088
			],
			"min":[
				-0.3635749816894531,
				0.6067345142364502,
				5.545280933380127
			],
			"type":"VEC3"
		},
		{
			"bufferView":107,
			"componentType":5126,
			"count":252,
			"type":"VEC3"
		},
		{
			"bufferView":108,
			"componentType":5126,
			"count":252,
			"type":"VEC2"
		},
		{
			"bufferView":109,
			"componentType":5126,
			"count":216,
			"max":[
				0.6742200255393982,
				1.511240005493164,
				6.547369956970215
			],
			"min":[
				-0.6876260042190552,
				1.2046699523925781,
				-6.5474700927734375
			],
			"type":"VEC3"
		},
		{
			"bufferView":110,
			"componentType":5126,
			"count":216,
			"type":"VEC3"
		},
		{
			"bufferView":111,
			"componentType":5126,
			"count":216,
			"type":"VEC2"
		},
		{
			"bufferView":112,
			"componentType":5123,
			"count":216,
			"type":"SCALAR"
		},
		{
			"bufferView":113,
			"componentType":5126,
			"count":786,
			"max":[
				1.3588299751281738,
				1.3531140089035034,
				12.365400314331055
			],
			"min":[
				-1.3588299751281738,
				0.7585240006446838,
				-12.365400314331055
			],
			"type":"VEC3"
		},
		{
			"bufferView":114,
			"componentType":5126,
			"count":786,
			"type":"VEC3"
		},
		{
			"bufferView":115,
			"componentType":5126,
			"count":786,
			"type":"VEC2"
		},
		{
			"bufferView":116,
			"componentType":5123,
			"count":786,
			"type":"SCALAR"
		},
		{
			"bufferView":117,
			"componentType":5126,
			"count":408,
			"max":[
				0.8905868530273438,
				4.101940155029297,
				12.505800247192383
			],
			"min":[
				-0.8900181651115417,
				1.7067099809646606,
				-12.505800247192383
			],
			"type":"VEC3"
		},
		{
			"bufferView":118,
			"componentType":5126,
			"count":408,
			"type":"VEC3"
		},
		{
			"bufferView":119,
			"componentType":5126,
			"count":408,
			"type":"VEC2"
		},
		{
			"bufferView":120,
			"componentType":5123,
			"count":408,
			"type":"SCALAR"
		},
		{
			"bufferView":121,
			"componentType":5126,
			"count":558,
			"max":[
				0.9393069744110107,
				1.5105040073394775,
				12.14579963684082
			],
			"min":[
				-0.9393090009689331,
				0.9768270254135132,
				-12.14579963684082
			],
			"type":"VEC3"
		},
		{
			"bufferView":122,
			"componentType":5126,
			"count":558,
			"type":"VEC3"
		},
		{
			"bufferView":123,
			"componentType":5126,
			"count":558,
			"type":"VEC2"
		},
		{
			"bufferView":124,
			"componentType":5123,
			"count":558,
			"type":"SCALAR"
		},
		{
			"bufferView":125,
			"componentType":5126,
			"count":606,
			"max":[
				0.2796057164669037,
				1.5994269847869873,
				12.63521957397461
			],
			"min":[
				-0.26976561546325684,
				1.145745038986206,
				11.662010192871094
			],
			"type":"VEC3"
		},
		{
			"bufferView":126,
			"componentType":5126,
			"count":606,
			"type":"VEC3"
		},
		{
			"bufferView":127,
			"componentType":5126,
			"count":606,
			"type":"VEC2"
		},
		{
			"bufferView":128,
			"componentType":5123,
			"count":606,
			"type":"SCALAR"
		},
		{
			"bufferView":129,
			"componentType":5126,
			"count":606,
			"max":[
				0.2697637975215912,
				1.5994269847869873,
				-11.662010192871094
			],
			"min":[
				-0.2796076238155365,
				1.145745038986206,
				-12.63521957397461
			],
			"type":"VEC3"
		},
		{
			"bufferView":130,
			"componentType":5126,
			"count":606,
			"type":"VEC3"
		},
		{
			"bufferView":131,
			"componentType":5126,
			"count":606,
			"type":"VEC2"
		},
		{
			"bufferView":132,
			"componentType":5126,
			"count":756,
			"max":[
				1.5850199460983276,
				1.5033040046691895,
				11.95479965209961
			],
			"min":[
				-1.5850199460983276,
				0.7619380354881287,
				-11.92080020904541
			],
			"type":"VEC3"
		},
		{
			"bufferView":133,
			"componentType":5126,
			"count":756,
			"type":"VEC3"
		},
		{
			"bufferView":134,
			"componentType":5126,
			"count":756,
			"type":"VEC2"
		},
		{
			"bufferView":135,
			"componentType":5126,
			"count":168,
			"max":[
				0.7940530180931091,
				4.707910060882568,
				11.96090030670166
			],
			"min":[
				-0.808555006980896,
				4.581600189208984,
				-11.958600044250488
			],
			"type":"VEC3"
		},
		{
			"bufferView":136,
			"componentType":5126,
			"count":168,
			"type":"VEC3"
		},
		{
			"bufferView":137,
			"componentType":5126,
			"count":168,
			"type":"VEC2"
		},
		{
			"bufferView":138,
			"componentType":5123,
			"count":168,
			"type":"SCALAR"
		},
		{
			"bufferView":139,
			"componentType":5126,
			"count":354,
			"max":[
				0.6804669499397278,
				1.5175399780273438,
				7.133760929107666
			],
			"min":[
				-0.6804659962654114,
				1.187056064605713,
				-7.143208980560303
			],
			"type":"VEC3"
		},
		{
			"bufferView":140,
			"componentType":5126,
			"count":354,
			"type":"VEC3"
		},
		{
			"bufferView":141,
			"componentType":5126,
			"count":354,
			"type":"VEC2"
		},
		{
			"bufferView":142,
			"componentType":5123,
			"count":354,
			"type":"SCALAR"
		},
		{
			"bufferView":143,
			"componentType":5126,
			"count":561,
			"max":[
				1.400681972503662,
				4.872683048248291,
				10.734602928161621
			],
			"min":[
				0.6661980152130127,
				4.396477222442627,
				8.925498008728027
			],
			"type":"VEC3"
		},
		{
			"bufferView":144,
			"componentType":5126,
			"count":561,
			"type":"VEC3"
		},
		{
			"bufferView":145,
			"componentType":5126,
			"count":561,
			"type":"VEC2"
		},
		{
			"bufferView":146,
			"componentType":5123,
			"count":561,
			"type":"SCALAR"
		},
		{
			"bufferView":147,
			"componentType":5126,
			"count":516,
			"max":[
				-0.9280149936676025,
				1.476269006729126,
				3.6740429401397705
			],
			"min":[
				-1.4400620460510254,
				0.9201740026473999,
				3.0206940174102783
			],
			"type":"VEC3"
		},
		{
			"bufferView":148,
			"componentType":5126,
			"count":516,
			"type":"VEC3"
		},
		{
			"bufferView":149,
			"componentType":5126,
			"count":516,
			"type":"VEC2"
		},
		{
			"bufferView":150,
			"componentType":5123,
			"count":516,
			"type":"SCALAR"
		},
		{
			"bufferView":151,
			"componentType":5126,
			"count":24,
			"max":[
				1.3692959547042847,
				1.4482041597366333,
				6.017881870269775
			],
			"min":[
				0.834443986415863,
				0.6926159858703613,
				5.029397487640381
			],
			"type":"VEC3"
		},
		{
			"bufferView":152,
			"componentType":5126,
			"count":24,
			"type":"VEC3"
		},
		{
			"bufferView":153,
			"componentType":5126,
			"count":24,
			"type":"VEC2"
		},
		{
			"bufferView":154,
			"componentType":5126,
			"count":72,
			"max":[
				1.361452579498291,
				1.4475598335266113,
				4.5115647315979
			],
			"min":[
				0.7927274107933044,
				0.7353065609931946,
				3.369551658630371
			],
			"type":"VEC3"
		},
		{
			"bufferView":155,
			"componentType":5126,
			"count":72,
			"type":"VEC3"
		},
		{
			"bufferView":156,
			"componentType":5126,
			"count":72,
			"type":"VEC2"
		},
		{
			"bufferView":157,
			"componentType":5126,
			"count":744,
			"max":[
				-0.795212984085083,
				1.5072461366653442,
				6.782619953155518
			],
			"min":[
				-1.4192670583724976,
				0.6919142007827759,
				3.9631919860839844
			],
			"type":"VEC3"
		},
		{
			"bufferView":158,
			"componentType":5126,
			"count":744,
			"type":"VEC3"
		},
		{
			"bufferView":159,
			"componentType":5126,
			"count":744,
			"type":"VEC2"
		},
		{
			"bufferView":160,
			"componentType":5123,
			"count":744,
			"type":"SCALAR"
		},
		{
			"bufferView":161,
			"componentType":5126,
			"count":696,
			"max":[
				1.419619083404541,
				2.1247599124908447,
				12.427102088928223
			],
			"min":[
				-1.4196245670318604,
				1.8553400039672852,
				-12.427080154418945
			],
			"type":"VEC3"
		},
		{
			"bufferView":162,
			"componentType":5126,
			"count":696,
			"type":"VEC3"
		},
		{
			"bufferView":163,
			"componentType":5126,
			"count":696,
			"type":"VEC2"
		},
		{
			"bufferView":164,
			"componentType":5123,
			"count":696,
			"type":"SCALAR"
		}
	],
	"bufferViews":[
		{
			"buffer":0,
			"byteLength":9072,
			"byteOffset":0,
			"target":34962
		},
		{
			"buffer":0,
			"byteLength":9072,
			"byteOffset":9072,
			"target":34962
		},
		{
			"buffer":0,
			"byteLength":6048,
			"byteOffset":18144,
			"target":34962
		},
		{
			"buffer":0,
			"byteLength":1512,
			"byteOffset":24192,
			"target":34963
		},
		{
			"buffer":0,
			"byteLength":20088,
			"byteOffset":25704,
			"target":34962
		},
		{
			"buffer":0,
			"byteLength":20088,
			"byteOffset":45792,
			"target":34962
		},
		{
			"buffer":0,
			"byteLength":13392,
			"byteOffset":65880,
			"target":34962
		},
		{
			"buffer":0,
			"byteLength":3348,
			"byteOffset":79272,
			"target":34963
		},
		{
			"buffer":0,
			"byteLength":288,
			"byteOffset":82620,
			"target":34962
		},
		{
			"buffer":0,
			"byteLength":288,
			"byteOffset":82908,
			"target":34962
		},
		{
			"buffer":0,
			"byteLength":192,
			"byteOffset":83196,
			"target":34962
		},
		{
			"buffer":0,
			"byteLength":48,
			"byteOffset":83388,
			"target":34963
		},
		{
			"buffer":0,
			"byteLength":11772,
			"byteOffset":83436,
			"target":34962
		},
		{
			"buffer":0,
			"byteLength":11772,
			"byteOffset":95208,
			"target":34962
		},
		{
			"buffer":0,
			"byteLength":7848,
			"byteOffset":106980,
			"target":34962
		},
		{
			"buffer":0,
			"byteLength":1962,
			"byteOffset":114828,
			"target":34963
		},
		{
			"buffer":0,
			"byteLength":165168,
			"byteOffset":116792,
			"target":34962
		},
		{
			"buffer":0,
			"byteLength":165168,
			"byteOffset":281960,
			"target":34962
		},
		{
			"buffer":0,
			"byteLength":110112,
			"byteOffset":447128,
			"target":34962
		},
		{
			"buffer":0,
			"byteLength":27528,
			"byteOffset":557240,
			"target":34963
		},
		{
			"buffer":0,
			"byteLength":8784,
			"byteOffset":584768,
			"target":34962
		},
		{
			"buffer":0,
			"byteLength":8784,
			"byteOffset":593552,
			"target":34962
		},
		{
			"buffer":0,
			"byteLength":5856,
			"byteOffset":602336,
			"target":34962
		},
		{
			"buffer":0,
			"byteLength":1464,
			"byteOffset":608192,
			"target":34963
		},
		{
			"buffer":0,
			"byteLength":10800,
			"byteOffset":609656,
			"target":34962
		},
		{
			"buffer":0,
			"byteLength":10800,
			"byteOffset":620456,
			"target":34962
		},
		{
			"buffer":0,
			"byteLength":7200,
			"byteOffset":631256,
			"target":34962
		},
		{
			"buffer":0,
			"byteLength":1800,
			"byteOffset":638456,
			"target":34963
		},
		{
			"buffer":0,
			"byteLength":158976,
			"byteOffset":640256,
			"target":34962
		},
		{
			"buffer":0,
			"byteLength":158976,
			"byteOffset":799232,
			"target":34962
		},
		{
			"buffer":0,
			"byteLength":105984,
			"byteOffset":958208,
			"target":34962
		},
		{
			"buffer":0,
			"byteLength":26496,
			"byteOffset":1064192,
			"target":34963
		},
		{
			"buffer":0,
			"byteLength":8784,
			"byteOffset":1090688,
			"target":34962
		},
		{
			"buffer":0,
			"byteLength":8784,
			"byteOffset":1099472,
			"target":34962
		},
		{
			"buffer":0,
			"byteLength":5856,
			"byteOffset":1108256,
			"target":34962
		},
		{
			"buffer":0,
			"byteLength":8784,
			"byteOffset":1114112,
			"target":34962
		},
		{
			"buffer":0,
			"byteLength":8784,
			"byteOffset":1122896,
			"target":34962
		},
		{
			"buffer":0,
			"byteLength":5856,
			"byteOffset":1131680,
			"target":34962
		},
		{
			"buffer":0,
			"byteLength":15048,
			"byteOffset":1137536,
			"target":34962
		},
		{
			"buffer":0,
			"byteLength":15048,
			"byteOffset":1152584,
			"target":34962
		},
		{
			"buffer":0,
			"byteLength":10032,
			"byteOffset":1167632,
			"target":34962
		},
		{
			"buffer":0,
			"byteLength":2508,
			"byteOffset":1177664,
			"target":34963
		},
		{
			"buffer":0,
			"byteLength":2160,
			"byteOffset":1180172,
			"target":34962
		},
		{
			"buffer":0,
			"byteLength":2160,
			"byteOffset":1182332,
			"target":34962
		},
		{
			"buffer":0,
			"byteLength":1440,
			"byteOffset":1184492,
			"target":34962
		},
		{
			"buffer":0,
			"byteLength":360,
			"byteOffset":1185932,
			"target":34963
		},
		{
			"buffer":0,
			"byteLength":2736,
			"byteOffset":1186292,
			"target":34962
		},
		{
			"buffer":0,
			"byteLength":2736,
			"byteOffset":1189028,
			"target":34962
		},
		{
			"buffer":0,
			"byteLength":1824,
			"byteOffset":1191764,
			"target":34962
		},
		{
			"buffer":0,
			"byteLength":456,
			"byteOffset":1193588,
			"target":34963
		},
		{
			"buffer":0,
			"byteLength":27072,
			"byteOffset":1194044,
			"target":34962
		},
		{
			"buffer":0,
			"byteLength":27072,
			"byteOffset":1221116,
			"target":34962
		},
		{
			"buffer":0,
			"byteLength":18048,
			"byteOffset":1248188,
			"target":34962
		},
		{
			"buffer":0,
			"byteLength":4512,
			"byteOffset":1266236,
			"target":34963
		},
		{
			"buffer":0,
			"byteLength":3024,
			"byteOffset":1270748,
			"target":34962
		},
		{
			"buffer":0,
			"byteLength":3024,
			"byteOffset":1273772,
			"target":34962
		},
		{
			"buffer":0,
			"byteLength":2016,
			"byteOffset":1276796,
			"target":34962
		},
		{
			"buffer":0,
			"byteLength":504,
			"byteOffset":1278812,
			"target":34963
		},
		{
			"buffer":0,
			"byteLength":864,
			"byteOffset":1279316,
			"target":34962
		},
		{
			"buffer":0,
			"byteLength":864,
			"byteOffset":1280180,
			"target":34962
		},
		{
			"buffer":0,
			"byteLength":576,
			"byteOffset":1281044,
			"target":34962
		},
		{
			"buffer":0,
			"byteLength":144,
			"byteOffset":1281620,
			"target":34963
		},
		{
			"buffer":0,
			"byteLength":144,
			"byteOffset":1281764,
			"target":34962
		},
		{
			"buffer":0,
			"byteLength":144,
			"byteOffset":1281908,
			"target":34962
		},
		{
			"buffer":0,
			"byteLength":96,
			"byteOffset":1282052,
			"target":34962
		},
		{
			"buffer":0,
			"byteLength":24,
			"byteOffset":1282148,
			"target":34963
		},
		{
			"buffer":0,
			"byteLength":3456,
			"byteOffset":1282172,
			"target":34962
		},
		{
			"buffer":0,
			"byteLength":3456,
			"byteOffset":1285628,
			"target":34962
		},
		{
			"buffer":0,
			"byteLength":2304,
			"byteOffset":1289084,
			"target":34962
		},
		{
			"buffer":0,
			"byteLength":576,
			"byteOffset":1291388,
			"target":34963
		},
		{
			"buffer":0,
			"byteLength":7632,
			"byteOffset":1291964,
			"target":34962
		},
		{
			"buffer":0,
			"byteLength":7632,
			"byteOffset":1299596,
			"target":34962
		},
		{
			"buffer":0,
			"byteLength":5088,
			"byteOffset":1307228,
			"target":34962
		},
		{
			"buffer":0,
			"byteLength":1272,
			"byteOffset":1312316,
			"target":34963
		},
		{
			"buffer":0,
			"byteLength":7632,
			"byteOffset":1313588,
			"target":34962
		},
		{
			"buffer":0,
			"byteLength":7632,
			"byteOffset":1321220,
			"target":34962
		},
		{
			"buffer":0,
			"byteLength":5088,
			"byteOffset":1328852,
			"target":34962
		},
		{
			"buffer":0,
			"byteLength":12240,
			"byteOffset":1333940,
			"target":34962
		},
		{
			"buffer":0,
			"byteLength":12240,
			"byteOffset":1346180,
			"target":34962
		},
		{
			"buffer":0,
			"byteLength":8160,
			"byteOffset":1358420,
			"target":34962
		},
		{
			"buffer":0,
			"byteLength":2040,
			"byteOffset":1366580,
			"target":34963
		},
		{
			"buffer":0,
			"byteLength":30348,
			"byteOffset":1368620,
			"target":34962
		},
		{
			"buffer":0,
			"byteLength":30348,
			"byteOffset":1398968,
			"target":34962
		},
		{
			"buffer":0,
			"byteLength":20232,
			"byteOffset":1429316,
			"target":34962
		},
		{
			"buffer":0,
			"byteLength":5058,
			"byteOffset":1449548,
			"target":34963
		},
		{
			"buffer":0,
			"byteLength":3456,
			"byteOffset":1454608,
			"target":34962
		},
		{
			"buffer":0,
			"byteLength":3456,
			"byteOffset":1458064,
			"target":34962
		},
		{
			"buffer":0,
			"byteLength":2304,
			"byteOffset":1461520,
			"target":34962
		},
		{
			"buffer":0,
			"byteLength":3672,
			"byteOffset":1463824,
			"target":34962
		},
		{
			"buffer":0,
			"byteLength":3672,
			"byteOffset":1467496,
			"target":34962
		},
		{
			"buffer":0,
			"byteLength":2448,
			"byteOffset":1471168,
			"target":34962
		},
		{
			"buffer":0,
			"byteLength":612,
			"byteOffset":1473616,
			"target":34963
		},
		{
			"buffer":0,
			"byteLength":3672,
			"byteOffset":1474228,
			"target":34962
		},
		{
			"buffer":0,
			"byteLength":3672,
			"byteOffset":1477900,
			"target":34962
		},
		{
			"buffer":0,
			"byteLength":2448,
			"byteOffset":1481572,
			"target":34962
		},
		{
			"buffer":0,
			"byteLength":6336,
			"byteOffset":1484020,
			"target":34962
		},
		{
			"buffer":0,
			"byteLength":6336,
			"byteOffset":1490356,
			"target":34962
		},
		{
			"buffer":0,
			"byteLength":4224,
			"byteOffset":1496692,
			"target":34962
		},
		{
			"buffer":0,
			"byteLength":1056,
			"byteOffset":1500916,
			"target":34963
		},
		{
			"buffer":0,
			"byteLength":288,
			"byteOffset":1501972,
			"target":34962
		},
		{
			"buffer":0,
			"byteLength":288,
			"byteOffset":1502260,
			"target":34962
		},
		{
			"buffer":0,
			"byteLength":192,
			"byteOffset":1502548,
			"target":34962
		},
		{
			"buffer":0,
			"byteLength":24192,
			"byteOffset":1502740,
			"target":34962
		},
		{
			"buffer":0,
			"byteLength":24192,
			"byteOffset":1526932,
			"target":34962
		},
		{
			"buffer":0,
			"byteLength":16128,
			"byteOffset":1551124,
			"target":34962
		},
		{
			"buffer":0,
			"byteLength":4032,
			"byteOffset":1567252,
			"target":34963
		},
		{
			"buffer":0,
			"byteLength":3024,
			"byteOffset":1571284,
			"target":34962
		},
		{
			"buffer":0,
			"byteLength":3024,
			"byteOffset":1574308,
			"target":34962
		},
		{
			"buffer":0,
			"byteLength":2016,
			"byteOffset":1577332,
			"target":34962
		},
		{
			"buffer":0,
			"byteLength":2592,
			"byteOffset":1579348,
			"target":34962
		},
		{
			"buffer":0,
			"byteLength":2592,
			"byteOffset":1581940,
			"target":34962
		},
		{
			"buffer":0,
			"byteLength":1728,
			"byteOffset":1584532,
			"target":34962
		},
		{
			"buffer":0,
			"byteLength":432,
			"byteOffset":1586260,
			"target":34963
		},
		{
			"buffer":0,
			"byteLength":9432,
			"byteOffset":1586692,
			"target":34962
		},
		{
			"buffer":0,
			"byteLength":9432,
			"byteOffset":1596124,
			"target":34962
		},
		{
			"buffer":0,
			"byteLength":6288,
			"byteOffset":1605556,
			"target":34962
		},
		{
			"buffer":0,
			"byteLength":1572,
			"byteOffset":1611844,
			"target":34963
		},
		{
			"buffer":0,
			"byteLength":4896,
			"byteOffset":1613416,
			"target":34962
		},
		{
			"buffer":0,
			"byteLength":4896,
			"byteOffset":1618312,
			"target":34962
		},
		{
			"buffer":0,
			"byteLength":3264,
			"byteOffset":1623208,
			"target":34962
		},
		{
			"buffer":0,
			"byteLength":816,
			"byteOffset":1626472,
			"target":34963
		},
		{
			"buffer":0,
			"byteLength":6696,
			"byteOffset":1627288,
			"target":34962
		},
		{
			"buffer":0,
			"byteLength":6696,
			"byteOffset":1633984,
			"target":34962
		},
		{
			"buffer":0,
			"byteLength":4464,
			"byteOffset":1640680,
			"target":34962
		},
		{
			"buffer":0,
			"byteLength":1116,
			"byteOffset":1645144,
			"target":34963
		},
		{
			"buffer":0,
			"byteLength":7272,
			"byteOffset":1646260,
			"target":34962
		},
		{
			"buffer":0,
			"byteLength":7272,
			"byteOffset":1653532,
			"target":34962
		},
		{
			"buffer":0,
			"byteLength":4848,
			"byteOffset":1660804,
			"target":34962
		},
		{
			"buffer":0,
			"byteLength":1212,
			"byteOffset":1665652,
			"target":34963
		},
		{
			"buffer":0,
			"byteLength":7272,
			"byteOffset":1666864,
			"target":34962
		},
		{
			"buffer":0,
			"byteLength":7272,
			"byteOffset":1674136,
			"target":34962
		},
		{
			"buffer":0,
			"byteLength":4848,
			"byteOffset":1681408,
			"target":34962
		},
		{
			"buffer":0,
			"byteLength":9072,
			"byteOffset":1686256,
			"target":34962
		},
		{
			"buffer":0,
			"byteLength":9072,
			"byteOffset":1695328,
			"target":34962
		},
		{
			"buffer":0,
			"byteLength":6048,
			"byteOffset":1704400,
			"target":34962
		},
		{
			"buffer":0,
			"byteLength":2016,
			"byteOffset":1710448,
			"target":34962
		},
		{
			"buffer":0,
			"byteLength":2016,
			"byteOffset":1712464,
			"target":34962
		},
		{
			"buffer":0,
			"byteLength":1344,
			"byteOffset":1714480,
			"target":34962
		},
		{
			"buffer":0,
			"byteLength":336,
			"byteOffset":1715824,
			"target":34963
		},
		{
			"buffer":0,
			"byteLength":4248,
			"byteOffset":1716160,
			"target":34962
		},
		{
			"buffer":0,
			"byteLength":4248,
			"byteOffset":1720408,
			"target":34962
		},
		{
			"buffer":0,
			"byteLength":2832,
			"byteOffset":1724656,
			"target":34962
		},
		{
			"buffer":0,
			"byteLength":708,
			"byteOffset":1727488,
			"target":34963
		},
		{
			"buffer":0,
			"byteLength":6732,
			"byteOffset":1728196,
			"target":34962
		},
		{
			"buffer":0,
			"byteLength":6732,
			"byteOffset":1734928,
			"target":34962
		},
		{
			"buffer":0,
			"byteLength":4488,
			"byteOffset":1741660,
			"target":34962
		},
		{
			"buffer":0,
			"byteLength":1122,
			"byteOffset":1746148,
			"target":34963
		},
		{
			"buffer":0,
			"byteLength":6192,
			"byteOffset":1747272,
			"target":34962
		},
		{
			"buffer":0,
			"byteLength":6192,
			"byteOffset":1753464,
			"target":34962
		},
		{
			"buffer":0,
			"byteLength":4128,
			"byteOffset":1759656,
			"target":34962
		},
		{
			"buffer":0,
			"byteLength":1032,
			"byteOffset":1763784,
			"target":34963
		},
		{
			"buffer":0,
			"byteLength":288,
			"byteOffset":1764816,
			"target":34962
		},
		{
			"buffer":0,
			"byteLength":288,
			"byteOffset":1765104,
			"target":34962
		},
		{
			"buffer":0,
			"byteLength":192,
			"byteOffset":1765392,
			"target":34962
		},
		{
			"buffer":0,
			"byteLength":864,
			"byteOffset":1765584,
			"target":34962
		},
		{
			"buffer":0,
			"byteLength":864,
			"byteOffset":1766448,
			"target":34962
		},
		{
			"buffer":0,
			"byteLength":576,
			"byteOffset":1767312,
			"target":34962
		},
		{
			"buffer":0,
			"byteLength":8928,
			"byteOffset":1767888,
			"target":34962
		},
		{
			"buffer":0,
			"byteLength":8928,
			"byteOffset":1776816,
			"target":34962
		},
		{
			"buffer":0,
			"byteLength":5952,
			"byteOffset":1785744,
			"target":34962
		},
		{
			"buffer":0,
			"byteLength":1488,
			"byteOffset":1791696,
			"target":34963
		},
		{
			"buffer":0,
			"byteLength":8352,
			"byteOffset":1793184,
			"target":34962
		},
		{
			"buffer":0,
			"byteLength":8352,
			"byteOffset":1801536,
			"target":34962
		},
		{
			"buffer":0,
			"byteLength":5568,
			"byteOffset":1809888,
			"target":34962
		},
		{
			"buffer":0,
			"byteLength":1392,
			"byteOffset":1815456,
			"target":34963
		}
	],
	"samplers":[
		{
			"magFilter":9729,
			"minFilter":9987
		}
	],
	"buffers":[
		{
			"byteLength":1816848,
			"uri":"Pass_CupAmm4.bin"
		}
	]
}
