{
	"asset":{
		"generator":"Khronos glTF Blender I/O v4.4.56",
		"version":"2.0"
	},
	"extensionsUsed":[
		"KHR_materials_specular"
	],
	"scene":0,
	"scenes":[
		{
			"name":"Scene",
			"nodes":[
				0
			]
		}
	],
	"nodes":[
		{
			"mesh":0,
			"name":"Windows"
		}
	],
	"materials":[
		{
			"doubleSided":true,
			"emissiveTexture":{
				"index":0
			},
			"extensions":{
				"KHR_materials_specular":{
					"specularFactor":0
				}
			},
			"name":"Material_pass_13819_two_sided",
			"pbrMetallicRoughness":{
				"baseColorTexture":{
					"index":1
				},
				"roughnessFactor":0.75
			}
		}
	],
	"meshes":[
		{
			"name":"Body.002",
			"primitives":[
				{
					"attributes":{
						"POSITION":0,
						"NORMAL":1,
						"TEXCOORD_0":2
					},
					"indices":3,
					"material":0
				}
			]
		}
	],
	"textures":[
		{
			"sampler":0,
			"source":0
		},
		{
			"sampler":0,
			"source":1
		}
	],
	"images":[
		{
			"mimeType":"image/png",
			"name":"pass_rzd-13819_emis",
			"uri":"T_pass_rzd-13819/pass_rzd-13819_emis.png"
		},
		{
			"mimeType":"image/png",
			"name":"pass_rzd-13819",
			"uri":"T_pass_rzd-13819/pass_rzd-13819.png"
		}
	],
	"accessors":[
		{
			"bufferView":0,
			"componentType":5126,
			"count":446,
			"max":[
				1.5320321321487427,
				3.445460796356201,
				10.684545516967773
			],
			"min":[
				-1.532006859779358,
				2.5256447792053223,
				-10.683168411254883
			],
			"type":"VEC3"
		},
		{
			"bufferView":1,
			"componentType":5126,
			"count":446,
			"type":"VEC3"
		},
		{
			"bufferView":2,
			"componentType":5126,
			"count":446,
			"type":"VEC2"
		},
		{
			"bufferView":3,
			"componentType":5123,
			"count":1188,
			"type":"SCALAR"
		}
	],
	"bufferViews":[
		{
			"buffer":0,
			"byteLength":5352,
			"byteOffset":0,
			"target":34962
		},
		{
			"buffer":0,
			"byteLength":5352,
			"byteOffset":5352,
			"target":34962
		},
		{
			"buffer":0,
			"byteLength":3568,
			"byteOffset":10704,
			"target":34962
		},
		{
			"buffer":0,
			"byteLength":2376,
			"byteOffset":14272,
			"target":34963
		}
	],
	"samplers":[
		{
			"magFilter":9729,
			"minFilter":9987
		}
	],
	"buffers":[
		{
			"byteLength":16648,
			"uri":"Pass_CupAmm1_windows.bin"
		}
	]
}
