{
	"asset":{
		"generator":"Khronos glTF Blender I/O v4.4.56",
		"version":"2.0"
	},
	"extensionsUsed":[
		"KHR_materials_specular"
	],
	"scene":0,
	"scenes":[
		{
			"name":"Scene",
			"nodes":[
				0,
				1,
				2,
				3,
				4,
				5,
				6,
				7,
				8,
				9,
				10,
				11,
				12,
				13,
				14,
				15,
				16,
				17,
				18,
				19,
				20,
				21,
				22,
				23,
				24,
				25,
				26,
				27,
				28,
				29,
				30,
				31,
				32,
				33,
				34,
				35,
				36,
				37,
				38,
				39,
				40,
				41,
				42,
				43,
				44,
				45,
				46,
				47,
				48,
				49,
				50,
				51,
				52,
				53,
				54,
				55,
				56,
				57,
				58,
				59,
				60,
				61,
				62,
				63,
				64,
				65,
				66,
				67,
				68
			]
		}
	],
	"nodes":[
		{
			"mesh":0,
			"name":"BOTTOM_YELLOW_Lens"
		},
		{
			"mesh":1,
			"name":"Scene Root_Box02_Box02-GEODE_TransNorm1_0"
		},
		{
			"mesh":2,
			"name":"Scene Root_Box03_Box03-GEODE_TransNorm1_0"
		},
		{
			"mesh":3,
			"name":"Scene Root_Box04_Box04-GEODE_TransNorm1_0"
		},
		{
			"mesh":4,
			"name":"Scene Root_Box05_Box05-GEODE_TransNorm1_0"
		},
		{
			"mesh":5,
			"name":"Scene Root_Box07_Box07-GEODE_TransNorm1_0"
		},
		{
			"mesh":6,
			"name":"Scene Root_Box09_Box09-GEODE_TransNorm1_0"
		},
		{
			"mesh":7,
			"name":"Scene Root_Box10_Box10-GEODE_TransNorm1_0"
		},
		{
			"mesh":8,
			"name":"Scene Root_Box11_Box11-GEODE_TransNorm1_0"
		},
		{
			"mesh":9,
			"name":"Scene Root_Box12_Box12-GEODE_TransNorm1_0"
		},
		{
			"mesh":10,
			"name":"Scene Root_Box17_Box17-GEODE_TransNorm1_0"
		},
		{
			"mesh":11,
			"name":"Scene Root_Box18_Box18-GEODE_TransNorm1_0"
		},
		{
			"mesh":12,
			"name":"Scene Root_Box19_Box19-GEODE_TransNorm1_0"
		},
		{
			"mesh":13,
			"name":"Scene Root_Box20_Box20-GEODE_TransNorm1_0"
		},
		{
			"mesh":14,
			"name":"Scene Root_Box21_Box21-GEODE_TransNorm1_0"
		},
		{
			"mesh":15,
			"name":"Scene Root_Cylinder01_Cylinder01-GEODE_TransNorm1_0"
		},
		{
			"mesh":16,
			"name":"Scene Root_Cylinder02_Cylinder02-OFFSET_Cylinder02-GEODE_TransN"
		},
		{
			"mesh":17,
			"name":"Scene Root_Cylinder03_Cylinder03-OFFSET_Cylinder03-GEODE_TransN"
		},
		{
			"mesh":18,
			"name":"Scene Root_Cylinder05_Cylinder05-OFFSET_Cylinder05-GEODE_TransN"
		},
		{
			"mesh":19,
			"name":"Scene Root_Cylinder06_Cylinder06-GEODE_TransNorm1_0"
		},
		{
			"mesh":20,
			"name":"Scene Root_Cylinder07_Cylinder07-OFFSET_Cylinder07-GEODE_TransN"
		},
		{
			"mesh":21,
			"name":"Scene Root_Cylinder08_Cylinder08-OFFSET_Cylinder08-GEODE_TransN"
		},
		{
			"mesh":22,
			"name":"Scene Root_Cylinder11_Cylinder11-GEODE_TransNorm1_0"
		},
		{
			"mesh":23,
			"name":"Scene Root_Cylinder12_Cylinder12-GEODE_TransNorm1_0"
		},
		{
			"mesh":24,
			"name":"Scene Root_Cylinder13_Cylinder13-GEODE_TransNorm1_0"
		},
		{
			"mesh":25,
			"name":"Scene Root_Cylinder14_Cylinder14-GEODE_TransNorm1_0"
		},
		{
			"mesh":26,
			"name":"Scene Root_Cylinder15_Cylinder15-GEODE_TransNorm1_0"
		},
		{
			"mesh":27,
			"name":"Scene Root_Cylinder17_Cylinder17-OFFSET_Cylinder17-GEODE_TransN"
		},
		{
			"mesh":28,
			"name":"Scene Root_Cylinder19_Cylinder19-OFFSET_Cylinder19-GEODE_TransN"
		},
		{
			"mesh":29,
			"name":"Scene Root_Cylinder20_Cylinder20-GEODE_TransNorm1_0"
		},
		{
			"mesh":30,
			"name":"Scene Root_Cylinder21_Cylinder21-OFFSET_Cylinder21-GEODE_TransN"
		},
		{
			"mesh":31,
			"name":"Scene Root_Cylinder22_Cylinder22-OFFSET_Cylinder22-GEODE_TransN"
		},
		{
			"mesh":32,
			"name":"Scene Root_Cylinder23_Cylinder23-GEODE_TransNorm1_0"
		},
		{
			"mesh":33,
			"name":"GREEN_Lens"
		},
		{
			"mesh":34,
			"name":"Scene Root_Object01_Object01-OFFSET_Object01-GEODE_TransNorm1_0"
		},
		{
			"mesh":35,
			"name":"Scene Root_Object02_Object02-GEODE_TransNorm1_0"
		},
		{
			"mesh":36,
			"name":"Scene Root_Object03_Object03-GEODE_TransNorm1_0"
		},
		{
			"mesh":37,
			"name":"Scene Root_Object04_Object04-GEODE_TransNorm1_0"
		},
		{
			"mesh":38,
			"name":"Scene Root_Object05_Object05-OFFSET_Object05-GEODE_TransNorm1_0"
		},
		{
			"mesh":39,
			"name":"RED_Lens"
		},
		{
			"mesh":40,
			"name":"Scene Root_Signal_Signal-OFFSET_Signal-GEODE_TransNorm1_0"
		},
		{
			"mesh":41,
			"name":"WHITE_Lens"
		},
		{
			"mesh":42,
			"name":"YELLOW_Lens"
		},
		{
			"mesh":43,
			"name":"Scene Root_\u0412\u0442\u043e\u0440\u0430\u044f \u0431\u043e\u0448\u043a\u0430_\u0412\u0442\u043e\u0440\u0430\u044f \u0431\u043e\u0448\u043a\u0430-OFFS"
		},
		{
			"mesh":44,
			"name":"Scene Root_\u0414\u0440\u043e\u0441\u0441\u0435\u043b\u044c1_\u0414\u0440\u043e\u0441\u0441\u0435\u043b\u044c1-GEODE_TransNorm1"
		},
		{
			"mesh":45,
			"name":"Scene Root_\u0414\u0440\u043e\u0441\u0441\u0435\u043b\u044c2_\u0414\u0440\u043e\u0441\u0441\u0435\u043b\u044c2-GEODE_TransNorm1"
		},
		{
			"mesh":46,
			"name":"Scene Root_\u041a\u0440\u043e\u043d\u0448\u0442\u0435\u0439\u043d \u043c\u0430\u043b\u0435\u043d\u043a\u043e\u0439 \u0431\u043e\u0448\u043a\u0438_\u041a\u0440"
		},
		{
			"mesh":47,
			"name":"Scene Root_\u0420\u0435\u043c\u0435\u043d\u044c01_\u0420\u0435\u043c\u0435\u043d\u044c01-GEODE_TransNorm1_0"
		},
		{
			"mesh":48,
			"name":"Scene Root_\u0420\u0435\u043c\u0435\u043d\u044c02_\u0420\u0435\u043c\u0435\u043d\u044c02-GEODE_TransNorm1_0"
		},
		{
			"mesh":49,
			"name":"Scene Root_\u0420\u0435\u043c\u0435\u043d\u044c03_\u0420\u0435\u043c\u0435\u043d\u044c03-GEODE_TransNorm1_0"
		},
		{
			"mesh":50,
			"name":"Scene Root_\u0420\u0435\u043c\u0435\u043d\u044c04_\u0420\u0435\u043c\u0435\u043d\u044c04-GEODE_TransNorm1_0"
		},
		{
			"mesh":51,
			"name":"Scene Root_\u0420\u0435\u043c\u0435\u043d\u044c05_\u0420\u0435\u043c\u0435\u043d\u044c05-GEODE_TransNorm1_0"
		},
		{
			"mesh":52,
			"name":"Scene Root_\u0420\u0435\u043c\u0435\u043d\u044c06_\u0420\u0435\u043c\u0435\u043d\u044c06-GEODE_TransNorm1_0"
		},
		{
			"mesh":53,
			"name":"Scene Root_\u0420\u0435\u043c\u0435\u043d\u044c07_\u0420\u0435\u043c\u0435\u043d\u044c07-GEODE_TransNorm1_0"
		},
		{
			"mesh":54,
			"name":"Scene Root_\u0420\u0435\u043c\u0435\u043d\u044c08_\u0420\u0435\u043c\u0435\u043d\u044c08-GEODE_TransNorm1_0"
		},
		{
			"mesh":55,
			"name":"Scene Root_\u0424\u043b\u0430\u0436\u043e\u043a_\u0424\u043b\u0430\u0436\u043e\u043a-GEODE_TransNorm1_0"
		},
		{
			"mesh":56,
			"name":"Scene Root_\u0429\u0438\u0442 \u0433\u043e\u043b\u043e\u0432\u043a\u043801_\u0429\u0438\u0442 \u0433\u043e\u043b\u043e\u0432\u043a\u043801-GEOD"
		},
		{
			"mesh":57,
			"name":"Scene Root_\u0429\u0438\u0442 \u0433\u043e\u043b\u043e\u0432\u043a\u043802_\u0429\u0438\u0442 \u0433\u043e\u043b\u043e\u0432\u043a\u043802-OFFS"
		},
		{
			"mesh":58,
			"name":"Scene Root_\u0429\u0438\u0442 \u0433\u043e\u043b\u043e\u0432\u043a\u043803_\u0429\u0438\u0442 \u0433\u043e\u043b\u043e\u0432\u043a\u043803-GEOD"
		},
		{
			"mesh":59,
			"name":"Scene Root_\u043a\u043e\u0437\u044b\u0440\u0451\u043a-01_\u043a\u043e\u0437\u044b\u0440\u0451\u043a-01-OFFSET_\u043a\u043e\u0437\u044b"
		},
		{
			"mesh":60,
			"name":"Scene Root_\u043a\u043e\u0437\u044b\u0440\u0451\u043a-04_\u043a\u043e\u0437\u044b\u0440\u0451\u043a-04-OFFSET_\u043a\u043e\u0437\u044b"
		},
		{
			"mesh":61,
			"name":"Scene Root_\u043a\u043e\u0437\u044b\u0440\u0451\u043a-05_\u043a\u043e\u0437\u044b\u0440\u0451\u043a-05-OFFSET_\u043a\u043e\u0437\u044b"
		},
		{
			"mesh":62,
			"name":"Scene Root_\u043a\u043e\u0437\u044b\u0440\u0451\u043a-06_\u043a\u043e\u0437\u044b\u0440\u0451\u043a-06-OFFSET_\u043a\u043e\u0437\u044b"
		},
		{
			"mesh":63,
			"name":"Scene Root_\u043a\u043e\u0437\u044b\u0440\u0451\u043a-07_\u043a\u043e\u0437\u044b\u0440\u0451\u043a-07-OFFSET_\u043a\u043e\u0437\u044b"
		},
		{
			"mesh":64,
			"name":"Scene Root_\u043b\u0435\u0441\u0442\u043d\u0438\u0446\u0430_\u043b\u0435\u0441\u0442\u043d\u0438\u0446\u0430-GEODE_TransNorm1_0"
		},
		{
			"mesh":65,
			"name":"Scene Root_\u043c\u043e\u0434\u0443\u043b\u044c \u043b\u0430\u043c\u043f-3_\u043c\u043e\u0434\u0443\u043b\u044c \u043b\u0430\u043c\u043f-3-OFFS"
		},
		{
			"mesh":66,
			"name":"Scene Root_\u043f\u0440\u043e\u0432\u043e\u0434-3_\u043f\u0440\u043e\u0432\u043e\u0434-3-GEODE_TransNorm1_0"
		},
		{
			"mesh":67,
			"name":"Scene Root_\u0440\u0435\u043b\u0435\u0439\u043d\u044b\u0439 \u044f\u0449\u0438\u043a2_\u0440\u0435\u043b\u0435\u0439\u043d\u044b\u0439 \u044f\u0449\u0438\u043a"
		},
		{
			"mesh":68,
			"name":"Scene Root_\u0440\u0435\u043b\u0435\u0439\u043d\u044b\u0439 \u044f\u0449\u0438\u043a_\u0440\u0435\u043b\u0435\u0439\u043d\u044b\u0439 \u044f\u0449\u0438\u043a-"
		}
	],
	"materials":[
		{
			"doubleSided":true,
			"emissiveTexture":{
				"index":0
			},
			"extensions":{
				"KHR_materials_specular":{
					"specularFactor":0
				}
			},
			"name":"material_1.001",
			"pbrMetallicRoughness":{
				"baseColorTexture":{
					"index":1
				},
				"metallicFactor":0
			}
		}
	],
	"meshes":[
		{
			"name":"Scene Root_BOTTOM_YELLOW_Lens_BOTTOM_YELLOW_Lens-OFFSET_BOT.002",
			"primitives":[
				{
					"attributes":{
						"POSITION":0,
						"NORMAL":1,
						"TEXCOORD_0":2
					},
					"indices":3,
					"material":0
				}
			]
		},
		{
			"name":"Scene Root_Box02_Box02-GEODE_TransNorm1_0.001",
			"primitives":[
				{
					"attributes":{
						"POSITION":4,
						"NORMAL":5,
						"TEXCOORD_0":6
					},
					"indices":7,
					"material":0
				}
			]
		},
		{
			"name":"Scene Root_Box03_Box03-GEODE_TransNorm1_0.001",
			"primitives":[
				{
					"attributes":{
						"POSITION":8,
						"NORMAL":9,
						"TEXCOORD_0":10
					},
					"indices":11,
					"material":0
				}
			]
		},
		{
			"name":"Scene Root_Box04_Box04-GEODE_TransNorm1_0.001",
			"primitives":[
				{
					"attributes":{
						"POSITION":12,
						"NORMAL":13,
						"TEXCOORD_0":14
					},
					"indices":15,
					"material":0
				}
			]
		},
		{
			"name":"Scene Root_Box05_Box05-GEODE_TransNorm1_0.001",
			"primitives":[
				{
					"attributes":{
						"POSITION":16,
						"NORMAL":17,
						"TEXCOORD_0":18
					},
					"indices":19,
					"material":0
				}
			]
		},
		{
			"name":"Scene Root_Box07_Box07-GEODE_TransNorm1_0.001",
			"primitives":[
				{
					"attributes":{
						"POSITION":20,
						"NORMAL":21,
						"TEXCOORD_0":22
					},
					"indices":23,
					"material":0
				}
			]
		},
		{
			"name":"Scene Root_Box09_Box09-GEODE_TransNorm1_0.001",
			"primitives":[
				{
					"attributes":{
						"POSITION":24,
						"NORMAL":25,
						"TEXCOORD_0":26
					},
					"indices":27,
					"material":0
				}
			]
		},
		{
			"name":"Scene Root_Box10_Box10-GEODE_TransNorm1_0.001",
			"primitives":[
				{
					"attributes":{
						"POSITION":28,
						"NORMAL":29,
						"TEXCOORD_0":30
					},
					"indices":23,
					"material":0
				}
			]
		},
		{
			"name":"Scene Root_Box11_Box11-GEODE_TransNorm1_0.001",
			"primitives":[
				{
					"attributes":{
						"POSITION":31,
						"NORMAL":32,
						"TEXCOORD_0":33
					},
					"indices":34,
					"material":0
				}
			]
		},
		{
			"name":"Scene Root_Box12_Box12-GEODE_TransNorm1_0.001",
			"primitives":[
				{
					"attributes":{
						"POSITION":35,
						"NORMAL":36,
						"TEXCOORD_0":37
					},
					"indices":3,
					"material":0
				}
			]
		},
		{
			"name":"Scene Root_Box17_Box17-GEODE_TransNorm1_0.001",
			"primitives":[
				{
					"attributes":{
						"POSITION":38,
						"NORMAL":39,
						"TEXCOORD_0":40
					},
					"indices":7,
					"material":0
				}
			]
		},
		{
			"name":"Scene Root_Box18_Box18-GEODE_TransNorm1_0.001",
			"primitives":[
				{
					"attributes":{
						"POSITION":41,
						"NORMAL":42,
						"TEXCOORD_0":43
					},
					"indices":15,
					"material":0
				}
			]
		},
		{
			"name":"Scene Root_Box19_Box19-GEODE_TransNorm1_0.001",
			"primitives":[
				{
					"attributes":{
						"POSITION":44,
						"NORMAL":45,
						"TEXCOORD_0":46
					},
					"indices":15,
					"material":0
				}
			]
		},
		{
			"name":"Scene Root_Box20_Box20-GEODE_TransNorm1_0.001",
			"primitives":[
				{
					"attributes":{
						"POSITION":47,
						"NORMAL":48,
						"TEXCOORD_0":49
					},
					"indices":11,
					"material":0
				}
			]
		},
		{
			"name":"Scene Root_Box21_Box21-GEODE_TransNorm1_0.001",
			"primitives":[
				{
					"attributes":{
						"POSITION":50,
						"NORMAL":51,
						"TEXCOORD_0":52
					},
					"indices":15,
					"material":0
				}
			]
		},
		{
			"name":"Scene Root_Cylinder01_Cylinder01-GEODE_TransNorm1_0.001",
			"primitives":[
				{
					"attributes":{
						"POSITION":53,
						"NORMAL":54,
						"TEXCOORD_0":55
					},
					"indices":56,
					"material":0
				}
			]
		},
		{
			"name":"Scene Root_Cylinder02_Cylinder02-OFFSET_Cylinder02-GEODE_Tr.002",
			"primitives":[
				{
					"attributes":{
						"POSITION":57,
						"NORMAL":58,
						"TEXCOORD_0":59
					},
					"indices":60,
					"material":0
				}
			]
		},
		{
			"name":"Scene Root_Cylinder03_Cylinder03-OFFSET_Cylinder03-GEODE_Tr.002",
			"primitives":[
				{
					"attributes":{
						"POSITION":61,
						"NORMAL":62,
						"TEXCOORD_0":63
					},
					"indices":64,
					"material":0
				}
			]
		},
		{
			"name":"Scene Root_Cylinder05_Cylinder05-OFFSET_Cylinder05-GEODE_Tr.002",
			"primitives":[
				{
					"attributes":{
						"POSITION":65,
						"NORMAL":66,
						"TEXCOORD_0":67
					},
					"indices":68,
					"material":0
				}
			]
		},
		{
			"name":"Scene Root_Cylinder06_Cylinder06-GEODE_TransNorm1_0.001",
			"primitives":[
				{
					"attributes":{
						"POSITION":69,
						"NORMAL":70,
						"TEXCOORD_0":71
					},
					"indices":19,
					"material":0
				}
			]
		},
		{
			"name":"Scene Root_Cylinder07_Cylinder07-OFFSET_Cylinder07-GEODE_Tr.002",
			"primitives":[
				{
					"attributes":{
						"POSITION":72,
						"NORMAL":73,
						"TEXCOORD_0":74
					},
					"indices":75,
					"material":0
				}
			]
		},
		{
			"name":"Scene Root_Cylinder08_Cylinder08-OFFSET_Cylinder08-GEODE_Tr.002",
			"primitives":[
				{
					"attributes":{
						"POSITION":76,
						"NORMAL":77,
						"TEXCOORD_0":78
					},
					"indices":15,
					"material":0
				}
			]
		},
		{
			"name":"Scene Root_Cylinder11_Cylinder11-GEODE_TransNorm1_0.001",
			"primitives":[
				{
					"attributes":{
						"POSITION":79,
						"NORMAL":80,
						"TEXCOORD_0":81
					},
					"indices":82,
					"material":0
				}
			]
		},
		{
			"name":"Scene Root_Cylinder12_Cylinder12-GEODE_TransNorm1_0.001",
			"primitives":[
				{
					"attributes":{
						"POSITION":83,
						"NORMAL":84,
						"TEXCOORD_0":85
					},
					"indices":11,
					"material":0
				}
			]
		},
		{
			"name":"Scene Root_Cylinder13_Cylinder13-GEODE_TransNorm1_0.001",
			"primitives":[
				{
					"attributes":{
						"POSITION":86,
						"NORMAL":87,
						"TEXCOORD_0":88
					},
					"indices":11,
					"material":0
				}
			]
		},
		{
			"name":"Scene Root_Cylinder14_Cylinder14-GEODE_TransNorm1_0.001",
			"primitives":[
				{
					"attributes":{
						"POSITION":89,
						"NORMAL":90,
						"TEXCOORD_0":91
					},
					"indices":11,
					"material":0
				}
			]
		},
		{
			"name":"Scene Root_Cylinder15_Cylinder15-GEODE_TransNorm1_0.001",
			"primitives":[
				{
					"attributes":{
						"POSITION":92,
						"NORMAL":93,
						"TEXCOORD_0":94
					},
					"indices":23,
					"material":0
				}
			]
		},
		{
			"name":"Scene Root_Cylinder17_Cylinder17-OFFSET_Cylinder17-GEODE_Tr.002",
			"primitives":[
				{
					"attributes":{
						"POSITION":95,
						"NORMAL":96,
						"TEXCOORD_0":97
					},
					"indices":64,
					"material":0
				}
			]
		},
		{
			"name":"Scene Root_Cylinder19_Cylinder19-OFFSET_Cylinder19-GEODE_Tr.002",
			"primitives":[
				{
					"attributes":{
						"POSITION":98,
						"NORMAL":99,
						"TEXCOORD_0":100
					},
					"indices":68,
					"material":0
				}
			]
		},
		{
			"name":"Scene Root_Cylinder20_Cylinder20-GEODE_TransNorm1_0.001",
			"primitives":[
				{
					"attributes":{
						"POSITION":101,
						"NORMAL":102,
						"TEXCOORD_0":103
					},
					"indices":19,
					"material":0
				}
			]
		},
		{
			"name":"Scene Root_Cylinder21_Cylinder21-OFFSET_Cylinder21-GEODE_Tr.002",
			"primitives":[
				{
					"attributes":{
						"POSITION":104,
						"NORMAL":105,
						"TEXCOORD_0":106
					},
					"indices":75,
					"material":0
				}
			]
		},
		{
			"name":"Scene Root_Cylinder22_Cylinder22-OFFSET_Cylinder22-GEODE_Tr.002",
			"primitives":[
				{
					"attributes":{
						"POSITION":107,
						"NORMAL":108,
						"TEXCOORD_0":109
					},
					"indices":15,
					"material":0
				}
			]
		},
		{
			"name":"Scene Root_Cylinder23_Cylinder23-GEODE_TransNorm1_0.001",
			"primitives":[
				{
					"attributes":{
						"POSITION":110,
						"NORMAL":111,
						"TEXCOORD_0":112
					},
					"indices":56,
					"material":0
				}
			]
		},
		{
			"name":"Scene Root_GREEN_Lens_GREEN_Lens-OFFSET_GREEN_Lens-GEODE_Tr.002",
			"primitives":[
				{
					"attributes":{
						"POSITION":113,
						"NORMAL":114,
						"TEXCOORD_0":115
					},
					"indices":3,
					"material":0
				}
			]
		},
		{
			"name":"Scene Root_Object01_Object01-OFFSET_Object01-GEODE_TransNor.002",
			"primitives":[
				{
					"attributes":{
						"POSITION":116,
						"NORMAL":117,
						"TEXCOORD_0":118
					},
					"indices":119,
					"material":0
				}
			]
		},
		{
			"name":"Scene Root_Object02_Object02-GEODE_TransNorm1_0.001",
			"primitives":[
				{
					"attributes":{
						"POSITION":120,
						"NORMAL":121,
						"TEXCOORD_0":122
					},
					"indices":123,
					"material":0
				}
			]
		},
		{
			"name":"Scene Root_Object03_Object03-GEODE_TransNorm1_0.001",
			"primitives":[
				{
					"attributes":{
						"POSITION":124,
						"NORMAL":125,
						"TEXCOORD_0":126
					},
					"indices":123,
					"material":0
				}
			]
		},
		{
			"name":"Scene Root_Object04_Object04-GEODE_TransNorm1_0.001",
			"primitives":[
				{
					"attributes":{
						"POSITION":127,
						"NORMAL":128,
						"TEXCOORD_0":129
					},
					"indices":123,
					"material":0
				}
			]
		},
		{
			"name":"Scene Root_Object05_Object05-OFFSET_Object05-GEODE_TransNor.002",
			"primitives":[
				{
					"attributes":{
						"POSITION":130,
						"NORMAL":131,
						"TEXCOORD_0":132
					},
					"indices":119,
					"material":0
				}
			]
		},
		{
			"name":"Scene Root_RED_Lens_RED_Lens-OFFSET_RED_Lens-GEODE_TransNor.002",
			"primitives":[
				{
					"attributes":{
						"POSITION":133,
						"NORMAL":134,
						"TEXCOORD_0":135
					},
					"indices":3,
					"material":0
				}
			]
		},
		{
			"name":"Scene Root_Signal_Signal-OFFSET_Signal-GEODE_TransNorm1_0.001",
			"primitives":[
				{
					"attributes":{
						"POSITION":136,
						"NORMAL":137,
						"TEXCOORD_0":138
					},
					"indices":139,
					"material":0
				}
			]
		},
		{
			"name":"Scene Root_WHITE_Lens_WHITE_Lens-OFFSET_WHITE_Lens-GEODE_Tr.002",
			"primitives":[
				{
					"attributes":{
						"POSITION":140,
						"NORMAL":141,
						"TEXCOORD_0":142
					},
					"indices":3,
					"material":0
				}
			]
		},
		{
			"name":"Scene Root_YELLOW_Lens_YELLOW_Lens-OFFSET_YELLOW_Lens-GEODE.002",
			"primitives":[
				{
					"attributes":{
						"POSITION":143,
						"NORMAL":144,
						"TEXCOORD_0":145
					},
					"indices":3,
					"material":0
				}
			]
		},
		{
			"name":"Scene Root_\u0412\u0442\u043e\u0440\u0430\u044f \u0431\u043e\u0448\u043a\u0430_\u0412\u0442\u043e\u0440\u0430\u044f \u0431\u043e\u0448\u043a\u0430-.002",
			"primitives":[
				{
					"attributes":{
						"POSITION":146,
						"NORMAL":147,
						"TEXCOORD_0":148
					},
					"indices":60,
					"material":0
				}
			]
		},
		{
			"name":"Scene Root_\u0414\u0440\u043e\u0441\u0441\u0435\u043b\u044c1_\u0414\u0440\u043e\u0441\u0441\u0435\u043b\u044c1-GEODE_TransN.002",
			"primitives":[
				{
					"attributes":{
						"POSITION":149,
						"NORMAL":150,
						"TEXCOORD_0":151
					},
					"indices":152,
					"material":0
				}
			]
		},
		{
			"name":"Scene Root_\u0414\u0440\u043e\u0441\u0441\u0435\u043b\u044c2_\u0414\u0440\u043e\u0441\u0441\u0435\u043b\u044c2-GEODE_TransN.002",
			"primitives":[
				{
					"attributes":{
						"POSITION":153,
						"NORMAL":154,
						"TEXCOORD_0":155
					},
					"indices":152,
					"material":0
				}
			]
		},
		{
			"name":"Scene Root_\u041a\u0440\u043e\u043d\u0448\u0442\u0435\u0439\u043d \u043c\u0430\u043b\u0435\u043d\u043a\u043e\u0439 \u0431\u043e\u0448\u043a\u0438_.002",
			"primitives":[
				{
					"attributes":{
						"POSITION":156,
						"NORMAL":157,
						"TEXCOORD_0":158
					},
					"indices":159,
					"material":0
				}
			]
		},
		{
			"name":"Scene Root_\u0420\u0435\u043c\u0435\u043d\u044c01_\u0420\u0435\u043c\u0435\u043d\u044c01-GEODE_TransNorm1_0.001",
			"primitives":[
				{
					"attributes":{
						"POSITION":160,
						"NORMAL":161,
						"TEXCOORD_0":162
					},
					"indices":163,
					"material":0
				}
			]
		},
		{
			"name":"Scene Root_\u0420\u0435\u043c\u0435\u043d\u044c02_\u0420\u0435\u043c\u0435\u043d\u044c02-GEODE_TransNorm1_0.001",
			"primitives":[
				{
					"attributes":{
						"POSITION":164,
						"NORMAL":165,
						"TEXCOORD_0":166
					},
					"indices":163,
					"material":0
				}
			]
		},
		{
			"name":"Scene Root_\u0420\u0435\u043c\u0435\u043d\u044c03_\u0420\u0435\u043c\u0435\u043d\u044c03-GEODE_TransNorm1_0.001",
			"primitives":[
				{
					"attributes":{
						"POSITION":167,
						"NORMAL":168,
						"TEXCOORD_0":169
					},
					"indices":163,
					"material":0
				}
			]
		},
		{
			"name":"Scene Root_\u0420\u0435\u043c\u0435\u043d\u044c04_\u0420\u0435\u043c\u0435\u043d\u044c04-GEODE_TransNorm1_0.001",
			"primitives":[
				{
					"attributes":{
						"POSITION":170,
						"NORMAL":171,
						"TEXCOORD_0":172
					},
					"indices":163,
					"material":0
				}
			]
		},
		{
			"name":"Scene Root_\u0420\u0435\u043c\u0435\u043d\u044c05_\u0420\u0435\u043c\u0435\u043d\u044c05-GEODE_TransNorm1_0.001",
			"primitives":[
				{
					"attributes":{
						"POSITION":173,
						"NORMAL":174,
						"TEXCOORD_0":175
					},
					"indices":163,
					"material":0
				}
			]
		},
		{
			"name":"Scene Root_\u0420\u0435\u043c\u0435\u043d\u044c06_\u0420\u0435\u043c\u0435\u043d\u044c06-GEODE_TransNorm1_0.001",
			"primitives":[
				{
					"attributes":{
						"POSITION":176,
						"NORMAL":177,
						"TEXCOORD_0":178
					},
					"indices":163,
					"material":0
				}
			]
		},
		{
			"name":"Scene Root_\u0420\u0435\u043c\u0435\u043d\u044c07_\u0420\u0435\u043c\u0435\u043d\u044c07-GEODE_TransNorm1_0.001",
			"primitives":[
				{
					"attributes":{
						"POSITION":179,
						"NORMAL":180,
						"TEXCOORD_0":181
					},
					"indices":163,
					"material":0
				}
			]
		},
		{
			"name":"Scene Root_\u0420\u0435\u043c\u0435\u043d\u044c08_\u0420\u0435\u043c\u0435\u043d\u044c08-GEODE_TransNorm1_0.001",
			"primitives":[
				{
					"attributes":{
						"POSITION":182,
						"NORMAL":183,
						"TEXCOORD_0":184
					},
					"indices":163,
					"material":0
				}
			]
		},
		{
			"name":"Scene Root_\u0424\u043b\u0430\u0436\u043e\u043a_\u0424\u043b\u0430\u0436\u043e\u043a-GEODE_TransNorm1_0.001",
			"primitives":[
				{
					"attributes":{
						"POSITION":185,
						"NORMAL":186,
						"TEXCOORD_0":187
					},
					"indices":11,
					"material":0
				}
			]
		},
		{
			"name":"Scene Root_\u0429\u0438\u0442 \u0433\u043e\u043b\u043e\u0432\u043a\u043801_\u0429\u0438\u0442 \u0433\u043e\u043b\u043e\u0432\u043a\u043801-.002",
			"primitives":[
				{
					"attributes":{
						"POSITION":188,
						"NORMAL":189,
						"TEXCOORD_0":190
					},
					"indices":123,
					"material":0
				}
			]
		},
		{
			"name":"Scene Root_\u0429\u0438\u0442 \u0433\u043e\u043b\u043e\u0432\u043a\u043802_\u0429\u0438\u0442 \u0433\u043e\u043b\u043e\u0432\u043a\u043802-.002",
			"primitives":[
				{
					"attributes":{
						"POSITION":191,
						"NORMAL":192,
						"TEXCOORD_0":193
					},
					"indices":123,
					"material":0
				}
			]
		},
		{
			"name":"Scene Root_\u0429\u0438\u0442 \u0433\u043e\u043b\u043e\u0432\u043a\u043803_\u0429\u0438\u0442 \u0433\u043e\u043b\u043e\u0432\u043a\u043803-.002",
			"primitives":[
				{
					"attributes":{
						"POSITION":194,
						"NORMAL":195,
						"TEXCOORD_0":196
					},
					"indices":123,
					"material":0
				}
			]
		},
		{
			"name":"Scene Root_\u043a\u043e\u0437\u044b\u0440\u0451\u043a-01_\u043a\u043e\u0437\u044b\u0440\u0451\u043a-01-OFFSET_\u043a\u043e.002",
			"primitives":[
				{
					"attributes":{
						"POSITION":197,
						"NORMAL":198,
						"TEXCOORD_0":199
					},
					"indices":200,
					"material":0
				}
			]
		},
		{
			"name":"Scene Root_\u043a\u043e\u0437\u044b\u0440\u0451\u043a-04_\u043a\u043e\u0437\u044b\u0440\u0451\u043a-04-OFFSET_\u043a\u043e.002",
			"primitives":[
				{
					"attributes":{
						"POSITION":201,
						"NORMAL":202,
						"TEXCOORD_0":203
					},
					"indices":200,
					"material":0
				}
			]
		},
		{
			"name":"Scene Root_\u043a\u043e\u0437\u044b\u0440\u0451\u043a-05_\u043a\u043e\u0437\u044b\u0440\u0451\u043a-05-OFFSET_\u043a\u043e.002",
			"primitives":[
				{
					"attributes":{
						"POSITION":204,
						"NORMAL":205,
						"TEXCOORD_0":206
					},
					"indices":200,
					"material":0
				}
			]
		},
		{
			"name":"Scene Root_\u043a\u043e\u0437\u044b\u0440\u0451\u043a-06_\u043a\u043e\u0437\u044b\u0440\u0451\u043a-06-OFFSET_\u043a\u043e.002",
			"primitives":[
				{
					"attributes":{
						"POSITION":207,
						"NORMAL":208,
						"TEXCOORD_0":209
					},
					"indices":200,
					"material":0
				}
			]
		},
		{
			"name":"Scene Root_\u043a\u043e\u0437\u044b\u0440\u0451\u043a-07_\u043a\u043e\u0437\u044b\u0440\u0451\u043a-07-OFFSET_\u043a\u043e.002",
			"primitives":[
				{
					"attributes":{
						"POSITION":210,
						"NORMAL":211,
						"TEXCOORD_0":212
					},
					"indices":200,
					"material":0
				}
			]
		},
		{
			"name":"Scene Root_\u043b\u0435\u0441\u0442\u043d\u0438\u0446\u0430_\u043b\u0435\u0441\u0442\u043d\u0438\u0446\u0430-GEODE_TransNor.002",
			"primitives":[
				{
					"attributes":{
						"POSITION":213,
						"NORMAL":214,
						"TEXCOORD_0":215
					},
					"indices":216,
					"material":0
				}
			]
		},
		{
			"name":"Scene Root_\u043c\u043e\u0434\u0443\u043b\u044c \u043b\u0430\u043c\u043f-3_\u043c\u043e\u0434\u0443\u043b\u044c \u043b\u0430\u043c\u043f-3-.002",
			"primitives":[
				{
					"attributes":{
						"POSITION":217,
						"NORMAL":218,
						"TEXCOORD_0":219
					},
					"indices":60,
					"material":0
				}
			]
		},
		{
			"name":"Scene Root_\u043f\u0440\u043e\u0432\u043e\u0434-3_\u043f\u0440\u043e\u0432\u043e\u0434-3-GEODE_TransNorm1_0.001",
			"primitives":[
				{
					"attributes":{
						"POSITION":220,
						"NORMAL":221,
						"TEXCOORD_0":222
					},
					"indices":223,
					"material":0
				}
			]
		},
		{
			"name":"Scene Root_\u0440\u0435\u043b\u0435\u0439\u043d\u044b\u0439 \u044f\u0449\u0438\u043a2_\u0440\u0435\u043b\u0435\u0439\u043d\u044b\u0439 \u044f\u0449.002",
			"primitives":[
				{
					"attributes":{
						"POSITION":224,
						"NORMAL":225,
						"TEXCOORD_0":226
					},
					"indices":75,
					"material":0
				}
			]
		},
		{
			"name":"Scene Root_\u0440\u0435\u043b\u0435\u0439\u043d\u044b\u0439 \u044f\u0449\u0438\u043a_\u0440\u0435\u043b\u0435\u0439\u043d\u044b\u0439 \u044f\u0449.002",
			"primitives":[
				{
					"attributes":{
						"POSITION":227,
						"NORMAL":228,
						"TEXCOORD_0":229
					},
					"indices":75,
					"material":0
				}
			]
		}
	],
	"textures":[
		{
			"sampler":0,
			"source":0
		},
		{
			"sampler":0,
			"source":0
		}
	],
	"images":[
		{
			"mimeType":"image/png",
			"name":"ab_signals",
			"uri":"textures/ab_signals.png"
		}
	],
	"accessors":[
		{
			"bufferView":0,
			"componentType":5126,
			"count":30,
			"max":[
				0.14182689785957336,
				5.2652812004089355,
				-0.008046870119869709
			],
			"min":[
				-0.13754934072494507,
				4.999578952789307,
				-0.05343403294682503
			],
			"type":"VEC3"
		},
		{
			"bufferView":1,
			"componentType":5126,
			"count":30,
			"type":"VEC3"
		},
		{
			"bufferView":2,
			"componentType":5126,
			"count":30,
			"type":"VEC2"
		},
		{
			"bufferView":3,
			"componentType":5123,
			"count":30,
			"type":"SCALAR"
		},
		{
			"bufferView":4,
			"componentType":5126,
			"count":96,
			"max":[
				0.7266044616699219,
				0.28478479385375977,
				-3.691303014755249
			],
			"min":[
				0.30642127990722656,
				-0.3154911994934082,
				-4.593963146209717
			],
			"type":"VEC3"
		},
		{
			"bufferView":5,
			"componentType":5126,
			"count":96,
			"type":"VEC3"
		},
		{
			"bufferView":6,
			"componentType":5126,
			"count":96,
			"type":"VEC2"
		},
		{
			"bufferView":7,
			"componentType":5123,
			"count":96,
			"type":"SCALAR"
		},
		{
			"bufferView":8,
			"componentType":5126,
			"count":24,
			"max":[
				0.14302599430084229,
				5.085334777832031,
				-0.09598410129547119
			],
			"min":[
				-0.14302599430084229,
				4.948239803314209,
				-0.17021389305591583
			],
			"type":"VEC3"
		},
		{
			"bufferView":9,
			"componentType":5126,
			"count":24,
			"type":"VEC3"
		},
		{
			"bufferView":10,
			"componentType":5126,
			"count":24,
			"type":"VEC2"
		},
		{
			"bufferView":11,
			"componentType":5123,
			"count":24,
			"type":"SCALAR"
		},
		{
			"bufferView":12,
			"componentType":5126,
			"count":48,
			"max":[
				0.4003046751022339,
				5.479604244232178,
				-0.050455499440431595
			],
			"min":[
				-0.38901907205581665,
				5.182176113128662,
				-0.18239188194274902
			],
			"type":"VEC3"
		},
		{
			"bufferView":13,
			"componentType":5126,
			"count":48,
			"type":"VEC3"
		},
		{
			"bufferView":14,
			"componentType":5126,
			"count":48,
			"type":"VEC2"
		},
		{
			"bufferView":15,
			"componentType":5123,
			"count":48,
			"type":"SCALAR"
		},
		{
			"bufferView":16,
			"componentType":5126,
			"count":36,
			"max":[
				0.11216100305318832,
				0.8235980272293091,
				-0.41396650671958923
			],
			"min":[
				-0.11216100305318832,
				0.5044069886207581,
				-0.5636234879493713
			],
			"type":"VEC3"
		},
		{
			"bufferView":17,
			"componentType":5126,
			"count":36,
			"type":"VEC3"
		},
		{
			"bufferView":18,
			"componentType":5126,
			"count":36,
			"type":"VEC2"
		},
		{
			"bufferView":19,
			"componentType":5123,
			"count":36,
			"type":"SCALAR"
		},
		{
			"bufferView":20,
			"componentType":5126,
			"count":72,
			"max":[
				-0.2303292155265808,
				0.2587308883666992,
				-2.895176887512207
			],
			"min":[
				-0.4350745975971222,
				0.22261203825473785,
				-3.1409800052642822
			],
			"type":"VEC3"
		},
		{
			"bufferView":21,
			"componentType":5126,
			"count":72,
			"type":"VEC3"
		},
		{
			"bufferView":22,
			"componentType":5126,
			"count":72,
			"type":"VEC2"
		},
		{
			"bufferView":23,
			"componentType":5123,
			"count":72,
			"type":"SCALAR"
		},
		{
			"bufferView":24,
			"componentType":5126,
			"count":132,
			"max":[
				-0.426470011472702,
				0.26024100184440613,
				-2.340280055999756
			],
			"min":[
				-3.757079839706421,
				0.09108909964561462,
				-3.1316020488739014
			],
			"type":"VEC3"
		},
		{
			"bufferView":25,
			"componentType":5126,
			"count":132,
			"type":"VEC3"
		},
		{
			"bufferView":26,
			"componentType":5126,
			"count":132,
			"type":"VEC2"
		},
		{
			"bufferView":27,
			"componentType":5123,
			"count":132,
			"type":"SCALAR"
		},
		{
			"bufferView":28,
			"componentType":5126,
			"count":72,
			"max":[
				-0.2303292155265808,
				0.2587308883666992,
				-2.3324668407440186
			],
			"min":[
				-0.4350745975971222,
				0.22261203825473785,
				-2.5782699584960938
			],
			"type":"VEC3"
		},
		{
			"bufferView":29,
			"componentType":5126,
			"count":72,
			"type":"VEC3"
		},
		{
			"bufferView":30,
			"componentType":5126,
			"count":72,
			"type":"VEC2"
		},
		{
			"bufferView":31,
			"componentType":5126,
			"count":18,
			"max":[
				-0.41573089361190796,
				0.2256380021572113,
				-2.4369325637817383
			],
			"min":[
				-0.45041710138320923,
				0.18160369992256165,
				-3.0366475582122803
			],
			"type":"VEC3"
		},
		{
			"bufferView":32,
			"componentType":5126,
			"count":18,
			"type":"VEC3"
		},
		{
			"bufferView":33,
			"componentType":5126,
			"count":18,
			"type":"VEC2"
		},
		{
			"bufferView":34,
			"componentType":5123,
			"count":18,
			"type":"SCALAR"
		},
		{
			"bufferView":35,
			"componentType":5126,
			"count":30,
			"max":[
				-0.606341540813446,
				0.12355533987283707,
				-2.2660109996795654
			],
			"min":[
				-0.7874584197998047,
				0,
				-3.199451446533203
			],
			"type":"VEC3"
		},
		{
			"bufferView":36,
			"componentType":5126,
			"count":30,
			"type":"VEC3"
		},
		{
			"bufferView":37,
			"componentType":5126,
			"count":30,
			"type":"VEC2"
		},
		{
			"bufferView":38,
			"componentType":5126,
			"count":96,
			"max":[
				0.7890575528144836,
				0.28478479385375977,
				-5.257747173309326
			],
			"min":[
				0.2581143379211426,
				-0.3154911994934082,
				-5.998133182525635
			],
			"type":"VEC3"
		},
		{
			"bufferView":39,
			"componentType":5126,
			"count":96,
			"type":"VEC3"
		},
		{
			"bufferView":40,
			"componentType":5126,
			"count":96,
			"type":"VEC2"
		},
		{
			"bufferView":41,
			"componentType":5126,
			"count":48,
			"max":[
				0.38593199849128723,
				5.484455108642578,
				0.5372602939605713
			],
			"min":[
				-0.38118603825569153,
				5.100362300872803,
				-0.04904000088572502
			],
			"type":"VEC3"
		},
		{
			"bufferView":42,
			"componentType":5126,
			"count":48,
			"type":"VEC3"
		},
		{
			"bufferView":43,
			"componentType":5126,
			"count":48,
			"type":"VEC2"
		},
		{
			"bufferView":44,
			"componentType":5126,
			"count":48,
			"max":[
				0.4003046751022339,
				6.735304355621338,
				-0.050455499440431595
			],
			"min":[
				-0.38901907205581665,
				6.437875747680664,
				-0.18239188194274902
			],
			"type":"VEC3"
		},
		{
			"bufferView":45,
			"componentType":5126,
			"count":48,
			"type":"VEC3"
		},
		{
			"bufferView":46,
			"componentType":5126,
			"count":48,
			"type":"VEC2"
		},
		{
			"bufferView":47,
			"componentType":5126,
			"count":24,
			"max":[
				0.14302599430084229,
				6.341034889221191,
				-0.09598410129547119
			],
			"min":[
				-0.14302599430084229,
				6.203939914703369,
				-0.17021389305591583
			],
			"type":"VEC3"
		},
		{
			"bufferView":48,
			"componentType":5126,
			"count":24,
			"type":"VEC3"
		},
		{
			"bufferView":49,
			"componentType":5126,
			"count":24,
			"type":"VEC2"
		},
		{
			"bufferView":50,
			"componentType":5126,
			"count":48,
			"max":[
				0.38593199849128723,
				6.740155220031738,
				0.5372602939605713
			],
			"min":[
				-0.38118603825569153,
				6.356062412261963,
				-0.04904000088572502
			],
			"type":"VEC3"
		},
		{
			"bufferView":51,
			"componentType":5126,
			"count":48,
			"type":"VEC3"
		},
		{
			"bufferView":52,
			"componentType":5126,
			"count":48,
			"type":"VEC2"
		},
		{
			"bufferView":53,
			"componentType":5126,
			"count":240,
			"max":[
				0.2921419143676758,
				5.2460503578186035,
				-0.09088637679815292
			],
			"min":[
				-0.011465063318610191,
				4.710912704467773,
				-0.5789188146591187
			],
			"type":"VEC3"
		},
		{
			"bufferView":54,
			"componentType":5126,
			"count":240,
			"type":"VEC3"
		},
		{
			"bufferView":55,
			"componentType":5126,
			"count":240,
			"type":"VEC2"
		},
		{
			"bufferView":56,
			"componentType":5123,
			"count":240,
			"type":"SCALAR"
		},
		{
			"bufferView":57,
			"componentType":5126,
			"count":204,
			"max":[
				0.14459668099880219,
				5.637683868408203,
				-0.048971328884363174
			],
			"min":[
				-0.1436416506767273,
				4.976954460144043,
				-0.2625277638435364
			],
			"type":"VEC3"
		},
		{
			"bufferView":58,
			"componentType":5126,
			"count":204,
			"type":"VEC3"
		},
		{
			"bufferView":59,
			"componentType":5126,
			"count":204,
			"type":"VEC2"
		},
		{
			"bufferView":60,
			"componentType":5123,
			"count":204,
			"type":"SCALAR"
		},
		{
			"bufferView":61,
			"componentType":5126,
			"count":174,
			"max":[
				0.13950030505657196,
				4.99324369430542,
				-0.09071002155542374
			],
			"min":[
				-0.12975475192070007,
				4.8020124435424805,
				-0.5606723427772522
			],
			"type":"VEC3"
		},
		{
			"bufferView":62,
			"componentType":5126,
			"count":174,
			"type":"VEC3"
		},
		{
			"bufferView":63,
			"componentType":5126,
			"count":174,
			"type":"VEC2"
		},
		{
			"bufferView":64,
			"componentType":5123,
			"count":174,
			"type":"SCALAR"
		},
		{
			"bufferView":65,
			"componentType":5126,
			"count":126,
			"max":[
				0.13950030505657196,
				5.8725175857543945,
				-0.22384458780288696
			],
			"min":[
				-0.12975475192070007,
				5.758787631988525,
				-0.5612528324127197
			],
			"type":"VEC3"
		},
		{
			"bufferView":66,
			"componentType":5126,
			"count":126,
			"type":"VEC3"
		},
		{
			"bufferView":67,
			"componentType":5126,
			"count":126,
			"type":"VEC2"
		},
		{
			"bufferView":68,
			"componentType":5123,
			"count":126,
			"type":"SCALAR"
		},
		{
			"bufferView":69,
			"componentType":5126,
			"count":36,
			"max":[
				0.020485201850533485,
				5.727768421173096,
				-0.04839834198355675
			],
			"min":[
				-0.0190202035009861,
				5.633059501647949,
				-0.12354788929224014
			],
			"type":"VEC3"
		},
		{
			"bufferView":70,
			"componentType":5126,
			"count":36,
			"type":"VEC3"
		},
		{
			"bufferView":71,
			"componentType":5126,
			"count":36,
			"type":"VEC2"
		},
		{
			"bufferView":72,
			"componentType":5126,
			"count":60,
			"max":[
				0.00972574483603239,
				5.6970601081848145,
				-0.08710696548223495
			],
			"min":[
				-0.009725818410515785,
				5.674599647521973,
				-0.36990830302238464
			],
			"type":"VEC3"
		},
		{
			"bufferView":73,
			"componentType":5126,
			"count":60,
			"type":"VEC3"
		},
		{
			"bufferView":74,
			"componentType":5126,
			"count":60,
			"type":"VEC2"
		},
		{
			"bufferView":75,
			"componentType":5123,
			"count":60,
			"type":"SCALAR"
		},
		{
			"bufferView":76,
			"componentType":5126,
			"count":48,
			"max":[
				0.009725755080580711,
				5.846002101898193,
				-0.25789669156074524
			],
			"min":[
				-0.009725800715386868,
				5.6814494132995605,
				-0.28035736083984375
			],
			"type":"VEC3"
		},
		{
			"bufferView":77,
			"componentType":5126,
			"count":48,
			"type":"VEC3"
		},
		{
			"bufferView":78,
			"componentType":5126,
			"count":48,
			"type":"VEC2"
		},
		{
			"bufferView":79,
			"componentType":5126,
			"count":84,
			"max":[
				0.08890990167856216,
				0.24019260704517365,
				-0.08152709901332855
			],
			"min":[
				-0.08890990167856216,
				0.1746709942817688,
				-0.2593469023704529
			],
			"type":"VEC3"
		},
		{
			"bufferView":80,
			"componentType":5126,
			"count":84,
			"type":"VEC3"
		},
		{
			"bufferView":81,
			"componentType":5126,
			"count":84,
			"type":"VEC2"
		},
		{
			"bufferView":82,
			"componentType":5123,
			"count":84,
			"type":"SCALAR"
		},
		{
			"bufferView":83,
			"componentType":5126,
			"count":24,
			"max":[
				0.027160899713635445,
				0.22773100435733795,
				-0.14174209535121918
			],
			"min":[
				-0.027160899713635445,
				0,
				-0.19606390595436096
			],
			"type":"VEC3"
		},
		{
			"bufferView":84,
			"componentType":5126,
			"count":24,
			"type":"VEC3"
		},
		{
			"bufferView":85,
			"componentType":5126,
			"count":24,
			"type":"VEC2"
		},
		{
			"bufferView":86,
			"componentType":5126,
			"count":24,
			"max":[
				0.01958250068128109,
				0.11763521283864975,
				-0.17611099779605865
			],
			"min":[
				-0.01958250068128109,
				0.07847019284963608,
				-0.5631035566329956
			],
			"type":"VEC3"
		},
		{
			"bufferView":87,
			"componentType":5126,
			"count":24,
			"type":"VEC3"
		},
		{
			"bufferView":88,
			"componentType":5126,
			"count":24,
			"type":"VEC2"
		},
		{
			"bufferView":89,
			"componentType":5126,
			"count":24,
			"max":[
				0.01958250068128109,
				0.5131959319114685,
				-0.47049349546432495
			],
			"min":[
				-0.01958250068128109,
				0.0953044593334198,
				-0.5096585154533386
			],
			"type":"VEC3"
		},
		{
			"bufferView":90,
			"componentType":5126,
			"count":24,
			"type":"VEC3"
		},
		{
			"bufferView":91,
			"componentType":5126,
			"count":24,
			"type":"VEC2"
		},
		{
			"bufferView":92,
			"componentType":5126,
			"count":72,
			"max":[
				0.12003869563341141,
				3.294489622116089,
				-0.5700182318687439
			],
			"min":[
				-0.11182402074337006,
				3.2690000534057617,
				-0.7960821390151978
			],
			"type":"VEC3"
		},
		{
			"bufferView":93,
			"componentType":5126,
			"count":72,
			"type":"VEC3"
		},
		{
			"bufferView":94,
			"componentType":5126,
			"count":72,
			"type":"VEC2"
		},
		{
			"bufferView":95,
			"componentType":5126,
			"count":174,
			"max":[
				0.13950030505657196,
				6.24894380569458,
				-0.09071002155542374
			],
			"min":[
				-0.12975475192070007,
				6.057712554931641,
				-0.5606723427772522
			],
			"type":"VEC3"
		},
		{
			"bufferView":96,
			"componentType":5126,
			"count":174,
			"type":"VEC3"
		},
		{
			"bufferView":97,
			"componentType":5126,
			"count":174,
			"type":"VEC2"
		},
		{
			"bufferView":98,
			"componentType":5126,
			"count":126,
			"max":[
				0.13950030505657196,
				7.128217697143555,
				-0.22384458780288696
			],
			"min":[
				-0.12975475192070007,
				7.0144877433776855,
				-0.5612528324127197
			],
			"type":"VEC3"
		},
		{
			"bufferView":99,
			"componentType":5126,
			"count":126,
			"type":"VEC3"
		},
		{
			"bufferView":100,
			"componentType":5126,
			"count":126,
			"type":"VEC2"
		},
		{
			"bufferView":101,
			"componentType":5126,
			"count":36,
			"max":[
				0.020485201850533485,
				6.983468532562256,
				-0.04839834198355675
			],
			"min":[
				-0.0190202035009861,
				6.888759613037109,
				-0.12354788929224014
			],
			"type":"VEC3"
		},
		{
			"bufferView":102,
			"componentType":5126,
			"count":36,
			"type":"VEC3"
		},
		{
			"bufferView":103,
			"componentType":5126,
			"count":36,
			"type":"VEC2"
		},
		{
			"bufferView":104,
			"componentType":5126,
			"count":60,
			"max":[
				0.00972574483603239,
				6.952760219573975,
				-0.08710696548223495
			],
			"min":[
				-0.009725818410515785,
				6.930299758911133,
				-0.36990830302238464
			],
			"type":"VEC3"
		},
		{
			"bufferView":105,
			"componentType":5126,
			"count":60,
			"type":"VEC3"
		},
		{
			"bufferView":106,
			"componentType":5126,
			"count":60,
			"type":"VEC2"
		},
		{
			"bufferView":107,
			"componentType":5126,
			"count":48,
			"max":[
				0.009725755080580711,
				7.1017022132873535,
				-0.25789666175842285
			],
			"min":[
				-0.009725800715386868,
				6.9371490478515625,
				-0.28035736083984375
			],
			"type":"VEC3"
		},
		{
			"bufferView":108,
			"componentType":5126,
			"count":48,
			"type":"VEC3"
		},
		{
			"bufferView":109,
			"componentType":5126,
			"count":48,
			"type":"VEC2"
		},
		{
			"bufferView":110,
			"componentType":5126,
			"count":240,
			"max":[
				0.33557894825935364,
				6.5017499923706055,
				-0.09941954165697098
			],
			"min":[
				-0.011465063318610191,
				5.9388628005981445,
				-0.5789188146591187
			],
			"type":"VEC3"
		},
		{
			"bufferView":111,
			"componentType":5126,
			"count":240,
			"type":"VEC3"
		},
		{
			"bufferView":112,
			"componentType":5126,
			"count":240,
			"type":"VEC2"
		},
		{
			"bufferView":113,
			"componentType":5126,
			"count":30,
			"max":[
				0.14182689785957336,
				6.520981311798096,
				-0.008046870119869709
			],
			"min":[
				-0.13754934072494507,
				6.255279064178467,
				-0.05343403294682503
			],
			"type":"VEC3"
		},
		{
			"bufferView":114,
			"componentType":5126,
			"count":30,
			"type":"VEC3"
		},
		{
			"bufferView":115,
			"componentType":5126,
			"count":30,
			"type":"VEC2"
		},
		{
			"bufferView":116,
			"componentType":5126,
			"count":6,
			"max":[
				0.08388976752758026,
				2.884552478790283,
				-0.5629032254219055
			],
			"min":[
				-0.08506965637207031,
				2.649172067642212,
				-0.5630465149879456
			],
			"type":"VEC3"
		},
		{
			"bufferView":117,
			"componentType":5126,
			"count":6,
			"type":"VEC3"
		},
		{
			"bufferView":118,
			"componentType":5126,
			"count":6,
			"type":"VEC2"
		},
		{
			"bufferView":119,
			"componentType":5123,
			"count":6,
			"type":"SCALAR"
		},
		{
			"bufferView":120,
			"componentType":5126,
			"count":42,
			"max":[
				0.23701968789100647,
				4.651925086975098,
				-0.05261988937854767
			],
			"min":[
				-0.23482578992843628,
				4.161675930023193,
				-0.05261991173028946
			],
			"type":"VEC3"
		},
		{
			"bufferView":121,
			"componentType":5126,
			"count":42,
			"type":"VEC3"
		},
		{
			"bufferView":122,
			"componentType":5126,
			"count":42,
			"type":"VEC2"
		},
		{
			"bufferView":123,
			"componentType":5123,
			"count":42,
			"type":"SCALAR"
		},
		{
			"bufferView":124,
			"componentType":5126,
			"count":42,
			"max":[
				0.4235384464263916,
				5.858709812164307,
				-0.052838284522295
			],
			"min":[
				-0.4213445484638214,
				4.757254600524902,
				-0.05283832177519798
			],
			"type":"VEC3"
		},
		{
			"bufferView":125,
			"componentType":5126,
			"count":42,
			"type":"VEC3"
		},
		{
			"bufferView":126,
			"componentType":5126,
			"count":42,
			"type":"VEC2"
		},
		{
			"bufferView":127,
			"componentType":5126,
			"count":42,
			"max":[
				0.4235384464263916,
				7.114409923553467,
				-0.05399998277425766
			],
			"min":[
				-0.4213445484638214,
				6.012954235076904,
				-0.05400002375245094
			],
			"type":"VEC3"
		},
		{
			"bufferView":128,
			"componentType":5126,
			"count":42,
			"type":"VEC3"
		},
		{
			"bufferView":129,
			"componentType":5126,
			"count":42,
			"type":"VEC2"
		},
		{
			"bufferView":130,
			"componentType":5126,
			"count":6,
			"max":[
				0.08391642570495605,
				2.884552478790283,
				-0.5647623538970947
			],
			"min":[
				-0.08501145243644714,
				2.649172067642212,
				-0.5649056434631348
			],
			"type":"VEC3"
		},
		{
			"bufferView":131,
			"componentType":5126,
			"count":6,
			"type":"VEC3"
		},
		{
			"bufferView":132,
			"componentType":5126,
			"count":6,
			"type":"VEC2"
		},
		{
			"bufferView":133,
			"componentType":5126,
			"count":30,
			"max":[
				0.14182689785957336,
				5.611281394958496,
				-0.008046870119869709
			],
			"min":[
				-0.13754934072494507,
				5.345578670501709,
				-0.05343403294682503
			],
			"type":"VEC3"
		},
		{
			"bufferView":134,
			"componentType":5126,
			"count":30,
			"type":"VEC3"
		},
		{
			"bufferView":135,
			"componentType":5126,
			"count":30,
			"type":"VEC2"
		},
		{
			"bufferView":136,
			"componentType":5126,
			"count":57,
			"max":[
				0.12960796058177948,
				7.341756343841553,
				-0.5612639784812927
			],
			"min":[
				-0.12152104079723358,
				0,
				-0.8061379790306091
			],
			"type":"VEC3"
		},
		{
			"bufferView":137,
			"componentType":5126,
			"count":57,
			"type":"VEC3"
		},
		{
			"bufferView":138,
			"componentType":5126,
			"count":57,
			"type":"VEC2"
		},
		{
			"bufferView":139,
			"componentType":5123,
			"count":57,
			"type":"SCALAR"
		},
		{
			"bufferView":140,
			"componentType":5126,
			"count":30,
			"max":[
				0.14182689785957336,
				4.531361103057861,
				-0.008046870119869709
			],
			"min":[
				-0.13754934072494507,
				4.265658855438232,
				-0.05343403294682503
			],
			"type":"VEC3"
		},
		{
			"bufferView":141,
			"componentType":5126,
			"count":30,
			"type":"VEC3"
		},
		{
			"bufferView":142,
			"componentType":5126,
			"count":30,
			"type":"VEC2"
		},
		{
			"bufferView":143,
			"componentType":5126,
			"count":30,
			"max":[
				0.14182689785957336,
				6.866981029510498,
				-0.008046870119869709
			],
			"min":[
				-0.13754934072494507,
				6.601278781890869,
				-0.05343403294682503
			],
			"type":"VEC3"
		},
		{
			"bufferView":144,
			"componentType":5126,
			"count":30,
			"type":"VEC3"
		},
		{
			"bufferView":145,
			"componentType":5126,
			"count":30,
			"type":"VEC2"
		},
		{
			"bufferView":146,
			"componentType":5126,
			"count":204,
			"max":[
				0.14459668099880219,
				6.893383979797363,
				-0.048971328884363174
			],
			"min":[
				-0.1436416506767273,
				6.232654571533203,
				-0.2625277638435364
			],
			"type":"VEC3"
		},
		{
			"bufferView":147,
			"componentType":5126,
			"count":204,
			"type":"VEC3"
		},
		{
			"bufferView":148,
			"componentType":5126,
			"count":204,
			"type":"VEC2"
		},
		{
			"bufferView":149,
			"componentType":5126,
			"count":78,
			"max":[
				0.24282191693782806,
				0.32821962237358093,
				-2.823230028152466
			],
			"min":[
				-0.24547162652015686,
				-0.0023426415864378214,
				-3.204929828643799
			],
			"type":"VEC3"
		},
		{
			"bufferView":150,
			"componentType":5126,
			"count":78,
			"type":"VEC3"
		},
		{
			"bufferView":151,
			"componentType":5126,
			"count":78,
			"type":"VEC2"
		},
		{
			"bufferView":152,
			"componentType":5123,
			"count":78,
			"type":"SCALAR"
		},
		{
			"bufferView":153,
			"componentType":5126,
			"count":78,
			"max":[
				0.24282191693782806,
				0.32821962237358093,
				-2.2603201866149902
			],
			"min":[
				-0.24547162652015686,
				-0.0023426415864378214,
				-2.6420199871063232
			],
			"type":"VEC3"
		},
		{
			"bufferView":154,
			"componentType":5126,
			"count":78,
			"type":"VEC3"
		},
		{
			"bufferView":155,
			"componentType":5126,
			"count":78,
			"type":"VEC2"
		},
		{
			"bufferView":156,
			"componentType":5126,
			"count":198,
			"max":[
				0.13950036466121674,
				4.354284763336182,
				-0.09071022272109985
			],
			"min":[
				-0.1297546923160553,
				4.140553951263428,
				-0.5606722831726074
			],
			"type":"VEC3"
		},
		{
			"bufferView":157,
			"componentType":5126,
			"count":198,
			"type":"VEC3"
		},
		{
			"bufferView":158,
			"componentType":5126,
			"count":198,
			"type":"VEC2"
		},
		{
			"bufferView":159,
			"componentType":5123,
			"count":198,
			"type":"SCALAR"
		},
		{
			"bufferView":160,
			"componentType":5126,
			"count":66,
			"max":[
				0.1390131413936615,
				4.848374366760254,
				-0.5594339966773987
			],
			"min":[
				-0.12962985038757324,
				4.816460132598877,
				-0.7958700060844421
			],
			"type":"VEC3"
		},
		{
			"bufferView":161,
			"componentType":5126,
			"count":66,
			"type":"VEC3"
		},
		{
			"bufferView":162,
			"componentType":5126,
			"count":66,
			"type":"VEC2"
		},
		{
			"bufferView":163,
			"componentType":5123,
			"count":66,
			"type":"SCALAR"
		},
		{
			"bufferView":164,
			"componentType":5126,
			"count":66,
			"max":[
				0.1390131413936615,
				4.977124214172363,
				-0.5594339966773987
			],
			"min":[
				-0.12962985038757324,
				4.945209980010986,
				-0.7958700060844421
			],
			"type":"VEC3"
		},
		{
			"bufferView":165,
			"componentType":5126,
			"count":66,
			"type":"VEC3"
		},
		{
			"bufferView":166,
			"componentType":5126,
			"count":66,
			"type":"VEC2"
		},
		{
			"bufferView":167,
			"componentType":5126,
			"count":66,
			"max":[
				0.1393035501241684,
				5.833719730377197,
				-0.561133623123169
			],
			"min":[
				-0.12997941672801971,
				5.800570011138916,
				-0.793940544128418
			],
			"type":"VEC3"
		},
		{
			"bufferView":168,
			"componentType":5126,
			"count":66,
			"type":"VEC3"
		},
		{
			"bufferView":169,
			"componentType":5126,
			"count":66,
			"type":"VEC2"
		},
		{
			"bufferView":170,
			"componentType":5126,
			"count":66,
			"max":[
				0.1390131413936615,
				7.088184356689453,
				-0.5606769919395447
			],
			"min":[
				-0.12962985038757324,
				7.056270122528076,
				-0.7895939946174622
			],
			"type":"VEC3"
		},
		{
			"bufferView":171,
			"componentType":5126,
			"count":66,
			"type":"VEC3"
		},
		{
			"bufferView":172,
			"componentType":5126,
			"count":66,
			"type":"VEC2"
		},
		{
			"bufferView":173,
			"componentType":5126,
			"count":66,
			"max":[
				0.1390131413936615,
				6.104074478149414,
				-0.5594339966773987
			],
			"min":[
				-0.12962985038757324,
				6.072159767150879,
				-0.7958700060844421
			],
			"type":"VEC3"
		},
		{
			"bufferView":174,
			"componentType":5126,
			"count":66,
			"type":"VEC3"
		},
		{
			"bufferView":175,
			"componentType":5126,
			"count":66,
			"type":"VEC2"
		},
		{
			"bufferView":176,
			"componentType":5126,
			"count":66,
			"max":[
				0.1390131413936615,
				6.232824325561523,
				-0.5594339966773987
			],
			"min":[
				-0.12962985038757324,
				6.2009100914001465,
				-0.7958700060844421
			],
			"type":"VEC3"
		},
		{
			"bufferView":177,
			"componentType":5126,
			"count":66,
			"type":"VEC3"
		},
		{
			"bufferView":178,
			"componentType":5126,
			"count":66,
			"type":"VEC2"
		},
		{
			"bufferView":179,
			"componentType":5126,
			"count":66,
			"max":[
				0.1390131413936615,
				4.214224338531494,
				-0.5594339966773987
			],
			"min":[
				-0.12962985038757324,
				4.182310104370117,
				-0.798005998134613
			],
			"type":"VEC3"
		},
		{
			"bufferView":180,
			"componentType":5126,
			"count":66,
			"type":"VEC3"
		},
		{
			"bufferView":181,
			"componentType":5126,
			"count":66,
			"type":"VEC2"
		},
		{
			"bufferView":182,
			"componentType":5126,
			"count":66,
			"max":[
				0.1250762641429901,
				2.6852104663848877,
				-0.5655500292778015
			],
			"min":[
				-0.11769631505012512,
				2.652369976043701,
				-0.801509439945221
			],
			"type":"VEC3"
		},
		{
			"bufferView":183,
			"componentType":5126,
			"count":66,
			"type":"VEC3"
		},
		{
			"bufferView":184,
			"componentType":5126,
			"count":66,
			"type":"VEC2"
		},
		{
			"bufferView":185,
			"componentType":5126,
			"count":24,
			"max":[
				0.06042899563908577,
				1.661972999572754,
				-2.2507400512695312
			],
			"min":[
				-0.20642000436782837,
				0.34765997529029846,
				-2.250839948654175
			],
			"type":"VEC3"
		},
		{
			"bufferView":186,
			"componentType":5126,
			"count":24,
			"type":"VEC3"
		},
		{
			"bufferView":187,
			"componentType":5126,
			"count":24,
			"type":"VEC2"
		},
		{
			"bufferView":188,
			"componentType":5126,
			"count":42,
			"max":[
				0.4235384464263916,
				5.858709812164307,
				-0.04883328452706337
			],
			"min":[
				-0.4213445484638214,
				4.757254600524902,
				-0.048833321779966354
			],
			"type":"VEC3"
		},
		{
			"bufferView":189,
			"componentType":5126,
			"count":42,
			"type":"VEC3"
		},
		{
			"bufferView":190,
			"componentType":5126,
			"count":42,
			"type":"VEC2"
		},
		{
			"bufferView":191,
			"componentType":5126,
			"count":42,
			"max":[
				0.4235384166240692,
				7.114408016204834,
				-0.048833273351192474
			],
			"min":[
				-0.4213445484638214,
				6.0129523277282715,
				-0.04883328080177307
			],
			"type":"VEC3"
		},
		{
			"bufferView":192,
			"componentType":5126,
			"count":42,
			"type":"VEC3"
		},
		{
			"bufferView":193,
			"componentType":5126,
			"count":42,
			"type":"VEC2"
		},
		{
			"bufferView":194,
			"componentType":5126,
			"count":42,
			"max":[
				0.23701968789100647,
				4.651925086975098,
				-0.04883329197764397
			],
			"min":[
				-0.23482578992843628,
				4.161675930023193,
				-0.04883331060409546
			],
			"type":"VEC3"
		},
		{
			"bufferView":195,
			"componentType":5126,
			"count":42,
			"type":"VEC3"
		},
		{
			"bufferView":196,
			"componentType":5126,
			"count":42,
			"type":"VEC2"
		},
		{
			"bufferView":197,
			"componentType":5126,
			"count":120,
			"max":[
				0.20182721316814423,
				4.5237627029418945,
				0.8766875863075256
			],
			"min":[
				-0.19807861745357513,
				4.279315948486328,
				-0.04830830916762352
			],
			"type":"VEC3"
		},
		{
			"bufferView":198,
			"componentType":5126,
			"count":120,
			"type":"VEC3"
		},
		{
			"bufferView":199,
			"componentType":5126,
			"count":120,
			"type":"VEC2"
		},
		{
			"bufferView":200,
			"componentType":5123,
			"count":120,
			"type":"SCALAR"
		},
		{
			"bufferView":201,
			"componentType":5126,
			"count":120,
			"max":[
				0.20182721316814423,
				5.2566728591918945,
				0.8766875863075256
			],
			"min":[
				-0.19807861745357513,
				5.012226104736328,
				-0.04830830916762352
			],
			"type":"VEC3"
		},
		{
			"bufferView":202,
			"componentType":5126,
			"count":120,
			"type":"VEC3"
		},
		{
			"bufferView":203,
			"componentType":5126,
			"count":120,
			"type":"VEC2"
		},
		{
			"bufferView":204,
			"componentType":5126,
			"count":120,
			"max":[
				0.20182721316814423,
				5.60403299331665,
				0.8766875863075256
			],
			"min":[
				-0.19807861745357513,
				5.359586238861084,
				-0.04830830916762352
			],
			"type":"VEC3"
		},
		{
			"bufferView":205,
			"componentType":5126,
			"count":120,
			"type":"VEC3"
		},
		{
			"bufferView":206,
			"componentType":5126,
			"count":120,
			"type":"VEC2"
		},
		{
			"bufferView":207,
			"componentType":5126,
			"count":120,
			"max":[
				0.20182721316814423,
				6.859732627868652,
				0.8766875863075256
			],
			"min":[
				-0.19807861745357513,
				6.615286350250244,
				-0.04830831289291382
			],
			"type":"VEC3"
		},
		{
			"bufferView":208,
			"componentType":5126,
			"count":120,
			"type":"VEC3"
		},
		{
			"bufferView":209,
			"componentType":5126,
			"count":120,
			"type":"VEC2"
		},
		{
			"bufferView":210,
			"componentType":5126,
			"count":120,
			"max":[
				0.20182721316814423,
				6.512372970581055,
				0.8766875863075256
			],
			"min":[
				-0.19807861745357513,
				6.267926216125488,
				-0.04830831289291382
			],
			"type":"VEC3"
		},
		{
			"bufferView":211,
			"componentType":5126,
			"count":120,
			"type":"VEC3"
		},
		{
			"bufferView":212,
			"componentType":5126,
			"count":120,
			"type":"VEC2"
		},
		{
			"bufferView":213,
			"componentType":5126,
			"count":366,
			"max":[
				0.1607109010219574,
				5.842259883880615,
				-0.5584387183189392
			],
			"min":[
				-0.16734719276428223,
				-0.005184583831578493,
				-1.6768783330917358
			],
			"type":"VEC3"
		},
		{
			"bufferView":214,
			"componentType":5126,
			"count":366,
			"type":"VEC3"
		},
		{
			"bufferView":215,
			"componentType":5126,
			"count":366,
			"type":"VEC2"
		},
		{
			"bufferView":216,
			"componentType":5123,
			"count":366,
			"type":"SCALAR"
		},
		{
			"bufferView":217,
			"componentType":5126,
			"count":204,
			"max":[
				0.1445966511964798,
				4.5406107902526855,
				-0.04897132143378258
			],
			"min":[
				-0.1436416506767273,
				4.255064487457275,
				-0.2625277638435364
			],
			"type":"VEC3"
		},
		{
			"bufferView":218,
			"componentType":5126,
			"count":204,
			"type":"VEC3"
		},
		{
			"bufferView":219,
			"componentType":5126,
			"count":204,
			"type":"VEC2"
		},
		{
			"bufferView":220,
			"componentType":5126,
			"count":150,
			"max":[
				0.011346436105668545,
				4.148046493530273,
				-0.13218742609024048
			],
			"min":[
				-0.01119972113519907,
				3.790487766265869,
				-0.5789188146591187
			],
			"type":"VEC3"
		},
		{
			"bufferView":221,
			"componentType":5126,
			"count":150,
			"type":"VEC3"
		},
		{
			"bufferView":222,
			"componentType":5126,
			"count":150,
			"type":"VEC2"
		},
		{
			"bufferView":223,
			"componentType":5123,
			"count":150,
			"type":"SCALAR"
		},
		{
			"bufferView":224,
			"componentType":5126,
			"count":60,
			"max":[
				0.7584279179573059,
				1.7434979677200317,
				-3.660196304321289
			],
			"min":[
				0.27644550800323486,
				0.28516900539398193,
				-4.638591289520264
			],
			"type":"VEC3"
		},
		{
			"bufferView":225,
			"componentType":5126,
			"count":60,
			"type":"VEC3"
		},
		{
			"bufferView":226,
			"componentType":5126,
			"count":60,
			"type":"VEC2"
		},
		{
			"bufferView":227,
			"componentType":5126,
			"count":60,
			"max":[
				0.8381566405296326,
				1.9369913339614868,
				-5.12519645690918
			],
			"min":[
				0.19908733665943146,
				0.28516900539398193,
				-6.103591442108154
			],
			"type":"VEC3"
		},
		{
			"bufferView":228,
			"componentType":5126,
			"count":60,
			"type":"VEC3"
		},
		{
			"bufferView":229,
			"componentType":5126,
			"count":60,
			"type":"VEC2"
		}
	],
	"bufferViews":[
		{
			"buffer":0,
			"byteLength":360,
			"byteOffset":0,
			"target":34962
		},
		{
			"buffer":0,
			"byteLength":360,
			"byteOffset":360,
			"target":34962
		},
		{
			"buffer":0,
			"byteLength":240,
			"byteOffset":720,
			"target":34962
		},
		{
			"buffer":0,
			"byteLength":60,
			"byteOffset":960,
			"target":34963
		},
		{
			"buffer":0,
			"byteLength":1152,
			"byteOffset":1020,
			"target":34962
		},
		{
			"buffer":0,
			"byteLength":1152,
			"byteOffset":2172,
			"target":34962
		},
		{
			"buffer":0,
			"byteLength":768,
			"byteOffset":3324,
			"target":34962
		},
		{
			"buffer":0,
			"byteLength":192,
			"byteOffset":4092,
			"target":34963
		},
		{
			"buffer":0,
			"byteLength":288,
			"byteOffset":4284,
			"target":34962
		},
		{
			"buffer":0,
			"byteLength":288,
			"byteOffset":4572,
			"target":34962
		},
		{
			"buffer":0,
			"byteLength":192,
			"byteOffset":4860,
			"target":34962
		},
		{
			"buffer":0,
			"byteLength":48,
			"byteOffset":5052,
			"target":34963
		},
		{
			"buffer":0,
			"byteLength":576,
			"byteOffset":5100,
			"target":34962
		},
		{
			"buffer":0,
			"byteLength":576,
			"byteOffset":5676,
			"target":34962
		},
		{
			"buffer":0,
			"byteLength":384,
			"byteOffset":6252,
			"target":34962
		},
		{
			"buffer":0,
			"byteLength":96,
			"byteOffset":6636,
			"target":34963
		},
		{
			"buffer":0,
			"byteLength":432,
			"byteOffset":6732,
			"target":34962
		},
		{
			"buffer":0,
			"byteLength":432,
			"byteOffset":7164,
			"target":34962
		},
		{
			"buffer":0,
			"byteLength":288,
			"byteOffset":7596,
			"target":34962
		},
		{
			"buffer":0,
			"byteLength":72,
			"byteOffset":7884,
			"target":34963
		},
		{
			"buffer":0,
			"byteLength":864,
			"byteOffset":7956,
			"target":34962
		},
		{
			"buffer":0,
			"byteLength":864,
			"byteOffset":8820,
			"target":34962
		},
		{
			"buffer":0,
			"byteLength":576,
			"byteOffset":9684,
			"target":34962
		},
		{
			"buffer":0,
			"byteLength":144,
			"byteOffset":10260,
			"target":34963
		},
		{
			"buffer":0,
			"byteLength":1584,
			"byteOffset":10404,
			"target":34962
		},
		{
			"buffer":0,
			"byteLength":1584,
			"byteOffset":11988,
			"target":34962
		},
		{
			"buffer":0,
			"byteLength":1056,
			"byteOffset":13572,
			"target":34962
		},
		{
			"buffer":0,
			"byteLength":264,
			"byteOffset":14628,
			"target":34963
		},
		{
			"buffer":0,
			"byteLength":864,
			"byteOffset":14892,
			"target":34962
		},
		{
			"buffer":0,
			"byteLength":864,
			"byteOffset":15756,
			"target":34962
		},
		{
			"buffer":0,
			"byteLength":576,
			"byteOffset":16620,
			"target":34962
		},
		{
			"buffer":0,
			"byteLength":216,
			"byteOffset":17196,
			"target":34962
		},
		{
			"buffer":0,
			"byteLength":216,
			"byteOffset":17412,
			"target":34962
		},
		{
			"buffer":0,
			"byteLength":144,
			"byteOffset":17628,
			"target":34962
		},
		{
			"buffer":0,
			"byteLength":36,
			"byteOffset":17772,
			"target":34963
		},
		{
			"buffer":0,
			"byteLength":360,
			"byteOffset":17808,
			"target":34962
		},
		{
			"buffer":0,
			"byteLength":360,
			"byteOffset":18168,
			"target":34962
		},
		{
			"buffer":0,
			"byteLength":240,
			"byteOffset":18528,
			"target":34962
		},
		{
			"buffer":0,
			"byteLength":1152,
			"byteOffset":18768,
			"target":34962
		},
		{
			"buffer":0,
			"byteLength":1152,
			"byteOffset":19920,
			"target":34962
		},
		{
			"buffer":0,
			"byteLength":768,
			"byteOffset":21072,
			"target":34962
		},
		{
			"buffer":0,
			"byteLength":576,
			"byteOffset":21840,
			"target":34962
		},
		{
			"buffer":0,
			"byteLength":576,
			"byteOffset":22416,
			"target":34962
		},
		{
			"buffer":0,
			"byteLength":384,
			"byteOffset":22992,
			"target":34962
		},
		{
			"buffer":0,
			"byteLength":576,
			"byteOffset":23376,
			"target":34962
		},
		{
			"buffer":0,
			"byteLength":576,
			"byteOffset":23952,
			"target":34962
		},
		{
			"buffer":0,
			"byteLength":384,
			"byteOffset":24528,
			"target":34962
		},
		{
			"buffer":0,
			"byteLength":288,
			"byteOffset":24912,
			"target":34962
		},
		{
			"buffer":0,
			"byteLength":288,
			"byteOffset":25200,
			"target":34962
		},
		{
			"buffer":0,
			"byteLength":192,
			"byteOffset":25488,
			"target":34962
		},
		{
			"buffer":0,
			"byteLength":576,
			"byteOffset":25680,
			"target":34962
		},
		{
			"buffer":0,
			"byteLength":576,
			"byteOffset":26256,
			"target":34962
		},
		{
			"buffer":0,
			"byteLength":384,
			"byteOffset":26832,
			"target":34962
		},
		{
			"buffer":0,
			"byteLength":2880,
			"byteOffset":27216,
			"target":34962
		},
		{
			"buffer":0,
			"byteLength":2880,
			"byteOffset":30096,
			"target":34962
		},
		{
			"buffer":0,
			"byteLength":1920,
			"byteOffset":32976,
			"target":34962
		},
		{
			"buffer":0,
			"byteLength":480,
			"byteOffset":34896,
			"target":34963
		},
		{
			"buffer":0,
			"byteLength":2448,
			"byteOffset":35376,
			"target":34962
		},
		{
			"buffer":0,
			"byteLength":2448,
			"byteOffset":37824,
			"target":34962
		},
		{
			"buffer":0,
			"byteLength":1632,
			"byteOffset":40272,
			"target":34962
		},
		{
			"buffer":0,
			"byteLength":408,
			"byteOffset":41904,
			"target":34963
		},
		{
			"buffer":0,
			"byteLength":2088,
			"byteOffset":42312,
			"target":34962
		},
		{
			"buffer":0,
			"byteLength":2088,
			"byteOffset":44400,
			"target":34962
		},
		{
			"buffer":0,
			"byteLength":1392,
			"byteOffset":46488,
			"target":34962
		},
		{
			"buffer":0,
			"byteLength":348,
			"byteOffset":47880,
			"target":34963
		},
		{
			"buffer":0,
			"byteLength":1512,
			"byteOffset":48228,
			"target":34962
		},
		{
			"buffer":0,
			"byteLength":1512,
			"byteOffset":49740,
			"target":34962
		},
		{
			"buffer":0,
			"byteLength":1008,
			"byteOffset":51252,
			"target":34962
		},
		{
			"buffer":0,
			"byteLength":252,
			"byteOffset":52260,
			"target":34963
		},
		{
			"buffer":0,
			"byteLength":432,
			"byteOffset":52512,
			"target":34962
		},
		{
			"buffer":0,
			"byteLength":432,
			"byteOffset":52944,
			"target":34962
		},
		{
			"buffer":0,
			"byteLength":288,
			"byteOffset":53376,
			"target":34962
		},
		{
			"buffer":0,
			"byteLength":720,
			"byteOffset":53664,
			"target":34962
		},
		{
			"buffer":0,
			"byteLength":720,
			"byteOffset":54384,
			"target":34962
		},
		{
			"buffer":0,
			"byteLength":480,
			"byteOffset":55104,
			"target":34962
		},
		{
			"buffer":0,
			"byteLength":120,
			"byteOffset":55584,
			"target":34963
		},
		{
			"buffer":0,
			"byteLength":576,
			"byteOffset":55704,
			"target":34962
		},
		{
			"buffer":0,
			"byteLength":576,
			"byteOffset":56280,
			"target":34962
		},
		{
			"buffer":0,
			"byteLength":384,
			"byteOffset":56856,
			"target":34962
		},
		{
			"buffer":0,
			"byteLength":1008,
			"byteOffset":57240,
			"target":34962
		},
		{
			"buffer":0,
			"byteLength":1008,
			"byteOffset":58248,
			"target":34962
		},
		{
			"buffer":0,
			"byteLength":672,
			"byteOffset":59256,
			"target":34962
		},
		{
			"buffer":0,
			"byteLength":168,
			"byteOffset":59928,
			"target":34963
		},
		{
			"buffer":0,
			"byteLength":288,
			"byteOffset":60096,
			"target":34962
		},
		{
			"buffer":0,
			"byteLength":288,
			"byteOffset":60384,
			"target":34962
		},
		{
			"buffer":0,
			"byteLength":192,
			"byteOffset":60672,
			"target":34962
		},
		{
			"buffer":0,
			"byteLength":288,
			"byteOffset":60864,
			"target":34962
		},
		{
			"buffer":0,
			"byteLength":288,
			"byteOffset":61152,
			"target":34962
		},
		{
			"buffer":0,
			"byteLength":192,
			"byteOffset":61440,
			"target":34962
		},
		{
			"buffer":0,
			"byteLength":288,
			"byteOffset":61632,
			"target":34962
		},
		{
			"buffer":0,
			"byteLength":288,
			"byteOffset":61920,
			"target":34962
		},
		{
			"buffer":0,
			"byteLength":192,
			"byteOffset":62208,
			"target":34962
		},
		{
			"buffer":0,
			"byteLength":864,
			"byteOffset":62400,
			"target":34962
		},
		{
			"buffer":0,
			"byteLength":864,
			"byteOffset":63264,
			"target":34962
		},
		{
			"buffer":0,
			"byteLength":576,
			"byteOffset":64128,
			"target":34962
		},
		{
			"buffer":0,
			"byteLength":2088,
			"byteOffset":64704,
			"target":34962
		},
		{
			"buffer":0,
			"byteLength":2088,
			"byteOffset":66792,
			"target":34962
		},
		{
			"buffer":0,
			"byteLength":1392,
			"byteOffset":68880,
			"target":34962
		},
		{
			"buffer":0,
			"byteLength":1512,
			"byteOffset":70272,
			"target":34962
		},
		{
			"buffer":0,
			"byteLength":1512,
			"byteOffset":71784,
			"target":34962
		},
		{
			"buffer":0,
			"byteLength":1008,
			"byteOffset":73296,
			"target":34962
		},
		{
			"buffer":0,
			"byteLength":432,
			"byteOffset":74304,
			"target":34962
		},
		{
			"buffer":0,
			"byteLength":432,
			"byteOffset":74736,
			"target":34962
		},
		{
			"buffer":0,
			"byteLength":288,
			"byteOffset":75168,
			"target":34962
		},
		{
			"buffer":0,
			"byteLength":720,
			"byteOffset":75456,
			"target":34962
		},
		{
			"buffer":0,
			"byteLength":720,
			"byteOffset":76176,
			"target":34962
		},
		{
			"buffer":0,
			"byteLength":480,
			"byteOffset":76896,
			"target":34962
		},
		{
			"buffer":0,
			"byteLength":576,
			"byteOffset":77376,
			"target":34962
		},
		{
			"buffer":0,
			"byteLength":576,
			"byteOffset":77952,
			"target":34962
		},
		{
			"buffer":0,
			"byteLength":384,
			"byteOffset":78528,
			"target":34962
		},
		{
			"buffer":0,
			"byteLength":2880,
			"byteOffset":78912,
			"target":34962
		},
		{
			"buffer":0,
			"byteLength":2880,
			"byteOffset":81792,
			"target":34962
		},
		{
			"buffer":0,
			"byteLength":1920,
			"byteOffset":84672,
			"target":34962
		},
		{
			"buffer":0,
			"byteLength":360,
			"byteOffset":86592,
			"target":34962
		},
		{
			"buffer":0,
			"byteLength":360,
			"byteOffset":86952,
			"target":34962
		},
		{
			"buffer":0,
			"byteLength":240,
			"byteOffset":87312,
			"target":34962
		},
		{
			"buffer":0,
			"byteLength":72,
			"byteOffset":87552,
			"target":34962
		},
		{
			"buffer":0,
			"byteLength":72,
			"byteOffset":87624,
			"target":34962
		},
		{
			"buffer":0,
			"byteLength":48,
			"byteOffset":87696,
			"target":34962
		},
		{
			"buffer":0,
			"byteLength":12,
			"byteOffset":87744,
			"target":34963
		},
		{
			"buffer":0,
			"byteLength":504,
			"byteOffset":87756,
			"target":34962
		},
		{
			"buffer":0,
			"byteLength":504,
			"byteOffset":88260,
			"target":34962
		},
		{
			"buffer":0,
			"byteLength":336,
			"byteOffset":88764,
			"target":34962
		},
		{
			"buffer":0,
			"byteLength":84,
			"byteOffset":89100,
			"target":34963
		},
		{
			"buffer":0,
			"byteLength":504,
			"byteOffset":89184,
			"target":34962
		},
		{
			"buffer":0,
			"byteLength":504,
			"byteOffset":89688,
			"target":34962
		},
		{
			"buffer":0,
			"byteLength":336,
			"byteOffset":90192,
			"target":34962
		},
		{
			"buffer":0,
			"byteLength":504,
			"byteOffset":90528,
			"target":34962
		},
		{
			"buffer":0,
			"byteLength":504,
			"byteOffset":91032,
			"target":34962
		},
		{
			"buffer":0,
			"byteLength":336,
			"byteOffset":91536,
			"target":34962
		},
		{
			"buffer":0,
			"byteLength":72,
			"byteOffset":91872,
			"target":34962
		},
		{
			"buffer":0,
			"byteLength":72,
			"byteOffset":91944,
			"target":34962
		},
		{
			"buffer":0,
			"byteLength":48,
			"byteOffset":92016,
			"target":34962
		},
		{
			"buffer":0,
			"byteLength":360,
			"byteOffset":92064,
			"target":34962
		},
		{
			"buffer":0,
			"byteLength":360,
			"byteOffset":92424,
			"target":34962
		},
		{
			"buffer":0,
			"byteLength":240,
			"byteOffset":92784,
			"target":34962
		},
		{
			"buffer":0,
			"byteLength":684,
			"byteOffset":93024,
			"target":34962
		},
		{
			"buffer":0,
			"byteLength":684,
			"byteOffset":93708,
			"target":34962
		},
		{
			"buffer":0,
			"byteLength":456,
			"byteOffset":94392,
			"target":34962
		},
		{
			"buffer":0,
			"byteLength":114,
			"byteOffset":94848,
			"target":34963
		},
		{
			"buffer":0,
			"byteLength":360,
			"byteOffset":94964,
			"target":34962
		},
		{
			"buffer":0,
			"byteLength":360,
			"byteOffset":95324,
			"target":34962
		},
		{
			"buffer":0,
			"byteLength":240,
			"byteOffset":95684,
			"target":34962
		},
		{
			"buffer":0,
			"byteLength":360,
			"byteOffset":95924,
			"target":34962
		},
		{
			"buffer":0,
			"byteLength":360,
			"byteOffset":96284,
			"target":34962
		},
		{
			"buffer":0,
			"byteLength":240,
			"byteOffset":96644,
			"target":34962
		},
		{
			"buffer":0,
			"byteLength":2448,
			"byteOffset":96884,
			"target":34962
		},
		{
			"buffer":0,
			"byteLength":2448,
			"byteOffset":99332,
			"target":34962
		},
		{
			"buffer":0,
			"byteLength":1632,
			"byteOffset":101780,
			"target":34962
		},
		{
			"buffer":0,
			"byteLength":936,
			"byteOffset":103412,
			"target":34962
		},
		{
			"buffer":0,
			"byteLength":936,
			"byteOffset":104348,
			"target":34962
		},
		{
			"buffer":0,
			"byteLength":624,
			"byteOffset":105284,
			"target":34962
		},
		{
			"buffer":0,
			"byteLength":156,
			"byteOffset":105908,
			"target":34963
		},
		{
			"buffer":0,
			"byteLength":936,
			"byteOffset":106064,
			"target":34962
		},
		{
			"buffer":0,
			"byteLength":936,
			"byteOffset":107000,
			"target":34962
		},
		{
			"buffer":0,
			"byteLength":624,
			"byteOffset":107936,
			"target":34962
		},
		{
			"buffer":0,
			"byteLength":2376,
			"byteOffset":108560,
			"target":34962
		},
		{
			"buffer":0,
			"byteLength":2376,
			"byteOffset":110936,
			"target":34962
		},
		{
			"buffer":0,
			"byteLength":1584,
			"byteOffset":113312,
			"target":34962
		},
		{
			"buffer":0,
			"byteLength":396,
			"byteOffset":114896,
			"target":34963
		},
		{
			"buffer":0,
			"byteLength":792,
			"byteOffset":115292,
			"target":34962
		},
		{
			"buffer":0,
			"byteLength":792,
			"byteOffset":116084,
			"target":34962
		},
		{
			"buffer":0,
			"byteLength":528,
			"byteOffset":116876,
			"target":34962
		},
		{
			"buffer":0,
			"byteLength":132,
			"byteOffset":117404,
			"target":34963
		},
		{
			"buffer":0,
			"byteLength":792,
			"byteOffset":117536,
			"target":34962
		},
		{
			"buffer":0,
			"byteLength":792,
			"byteOffset":118328,
			"target":34962
		},
		{
			"buffer":0,
			"byteLength":528,
			"byteOffset":119120,
			"target":34962
		},
		{
			"buffer":0,
			"byteLength":792,
			"byteOffset":119648,
			"target":34962
		},
		{
			"buffer":0,
			"byteLength":792,
			"byteOffset":120440,
			"target":34962
		},
		{
			"buffer":0,
			"byteLength":528,
			"byteOffset":121232,
			"target":34962
		},
		{
			"buffer":0,
			"byteLength":792,
			"byteOffset":121760,
			"target":34962
		},
		{
			"buffer":0,
			"byteLength":792,
			"byteOffset":122552,
			"target":34962
		},
		{
			"buffer":0,
			"byteLength":528,
			"byteOffset":123344,
			"target":34962
		},
		{
			"buffer":0,
			"byteLength":792,
			"byteOffset":123872,
			"target":34962
		},
		{
			"buffer":0,
			"byteLength":792,
			"byteOffset":124664,
			"target":34962
		},
		{
			"buffer":0,
			"byteLength":528,
			"byteOffset":125456,
			"target":34962
		},
		{
			"buffer":0,
			"byteLength":792,
			"byteOffset":125984,
			"target":34962
		},
		{
			"buffer":0,
			"byteLength":792,
			"byteOffset":126776,
			"target":34962
		},
		{
			"buffer":0,
			"byteLength":528,
			"byteOffset":127568,
			"target":34962
		},
		{
			"buffer":0,
			"byteLength":792,
			"byteOffset":128096,
			"target":34962
		},
		{
			"buffer":0,
			"byteLength":792,
			"byteOffset":128888,
			"target":34962
		},
		{
			"buffer":0,
			"byteLength":528,
			"byteOffset":129680,
			"target":34962
		},
		{
			"buffer":0,
			"byteLength":792,
			"byteOffset":130208,
			"target":34962
		},
		{
			"buffer":0,
			"byteLength":792,
			"byteOffset":131000,
			"target":34962
		},
		{
			"buffer":0,
			"byteLength":528,
			"byteOffset":131792,
			"target":34962
		},
		{
			"buffer":0,
			"byteLength":288,
			"byteOffset":132320,
			"target":34962
		},
		{
			"buffer":0,
			"byteLength":288,
			"byteOffset":132608,
			"target":34962
		},
		{
			"buffer":0,
			"byteLength":192,
			"byteOffset":132896,
			"target":34962
		},
		{
			"buffer":0,
			"byteLength":504,
			"byteOffset":133088,
			"target":34962
		},
		{
			"buffer":0,
			"byteLength":504,
			"byteOffset":133592,
			"target":34962
		},
		{
			"buffer":0,
			"byteLength":336,
			"byteOffset":134096,
			"target":34962
		},
		{
			"buffer":0,
			"byteLength":504,
			"byteOffset":134432,
			"target":34962
		},
		{
			"buffer":0,
			"byteLength":504,
			"byteOffset":134936,
			"target":34962
		},
		{
			"buffer":0,
			"byteLength":336,
			"byteOffset":135440,
			"target":34962
		},
		{
			"buffer":0,
			"byteLength":504,
			"byteOffset":135776,
			"target":34962
		},
		{
			"buffer":0,
			"byteLength":504,
			"byteOffset":136280,
			"target":34962
		},
		{
			"buffer":0,
			"byteLength":336,
			"byteOffset":136784,
			"target":34962
		},
		{
			"buffer":0,
			"byteLength":1440,
			"byteOffset":137120,
			"target":34962
		},
		{
			"buffer":0,
			"byteLength":1440,
			"byteOffset":138560,
			"target":34962
		},
		{
			"buffer":0,
			"byteLength":960,
			"byteOffset":140000,
			"target":34962
		},
		{
			"buffer":0,
			"byteLength":240,
			"byteOffset":140960,
			"target":34963
		},
		{
			"buffer":0,
			"byteLength":1440,
			"byteOffset":141200,
			"target":34962
		},
		{
			"buffer":0,
			"byteLength":1440,
			"byteOffset":142640,
			"target":34962
		},
		{
			"buffer":0,
			"byteLength":960,
			"byteOffset":144080,
			"target":34962
		},
		{
			"buffer":0,
			"byteLength":1440,
			"byteOffset":145040,
			"target":34962
		},
		{
			"buffer":0,
			"byteLength":1440,
			"byteOffset":146480,
			"target":34962
		},
		{
			"buffer":0,
			"byteLength":960,
			"byteOffset":147920,
			"target":34962
		},
		{
			"buffer":0,
			"byteLength":1440,
			"byteOffset":148880,
			"target":34962
		},
		{
			"buffer":0,
			"byteLength":1440,
			"byteOffset":150320,
			"target":34962
		},
		{
			"buffer":0,
			"byteLength":960,
			"byteOffset":151760,
			"target":34962
		},
		{
			"buffer":0,
			"byteLength":1440,
			"byteOffset":152720,
			"target":34962
		},
		{
			"buffer":0,
			"byteLength":1440,
			"byteOffset":154160,
			"target":34962
		},
		{
			"buffer":0,
			"byteLength":960,
			"byteOffset":155600,
			"target":34962
		},
		{
			"buffer":0,
			"byteLength":4392,
			"byteOffset":156560,
			"target":34962
		},
		{
			"buffer":0,
			"byteLength":4392,
			"byteOffset":160952,
			"target":34962
		},
		{
			"buffer":0,
			"byteLength":2928,
			"byteOffset":165344,
			"target":34962
		},
		{
			"buffer":0,
			"byteLength":732,
			"byteOffset":168272,
			"target":34963
		},
		{
			"buffer":0,
			"byteLength":2448,
			"byteOffset":169004,
			"target":34962
		},
		{
			"buffer":0,
			"byteLength":2448,
			"byteOffset":171452,
			"target":34962
		},
		{
			"buffer":0,
			"byteLength":1632,
			"byteOffset":173900,
			"target":34962
		},
		{
			"buffer":0,
			"byteLength":1800,
			"byteOffset":175532,
			"target":34962
		},
		{
			"buffer":0,
			"byteLength":1800,
			"byteOffset":177332,
			"target":34962
		},
		{
			"buffer":0,
			"byteLength":1200,
			"byteOffset":179132,
			"target":34962
		},
		{
			"buffer":0,
			"byteLength":300,
			"byteOffset":180332,
			"target":34963
		},
		{
			"buffer":0,
			"byteLength":720,
			"byteOffset":180632,
			"target":34962
		},
		{
			"buffer":0,
			"byteLength":720,
			"byteOffset":181352,
			"target":34962
		},
		{
			"buffer":0,
			"byteLength":480,
			"byteOffset":182072,
			"target":34962
		},
		{
			"buffer":0,
			"byteLength":720,
			"byteOffset":182552,
			"target":34962
		},
		{
			"buffer":0,
			"byteLength":720,
			"byteOffset":183272,
			"target":34962
		},
		{
			"buffer":0,
			"byteLength":480,
			"byteOffset":183992,
			"target":34962
		}
	],
	"samplers":[
		{
			"magFilter":9729,
			"minFilter":9987
		}
	],
	"buffers":[
		{
			"byteLength":184472,
			"uri":"ab_entr.bin"
		}
	]
}
