{
	"asset":{
		"generator":"Khronos glTF Blender I/O v4.3.47",
		"version":"2.0"
	},
	"extensionsUsed":[
		"KHR_materials_specular"
	],
	"scene":0,
	"scenes":[
		{
			"name":"Scene",
			"nodes":[
				0,
				1,
				2,
				3,
				4,
				5,
				6,
				7,
				8,
				9,
				10,
				11,
				12,
				13,
				14,
				15,
				16,
				17,
				18,
				19,
				20,
				21,
				22,
				23,
				24,
				25,
				26,
				27,
				28,
				29,
				30,
				31,
				32,
				33,
				34,
				35,
				36,
				37,
				38,
				39,
				40,
				41,
				42,
				43,
				44,
				45,
				46,
				47,
				48,
				49,
				50,
				51,
				52,
				53,
				54,
				55,
				56,
				57,
				58,
				59,
				60,
				61
			]
		}
	],
	"nodes":[
		{
			"mesh":0,
			"name":"BOTTOM_YELLOW_Lens"
		},
		{
			"mesh":1,
			"name":"Scene Root_Box01_Box01-OFFSET_Box01-GEODE_TransNorm1_0"
		},
		{
			"mesh":2,
			"name":"Scene Root_Box03_Box03-GEODE_TransNorm1_0"
		},
		{
			"mesh":3,
			"name":"Scene Root_Box04_Box04-GEODE_TransNorm1_0"
		},
		{
			"mesh":4,
			"name":"Scene Root_Box05_Box05-GEODE_TransNorm1_0"
		},
		{
			"mesh":5,
			"name":"Scene Root_Box17_Box17-GEODE_TransNorm1_0"
		},
		{
			"mesh":6,
			"name":"Scene Root_Box18_Box18-GEODE_TransNorm1_0"
		},
		{
			"mesh":7,
			"name":"Scene Root_Box19_Box19-GEODE_TransNorm1_0"
		},
		{
			"mesh":8,
			"name":"Scene Root_Box20_Box20-GEODE_TransNorm1_0"
		},
		{
			"mesh":9,
			"name":"Scene Root_Box21_Box21-OFFSET_Box21-GEODE_TransNorm1_0"
		},
		{
			"mesh":10,
			"name":"Scene Root_Cylinder01_Cylinder01-GEODE_TransNorm1_0"
		},
		{
			"mesh":11,
			"name":"Scene Root_Cylinder03_Cylinder03-OFFSET_Cylinder03-GEODE_TransN"
		},
		{
			"mesh":12,
			"name":"Scene Root_Cylinder05_Cylinder05-OFFSET_Cylinder05-GEODE_TransN"
		},
		{
			"mesh":13,
			"name":"Scene Root_Cylinder06_Cylinder06-GEODE_TransNorm1_0"
		},
		{
			"mesh":14,
			"name":"Scene Root_Cylinder07_Cylinder07-OFFSET_Cylinder07-GEODE_TransN"
		},
		{
			"mesh":15,
			"name":"Scene Root_Cylinder08_Cylinder08-OFFSET_Cylinder08-GEODE_TransN"
		},
		{
			"mesh":16,
			"name":"Scene Root_Cylinder11_Cylinder11-GEODE_TransNorm1_0"
		},
		{
			"mesh":17,
			"name":"Scene Root_Cylinder12_Cylinder12-GEODE_TransNorm1_0"
		},
		{
			"mesh":18,
			"name":"Scene Root_Cylinder13_Cylinder13-GEODE_TransNorm1_0"
		},
		{
			"mesh":19,
			"name":"Scene Root_Cylinder14_Cylinder14-GEODE_TransNorm1_0"
		},
		{
			"mesh":20,
			"name":"Scene Root_Cylinder15_Cylinder15-GEODE_TransNorm1_0"
		},
		{
			"mesh":21,
			"name":"Scene Root_Cylinder17_Cylinder17-OFFSET_Cylinder17-GEODE_TransN"
		},
		{
			"mesh":22,
			"name":"Scene Root_Cylinder19_Cylinder19-OFFSET_Cylinder19-GEODE_TransN"
		},
		{
			"mesh":23,
			"name":"Scene Root_Cylinder20_Cylinder20-GEODE_TransNorm1_0"
		},
		{
			"mesh":24,
			"name":"Scene Root_Cylinder21_Cylinder21-OFFSET_Cylinder21-GEODE_TransN"
		},
		{
			"mesh":25,
			"name":"Scene Root_Cylinder22_Cylinder22-OFFSET_Cylinder22-GEODE_TransN"
		},
		{
			"mesh":26,
			"name":"Scene Root_Cylinder23_Cylinder23-GEODE_TransNorm1_0"
		},
		{
			"mesh":27,
			"name":"GREEN_Lens"
		},
		{
			"mesh":28,
			"name":"Scene Root_Object01_Object01-GEODE_TransNorm1_0"
		},
		{
			"mesh":29,
			"name":"Scene Root_Object02_Object02-OFFSET_Object02-GEODE_TransNorm1_0"
		},
		{
			"mesh":30,
			"name":"RED_Lens"
		},
		{
			"mesh":31,
			"name":"Scene Root_Signal_Signal-OFFSET_Signal-GEODE_TransNorm1_0"
		},
		{
			"mesh":32,
			"name":"WHITE_Lens"
		},
		{
			"mesh":33,
			"name":"YELLOW_Lens"
		},
		{
			"mesh":34,
			"name":"Scene Root_\u0411\u0440\u0443\u0441_\u0411\u0440\u0443\u0441-GEODE_TransNorm1_0"
		},
		{
			"mesh":35,
			"name":"Scene Root_\u0414\u0440\u043e\u0441\u0441\u0435\u043b\u044c1_\u0414\u0440\u043e\u0441\u0441\u0435\u043b\u044c1-GEODE_TransNorm1"
		},
		{
			"mesh":36,
			"name":"Scene Root_\u0414\u0440\u043e\u0441\u0441\u0435\u043b\u044c2_\u0414\u0440\u043e\u0441\u0441\u0435\u043b\u044c2-GEODE_TransNorm1"
		},
		{
			"mesh":37,
			"name":"Scene Root_\u041b\u0438\u0442\u0435\u0440\u043001_\u041b\u0438\u0442\u0435\u0440\u043001-OFFSET_\u041b\u0438\u0442\u0435\u0440\u043001-"
		},
		{
			"mesh":38,
			"name":"Scene Root_\u041b\u0438\u0442\u0435\u0440\u043002_\u041b\u0438\u0442\u0435\u0440\u043002-OFFSET_\u041b\u0438\u0442\u0435\u0440\u043002-"
		},
		{
			"mesh":39,
			"name":"Scene Root_\u041b\u0438\u0442\u0435\u0440\u043003_\u041b\u0438\u0442\u0435\u0440\u043003-OFFSET_\u041b\u0438\u0442\u0435\u0440\u043003-"
		},
		{
			"mesh":40,
			"name":"Scene Root_\u041f\u043e\u0434\u0432\u043e\u0434\u044b_\u041f\u043e\u0434\u0432\u043e\u0434\u044b-GEODE_TransNorm1_0"
		},
		{
			"mesh":41,
			"name":"Scene Root_\u0420\u0435\u043c\u0435\u043d\u044c01_\u0420\u0435\u043c\u0435\u043d\u044c01-GEODE_TransNorm1_0"
		},
		{
			"mesh":42,
			"name":"Scene Root_\u0420\u0435\u043c\u0435\u043d\u044c02_\u0420\u0435\u043c\u0435\u043d\u044c02-GEODE_TransNorm1_0"
		},
		{
			"mesh":43,
			"name":"Scene Root_\u0420\u0435\u043c\u0435\u043d\u044c03_\u0420\u0435\u043c\u0435\u043d\u044c03-GEODE_TransNorm1_0"
		},
		{
			"mesh":44,
			"name":"Scene Root_\u0420\u0435\u043c\u0435\u043d\u044c04_\u0420\u0435\u043c\u0435\u043d\u044c04-GEODE_TransNorm1_0"
		},
		{
			"mesh":45,
			"name":"Scene Root_\u0420\u0435\u043c\u0435\u043d\u044c05_\u0420\u0435\u043c\u0435\u043d\u044c05-GEODE_TransNorm1_0"
		},
		{
			"mesh":46,
			"name":"Scene Root_\u0420\u0435\u043c\u0435\u043d\u044c06_\u0420\u0435\u043c\u0435\u043d\u044c06-GEODE_TransNorm1_0"
		},
		{
			"mesh":47,
			"name":"Scene Root_\u0420\u0435\u043c\u0435\u043d\u044c08_\u0420\u0435\u043c\u0435\u043d\u044c08-GEODE_TransNorm1_0"
		},
		{
			"mesh":48,
			"name":"Scene Root_\u0421\u043e\u0435\u0434\u0438\u043d\u0438\u0442\u0435\u043b\u044c\u043d\u0430\u044f \u0448\u0438\u043d\u0430_\u0421\u043e\u0435\u0434\u0438\u043d\u0438"
		},
		{
			"mesh":49,
			"name":"Scene Root_\u0424\u043b\u0430\u0436\u043e\u043a_\u0424\u043b\u0430\u0436\u043e\u043a-GEODE_TransNorm1_0"
		},
		{
			"mesh":50,
			"name":"Scene Root_\u0429\u0438\u0442 \u0433\u043e\u043b\u043e\u0432\u043a\u043801_\u0429\u0438\u0442 \u0433\u043e\u043b\u043e\u0432\u043a\u043801-OFFS"
		},
		{
			"mesh":51,
			"name":"Scene Root_\u0429\u0438\u0442 \u0433\u043e\u043b\u043e\u0432\u043a\u0438_\u0429\u0438\u0442 \u0433\u043e\u043b\u043e\u0432\u043a\u0438-GEODE_Tr"
		},
		{
			"mesh":52,
			"name":"Scene Root_\u043a\u043e\u0437\u044b\u0440\u0451\u043a-02_\u043a\u043e\u0437\u044b\u0440\u0451\u043a-02-OFFSET_\u043a\u043e\u0437\u044b"
		},
		{
			"mesh":53,
			"name":"Scene Root_\u043a\u043e\u0437\u044b\u0440\u0451\u043a-03_\u043a\u043e\u0437\u044b\u0440\u0451\u043a-03-OFFSET_\u043a\u043e\u0437\u044b"
		},
		{
			"mesh":54,
			"name":"Scene Root_\u043a\u043e\u0437\u044b\u0440\u0451\u043a-04_\u043a\u043e\u0437\u044b\u0440\u0451\u043a-04-OFFSET_\u043a\u043e\u0437\u044b"
		},
		{
			"mesh":55,
			"name":"Scene Root_\u043a\u043e\u0437\u044b\u0440\u0451\u043a-05_\u043a\u043e\u0437\u044b\u0440\u0451\u043a-05-OFFSET_\u043a\u043e\u0437\u044b"
		},
		{
			"mesh":56,
			"name":"Scene Root_\u043a\u043e\u0437\u044b\u0440\u0451\u043a-1_\u043a\u043e\u0437\u044b\u0440\u0451\u043a-1-OFFSET_\u043a\u043e\u0437\u044b\u0440"
		},
		{
			"mesh":57,
			"name":"Scene Root_\u043b\u0435\u0441\u0442\u043d\u0438\u0446\u0430_\u043b\u0435\u0441\u0442\u043d\u0438\u0446\u0430-GEODE_TransNorm1_0"
		},
		{
			"mesh":58,
			"name":"Scene Root_\u043c\u043e\u0434\u0443\u043b\u044c \u043b\u0430\u043c\u043f-2_\u043c\u043e\u0434\u0443\u043b\u044c \u043b\u0430\u043c\u043f-2-OFFS"
		},
		{
			"mesh":59,
			"name":"Scene Root_\u043c\u043e\u0434\u0443\u043b\u044c \u043b\u0430\u043c\u043f_\u043c\u043e\u0434\u0443\u043b\u044c \u043b\u0430\u043c\u043f-OFFSET_"
		},
		{
			"mesh":60,
			"name":"Scene Root_\u0440\u0435\u043b\u0435\u0439\u043d\u044b\u0439 \u044f\u0449\u0438\u043a2_\u0440\u0435\u043b\u0435\u0439\u043d\u044b\u0439 \u044f\u0449\u0438\u043a"
		},
		{
			"mesh":61,
			"name":"Scene Root_\u0440\u0435\u043b\u0435\u0439\u043d\u044b\u0439 \u044f\u0449\u0438\u043a_\u0440\u0435\u043b\u0435\u0439\u043d\u044b\u0439 \u044f\u0449\u0438\u043a-"
		}
	],
	"materials":[
		{
			"doubleSided":true,
			"extensions":{
				"KHR_materials_specular":{
					"specularFactor":0
				}
			},
			"name":"material_1.003",
			"pbrMetallicRoughness":{
				"baseColorTexture":{
					"index":0
				},
				"metallicFactor":0
			},
			"emissiveTexture": {
				"index": 0
			}
		}
	],
	"meshes":[
		{
			"name":"Scene Root_BOTTOM_YELLOW_Lens_BOTTOM_YELLOW_Lens-OFFSET_BOT.002",
			"primitives":[
				{
					"attributes":{
						"POSITION":0,
						"NORMAL":1,
						"TEXCOORD_0":2
					},
					"indices":3,
					"material":0
				}
			]
		},
		{
			"name":"Scene Root_Box01_Box01-OFFSET_Box01-GEODE_TransNorm1_0",
			"primitives":[
				{
					"attributes":{
						"POSITION":4,
						"NORMAL":5,
						"TEXCOORD_0":6
					},
					"indices":7,
					"material":0
				}
			]
		},
		{
			"name":"Scene Root_Box03_Box03-GEODE_TransNorm1_0.003",
			"primitives":[
				{
					"attributes":{
						"POSITION":8,
						"NORMAL":9,
						"TEXCOORD_0":10
					},
					"indices":7,
					"material":0
				}
			]
		},
		{
			"name":"Scene Root_Box04_Box04-GEODE_TransNorm1_0.003",
			"primitives":[
				{
					"attributes":{
						"POSITION":11,
						"NORMAL":12,
						"TEXCOORD_0":13
					},
					"indices":14,
					"material":0
				}
			]
		},
		{
			"name":"Scene Root_Box05_Box05-GEODE_TransNorm1_0.003",
			"primitives":[
				{
					"attributes":{
						"POSITION":15,
						"NORMAL":16,
						"TEXCOORD_0":17
					},
					"indices":18,
					"material":0
				}
			]
		},
		{
			"name":"Scene Root_Box17_Box17-GEODE_TransNorm1_0.003",
			"primitives":[
				{
					"attributes":{
						"POSITION":19,
						"NORMAL":20,
						"TEXCOORD_0":21
					},
					"indices":22,
					"material":0
				}
			]
		},
		{
			"name":"Scene Root_Box18_Box18-GEODE_TransNorm1_0.003",
			"primitives":[
				{
					"attributes":{
						"POSITION":23,
						"NORMAL":24,
						"TEXCOORD_0":25
					},
					"indices":14,
					"material":0
				}
			]
		},
		{
			"name":"Scene Root_Box19_Box19-GEODE_TransNorm1_0.003",
			"primitives":[
				{
					"attributes":{
						"POSITION":26,
						"NORMAL":27,
						"TEXCOORD_0":28
					},
					"indices":14,
					"material":0
				}
			]
		},
		{
			"name":"Scene Root_Box20_Box20-GEODE_TransNorm1_0.003",
			"primitives":[
				{
					"attributes":{
						"POSITION":29,
						"NORMAL":30,
						"TEXCOORD_0":31
					},
					"indices":7,
					"material":0
				}
			]
		},
		{
			"name":"Scene Root_Box21_Box21-OFFSET_Box21-GEODE_TransNorm1_0",
			"primitives":[
				{
					"attributes":{
						"POSITION":32,
						"NORMAL":33,
						"TEXCOORD_0":34
					},
					"indices":14,
					"material":0
				}
			]
		},
		{
			"name":"Scene Root_Cylinder01_Cylinder01-GEODE_TransNorm1_0.003",
			"primitives":[
				{
					"attributes":{
						"POSITION":35,
						"NORMAL":36,
						"TEXCOORD_0":37
					},
					"indices":38,
					"material":0
				}
			]
		},
		{
			"name":"Scene Root_Cylinder03_Cylinder03-OFFSET_Cylinder03-GEODE_Tr.002",
			"primitives":[
				{
					"attributes":{
						"POSITION":39,
						"NORMAL":40,
						"TEXCOORD_0":41
					},
					"indices":42,
					"material":0
				}
			]
		},
		{
			"name":"Scene Root_Cylinder05_Cylinder05-OFFSET_Cylinder05-GEODE_Tr.002",
			"primitives":[
				{
					"attributes":{
						"POSITION":43,
						"NORMAL":44,
						"TEXCOORD_0":45
					},
					"indices":46,
					"material":0
				}
			]
		},
		{
			"name":"Scene Root_Cylinder06_Cylinder06-GEODE_TransNorm1_0.003",
			"primitives":[
				{
					"attributes":{
						"POSITION":47,
						"NORMAL":48,
						"TEXCOORD_0":49
					},
					"indices":18,
					"material":0
				}
			]
		},
		{
			"name":"Scene Root_Cylinder07_Cylinder07-OFFSET_Cylinder07-GEODE_Tr.002",
			"primitives":[
				{
					"attributes":{
						"POSITION":50,
						"NORMAL":51,
						"TEXCOORD_0":52
					},
					"indices":53,
					"material":0
				}
			]
		},
		{
			"name":"Scene Root_Cylinder08_Cylinder08-OFFSET_Cylinder08-GEODE_Tr.002",
			"primitives":[
				{
					"attributes":{
						"POSITION":54,
						"NORMAL":55,
						"TEXCOORD_0":56
					},
					"indices":14,
					"material":0
				}
			]
		},
		{
			"name":"Scene Root_Cylinder11_Cylinder11-GEODE_TransNorm1_0.003",
			"primitives":[
				{
					"attributes":{
						"POSITION":57,
						"NORMAL":58,
						"TEXCOORD_0":59
					},
					"indices":60,
					"material":0
				}
			]
		},
		{
			"name":"Scene Root_Cylinder12_Cylinder12-GEODE_TransNorm1_0.003",
			"primitives":[
				{
					"attributes":{
						"POSITION":61,
						"NORMAL":62,
						"TEXCOORD_0":63
					},
					"indices":7,
					"material":0
				}
			]
		},
		{
			"name":"Scene Root_Cylinder13_Cylinder13-GEODE_TransNorm1_0.003",
			"primitives":[
				{
					"attributes":{
						"POSITION":64,
						"NORMAL":65,
						"TEXCOORD_0":66
					},
					"indices":7,
					"material":0
				}
			]
		},
		{
			"name":"Scene Root_Cylinder14_Cylinder14-GEODE_TransNorm1_0.003",
			"primitives":[
				{
					"attributes":{
						"POSITION":67,
						"NORMAL":68,
						"TEXCOORD_0":69
					},
					"indices":7,
					"material":0
				}
			]
		},
		{
			"name":"Scene Root_Cylinder15_Cylinder15-GEODE_TransNorm1_0.003",
			"primitives":[
				{
					"attributes":{
						"POSITION":70,
						"NORMAL":71,
						"TEXCOORD_0":72
					},
					"indices":73,
					"material":0
				}
			]
		},
		{
			"name":"Scene Root_Cylinder17_Cylinder17-OFFSET_Cylinder17-GEODE_Tr.002",
			"primitives":[
				{
					"attributes":{
						"POSITION":74,
						"NORMAL":75,
						"TEXCOORD_0":76
					},
					"indices":42,
					"material":0
				}
			]
		},
		{
			"name":"Scene Root_Cylinder19_Cylinder19-OFFSET_Cylinder19-GEODE_Tr.002",
			"primitives":[
				{
					"attributes":{
						"POSITION":77,
						"NORMAL":78,
						"TEXCOORD_0":79
					},
					"indices":46,
					"material":0
				}
			]
		},
		{
			"name":"Scene Root_Cylinder20_Cylinder20-GEODE_TransNorm1_0.003",
			"primitives":[
				{
					"attributes":{
						"POSITION":80,
						"NORMAL":81,
						"TEXCOORD_0":82
					},
					"indices":18,
					"material":0
				}
			]
		},
		{
			"name":"Scene Root_Cylinder21_Cylinder21-OFFSET_Cylinder21-GEODE_Tr.002",
			"primitives":[
				{
					"attributes":{
						"POSITION":83,
						"NORMAL":84,
						"TEXCOORD_0":85
					},
					"indices":53,
					"material":0
				}
			]
		},
		{
			"name":"Scene Root_Cylinder22_Cylinder22-OFFSET_Cylinder22-GEODE_Tr.002",
			"primitives":[
				{
					"attributes":{
						"POSITION":86,
						"NORMAL":87,
						"TEXCOORD_0":88
					},
					"indices":14,
					"material":0
				}
			]
		},
		{
			"name":"Scene Root_Cylinder23_Cylinder23-GEODE_TransNorm1_0.003",
			"primitives":[
				{
					"attributes":{
						"POSITION":89,
						"NORMAL":90,
						"TEXCOORD_0":91
					},
					"indices":38,
					"material":0
				}
			]
		},
		{
			"name":"Scene Root_GREEN_Lens_GREEN_Lens-OFFSET_GREEN_Lens-GEODE_Tr.002",
			"primitives":[
				{
					"attributes":{
						"POSITION":92,
						"NORMAL":93,
						"TEXCOORD_0":94
					},
					"indices":3,
					"material":0
				}
			]
		},
		{
			"name":"Scene Root_Object01_Object01-GEODE_TransNorm1_0",
			"primitives":[
				{
					"attributes":{
						"POSITION":95,
						"NORMAL":96,
						"TEXCOORD_0":97
					},
					"indices":98,
					"material":0
				}
			]
		},
		{
			"name":"Scene Root_Object02_Object02-OFFSET_Object02-GEODE_TransNorm1_0",
			"primitives":[
				{
					"attributes":{
						"POSITION":99,
						"NORMAL":100,
						"TEXCOORD_0":101
					},
					"indices":98,
					"material":0
				}
			]
		},
		{
			"name":"Scene Root_RED_Lens_RED_Lens-OFFSET_RED_Lens-GEODE_TransNor.002",
			"primitives":[
				{
					"attributes":{
						"POSITION":102,
						"NORMAL":103,
						"TEXCOORD_0":104
					},
					"indices":3,
					"material":0
				}
			]
		},
		{
			"name":"Scene Root_Signal_Signal-OFFSET_Signal-GEODE_TransNorm1_0.003",
			"primitives":[
				{
					"attributes":{
						"POSITION":105,
						"NORMAL":106,
						"TEXCOORD_0":107
					},
					"indices":108,
					"material":0
				}
			]
		},
		{
			"name":"Scene Root_WHITE_Lens_WHITE_Lens-OFFSET_WHITE_Lens-GEODE_Tr.002",
			"primitives":[
				{
					"attributes":{
						"POSITION":109,
						"NORMAL":110,
						"TEXCOORD_0":111
					},
					"indices":3,
					"material":0
				}
			]
		},
		{
			"name":"Scene Root_YELLOW_Lens_YELLOW_Lens-OFFSET_YELLOW_Lens-GEODE.002",
			"primitives":[
				{
					"attributes":{
						"POSITION":112,
						"NORMAL":113,
						"TEXCOORD_0":114
					},
					"indices":3,
					"material":0
				}
			]
		},
		{
			"name":"Scene Root_\u0411\u0440\u0443\u0441_\u0411\u0440\u0443\u0441-GEODE_TransNorm1_0",
			"primitives":[
				{
					"attributes":{
						"POSITION":115,
						"NORMAL":116,
						"TEXCOORD_0":117
					},
					"indices":3,
					"material":0
				}
			]
		},
		{
			"name":"Scene Root_\u0414\u0440\u043e\u0441\u0441\u0435\u043b\u044c1_\u0414\u0440\u043e\u0441\u0441\u0435\u043b\u044c1-GEODE_TransN.002",
			"primitives":[
				{
					"attributes":{
						"POSITION":118,
						"NORMAL":119,
						"TEXCOORD_0":120
					},
					"indices":121,
					"material":0
				}
			]
		},
		{
			"name":"Scene Root_\u0414\u0440\u043e\u0441\u0441\u0435\u043b\u044c2_\u0414\u0440\u043e\u0441\u0441\u0435\u043b\u044c2-GEODE_TransN.002",
			"primitives":[
				{
					"attributes":{
						"POSITION":122,
						"NORMAL":123,
						"TEXCOORD_0":124
					},
					"indices":121,
					"material":0
				}
			]
		},
		{
			"name":"Scene Root_\u041b\u0438\u0442\u0435\u0440\u043001_\u041b\u0438\u0442\u0435\u0440\u043001-OFFSET_\u041b\u0438\u0442\u0435\u0440\u043001-",
			"primitives":[
				{
					"attributes":{
						"POSITION":125,
						"NORMAL":126,
						"TEXCOORD_0":127
					},
					"indices":128,
					"material":0
				}
			]
		},
		{
			"name":"Scene Root_\u041b\u0438\u0442\u0435\u0440\u043002_\u041b\u0438\u0442\u0435\u0440\u043002-OFFSET_\u041b\u0438\u0442\u0435\u0440\u043002-",
			"primitives":[
				{
					"attributes":{
						"POSITION":129,
						"NORMAL":130,
						"TEXCOORD_0":131
					},
					"indices":128,
					"material":0
				}
			]
		},
		{
			"name":"Scene Root_\u041b\u0438\u0442\u0435\u0440\u043003_\u041b\u0438\u0442\u0435\u0440\u043003-OFFSET_\u041b\u0438\u0442\u0435\u0440\u043003-",
			"primitives":[
				{
					"attributes":{
						"POSITION":132,
						"NORMAL":133,
						"TEXCOORD_0":134
					},
					"indices":128,
					"material":0
				}
			]
		},
		{
			"name":"Scene Root_\u041f\u043e\u0434\u0432\u043e\u0434\u044b_\u041f\u043e\u0434\u0432\u043e\u0434\u044b-GEODE_TransNorm1_0",
			"primitives":[
				{
					"attributes":{
						"POSITION":135,
						"NORMAL":136,
						"TEXCOORD_0":137
					},
					"indices":138,
					"material":0
				}
			]
		},
		{
			"name":"Scene Root_\u0420\u0435\u043c\u0435\u043d\u044c01_\u0420\u0435\u043c\u0435\u043d\u044c01-GEODE_TransNorm1_0.003",
			"primitives":[
				{
					"attributes":{
						"POSITION":139,
						"NORMAL":140,
						"TEXCOORD_0":141
					},
					"indices":142,
					"material":0
				}
			]
		},
		{
			"name":"Scene Root_\u0420\u0435\u043c\u0435\u043d\u044c02_\u0420\u0435\u043c\u0435\u043d\u044c02-GEODE_TransNorm1_0.003",
			"primitives":[
				{
					"attributes":{
						"POSITION":143,
						"NORMAL":144,
						"TEXCOORD_0":145
					},
					"indices":142,
					"material":0
				}
			]
		},
		{
			"name":"Scene Root_\u0420\u0435\u043c\u0435\u043d\u044c03_\u0420\u0435\u043c\u0435\u043d\u044c03-GEODE_TransNorm1_0.003",
			"primitives":[
				{
					"attributes":{
						"POSITION":146,
						"NORMAL":147,
						"TEXCOORD_0":148
					},
					"indices":142,
					"material":0
				}
			]
		},
		{
			"name":"Scene Root_\u0420\u0435\u043c\u0435\u043d\u044c04_\u0420\u0435\u043c\u0435\u043d\u044c04-GEODE_TransNorm1_0.003",
			"primitives":[
				{
					"attributes":{
						"POSITION":149,
						"NORMAL":150,
						"TEXCOORD_0":151
					},
					"indices":142,
					"material":0
				}
			]
		},
		{
			"name":"Scene Root_\u0420\u0435\u043c\u0435\u043d\u044c05_\u0420\u0435\u043c\u0435\u043d\u044c05-GEODE_TransNorm1_0.003",
			"primitives":[
				{
					"attributes":{
						"POSITION":152,
						"NORMAL":153,
						"TEXCOORD_0":154
					},
					"indices":142,
					"material":0
				}
			]
		},
		{
			"name":"Scene Root_\u0420\u0435\u043c\u0435\u043d\u044c06_\u0420\u0435\u043c\u0435\u043d\u044c06-GEODE_TransNorm1_0.003",
			"primitives":[
				{
					"attributes":{
						"POSITION":155,
						"NORMAL":156,
						"TEXCOORD_0":157
					},
					"indices":142,
					"material":0
				}
			]
		},
		{
			"name":"Scene Root_\u0420\u0435\u043c\u0435\u043d\u044c08_\u0420\u0435\u043c\u0435\u043d\u044c08-GEODE_TransNorm1_0.003",
			"primitives":[
				{
					"attributes":{
						"POSITION":158,
						"NORMAL":159,
						"TEXCOORD_0":160
					},
					"indices":142,
					"material":0
				}
			]
		},
		{
			"name":"Scene Root_\u0421\u043e\u0435\u0434\u0438\u043d\u0438\u0442\u0435\u043b\u044c\u043d\u0430\u044f \u0448\u0438\u043d\u0430_\u0421\u043e\u0435\u0434\u0438\u043d\u0438",
			"primitives":[
				{
					"attributes":{
						"POSITION":161,
						"NORMAL":162,
						"TEXCOORD_0":163
					},
					"indices":164,
					"material":0
				}
			]
		},
		{
			"name":"Scene Root_\u0424\u043b\u0430\u0436\u043e\u043a_\u0424\u043b\u0430\u0436\u043e\u043a-GEODE_TransNorm1_0.003",
			"primitives":[
				{
					"attributes":{
						"POSITION":165,
						"NORMAL":166,
						"TEXCOORD_0":167
					},
					"indices":7,
					"material":0
				}
			]
		},
		{
			"name":"Scene Root_\u0429\u0438\u0442 \u0433\u043e\u043b\u043e\u0432\u043a\u043801_\u0429\u0438\u0442 \u0433\u043e\u043b\u043e\u0432\u043a\u043801-OFFS",
			"primitives":[
				{
					"attributes":{
						"POSITION":168,
						"NORMAL":169,
						"TEXCOORD_0":170
					},
					"indices":98,
					"material":0
				}
			]
		},
		{
			"name":"Scene Root_\u0429\u0438\u0442 \u0433\u043e\u043b\u043e\u0432\u043a\u0438_\u0429\u0438\u0442 \u0433\u043e\u043b\u043e\u0432\u043a\u0438-GEODE_Tr",
			"primitives":[
				{
					"attributes":{
						"POSITION":171,
						"NORMAL":172,
						"TEXCOORD_0":173
					},
					"indices":98,
					"material":0
				}
			]
		},
		{
			"name":"Scene Root_\u043a\u043e\u0437\u044b\u0440\u0451\u043a-02_\u043a\u043e\u0437\u044b\u0440\u0451\u043a-02-OFFSET_\u043a\u043e\u0437\u044b",
			"primitives":[
				{
					"attributes":{
						"POSITION":174,
						"NORMAL":175,
						"TEXCOORD_0":176
					},
					"indices":177,
					"material":0
				}
			]
		},
		{
			"name":"Scene Root_\u043a\u043e\u0437\u044b\u0440\u0451\u043a-03_\u043a\u043e\u0437\u044b\u0440\u0451\u043a-03-OFFSET_\u043a\u043e\u0437\u044b",
			"primitives":[
				{
					"attributes":{
						"POSITION":178,
						"NORMAL":179,
						"TEXCOORD_0":180
					},
					"indices":177,
					"material":0
				}
			]
		},
		{
			"name":"Scene Root_\u043a\u043e\u0437\u044b\u0440\u0451\u043a-04_\u043a\u043e\u0437\u044b\u0440\u0451\u043a-04-OFFSET_\u043a\u043e.002",
			"primitives":[
				{
					"attributes":{
						"POSITION":181,
						"NORMAL":182,
						"TEXCOORD_0":183
					},
					"indices":177,
					"material":0
				}
			]
		},
		{
			"name":"Scene Root_\u043a\u043e\u0437\u044b\u0440\u0451\u043a-05_\u043a\u043e\u0437\u044b\u0440\u0451\u043a-05-OFFSET_\u043a\u043e.002",
			"primitives":[
				{
					"attributes":{
						"POSITION":184,
						"NORMAL":185,
						"TEXCOORD_0":186
					},
					"indices":177,
					"material":0
				}
			]
		},
		{
			"name":"Scene Root_\u043a\u043e\u0437\u044b\u0440\u0451\u043a-1_\u043a\u043e\u0437\u044b\u0440\u0451\u043a-1-OFFSET_\u043a\u043e\u0437\u044b\u0440",
			"primitives":[
				{
					"attributes":{
						"POSITION":187,
						"NORMAL":188,
						"TEXCOORD_0":189
					},
					"indices":177,
					"material":0
				}
			]
		},
		{
			"name":"Scene Root_\u043b\u0435\u0441\u0442\u043d\u0438\u0446\u0430_\u043b\u0435\u0441\u0442\u043d\u0438\u0446\u0430-GEODE_TransNor.002",
			"primitives":[
				{
					"attributes":{
						"POSITION":190,
						"NORMAL":191,
						"TEXCOORD_0":192
					},
					"indices":193,
					"material":0
				}
			]
		},
		{
			"name":"Scene Root_\u043c\u043e\u0434\u0443\u043b\u044c \u043b\u0430\u043c\u043f-2_\u043c\u043e\u0434\u0443\u043b\u044c \u043b\u0430\u043c\u043f-2-OFFS",
			"primitives":[
				{
					"attributes":{
						"POSITION":194,
						"NORMAL":195,
						"TEXCOORD_0":196
					},
					"indices":197,
					"material":0
				}
			]
		},
		{
			"name":"Scene Root_\u043c\u043e\u0434\u0443\u043b\u044c \u043b\u0430\u043c\u043f_\u043c\u043e\u0434\u0443\u043b\u044c \u043b\u0430\u043c\u043f-OFFSET_",
			"primitives":[
				{
					"attributes":{
						"POSITION":198,
						"NORMAL":199,
						"TEXCOORD_0":200
					},
					"indices":197,
					"material":0
				}
			]
		},
		{
			"name":"Scene Root_\u0440\u0435\u043b\u0435\u0439\u043d\u044b\u0439 \u044f\u0449\u0438\u043a2_\u0440\u0435\u043b\u0435\u0439\u043d\u044b\u0439 \u044f\u0449.002",
			"primitives":[
				{
					"attributes":{
						"POSITION":201,
						"NORMAL":202,
						"TEXCOORD_0":203
					},
					"indices":204,
					"material":0
				}
			]
		},
		{
			"name":"Scene Root_\u0440\u0435\u043b\u0435\u0439\u043d\u044b\u0439 \u044f\u0449\u0438\u043a_\u0440\u0435\u043b\u0435\u0439\u043d\u044b\u0439 \u044f\u0449.002",
			"primitives":[
				{
					"attributes":{
						"POSITION":205,
						"NORMAL":206,
						"TEXCOORD_0":207
					},
					"indices":53,
					"material":0
				}
			]
		}
	],
	"textures":[
		{
			"sampler":0,
			"source":0
		}
	],
	"images":[
		{
			"mimeType":"image/png",
			"name":"ab_signals",
			"uri":"ab_signals.png"
		}
	],
	"accessors":[
		{
			"bufferView":0,
			"componentType":5126,
			"count":30,
			"max":[
				0.14182689785957336,
				5.611281394958496,
				-0.008046870119869709
			],
			"min":[
				-0.13754934072494507,
				5.345578670501709,
				-0.05343403294682503
			],
			"type":"VEC3"
		},
		{
			"bufferView":1,
			"componentType":5126,
			"count":30,
			"type":"VEC3"
		},
		{
			"bufferView":2,
			"componentType":5126,
			"count":30,
			"type":"VEC2"
		},
		{
			"bufferView":3,
			"componentType":5123,
			"count":30,
			"type":"SCALAR"
		},
		{
			"bufferView":4,
			"componentType":5126,
			"count":24,
			"max":[
				0.385932058095932,
				6.604547023773193,
				0.5372602939605713
			],
			"min":[
				-0.38118594884872437,
				6.377383232116699,
				-0.04904000833630562
			],
			"type":"VEC3"
		},
		{
			"bufferView":5,
			"componentType":5126,
			"count":24,
			"type":"VEC3"
		},
		{
			"bufferView":6,
			"componentType":5126,
			"count":24,
			"type":"VEC2"
		},
		{
			"bufferView":7,
			"componentType":5123,
			"count":24,
			"type":"SCALAR"
		},
		{
			"bufferView":8,
			"componentType":5126,
			"count":24,
			"max":[
				0.14302599430084229,
				5.085334777832031,
				-0.09598410129547119
			],
			"min":[
				-0.14302599430084229,
				4.948239803314209,
				-0.17021389305591583
			],
			"type":"VEC3"
		},
		{
			"bufferView":9,
			"componentType":5126,
			"count":24,
			"type":"VEC3"
		},
		{
			"bufferView":10,
			"componentType":5126,
			"count":24,
			"type":"VEC2"
		},
		{
			"bufferView":11,
			"componentType":5126,
			"count":48,
			"max":[
				0.4003046751022339,
				5.479604244232178,
				-0.050455499440431595
			],
			"min":[
				-0.38901907205581665,
				5.182176113128662,
				-0.18239188194274902
			],
			"type":"VEC3"
		},
		{
			"bufferView":12,
			"componentType":5126,
			"count":48,
			"type":"VEC3"
		},
		{
			"bufferView":13,
			"componentType":5126,
			"count":48,
			"type":"VEC2"
		},
		{
			"bufferView":14,
			"componentType":5123,
			"count":48,
			"type":"SCALAR"
		},
		{
			"bufferView":15,
			"componentType":5126,
			"count":36,
			"max":[
				0.11216100305318832,
				0.8235980272293091,
				-0.41396650671958923
			],
			"min":[
				-0.11216100305318832,
				0.5044069886207581,
				-0.5636234879493713
			],
			"type":"VEC3"
		},
		{
			"bufferView":16,
			"componentType":5126,
			"count":36,
			"type":"VEC3"
		},
		{
			"bufferView":17,
			"componentType":5126,
			"count":36,
			"type":"VEC2"
		},
		{
			"bufferView":18,
			"componentType":5123,
			"count":36,
			"type":"SCALAR"
		},
		{
			"bufferView":19,
			"componentType":5126,
			"count":96,
			"max":[
				0.7890575528144836,
				0.28478479385375977,
				-5.257747173309326
			],
			"min":[
				0.2581143379211426,
				-0.3154911994934082,
				-5.998133182525635
			],
			"type":"VEC3"
		},
		{
			"bufferView":20,
			"componentType":5126,
			"count":96,
			"type":"VEC3"
		},
		{
			"bufferView":21,
			"componentType":5126,
			"count":96,
			"type":"VEC2"
		},
		{
			"bufferView":22,
			"componentType":5123,
			"count":96,
			"type":"SCALAR"
		},
		{
			"bufferView":23,
			"componentType":5126,
			"count":48,
			"max":[
				0.38593199849128723,
				5.484455108642578,
				0.5372602939605713
			],
			"min":[
				-0.38118603825569153,
				5.100362300872803,
				-0.04904000088572502
			],
			"type":"VEC3"
		},
		{
			"bufferView":24,
			"componentType":5126,
			"count":48,
			"type":"VEC3"
		},
		{
			"bufferView":25,
			"componentType":5126,
			"count":48,
			"type":"VEC2"
		},
		{
			"bufferView":26,
			"componentType":5126,
			"count":48,
			"max":[
				0.4003046751022339,
				7.044925212860107,
				-0.050455499440431595
			],
			"min":[
				-0.38901907205581665,
				6.437875747680664,
				-0.18239188194274902
			],
			"type":"VEC3"
		},
		{
			"bufferView":27,
			"componentType":5126,
			"count":48,
			"type":"VEC3"
		},
		{
			"bufferView":28,
			"componentType":5126,
			"count":48,
			"type":"VEC2"
		},
		{
			"bufferView":29,
			"componentType":5126,
			"count":24,
			"max":[
				0.14302599430084229,
				6.341034889221191,
				-0.09598410129547119
			],
			"min":[
				-0.14302599430084229,
				6.203939914703369,
				-0.17021389305591583
			],
			"type":"VEC3"
		},
		{
			"bufferView":30,
			"componentType":5126,
			"count":24,
			"type":"VEC3"
		},
		{
			"bufferView":31,
			"componentType":5126,
			"count":24,
			"type":"VEC2"
		},
		{
			"bufferView":32,
			"componentType":5126,
			"count":48,
			"max":[
				0.385932058095932,
				7.131646156311035,
				0.5372602939605713
			],
			"min":[
				-0.38118594884872437,
				6.74755334854126,
				-0.04904000833630562
			],
			"type":"VEC3"
		},
		{
			"bufferView":33,
			"componentType":5126,
			"count":48,
			"type":"VEC3"
		},
		{
			"bufferView":34,
			"componentType":5126,
			"count":48,
			"type":"VEC2"
		},
		{
			"bufferView":35,
			"componentType":5126,
			"count":240,
			"max":[
				0.2921419143676758,
				5.2460503578186035,
				-0.09088637679815292
			],
			"min":[
				-0.011465063318610191,
				4.710912704467773,
				-0.5789188146591187
			],
			"type":"VEC3"
		},
		{
			"bufferView":36,
			"componentType":5126,
			"count":240,
			"type":"VEC3"
		},
		{
			"bufferView":37,
			"componentType":5126,
			"count":240,
			"type":"VEC2"
		},
		{
			"bufferView":38,
			"componentType":5123,
			"count":240,
			"type":"SCALAR"
		},
		{
			"bufferView":39,
			"componentType":5126,
			"count":174,
			"max":[
				0.13950030505657196,
				4.99324369430542,
				-0.09071002155542374
			],
			"min":[
				-0.12975475192070007,
				4.8020124435424805,
				-0.5606723427772522
			],
			"type":"VEC3"
		},
		{
			"bufferView":40,
			"componentType":5126,
			"count":174,
			"type":"VEC3"
		},
		{
			"bufferView":41,
			"componentType":5126,
			"count":174,
			"type":"VEC2"
		},
		{
			"bufferView":42,
			"componentType":5123,
			"count":174,
			"type":"SCALAR"
		},
		{
			"bufferView":43,
			"componentType":5126,
			"count":126,
			"max":[
				0.13950030505657196,
				5.8725175857543945,
				-0.22384458780288696
			],
			"min":[
				-0.12975475192070007,
				5.758787631988525,
				-0.5612528324127197
			],
			"type":"VEC3"
		},
		{
			"bufferView":44,
			"componentType":5126,
			"count":126,
			"type":"VEC3"
		},
		{
			"bufferView":45,
			"componentType":5126,
			"count":126,
			"type":"VEC2"
		},
		{
			"bufferView":46,
			"componentType":5123,
			"count":126,
			"type":"SCALAR"
		},
		{
			"bufferView":47,
			"componentType":5126,
			"count":36,
			"max":[
				0.020485201850533485,
				5.727768421173096,
				-0.04839834198355675
			],
			"min":[
				-0.0190202035009861,
				5.633059501647949,
				-0.12354788929224014
			],
			"type":"VEC3"
		},
		{
			"bufferView":48,
			"componentType":5126,
			"count":36,
			"type":"VEC3"
		},
		{
			"bufferView":49,
			"componentType":5126,
			"count":36,
			"type":"VEC2"
		},
		{
			"bufferView":50,
			"componentType":5126,
			"count":60,
			"max":[
				0.00972574483603239,
				5.6970601081848145,
				-0.08710696548223495
			],
			"min":[
				-0.009725818410515785,
				5.674599647521973,
				-0.36990830302238464
			],
			"type":"VEC3"
		},
		{
			"bufferView":51,
			"componentType":5126,
			"count":60,
			"type":"VEC3"
		},
		{
			"bufferView":52,
			"componentType":5126,
			"count":60,
			"type":"VEC2"
		},
		{
			"bufferView":53,
			"componentType":5123,
			"count":60,
			"type":"SCALAR"
		},
		{
			"bufferView":54,
			"componentType":5126,
			"count":48,
			"max":[
				0.009725755080580711,
				5.846002101898193,
				-0.25789669156074524
			],
			"min":[
				-0.009725800715386868,
				5.6814494132995605,
				-0.28035736083984375
			],
			"type":"VEC3"
		},
		{
			"bufferView":55,
			"componentType":5126,
			"count":48,
			"type":"VEC3"
		},
		{
			"bufferView":56,
			"componentType":5126,
			"count":48,
			"type":"VEC2"
		},
		{
			"bufferView":57,
			"componentType":5126,
			"count":84,
			"max":[
				0.08890990167856216,
				0.24019260704517365,
				-0.08152709901332855
			],
			"min":[
				-0.08890990167856216,
				0.1746709942817688,
				-0.2593469023704529
			],
			"type":"VEC3"
		},
		{
			"bufferView":58,
			"componentType":5126,
			"count":84,
			"type":"VEC3"
		},
		{
			"bufferView":59,
			"componentType":5126,
			"count":84,
			"type":"VEC2"
		},
		{
			"bufferView":60,
			"componentType":5123,
			"count":84,
			"type":"SCALAR"
		},
		{
			"bufferView":61,
			"componentType":5126,
			"count":24,
			"max":[
				0.027160899713635445,
				0.22773100435733795,
				-0.14174209535121918
			],
			"min":[
				-0.027160899713635445,
				0,
				-0.19606390595436096
			],
			"type":"VEC3"
		},
		{
			"bufferView":62,
			"componentType":5126,
			"count":24,
			"type":"VEC3"
		},
		{
			"bufferView":63,
			"componentType":5126,
			"count":24,
			"type":"VEC2"
		},
		{
			"bufferView":64,
			"componentType":5126,
			"count":24,
			"max":[
				0.01958250068128109,
				0.11763521283864975,
				-0.17611099779605865
			],
			"min":[
				-0.01958250068128109,
				0.07847019284963608,
				-0.5631035566329956
			],
			"type":"VEC3"
		},
		{
			"bufferView":65,
			"componentType":5126,
			"count":24,
			"type":"VEC3"
		},
		{
			"bufferView":66,
			"componentType":5126,
			"count":24,
			"type":"VEC2"
		},
		{
			"bufferView":67,
			"componentType":5126,
			"count":24,
			"max":[
				0.01958250068128109,
				0.5131959319114685,
				-0.47049349546432495
			],
			"min":[
				-0.01958250068128109,
				0.0953044593334198,
				-0.5096585154533386
			],
			"type":"VEC3"
		},
		{
			"bufferView":68,
			"componentType":5126,
			"count":24,
			"type":"VEC3"
		},
		{
			"bufferView":69,
			"componentType":5126,
			"count":24,
			"type":"VEC2"
		},
		{
			"bufferView":70,
			"componentType":5126,
			"count":72,
			"max":[
				0.12003869563341141,
				3.294489622116089,
				-0.5700182318687439
			],
			"min":[
				-0.11182402074337006,
				3.2690000534057617,
				-0.7960821390151978
			],
			"type":"VEC3"
		},
		{
			"bufferView":71,
			"componentType":5126,
			"count":72,
			"type":"VEC3"
		},
		{
			"bufferView":72,
			"componentType":5126,
			"count":72,
			"type":"VEC2"
		},
		{
			"bufferView":73,
			"componentType":5123,
			"count":72,
			"type":"SCALAR"
		},
		{
			"bufferView":74,
			"componentType":5126,
			"count":174,
			"max":[
				0.13950030505657196,
				6.24894380569458,
				-0.09071002155542374
			],
			"min":[
				-0.12975475192070007,
				6.057712554931641,
				-0.5606723427772522
			],
			"type":"VEC3"
		},
		{
			"bufferView":75,
			"componentType":5126,
			"count":174,
			"type":"VEC3"
		},
		{
			"bufferView":76,
			"componentType":5126,
			"count":174,
			"type":"VEC2"
		},
		{
			"bufferView":77,
			"componentType":5126,
			"count":126,
			"max":[
				0.13950030505657196,
				7.499267578125,
				-0.22384458780288696
			],
			"min":[
				-0.12975475192070007,
				7.385537624359131,
				-0.5612528324127197
			],
			"type":"VEC3"
		},
		{
			"bufferView":78,
			"componentType":5126,
			"count":126,
			"type":"VEC3"
		},
		{
			"bufferView":79,
			"componentType":5126,
			"count":126,
			"type":"VEC2"
		},
		{
			"bufferView":80,
			"componentType":5126,
			"count":36,
			"max":[
				0.020485201850533485,
				7.354518413543701,
				-0.04839834198355675
			],
			"min":[
				-0.0190202035009861,
				7.259809494018555,
				-0.12354788929224014
			],
			"type":"VEC3"
		},
		{
			"bufferView":81,
			"componentType":5126,
			"count":36,
			"type":"VEC3"
		},
		{
			"bufferView":82,
			"componentType":5126,
			"count":36,
			"type":"VEC2"
		},
		{
			"bufferView":83,
			"componentType":5126,
			"count":60,
			"max":[
				0.00972574483603239,
				7.323810577392578,
				-0.08710696548223495
			],
			"min":[
				-0.009725818410515785,
				7.301349639892578,
				-0.36990830302238464
			],
			"type":"VEC3"
		},
		{
			"bufferView":84,
			"componentType":5126,
			"count":60,
			"type":"VEC3"
		},
		{
			"bufferView":85,
			"componentType":5126,
			"count":60,
			"type":"VEC2"
		},
		{
			"bufferView":86,
			"componentType":5126,
			"count":48,
			"max":[
				0.009725755080580711,
				7.472752094268799,
				-0.25789666175842285
			],
			"min":[
				-0.009725800715386868,
				7.308199405670166,
				-0.28035736083984375
			],
			"type":"VEC3"
		},
		{
			"bufferView":87,
			"componentType":5126,
			"count":48,
			"type":"VEC3"
		},
		{
			"bufferView":88,
			"componentType":5126,
			"count":48,
			"type":"VEC2"
		},
		{
			"bufferView":89,
			"componentType":5126,
			"count":240,
			"max":[
				0.33557894825935364,
				6.5017499923706055,
				-0.09941954165697098
			],
			"min":[
				-0.011465063318610191,
				5.9388628005981445,
				-0.5789188146591187
			],
			"type":"VEC3"
		},
		{
			"bufferView":90,
			"componentType":5126,
			"count":240,
			"type":"VEC3"
		},
		{
			"bufferView":91,
			"componentType":5126,
			"count":240,
			"type":"VEC2"
		},
		{
			"bufferView":92,
			"componentType":5126,
			"count":30,
			"max":[
				0.14182689785957336,
				6.892661094665527,
				-0.008046770468354225
			],
			"min":[
				-0.13754934072494507,
				6.626958847045898,
				-0.05343393236398697
			],
			"type":"VEC3"
		},
		{
			"bufferView":93,
			"componentType":5126,
			"count":30,
			"type":"VEC3"
		},
		{
			"bufferView":94,
			"componentType":5126,
			"count":30,
			"type":"VEC2"
		},
		{
			"bufferView":95,
			"componentType":5126,
			"count":42,
			"max":[
				0.4235384464263916,
				7.5202836990356445,
				-0.047512881457805634
			],
			"min":[
				-0.4213445484638214,
				6.013404369354248,
				-0.04751292243599892
			],
			"type":"VEC3"
		},
		{
			"bufferView":96,
			"componentType":5126,
			"count":42,
			"type":"VEC3"
		},
		{
			"bufferView":97,
			"componentType":5126,
			"count":42,
			"type":"VEC2"
		},
		{
			"bufferView":98,
			"componentType":5123,
			"count":42,
			"type":"SCALAR"
		},
		{
			"bufferView":99,
			"componentType":5126,
			"count":42,
			"max":[
				0.4235384166240692,
				5.858706951141357,
				-0.048833273351192474
			],
			"min":[
				-0.4213445484638214,
				4.757251262664795,
				-0.04883328080177307
			],
			"type":"VEC3"
		},
		{
			"bufferView":100,
			"componentType":5126,
			"count":42,
			"type":"VEC3"
		},
		{
			"bufferView":101,
			"componentType":5126,
			"count":42,
			"type":"VEC2"
		},
		{
			"bufferView":102,
			"componentType":5126,
			"count":30,
			"max":[
				0.14182689785957336,
				6.5532612800598145,
				-0.008046770468354225
			],
			"min":[
				-0.13754934072494507,
				6.2875590324401855,
				-0.05343393236398697
			],
			"type":"VEC3"
		},
		{
			"bufferView":103,
			"componentType":5126,
			"count":30,
			"type":"VEC3"
		},
		{
			"bufferView":104,
			"componentType":5126,
			"count":30,
			"type":"VEC2"
		},
		{
			"bufferView":105,
			"componentType":5126,
			"count":57,
			"max":[
				0.12960796058177948,
				7.6504411697387695,
				-0.5612639784812927
			],
			"min":[
				-0.12152104079723358,
				0,
				-0.8061379790306091
			],
			"type":"VEC3"
		},
		{
			"bufferView":106,
			"componentType":5126,
			"count":57,
			"type":"VEC3"
		},
		{
			"bufferView":107,
			"componentType":5126,
			"count":57,
			"type":"VEC2"
		},
		{
			"bufferView":108,
			"componentType":5123,
			"count":57,
			"type":"SCALAR"
		},
		{
			"bufferView":109,
			"componentType":5126,
			"count":30,
			"max":[
				0.14182689785957336,
				5.2652812004089355,
				-0.008046870119869709
			],
			"min":[
				-0.13754934072494507,
				4.999578952789307,
				-0.05343403294682503
			],
			"type":"VEC3"
		},
		{
			"bufferView":110,
			"componentType":5126,
			"count":30,
			"type":"VEC3"
		},
		{
			"bufferView":111,
			"componentType":5126,
			"count":30,
			"type":"VEC2"
		},
		{
			"bufferView":112,
			"componentType":5126,
			"count":30,
			"max":[
				0.14182689785957336,
				7.238661289215088,
				-0.008046770468354225
			],
			"min":[
				-0.13754934072494507,
				6.972959041595459,
				-0.05343393236398697
			],
			"type":"VEC3"
		},
		{
			"bufferView":113,
			"componentType":5126,
			"count":30,
			"type":"VEC3"
		},
		{
			"bufferView":114,
			"componentType":5126,
			"count":30,
			"type":"VEC2"
		},
		{
			"bufferView":115,
			"componentType":5126,
			"count":30,
			"max":[
				-0.606341540813446,
				0.12355533987283707,
				-2.2600009441375732
			],
			"min":[
				-0.7874584197998047,
				0,
				-3.193441390991211
			],
			"type":"VEC3"
		},
		{
			"bufferView":116,
			"componentType":5126,
			"count":30,
			"type":"VEC3"
		},
		{
			"bufferView":117,
			"componentType":5126,
			"count":30,
			"type":"VEC2"
		},
		{
			"bufferView":118,
			"componentType":5126,
			"count":78,
			"max":[
				0.24282191693782806,
				0.32821962237358093,
				-2.823230028152466
			],
			"min":[
				-0.24547162652015686,
				-0.0023426415864378214,
				-3.204929828643799
			],
			"type":"VEC3"
		},
		{
			"bufferView":119,
			"componentType":5126,
			"count":78,
			"type":"VEC3"
		},
		{
			"bufferView":120,
			"componentType":5126,
			"count":78,
			"type":"VEC2"
		},
		{
			"bufferView":121,
			"componentType":5123,
			"count":78,
			"type":"SCALAR"
		},
		{
			"bufferView":122,
			"componentType":5126,
			"count":78,
			"max":[
				0.24282191693782806,
				0.32821962237358093,
				-2.2603201866149902
			],
			"min":[
				-0.24547162652015686,
				-0.0023426415864378214,
				-2.6420199871063232
			],
			"type":"VEC3"
		},
		{
			"bufferView":123,
			"componentType":5126,
			"count":78,
			"type":"VEC3"
		},
		{
			"bufferView":124,
			"componentType":5126,
			"count":78,
			"type":"VEC2"
		},
		{
			"bufferView":125,
			"componentType":5126,
			"count":12,
			"max":[
				0.08391617983579636,
				3.8042407035827637,
				-0.5632425546646118
			],
			"min":[
				-0.08506990969181061,
				3.5688602924346924,
				-0.5649062395095825
			],
			"type":"VEC3"
		},
		{
			"bufferView":126,
			"componentType":5126,
			"count":12,
			"type":"VEC3"
		},
		{
			"bufferView":127,
			"componentType":5126,
			"count":12,
			"type":"VEC2"
		},
		{
			"bufferView":128,
			"componentType":5123,
			"count":12,
			"type":"SCALAR"
		},
		{
			"bufferView":129,
			"componentType":5126,
			"count":12,
			"max":[
				0.08391617983579636,
				4.06035041809082,
				-0.5632425546646118
			],
			"min":[
				-0.08506990969181061,
				3.824970245361328,
				-0.5649062395095825
			],
			"type":"VEC3"
		},
		{
			"bufferView":130,
			"componentType":5126,
			"count":12,
			"type":"VEC3"
		},
		{
			"bufferView":131,
			"componentType":5126,
			"count":12,
			"type":"VEC2"
		},
		{
			"bufferView":132,
			"componentType":5126,
			"count":12,
			"max":[
				0.08391617983579636,
				3.546100616455078,
				-0.5632425546646118
			],
			"min":[
				-0.08506990969181061,
				3.310720205307007,
				-0.5649062395095825
			],
			"type":"VEC3"
		},
		{
			"bufferView":133,
			"componentType":5126,
			"count":12,
			"type":"VEC3"
		},
		{
			"bufferView":134,
			"componentType":5126,
			"count":12,
			"type":"VEC2"
		},
		{
			"bufferView":135,
			"componentType":5126,
			"count":276,
			"max":[
				-0.2303282916545868,
				0.26024100184440613,
				-2.332048177719116
			],
			"min":[
				-3.7570927143096924,
				0.0757816955447197,
				-3.1377334594726562
			],
			"type":"VEC3"
		},
		{
			"bufferView":136,
			"componentType":5126,
			"count":276,
			"type":"VEC3"
		},
		{
			"bufferView":137,
			"componentType":5126,
			"count":276,
			"type":"VEC2"
		},
		{
			"bufferView":138,
			"componentType":5123,
			"count":276,
			"type":"SCALAR"
		},
		{
			"bufferView":139,
			"componentType":5126,
			"count":66,
			"max":[
				0.1390131413936615,
				4.848374366760254,
				-0.5594339966773987
			],
			"min":[
				-0.12962985038757324,
				4.816460132598877,
				-0.7958700060844421
			],
			"type":"VEC3"
		},
		{
			"bufferView":140,
			"componentType":5126,
			"count":66,
			"type":"VEC3"
		},
		{
			"bufferView":141,
			"componentType":5126,
			"count":66,
			"type":"VEC2"
		},
		{
			"bufferView":142,
			"componentType":5123,
			"count":66,
			"type":"SCALAR"
		},
		{
			"bufferView":143,
			"componentType":5126,
			"count":66,
			"max":[
				0.1390131413936615,
				4.977124214172363,
				-0.5594339966773987
			],
			"min":[
				-0.12962985038757324,
				4.945209980010986,
				-0.7958700060844421
			],
			"type":"VEC3"
		},
		{
			"bufferView":144,
			"componentType":5126,
			"count":66,
			"type":"VEC3"
		},
		{
			"bufferView":145,
			"componentType":5126,
			"count":66,
			"type":"VEC2"
		},
		{
			"bufferView":146,
			"componentType":5126,
			"count":66,
			"max":[
				0.1393035501241684,
				5.833719730377197,
				-0.561133623123169
			],
			"min":[
				-0.12997941672801971,
				5.800570011138916,
				-0.793940544128418
			],
			"type":"VEC3"
		},
		{
			"bufferView":147,
			"componentType":5126,
			"count":66,
			"type":"VEC3"
		},
		{
			"bufferView":148,
			"componentType":5126,
			"count":66,
			"type":"VEC2"
		},
		{
			"bufferView":149,
			"componentType":5126,
			"count":66,
			"max":[
				0.1390131413936615,
				7.459234237670898,
				-0.5606769919395447
			],
			"min":[
				-0.12962985038757324,
				7.4273200035095215,
				-0.7895939946174622
			],
			"type":"VEC3"
		},
		{
			"bufferView":150,
			"componentType":5126,
			"count":66,
			"type":"VEC3"
		},
		{
			"bufferView":151,
			"componentType":5126,
			"count":66,
			"type":"VEC2"
		},
		{
			"bufferView":152,
			"componentType":5126,
			"count":66,
			"max":[
				0.1390131413936615,
				6.104074478149414,
				-0.5594339966773987
			],
			"min":[
				-0.12962985038757324,
				6.072159767150879,
				-0.7958700060844421
			],
			"type":"VEC3"
		},
		{
			"bufferView":153,
			"componentType":5126,
			"count":66,
			"type":"VEC3"
		},
		{
			"bufferView":154,
			"componentType":5126,
			"count":66,
			"type":"VEC2"
		},
		{
			"bufferView":155,
			"componentType":5126,
			"count":66,
			"max":[
				0.1390131413936615,
				6.232824325561523,
				-0.5594339966773987
			],
			"min":[
				-0.12962985038757324,
				6.2009100914001465,
				-0.7958700060844421
			],
			"type":"VEC3"
		},
		{
			"bufferView":156,
			"componentType":5126,
			"count":66,
			"type":"VEC3"
		},
		{
			"bufferView":157,
			"componentType":5126,
			"count":66,
			"type":"VEC2"
		},
		{
			"bufferView":158,
			"componentType":5126,
			"count":66,
			"max":[
				0.12533454596996307,
				2.6852104663848877,
				-0.5652516484260559
			],
			"min":[
				-0.11731351912021637,
				2.652369976043701,
				-0.8014775514602661
			],
			"type":"VEC3"
		},
		{
			"bufferView":159,
			"componentType":5126,
			"count":66,
			"type":"VEC3"
		},
		{
			"bufferView":160,
			"componentType":5126,
			"count":66,
			"type":"VEC2"
		},
		{
			"bufferView":161,
			"componentType":5126,
			"count":18,
			"max":[
				-0.41573089361190796,
				0.2256380021572113,
				-2.437082529067993
			],
			"min":[
				-0.45041710138320923,
				0.18160369992256165,
				-3.036797523498535
			],
			"type":"VEC3"
		},
		{
			"bufferView":162,
			"componentType":5126,
			"count":18,
			"type":"VEC3"
		},
		{
			"bufferView":163,
			"componentType":5126,
			"count":18,
			"type":"VEC2"
		},
		{
			"bufferView":164,
			"componentType":5123,
			"count":18,
			"type":"SCALAR"
		},
		{
			"bufferView":165,
			"componentType":5126,
			"count":24,
			"max":[
				0.06042899563908577,
				1.661972999572754,
				-2.2448999881744385
			],
			"min":[
				-0.20642000436782837,
				0.34765997529029846,
				-2.245000123977661
			],
			"type":"VEC3"
		},
		{
			"bufferView":166,
			"componentType":5126,
			"count":24,
			"type":"VEC3"
		},
		{
			"bufferView":167,
			"componentType":5126,
			"count":24,
			"type":"VEC2"
		},
		{
			"bufferView":168,
			"componentType":5126,
			"count":42,
			"max":[
				0.4235384166240692,
				5.858706951141357,
				-0.05609577149152756
			],
			"min":[
				-0.4213445484638214,
				4.757251262664795,
				-0.05609578266739845
			],
			"type":"VEC3"
		},
		{
			"bufferView":169,
			"componentType":5126,
			"count":42,
			"type":"VEC3"
		},
		{
			"bufferView":170,
			"componentType":5126,
			"count":42,
			"type":"VEC2"
		},
		{
			"bufferView":171,
			"componentType":5126,
			"count":42,
			"max":[
				0.4235384464263916,
				7.5202836990356445,
				-0.0556807816028595
			],
			"min":[
				-0.4213445484638214,
				6.013404369354248,
				-0.05568082258105278
			],
			"type":"VEC3"
		},
		{
			"bufferView":172,
			"componentType":5126,
			"count":42,
			"type":"VEC3"
		},
		{
			"bufferView":173,
			"componentType":5126,
			"count":42,
			"type":"VEC2"
		},
		{
			"bufferView":174,
			"componentType":5126,
			"count":120,
			"max":[
				0.20182721316814423,
				6.884062767028809,
				0.8766877055168152
			],
			"min":[
				-0.19807861745357513,
				6.639616012573242,
				-0.04830821231007576
			],
			"type":"VEC3"
		},
		{
			"bufferView":175,
			"componentType":5126,
			"count":120,
			"type":"VEC3"
		},
		{
			"bufferView":176,
			"componentType":5126,
			"count":120,
			"type":"VEC2"
		},
		{
			"bufferView":177,
			"componentType":5123,
			"count":120,
			"type":"SCALAR"
		},
		{
			"bufferView":178,
			"componentType":5126,
			"count":120,
			"max":[
				0.20182721316814423,
				6.54714298248291,
				0.8766877055168152
			],
			"min":[
				-0.19807861745357513,
				6.302696228027344,
				-0.04830820858478546
			],
			"type":"VEC3"
		},
		{
			"bufferView":179,
			"componentType":5126,
			"count":120,
			"type":"VEC3"
		},
		{
			"bufferView":180,
			"componentType":5126,
			"count":120,
			"type":"VEC2"
		},
		{
			"bufferView":181,
			"componentType":5126,
			"count":120,
			"max":[
				0.20182721316814423,
				5.2566728591918945,
				0.8766875863075256
			],
			"min":[
				-0.19807861745357513,
				5.012226104736328,
				-0.04830830916762352
			],
			"type":"VEC3"
		},
		{
			"bufferView":182,
			"componentType":5126,
			"count":120,
			"type":"VEC3"
		},
		{
			"bufferView":183,
			"componentType":5126,
			"count":120,
			"type":"VEC2"
		},
		{
			"bufferView":184,
			"componentType":5126,
			"count":120,
			"max":[
				0.20182721316814423,
				5.60403299331665,
				0.8766875863075256
			],
			"min":[
				-0.19807861745357513,
				5.359586238861084,
				-0.04830830916762352
			],
			"type":"VEC3"
		},
		{
			"bufferView":185,
			"componentType":5126,
			"count":120,
			"type":"VEC3"
		},
		{
			"bufferView":186,
			"componentType":5126,
			"count":120,
			"type":"VEC2"
		},
		{
			"bufferView":187,
			"componentType":5126,
			"count":120,
			"max":[
				0.20182721316814423,
				7.2314229011535645,
				0.8766877055168152
			],
			"min":[
				-0.19807861745357513,
				6.986976146697998,
				-0.04830821231007576
			],
			"type":"VEC3"
		},
		{
			"bufferView":188,
			"componentType":5126,
			"count":120,
			"type":"VEC3"
		},
		{
			"bufferView":189,
			"componentType":5126,
			"count":120,
			"type":"VEC2"
		},
		{
			"bufferView":190,
			"componentType":5126,
			"count":366,
			"max":[
				0.1607109010219574,
				5.842259883880615,
				-0.5584387183189392
			],
			"min":[
				-0.16734719276428223,
				-0.005184583831578493,
				-1.6768783330917358
			],
			"type":"VEC3"
		},
		{
			"bufferView":191,
			"componentType":5126,
			"count":366,
			"type":"VEC3"
		},
		{
			"bufferView":192,
			"componentType":5126,
			"count":366,
			"type":"VEC2"
		},
		{
			"bufferView":193,
			"componentType":5123,
			"count":366,
			"type":"SCALAR"
		},
		{
			"bufferView":194,
			"componentType":5126,
			"count":204,
			"max":[
				0.14459668099880219,
				5.637683868408203,
				-0.048971328884363174
			],
			"min":[
				-0.1436416506767273,
				4.976954460144043,
				-0.2625277638435364
			],
			"type":"VEC3"
		},
		{
			"bufferView":195,
			"componentType":5126,
			"count":204,
			"type":"VEC3"
		},
		{
			"bufferView":196,
			"componentType":5126,
			"count":204,
			"type":"VEC2"
		},
		{
			"bufferView":197,
			"componentType":5123,
			"count":204,
			"type":"SCALAR"
		},
		{
			"bufferView":198,
			"componentType":5126,
			"count":204,
			"max":[
				0.14459669589996338,
				7.26341438293457,
				-0.048971328884363174
			],
			"min":[
				-0.1436416506767273,
				6.26902437210083,
				-0.2625277638435364
			],
			"type":"VEC3"
		},
		{
			"bufferView":199,
			"componentType":5126,
			"count":204,
			"type":"VEC3"
		},
		{
			"bufferView":200,
			"componentType":5126,
			"count":204,
			"type":"VEC2"
		},
		{
			"bufferView":201,
			"componentType":5126,
			"count":156,
			"max":[
				0.7584279179573059,
				1.7434979677200317,
				-3.660196304321289
			],
			"min":[
				0.27644550800323486,
				-0.3154921233654022,
				-4.638591289520264
			],
			"type":"VEC3"
		},
		{
			"bufferView":202,
			"componentType":5126,
			"count":156,
			"type":"VEC3"
		},
		{
			"bufferView":203,
			"componentType":5126,
			"count":156,
			"type":"VEC2"
		},
		{
			"bufferView":204,
			"componentType":5123,
			"count":156,
			"type":"SCALAR"
		},
		{
			"bufferView":205,
			"componentType":5126,
			"count":60,
			"max":[
				0.8381566405296326,
				1.9369913339614868,
				-5.12519645690918
			],
			"min":[
				0.19908733665943146,
				0.28516900539398193,
				-6.103591442108154
			],
			"type":"VEC3"
		},
		{
			"bufferView":206,
			"componentType":5126,
			"count":60,
			"type":"VEC3"
		},
		{
			"bufferView":207,
			"componentType":5126,
			"count":60,
			"type":"VEC2"
		}
	],
	"bufferViews":[
		{
			"buffer":0,
			"byteLength":360,
			"byteOffset":0,
			"target":34962
		},
		{
			"buffer":0,
			"byteLength":360,
			"byteOffset":360,
			"target":34962
		},
		{
			"buffer":0,
			"byteLength":240,
			"byteOffset":720,
			"target":34962
		},
		{
			"buffer":0,
			"byteLength":60,
			"byteOffset":960,
			"target":34963
		},
		{
			"buffer":0,
			"byteLength":288,
			"byteOffset":1020,
			"target":34962
		},
		{
			"buffer":0,
			"byteLength":288,
			"byteOffset":1308,
			"target":34962
		},
		{
			"buffer":0,
			"byteLength":192,
			"byteOffset":1596,
			"target":34962
		},
		{
			"buffer":0,
			"byteLength":48,
			"byteOffset":1788,
			"target":34963
		},
		{
			"buffer":0,
			"byteLength":288,
			"byteOffset":1836,
			"target":34962
		},
		{
			"buffer":0,
			"byteLength":288,
			"byteOffset":2124,
			"target":34962
		},
		{
			"buffer":0,
			"byteLength":192,
			"byteOffset":2412,
			"target":34962
		},
		{
			"buffer":0,
			"byteLength":576,
			"byteOffset":2604,
			"target":34962
		},
		{
			"buffer":0,
			"byteLength":576,
			"byteOffset":3180,
			"target":34962
		},
		{
			"buffer":0,
			"byteLength":384,
			"byteOffset":3756,
			"target":34962
		},
		{
			"buffer":0,
			"byteLength":96,
			"byteOffset":4140,
			"target":34963
		},
		{
			"buffer":0,
			"byteLength":432,
			"byteOffset":4236,
			"target":34962
		},
		{
			"buffer":0,
			"byteLength":432,
			"byteOffset":4668,
			"target":34962
		},
		{
			"buffer":0,
			"byteLength":288,
			"byteOffset":5100,
			"target":34962
		},
		{
			"buffer":0,
			"byteLength":72,
			"byteOffset":5388,
			"target":34963
		},
		{
			"buffer":0,
			"byteLength":1152,
			"byteOffset":5460,
			"target":34962
		},
		{
			"buffer":0,
			"byteLength":1152,
			"byteOffset":6612,
			"target":34962
		},
		{
			"buffer":0,
			"byteLength":768,
			"byteOffset":7764,
			"target":34962
		},
		{
			"buffer":0,
			"byteLength":192,
			"byteOffset":8532,
			"target":34963
		},
		{
			"buffer":0,
			"byteLength":576,
			"byteOffset":8724,
			"target":34962
		},
		{
			"buffer":0,
			"byteLength":576,
			"byteOffset":9300,
			"target":34962
		},
		{
			"buffer":0,
			"byteLength":384,
			"byteOffset":9876,
			"target":34962
		},
		{
			"buffer":0,
			"byteLength":576,
			"byteOffset":10260,
			"target":34962
		},
		{
			"buffer":0,
			"byteLength":576,
			"byteOffset":10836,
			"target":34962
		},
		{
			"buffer":0,
			"byteLength":384,
			"byteOffset":11412,
			"target":34962
		},
		{
			"buffer":0,
			"byteLength":288,
			"byteOffset":11796,
			"target":34962
		},
		{
			"buffer":0,
			"byteLength":288,
			"byteOffset":12084,
			"target":34962
		},
		{
			"buffer":0,
			"byteLength":192,
			"byteOffset":12372,
			"target":34962
		},
		{
			"buffer":0,
			"byteLength":576,
			"byteOffset":12564,
			"target":34962
		},
		{
			"buffer":0,
			"byteLength":576,
			"byteOffset":13140,
			"target":34962
		},
		{
			"buffer":0,
			"byteLength":384,
			"byteOffset":13716,
			"target":34962
		},
		{
			"buffer":0,
			"byteLength":2880,
			"byteOffset":14100,
			"target":34962
		},
		{
			"buffer":0,
			"byteLength":2880,
			"byteOffset":16980,
			"target":34962
		},
		{
			"buffer":0,
			"byteLength":1920,
			"byteOffset":19860,
			"target":34962
		},
		{
			"buffer":0,
			"byteLength":480,
			"byteOffset":21780,
			"target":34963
		},
		{
			"buffer":0,
			"byteLength":2088,
			"byteOffset":22260,
			"target":34962
		},
		{
			"buffer":0,
			"byteLength":2088,
			"byteOffset":24348,
			"target":34962
		},
		{
			"buffer":0,
			"byteLength":1392,
			"byteOffset":26436,
			"target":34962
		},
		{
			"buffer":0,
			"byteLength":348,
			"byteOffset":27828,
			"target":34963
		},
		{
			"buffer":0,
			"byteLength":1512,
			"byteOffset":28176,
			"target":34962
		},
		{
			"buffer":0,
			"byteLength":1512,
			"byteOffset":29688,
			"target":34962
		},
		{
			"buffer":0,
			"byteLength":1008,
			"byteOffset":31200,
			"target":34962
		},
		{
			"buffer":0,
			"byteLength":252,
			"byteOffset":32208,
			"target":34963
		},
		{
			"buffer":0,
			"byteLength":432,
			"byteOffset":32460,
			"target":34962
		},
		{
			"buffer":0,
			"byteLength":432,
			"byteOffset":32892,
			"target":34962
		},
		{
			"buffer":0,
			"byteLength":288,
			"byteOffset":33324,
			"target":34962
		},
		{
			"buffer":0,
			"byteLength":720,
			"byteOffset":33612,
			"target":34962
		},
		{
			"buffer":0,
			"byteLength":720,
			"byteOffset":34332,
			"target":34962
		},
		{
			"buffer":0,
			"byteLength":480,
			"byteOffset":35052,
			"target":34962
		},
		{
			"buffer":0,
			"byteLength":120,
			"byteOffset":35532,
			"target":34963
		},
		{
			"buffer":0,
			"byteLength":576,
			"byteOffset":35652,
			"target":34962
		},
		{
			"buffer":0,
			"byteLength":576,
			"byteOffset":36228,
			"target":34962
		},
		{
			"buffer":0,
			"byteLength":384,
			"byteOffset":36804,
			"target":34962
		},
		{
			"buffer":0,
			"byteLength":1008,
			"byteOffset":37188,
			"target":34962
		},
		{
			"buffer":0,
			"byteLength":1008,
			"byteOffset":38196,
			"target":34962
		},
		{
			"buffer":0,
			"byteLength":672,
			"byteOffset":39204,
			"target":34962
		},
		{
			"buffer":0,
			"byteLength":168,
			"byteOffset":39876,
			"target":34963
		},
		{
			"buffer":0,
			"byteLength":288,
			"byteOffset":40044,
			"target":34962
		},
		{
			"buffer":0,
			"byteLength":288,
			"byteOffset":40332,
			"target":34962
		},
		{
			"buffer":0,
			"byteLength":192,
			"byteOffset":40620,
			"target":34962
		},
		{
			"buffer":0,
			"byteLength":288,
			"byteOffset":40812,
			"target":34962
		},
		{
			"buffer":0,
			"byteLength":288,
			"byteOffset":41100,
			"target":34962
		},
		{
			"buffer":0,
			"byteLength":192,
			"byteOffset":41388,
			"target":34962
		},
		{
			"buffer":0,
			"byteLength":288,
			"byteOffset":41580,
			"target":34962
		},
		{
			"buffer":0,
			"byteLength":288,
			"byteOffset":41868,
			"target":34962
		},
		{
			"buffer":0,
			"byteLength":192,
			"byteOffset":42156,
			"target":34962
		},
		{
			"buffer":0,
			"byteLength":864,
			"byteOffset":42348,
			"target":34962
		},
		{
			"buffer":0,
			"byteLength":864,
			"byteOffset":43212,
			"target":34962
		},
		{
			"buffer":0,
			"byteLength":576,
			"byteOffset":44076,
			"target":34962
		},
		{
			"buffer":0,
			"byteLength":144,
			"byteOffset":44652,
			"target":34963
		},
		{
			"buffer":0,
			"byteLength":2088,
			"byteOffset":44796,
			"target":34962
		},
		{
			"buffer":0,
			"byteLength":2088,
			"byteOffset":46884,
			"target":34962
		},
		{
			"buffer":0,
			"byteLength":1392,
			"byteOffset":48972,
			"target":34962
		},
		{
			"buffer":0,
			"byteLength":1512,
			"byteOffset":50364,
			"target":34962
		},
		{
			"buffer":0,
			"byteLength":1512,
			"byteOffset":51876,
			"target":34962
		},
		{
			"buffer":0,
			"byteLength":1008,
			"byteOffset":53388,
			"target":34962
		},
		{
			"buffer":0,
			"byteLength":432,
			"byteOffset":54396,
			"target":34962
		},
		{
			"buffer":0,
			"byteLength":432,
			"byteOffset":54828,
			"target":34962
		},
		{
			"buffer":0,
			"byteLength":288,
			"byteOffset":55260,
			"target":34962
		},
		{
			"buffer":0,
			"byteLength":720,
			"byteOffset":55548,
			"target":34962
		},
		{
			"buffer":0,
			"byteLength":720,
			"byteOffset":56268,
			"target":34962
		},
		{
			"buffer":0,
			"byteLength":480,
			"byteOffset":56988,
			"target":34962
		},
		{
			"buffer":0,
			"byteLength":576,
			"byteOffset":57468,
			"target":34962
		},
		{
			"buffer":0,
			"byteLength":576,
			"byteOffset":58044,
			"target":34962
		},
		{
			"buffer":0,
			"byteLength":384,
			"byteOffset":58620,
			"target":34962
		},
		{
			"buffer":0,
			"byteLength":2880,
			"byteOffset":59004,
			"target":34962
		},
		{
			"buffer":0,
			"byteLength":2880,
			"byteOffset":61884,
			"target":34962
		},
		{
			"buffer":0,
			"byteLength":1920,
			"byteOffset":64764,
			"target":34962
		},
		{
			"buffer":0,
			"byteLength":360,
			"byteOffset":66684,
			"target":34962
		},
		{
			"buffer":0,
			"byteLength":360,
			"byteOffset":67044,
			"target":34962
		},
		{
			"buffer":0,
			"byteLength":240,
			"byteOffset":67404,
			"target":34962
		},
		{
			"buffer":0,
			"byteLength":504,
			"byteOffset":67644,
			"target":34962
		},
		{
			"buffer":0,
			"byteLength":504,
			"byteOffset":68148,
			"target":34962
		},
		{
			"buffer":0,
			"byteLength":336,
			"byteOffset":68652,
			"target":34962
		},
		{
			"buffer":0,
			"byteLength":84,
			"byteOffset":68988,
			"target":34963
		},
		{
			"buffer":0,
			"byteLength":504,
			"byteOffset":69072,
			"target":34962
		},
		{
			"buffer":0,
			"byteLength":504,
			"byteOffset":69576,
			"target":34962
		},
		{
			"buffer":0,
			"byteLength":336,
			"byteOffset":70080,
			"target":34962
		},
		{
			"buffer":0,
			"byteLength":360,
			"byteOffset":70416,
			"target":34962
		},
		{
			"buffer":0,
			"byteLength":360,
			"byteOffset":70776,
			"target":34962
		},
		{
			"buffer":0,
			"byteLength":240,
			"byteOffset":71136,
			"target":34962
		},
		{
			"buffer":0,
			"byteLength":684,
			"byteOffset":71376,
			"target":34962
		},
		{
			"buffer":0,
			"byteLength":684,
			"byteOffset":72060,
			"target":34962
		},
		{
			"buffer":0,
			"byteLength":456,
			"byteOffset":72744,
			"target":34962
		},
		{
			"buffer":0,
			"byteLength":114,
			"byteOffset":73200,
			"target":34963
		},
		{
			"buffer":0,
			"byteLength":360,
			"byteOffset":73316,
			"target":34962
		},
		{
			"buffer":0,
			"byteLength":360,
			"byteOffset":73676,
			"target":34962
		},
		{
			"buffer":0,
			"byteLength":240,
			"byteOffset":74036,
			"target":34962
		},
		{
			"buffer":0,
			"byteLength":360,
			"byteOffset":74276,
			"target":34962
		},
		{
			"buffer":0,
			"byteLength":360,
			"byteOffset":74636,
			"target":34962
		},
		{
			"buffer":0,
			"byteLength":240,
			"byteOffset":74996,
			"target":34962
		},
		{
			"buffer":0,
			"byteLength":360,
			"byteOffset":75236,
			"target":34962
		},
		{
			"buffer":0,
			"byteLength":360,
			"byteOffset":75596,
			"target":34962
		},
		{
			"buffer":0,
			"byteLength":240,
			"byteOffset":75956,
			"target":34962
		},
		{
			"buffer":0,
			"byteLength":936,
			"byteOffset":76196,
			"target":34962
		},
		{
			"buffer":0,
			"byteLength":936,
			"byteOffset":77132,
			"target":34962
		},
		{
			"buffer":0,
			"byteLength":624,
			"byteOffset":78068,
			"target":34962
		},
		{
			"buffer":0,
			"byteLength":156,
			"byteOffset":78692,
			"target":34963
		},
		{
			"buffer":0,
			"byteLength":936,
			"byteOffset":78848,
			"target":34962
		},
		{
			"buffer":0,
			"byteLength":936,
			"byteOffset":79784,
			"target":34962
		},
		{
			"buffer":0,
			"byteLength":624,
			"byteOffset":80720,
			"target":34962
		},
		{
			"buffer":0,
			"byteLength":144,
			"byteOffset":81344,
			"target":34962
		},
		{
			"buffer":0,
			"byteLength":144,
			"byteOffset":81488,
			"target":34962
		},
		{
			"buffer":0,
			"byteLength":96,
			"byteOffset":81632,
			"target":34962
		},
		{
			"buffer":0,
			"byteLength":24,
			"byteOffset":81728,
			"target":34963
		},
		{
			"buffer":0,
			"byteLength":144,
			"byteOffset":81752,
			"target":34962
		},
		{
			"buffer":0,
			"byteLength":144,
			"byteOffset":81896,
			"target":34962
		},
		{
			"buffer":0,
			"byteLength":96,
			"byteOffset":82040,
			"target":34962
		},
		{
			"buffer":0,
			"byteLength":144,
			"byteOffset":82136,
			"target":34962
		},
		{
			"buffer":0,
			"byteLength":144,
			"byteOffset":82280,
			"target":34962
		},
		{
			"buffer":0,
			"byteLength":96,
			"byteOffset":82424,
			"target":34962
		},
		{
			"buffer":0,
			"byteLength":3312,
			"byteOffset":82520,
			"target":34962
		},
		{
			"buffer":0,
			"byteLength":3312,
			"byteOffset":85832,
			"target":34962
		},
		{
			"buffer":0,
			"byteLength":2208,
			"byteOffset":89144,
			"target":34962
		},
		{
			"buffer":0,
			"byteLength":552,
			"byteOffset":91352,
			"target":34963
		},
		{
			"buffer":0,
			"byteLength":792,
			"byteOffset":91904,
			"target":34962
		},
		{
			"buffer":0,
			"byteLength":792,
			"byteOffset":92696,
			"target":34962
		},
		{
			"buffer":0,
			"byteLength":528,
			"byteOffset":93488,
			"target":34962
		},
		{
			"buffer":0,
			"byteLength":132,
			"byteOffset":94016,
			"target":34963
		},
		{
			"buffer":0,
			"byteLength":792,
			"byteOffset":94148,
			"target":34962
		},
		{
			"buffer":0,
			"byteLength":792,
			"byteOffset":94940,
			"target":34962
		},
		{
			"buffer":0,
			"byteLength":528,
			"byteOffset":95732,
			"target":34962
		},
		{
			"buffer":0,
			"byteLength":792,
			"byteOffset":96260,
			"target":34962
		},
		{
			"buffer":0,
			"byteLength":792,
			"byteOffset":97052,
			"target":34962
		},
		{
			"buffer":0,
			"byteLength":528,
			"byteOffset":97844,
			"target":34962
		},
		{
			"buffer":0,
			"byteLength":792,
			"byteOffset":98372,
			"target":34962
		},
		{
			"buffer":0,
			"byteLength":792,
			"byteOffset":99164,
			"target":34962
		},
		{
			"buffer":0,
			"byteLength":528,
			"byteOffset":99956,
			"target":34962
		},
		{
			"buffer":0,
			"byteLength":792,
			"byteOffset":100484,
			"target":34962
		},
		{
			"buffer":0,
			"byteLength":792,
			"byteOffset":101276,
			"target":34962
		},
		{
			"buffer":0,
			"byteLength":528,
			"byteOffset":102068,
			"target":34962
		},
		{
			"buffer":0,
			"byteLength":792,
			"byteOffset":102596,
			"target":34962
		},
		{
			"buffer":0,
			"byteLength":792,
			"byteOffset":103388,
			"target":34962
		},
		{
			"buffer":0,
			"byteLength":528,
			"byteOffset":104180,
			"target":34962
		},
		{
			"buffer":0,
			"byteLength":792,
			"byteOffset":104708,
			"target":34962
		},
		{
			"buffer":0,
			"byteLength":792,
			"byteOffset":105500,
			"target":34962
		},
		{
			"buffer":0,
			"byteLength":528,
			"byteOffset":106292,
			"target":34962
		},
		{
			"buffer":0,
			"byteLength":216,
			"byteOffset":106820,
			"target":34962
		},
		{
			"buffer":0,
			"byteLength":216,
			"byteOffset":107036,
			"target":34962
		},
		{
			"buffer":0,
			"byteLength":144,
			"byteOffset":107252,
			"target":34962
		},
		{
			"buffer":0,
			"byteLength":36,
			"byteOffset":107396,
			"target":34963
		},
		{
			"buffer":0,
			"byteLength":288,
			"byteOffset":107432,
			"target":34962
		},
		{
			"buffer":0,
			"byteLength":288,
			"byteOffset":107720,
			"target":34962
		},
		{
			"buffer":0,
			"byteLength":192,
			"byteOffset":108008,
			"target":34962
		},
		{
			"buffer":0,
			"byteLength":504,
			"byteOffset":108200,
			"target":34962
		},
		{
			"buffer":0,
			"byteLength":504,
			"byteOffset":108704,
			"target":34962
		},
		{
			"buffer":0,
			"byteLength":336,
			"byteOffset":109208,
			"target":34962
		},
		{
			"buffer":0,
			"byteLength":504,
			"byteOffset":109544,
			"target":34962
		},
		{
			"buffer":0,
			"byteLength":504,
			"byteOffset":110048,
			"target":34962
		},
		{
			"buffer":0,
			"byteLength":336,
			"byteOffset":110552,
			"target":34962
		},
		{
			"buffer":0,
			"byteLength":1440,
			"byteOffset":110888,
			"target":34962
		},
		{
			"buffer":0,
			"byteLength":1440,
			"byteOffset":112328,
			"target":34962
		},
		{
			"buffer":0,
			"byteLength":960,
			"byteOffset":113768,
			"target":34962
		},
		{
			"buffer":0,
			"byteLength":240,
			"byteOffset":114728,
			"target":34963
		},
		{
			"buffer":0,
			"byteLength":1440,
			"byteOffset":114968,
			"target":34962
		},
		{
			"buffer":0,
			"byteLength":1440,
			"byteOffset":116408,
			"target":34962
		},
		{
			"buffer":0,
			"byteLength":960,
			"byteOffset":117848,
			"target":34962
		},
		{
			"buffer":0,
			"byteLength":1440,
			"byteOffset":118808,
			"target":34962
		},
		{
			"buffer":0,
			"byteLength":1440,
			"byteOffset":120248,
			"target":34962
		},
		{
			"buffer":0,
			"byteLength":960,
			"byteOffset":121688,
			"target":34962
		},
		{
			"buffer":0,
			"byteLength":1440,
			"byteOffset":122648,
			"target":34962
		},
		{
			"buffer":0,
			"byteLength":1440,
			"byteOffset":124088,
			"target":34962
		},
		{
			"buffer":0,
			"byteLength":960,
			"byteOffset":125528,
			"target":34962
		},
		{
			"buffer":0,
			"byteLength":1440,
			"byteOffset":126488,
			"target":34962
		},
		{
			"buffer":0,
			"byteLength":1440,
			"byteOffset":127928,
			"target":34962
		},
		{
			"buffer":0,
			"byteLength":960,
			"byteOffset":129368,
			"target":34962
		},
		{
			"buffer":0,
			"byteLength":4392,
			"byteOffset":130328,
			"target":34962
		},
		{
			"buffer":0,
			"byteLength":4392,
			"byteOffset":134720,
			"target":34962
		},
		{
			"buffer":0,
			"byteLength":2928,
			"byteOffset":139112,
			"target":34962
		},
		{
			"buffer":0,
			"byteLength":732,
			"byteOffset":142040,
			"target":34963
		},
		{
			"buffer":0,
			"byteLength":2448,
			"byteOffset":142772,
			"target":34962
		},
		{
			"buffer":0,
			"byteLength":2448,
			"byteOffset":145220,
			"target":34962
		},
		{
			"buffer":0,
			"byteLength":1632,
			"byteOffset":147668,
			"target":34962
		},
		{
			"buffer":0,
			"byteLength":408,
			"byteOffset":149300,
			"target":34963
		},
		{
			"buffer":0,
			"byteLength":2448,
			"byteOffset":149708,
			"target":34962
		},
		{
			"buffer":0,
			"byteLength":2448,
			"byteOffset":152156,
			"target":34962
		},
		{
			"buffer":0,
			"byteLength":1632,
			"byteOffset":154604,
			"target":34962
		},
		{
			"buffer":0,
			"byteLength":1872,
			"byteOffset":156236,
			"target":34962
		},
		{
			"buffer":0,
			"byteLength":1872,
			"byteOffset":158108,
			"target":34962
		},
		{
			"buffer":0,
			"byteLength":1248,
			"byteOffset":159980,
			"target":34962
		},
		{
			"buffer":0,
			"byteLength":312,
			"byteOffset":161228,
			"target":34963
		},
		{
			"buffer":0,
			"byteLength":720,
			"byteOffset":161540,
			"target":34962
		},
		{
			"buffer":0,
			"byteLength":720,
			"byteOffset":162260,
			"target":34962
		},
		{
			"buffer":0,
			"byteLength":480,
			"byteOffset":162980,
			"target":34962
		}
	],
	"samplers":[
		{
			"magFilter":9729,
			"minFilter":9987
		}
	],
	"buffers":[
		{
			"byteLength":163460,
			"uri":"ab_exit.bin"
		}
	]
}
