{
	"asset":{
		"generator":"Khronos glTF Blender I/O v4.3.47",
		"version":"2.0"
	},
	"extensionsUsed":[
		"KHR_materials_specular"
	],
	"scene":0,
	"scenes":[
		{
			"name":"Scene",
			"nodes":[
				0,
				1,
				2,
				3,
				4,
				5,
				6,
				7,
				8,
				9,
				10,
				11,
				12,
				13,
				14,
				15,
				16,
				17,
				18,
				19,
				20,
				21,
				22,
				23,
				24,
				25,
				26,
				27,
				28,
				29,
				30,
				31,
				32,
				33,
				34,
				35,
				36,
				37,
				38,
				39,
				40,
				41,
				42,
				43
			]
		}
	],
	"nodes":[
		{
			"mesh":0,
			"name":"Scene Root_Box01_Box01-GEODE_TransNorm1_0"
		},
		{
			"mesh":1,
			"name":"Scene Root_Box02_Box02-GEODE_TransNorm1_0"
		},
		{
			"mesh":2,
			"name":"Scene Root_Box04_Box04-GEODE_TransNorm1_0"
		},
		{
			"mesh":3,
			"name":"Scene Root_Box05_Box05-GEODE_TransNorm1_0"
		},
		{
			"mesh":4,
			"name":"Scene Root_Box06_Box06-GEODE_TransNorm1_0"
		},
		{
			"mesh":5,
			"name":"Scene Root_Box17_Box17-GEODE_TransNorm1_0"
		},
		{
			"mesh":6,
			"name":"Scene Root_Cabele_joint_Cabele_joint-GEODE_TransNorm1_0"
		},
		{
			"mesh":7,
			"name":"Scene Root_Console01_Console01-GEODE_TransNorm1_0"
		},
		{
			"mesh":8,
			"name":"Scene Root_Console02_Console02-GEODE_TransNorm1_0"
		},
		{
			"mesh":9,
			"name":"Scene Root_Console03_Console03-GEODE_TransNorm1_0"
		},
		{
			"mesh":10,
			"name":"Scene Root_Cylinder01_Cylinder01-GEODE_TransNorm1_0"
		},
		{
			"mesh":11,
			"name":"Scene Root_Cylinder03_Cylinder03-OFFSET_Cylinder03-GEODE_TransN"
		},
		{
			"mesh":12,
			"name":"Scene Root_Cylinder04_Cylinder04-GEODE_TransNorm1_0"
		},
		{
			"mesh":13,
			"name":"Scene Root_Cylinder05_Cylinder05-OFFSET_Cylinder05-GEODE_TransN"
		},
		{
			"mesh":14,
			"name":"Scene Root_Cylinder06_Cylinder06-GEODE_TransNorm1_0"
		},
		{
			"mesh":15,
			"name":"Scene Root_Cylinder07_Cylinder07-OFFSET_Cylinder07-GEODE_TransN"
		},
		{
			"mesh":16,
			"name":"Scene Root_Cylinder08_Cylinder08-OFFSET_Cylinder08-GEODE_TransN"
		},
		{
			"mesh":17,
			"name":"Scene Root_Cylinder09_Cylinder09-GEODE_TransNorm1_0"
		},
		{
			"mesh":18,
			"name":"Scene Root_Cylinder10_Cylinder10-GEODE_TransNorm1_0"
		},
		{
			"mesh":19,
			"name":"Scene Root_Cylinder14_Cylinder14-GEODE_TransNorm1_0"
		},
		{
			"mesh":20,
			"name":"Scene Root_Cylinder15_Cylinder15-GEODE_TransNorm1_0"
		},
		{
			"mesh":21,
			"name":"Scene Root_Flag_Flag-GEODE_TransNorm1_0"
		},
		{
			"mesh":22,
			"name":"Scene Root_GREEN_Lens_GREEN_Lens-OFFSET_GREEN_Lens-GEODE_TransN"
		},
		{
			"mesh":23,
			"name":"Scene Root_Head_shield_Head_shield-OFFSET_Head_shield-GEODE_Tra"
		},
		{
			"mesh":24,
			"name":"Scene Root_Ladder_Ladder-GEODE_TransNorm1_0"
		},
		{
			"mesh":25,
			"name":"Scene Root_Lamps_module_Lamps_module-OFFSET_Lamps_module-GEODE_"
		},
		{
			"mesh":26,
			"name":"Scene Root_Letter_Letter-OFFSET_Letter-GEODE_TransNorm1_0"
		},
		{
			"mesh":27,
			"name":"Scene Root_LOD_LOD-GEODE_TransNorm1_0"
		},
		{
			"mesh":28,
			"name":"Scene Root_Module_part_Module_part-GEODE_TransNorm1_0"
		},
		{
			"mesh":29,
			"name":"Scene Root_Object011111_Object011111-GEODE_TransNorm1_0"
		},
		{
			"mesh":30,
			"name":"Scene Root_Object01_Object01-OFFSET_Object01-GEODE_TransNorm1_0"
		},
		{
			"mesh":31,
			"name":"Scene Root_Object03_Object03-GEODE_TransNorm1_0"
		},
		{
			"mesh":32,
			"name":"Scene Root_Object04_Object04-OFFSET_Object04-GEODE_TransNorm1_0"
		},
		{
			"mesh":33,
			"name":"Scene Root_Reactor01_Reactor01-GEODE_TransNorm1_0"
		},
		{
			"mesh":34,
			"name":"Scene Root_Reactor02_Reactor02-GEODE_TransNorm1_0"
		},
		{
			"mesh":35,
			"name":"Scene Root_RED_Lens_RED_Lens-OFFSET_RED_Lens-GEODE_TransNorm1_0"
		},
		{
			"mesh":36,
			"name":"Scene Root_Relay_box_Relay_box-GEODE_TransNorm1_0"
		},
		{
			"mesh":37,
			"name":"Scene Root_Signal_Signal-OFFSET_Signal-GEODE_TransNorm1_0"
		},
		{
			"mesh":38,
			"name":"Scene Root_Supply_Supply-GEODE_TransNorm1_0"
		},
		{
			"mesh":39,
			"name":"Scene Root_Timber_Timber-GEODE_TransNorm1_0"
		},
		{
			"mesh":40,
			"name":"Scene Root_Visor01_Visor01-OFFSET_Visor01-GEODE_TransNorm1_0"
		},
		{
			"mesh":41,
			"name":"Scene Root_Visor02_Visor02-OFFSET_Visor02-GEODE_TransNorm1_0"
		},
		{
			"mesh":42,
			"name":"Scene Root_Visor03_Visor03-OFFSET_Visor03-GEODE_TransNorm1_0"
		},
		{
			"mesh":43,
			"name":"Scene Root_YELLOW_Lens_YELLOW_Lens-OFFSET_YELLOW_Lens-GEODE_Tra"
		}
	],
	"materials":[
		{
			"doubleSided":true,
			"extensions":{
				"KHR_materials_specular":{
					"specularFactor":0
				}
			},
			"name":"material_1.002",
			"pbrMetallicRoughness":{
				"baseColorTexture":{
					"index":0
				},
				"metallicFactor":0
			}
		}
	],
	"meshes":[
		{
			"name":"Scene Root_Box01_Box01-GEODE_TransNorm1_0",
			"primitives":[
				{
					"attributes":{
						"POSITION":0,
						"NORMAL":1,
						"TEXCOORD_0":2
					},
					"indices":3,
					"material":0
				}
			]
		},
		{
			"name":"Scene Root_Box02_Box02-GEODE_TransNorm1_0.001",
			"primitives":[
				{
					"attributes":{
						"POSITION":4,
						"NORMAL":5,
						"TEXCOORD_0":6
					},
					"indices":3,
					"material":0
				}
			]
		},
		{
			"name":"Scene Root_Box04_Box04-GEODE_TransNorm1_0.002",
			"primitives":[
				{
					"attributes":{
						"POSITION":7,
						"NORMAL":8,
						"TEXCOORD_0":9
					},
					"indices":10,
					"material":0
				}
			]
		},
		{
			"name":"Scene Root_Box05_Box05-GEODE_TransNorm1_0.002",
			"primitives":[
				{
					"attributes":{
						"POSITION":11,
						"NORMAL":12,
						"TEXCOORD_0":13
					},
					"indices":3,
					"material":0
				}
			]
		},
		{
			"name":"Scene Root_Box06_Box06-GEODE_TransNorm1_0",
			"primitives":[
				{
					"attributes":{
						"POSITION":14,
						"NORMAL":15,
						"TEXCOORD_0":16
					},
					"indices":17,
					"material":0
				}
			]
		},
		{
			"name":"Scene Root_Box17_Box17-GEODE_TransNorm1_0.002",
			"primitives":[
				{
					"attributes":{
						"POSITION":18,
						"NORMAL":19,
						"TEXCOORD_0":20
					},
					"indices":21,
					"material":0
				}
			]
		},
		{
			"name":"Scene Root_Cabele_joint_Cabele_joint-GEODE_TransNorm1_0",
			"primitives":[
				{
					"attributes":{
						"POSITION":22,
						"NORMAL":23,
						"TEXCOORD_0":24
					},
					"indices":25,
					"material":0
				}
			]
		},
		{
			"name":"Scene Root_Console01_Console01-GEODE_TransNorm1_0",
			"primitives":[
				{
					"attributes":{
						"POSITION":26,
						"NORMAL":27,
						"TEXCOORD_0":28
					},
					"indices":29,
					"material":0
				}
			]
		},
		{
			"name":"Scene Root_Console02_Console02-GEODE_TransNorm1_0",
			"primitives":[
				{
					"attributes":{
						"POSITION":30,
						"NORMAL":31,
						"TEXCOORD_0":32
					},
					"indices":29,
					"material":0
				}
			]
		},
		{
			"name":"Scene Root_Console03_Console03-GEODE_TransNorm1_0",
			"primitives":[
				{
					"attributes":{
						"POSITION":33,
						"NORMAL":34,
						"TEXCOORD_0":35
					},
					"indices":29,
					"material":0
				}
			]
		},
		{
			"name":"Scene Root_Cylinder01_Cylinder01-GEODE_TransNorm1_0.002",
			"primitives":[
				{
					"attributes":{
						"POSITION":36,
						"NORMAL":37,
						"TEXCOORD_0":38
					},
					"indices":39,
					"material":0
				}
			]
		},
		{
			"name":"Scene Root_Cylinder03_Cylinder03-OFFSET_Cylinder03-GEODE_Tr.001",
			"primitives":[
				{
					"attributes":{
						"POSITION":40,
						"NORMAL":41,
						"TEXCOORD_0":42
					},
					"indices":43,
					"material":0
				}
			]
		},
		{
			"name":"Scene Root_Cylinder04_Cylinder04-GEODE_TransNorm1_0",
			"primitives":[
				{
					"attributes":{
						"POSITION":44,
						"NORMAL":45,
						"TEXCOORD_0":46
					},
					"indices":10,
					"material":0
				}
			]
		},
		{
			"name":"Scene Root_Cylinder05_Cylinder05-OFFSET_Cylinder05-GEODE_Tr.001",
			"primitives":[
				{
					"attributes":{
						"POSITION":47,
						"NORMAL":48,
						"TEXCOORD_0":49
					},
					"indices":43,
					"material":0
				}
			]
		},
		{
			"name":"Scene Root_Cylinder06_Cylinder06-GEODE_TransNorm1_0.002",
			"primitives":[
				{
					"attributes":{
						"POSITION":50,
						"NORMAL":51,
						"TEXCOORD_0":52
					},
					"indices":3,
					"material":0
				}
			]
		},
		{
			"name":"Scene Root_Cylinder07_Cylinder07-OFFSET_Cylinder07-GEODE_Tr.001",
			"primitives":[
				{
					"attributes":{
						"POSITION":53,
						"NORMAL":54,
						"TEXCOORD_0":55
					},
					"indices":56,
					"material":0
				}
			]
		},
		{
			"name":"Scene Root_Cylinder08_Cylinder08-OFFSET_Cylinder08-GEODE_Tr.001",
			"primitives":[
				{
					"attributes":{
						"POSITION":57,
						"NORMAL":58,
						"TEXCOORD_0":59
					},
					"indices":10,
					"material":0
				}
			]
		},
		{
			"name":"Scene Root_Cylinder09_Cylinder09-GEODE_TransNorm1_0",
			"primitives":[
				{
					"attributes":{
						"POSITION":60,
						"NORMAL":61,
						"TEXCOORD_0":62
					},
					"indices":63,
					"material":0
				}
			]
		},
		{
			"name":"Scene Root_Cylinder10_Cylinder10-GEODE_TransNorm1_0",
			"primitives":[
				{
					"attributes":{
						"POSITION":64,
						"NORMAL":65,
						"TEXCOORD_0":66
					},
					"indices":63,
					"material":0
				}
			]
		},
		{
			"name":"Scene Root_Cylinder14_Cylinder14-GEODE_TransNorm1_0.002",
			"primitives":[
				{
					"attributes":{
						"POSITION":67,
						"NORMAL":68,
						"TEXCOORD_0":69
					},
					"indices":70,
					"material":0
				}
			]
		},
		{
			"name":"Scene Root_Cylinder15_Cylinder15-GEODE_TransNorm1_0.002",
			"primitives":[
				{
					"attributes":{
						"POSITION":71,
						"NORMAL":72,
						"TEXCOORD_0":73
					},
					"indices":17,
					"material":0
				}
			]
		},
		{
			"name":"Scene Root_Flag_Flag-GEODE_TransNorm1_0",
			"primitives":[
				{
					"attributes":{
						"POSITION":74,
						"NORMAL":75,
						"TEXCOORD_0":76
					},
					"indices":70,
					"material":0
				}
			]
		},
		{
			"name":"Scene Root_GREEN_Lens_GREEN_Lens-OFFSET_GREEN_Lens-GEODE_Tr.001",
			"primitives":[
				{
					"attributes":{
						"POSITION":77,
						"NORMAL":78,
						"TEXCOORD_0":79
					},
					"indices":80,
					"material":0
				}
			]
		},
		{
			"name":"Scene Root_Head_shield_Head_shield-OFFSET_Head_shield-GEODE_Tra",
			"primitives":[
				{
					"attributes":{
						"POSITION":81,
						"NORMAL":82,
						"TEXCOORD_0":83
					},
					"indices":84,
					"material":0
				}
			]
		},
		{
			"name":"Scene Root_Ladder_Ladder-GEODE_TransNorm1_0",
			"primitives":[
				{
					"attributes":{
						"POSITION":85,
						"NORMAL":86,
						"TEXCOORD_0":87
					},
					"indices":88,
					"material":0
				}
			]
		},
		{
			"name":"Scene Root_Lamps_module_Lamps_module-OFFSET_Lamps_module-GEODE_",
			"primitives":[
				{
					"attributes":{
						"POSITION":89,
						"NORMAL":90,
						"TEXCOORD_0":91
					},
					"indices":92,
					"material":0
				}
			]
		},
		{
			"name":"Scene Root_Letter_Letter-OFFSET_Letter-GEODE_TransNorm1_0",
			"primitives":[
				{
					"attributes":{
						"POSITION":93,
						"NORMAL":94,
						"TEXCOORD_0":95
					},
					"indices":96,
					"material":0
				}
			]
		},
		{
			"name":"Scene Root_LOD_LOD-GEODE_TransNorm1_0",
			"primitives":[
				{
					"attributes":{
						"POSITION":97,
						"NORMAL":98,
						"TEXCOORD_0":99
					},
					"indices":100,
					"material":0
				}
			]
		},
		{
			"name":"Scene Root_Module_part_Module_part-GEODE_TransNorm1_0",
			"primitives":[
				{
					"attributes":{
						"POSITION":101,
						"NORMAL":102,
						"TEXCOORD_0":103
					},
					"indices":70,
					"material":0
				}
			]
		},
		{
			"name":"Scene Root_Object011111_Object011111-GEODE_TransNorm1_0",
			"primitives":[
				{
					"attributes":{
						"POSITION":104,
						"NORMAL":105,
						"TEXCOORD_0":106
					},
					"indices":107,
					"material":0
				}
			]
		},
		{
			"name":"Scene Root_Object01_Object01-OFFSET_Object01-GEODE_TransNor",
			"primitives":[
				{
					"attributes":{
						"POSITION":108,
						"NORMAL":109,
						"TEXCOORD_0":110
					},
					"indices":96,
					"material":0
				}
			]
		},
		{
			"name":"Scene Root_Object03_Object03-GEODE_TransNorm1_0.001",
			"primitives":[
				{
					"attributes":{
						"POSITION":111,
						"NORMAL":112,
						"TEXCOORD_0":113
					},
					"indices":107,
					"material":0
				}
			]
		},
		{
			"name":"Scene Root_Object04_Object04-OFFSET_Object04-GEODE_TransNorm1_0",
			"primitives":[
				{
					"attributes":{
						"POSITION":114,
						"NORMAL":115,
						"TEXCOORD_0":116
					},
					"indices":107,
					"material":0
				}
			]
		},
		{
			"name":"Scene Root_Reactor01_Reactor01-GEODE_TransNorm1_0",
			"primitives":[
				{
					"attributes":{
						"POSITION":117,
						"NORMAL":118,
						"TEXCOORD_0":119
					},
					"indices":84,
					"material":0
				}
			]
		},
		{
			"name":"Scene Root_Reactor02_Reactor02-GEODE_TransNorm1_0",
			"primitives":[
				{
					"attributes":{
						"POSITION":120,
						"NORMAL":121,
						"TEXCOORD_0":122
					},
					"indices":84,
					"material":0
				}
			]
		},
		{
			"name":"Scene Root_RED_Lens_RED_Lens-OFFSET_RED_Lens-GEODE_TransNor.001",
			"primitives":[
				{
					"attributes":{
						"POSITION":123,
						"NORMAL":124,
						"TEXCOORD_0":125
					},
					"indices":80,
					"material":0
				}
			]
		},
		{
			"name":"Scene Root_Relay_box_Relay_box-GEODE_TransNorm1_0",
			"primitives":[
				{
					"attributes":{
						"POSITION":126,
						"NORMAL":127,
						"TEXCOORD_0":128
					},
					"indices":56,
					"material":0
				}
			]
		},
		{
			"name":"Scene Root_Signal_Signal-OFFSET_Signal-GEODE_TransNorm1_0.002",
			"primitives":[
				{
					"attributes":{
						"POSITION":129,
						"NORMAL":130,
						"TEXCOORD_0":131
					},
					"indices":132,
					"material":0
				}
			]
		},
		{
			"name":"Scene Root_Supply_Supply-GEODE_TransNorm1_0",
			"primitives":[
				{
					"attributes":{
						"POSITION":133,
						"NORMAL":134,
						"TEXCOORD_0":135
					},
					"indices":136,
					"material":0
				}
			]
		},
		{
			"name":"Scene Root_Timber_Timber-GEODE_TransNorm1_0",
			"primitives":[
				{
					"attributes":{
						"POSITION":137,
						"NORMAL":138,
						"TEXCOORD_0":139
					},
					"indices":80,
					"material":0
				}
			]
		},
		{
			"name":"Scene Root_Visor01_Visor01-OFFSET_Visor01-GEODE_TransNorm1_0",
			"primitives":[
				{
					"attributes":{
						"POSITION":140,
						"NORMAL":141,
						"TEXCOORD_0":142
					},
					"indices":143,
					"material":0
				}
			]
		},
		{
			"name":"Scene Root_Visor02_Visor02-OFFSET_Visor02-GEODE_TransNorm1_0",
			"primitives":[
				{
					"attributes":{
						"POSITION":144,
						"NORMAL":145,
						"TEXCOORD_0":146
					},
					"indices":143,
					"material":0
				}
			]
		},
		{
			"name":"Scene Root_Visor03_Visor03-OFFSET_Visor03-GEODE_TransNorm1_0",
			"primitives":[
				{
					"attributes":{
						"POSITION":147,
						"NORMAL":148,
						"TEXCOORD_0":149
					},
					"indices":143,
					"material":0
				}
			]
		},
		{
			"name":"Scene Root_YELLOW_Lens_YELLOW_Lens-OFFSET_YELLOW_Lens-GEODE.001",
			"primitives":[
				{
					"attributes":{
						"POSITION":150,
						"NORMAL":151,
						"TEXCOORD_0":152
					},
					"indices":80,
					"material":0
				}
			]
		}
	],
	"textures":[
		{
			"sampler":0,
			"source":0
		}
	],
	"images":[
		{
			"mimeType":"image/png",
			"name":"IMRsvetofor",
			"uri":"IMRsvetofor.png"
		}
	],
	"accessors":[
		{
			"bufferView":0,
			"componentType":5126,
			"count":36,
			"max":[
				0.13915345072746277,
				4.647251129150391,
				-0.5184411406517029
			],
			"min":[
				-0.12966039776802063,
				4.456019878387451,
				-0.5606714487075806
			],
			"type":"VEC3"
		},
		{
			"bufferView":1,
			"componentType":5126,
			"count":36,
			"type":"VEC3"
		},
		{
			"bufferView":2,
			"componentType":5126,
			"count":36,
			"type":"VEC2"
		},
		{
			"bufferView":3,
			"componentType":5123,
			"count":36,
			"type":"SCALAR"
		},
		{
			"bufferView":4,
			"componentType":5126,
			"count":36,
			"max":[
				0.13915345072746277,
				5.86184024810791,
				-0.5190221071243286
			],
			"min":[
				-0.12966039776802063,
				5.748149871826172,
				-0.5612524151802063
			],
			"type":"VEC3"
		},
		{
			"bufferView":5,
			"componentType":5126,
			"count":36,
			"type":"VEC3"
		},
		{
			"bufferView":6,
			"componentType":5126,
			"count":36,
			"type":"VEC2"
		},
		{
			"bufferView":7,
			"componentType":5126,
			"count":48,
			"max":[
				0.4003046751022339,
				5.415194034576416,
				-0.050455499440431595
			],
			"min":[
				-0.38901907205581665,
				4.927279949188232,
				-0.18239188194274902
			],
			"type":"VEC3"
		},
		{
			"bufferView":8,
			"componentType":5126,
			"count":48,
			"type":"VEC3"
		},
		{
			"bufferView":9,
			"componentType":5126,
			"count":48,
			"type":"VEC2"
		},
		{
			"bufferView":10,
			"componentType":5123,
			"count":48,
			"type":"SCALAR"
		},
		{
			"bufferView":11,
			"componentType":5126,
			"count":36,
			"max":[
				0.11216100305318832,
				0.8235980272293091,
				-0.41396650671958923
			],
			"min":[
				-0.11216100305318832,
				0.5044069886207581,
				-0.5636234879493713
			],
			"type":"VEC3"
		},
		{
			"bufferView":12,
			"componentType":5126,
			"count":36,
			"type":"VEC3"
		},
		{
			"bufferView":13,
			"componentType":5126,
			"count":36,
			"type":"VEC2"
		},
		{
			"bufferView":14,
			"componentType":5126,
			"count":72,
			"max":[
				0.38593199849128723,
				5.476685047149658,
				0.5372602939605713
			],
			"min":[
				-0.38118603825569153,
				4.753429889678955,
				-0.04904000088572502
			],
			"type":"VEC3"
		},
		{
			"bufferView":15,
			"componentType":5126,
			"count":72,
			"type":"VEC3"
		},
		{
			"bufferView":16,
			"componentType":5126,
			"count":72,
			"type":"VEC2"
		},
		{
			"bufferView":17,
			"componentType":5123,
			"count":72,
			"type":"SCALAR"
		},
		{
			"bufferView":18,
			"componentType":5126,
			"count":96,
			"max":[
				0.7890575528144836,
				0.28478479385375977,
				-3.4652674198150635
			],
			"min":[
				0.2581143379211426,
				-0.3154911994934082,
				-4.205653190612793
			],
			"type":"VEC3"
		},
		{
			"bufferView":19,
			"componentType":5126,
			"count":96,
			"type":"VEC3"
		},
		{
			"bufferView":20,
			"componentType":5126,
			"count":96,
			"type":"VEC2"
		},
		{
			"bufferView":21,
			"componentType":5123,
			"count":96,
			"type":"SCALAR"
		},
		{
			"bufferView":22,
			"componentType":5126,
			"count":132,
			"max":[
				0.08890984207391739,
				0.2401924431324005,
				-0.08152638375759125
			],
			"min":[
				-0.08890984207391739,
				0,
				-0.5631027221679688
			],
			"type":"VEC3"
		},
		{
			"bufferView":23,
			"componentType":5126,
			"count":132,
			"type":"VEC3"
		},
		{
			"bufferView":24,
			"componentType":5126,
			"count":132,
			"type":"VEC2"
		},
		{
			"bufferView":25,
			"componentType":5123,
			"count":132,
			"type":"SCALAR"
		},
		{
			"bufferView":26,
			"componentType":5126,
			"count":66,
			"max":[
				0.1390131413936615,
				4.502384185791016,
				-0.5594339966773987
			],
			"min":[
				-0.12962985038757324,
				4.470469951629639,
				-0.7958700060844421
			],
			"type":"VEC3"
		},
		{
			"bufferView":27,
			"componentType":5126,
			"count":66,
			"type":"VEC3"
		},
		{
			"bufferView":28,
			"componentType":5126,
			"count":66,
			"type":"VEC2"
		},
		{
			"bufferView":29,
			"componentType":5123,
			"count":66,
			"type":"SCALAR"
		},
		{
			"bufferView":30,
			"componentType":5126,
			"count":66,
			"max":[
				0.1390131413936615,
				4.631124496459961,
				-0.5594339966773987
			],
			"min":[
				-0.12962985038757324,
				4.599209785461426,
				-0.7958700060844421
			],
			"type":"VEC3"
		},
		{
			"bufferView":31,
			"componentType":5126,
			"count":66,
			"type":"VEC3"
		},
		{
			"bufferView":32,
			"componentType":5126,
			"count":66,
			"type":"VEC2"
		},
		{
			"bufferView":33,
			"componentType":5126,
			"count":66,
			"max":[
				0.1390131413936615,
				5.82181453704834,
				-0.5606769919395447
			],
			"min":[
				-0.12962985038757324,
				5.789899826049805,
				-0.7895939946174622
			],
			"type":"VEC3"
		},
		{
			"bufferView":34,
			"componentType":5126,
			"count":66,
			"type":"VEC3"
		},
		{
			"bufferView":35,
			"componentType":5126,
			"count":66,
			"type":"VEC2"
		},
		{
			"bufferView":36,
			"componentType":5126,
			"count":240,
			"max":[
				0.3493461012840271,
				4.900050163269043,
				-0.11113918572664261
			],
			"min":[
				-0.011465063318610191,
				4.337162971496582,
				-0.5789188146591187
			],
			"type":"VEC3"
		},
		{
			"bufferView":37,
			"componentType":5126,
			"count":240,
			"type":"VEC3"
		},
		{
			"bufferView":38,
			"componentType":5126,
			"count":240,
			"type":"VEC2"
		},
		{
			"bufferView":39,
			"componentType":5123,
			"count":240,
			"type":"SCALAR"
		},
		{
			"bufferView":40,
			"componentType":5126,
			"count":90,
			"max":[
				0.13950030505657196,
				4.574493408203125,
				-0.09086236357688904
			],
			"min":[
				-0.12975475192070007,
				4.525190830230713,
				-0.5193937420845032
			],
			"type":"VEC3"
		},
		{
			"bufferView":41,
			"componentType":5126,
			"count":90,
			"type":"VEC3"
		},
		{
			"bufferView":42,
			"componentType":5126,
			"count":90,
			"type":"VEC2"
		},
		{
			"bufferView":43,
			"componentType":5123,
			"count":90,
			"type":"SCALAR"
		},
		{
			"bufferView":44,
			"componentType":5126,
			"count":48,
			"max":[
				0.08817704766988754,
				4.6016669273376465,
				-0.09071025997400284
			],
			"min":[
				-0.0748635083436966,
				4.573450088500977,
				-0.2789737284183502
			],
			"type":"VEC3"
		},
		{
			"bufferView":45,
			"componentType":5126,
			"count":48,
			"type":"VEC3"
		},
		{
			"bufferView":46,
			"componentType":5126,
			"count":48,
			"type":"VEC2"
		},
		{
			"bufferView":47,
			"componentType":5126,
			"count":90,
			"max":[
				0.13950030505657196,
				5.787726402282715,
				-0.22384458780288696
			],
			"min":[
				-0.12975475192070007,
				5.748117446899414,
				-0.5192942023277283
			],
			"type":"VEC3"
		},
		{
			"bufferView":48,
			"componentType":5126,
			"count":90,
			"type":"VEC3"
		},
		{
			"bufferView":49,
			"componentType":5126,
			"count":90,
			"type":"VEC2"
		},
		{
			"bufferView":50,
			"componentType":5126,
			"count":36,
			"max":[
				0.020485201850533485,
				5.717098236083984,
				-0.04839834198355675
			],
			"min":[
				-0.0190202035009861,
				5.622389316558838,
				-0.12354788929224014
			],
			"type":"VEC3"
		},
		{
			"bufferView":51,
			"componentType":5126,
			"count":36,
			"type":"VEC3"
		},
		{
			"bufferView":52,
			"componentType":5126,
			"count":36,
			"type":"VEC2"
		},
		{
			"bufferView":53,
			"componentType":5126,
			"count":60,
			"max":[
				0.00972574483603239,
				5.686390399932861,
				-0.08710696548223495
			],
			"min":[
				-0.009725818410515785,
				5.663929462432861,
				-0.36990830302238464
			],
			"type":"VEC3"
		},
		{
			"bufferView":54,
			"componentType":5126,
			"count":60,
			"type":"VEC3"
		},
		{
			"bufferView":55,
			"componentType":5126,
			"count":60,
			"type":"VEC2"
		},
		{
			"bufferView":56,
			"componentType":5123,
			"count":60,
			"type":"SCALAR"
		},
		{
			"bufferView":57,
			"componentType":5126,
			"count":48,
			"max":[
				0.009725755080580711,
				5.835331916809082,
				-0.25789669156074524
			],
			"min":[
				-0.009725800715386868,
				5.670779228210449,
				-0.28035736083984375
			],
			"type":"VEC3"
		},
		{
			"bufferView":58,
			"componentType":5126,
			"count":48,
			"type":"VEC3"
		},
		{
			"bufferView":59,
			"componentType":5126,
			"count":48,
			"type":"VEC2"
		},
		{
			"bufferView":60,
			"componentType":5126,
			"count":108,
			"max":[
				0.12003869563341141,
				4.211559772491455,
				-0.5700182318687439
			],
			"min":[
				-0.11182402074337006,
				4.186069965362549,
				-0.8720278739929199
			],
			"type":"VEC3"
		},
		{
			"bufferView":61,
			"componentType":5126,
			"count":108,
			"type":"VEC3"
		},
		{
			"bufferView":62,
			"componentType":5126,
			"count":108,
			"type":"VEC2"
		},
		{
			"bufferView":63,
			"componentType":5123,
			"count":108,
			"type":"SCALAR"
		},
		{
			"bufferView":64,
			"componentType":5126,
			"count":108,
			"max":[
				0.1312563270330429,
				0.17657078802585602,
				-0.5596517324447632
			],
			"min":[
				-0.1230398640036583,
				0.14861492812633514,
				-0.8720278739929199
			],
			"type":"VEC3"
		},
		{
			"bufferView":65,
			"componentType":5126,
			"count":108,
			"type":"VEC3"
		},
		{
			"bufferView":66,
			"componentType":5126,
			"count":108,
			"type":"VEC2"
		},
		{
			"bufferView":67,
			"componentType":5126,
			"count":24,
			"max":[
				0.01958250068128109,
				0.5131959319114685,
				-0.47049349546432495
			],
			"min":[
				-0.01958250068128109,
				0.0953044593334198,
				-0.5096585154533386
			],
			"type":"VEC3"
		},
		{
			"bufferView":68,
			"componentType":5126,
			"count":24,
			"type":"VEC3"
		},
		{
			"bufferView":69,
			"componentType":5126,
			"count":24,
			"type":"VEC2"
		},
		{
			"bufferView":70,
			"componentType":5123,
			"count":24,
			"type":"SCALAR"
		},
		{
			"bufferView":71,
			"componentType":5126,
			"count":72,
			"max":[
				0.12003869563341141,
				3.294489622116089,
				-0.5700182318687439
			],
			"min":[
				-0.11182402074337006,
				3.2690000534057617,
				-0.7960821390151978
			],
			"type":"VEC3"
		},
		{
			"bufferView":72,
			"componentType":5126,
			"count":72,
			"type":"VEC3"
		},
		{
			"bufferView":73,
			"componentType":5126,
			"count":72,
			"type":"VEC2"
		},
		{
			"bufferView":74,
			"componentType":5126,
			"count":24,
			"max":[
				0.06042899563908577,
				1.661972999572754,
				-2.0080299377441406
			],
			"min":[
				-0.20642000436782837,
				0.34765997529029846,
				-2.0081300735473633
			],
			"type":"VEC3"
		},
		{
			"bufferView":75,
			"componentType":5126,
			"count":24,
			"type":"VEC3"
		},
		{
			"bufferView":76,
			"componentType":5126,
			"count":24,
			"type":"VEC2"
		},
		{
			"bufferView":77,
			"componentType":5126,
			"count":30,
			"max":[
				0.14182689785957336,
				5.257511138916016,
				-0.008046870119869709
			],
			"min":[
				-0.13754934072494507,
				4.991808891296387,
				-0.05343403294682503
			],
			"type":"VEC3"
		},
		{
			"bufferView":78,
			"componentType":5126,
			"count":30,
			"type":"VEC3"
		},
		{
			"bufferView":79,
			"componentType":5126,
			"count":30,
			"type":"VEC2"
		},
		{
			"bufferView":80,
			"componentType":5123,
			"count":30,
			"type":"SCALAR"
		},
		{
			"bufferView":81,
			"componentType":5126,
			"count":84,
			"max":[
				0.4235384464263916,
				5.919129848480225,
				-0.048299774527549744
			],
			"min":[
				-0.421344518661499,
				4.412250518798828,
				-0.05609661340713501
			],
			"type":"VEC3"
		},
		{
			"bufferView":82,
			"componentType":5126,
			"count":84,
			"type":"VEC3"
		},
		{
			"bufferView":83,
			"componentType":5126,
			"count":84,
			"type":"VEC2"
		},
		{
			"bufferView":84,
			"componentType":5123,
			"count":84,
			"type":"SCALAR"
		},
		{
			"bufferView":85,
			"componentType":5126,
			"count":180,
			"max":[
				0.013128199614584446,
				5.0389604568481445,
				-0.872002363204956
			],
			"min":[
				-0.013128199614584446,
				0,
				-1.1910642385482788
			],
			"type":"VEC3"
		},
		{
			"bufferView":86,
			"componentType":5126,
			"count":180,
			"type":"VEC3"
		},
		{
			"bufferView":87,
			"componentType":5126,
			"count":180,
			"type":"VEC2"
		},
		{
			"bufferView":88,
			"componentType":5123,
			"count":180,
			"type":"SCALAR"
		},
		{
			"bufferView":89,
			"componentType":5126,
			"count":204,
			"max":[
				0.14459669589996338,
				5.625354290008545,
				-0.048971328884363174
			],
			"min":[
				-0.1436416506767273,
				4.630964756011963,
				-0.2625277638435364
			],
			"type":"VEC3"
		},
		{
			"bufferView":90,
			"componentType":5126,
			"count":204,
			"type":"VEC3"
		},
		{
			"bufferView":91,
			"componentType":5126,
			"count":204,
			"type":"VEC2"
		},
		{
			"bufferView":92,
			"componentType":5123,
			"count":204,
			"type":"SCALAR"
		},
		{
			"bufferView":93,
			"componentType":5126,
			"count":6,
			"max":[
				-0.14130878448486328,
				3.867962598800659,
				-0.667428195476532
			],
			"min":[
				-0.31026819348335266,
				3.632582187652588,
				-0.6675715446472168
			],
			"type":"VEC3"
		},
		{
			"bufferView":94,
			"componentType":5126,
			"count":6,
			"type":"VEC3"
		},
		{
			"bufferView":95,
			"componentType":5126,
			"count":6,
			"type":"VEC2"
		},
		{
			"bufferView":96,
			"componentType":5123,
			"count":6,
			"type":"SCALAR"
		},
		{
			"bufferView":97,
			"componentType":5126,
			"count":657,
			"max":[
				0.83815598487854,
				6.0489702224731445,
				0.8766890168190002
			],
			"min":[
				-0.42134401202201843,
				-0.3154909908771515,
				-4.311110019683838
			],
			"type":"VEC3"
		},
		{
			"bufferView":98,
			"componentType":5126,
			"count":657,
			"type":"VEC3"
		},
		{
			"bufferView":99,
			"componentType":5126,
			"count":657,
			"type":"VEC2"
		},
		{
			"bufferView":100,
			"componentType":5123,
			"count":657,
			"type":"SCALAR"
		},
		{
			"bufferView":101,
			"componentType":5126,
			"count":24,
			"max":[
				0.14302599430084229,
				4.739344596862793,
				-0.09598410129547119
			],
			"min":[
				-0.14302599430084229,
				4.602250099182129,
				-0.17021389305591583
			],
			"type":"VEC3"
		},
		{
			"bufferView":102,
			"componentType":5126,
			"count":24,
			"type":"VEC3"
		},
		{
			"bufferView":103,
			"componentType":5126,
			"count":24,
			"type":"VEC2"
		},
		{
			"bufferView":104,
			"componentType":5126,
			"count":12,
			"max":[
				-0.10690129548311234,
				3.2941701412200928,
				-0.6700134873390198
			],
			"min":[
				-0.21877996623516083,
				3.2697877883911133,
				-0.6701083779335022
			],
			"type":"VEC3"
		},
		{
			"bufferView":105,
			"componentType":5126,
			"count":12,
			"type":"VEC3"
		},
		{
			"bufferView":106,
			"componentType":5126,
			"count":12,
			"type":"VEC2"
		},
		{
			"bufferView":107,
			"componentType":5123,
			"count":12,
			"type":"SCALAR"
		},
		{
			"bufferView":108,
			"componentType":5126,
			"count":6,
			"max":[
				-0.1412821263074875,
				3.867962598800659,
				-0.6692574620246887
			],
			"min":[
				-0.3102100193500519,
				3.632582187652588,
				-0.6694008111953735
			],
			"type":"VEC3"
		},
		{
			"bufferView":109,
			"componentType":5126,
			"count":6,
			"type":"VEC3"
		},
		{
			"bufferView":110,
			"componentType":5126,
			"count":6,
			"type":"VEC2"
		},
		{
			"bufferView":111,
			"componentType":5126,
			"count":12,
			"max":[
				-0.10690129548311234,
				4.212340354919434,
				-0.6700134873390198
			],
			"min":[
				-0.21877996623516083,
				4.187957763671875,
				-0.6701083779335022
			],
			"type":"VEC3"
		},
		{
			"bufferView":112,
			"componentType":5126,
			"count":12,
			"type":"VEC3"
		},
		{
			"bufferView":113,
			"componentType":5126,
			"count":12,
			"type":"VEC2"
		},
		{
			"bufferView":114,
			"componentType":5126,
			"count":12,
			"max":[
				-0.21011154353618622,
				4.211866855621338,
				-0.6700143814086914
			],
			"min":[
				-0.2344939261674881,
				3.2702255249023438,
				-0.6701092720031738
			],
			"type":"VEC3"
		},
		{
			"bufferView":115,
			"componentType":5126,
			"count":12,
			"type":"VEC3"
		},
		{
			"bufferView":116,
			"componentType":5126,
			"count":12,
			"type":"VEC2"
		},
		{
			"bufferView":117,
			"componentType":5126,
			"count":84,
			"max":[
				0.24282191693782806,
				0.32821962237358093,
				-2.5884101390838623
			],
			"min":[
				-0.24547162652015686,
				-0.0023426415864378214,
				-2.9701099395751953
			],
			"type":"VEC3"
		},
		{
			"bufferView":118,
			"componentType":5126,
			"count":84,
			"type":"VEC3"
		},
		{
			"bufferView":119,
			"componentType":5126,
			"count":84,
			"type":"VEC2"
		},
		{
			"bufferView":120,
			"componentType":5126,
			"count":84,
			"max":[
				0.24282191693782806,
				0.32821962237358093,
				-2.0255000591278076
			],
			"min":[
				-0.24547162652015686,
				-0.0023426415864378214,
				-2.4071998596191406
			],
			"type":"VEC3"
		},
		{
			"bufferView":121,
			"componentType":5126,
			"count":84,
			"type":"VEC3"
		},
		{
			"bufferView":122,
			"componentType":5126,
			"count":84,
			"type":"VEC2"
		},
		{
			"bufferView":123,
			"componentType":5126,
			"count":30,
			"max":[
				0.14182689785957336,
				4.918111324310303,
				-0.008046870119869709
			],
			"min":[
				-0.13754934072494507,
				4.652408599853516,
				-0.05343403294682503
			],
			"type":"VEC3"
		},
		{
			"bufferView":124,
			"componentType":5126,
			"count":30,
			"type":"VEC3"
		},
		{
			"bufferView":125,
			"componentType":5126,
			"count":30,
			"type":"VEC2"
		},
		{
			"bufferView":126,
			"componentType":5126,
			"count":60,
			"max":[
				0.8381566405296326,
				1.9369913339614868,
				-3.332716226577759
			],
			"min":[
				0.19908733665943146,
				0.28516900539398193,
				-4.3111114501953125
			],
			"type":"VEC3"
		},
		{
			"bufferView":127,
			"componentType":5126,
			"count":60,
			"type":"VEC3"
		},
		{
			"bufferView":128,
			"componentType":5126,
			"count":60,
			"type":"VEC2"
		},
		{
			"bufferView":129,
			"componentType":5126,
			"count":57,
			"max":[
				0.12960796058177948,
				6.0489702224731445,
				-0.5612639784812927
			],
			"min":[
				-0.12152104079723358,
				0,
				-0.8061379790306091
			],
			"type":"VEC3"
		},
		{
			"bufferView":130,
			"componentType":5126,
			"count":57,
			"type":"VEC3"
		},
		{
			"bufferView":131,
			"componentType":5126,
			"count":57,
			"type":"VEC2"
		},
		{
			"bufferView":132,
			"componentType":5123,
			"count":57,
			"type":"SCALAR"
		},
		{
			"bufferView":133,
			"componentType":5126,
			"count":294,
			"max":[
				-0.23031996190547943,
				0.26024100184440613,
				-2.0976500511169434
			],
			"min":[
				-3.757079839706421,
				0.08678899705410004,
				-2.906162977218628
			],
			"type":"VEC3"
		},
		{
			"bufferView":134,
			"componentType":5126,
			"count":294,
			"type":"VEC3"
		},
		{
			"bufferView":135,
			"componentType":5126,
			"count":294,
			"type":"VEC2"
		},
		{
			"bufferView":136,
			"componentType":5123,
			"count":294,
			"type":"SCALAR"
		},
		{
			"bufferView":137,
			"componentType":5126,
			"count":30,
			"max":[
				-0.606341540813446,
				0.12355533987283707,
				-2.031191110610962
			],
			"min":[
				-0.7874584197998047,
				0,
				-2.9646315574645996
			],
			"type":"VEC3"
		},
		{
			"bufferView":138,
			"componentType":5126,
			"count":30,
			"type":"VEC3"
		},
		{
			"bufferView":139,
			"componentType":5126,
			"count":30,
			"type":"VEC2"
		},
		{
			"bufferView":140,
			"componentType":5126,
			"count":120,
			"max":[
				0.20182721316814423,
				5.596272945404053,
				0.8766875863075256
			],
			"min":[
				-0.19807861745357513,
				5.351826190948486,
				-0.04830830916762352
			],
			"type":"VEC3"
		},
		{
			"bufferView":141,
			"componentType":5126,
			"count":120,
			"type":"VEC3"
		},
		{
			"bufferView":142,
			"componentType":5126,
			"count":120,
			"type":"VEC2"
		},
		{
			"bufferView":143,
			"componentType":5123,
			"count":120,
			"type":"SCALAR"
		},
		{
			"bufferView":144,
			"componentType":5126,
			"count":120,
			"max":[
				0.20182721316814423,
				5.248902797698975,
				0.8766875863075256
			],
			"min":[
				-0.19807861745357513,
				5.004456043243408,
				-0.04830830916762352
			],
			"type":"VEC3"
		},
		{
			"bufferView":145,
			"componentType":5126,
			"count":120,
			"type":"VEC3"
		},
		{
			"bufferView":146,
			"componentType":5126,
			"count":120,
			"type":"VEC2"
		},
		{
			"bufferView":147,
			"componentType":5126,
			"count":120,
			"max":[
				0.20182721316814423,
				4.911983013153076,
				0.8766875863075256
			],
			"min":[
				-0.19807861745357513,
				4.66753625869751,
				-0.04830831289291382
			],
			"type":"VEC3"
		},
		{
			"bufferView":148,
			"componentType":5126,
			"count":120,
			"type":"VEC3"
		},
		{
			"bufferView":149,
			"componentType":5126,
			"count":120,
			"type":"VEC2"
		},
		{
			"bufferView":150,
			"componentType":5126,
			"count":30,
			"max":[
				0.14182689785957336,
				5.603511333465576,
				-0.008046870119869709
			],
			"min":[
				-0.13754934072494507,
				5.337808609008789,
				-0.05343403294682503
			],
			"type":"VEC3"
		},
		{
			"bufferView":151,
			"componentType":5126,
			"count":30,
			"type":"VEC3"
		},
		{
			"bufferView":152,
			"componentType":5126,
			"count":30,
			"type":"VEC2"
		}
	],
	"bufferViews":[
		{
			"buffer":0,
			"byteLength":432,
			"byteOffset":0,
			"target":34962
		},
		{
			"buffer":0,
			"byteLength":432,
			"byteOffset":432,
			"target":34962
		},
		{
			"buffer":0,
			"byteLength":288,
			"byteOffset":864,
			"target":34962
		},
		{
			"buffer":0,
			"byteLength":72,
			"byteOffset":1152,
			"target":34963
		},
		{
			"buffer":0,
			"byteLength":432,
			"byteOffset":1224,
			"target":34962
		},
		{
			"buffer":0,
			"byteLength":432,
			"byteOffset":1656,
			"target":34962
		},
		{
			"buffer":0,
			"byteLength":288,
			"byteOffset":2088,
			"target":34962
		},
		{
			"buffer":0,
			"byteLength":576,
			"byteOffset":2376,
			"target":34962
		},
		{
			"buffer":0,
			"byteLength":576,
			"byteOffset":2952,
			"target":34962
		},
		{
			"buffer":0,
			"byteLength":384,
			"byteOffset":3528,
			"target":34962
		},
		{
			"buffer":0,
			"byteLength":96,
			"byteOffset":3912,
			"target":34963
		},
		{
			"buffer":0,
			"byteLength":432,
			"byteOffset":4008,
			"target":34962
		},
		{
			"buffer":0,
			"byteLength":432,
			"byteOffset":4440,
			"target":34962
		},
		{
			"buffer":0,
			"byteLength":288,
			"byteOffset":4872,
			"target":34962
		},
		{
			"buffer":0,
			"byteLength":864,
			"byteOffset":5160,
			"target":34962
		},
		{
			"buffer":0,
			"byteLength":864,
			"byteOffset":6024,
			"target":34962
		},
		{
			"buffer":0,
			"byteLength":576,
			"byteOffset":6888,
			"target":34962
		},
		{
			"buffer":0,
			"byteLength":144,
			"byteOffset":7464,
			"target":34963
		},
		{
			"buffer":0,
			"byteLength":1152,
			"byteOffset":7608,
			"target":34962
		},
		{
			"buffer":0,
			"byteLength":1152,
			"byteOffset":8760,
			"target":34962
		},
		{
			"buffer":0,
			"byteLength":768,
			"byteOffset":9912,
			"target":34962
		},
		{
			"buffer":0,
			"byteLength":192,
			"byteOffset":10680,
			"target":34963
		},
		{
			"buffer":0,
			"byteLength":1584,
			"byteOffset":10872,
			"target":34962
		},
		{
			"buffer":0,
			"byteLength":1584,
			"byteOffset":12456,
			"target":34962
		},
		{
			"buffer":0,
			"byteLength":1056,
			"byteOffset":14040,
			"target":34962
		},
		{
			"buffer":0,
			"byteLength":264,
			"byteOffset":15096,
			"target":34963
		},
		{
			"buffer":0,
			"byteLength":792,
			"byteOffset":15360,
			"target":34962
		},
		{
			"buffer":0,
			"byteLength":792,
			"byteOffset":16152,
			"target":34962
		},
		{
			"buffer":0,
			"byteLength":528,
			"byteOffset":16944,
			"target":34962
		},
		{
			"buffer":0,
			"byteLength":132,
			"byteOffset":17472,
			"target":34963
		},
		{
			"buffer":0,
			"byteLength":792,
			"byteOffset":17604,
			"target":34962
		},
		{
			"buffer":0,
			"byteLength":792,
			"byteOffset":18396,
			"target":34962
		},
		{
			"buffer":0,
			"byteLength":528,
			"byteOffset":19188,
			"target":34962
		},
		{
			"buffer":0,
			"byteLength":792,
			"byteOffset":19716,
			"target":34962
		},
		{
			"buffer":0,
			"byteLength":792,
			"byteOffset":20508,
			"target":34962
		},
		{
			"buffer":0,
			"byteLength":528,
			"byteOffset":21300,
			"target":34962
		},
		{
			"buffer":0,
			"byteLength":2880,
			"byteOffset":21828,
			"target":34962
		},
		{
			"buffer":0,
			"byteLength":2880,
			"byteOffset":24708,
			"target":34962
		},
		{
			"buffer":0,
			"byteLength":1920,
			"byteOffset":27588,
			"target":34962
		},
		{
			"buffer":0,
			"byteLength":480,
			"byteOffset":29508,
			"target":34963
		},
		{
			"buffer":0,
			"byteLength":1080,
			"byteOffset":29988,
			"target":34962
		},
		{
			"buffer":0,
			"byteLength":1080,
			"byteOffset":31068,
			"target":34962
		},
		{
			"buffer":0,
			"byteLength":720,
			"byteOffset":32148,
			"target":34962
		},
		{
			"buffer":0,
			"byteLength":180,
			"byteOffset":32868,
			"target":34963
		},
		{
			"buffer":0,
			"byteLength":576,
			"byteOffset":33048,
			"target":34962
		},
		{
			"buffer":0,
			"byteLength":576,
			"byteOffset":33624,
			"target":34962
		},
		{
			"buffer":0,
			"byteLength":384,
			"byteOffset":34200,
			"target":34962
		},
		{
			"buffer":0,
			"byteLength":1080,
			"byteOffset":34584,
			"target":34962
		},
		{
			"buffer":0,
			"byteLength":1080,
			"byteOffset":35664,
			"target":34962
		},
		{
			"buffer":0,
			"byteLength":720,
			"byteOffset":36744,
			"target":34962
		},
		{
			"buffer":0,
			"byteLength":432,
			"byteOffset":37464,
			"target":34962
		},
		{
			"buffer":0,
			"byteLength":432,
			"byteOffset":37896,
			"target":34962
		},
		{
			"buffer":0,
			"byteLength":288,
			"byteOffset":38328,
			"target":34962
		},
		{
			"buffer":0,
			"byteLength":720,
			"byteOffset":38616,
			"target":34962
		},
		{
			"buffer":0,
			"byteLength":720,
			"byteOffset":39336,
			"target":34962
		},
		{
			"buffer":0,
			"byteLength":480,
			"byteOffset":40056,
			"target":34962
		},
		{
			"buffer":0,
			"byteLength":120,
			"byteOffset":40536,
			"target":34963
		},
		{
			"buffer":0,
			"byteLength":576,
			"byteOffset":40656,
			"target":34962
		},
		{
			"buffer":0,
			"byteLength":576,
			"byteOffset":41232,
			"target":34962
		},
		{
			"buffer":0,
			"byteLength":384,
			"byteOffset":41808,
			"target":34962
		},
		{
			"buffer":0,
			"byteLength":1296,
			"byteOffset":42192,
			"target":34962
		},
		{
			"buffer":0,
			"byteLength":1296,
			"byteOffset":43488,
			"target":34962
		},
		{
			"buffer":0,
			"byteLength":864,
			"byteOffset":44784,
			"target":34962
		},
		{
			"buffer":0,
			"byteLength":216,
			"byteOffset":45648,
			"target":34963
		},
		{
			"buffer":0,
			"byteLength":1296,
			"byteOffset":45864,
			"target":34962
		},
		{
			"buffer":0,
			"byteLength":1296,
			"byteOffset":47160,
			"target":34962
		},
		{
			"buffer":0,
			"byteLength":864,
			"byteOffset":48456,
			"target":34962
		},
		{
			"buffer":0,
			"byteLength":288,
			"byteOffset":49320,
			"target":34962
		},
		{
			"buffer":0,
			"byteLength":288,
			"byteOffset":49608,
			"target":34962
		},
		{
			"buffer":0,
			"byteLength":192,
			"byteOffset":49896,
			"target":34962
		},
		{
			"buffer":0,
			"byteLength":48,
			"byteOffset":50088,
			"target":34963
		},
		{
			"buffer":0,
			"byteLength":864,
			"byteOffset":50136,
			"target":34962
		},
		{
			"buffer":0,
			"byteLength":864,
			"byteOffset":51000,
			"target":34962
		},
		{
			"buffer":0,
			"byteLength":576,
			"byteOffset":51864,
			"target":34962
		},
		{
			"buffer":0,
			"byteLength":288,
			"byteOffset":52440,
			"target":34962
		},
		{
			"buffer":0,
			"byteLength":288,
			"byteOffset":52728,
			"target":34962
		},
		{
			"buffer":0,
			"byteLength":192,
			"byteOffset":53016,
			"target":34962
		},
		{
			"buffer":0,
			"byteLength":360,
			"byteOffset":53208,
			"target":34962
		},
		{
			"buffer":0,
			"byteLength":360,
			"byteOffset":53568,
			"target":34962
		},
		{
			"buffer":0,
			"byteLength":240,
			"byteOffset":53928,
			"target":34962
		},
		{
			"buffer":0,
			"byteLength":60,
			"byteOffset":54168,
			"target":34963
		},
		{
			"buffer":0,
			"byteLength":1008,
			"byteOffset":54228,
			"target":34962
		},
		{
			"buffer":0,
			"byteLength":1008,
			"byteOffset":55236,
			"target":34962
		},
		{
			"buffer":0,
			"byteLength":672,
			"byteOffset":56244,
			"target":34962
		},
		{
			"buffer":0,
			"byteLength":168,
			"byteOffset":56916,
			"target":34963
		},
		{
			"buffer":0,
			"byteLength":2160,
			"byteOffset":57084,
			"target":34962
		},
		{
			"buffer":0,
			"byteLength":2160,
			"byteOffset":59244,
			"target":34962
		},
		{
			"buffer":0,
			"byteLength":1440,
			"byteOffset":61404,
			"target":34962
		},
		{
			"buffer":0,
			"byteLength":360,
			"byteOffset":62844,
			"target":34963
		},
		{
			"buffer":0,
			"byteLength":2448,
			"byteOffset":63204,
			"target":34962
		},
		{
			"buffer":0,
			"byteLength":2448,
			"byteOffset":65652,
			"target":34962
		},
		{
			"buffer":0,
			"byteLength":1632,
			"byteOffset":68100,
			"target":34962
		},
		{
			"buffer":0,
			"byteLength":408,
			"byteOffset":69732,
			"target":34963
		},
		{
			"buffer":0,
			"byteLength":72,
			"byteOffset":70140,
			"target":34962
		},
		{
			"buffer":0,
			"byteLength":72,
			"byteOffset":70212,
			"target":34962
		},
		{
			"buffer":0,
			"byteLength":48,
			"byteOffset":70284,
			"target":34962
		},
		{
			"buffer":0,
			"byteLength":12,
			"byteOffset":70332,
			"target":34963
		},
		{
			"buffer":0,
			"byteLength":7884,
			"byteOffset":70344,
			"target":34962
		},
		{
			"buffer":0,
			"byteLength":7884,
			"byteOffset":78228,
			"target":34962
		},
		{
			"buffer":0,
			"byteLength":5256,
			"byteOffset":86112,
			"target":34962
		},
		{
			"buffer":0,
			"byteLength":1314,
			"byteOffset":91368,
			"target":34963
		},
		{
			"buffer":0,
			"byteLength":288,
			"byteOffset":92684,
			"target":34962
		},
		{
			"buffer":0,
			"byteLength":288,
			"byteOffset":92972,
			"target":34962
		},
		{
			"buffer":0,
			"byteLength":192,
			"byteOffset":93260,
			"target":34962
		},
		{
			"buffer":0,
			"byteLength":144,
			"byteOffset":93452,
			"target":34962
		},
		{
			"buffer":0,
			"byteLength":144,
			"byteOffset":93596,
			"target":34962
		},
		{
			"buffer":0,
			"byteLength":96,
			"byteOffset":93740,
			"target":34962
		},
		{
			"buffer":0,
			"byteLength":24,
			"byteOffset":93836,
			"target":34963
		},
		{
			"buffer":0,
			"byteLength":72,
			"byteOffset":93860,
			"target":34962
		},
		{
			"buffer":0,
			"byteLength":72,
			"byteOffset":93932,
			"target":34962
		},
		{
			"buffer":0,
			"byteLength":48,
			"byteOffset":94004,
			"target":34962
		},
		{
			"buffer":0,
			"byteLength":144,
			"byteOffset":94052,
			"target":34962
		},
		{
			"buffer":0,
			"byteLength":144,
			"byteOffset":94196,
			"target":34962
		},
		{
			"buffer":0,
			"byteLength":96,
			"byteOffset":94340,
			"target":34962
		},
		{
			"buffer":0,
			"byteLength":144,
			"byteOffset":94436,
			"target":34962
		},
		{
			"buffer":0,
			"byteLength":144,
			"byteOffset":94580,
			"target":34962
		},
		{
			"buffer":0,
			"byteLength":96,
			"byteOffset":94724,
			"target":34962
		},
		{
			"buffer":0,
			"byteLength":1008,
			"byteOffset":94820,
			"target":34962
		},
		{
			"buffer":0,
			"byteLength":1008,
			"byteOffset":95828,
			"target":34962
		},
		{
			"buffer":0,
			"byteLength":672,
			"byteOffset":96836,
			"target":34962
		},
		{
			"buffer":0,
			"byteLength":1008,
			"byteOffset":97508,
			"target":34962
		},
		{
			"buffer":0,
			"byteLength":1008,
			"byteOffset":98516,
			"target":34962
		},
		{
			"buffer":0,
			"byteLength":672,
			"byteOffset":99524,
			"target":34962
		},
		{
			"buffer":0,
			"byteLength":360,
			"byteOffset":100196,
			"target":34962
		},
		{
			"buffer":0,
			"byteLength":360,
			"byteOffset":100556,
			"target":34962
		},
		{
			"buffer":0,
			"byteLength":240,
			"byteOffset":100916,
			"target":34962
		},
		{
			"buffer":0,
			"byteLength":720,
			"byteOffset":101156,
			"target":34962
		},
		{
			"buffer":0,
			"byteLength":720,
			"byteOffset":101876,
			"target":34962
		},
		{
			"buffer":0,
			"byteLength":480,
			"byteOffset":102596,
			"target":34962
		},
		{
			"buffer":0,
			"byteLength":684,
			"byteOffset":103076,
			"target":34962
		},
		{
			"buffer":0,
			"byteLength":684,
			"byteOffset":103760,
			"target":34962
		},
		{
			"buffer":0,
			"byteLength":456,
			"byteOffset":104444,
			"target":34962
		},
		{
			"buffer":0,
			"byteLength":114,
			"byteOffset":104900,
			"target":34963
		},
		{
			"buffer":0,
			"byteLength":3528,
			"byteOffset":105016,
			"target":34962
		},
		{
			"buffer":0,
			"byteLength":3528,
			"byteOffset":108544,
			"target":34962
		},
		{
			"buffer":0,
			"byteLength":2352,
			"byteOffset":112072,
			"target":34962
		},
		{
			"buffer":0,
			"byteLength":588,
			"byteOffset":114424,
			"target":34963
		},
		{
			"buffer":0,
			"byteLength":360,
			"byteOffset":115012,
			"target":34962
		},
		{
			"buffer":0,
			"byteLength":360,
			"byteOffset":115372,
			"target":34962
		},
		{
			"buffer":0,
			"byteLength":240,
			"byteOffset":115732,
			"target":34962
		},
		{
			"buffer":0,
			"byteLength":1440,
			"byteOffset":115972,
			"target":34962
		},
		{
			"buffer":0,
			"byteLength":1440,
			"byteOffset":117412,
			"target":34962
		},
		{
			"buffer":0,
			"byteLength":960,
			"byteOffset":118852,
			"target":34962
		},
		{
			"buffer":0,
			"byteLength":240,
			"byteOffset":119812,
			"target":34963
		},
		{
			"buffer":0,
			"byteLength":1440,
			"byteOffset":120052,
			"target":34962
		},
		{
			"buffer":0,
			"byteLength":1440,
			"byteOffset":121492,
			"target":34962
		},
		{
			"buffer":0,
			"byteLength":960,
			"byteOffset":122932,
			"target":34962
		},
		{
			"buffer":0,
			"byteLength":1440,
			"byteOffset":123892,
			"target":34962
		},
		{
			"buffer":0,
			"byteLength":1440,
			"byteOffset":125332,
			"target":34962
		},
		{
			"buffer":0,
			"byteLength":960,
			"byteOffset":126772,
			"target":34962
		},
		{
			"buffer":0,
			"byteLength":360,
			"byteOffset":127732,
			"target":34962
		},
		{
			"buffer":0,
			"byteLength":360,
			"byteOffset":128092,
			"target":34962
		},
		{
			"buffer":0,
			"byteLength":240,
			"byteOffset":128452,
			"target":34962
		}
	],
	"samplers":[
		{
			"magFilter":9729,
			"minFilter":9987
		}
	],
	"buffers":[
		{
			"byteLength":128692,
			"uri":"ab_line.bin"
		}
	]
}
