{
	"asset":{
		"generator":"Khronos glTF Blender I/O v4.4.56",
		"version":"2.0"
	},
	"scene":0,
	"scenes":[
		{
			"name":"Scene",
			"nodes":[
				0
			]
		}
	],
	"nodes":[
		{
			"mesh":0,
			"name":"Disk_end_of_train_bwd",
			"rotation":[
				0,
				0.7071068286895752,
				0,
				0.7071068286895752
			]
		}
	],
	"materials":[
		{
			"name":"Material_metallic",
			"pbrMetallicRoughness":{
				"baseColorFactor":[
					0.25,
					0.25,
					0.3125,
					1
				],
				"roughnessFactor":0.25
			}
		},
		{
			"name":"Material_white",
			"pbrMetallicRoughness":{
				"baseColorFactor":[
					1,
					0.9375,
					0.75,
					1
				],
				"metallicFactor":0.875,
				"roughnessFactor":0.5
			}
		},
		{
			"name":"Material_red",
			"pbrMetallicRoughness":{
				"baseColorFactor":[
					1,
					0,
					0,
					1
				],
				"metallicFactor":0.875,
				"roughnessFactor":0.5
			}
		}
	],
	"meshes":[
		{
			"name":"Disk_end_of_train",
			"primitives":[
				{
					"attributes":{
						"POSITION":0,
						"NORMAL":1
					},
					"indices":2,
					"material":0
				},
				{
					"attributes":{
						"POSITION":3,
						"NORMAL":4
					},
					"indices":5,
					"material":1
				},
				{
					"attributes":{
						"POSITION":6,
						"NORMAL":7
					},
					"indices":8,
					"material":2
				}
			]
		}
	],
	"accessors":[
		{
			"bufferView":0,
			"componentType":5126,
			"count":123,
			"max":[
				0.02830875664949417,
				0.0920545905828476,
				0.092054583132267
			],
			"min":[
				-1.1319781556551334e-08,
				-0.12934210896492004,
				-0.09205460548400879
			],
			"type":"VEC3"
		},
		{
			"bufferView":1,
			"componentType":5126,
			"count":123,
			"type":"VEC3"
		},
		{
			"bufferView":2,
			"componentType":5123,
			"count":246,
			"type":"SCALAR"
		},
		{
			"bufferView":3,
			"componentType":5126,
			"count":128,
			"max":[
				-1.7187367085114147e-09,
				0.0920545905828476,
				0.092054583132267
			],
			"min":[
				-0.0009999984176829457,
				-0.0920545905828476,
				-0.09205460548400879
			],
			"type":"VEC3"
		},
		{
			"bufferView":4,
			"componentType":5126,
			"count":128,
			"type":"VEC3"
		},
		{
			"bufferView":5,
			"componentType":5123,
			"count":384,
			"type":"SCALAR"
		},
		{
			"bufferView":6,
			"componentType":5126,
			"count":32,
			"max":[
				-0.0009999899193644524,
				0.06868124008178711,
				0.06868121773004532
			],
			"min":[
				-0.0009999973699450493,
				-0.06868124008178711,
				-0.0686812624335289
			],
			"type":"VEC3"
		},
		{
			"bufferView":7,
			"componentType":5126,
			"count":32,
			"type":"VEC3"
		},
		{
			"bufferView":8,
			"componentType":5123,
			"count":90,
			"type":"SCALAR"
		}
	],
	"bufferViews":[
		{
			"buffer":0,
			"byteLength":1476,
			"byteOffset":0,
			"target":34962
		},
		{
			"buffer":0,
			"byteLength":1476,
			"byteOffset":1476,
			"target":34962
		},
		{
			"buffer":0,
			"byteLength":492,
			"byteOffset":2952,
			"target":34963
		},
		{
			"buffer":0,
			"byteLength":1536,
			"byteOffset":3444,
			"target":34962
		},
		{
			"buffer":0,
			"byteLength":1536,
			"byteOffset":4980,
			"target":34962
		},
		{
			"buffer":0,
			"byteLength":768,
			"byteOffset":6516,
			"target":34963
		},
		{
			"buffer":0,
			"byteLength":384,
			"byteOffset":7284,
			"target":34962
		},
		{
			"buffer":0,
			"byteLength":384,
			"byteOffset":7668,
			"target":34962
		},
		{
			"buffer":0,
			"byteLength":180,
			"byteOffset":8052,
			"target":34963
		}
	],
	"buffers":[
		{
			"byteLength":8232,
			"uri":"Disk_end_of_train.bin"
		}
	]
}
