{
	"asset":{
		"generator":"Khronos glTF Blender I/O v4.4.56",
		"version":"2.0"
	},
	"scene":0,
	"scenes":[
		{
			"name":"Scene",
			"nodes":[
				0
			]
		}
	],
	"nodes":[
		{
			"mesh":0,
			"name":"Railskid"
		}
	],
	"materials":[
		{
			"name":"Material",
			"normalTexture":{
				"index":0
			},
			"occlusionTexture":{
				"index":1
			},
			"pbrMetallicRoughness":{
				"baseColorTexture":{
					"index":2
				}
			}
		}
	],
	"meshes":[
		{
			"name":"Cube.003",
			"primitives":[
				{
					"attributes":{
						"POSITION":0,
						"NORMAL":1,
						"TEXCOORD_0":2
					},
					"indices":3,
					"material":0
				}
			]
		}
	],
	"textures":[
		{
			"sampler":0,
			"source":0
		},
		{
			"sampler":0,
			"source":1
		},
		{
			"sampler":0,
			"source":2
		}
	],
	"images":[
		{
			"mimeType":"image/jpeg",
			"name":"railskid_n",
			"uri":"textures/railskid_n.jpg"
		},
		{
			"mimeType":"image/jpeg",
			"name":"railskid_ao",
			"uri":"textures/railskid_ao.jpg"
		},
		{
			"mimeType":"image/jpeg",
			"name":"railskid_d",
			"uri":"textures/railskid_d.jpg"
		}
	],
	"accessors":[
		{
			"bufferView":0,
			"componentType":5126,
			"count":2546,
			"max":[
				0.046499982476234436,
				0.13099999725818634,
				0.454339861869812
			],
			"min":[
				-0.046500012278556824,
				-0.016499996185302734,
				-0.04461231827735901
			],
			"type":"VEC3"
		},
		{
			"bufferView":1,
			"componentType":5126,
			"count":2546,
			"type":"VEC3"
		},
		{
			"bufferView":2,
			"componentType":5126,
			"count":2546,
			"type":"VEC2"
		},
		{
			"bufferView":3,
			"componentType":5123,
			"count":4200,
			"type":"SCALAR"
		}
	],
	"bufferViews":[
		{
			"buffer":0,
			"byteLength":30552,
			"byteOffset":0,
			"target":34962
		},
		{
			"buffer":0,
			"byteLength":30552,
			"byteOffset":30552,
			"target":34962
		},
		{
			"buffer":0,
			"byteLength":20368,
			"byteOffset":61104,
			"target":34962
		},
		{
			"buffer":0,
			"byteLength":8400,
			"byteOffset":81472,
			"target":34963
		}
	],
	"samplers":[
		{
			"magFilter":9729,
			"minFilter":9987
		}
	],
	"buffers":[
		{
			"byteLength":89872,
			"uri":"railskid.bin"
		}
	]
}
