{
	"asset":{
		"generator":"Khronos glTF Blender I/O v4.4.56",
		"version":"2.0"
	},
	"scene":0,
	"scenes":[
		{
			"name":"Scene",
			"nodes":[
				0
			]
		}
	],
	"nodes":[
		{
			"mesh":0,
			"name":"Rail_skid"
		}
	],
	"materials":[
		{
			"name":"Material",
			"occlusionTexture":{
				"index":0
			},
			"pbrMetallicRoughness":{
				"baseColorTexture":{
					"index":1
				}
			}
		}
	],
	"meshes":[
		{
			"name":"Cube.003",
			"primitives":[
				{
					"attributes":{
						"POSITION":0,
						"NORMAL":1,
						"TEXCOORD_0":2
					},
					"indices":3,
					"material":0
				}
			]
		}
	],
	"textures":[
		{
			"sampler":0,
			"source":0
		},
		{
			"sampler":0,
			"source":1
		}
	],
	"images":[
		{
			"mimeType":"image/jpeg",
			"name":"rail_skid_ao",
			"uri":"textures/rail_skid_ao.jpg"
		},
		{
			"mimeType":"image/jpeg",
			"name":"rail_skid",
			"uri":"textures/rail_skid.jpg"
		}
	],
	"accessors":[
		{
			"bufferView":0,
			"componentType":5126,
			"count":893,
			"max":[
				0.046499982476234436,
				0.13100050389766693,
				0.454339861869812
			],
			"min":[
				-0.046500012278556824,
				-0.016499996185302734,
				-0.04461231827735901
			],
			"type":"VEC3"
		},
		{
			"bufferView":1,
			"componentType":5126,
			"count":893,
			"type":"VEC3"
		},
		{
			"bufferView":2,
			"componentType":5126,
			"count":893,
			"type":"VEC2"
		},
		{
			"bufferView":3,
			"componentType":5123,
			"count":2946,
			"type":"SCALAR"
		}
	],
	"bufferViews":[
		{
			"buffer":0,
			"byteLength":10716,
			"byteOffset":0,
			"target":34962
		},
		{
			"buffer":0,
			"byteLength":10716,
			"byteOffset":10716,
			"target":34962
		},
		{
			"buffer":0,
			"byteLength":7144,
			"byteOffset":21432,
			"target":34962
		},
		{
			"buffer":0,
			"byteLength":5892,
			"byteOffset":28576,
			"target":34963
		}
	],
	"samplers":[
		{
			"magFilter":9729,
			"minFilter":9987
		}
	],
	"buffers":[
		{
			"byteLength":34468,
			"uri":"rail_skid.bin"
		}
	]
}
