{
  "asset": {
    "version": "2.0",
    "generator": "babylon.js glTF exporter for 3dsmax 2024 v20251021.2"
  },
  "scene": 0,
  "scenes": [
    {
      "nodes": [
        0,
        1,
        2,
        3
      ]
    }
  ],
  "nodes": [
    {
      "mesh": 0,
      "translation": [
        0.0,
        -0.073162064,
        0.0
      ],
      "name": "Изостык"
    },
    {
      "mesh": 1,
      "translation": [
        1.17288295E-08,
        4.67747831,
        2.49093819
      ],
      "scale": [
        0.901611447,
        0.901611447,
        1.0
      ],
      "name": "BLUE_Lens"
    },
    {
      "mesh": 2,
      "translation": [
        1.17288295E-08,
        4.98146963,
        2.490938
      ],
      "scale": [
        0.901611447,
        0.901611447,
        1.0
      ],
      "name": "WHITE_Lens"
    },
    {
      "mesh": 3,
      "translation": [
        1.1920929E-07,
        2.89083338,
        1.92134869
      ],
      "name": "Светофор 2"
    }
  ],
  "meshes": [
    {
      "primitives": [
        {
          "attributes": {
            "POSITION": 1,
            "NORMAL": 2,
            "TEXCOORD_0": 3
          },
          "indices": 0,
          "material": 0
        }
      ],
      "name": "Изостык"
    },
    {
      "primitives": [
        {
          "attributes": {
            "POSITION": 5,
            "NORMAL": 6,
            "TEXCOORD_0": 7
          },
          "indices": 4,
          "material": 1
        }
      ],
      "name": "BLUE_Lens"
    },
    {
      "primitives": [
        {
          "attributes": {
            "POSITION": 9,
            "NORMAL": 10,
            "TEXCOORD_0": 11
          },
          "indices": 8,
          "material": 1
        }
      ],
      "name": "WHITE_Lens"
    },
    {
      "primitives": [
        {
          "attributes": {
            "POSITION": 13,
            "NORMAL": 14,
            "TEXCOORD_0": 15
          },
          "indices": 12,
          "material": 2
        }
      ],
      "name": "Светофор 2"
    }
  ],
  "accessors": [
    {
      "bufferView": 0,
      "componentType": 5123,
      "count": 16380,
      "type": "SCALAR",
      "name": "accessorIndices"
    },
    {
      "bufferView": 1,
      "componentType": 5126,
      "count": 6428,
      "max": [
        0.259114981,
        0.92159,
        1.06322038
      ],
      "min": [
        -3.80488682,
        -0.310489774,
        -1.3671571
      ],
      "type": "VEC3",
      "name": "accessorPositions"
    },
    {
      "bufferView": 1,
      "byteOffset": 77136,
      "componentType": 5126,
      "count": 6428,
      "type": "VEC3",
      "name": "accessorNormals"
    },
    {
      "bufferView": 2,
      "componentType": 5126,
      "count": 6428,
      "type": "VEC2",
      "name": "accessorUVs"
    },
    {
      "bufferView": 0,
      "byteOffset": 32760,
      "componentType": 5123,
      "count": 138,
      "type": "SCALAR",
      "name": "accessorIndices"
    },
    {
      "bufferView": 1,
      "byteOffset": 154272,
      "componentType": 5126,
      "count": 64,
      "max": [
        0.127627134,
        0.127627611,
        0.003543973
      ],
      "min": [
        -0.1276269,
        -0.127627373,
        -0.00354403257
      ],
      "type": "VEC3",
      "name": "accessorPositions"
    },
    {
      "bufferView": 1,
      "byteOffset": 155040,
      "componentType": 5126,
      "count": 64,
      "type": "VEC3",
      "name": "accessorNormals"
    },
    {
      "bufferView": 2,
      "byteOffset": 51424,
      "componentType": 5126,
      "count": 64,
      "type": "VEC2",
      "name": "accessorUVs"
    },
    {
      "bufferView": 0,
      "byteOffset": 33036,
      "componentType": 5123,
      "count": 138,
      "type": "SCALAR",
      "name": "accessorIndices"
    },
    {
      "bufferView": 1,
      "byteOffset": 155808,
      "componentType": 5126,
      "count": 64,
      "max": [
        0.127627134,
        0.127627611,
        0.003543973
      ],
      "min": [
        -0.1276269,
        -0.127627373,
        -0.00354403257
      ],
      "type": "VEC3",
      "name": "accessorPositions"
    },
    {
      "bufferView": 1,
      "byteOffset": 156576,
      "componentType": 5126,
      "count": 64,
      "type": "VEC3",
      "name": "accessorNormals"
    },
    {
      "bufferView": 2,
      "byteOffset": 51936,
      "componentType": 5126,
      "count": 64,
      "type": "VEC2",
      "name": "accessorUVs"
    },
    {
      "bufferView": 0,
      "byteOffset": 33312,
      "componentType": 5123,
      "count": 11736,
      "type": "SCALAR",
      "name": "accessorIndices"
    },
    {
      "bufferView": 1,
      "byteOffset": 157344,
      "componentType": 5126,
      "count": 6759,
      "max": [
        0.328063756,
        2.58396626,
        1.26013529
      ],
      "min": [
        -0.329796821,
        -3.45651746,
        -0.576844156
      ],
      "type": "VEC3",
      "name": "accessorPositions"
    },
    {
      "bufferView": 1,
      "byteOffset": 238452,
      "componentType": 5126,
      "count": 6759,
      "type": "VEC3",
      "name": "accessorNormals"
    },
    {
      "bufferView": 2,
      "byteOffset": 52448,
      "componentType": 5126,
      "count": 6759,
      "type": "VEC2",
      "name": "accessorUVs"
    }
  ],
  "bufferViews": [
    {
      "buffer": 0,
      "byteLength": 56784,
      "name": "bufferViewScalar"
    },
    {
      "buffer": 0,
      "byteOffset": 56784,
      "byteLength": 319560,
      "byteStride": 12,
      "name": "bufferViewFloatVec3"
    },
    {
      "buffer": 0,
      "byteOffset": 376344,
      "byteLength": 106520,
      "byteStride": 8,
      "name": "bufferViewFloatVec2"
    }
  ],
  "buffers": [
    {
      "uri": "bin/RM_sig_M_MM2_WB_2.bin",
      "byteLength": 482864
    }
  ],
  "materials": [
    {
      "pbrMetallicRoughness": {
        "baseColorTexture": {
          "index": 2
        },
        "metallicRoughnessTexture": {
          "index": 1
        }
      },
      "normalTexture": {
        "index": 0
      },
      "occlusionTexture": {
        "index": 1
      },
      "name": "Material #34"
    },
    {
      "pbrMetallicRoughness": {
        "metallicFactor": 0.0,
        "roughnessFactor": 0.450053632
      },
      "name": "Линзы"
    },
    {
      "pbrMetallicRoughness": {
        "baseColorTexture": {
          "index": 5
        },
        "metallicRoughnessTexture": {
          "index": 4
        }
      },
      "normalTexture": {
        "index": 3
      },
      "occlusionTexture": {
        "index": 4
      },
      "name": "Material #35"
    }
  ],
  "textures": [
    {
      "sampler": 0,
      "source": 0,
      "name": "RM_izostyk_N.jpg"
    },
    {
      "sampler": 0,
      "source": 1,
      "name": "RM_izostyk_ORM.jpg"
    },
    {
      "sampler": 0,
      "source": 2,
      "name": "RM_izostyk_RGBA.jpg"
    },
    {
      "sampler": 0,
      "source": 3,
      "name": "RM_MM1-2_N.jpg"
    },
    {
      "sampler": 0,
      "source": 4,
      "name": "RM_MM1-2_ORM.jpg"
    },
    {
      "sampler": 0,
      "source": 5,
      "name": "RM_MM1-2_RGBA.jpg"
    }
  ],
  "images": [
    {
      "uri": "textures/RM_izostyk_N.jpg"
    },
    {
      "uri": "textures/RM_izostyk_ORM.jpg"
    },
    {
      "uri": "textures/RM_izostyk_RGBA.jpg"
    },
    {
      "uri": "textures/RM_MM1-2_N.jpg"
    },
    {
      "uri": "textures/RM_MM1-2_ORM.jpg"
    },
    {
      "uri": "textures/RM_MM1-2_RGBA.jpg"
    }
  ],
  "samplers": [
    {
      "magFilter": 9729,
      "minFilter": 9987
    }
  ]
}