{
  "asset": {
    "version": "2.0",
    "generator": "babylon.js glTF exporter for 3dsmax 2024 v20251021.2"
  },
  "scene": 0,
  "scenes": [
    {
      "nodes": [
        0,
        1,
        2,
        3,
        4,
        5,
        6,
        7
      ]
    }
  ],
  "nodes": [
    {
      "mesh": 0,
      "translation": [
        -2.5,
        -0.073162064,
        0.0
      ],
      "name": "Изостык"
    },
    {
      "mesh": 1,
      "translation": [
        0.0127201676,
        9.532417,
        -0.2568159
      ],
      "name": "Клетка"
    },
    {
      "mesh": 2,
      "translation": [
        0.013,
        7.34,
        -0.533
      ],
      "name": "Светофор"
    },
    {
      "mesh": 3,
      "translation": [
        0.0112663656,
        8.973469,
        0.0371356
      ],
      "rotation": [
        0.7071068,
        7.832296E-17,
        -7.832296E-17,
        0.7071067
      ],
      "name": "BOTTOM_YELLOW_Lens"
    },
    {
      "mesh": 4,
      "translation": [
        0.0112663656,
        10.1339512,
        0.0371356
      ],
      "rotation": [
        0.7071068,
        7.832296E-17,
        -7.832296E-17,
        0.7071067
      ],
      "name": "GREEN_Lens"
    },
    {
      "mesh": 5,
      "translation": [
        0.0112663656,
        10.4379015,
        0.0371356
      ],
      "rotation": [
        0.7071068,
        7.832296E-17,
        -7.832296E-17,
        0.7071067
      ],
      "name": "YELLOW_Lens"
    },
    {
      "mesh": 6,
      "translation": [
        0.0112663656,
        8.669477,
        0.0371356
      ],
      "rotation": [
        0.7071068,
        7.832296E-17,
        -7.832296E-17,
        0.7071067
      ],
      "name": "WHITE_Lens"
    },
    {
      "mesh": 7,
      "translation": [
        0.0112663656,
        9.829052,
        0.0371356
      ],
      "rotation": [
        0.7071068,
        7.832296E-17,
        -7.832296E-17,
        0.7071067
      ],
      "name": "RED_Lens"
    }
  ],
  "meshes": [
    {
      "primitives": [
        {
          "attributes": {
            "POSITION": 1,
            "NORMAL": 2,
            "TEXCOORD_0": 3
          },
          "indices": 0,
          "material": 0
        }
      ],
      "name": "Изостык"
    },
    {
      "primitives": [
        {
          "attributes": {
            "POSITION": 5,
            "NORMAL": 6,
            "TEXCOORD_0": 7
          },
          "indices": 4,
          "material": 1
        }
      ],
      "name": "Клетка"
    },
    {
      "primitives": [
        {
          "attributes": {
            "POSITION": 9,
            "NORMAL": 10,
            "TEXCOORD_0": 11
          },
          "indices": 8,
          "material": 2
        }
      ],
      "name": "Светофор"
    },
    {
      "primitives": [
        {
          "attributes": {
            "POSITION": 13,
            "NORMAL": 14,
            "TEXCOORD_0": 15
          },
          "indices": 12
        }
      ],
      "name": "BOTTOM_YELLOW_Lens"
    },
    {
      "primitives": [
        {
          "attributes": {
            "POSITION": 17,
            "NORMAL": 18,
            "TEXCOORD_0": 19
          },
          "indices": 16
        }
      ],
      "name": "GREEN_Lens"
    },
    {
      "primitives": [
        {
          "attributes": {
            "POSITION": 21,
            "NORMAL": 22,
            "TEXCOORD_0": 23
          },
          "indices": 20
        }
      ],
      "name": "YELLOW_Lens"
    },
    {
      "primitives": [
        {
          "attributes": {
            "POSITION": 25,
            "NORMAL": 26,
            "TEXCOORD_0": 27
          },
          "indices": 24
        }
      ],
      "name": "WHITE_Lens"
    },
    {
      "primitives": [
        {
          "attributes": {
            "POSITION": 29,
            "NORMAL": 30,
            "TEXCOORD_0": 31
          },
          "indices": 28
        }
      ],
      "name": "RED_Lens"
    }
  ],
  "accessors": [
    {
      "bufferView": 0,
      "componentType": 5123,
      "count": 16380,
      "type": "SCALAR",
      "name": "accessorIndices"
    },
    {
      "bufferView": 1,
      "componentType": 5126,
      "count": 6428,
      "max": [
        2.759115,
        0.92159,
        1.06322038
      ],
      "min": [
        -1.30488682,
        -0.310489774,
        -1.3671571
      ],
      "type": "VEC3",
      "name": "accessorPositions"
    },
    {
      "bufferView": 1,
      "byteOffset": 77136,
      "componentType": 5126,
      "count": 6428,
      "type": "VEC3",
      "name": "accessorNormals"
    },
    {
      "bufferView": 2,
      "componentType": 5126,
      "count": 6428,
      "type": "VEC2",
      "name": "accessorUVs"
    },
    {
      "bufferView": 0,
      "byteOffset": 32760,
      "componentType": 5123,
      "count": 1812,
      "type": "SCALAR",
      "name": "accessorIndices"
    },
    {
      "bufferView": 1,
      "byteOffset": 154272,
      "componentType": 5126,
      "count": 1058,
      "max": [
        0.600428641,
        2.09468079,
        0.467869282
      ],
      "min": [
        -0.6004286,
        -2.09468174,
        -0.4678688
      ],
      "type": "VEC3",
      "name": "accessorPositions"
    },
    {
      "bufferView": 1,
      "byteOffset": 166968,
      "componentType": 5126,
      "count": 1058,
      "type": "VEC3",
      "name": "accessorNormals"
    },
    {
      "bufferView": 2,
      "byteOffset": 51424,
      "componentType": 5126,
      "count": 1058,
      "type": "VEC2",
      "name": "accessorUVs"
    },
    {
      "bufferView": 0,
      "byteOffset": 36384,
      "componentType": 5123,
      "count": 14586,
      "type": "SCALAR",
      "name": "accessorIndices"
    },
    {
      "bufferView": 1,
      "byteOffset": 179664,
      "componentType": 5126,
      "count": 8671,
      "max": [
        0.298265874,
        3.36771536,
        1.26013541
      ],
      "min": [
        -0.301734149,
        0.8921659,
        -0.08921504
      ],
      "type": "VEC3",
      "name": "accessorPositions"
    },
    {
      "bufferView": 1,
      "byteOffset": 283716,
      "componentType": 5126,
      "count": 8671,
      "type": "VEC3",
      "name": "accessorNormals"
    },
    {
      "bufferView": 2,
      "byteOffset": 59888,
      "componentType": 5126,
      "count": 8671,
      "type": "VEC2",
      "name": "accessorUVs"
    },
    {
      "bufferView": 0,
      "byteOffset": 65556,
      "componentType": 5123,
      "count": 1890,
      "type": "SCALAR",
      "name": "accessorIndices"
    },
    {
      "bufferView": 1,
      "byteOffset": 387768,
      "componentType": 5126,
      "count": 531,
      "max": [
        0.106532946,
        0.004435625,
        0.106532946
      ],
      "min": [
        -0.106532976,
        -4.98839654E-08,
        -0.106532976
      ],
      "type": "VEC3",
      "name": "accessorPositions"
    },
    {
      "bufferView": 1,
      "byteOffset": 394140,
      "componentType": 5126,
      "count": 531,
      "type": "VEC3",
      "name": "accessorNormals"
    },
    {
      "bufferView": 2,
      "byteOffset": 129256,
      "componentType": 5126,
      "count": 531,
      "type": "VEC2",
      "name": "accessorUVs"
    },
    {
      "bufferView": 0,
      "byteOffset": 69336,
      "componentType": 5123,
      "count": 1890,
      "type": "SCALAR",
      "name": "accessorIndices"
    },
    {
      "bufferView": 1,
      "byteOffset": 400512,
      "componentType": 5126,
      "count": 531,
      "max": [
        0.106532946,
        0.004435625,
        0.106532946
      ],
      "min": [
        -0.106532976,
        -4.98839654E-08,
        -0.106532976
      ],
      "type": "VEC3",
      "name": "accessorPositions"
    },
    {
      "bufferView": 1,
      "byteOffset": 406884,
      "componentType": 5126,
      "count": 531,
      "type": "VEC3",
      "name": "accessorNormals"
    },
    {
      "bufferView": 2,
      "byteOffset": 133504,
      "componentType": 5126,
      "count": 531,
      "type": "VEC2",
      "name": "accessorUVs"
    },
    {
      "bufferView": 0,
      "byteOffset": 73116,
      "componentType": 5123,
      "count": 1890,
      "type": "SCALAR",
      "name": "accessorIndices"
    },
    {
      "bufferView": 1,
      "byteOffset": 413256,
      "componentType": 5126,
      "count": 531,
      "max": [
        0.106532946,
        0.004435625,
        0.106532946
      ],
      "min": [
        -0.106532976,
        -4.98839654E-08,
        -0.106532976
      ],
      "type": "VEC3",
      "name": "accessorPositions"
    },
    {
      "bufferView": 1,
      "byteOffset": 419628,
      "componentType": 5126,
      "count": 531,
      "type": "VEC3",
      "name": "accessorNormals"
    },
    {
      "bufferView": 2,
      "byteOffset": 137752,
      "componentType": 5126,
      "count": 531,
      "type": "VEC2",
      "name": "accessorUVs"
    },
    {
      "bufferView": 0,
      "byteOffset": 76896,
      "componentType": 5123,
      "count": 1890,
      "type": "SCALAR",
      "name": "accessorIndices"
    },
    {
      "bufferView": 1,
      "byteOffset": 426000,
      "componentType": 5126,
      "count": 531,
      "max": [
        0.106532946,
        0.004435625,
        0.106532946
      ],
      "min": [
        -0.106532976,
        -4.98839654E-08,
        -0.106532976
      ],
      "type": "VEC3",
      "name": "accessorPositions"
    },
    {
      "bufferView": 1,
      "byteOffset": 432372,
      "componentType": 5126,
      "count": 531,
      "type": "VEC3",
      "name": "accessorNormals"
    },
    {
      "bufferView": 2,
      "byteOffset": 142000,
      "componentType": 5126,
      "count": 531,
      "type": "VEC2",
      "name": "accessorUVs"
    },
    {
      "bufferView": 0,
      "byteOffset": 80676,
      "componentType": 5123,
      "count": 1890,
      "type": "SCALAR",
      "name": "accessorIndices"
    },
    {
      "bufferView": 1,
      "byteOffset": 438744,
      "componentType": 5126,
      "count": 531,
      "max": [
        0.106532946,
        0.004435625,
        0.106532946
      ],
      "min": [
        -0.106532976,
        -4.98839654E-08,
        -0.106532976
      ],
      "type": "VEC3",
      "name": "accessorPositions"
    },
    {
      "bufferView": 1,
      "byteOffset": 445116,
      "componentType": 5126,
      "count": 531,
      "type": "VEC3",
      "name": "accessorNormals"
    },
    {
      "bufferView": 2,
      "byteOffset": 146248,
      "componentType": 5126,
      "count": 531,
      "type": "VEC2",
      "name": "accessorUVs"
    }
  ],
  "bufferViews": [
    {
      "buffer": 0,
      "byteLength": 84456,
      "name": "bufferViewScalar"
    },
    {
      "buffer": 0,
      "byteOffset": 84456,
      "byteLength": 451488,
      "byteStride": 12,
      "name": "bufferViewFloatVec3"
    },
    {
      "buffer": 0,
      "byteOffset": 535944,
      "byteLength": 150496,
      "byteStride": 8,
      "name": "bufferViewFloatVec2"
    }
  ],
  "buffers": [
    {
      "uri": "bin/RM_sig_P_RM1_YGR+YW_3+2.bin",
      "byteLength": 686440
    }
  ],
  "materials": [
    {
      "pbrMetallicRoughness": {
        "baseColorTexture": {
          "index": 2
        },
        "metallicRoughnessTexture": {
          "index": 1
        }
      },
      "normalTexture": {
        "index": 0
      },
      "occlusionTexture": {
        "index": 1
      },
      "name": "Material #4"
    },
    {
      "pbrMetallicRoughness": {
        "baseColorTexture": {
          "index": 5
        },
        "metallicRoughnessTexture": {
          "index": 4
        }
      },
      "normalTexture": {
        "index": 3
      },
      "occlusionTexture": {
        "index": 4
      },
      "name": "Material #6"
    },
    {
      "pbrMetallicRoughness": {
        "baseColorTexture": {
          "index": 8
        },
        "metallicRoughnessTexture": {
          "index": 7
        }
      },
      "normalTexture": {
        "index": 6
      },
      "occlusionTexture": {
        "index": 7
      },
      "name": "Material #5"
    }
  ],
  "textures": [
    {
      "sampler": 0,
      "source": 0,
      "name": "RM_izostyk_N.jpg"
    },
    {
      "sampler": 0,
      "source": 1,
      "name": "RM_izostyk_ORM.jpg"
    },
    {
      "sampler": 0,
      "source": 2,
      "name": "RM_izostyk_RGBA.jpg"
    },
    {
      "sampler": 0,
      "source": 3,
      "name": "RM_cell_N.jpg"
    },
    {
      "sampler": 0,
      "source": 4,
      "name": "RM_cell_ORM.jpg"
    },
    {
      "sampler": 0,
      "source": 5,
      "name": "RM_cell_RGBA.jpg"
    },
    {
      "sampler": 0,
      "source": 6,
      "name": "RM_MM1-2_N.jpg"
    },
    {
      "sampler": 0,
      "source": 7,
      "name": "RM_MM1-2_ORM.jpg"
    },
    {
      "sampler": 0,
      "source": 8,
      "name": "RM_MM1-2_RGBA.jpg"
    }
  ],
  "images": [
    {
      "uri": "textures/RM_izostyk_N.jpg"
    },
    {
      "uri": "textures/RM_izostyk_ORM.jpg"
    },
    {
      "uri": "textures/RM_izostyk_RGBA.jpg"
    },
    {
      "uri": "textures/RM_cell_N.jpg"
    },
    {
      "uri": "textures/RM_cell_ORM.jpg"
    },
    {
      "uri": "textures/RM_cell_RGBA.jpg"
    },
    {
      "uri": "textures/RM_MM1-2_N.jpg"
    },
    {
      "uri": "textures/RM_MM1-2_ORM.jpg"
    },
    {
      "uri": "textures/RM_MM1-2_RGBA.jpg"
    }
  ],
  "samplers": [
    {
      "magFilter": 9729,
      "minFilter": 9987
    }
  ]
}