{
  "asset": {
    "version": "2.0",
    "generator": "babylon.js glTF exporter for 3dsmax 2024 v20250428.5"
  },
  "scene": 0,
  "scenes": [
    {
      "nodes": [
        0,
        1,
        2,
        3,
        4,
        5,
        6
      ]
    }
  ],
  "nodes": [
    {
      "mesh": 0,
      "translation": [
        -2.5,
        0.238837942,
        0.0
      ],
      "name": "Изостык"
    },
    {
      "mesh": 1,
      "translation": [
        0.0,
        2.65902185,
        1.92835212
      ],
      "name": "Object002"
    },
    {
      "mesh": 2,
      "translation": [
        0.0,
        3.20283341,
        1.92134869
      ],
      "name": "Светофор ПРОХОДНОЙ"
    },
    {
      "mesh": 3,
      "translation": [
        0.0,
        5.3,
        2.49022913
      ],
      "name": "GREEN_Lens"
    },
    {
      "mesh": 4,
      "translation": [
        0.0,
        5.60413265,
        2.49093819
      ],
      "name": "RED_Lens"
    },
    {
      "mesh": 5,
      "translation": [
        0.0,
        5.909032,
        2.49093819
      ],
      "name": "YELLOW_Lens"
    },
    {
      "mesh": 6,
      "translation": [
        0.0,
        3.28707767,
        1.92564774
      ],
      "name": "Object_1"
    }
  ],
  "meshes": [
    {
      "primitives": [
        {
          "attributes": {
            "POSITION": 1,
            "NORMAL": 2,
            "TEXCOORD_0": 3
          },
          "indices": 0,
          "material": 0
        }
      ],
      "name": "Изостык"
    },
    {
      "primitives": [
        {
          "attributes": {
            "POSITION": 5,
            "NORMAL": 6,
            "TEXCOORD_0": 7
          },
          "indices": 4,
          "material": 1
        }
      ],
      "name": "Object002"
    },
    {
      "primitives": [
        {
          "attributes": {
            "POSITION": 9,
            "NORMAL": 10,
            "TEXCOORD_0": 11
          },
          "indices": 8,
          "material": 1
        }
      ],
      "name": "Светофор ПРОХОДНОЙ"
    },
    {
      "primitives": [
        {
          "attributes": {
            "POSITION": 13,
            "NORMAL": 14,
            "TEXCOORD_0": 15
          },
          "indices": 12,
          "material": 2
        }
      ],
      "name": "GREEN_Lens"
    },
    {
      "primitives": [
        {
          "attributes": {
            "POSITION": 17,
            "NORMAL": 18,
            "TEXCOORD_0": 19
          },
          "indices": 16,
          "material": 2
        }
      ],
      "name": "RED_Lens"
    },
    {
      "primitives": [
        {
          "attributes": {
            "POSITION": 21,
            "NORMAL": 22,
            "TEXCOORD_0": 23
          },
          "indices": 20,
          "material": 2
        }
      ],
      "name": "YELLOW_Lens"
    },
    {
      "primitives": [
        {
          "attributes": {
            "POSITION": 25,
            "NORMAL": 26,
            "TEXCOORD_0": 27
          },
          "indices": 24,
          "material": 3
        }
      ],
      "name": "Object_1"
    }
  ],
  "accessors": [
    {
      "bufferView": 0,
      "componentType": 5123,
      "count": 16380,
      "type": "SCALAR",
      "name": "accessorIndices"
    },
    {
      "bufferView": 1,
      "componentType": 5126,
      "count": 6428,
      "max": [
        2.759115,
        0.92159,
        1.06322038
      ],
      "min": [
        -1.30488682,
        -0.310489774,
        -1.3671571
      ],
      "type": "VEC3",
      "name": "accessorPositions"
    },
    {
      "bufferView": 1,
      "byteOffset": 77136,
      "componentType": 5126,
      "count": 6428,
      "type": "VEC3",
      "name": "accessorNormals"
    },
    {
      "bufferView": 2,
      "componentType": 5126,
      "count": 6428,
      "type": "VEC2",
      "name": "accessorUVs"
    },
    {
      "bufferView": 0,
      "byteOffset": 32760,
      "componentType": 5123,
      "count": 420,
      "type": "SCALAR",
      "name": "accessorIndices"
    },
    {
      "bufferView": 1,
      "byteOffset": 154272,
      "componentType": 5126,
      "count": 146,
      "max": [
        0.418933243,
        3.66603613,
        0.559042156
      ],
      "min": [
        -0.418933243,
        2.22285414,
        0.5536301
      ],
      "type": "VEC3",
      "name": "accessorPositions"
    },
    {
      "bufferView": 1,
      "byteOffset": 156024,
      "componentType": 5126,
      "count": 146,
      "type": "VEC3",
      "name": "accessorNormals"
    },
    {
      "bufferView": 2,
      "byteOffset": 51424,
      "componentType": 5126,
      "count": 146,
      "type": "VEC2",
      "name": "accessorUVs"
    },
    {
      "bufferView": 0,
      "byteOffset": 33600,
      "componentType": 5123,
      "count": 14088,
      "type": "SCALAR",
      "name": "accessorIndices"
    },
    {
      "bufferView": 1,
      "byteOffset": 157776,
      "componentType": 5126,
      "count": 8199,
      "max": [
        0.176988989,
        3.08716631,
        1.25604534
      ],
      "min": [
        -0.177886009,
        -3.45651746,
        -0.576844156
      ],
      "type": "VEC3",
      "name": "accessorPositions"
    },
    {
      "bufferView": 1,
      "byteOffset": 256164,
      "componentType": 5126,
      "count": 8199,
      "type": "VEC3",
      "name": "accessorNormals"
    },
    {
      "bufferView": 2,
      "byteOffset": 52592,
      "componentType": 5126,
      "count": 8199,
      "type": "VEC2",
      "name": "accessorUVs"
    },
    {
      "bufferView": 0,
      "byteOffset": 61776,
      "componentType": 5123,
      "count": 138,
      "type": "SCALAR",
      "name": "accessorIndices"
    },
    {
      "bufferView": 1,
      "byteOffset": 354552,
      "componentType": 5126,
      "count": 64,
      "max": [
        0.127627015,
        0.127627134,
        0.00354409218
      ],
      "min": [
        -0.127627015,
        -0.12762785,
        -0.00354409218
      ],
      "type": "VEC3",
      "name": "accessorPositions"
    },
    {
      "bufferView": 1,
      "byteOffset": 355320,
      "componentType": 5126,
      "count": 64,
      "type": "VEC3",
      "name": "accessorNormals"
    },
    {
      "bufferView": 2,
      "byteOffset": 118184,
      "componentType": 5126,
      "count": 64,
      "type": "VEC2",
      "name": "accessorUVs"
    },
    {
      "bufferView": 0,
      "byteOffset": 62052,
      "componentType": 5123,
      "count": 138,
      "type": "SCALAR",
      "name": "accessorIndices"
    },
    {
      "bufferView": 1,
      "byteOffset": 356088,
      "componentType": 5126,
      "count": 64,
      "max": [
        0.127627015,
        0.127627611,
        0.00354409218
      ],
      "min": [
        -0.127627015,
        -0.127627373,
        -0.00354409218
      ],
      "type": "VEC3",
      "name": "accessorPositions"
    },
    {
      "bufferView": 1,
      "byteOffset": 356856,
      "componentType": 5126,
      "count": 64,
      "type": "VEC3",
      "name": "accessorNormals"
    },
    {
      "bufferView": 2,
      "byteOffset": 118696,
      "componentType": 5126,
      "count": 64,
      "type": "VEC2",
      "name": "accessorUVs"
    },
    {
      "bufferView": 0,
      "byteOffset": 62328,
      "componentType": 5123,
      "count": 138,
      "type": "SCALAR",
      "name": "accessorIndices"
    },
    {
      "bufferView": 1,
      "byteOffset": 357624,
      "componentType": 5126,
      "count": 64,
      "max": [
        0.127627015,
        0.127627611,
        0.00354409218
      ],
      "min": [
        -0.127627015,
        -0.127627373,
        -0.00354409218
      ],
      "type": "VEC3",
      "name": "accessorPositions"
    },
    {
      "bufferView": 1,
      "byteOffset": 358392,
      "componentType": 5126,
      "count": 64,
      "type": "VEC3",
      "name": "accessorNormals"
    },
    {
      "bufferView": 2,
      "byteOffset": 119208,
      "componentType": 5126,
      "count": 64,
      "type": "VEC2",
      "name": "accessorUVs"
    },
    {
      "bufferView": 0,
      "byteOffset": 62604,
      "componentType": 5123,
      "count": 36,
      "type": "SCALAR",
      "name": "accessorIndices"
    },
    {
      "bufferView": 1,
      "byteOffset": 359160,
      "componentType": 5126,
      "count": 26,
      "max": [
        0.06915061,
        0.000468730927,
        0.108665481
      ],
      "min": [
        -0.0707407,
        -0.5855408,
        0.100935921
      ],
      "type": "VEC3",
      "name": "accessorPositions"
    },
    {
      "bufferView": 1,
      "byteOffset": 359472,
      "componentType": 5126,
      "count": 26,
      "type": "VEC3",
      "name": "accessorNormals"
    },
    {
      "bufferView": 2,
      "byteOffset": 119720,
      "componentType": 5126,
      "count": 26,
      "type": "VEC2",
      "name": "accessorUVs"
    }
  ],
  "bufferViews": [
    {
      "buffer": 0,
      "byteLength": 62676,
      "name": "bufferViewScalar"
    },
    {
      "buffer": 0,
      "byteOffset": 62676,
      "byteLength": 359784,
      "byteStride": 12,
      "name": "bufferViewFloatVec3"
    },
    {
      "buffer": 0,
      "byteOffset": 422460,
      "byteLength": 119928,
      "byteStride": 8,
      "name": "bufferViewFloatVec2"
    }
  ],
  "buffers": [
    {
      "uri": "RM_sig_MM2_T_3.bin",
      "byteLength": 542388
    }
  ],
  "materials": [
    {
      "pbrMetallicRoughness": {
        "baseColorTexture": {
          "index": 0
        },
        "metallicFactor": 0.0,
        "roughnessFactor": 0.450053632
      },
      "name": "Material #21"
    },
    {
      "pbrMetallicRoughness": {
        "baseColorTexture": {
          "index": 1
        },
        "metallicFactor": 0.0,
        "roughnessFactor": 0.450053632
      },
      "name": "Material #22"
    },
    {
      "pbrMetallicRoughness": {
        "metallicFactor": 0.0,
        "roughnessFactor": 0.450053632
      },
      "name": "Линзы"
    },
    {
      "pbrMetallicRoughness": {
        "baseColorTexture": {
          "index": 2
        },
        "metallicFactor": 0.0,
        "roughnessFactor": 0.450053632
      },
      "name": "Material #23"
    }
  ],
  "textures": [
    {
      "sampler": 0,
      "source": 0,
      "name": "RM_izostyk.jpg"
    },
    {
      "sampler": 0,
      "source": 1,
      "name": "RM_line.jpg"
    },
    {
      "sampler": 0,
      "source": 2,
      "name": "RM_tablpred.jpg"
    }
  ],
  "images": [
    {
      "uri": "RM_izostyk.jpg"
    },
    {
      "uri": "RM_line.jpg"
    },
    {
      "uri": "RM_tablpred.jpg"
    }
  ],
  "samplers": [
    {
      "magFilter": 9729,
      "minFilter": 9987
    }
  ]
}