{
  "asset": {
    "version": "2.0",
    "generator": "babylon.js glTF exporter for 3dsmax 2024 v20251021.2"
  },
  "scene": 0,
  "scenes": [
    {
      "nodes": [
        0,
        1,
        2,
        3
      ]
    }
  ],
  "nodes": [
    {
      "mesh": 0,
      "translation": [
        0.0,
        -0.073162064,
        0.0
      ],
      "name": "Изостык"
    },
    {
      "mesh": 1,
      "translation": [
        1.1920929E-07,
        2.89203262,
        1.92134869
      ],
      "name": "Светофор 2"
    },
    {
      "mesh": 2,
      "translation": [
        -0.00121820718,
        4.9826684,
        2.49148369
      ],
      "rotation": [
        0.7071068,
        7.832296E-17,
        -7.832296E-17,
        0.7071067
      ],
      "name": "WHITE_Lens"
    },
    {
      "mesh": 3,
      "translation": [
        -0.00121820718,
        4.678677,
        2.49148369
      ],
      "rotation": [
        0.7071068,
        7.832296E-17,
        -7.832296E-17,
        0.7071067
      ],
      "name": "BLUE_Lens"
    }
  ],
  "meshes": [
    {
      "primitives": [
        {
          "attributes": {
            "POSITION": 1,
            "NORMAL": 2,
            "TEXCOORD_0": 3
          },
          "indices": 0,
          "material": 0
        }
      ],
      "name": "Изостык"
    },
    {
      "primitives": [
        {
          "attributes": {
            "POSITION": 5,
            "NORMAL": 6,
            "TEXCOORD_0": 7
          },
          "indices": 4,
          "material": 1
        }
      ],
      "name": "Светофор 2"
    },
    {
      "primitives": [
        {
          "attributes": {
            "POSITION": 9,
            "NORMAL": 10,
            "TEXCOORD_0": 11
          },
          "indices": 8
        }
      ],
      "name": "WHITE_Lens"
    },
    {
      "primitives": [
        {
          "attributes": {
            "POSITION": 13,
            "NORMAL": 14,
            "TEXCOORD_0": 15
          },
          "indices": 12
        }
      ],
      "name": "BLUE_Lens"
    }
  ],
  "accessors": [
    {
      "bufferView": 0,
      "componentType": 5123,
      "count": 16380,
      "type": "SCALAR",
      "name": "accessorIndices"
    },
    {
      "bufferView": 1,
      "componentType": 5126,
      "count": 6428,
      "max": [
        0.259114981,
        0.92159,
        1.06322038
      ],
      "min": [
        -3.80488682,
        -0.310489774,
        -1.3671571
      ],
      "type": "VEC3",
      "name": "accessorPositions"
    },
    {
      "bufferView": 1,
      "byteOffset": 77136,
      "componentType": 5126,
      "count": 6428,
      "type": "VEC3",
      "name": "accessorNormals"
    },
    {
      "bufferView": 2,
      "componentType": 5126,
      "count": 6428,
      "type": "VEC2",
      "name": "accessorUVs"
    },
    {
      "bufferView": 0,
      "byteOffset": 32760,
      "componentType": 5123,
      "count": 11544,
      "type": "SCALAR",
      "name": "accessorIndices"
    },
    {
      "bufferView": 1,
      "byteOffset": 154272,
      "componentType": 5126,
      "count": 6751,
      "max": [
        0.299132764,
        2.58396626,
        1.26013529
      ],
      "min": [
        -0.30086726,
        -3.45651746,
        -0.576844156
      ],
      "type": "VEC3",
      "name": "accessorPositions"
    },
    {
      "bufferView": 1,
      "byteOffset": 235284,
      "componentType": 5126,
      "count": 6751,
      "type": "VEC3",
      "name": "accessorNormals"
    },
    {
      "bufferView": 2,
      "byteOffset": 51424,
      "componentType": 5126,
      "count": 6751,
      "type": "VEC2",
      "name": "accessorUVs"
    },
    {
      "bufferView": 0,
      "byteOffset": 55848,
      "componentType": 5123,
      "count": 1890,
      "type": "SCALAR",
      "name": "accessorIndices"
    },
    {
      "bufferView": 1,
      "byteOffset": 316296,
      "componentType": 5126,
      "count": 531,
      "max": [
        0.106532946,
        0.004435625,
        0.106532946
      ],
      "min": [
        -0.106532976,
        -4.98839654E-08,
        -0.106532976
      ],
      "type": "VEC3",
      "name": "accessorPositions"
    },
    {
      "bufferView": 1,
      "byteOffset": 322668,
      "componentType": 5126,
      "count": 531,
      "type": "VEC3",
      "name": "accessorNormals"
    },
    {
      "bufferView": 2,
      "byteOffset": 105432,
      "componentType": 5126,
      "count": 531,
      "type": "VEC2",
      "name": "accessorUVs"
    },
    {
      "bufferView": 0,
      "byteOffset": 59628,
      "componentType": 5123,
      "count": 1890,
      "type": "SCALAR",
      "name": "accessorIndices"
    },
    {
      "bufferView": 1,
      "byteOffset": 329040,
      "componentType": 5126,
      "count": 531,
      "max": [
        0.106532946,
        0.004435625,
        0.106532946
      ],
      "min": [
        -0.106532976,
        -4.98839654E-08,
        -0.106532976
      ],
      "type": "VEC3",
      "name": "accessorPositions"
    },
    {
      "bufferView": 1,
      "byteOffset": 335412,
      "componentType": 5126,
      "count": 531,
      "type": "VEC3",
      "name": "accessorNormals"
    },
    {
      "bufferView": 2,
      "byteOffset": 109680,
      "componentType": 5126,
      "count": 531,
      "type": "VEC2",
      "name": "accessorUVs"
    }
  ],
  "bufferViews": [
    {
      "buffer": 0,
      "byteLength": 63408,
      "name": "bufferViewScalar"
    },
    {
      "buffer": 0,
      "byteOffset": 63408,
      "byteLength": 341784,
      "byteStride": 12,
      "name": "bufferViewFloatVec3"
    },
    {
      "buffer": 0,
      "byteOffset": 405192,
      "byteLength": 113928,
      "byteStride": 8,
      "name": "bufferViewFloatVec2"
    }
  ],
  "buffers": [
    {
      "uri": "bin/RM_sig_M_MM1_WB_2.bin",
      "byteLength": 519120
    }
  ],
  "materials": [
    {
      "pbrMetallicRoughness": {
        "baseColorTexture": {
          "index": 2
        },
        "metallicRoughnessTexture": {
          "index": 1
        }
      },
      "normalTexture": {
        "index": 0
      },
      "occlusionTexture": {
        "index": 1
      },
      "name": "Material #34"
    },
    {
      "pbrMetallicRoughness": {
        "baseColorTexture": {
          "index": 5
        },
        "metallicRoughnessTexture": {
          "index": 4
        }
      },
      "normalTexture": {
        "index": 3
      },
      "occlusionTexture": {
        "index": 4
      },
      "name": "Material #35"
    }
  ],
  "textures": [
    {
      "sampler": 0,
      "source": 0,
      "name": "RM_izostyk_N.jpg"
    },
    {
      "sampler": 0,
      "source": 1,
      "name": "RM_izostyk_ORM.jpg"
    },
    {
      "sampler": 0,
      "source": 2,
      "name": "RM_izostyk_RGBA.jpg"
    },
    {
      "sampler": 0,
      "source": 3,
      "name": "RM_MM1-2_N.jpg"
    },
    {
      "sampler": 0,
      "source": 4,
      "name": "RM_MM1-2_ORM.jpg"
    },
    {
      "sampler": 0,
      "source": 5,
      "name": "RM_MM1-2_RGBA.jpg"
    }
  ],
  "images": [
    {
      "uri": "textures/RM_izostyk_N.jpg"
    },
    {
      "uri": "textures/RM_izostyk_ORM.jpg"
    },
    {
      "uri": "textures/RM_izostyk_RGBA.jpg"
    },
    {
      "uri": "textures/RM_MM1-2_N.jpg"
    },
    {
      "uri": "textures/RM_MM1-2_ORM.jpg"
    },
    {
      "uri": "textures/RM_MM1-2_RGBA.jpg"
    }
  ],
  "samplers": [
    {
      "magFilter": 9729,
      "minFilter": 9987
    }
  ]
}