{
  "asset": {
    "version": "2.0",
    "generator": "babylon.js glTF exporter for 3dsmax 2024 v20250723.2"
  },
  "scene": 0,
  "scenes": [
    {
      "nodes": [
        0,
        1,
        2,
        3,
        4,
        5
      ]
    }
  ],
  "nodes": [
    {
      "mesh": 0,
      "translation": [
        -2.5,
        0.238837942,
        0.0
      ],
      "name": "Изостык"
    },
    {
      "mesh": 1,
      "translation": [
        0.1914283,
        0.79675895,
        0.3018058
      ],
      "name": "Box002"
    },
    {
      "mesh": 2,
      "translation": [
        0.191439986,
        0.5774942,
        0.39912802
      ],
      "name": "Cylinder001"
    },
    {
      "mesh": 3,
      "translation": [
        0.191428185,
        1.099,
        0.470471442
      ],
      "rotation": [
        0.7071068,
        7.832296E-17,
        -7.832296E-17,
        0.7071067
      ],
      "name": "GREEN_Lens"
    },
    {
      "mesh": 4,
      "translation": [
        0.191428185,
        1.40105557,
        0.470471442
      ],
      "rotation": [
        0.7071068,
        7.832296E-17,
        -7.832296E-17,
        0.7071067
      ],
      "name": "BOTTOM_YELLOW_Lens"
    },
    {
      "mesh": 5,
      "translation": [
        0.191428185,
        0.796944559,
        0.470471442
      ],
      "rotation": [
        0.7071068,
        7.832296E-17,
        -7.832296E-17,
        0.7071067
      ],
      "name": "RED_Lens"
    }
  ],
  "meshes": [
    {
      "primitives": [
        {
          "attributes": {
            "POSITION": 1,
            "NORMAL": 2,
            "TEXCOORD_0": 3
          },
          "indices": 0,
          "material": 0
        }
      ],
      "name": "Изостык"
    },
    {
      "primitives": [
        {
          "attributes": {
            "POSITION": 5,
            "NORMAL": 6,
            "TEXCOORD_0": 7
          },
          "indices": 4,
          "material": 1
        }
      ],
      "name": "Box002"
    },
    {
      "primitives": [
        {
          "attributes": {
            "POSITION": 9,
            "NORMAL": 10,
            "TEXCOORD_0": 11
          },
          "indices": 8,
          "material": 1
        }
      ],
      "name": "Cylinder001"
    },
    {
      "primitives": [
        {
          "attributes": {
            "POSITION": 13,
            "NORMAL": 14,
            "TEXCOORD_0": 15
          },
          "indices": 12
        }
      ],
      "name": "GREEN_Lens"
    },
    {
      "primitives": [
        {
          "attributes": {
            "POSITION": 17,
            "NORMAL": 18,
            "TEXCOORD_0": 19
          },
          "indices": 16
        }
      ],
      "name": "BOTTOM_YELLOW_Lens"
    },
    {
      "primitives": [
        {
          "attributes": {
            "POSITION": 21,
            "NORMAL": 22,
            "TEXCOORD_0": 23
          },
          "indices": 20
        }
      ],
      "name": "RED_Lens"
    }
  ],
  "accessors": [
    {
      "bufferView": 0,
      "componentType": 5123,
      "count": 16380,
      "type": "SCALAR",
      "name": "accessorIndices"
    },
    {
      "bufferView": 1,
      "componentType": 5126,
      "count": 6428,
      "max": [
        2.759115,
        0.92159,
        1.06322038
      ],
      "min": [
        -1.30488682,
        -0.310489774,
        -1.3671571
      ],
      "type": "VEC3",
      "name": "accessorPositions"
    },
    {
      "bufferView": 1,
      "byteOffset": 77136,
      "componentType": 5126,
      "count": 6428,
      "type": "VEC3",
      "name": "accessorNormals"
    },
    {
      "bufferView": 2,
      "componentType": 5126,
      "count": 6428,
      "type": "VEC2",
      "name": "accessorUVs"
    },
    {
      "bufferView": 0,
      "byteOffset": 32760,
      "componentType": 5123,
      "count": 4452,
      "type": "SCALAR",
      "name": "accessorIndices"
    },
    {
      "bufferView": 1,
      "byteOffset": 154272,
      "componentType": 5126,
      "count": 2764,
      "max": [
        0.175282359,
        0.7577078,
        0.580170155
      ],
      "min": [
        -0.1745894,
        -0.214051366,
        -0.168665886
      ],
      "type": "VEC3",
      "name": "accessorPositions"
    },
    {
      "bufferView": 1,
      "byteOffset": 187440,
      "componentType": 5126,
      "count": 2764,
      "type": "VEC3",
      "name": "accessorNormals"
    },
    {
      "bufferView": 2,
      "byteOffset": 51424,
      "componentType": 5126,
      "count": 2764,
      "type": "VEC2",
      "name": "accessorUVs"
    },
    {
      "bufferView": 0,
      "byteOffset": 41664,
      "componentType": 5123,
      "count": 750,
      "type": "SCALAR",
      "name": "accessorIndices"
    },
    {
      "bufferView": 1,
      "byteOffset": 220608,
      "componentType": 5126,
      "count": 388,
      "max": [
        0.218466058,
        0.00730085373,
        0.0736992359
      ],
      "min": [
        -0.218477815,
        -1.523979,
        -0.738996744
      ],
      "type": "VEC3",
      "name": "accessorPositions"
    },
    {
      "bufferView": 1,
      "byteOffset": 225264,
      "componentType": 5126,
      "count": 388,
      "type": "VEC3",
      "name": "accessorNormals"
    },
    {
      "bufferView": 2,
      "byteOffset": 73536,
      "componentType": 5126,
      "count": 388,
      "type": "VEC2",
      "name": "accessorUVs"
    },
    {
      "bufferView": 0,
      "byteOffset": 43164,
      "componentType": 5123,
      "count": 1890,
      "type": "SCALAR",
      "name": "accessorIndices"
    },
    {
      "bufferView": 1,
      "byteOffset": 229920,
      "componentType": 5126,
      "count": 531,
      "max": [
        0.106532946,
        0.004435625,
        0.106532946
      ],
      "min": [
        -0.106532976,
        -4.98839654E-08,
        -0.106532976
      ],
      "type": "VEC3",
      "name": "accessorPositions"
    },
    {
      "bufferView": 1,
      "byteOffset": 236292,
      "componentType": 5126,
      "count": 531,
      "type": "VEC3",
      "name": "accessorNormals"
    },
    {
      "bufferView": 2,
      "byteOffset": 76640,
      "componentType": 5126,
      "count": 531,
      "type": "VEC2",
      "name": "accessorUVs"
    },
    {
      "bufferView": 0,
      "byteOffset": 46944,
      "componentType": 5123,
      "count": 1890,
      "type": "SCALAR",
      "name": "accessorIndices"
    },
    {
      "bufferView": 1,
      "byteOffset": 242664,
      "componentType": 5126,
      "count": 531,
      "max": [
        0.106532946,
        0.004435625,
        0.106532946
      ],
      "min": [
        -0.106532976,
        -4.98839654E-08,
        -0.106532976
      ],
      "type": "VEC3",
      "name": "accessorPositions"
    },
    {
      "bufferView": 1,
      "byteOffset": 249036,
      "componentType": 5126,
      "count": 531,
      "type": "VEC3",
      "name": "accessorNormals"
    },
    {
      "bufferView": 2,
      "byteOffset": 80888,
      "componentType": 5126,
      "count": 531,
      "type": "VEC2",
      "name": "accessorUVs"
    },
    {
      "bufferView": 0,
      "byteOffset": 50724,
      "componentType": 5123,
      "count": 1890,
      "type": "SCALAR",
      "name": "accessorIndices"
    },
    {
      "bufferView": 1,
      "byteOffset": 255408,
      "componentType": 5126,
      "count": 531,
      "max": [
        0.106532946,
        0.004435625,
        0.106532946
      ],
      "min": [
        -0.106532976,
        -4.98839654E-08,
        -0.106532976
      ],
      "type": "VEC3",
      "name": "accessorPositions"
    },
    {
      "bufferView": 1,
      "byteOffset": 261780,
      "componentType": 5126,
      "count": 531,
      "type": "VEC3",
      "name": "accessorNormals"
    },
    {
      "bufferView": 2,
      "byteOffset": 85136,
      "componentType": 5126,
      "count": 531,
      "type": "VEC2",
      "name": "accessorUVs"
    }
  ],
  "bufferViews": [
    {
      "buffer": 0,
      "byteLength": 54504,
      "name": "bufferViewScalar"
    },
    {
      "buffer": 0,
      "byteOffset": 54504,
      "byteLength": 268152,
      "byteStride": 12,
      "name": "bufferViewFloatVec3"
    },
    {
      "buffer": 0,
      "byteOffset": 322656,
      "byteLength": 89384,
      "byteStride": 8,
      "name": "bufferViewFloatVec2"
    }
  ],
  "buffers": [
    {
      "uri": "RM_sig_KM1_3.bin",
      "byteLength": 412040
    }
  ],
  "materials": [
    {
      "pbrMetallicRoughness": {
        "baseColorTexture": {
          "index": 0
        },
        "metallicFactor": 0.0,
        "roughnessFactor": 0.8
      },
      "name": "Material #1"
    },
    {
      "pbrMetallicRoughness": {
        "baseColorTexture": {
          "index": 1
        },
        "metallicFactor": 0.0,
        "roughnessFactor": 0.8
      },
      "name": "Material #2"
    }
  ],
  "textures": [
    {
      "sampler": 0,
      "source": 0,
      "name": "RM_izostyk.jpg"
    },
    {
      "sampler": 0,
      "source": 1,
      "name": "RM_KM1.jpg"
    }
  ],
  "images": [
    {
      "uri": "RM_izostyk.jpg"
    },
    {
      "uri": "RM_KM1.jpg"
    }
  ],
  "samplers": [
    {
      "magFilter": 9729,
      "minFilter": 9987
    }
  ]
}