{
  "asset": {
    "version": "2.0",
    "generator": "babylon.js glTF exporter for 3dsmax 2024 v20251021.2"
  },
  "scene": 0,
  "scenes": [
    {
      "nodes": [
        0,
        1,
        2,
        3,
        4,
        5,
        6
      ]
    }
  ],
  "nodes": [
    {
      "mesh": 0,
      "translation": [
        -2.5,
        -0.073162064,
        0.0
      ],
      "name": "Изостык"
    },
    {
      "mesh": 1,
      "translation": [
        0.0127201676,
        9.532417,
        -0.2568159
      ],
      "name": "Клетка"
    },
    {
      "mesh": 2,
      "translation": [
        0.0127201676,
        7.12948,
        -0.5325222
      ],
      "name": "Светофор"
    },
    {
      "mesh": 3,
      "translation": [
        0.010986398,
        10.2273808,
        0.0370672941
      ],
      "scale": [
        0.915969253,
        0.915969253,
        1.0
      ],
      "name": "YELLOW_Lens"
    },
    {
      "mesh": 4,
      "translation": [
        0.010986398,
        8.973803,
        0.0335232019
      ],
      "scale": [
        0.915969253,
        0.915969253,
        1.0
      ],
      "name": "RED_Lens"
    },
    {
      "mesh": 5,
      "translation": [
        0.010986398,
        9.923389,
        0.03352344
      ],
      "scale": [
        0.915969253,
        0.915969253,
        1.0
      ],
      "name": "GREEN_Lens"
    },
    {
      "mesh": 6,
      "translation": [
        0.010986398,
        8.669477,
        0.03352368
      ],
      "scale": [
        0.915969253,
        0.915969253,
        1.0
      ],
      "name": "BOTTOM_YELLOW_Lens"
    }
  ],
  "meshes": [
    {
      "primitives": [
        {
          "attributes": {
            "POSITION": 1,
            "NORMAL": 2,
            "TEXCOORD_0": 3
          },
          "indices": 0,
          "material": 0
        }
      ],
      "name": "Изостык"
    },
    {
      "primitives": [
        {
          "attributes": {
            "POSITION": 5,
            "NORMAL": 6,
            "TEXCOORD_0": 7
          },
          "indices": 4,
          "material": 1
        }
      ],
      "name": "Клетка"
    },
    {
      "primitives": [
        {
          "attributes": {
            "POSITION": 9,
            "NORMAL": 10,
            "TEXCOORD_0": 11
          },
          "indices": 8,
          "material": 2
        }
      ],
      "name": "Светофор"
    },
    {
      "primitives": [
        {
          "attributes": {
            "POSITION": 13,
            "NORMAL": 14,
            "TEXCOORD_0": 15
          },
          "indices": 12,
          "material": 3
        }
      ],
      "name": "YELLOW_Lens"
    },
    {
      "primitives": [
        {
          "attributes": {
            "POSITION": 17,
            "NORMAL": 18,
            "TEXCOORD_0": 19
          },
          "indices": 16,
          "material": 3
        }
      ],
      "name": "RED_Lens"
    },
    {
      "primitives": [
        {
          "attributes": {
            "POSITION": 21,
            "NORMAL": 22,
            "TEXCOORD_0": 23
          },
          "indices": 20,
          "material": 3
        }
      ],
      "name": "GREEN_Lens"
    },
    {
      "primitives": [
        {
          "attributes": {
            "POSITION": 25,
            "NORMAL": 26,
            "TEXCOORD_0": 27
          },
          "indices": 24,
          "material": 3
        }
      ],
      "name": "BOTTOM_YELLOW_Lens"
    }
  ],
  "accessors": [
    {
      "bufferView": 0,
      "componentType": 5123,
      "count": 16380,
      "type": "SCALAR",
      "name": "accessorIndices"
    },
    {
      "bufferView": 1,
      "componentType": 5126,
      "count": 6428,
      "max": [
        2.759115,
        0.92159,
        1.06322038
      ],
      "min": [
        -1.30488682,
        -0.310489774,
        -1.3671571
      ],
      "type": "VEC3",
      "name": "accessorPositions"
    },
    {
      "bufferView": 1,
      "byteOffset": 77136,
      "componentType": 5126,
      "count": 6428,
      "type": "VEC3",
      "name": "accessorNormals"
    },
    {
      "bufferView": 2,
      "componentType": 5126,
      "count": 6428,
      "type": "VEC2",
      "name": "accessorUVs"
    },
    {
      "bufferView": 0,
      "byteOffset": 32760,
      "componentType": 5123,
      "count": 1812,
      "type": "SCALAR",
      "name": "accessorIndices"
    },
    {
      "bufferView": 1,
      "byteOffset": 154272,
      "componentType": 5126,
      "count": 1058,
      "max": [
        0.600428641,
        2.09468079,
        0.467869282
      ],
      "min": [
        -0.6004286,
        -2.09468174,
        -0.4678688
      ],
      "type": "VEC3",
      "name": "accessorPositions"
    },
    {
      "bufferView": 1,
      "byteOffset": 166968,
      "componentType": 5126,
      "count": 1058,
      "type": "VEC3",
      "name": "accessorNormals"
    },
    {
      "bufferView": 2,
      "byteOffset": 51424,
      "componentType": 5126,
      "count": 1058,
      "type": "VEC2",
      "name": "accessorUVs"
    },
    {
      "bufferView": 0,
      "byteOffset": 36384,
      "componentType": 5123,
      "count": 13764,
      "type": "SCALAR",
      "name": "accessorIndices"
    },
    {
      "bufferView": 1,
      "byteOffset": 179664,
      "componentType": 5126,
      "count": 7924,
      "max": [
        0.395656,
        3.49620461,
        1.26013541
      ],
      "min": [
        -0.399123549,
        1.10268664,
        -0.08921504
      ],
      "type": "VEC3",
      "name": "accessorPositions"
    },
    {
      "bufferView": 1,
      "byteOffset": 274752,
      "componentType": 5126,
      "count": 7924,
      "type": "VEC3",
      "name": "accessorNormals"
    },
    {
      "bufferView": 2,
      "byteOffset": 59888,
      "componentType": 5126,
      "count": 7924,
      "type": "VEC2",
      "name": "accessorUVs"
    },
    {
      "bufferView": 0,
      "byteOffset": 63912,
      "componentType": 5123,
      "count": 138,
      "type": "SCALAR",
      "name": "accessorIndices"
    },
    {
      "bufferView": 1,
      "byteOffset": 369840,
      "componentType": 5126,
      "count": 64,
      "max": [
        0.127627134,
        0.127627611,
        0.003543973
      ],
      "min": [
        -0.1276269,
        -0.127627373,
        -0.00354403257
      ],
      "type": "VEC3",
      "name": "accessorPositions"
    },
    {
      "bufferView": 1,
      "byteOffset": 370608,
      "componentType": 5126,
      "count": 64,
      "type": "VEC3",
      "name": "accessorNormals"
    },
    {
      "bufferView": 2,
      "byteOffset": 123280,
      "componentType": 5126,
      "count": 64,
      "type": "VEC2",
      "name": "accessorUVs"
    },
    {
      "bufferView": 0,
      "byteOffset": 64188,
      "componentType": 5123,
      "count": 138,
      "type": "SCALAR",
      "name": "accessorIndices"
    },
    {
      "bufferView": 1,
      "byteOffset": 371376,
      "componentType": 5126,
      "count": 64,
      "max": [
        0.127627134,
        0.127627611,
        0.003543973
      ],
      "min": [
        -0.1276269,
        -0.127627373,
        -0.00354403257
      ],
      "type": "VEC3",
      "name": "accessorPositions"
    },
    {
      "bufferView": 1,
      "byteOffset": 372144,
      "componentType": 5126,
      "count": 64,
      "type": "VEC3",
      "name": "accessorNormals"
    },
    {
      "bufferView": 2,
      "byteOffset": 123792,
      "componentType": 5126,
      "count": 64,
      "type": "VEC2",
      "name": "accessorUVs"
    },
    {
      "bufferView": 0,
      "byteOffset": 64464,
      "componentType": 5123,
      "count": 138,
      "type": "SCALAR",
      "name": "accessorIndices"
    },
    {
      "bufferView": 1,
      "byteOffset": 372912,
      "componentType": 5126,
      "count": 64,
      "max": [
        0.127627134,
        0.127627611,
        0.003543973
      ],
      "min": [
        -0.1276269,
        -0.127627373,
        -0.00354403257
      ],
      "type": "VEC3",
      "name": "accessorPositions"
    },
    {
      "bufferView": 1,
      "byteOffset": 373680,
      "componentType": 5126,
      "count": 64,
      "type": "VEC3",
      "name": "accessorNormals"
    },
    {
      "bufferView": 2,
      "byteOffset": 124304,
      "componentType": 5126,
      "count": 64,
      "type": "VEC2",
      "name": "accessorUVs"
    },
    {
      "bufferView": 0,
      "byteOffset": 64740,
      "componentType": 5123,
      "count": 138,
      "type": "SCALAR",
      "name": "accessorIndices"
    },
    {
      "bufferView": 1,
      "byteOffset": 374448,
      "componentType": 5126,
      "count": 64,
      "max": [
        0.127627134,
        0.127627611,
        0.003543973
      ],
      "min": [
        -0.1276269,
        -0.127627373,
        -0.00354403257
      ],
      "type": "VEC3",
      "name": "accessorPositions"
    },
    {
      "bufferView": 1,
      "byteOffset": 375216,
      "componentType": 5126,
      "count": 64,
      "type": "VEC3",
      "name": "accessorNormals"
    },
    {
      "bufferView": 2,
      "byteOffset": 124816,
      "componentType": 5126,
      "count": 64,
      "type": "VEC2",
      "name": "accessorUVs"
    }
  ],
  "bufferViews": [
    {
      "buffer": 0,
      "byteLength": 65016,
      "name": "bufferViewScalar"
    },
    {
      "buffer": 0,
      "byteOffset": 65016,
      "byteLength": 375984,
      "byteStride": 12,
      "name": "bufferViewFloatVec3"
    },
    {
      "buffer": 0,
      "byteOffset": 441000,
      "byteLength": 125328,
      "byteStride": 8,
      "name": "bufferViewFloatVec2"
    }
  ],
  "buffers": [
    {
      "uri": "bin/RM_sig_P_RM2_YG+RY_2+2.bin",
      "byteLength": 566328
    }
  ],
  "materials": [
    {
      "pbrMetallicRoughness": {
        "baseColorTexture": {
          "index": 2
        },
        "metallicRoughnessTexture": {
          "index": 1
        }
      },
      "normalTexture": {
        "index": 0
      },
      "occlusionTexture": {
        "index": 1
      },
      "name": "Material #4"
    },
    {
      "pbrMetallicRoughness": {
        "baseColorTexture": {
          "index": 5
        },
        "metallicRoughnessTexture": {
          "index": 4
        }
      },
      "normalTexture": {
        "index": 3
      },
      "occlusionTexture": {
        "index": 4
      },
      "name": "Material #6"
    },
    {
      "pbrMetallicRoughness": {
        "baseColorTexture": {
          "index": 8
        },
        "metallicRoughnessTexture": {
          "index": 7
        }
      },
      "normalTexture": {
        "index": 6
      },
      "occlusionTexture": {
        "index": 7
      },
      "name": "Material #5"
    },
    {
      "pbrMetallicRoughness": {
        "metallicFactor": 0.0,
        "roughnessFactor": 0.450053632
      },
      "name": "Линзы"
    }
  ],
  "textures": [
    {
      "sampler": 0,
      "source": 0,
      "name": "RM_izostyk_N.jpg"
    },
    {
      "sampler": 0,
      "source": 1,
      "name": "RM_izostyk_ORM.jpg"
    },
    {
      "sampler": 0,
      "source": 2,
      "name": "RM_izostyk_RGBA.jpg"
    },
    {
      "sampler": 0,
      "source": 3,
      "name": "RM_cell_N.jpg"
    },
    {
      "sampler": 0,
      "source": 4,
      "name": "RM_cell_ORM.jpg"
    },
    {
      "sampler": 0,
      "source": 5,
      "name": "RM_cell_RGBA.jpg"
    },
    {
      "sampler": 0,
      "source": 6,
      "name": "RM_MM1-2_N.jpg"
    },
    {
      "sampler": 0,
      "source": 7,
      "name": "RM_MM1-2_ORM.jpg"
    },
    {
      "sampler": 0,
      "source": 8,
      "name": "RM_MM1-2_RGBA.jpg"
    }
  ],
  "images": [
    {
      "uri": "textures/RM_izostyk_N.jpg"
    },
    {
      "uri": "textures/RM_izostyk_ORM.jpg"
    },
    {
      "uri": "textures/RM_izostyk_RGBA.jpg"
    },
    {
      "uri": "textures/RM_cell_N.jpg"
    },
    {
      "uri": "textures/RM_cell_ORM.jpg"
    },
    {
      "uri": "textures/RM_cell_RGBA.jpg"
    },
    {
      "uri": "textures/RM_MM1-2_N.jpg"
    },
    {
      "uri": "textures/RM_MM1-2_ORM.jpg"
    },
    {
      "uri": "textures/RM_MM1-2_RGBA.jpg"
    }
  ],
  "samplers": [
    {
      "magFilter": 9729,
      "minFilter": 9987
    }
  ]
}