{
  "asset": {
    "version": "2.0",
    "generator": "babylon.js glTF exporter for 3dsmax 2024 v20250428.5"
  },
  "scene": 0,
  "scenes": [
    {
      "nodes": [
        0,
        1,
        2,
        3,
        4,
        5,
        6,
        7
      ]
    }
  ],
  "nodes": [
    {
      "mesh": 0,
      "translation": [
        0.00213866076,
        10.6861048,
        0.0367308781
      ],
      "scale": [
        0.8954232,
        0.8954232,
        1.0
      ],
      "name": "YELLOW_Lens"
    },
    {
      "mesh": 1,
      "translation": [
        0.00213866076,
        9.31694,
        0.0367308781
      ],
      "scale": [
        0.9027257,
        0.9027257,
        1.0
      ],
      "name": "RED_Lens"
    },
    {
      "mesh": 2,
      "translation": [
        0.00213866076,
        10.3821144,
        0.03602206
      ],
      "scale": [
        0.900647759,
        0.900647759,
        1.0
      ],
      "name": "GREEN_Lens"
    },
    {
      "mesh": 3,
      "translation": [
        0.00213866076,
        9.012949,
        0.03602206
      ],
      "scale": [
        0.9028722,
        0.9028722,
        1.0
      ],
      "name": "BOTTOM_YELLOW_Lens"
    },
    {
      "mesh": 4,
      "name": "Object_1"
    },
    {
      "mesh": 5,
      "translation": [
        -2.5,
        0.238837942,
        0.0
      ],
      "name": "Изостык"
    },
    {
      "mesh": 6,
      "translation": [
        0.0,
        7.742114,
        -0.5258554
      ],
      "name": "Object001"
    },
    {
      "mesh": 7,
      "translation": [
        0.0,
        9.111279,
        -0.5258554
      ],
      "name": "Object002"
    }
  ],
  "meshes": [
    {
      "primitives": [
        {
          "attributes": {
            "POSITION": 1,
            "NORMAL": 2,
            "TEXCOORD_0": 3
          },
          "indices": 0,
          "material": 0
        }
      ],
      "name": "YELLOW_Lens"
    },
    {
      "primitives": [
        {
          "attributes": {
            "POSITION": 5,
            "NORMAL": 6,
            "TEXCOORD_0": 7
          },
          "indices": 4,
          "material": 0
        }
      ],
      "name": "RED_Lens"
    },
    {
      "primitives": [
        {
          "attributes": {
            "POSITION": 9,
            "NORMAL": 10,
            "TEXCOORD_0": 11
          },
          "indices": 8,
          "material": 0
        }
      ],
      "name": "GREEN_Lens"
    },
    {
      "primitives": [
        {
          "attributes": {
            "POSITION": 13,
            "NORMAL": 14,
            "TEXCOORD_0": 15
          },
          "indices": 12,
          "material": 0
        }
      ],
      "name": "BOTTOM_YELLOW_Lens"
    },
    {
      "primitives": [
        {
          "attributes": {
            "POSITION": 17,
            "NORMAL": 18,
            "TEXCOORD_0": 19
          },
          "indices": 16,
          "material": 1
        }
      ],
      "name": "Object_1"
    },
    {
      "primitives": [
        {
          "attributes": {
            "POSITION": 21,
            "NORMAL": 22,
            "TEXCOORD_0": 23
          },
          "indices": 20,
          "material": 2
        }
      ],
      "name": "Изостык"
    },
    {
      "primitives": [
        {
          "attributes": {
            "POSITION": 25,
            "NORMAL": 26,
            "TEXCOORD_0": 27
          },
          "indices": 24,
          "material": 3
        }
      ],
      "name": "Object001"
    },
    {
      "primitives": [
        {
          "attributes": {
            "POSITION": 29,
            "NORMAL": 30,
            "TEXCOORD_0": 31
          },
          "indices": 28,
          "material": 3
        }
      ],
      "name": "Object002"
    }
  ],
  "accessors": [
    {
      "bufferView": 0,
      "componentType": 5123,
      "count": 138,
      "type": "SCALAR",
      "name": "accessorIndices"
    },
    {
      "bufferView": 1,
      "componentType": 5126,
      "count": 64,
      "max": [
        0.127627134,
        0.127627611,
        0.003543973
      ],
      "min": [
        -0.1276269,
        -0.127627373,
        -0.00354403257
      ],
      "type": "VEC3",
      "name": "accessorPositions"
    },
    {
      "bufferView": 1,
      "byteOffset": 768,
      "componentType": 5126,
      "count": 64,
      "type": "VEC3",
      "name": "accessorNormals"
    },
    {
      "bufferView": 2,
      "componentType": 5126,
      "count": 64,
      "type": "VEC2",
      "name": "accessorUVs"
    },
    {
      "bufferView": 0,
      "byteOffset": 276,
      "componentType": 5123,
      "count": 138,
      "type": "SCALAR",
      "name": "accessorIndices"
    },
    {
      "bufferView": 1,
      "byteOffset": 1536,
      "componentType": 5126,
      "count": 64,
      "max": [
        0.127627134,
        0.127627611,
        0.003543973
      ],
      "min": [
        -0.1276269,
        -0.127627373,
        -0.00354403257
      ],
      "type": "VEC3",
      "name": "accessorPositions"
    },
    {
      "bufferView": 1,
      "byteOffset": 2304,
      "componentType": 5126,
      "count": 64,
      "type": "VEC3",
      "name": "accessorNormals"
    },
    {
      "bufferView": 2,
      "byteOffset": 512,
      "componentType": 5126,
      "count": 64,
      "type": "VEC2",
      "name": "accessorUVs"
    },
    {
      "bufferView": 0,
      "byteOffset": 552,
      "componentType": 5123,
      "count": 138,
      "type": "SCALAR",
      "name": "accessorIndices"
    },
    {
      "bufferView": 1,
      "byteOffset": 3072,
      "componentType": 5126,
      "count": 64,
      "max": [
        0.127627134,
        0.127627611,
        0.003543973
      ],
      "min": [
        -0.1276269,
        -0.127627373,
        -0.00354403257
      ],
      "type": "VEC3",
      "name": "accessorPositions"
    },
    {
      "bufferView": 1,
      "byteOffset": 3840,
      "componentType": 5126,
      "count": 64,
      "type": "VEC3",
      "name": "accessorNormals"
    },
    {
      "bufferView": 2,
      "byteOffset": 1024,
      "componentType": 5126,
      "count": 64,
      "type": "VEC2",
      "name": "accessorUVs"
    },
    {
      "bufferView": 0,
      "byteOffset": 828,
      "componentType": 5123,
      "count": 138,
      "type": "SCALAR",
      "name": "accessorIndices"
    },
    {
      "bufferView": 1,
      "byteOffset": 4608,
      "componentType": 5126,
      "count": 64,
      "max": [
        0.127627134,
        0.127627611,
        0.003543973
      ],
      "min": [
        -0.1276269,
        -0.127627373,
        -0.00354403257
      ],
      "type": "VEC3",
      "name": "accessorPositions"
    },
    {
      "bufferView": 1,
      "byteOffset": 5376,
      "componentType": 5126,
      "count": 64,
      "type": "VEC3",
      "name": "accessorNormals"
    },
    {
      "bufferView": 2,
      "byteOffset": 1536,
      "componentType": 5126,
      "count": 64,
      "type": "VEC2",
      "name": "accessorUVs"
    },
    {
      "bufferView": 0,
      "byteOffset": 1104,
      "componentType": 5123,
      "count": 1584,
      "type": "SCALAR",
      "name": "accessorIndices"
    },
    {
      "bufferView": 1,
      "byteOffset": 6144,
      "componentType": 5126,
      "count": 1195,
      "max": [
        0.6131489,
        11.9390984,
        0.211053222
      ],
      "min": [
        -0.5877085,
        7.749736,
        -0.724684834
      ],
      "type": "VEC3",
      "name": "accessorPositions"
    },
    {
      "bufferView": 1,
      "byteOffset": 20484,
      "componentType": 5126,
      "count": 1195,
      "type": "VEC3",
      "name": "accessorNormals"
    },
    {
      "bufferView": 2,
      "byteOffset": 2048,
      "componentType": 5126,
      "count": 1195,
      "type": "VEC2",
      "name": "accessorUVs"
    },
    {
      "bufferView": 0,
      "byteOffset": 4272,
      "componentType": 5123,
      "count": 16380,
      "type": "SCALAR",
      "name": "accessorIndices"
    },
    {
      "bufferView": 1,
      "byteOffset": 34824,
      "componentType": 5126,
      "count": 6428,
      "max": [
        2.759115,
        0.92159,
        1.06322038
      ],
      "min": [
        -1.30488682,
        -0.310489774,
        -1.3671571
      ],
      "type": "VEC3",
      "name": "accessorPositions"
    },
    {
      "bufferView": 1,
      "byteOffset": 111960,
      "componentType": 5126,
      "count": 6428,
      "type": "VEC3",
      "name": "accessorNormals"
    },
    {
      "bufferView": 2,
      "byteOffset": 11608,
      "componentType": 5126,
      "count": 6428,
      "type": "VEC2",
      "name": "accessorUVs"
    },
    {
      "bufferView": 0,
      "byteOffset": 37032,
      "componentType": 5123,
      "count": 6672,
      "type": "SCALAR",
      "name": "accessorIndices"
    },
    {
      "bufferView": 1,
      "byteOffset": 189096,
      "componentType": 5126,
      "count": 3732,
      "max": [
        0.418933243,
        1.98131418,
        1.24904251
      ],
      "min": [
        -0.418933243,
        0.8335221,
        -0.100308463
      ],
      "type": "VEC3",
      "name": "accessorPositions"
    },
    {
      "bufferView": 1,
      "byteOffset": 233880,
      "componentType": 5126,
      "count": 3732,
      "type": "VEC3",
      "name": "accessorNormals"
    },
    {
      "bufferView": 2,
      "byteOffset": 63032,
      "componentType": 5126,
      "count": 3732,
      "type": "VEC2",
      "name": "accessorUVs"
    },
    {
      "bufferView": 0,
      "byteOffset": 50376,
      "componentType": 5123,
      "count": 6672,
      "type": "SCALAR",
      "name": "accessorIndices"
    },
    {
      "bufferView": 1,
      "byteOffset": 278664,
      "componentType": 5126,
      "count": 3732,
      "max": [
        0.418933243,
        1.98131418,
        1.24904251
      ],
      "min": [
        -0.418933243,
        0.8335221,
        -0.100308463
      ],
      "type": "VEC3",
      "name": "accessorPositions"
    },
    {
      "bufferView": 1,
      "byteOffset": 323448,
      "componentType": 5126,
      "count": 3732,
      "type": "VEC3",
      "name": "accessorNormals"
    },
    {
      "bufferView": 2,
      "byteOffset": 92888,
      "componentType": 5126,
      "count": 3732,
      "type": "VEC2",
      "name": "accessorUVs"
    }
  ],
  "bufferViews": [
    {
      "buffer": 0,
      "byteLength": 63720,
      "name": "bufferViewScalar"
    },
    {
      "buffer": 0,
      "byteOffset": 63720,
      "byteLength": 368232,
      "byteStride": 12,
      "name": "bufferViewFloatVec3"
    },
    {
      "buffer": 0,
      "byteOffset": 431952,
      "byteLength": 122744,
      "byteStride": 8,
      "name": "bufferViewFloatVec2"
    }
  ],
  "buffers": [
    {
      "uri": "RM_sig_RM2_2+2.bin",
      "byteLength": 554696
    }
  ],
  "materials": [
    {
      "pbrMetallicRoughness": {
        "metallicFactor": 0.0,
        "roughnessFactor": 0.450053632
      },
      "name": "Выходной сигнал"
    },
    {
      "pbrMetallicRoughness": {
        "baseColorTexture": {
          "index": 0
        },
        "metallicFactor": 0.0,
        "roughnessFactor": 0.450053632
      },
      "name": "Material #23"
    },
    {
      "pbrMetallicRoughness": {
        "baseColorTexture": {
          "index": 1
        },
        "metallicFactor": 0.0,
        "roughnessFactor": 0.450053632
      },
      "name": "Material #21"
    },
    {
      "pbrMetallicRoughness": {
        "baseColorTexture": {
          "index": 2
        },
        "metallicFactor": 0.0,
        "roughnessFactor": 0.450053632
      },
      "name": "Material #22"
    }
  ],
  "textures": [
    {
      "sampler": 0,
      "source": 0,
      "name": "RM_sv.jpg"
    },
    {
      "sampler": 0,
      "source": 1,
      "name": "RM_izostyk.jpg"
    },
    {
      "sampler": 0,
      "source": 2,
      "name": "RM_rout.jpg"
    }
  ],
  "images": [
    {
      "uri": "RM_sv.jpg"
    },
    {
      "uri": "RM_izostyk.jpg"
    },
    {
      "uri": "RM_rout.jpg"
    }
  ],
  "samplers": [
    {
      "magFilter": 9729,
      "minFilter": 9987
    }
  ]
}