{
  "asset": {
    "version": "2.0",
    "generator": "babylon.js glTF exporter for 3dsmax 2024 v20251021.2"
  },
  "scene": 0,
  "scenes": [
    {
      "nodes": [
        0,
        1,
        2,
        3,
        4,
        5
      ]
    }
  ],
  "nodes": [
    {
      "mesh": 0,
      "translation": [
        -2.5,
        -0.073162064,
        0.0
      ],
      "name": "Изостык"
    },
    {
      "mesh": 1,
      "translation": [
        0.0,
        0.2654942,
        0.39912802
      ],
      "name": "Светоор 4"
    },
    {
      "mesh": 2,
      "translation": [
        -1.180172E-05,
        1.08905554,
        0.470471442
      ],
      "rotation": [
        0.7071068,
        7.832296E-17,
        -7.832296E-17,
        0.7071067
      ],
      "name": "GREEN_Lens"
    },
    {
      "mesh": 3,
      "translation": [
        -1.180172E-05,
        1.39111114,
        0.470471442
      ],
      "rotation": [
        0.7071068,
        7.832296E-17,
        -7.832296E-17,
        0.7071067
      ],
      "name": "YELLOW_Lens"
    },
    {
      "mesh": 4,
      "translation": [
        -1.180172E-05,
        0.484918982,
        0.470471442
      ],
      "rotation": [
        0.7071068,
        7.832296E-17,
        -7.832296E-17,
        0.7071067
      ],
      "name": "WHITE_Lens"
    },
    {
      "mesh": 5,
      "translation": [
        -1.180172E-05,
        0.78700006,
        0.470471442
      ],
      "rotation": [
        0.7071068,
        7.832296E-17,
        -7.832296E-17,
        0.7071067
      ],
      "name": "RED_Lens"
    }
  ],
  "meshes": [
    {
      "primitives": [
        {
          "attributes": {
            "POSITION": 1,
            "NORMAL": 2,
            "TEXCOORD_0": 3
          },
          "indices": 0,
          "material": 0
        }
      ],
      "name": "Изостык"
    },
    {
      "primitives": [
        {
          "attributes": {
            "POSITION": 5,
            "NORMAL": 6,
            "TEXCOORD_0": 7
          },
          "indices": 4,
          "material": 1
        }
      ],
      "name": "Светоор 4"
    },
    {
      "primitives": [
        {
          "attributes": {
            "POSITION": 9,
            "NORMAL": 10,
            "TEXCOORD_0": 11
          },
          "indices": 8
        }
      ],
      "name": "GREEN_Lens"
    },
    {
      "primitives": [
        {
          "attributes": {
            "POSITION": 13,
            "NORMAL": 14,
            "TEXCOORD_0": 15
          },
          "indices": 12
        }
      ],
      "name": "YELLOW_Lens"
    },
    {
      "primitives": [
        {
          "attributes": {
            "POSITION": 17,
            "NORMAL": 18,
            "TEXCOORD_0": 19
          },
          "indices": 16
        }
      ],
      "name": "WHITE_Lens"
    },
    {
      "primitives": [
        {
          "attributes": {
            "POSITION": 21,
            "NORMAL": 22,
            "TEXCOORD_0": 23
          },
          "indices": 20
        }
      ],
      "name": "RED_Lens"
    }
  ],
  "accessors": [
    {
      "bufferView": 0,
      "componentType": 5123,
      "count": 16380,
      "type": "SCALAR",
      "name": "accessorIndices"
    },
    {
      "bufferView": 1,
      "componentType": 5126,
      "count": 6428,
      "max": [
        2.759115,
        0.92159,
        1.06322038
      ],
      "min": [
        -1.30488682,
        -0.310489774,
        -1.3671571
      ],
      "type": "VEC3",
      "name": "accessorPositions"
    },
    {
      "bufferView": 1,
      "byteOffset": 77136,
      "componentType": 5126,
      "count": 6428,
      "type": "VEC3",
      "name": "accessorNormals"
    },
    {
      "bufferView": 2,
      "componentType": 5126,
      "count": 6428,
      "type": "VEC2",
      "name": "accessorUVs"
    },
    {
      "bufferView": 0,
      "byteOffset": 32760,
      "componentType": 5123,
      "count": 6594,
      "type": "SCALAR",
      "name": "accessorIndices"
    },
    {
      "bufferView": 1,
      "byteOffset": 154272,
      "componentType": 5126,
      "count": 4016,
      "max": [
        0.218466058,
        1.27902818,
        0.482848167
      ],
      "min": [
        -0.218477815,
        -1.523979,
        -0.738996744
      ],
      "type": "VEC3",
      "name": "accessorPositions"
    },
    {
      "bufferView": 1,
      "byteOffset": 202464,
      "componentType": 5126,
      "count": 4016,
      "type": "VEC3",
      "name": "accessorNormals"
    },
    {
      "bufferView": 2,
      "byteOffset": 51424,
      "componentType": 5126,
      "count": 4016,
      "type": "VEC2",
      "name": "accessorUVs"
    },
    {
      "bufferView": 0,
      "byteOffset": 45948,
      "componentType": 5123,
      "count": 1890,
      "type": "SCALAR",
      "name": "accessorIndices"
    },
    {
      "bufferView": 1,
      "byteOffset": 250656,
      "componentType": 5126,
      "count": 531,
      "max": [
        0.106532946,
        0.004435625,
        0.106532946
      ],
      "min": [
        -0.106532976,
        -4.98839654E-08,
        -0.106532976
      ],
      "type": "VEC3",
      "name": "accessorPositions"
    },
    {
      "bufferView": 1,
      "byteOffset": 257028,
      "componentType": 5126,
      "count": 531,
      "type": "VEC3",
      "name": "accessorNormals"
    },
    {
      "bufferView": 2,
      "byteOffset": 83552,
      "componentType": 5126,
      "count": 531,
      "type": "VEC2",
      "name": "accessorUVs"
    },
    {
      "bufferView": 0,
      "byteOffset": 49728,
      "componentType": 5123,
      "count": 1890,
      "type": "SCALAR",
      "name": "accessorIndices"
    },
    {
      "bufferView": 1,
      "byteOffset": 263400,
      "componentType": 5126,
      "count": 531,
      "max": [
        0.106532946,
        0.004435625,
        0.106532946
      ],
      "min": [
        -0.106532976,
        -4.98839654E-08,
        -0.106532976
      ],
      "type": "VEC3",
      "name": "accessorPositions"
    },
    {
      "bufferView": 1,
      "byteOffset": 269772,
      "componentType": 5126,
      "count": 531,
      "type": "VEC3",
      "name": "accessorNormals"
    },
    {
      "bufferView": 2,
      "byteOffset": 87800,
      "componentType": 5126,
      "count": 531,
      "type": "VEC2",
      "name": "accessorUVs"
    },
    {
      "bufferView": 0,
      "byteOffset": 53508,
      "componentType": 5123,
      "count": 1890,
      "type": "SCALAR",
      "name": "accessorIndices"
    },
    {
      "bufferView": 1,
      "byteOffset": 276144,
      "componentType": 5126,
      "count": 531,
      "max": [
        0.106532946,
        0.004435625,
        0.106532946
      ],
      "min": [
        -0.106532976,
        -4.98839654E-08,
        -0.106532976
      ],
      "type": "VEC3",
      "name": "accessorPositions"
    },
    {
      "bufferView": 1,
      "byteOffset": 282516,
      "componentType": 5126,
      "count": 531,
      "type": "VEC3",
      "name": "accessorNormals"
    },
    {
      "bufferView": 2,
      "byteOffset": 92048,
      "componentType": 5126,
      "count": 531,
      "type": "VEC2",
      "name": "accessorUVs"
    },
    {
      "bufferView": 0,
      "byteOffset": 57288,
      "componentType": 5123,
      "count": 1890,
      "type": "SCALAR",
      "name": "accessorIndices"
    },
    {
      "bufferView": 1,
      "byteOffset": 288888,
      "componentType": 5126,
      "count": 531,
      "max": [
        0.106532946,
        0.004435625,
        0.106532946
      ],
      "min": [
        -0.106532976,
        -4.98839654E-08,
        -0.106532976
      ],
      "type": "VEC3",
      "name": "accessorPositions"
    },
    {
      "bufferView": 1,
      "byteOffset": 295260,
      "componentType": 5126,
      "count": 531,
      "type": "VEC3",
      "name": "accessorNormals"
    },
    {
      "bufferView": 2,
      "byteOffset": 96296,
      "componentType": 5126,
      "count": 531,
      "type": "VEC2",
      "name": "accessorUVs"
    }
  ],
  "bufferViews": [
    {
      "buffer": 0,
      "byteLength": 61068,
      "name": "bufferViewScalar"
    },
    {
      "buffer": 0,
      "byteOffset": 61068,
      "byteLength": 301632,
      "byteStride": 12,
      "name": "bufferViewFloatVec3"
    },
    {
      "buffer": 0,
      "byteOffset": 362700,
      "byteLength": 100544,
      "byteStride": 8,
      "name": "bufferViewFloatVec2"
    }
  ],
  "buffers": [
    {
      "uri": "bin/RM_sig_P_KM1_YGRW_4.bin",
      "byteLength": 463244
    }
  ],
  "materials": [
    {
      "pbrMetallicRoughness": {
        "baseColorTexture": {
          "index": 2
        },
        "metallicRoughnessTexture": {
          "index": 1
        }
      },
      "normalTexture": {
        "index": 0
      },
      "occlusionTexture": {
        "index": 1
      },
      "name": "Material #3"
    },
    {
      "pbrMetallicRoughness": {
        "baseColorTexture": {
          "index": 5
        },
        "metallicRoughnessTexture": {
          "index": 4
        }
      },
      "normalTexture": {
        "index": 3
      },
      "occlusionTexture": {
        "index": 4
      },
      "name": "Material #4"
    }
  ],
  "textures": [
    {
      "sampler": 0,
      "source": 0,
      "name": "RM_izostyk_N.jpg"
    },
    {
      "sampler": 0,
      "source": 1,
      "name": "RM_izostyk_ORM.jpg"
    },
    {
      "sampler": 0,
      "source": 2,
      "name": "RM_izostyk_RGBA.jpg"
    },
    {
      "sampler": 0,
      "source": 3,
      "name": "RM_KM1_N.jpg"
    },
    {
      "sampler": 0,
      "source": 4,
      "name": "RM_KM1_ORM.jpg"
    },
    {
      "sampler": 0,
      "source": 5,
      "name": "RM_KM1_RGBA.jpg"
    }
  ],
  "images": [
    {
      "uri": "textures/RM_izostyk_N.jpg"
    },
    {
      "uri": "textures/RM_izostyk_ORM.jpg"
    },
    {
      "uri": "textures/RM_izostyk_RGBA.jpg"
    },
    {
      "uri": "textures/RM_KM1_N.jpg"
    },
    {
      "uri": "textures/RM_KM1_ORM.jpg"
    },
    {
      "uri": "textures/RM_KM1_RGBA.jpg"
    }
  ],
  "samplers": [
    {
      "magFilter": 9729,
      "minFilter": 9987
    }
  ]
}