{
  "asset": {
    "version": "2.0",
    "generator": "babylon.js glTF exporter for 3dsmax 2024 v20250428.5"
  },
  "scene": 0,
  "scenes": [
    {
      "nodes": [
        0,
        1,
        2,
        3,
        4,
        5
      ]
    }
  ],
  "nodes": [
    {
      "mesh": 0,
      "translation": [
        -2.5,
        0.238837942,
        0.0
      ],
      "name": "Изостык"
    },
    {
      "mesh": 1,
      "translation": [
        0.0,
        3.20283341,
        1.92134869
      ],
      "name": "Светофор ПРОХОДНОЙ"
    },
    {
      "mesh": 2,
      "translation": [
        0.0,
        5.625139,
        2.49022913
      ],
      "name": "GREEN_Lens"
    },
    {
      "mesh": 3,
      "translation": [
        0.0,
        5.31961727,
        2.49093819
      ],
      "name": "YELLOW_Lens"
    },
    {
      "mesh": 4,
      "translation": [
        0.0,
        2.68051553,
        1.921349
      ],
      "name": "Светофор выходной"
    },
    {
      "mesh": 5,
      "translation": [
        0.0,
        5.47634125,
        2.47768545
      ],
      "rotation": [
        0.7071068,
        0.0,
        0.0,
        0.7071067
      ],
      "name": "Cylinder002"
    }
  ],
  "meshes": [
    {
      "primitives": [
        {
          "attributes": {
            "POSITION": 1,
            "NORMAL": 2,
            "TEXCOORD_0": 3
          },
          "indices": 0,
          "material": 0
        }
      ],
      "name": "Изостык"
    },
    {
      "primitives": [
        {
          "attributes": {
            "POSITION": 5,
            "NORMAL": 6,
            "TEXCOORD_0": 7
          },
          "indices": 4,
          "material": 1
        }
      ],
      "name": "Светофор ПРОХОДНОЙ"
    },
    {
      "primitives": [
        {
          "attributes": {
            "POSITION": 9,
            "NORMAL": 10,
            "TEXCOORD_0": 11
          },
          "indices": 8,
          "material": 2
        }
      ],
      "name": "GREEN_Lens"
    },
    {
      "primitives": [
        {
          "attributes": {
            "POSITION": 13,
            "NORMAL": 14,
            "TEXCOORD_0": 15
          },
          "indices": 12,
          "material": 2
        }
      ],
      "name": "YELLOW_Lens"
    },
    {
      "primitives": [
        {
          "attributes": {
            "POSITION": 17,
            "NORMAL": 18,
            "TEXCOORD_0": 19
          },
          "indices": 16,
          "material": 3
        }
      ],
      "name": "Светофор выходной"
    },
    {
      "primitives": [
        {
          "attributes": {
            "POSITION": 21,
            "NORMAL": 22,
            "TEXCOORD_0": 23
          },
          "indices": 20,
          "material": 3
        }
      ],
      "name": "Cylinder002"
    }
  ],
  "accessors": [
    {
      "bufferView": 0,
      "componentType": 5123,
      "count": 16380,
      "type": "SCALAR",
      "name": "accessorIndices"
    },
    {
      "bufferView": 1,
      "componentType": 5126,
      "count": 6428,
      "max": [
        2.759115,
        0.92159,
        1.06322038
      ],
      "min": [
        -1.30488682,
        -0.310489774,
        -1.3671571
      ],
      "type": "VEC3",
      "name": "accessorPositions"
    },
    {
      "bufferView": 1,
      "byteOffset": 77136,
      "componentType": 5126,
      "count": 6428,
      "type": "VEC3",
      "name": "accessorNormals"
    },
    {
      "bufferView": 2,
      "componentType": 5126,
      "count": 6428,
      "type": "VEC2",
      "name": "accessorUVs"
    },
    {
      "bufferView": 0,
      "byteOffset": 32760,
      "componentType": 5123,
      "count": 5382,
      "type": "SCALAR",
      "name": "accessorIndices"
    },
    {
      "bufferView": 1,
      "byteOffset": 154272,
      "componentType": 5126,
      "count": 3160,
      "max": [
        0.144276232,
        3.08716631,
        0.532997131
      ],
      "min": [
        -0.14568679,
        -3.45651746,
        -0.576844156
      ],
      "type": "VEC3",
      "name": "accessorPositions"
    },
    {
      "bufferView": 1,
      "byteOffset": 192192,
      "componentType": 5126,
      "count": 3160,
      "type": "VEC3",
      "name": "accessorNormals"
    },
    {
      "bufferView": 2,
      "byteOffset": 51424,
      "componentType": 5126,
      "count": 3160,
      "type": "VEC2",
      "name": "accessorUVs"
    },
    {
      "bufferView": 0,
      "byteOffset": 43524,
      "componentType": 5123,
      "count": 138,
      "type": "SCALAR",
      "name": "accessorIndices"
    },
    {
      "bufferView": 1,
      "byteOffset": 230112,
      "componentType": 5126,
      "count": 64,
      "max": [
        0.127627015,
        0.127627134,
        0.00354409218
      ],
      "min": [
        -0.127627015,
        -0.12762785,
        -0.00354409218
      ],
      "type": "VEC3",
      "name": "accessorPositions"
    },
    {
      "bufferView": 1,
      "byteOffset": 230880,
      "componentType": 5126,
      "count": 64,
      "type": "VEC3",
      "name": "accessorNormals"
    },
    {
      "bufferView": 2,
      "byteOffset": 76704,
      "componentType": 5126,
      "count": 64,
      "type": "VEC2",
      "name": "accessorUVs"
    },
    {
      "bufferView": 0,
      "byteOffset": 43800,
      "componentType": 5123,
      "count": 138,
      "type": "SCALAR",
      "name": "accessorIndices"
    },
    {
      "bufferView": 1,
      "byteOffset": 231648,
      "componentType": 5126,
      "count": 64,
      "max": [
        0.127627015,
        0.127627611,
        0.00354409218
      ],
      "min": [
        -0.127627015,
        -0.127627373,
        -0.00354409218
      ],
      "type": "VEC3",
      "name": "accessorPositions"
    },
    {
      "bufferView": 1,
      "byteOffset": 232416,
      "componentType": 5126,
      "count": 64,
      "type": "VEC3",
      "name": "accessorNormals"
    },
    {
      "bufferView": 2,
      "byteOffset": 77216,
      "componentType": 5126,
      "count": 64,
      "type": "VEC2",
      "name": "accessorUVs"
    },
    {
      "bufferView": 0,
      "byteOffset": 44076,
      "componentType": 5123,
      "count": 6252,
      "type": "SCALAR",
      "name": "accessorIndices"
    },
    {
      "bufferView": 1,
      "byteOffset": 233184,
      "componentType": 5126,
      "count": 3565,
      "max": [
        0.177856,
        3.26205778,
        1.24904251
      ],
      "min": [
        -0.177019,
        2.17962623,
        -0.100308463
      ],
      "type": "VEC3",
      "name": "accessorPositions"
    },
    {
      "bufferView": 1,
      "byteOffset": 275964,
      "componentType": 5126,
      "count": 3565,
      "type": "VEC3",
      "name": "accessorNormals"
    },
    {
      "bufferView": 2,
      "byteOffset": 77728,
      "componentType": 5126,
      "count": 3565,
      "type": "VEC2",
      "name": "accessorUVs"
    },
    {
      "bufferView": 0,
      "byteOffset": 56580,
      "componentType": 5123,
      "count": 420,
      "type": "SCALAR",
      "name": "accessorIndices"
    },
    {
      "bufferView": 1,
      "byteOffset": 318744,
      "componentType": 5126,
      "count": 146,
      "max": [
        0.418933243,
        0.00270596845,
        0.554653168
      ],
      "min": [
        -0.418933243,
        -0.002706057,
        -0.5546531
      ],
      "type": "VEC3",
      "name": "accessorPositions"
    },
    {
      "bufferView": 1,
      "byteOffset": 320496,
      "componentType": 5126,
      "count": 146,
      "type": "VEC3",
      "name": "accessorNormals"
    },
    {
      "bufferView": 2,
      "byteOffset": 106248,
      "componentType": 5126,
      "count": 146,
      "type": "VEC2",
      "name": "accessorUVs"
    }
  ],
  "bufferViews": [
    {
      "buffer": 0,
      "byteLength": 57420,
      "name": "bufferViewScalar"
    },
    {
      "buffer": 0,
      "byteOffset": 57420,
      "byteLength": 322248,
      "byteStride": 12,
      "name": "bufferViewFloatVec3"
    },
    {
      "buffer": 0,
      "byteOffset": 379668,
      "byteLength": 107416,
      "byteStride": 8,
      "name": "bufferViewFloatVec2"
    }
  ],
  "buffers": [
    {
      "uri": "RM_sig_MM2_2.bin",
      "byteLength": 487084
    }
  ],
  "materials": [
    {
      "pbrMetallicRoughness": {
        "baseColorTexture": {
          "index": 0
        },
        "metallicFactor": 0.0,
        "roughnessFactor": 0.450053632
      },
      "name": "Изостык"
    },
    {
      "pbrMetallicRoughness": {
        "baseColorTexture": {
          "index": 1
        },
        "metallicFactor": 0.0,
        "roughnessFactor": 0.450053632
      },
      "name": "Проходной сигнал"
    },
    {
      "pbrMetallicRoughness": {
        "metallicFactor": 0.0,
        "roughnessFactor": 0.450053632
      },
      "name": "Линзы"
    },
    {
      "pbrMetallicRoughness": {
        "baseColorTexture": {
          "index": 2
        },
        "metallicFactor": 0.0,
        "roughnessFactor": 0.450053632
      },
      "name": "Material #26"
    }
  ],
  "textures": [
    {
      "sampler": 0,
      "source": 0,
      "name": "RM_izostyk.jpg"
    },
    {
      "sampler": 0,
      "source": 1,
      "name": "RM_line.jpg"
    },
    {
      "sampler": 0,
      "source": 2,
      "name": "RM_exit.jpg"
    }
  ],
  "images": [
    {
      "uri": "RM_izostyk.jpg"
    },
    {
      "uri": "RM_line.jpg"
    },
    {
      "uri": "RM_exit.jpg"
    }
  ],
  "samplers": [
    {
      "magFilter": 9729,
      "minFilter": 9987
    }
  ]
}