{
    "asset": {
        "version": "2.0"
    },
    "buffers": [
        {
            "uri": "bin/poleR.bin",
            "byteLength": 6200
        }
    ],
    "bufferViews": [
        {
            "buffer": 0,
            "byteOffset": 0,
            "byteLength": 1452,
            "target": 34962
        },
        {
            "buffer": 0,
            "byteOffset": 1452,
            "byteLength": 1452,
            "target": 34962
        },
        {
            "buffer": 0,
            "byteOffset": 2904,
            "byteLength": 968,
            "target": 34962
        },
        {
            "buffer": 0,
            "byteOffset": 3872,
            "byteLength": 2328,
            "target": 34963
        }
    ],
    "accessors": [
        {
            "bufferView": 0,
            "componentType": 5126,
            "count": 121,
            "type": "VEC3",
            "max": [
                600.134,
                -0.000671387,
                50.8645
            ],
            "min": [
                -46.2626,
                -33.874,
                -150.865
            ]
        },
        {
            "bufferView": 1,
            "componentType": 5126,
            "count": 121,
            "type": "VEC3",
            "max": [
                0.00640593,
                1,
                0.782671
            ],
            "min": [
                -0.872257,
                0.45085,
                -0.782675
            ]
        },
        {
            "bufferView": 2,
            "componentType": 5126,
            "count": 121,
            "type": "VEC2",
            "max": [
                0.995884,
                0.997604
            ],
            "min": [
                -3.98561,
                -1.89523
            ]
        },
        {
            "bufferView": 3,
            "componentType": 5125,
            "count": 582,
            "type": "SCALAR",
            "max": [
                120
            ],
            "min": [
                0
            ]
        }
    ],
    "images": [
        {
            "uri": "../textures/pole0.bmp"
        }
    ],
    "samplers": [
        {
            "magFilter": 9729,
            "minFilter": 9987,
            "wrapS": 10497,
            "wrapT": 10497
        }
    ],
    "textures": [
        {
            "sampler": 0,
            "source": 0
        }
    ],
    "materials": [
        {
            "pbrMetallicRoughness": {
                "baseColorTexture": {
                    "index": 0,
                    "texCoord": 0
                }
            }
        }
    ],
    "meshes": [
        {
            "primitives": [
                {
                    "attributes": {
                        "POSITION": 0,
                        "NORMAL": 1,
                        "TEXCOORD_0": 2
                    },
                    "indices": 3,
                    "material": 0,
                    "mode": 4
                }
            ]
        }
    ],
    "nodes": [
        {
            "mesh": 0
        }
    ],
    "scenes": [
        {
            "nodes": [ 0 ]
        }
    ],
    "scene": 0
}
