{
    "asset": {
        "version": "2.0"
    },
    "buffers": [
        {
            "uri": "bin/sig_k3.bin",
            "byteLength": 20628
        }
    ],
    "bufferViews": [
        {
            "buffer": 0,
            "byteOffset": 0,
            "byteLength": 8676,
            "target": 34962
        },
        {
            "buffer": 0,
            "byteOffset": 8676,
            "byteLength": 5784,
            "target": 34962
        },
        {
            "buffer": 0,
            "byteOffset": 14460,
            "byteLength": 6168,
            "target": 34963
        }
    ],
    "accessors": [
        {
            "bufferView": 0,
            "componentType": 5126,
            "count": 723,
            "type": "VEC3",
            "max": [
                3.75978,
                1.66197,
                0.387863
            ],
            "min": [
                -0.245472,
                -0.00234233,
                -2.26917
            ]
        },
        {
            "bufferView": 1,
            "componentType": 5126,
            "count": 723,
            "type": "VEC2",
            "max": [
                0.93704,
                0.999436
            ],
            "min": [
                0.0522243,
                -0.000290036
            ]
        },
        {
            "bufferView": 2,
            "componentType": 5125,
            "count": 1542,
            "type": "SCALAR",
            "max": [
                722
            ],
            "min": [
                0
            ]
        }
    ],
    "images": [
        {
            "uri": "../textures/ab_signals.bmp"
        }
    ],
    "samplers": [
        {
            "magFilter": 9729,
            "minFilter": 9987,
            "wrapS": 10497,
            "wrapT": 10497
        }
    ],
    "textures": [
        {
            "sampler": 0,
            "source": 0
        }
    ],
    "materials": [
        {
            "pbrMetallicRoughness": {
                "baseColorTexture": {
                    "index": 0,
                    "texCoord": 0
                }
            },
            "alphaMode": "BLEND"
        }
    ],
    "meshes": [
        {
            "primitives": [
                {
                    "attributes": {
                        "POSITION": 0,
                        "TEXCOORD_0": 1
                    },
                    "indices": 2,
                    "material": 0,
                    "mode": 4
                }
            ]
        }
    ],
    "nodes": [
        {
            "mesh": 0
        }
    ],
    "scenes": [
        {
            "nodes": [ 0 ]
        }
    ],
    "scene": 0
}
