{
    "asset": {
        "version": "2.0"
    },
    "buffers": [
        {
            "uri": "bin/sig_k5.bin",
            "byteLength": 29752
        }
    ],
    "bufferViews": [
        {
            "buffer": 0,
            "byteOffset": 0,
            "byteLength": 12480,
            "target": 34962
        },
        {
            "buffer": 0,
            "byteOffset": 12480,
            "byteLength": 8320,
            "target": 34962
        },
        {
            "buffer": 0,
            "byteOffset": 20800,
            "byteLength": 8952,
            "target": 34963
        }
    ],
    "accessors": [
        {
            "bufferView": 0,
            "componentType": 5126,
            "count": 1040,
            "type": "VEC3",
            "max": [
                0.59497,
                1.7435,
                0.391791
            ],
            "min": [
                -3.75709,
                -0.315491,
                -3.52111
            ]
        },
        {
            "bufferView": 1,
            "componentType": 5126,
            "count": 1040,
            "type": "VEC2",
            "max": [
                0.93704,
                1.00029
            ],
            "min": [
                0.0522243,
                0.000563501
            ]
        },
        {
            "bufferView": 2,
            "componentType": 5125,
            "count": 2238,
            "type": "SCALAR",
            "max": [
                1039
            ],
            "min": [
                0
            ]
        }
    ],
    "images": [
        {
            "uri": "../textures/ab_signals.bmp"
        }
    ],
    "samplers": [
        {
            "magFilter": 9729,
            "minFilter": 9987,
            "wrapS": 10497,
            "wrapT": 10497
        }
    ],
    "textures": [
        {
            "sampler": 0,
            "source": 0
        }
    ],
    "materials": [
        {
            "pbrMetallicRoughness": {
                "baseColorTexture": {
                    "index": 0,
                    "texCoord": 0
                }
            },
            "alphaMode": "BLEND"
        }
    ],
    "meshes": [
        {
            "primitives": [
                {
                    "attributes": {
                        "POSITION": 0,
                        "TEXCOORD_0": 1
                    },
                    "indices": 2,
                    "material": 0,
                    "mode": 4
                }
            ]
        }
    ],
    "nodes": [
        {
            "mesh": 0
        }
    ],
    "scenes": [
        {
            "nodes": [ 0 ]
        }
    ],
    "scene": 0
}
