{
    "asset": {
        "version": "2.0"
    },
    "buffers": [
        {
            "uri": "bin/sig_m2.bin",
            "byteLength": 37972
        }
    ],
    "bufferViews": [
        {
            "buffer": 0,
            "byteOffset": 0,
            "byteLength": 16008,
            "target": 34962
        },
        {
            "buffer": 0,
            "byteOffset": 16008,
            "byteLength": 10672,
            "target": 34962
        },
        {
            "buffer": 0,
            "byteOffset": 26680,
            "byteLength": 11292,
            "target": 34963
        }
    ],
    "accessors": [
        {
            "bufferView": 0,
            "componentType": 5126,
            "count": 1334,
            "type": "VEC3",
            "max": [
                0.423538,
                5.65839,
                0.876689
            ],
            "min": [
                -3.75709,
                -0.00234231,
                -2.9701
            ]
        },
        {
            "bufferView": 1,
            "componentType": 5126,
            "count": 1334,
            "type": "VEC2",
            "max": [
                1,
                1.34372
            ],
            "min": [
                0,
                0
            ]
        },
        {
            "bufferView": 2,
            "componentType": 5125,
            "count": 2823,
            "type": "SCALAR",
            "max": [
                1333
            ],
            "min": [
                0
            ]
        }
    ],
    "images": [
        {
            "uri": "../textures/ab_signals.bmp"
        }
    ],
    "samplers": [
        {
            "magFilter": 9729,
            "minFilter": 9987,
            "wrapS": 10497,
            "wrapT": 10497
        }
    ],
    "textures": [
        {
            "sampler": 0,
            "source": 0
        }
    ],
    "materials": [
        {
            "pbrMetallicRoughness": {
                "baseColorTexture": {
                    "index": 0,
                    "texCoord": 0
                }
            },
            "alphaMode": "BLEND"
        }
    ],
    "meshes": [
        {
            "primitives": [
                {
                    "attributes": {
                        "POSITION": 0,
                        "TEXCOORD_0": 1
                    },
                    "indices": 2,
                    "material": 0,
                    "mode": 4
                }
            ]
        }
    ],
    "nodes": [
        {
            "mesh": 0
        }
    ],
    "scenes": [
        {
            "nodes": [ 0 ]
        }
    ],
    "scene": 0
}
