{
    "asset": {
        "version": "2.0"
    },
    "buffers": [
        {
            "uri": "bin/sig_povt_k.bin",
            "byteLength": 9052
        }
    ],
    "bufferViews": [
        {
            "buffer": 0,
            "byteOffset": 0,
            "byteLength": 3660,
            "target": 34962
        },
        {
            "buffer": 0,
            "byteOffset": 3660,
            "byteLength": 2440,
            "target": 34962
        },
        {
            "buffer": 0,
            "byteOffset": 6100,
            "byteLength": 2952,
            "target": 34963
        }
    ],
    "accessors": [
        {
            "bufferView": 0,
            "componentType": 5126,
            "count": 305,
            "type": "VEC3",
            "max": [
                0.348949,
                1.43751,
                0.395825
            ],
            "min": [
                -0.346819,
                1.19209e-07,
                -0.633408
            ]
        },
        {
            "bufferView": 1,
            "componentType": 5126,
            "count": 305,
            "type": "VEC2",
            "max": [
                0.576172,
                0.998248
            ],
            "min": [
                0.0522243,
                -0.000290036
            ]
        },
        {
            "bufferView": 2,
            "componentType": 5125,
            "count": 738,
            "type": "SCALAR",
            "max": [
                304
            ],
            "min": [
                0
            ]
        }
    ],
    "images": [
        {
            "uri": "../textures/ab_signals.bmp"
        }
    ],
    "samplers": [
        {
            "magFilter": 9729,
            "minFilter": 9987,
            "wrapS": 10497,
            "wrapT": 10497
        }
    ],
    "textures": [
        {
            "sampler": 0,
            "source": 0
        }
    ],
    "materials": [
        {
            "pbrMetallicRoughness": {
                "baseColorTexture": {
                    "index": 0,
                    "texCoord": 0
                }
            },
            "alphaMode": "BLEND"
        }
    ],
    "meshes": [
        {
            "primitives": [
                {
                    "attributes": {
                        "POSITION": 0,
                        "TEXCOORD_0": 1
                    },
                    "indices": 2,
                    "material": 0,
                    "mode": 4
                }
            ]
        }
    ],
    "nodes": [
        {
            "mesh": 0
        }
    ],
    "scenes": [
        {
            "nodes": [ 0 ]
        }
    ],
    "scene": 0
}
