{
    "asset": {
        "version": "2.0"
    },
    "buffers": [
        {
            "uri": "bin/signal_enter.bin",
            "byteLength": 73564
        }
    ],
    "bufferViews": [
        {
            "buffer": 0,
            "byteOffset": 0,
            "byteLength": 30696,
            "target": 34962
        },
        {
            "buffer": 0,
            "byteOffset": 30696,
            "byteLength": 20464,
            "target": 34962
        },
        {
            "buffer": 0,
            "byteOffset": 51160,
            "byteLength": 22404,
            "target": 34963
        }
    ],
    "accessors": [
        {
            "bufferView": 0,
            "componentType": 5126,
            "count": 2558,
            "type": "VEC3",
            "max": [
                0.838156,
                7.34173,
                0.876689
            ],
            "min": [
                -3.75709,
                -0.315491,
                -6.10359
            ]
        },
        {
            "bufferView": 1,
            "componentType": 5126,
            "count": 2558,
            "type": "VEC2",
            "max": [
                0.999462,
                0.999701
            ],
            "min": [
                0.000664471,
                -0.34372
            ]
        },
        {
            "bufferView": 2,
            "componentType": 5125,
            "count": 5601,
            "type": "SCALAR",
            "max": [
                2557
            ],
            "min": [
                0
            ]
        }
    ],
    "images": [
        {
            "uri": "../textures/ab_signals.bmp"
        }
    ],
    "samplers": [
        {
            "magFilter": 9729,
            "minFilter": 9987,
            "wrapS": 10497,
            "wrapT": 10497
        }
    ],
    "textures": [
        {
            "sampler": 0,
            "source": 0
        }
    ],
    "materials": [
        {
            "pbrMetallicRoughness": {
                "baseColorTexture": {
                    "index": 0,
                    "texCoord": 0
                }
            },
            "alphaMode": "BLEND"
        }
    ],
    "meshes": [
        {
            "primitives": [
                {
                    "attributes": {
                        "POSITION": 0,
                        "TEXCOORD_0": 1
                    },
                    "indices": 2,
                    "material": 0,
                    "mode": 4
                }
            ]
        }
    ],
    "nodes": [
        {
            "mesh": 0
        }
    ],
    "scenes": [
        {
            "nodes": [ 0 ]
        }
    ],
    "scene": 0
}
