{
    "asset": {
        "version": "2.0"
    },
    "buffers": [
        {
            "uri": "bin/SteepL.bin",
            "byteLength": 6448
        }
    ],
    "bufferViews": [
        {
            "buffer": 0,
            "byteOffset": 0,
            "byteLength": 1896,
            "target": 34962
        },
        {
            "buffer": 0,
            "byteOffset": 1896,
            "byteLength": 1264,
            "target": 34962
        },
        {
            "buffer": 0,
            "byteOffset": 3160,
            "byteLength": 3288,
            "target": 34963
        }
    ],
    "accessors": [
        {
            "bufferView": 0,
            "componentType": 5126,
            "count": 158,
            "type": "VEC3",
            "max": [
                9.03976,
                1.92091,
                26.6721
            ],
            "min": [
                -52.1276,
                -20.4135,
                -125.785
            ]
        },
        {
            "bufferView": 1,
            "componentType": 5126,
            "count": 158,
            "type": "VEC2",
            "max": [
                1.0021,
                1.97666
            ],
            "min": [
                0.0194675,
                -0.97639
            ]
        },
        {
            "bufferView": 2,
            "componentType": 5125,
            "count": 822,
            "type": "SCALAR",
            "max": [
                157
            ],
            "min": [
                0
            ]
        }
    ],
    "images": [
        {
            "uri": "../textures/trava.bmp"
        }
    ],
    "samplers": [
        {
            "magFilter": 9729,
            "minFilter": 9987,
            "wrapS": 10497,
            "wrapT": 10497
        }
    ],
    "textures": [
        {
            "sampler": 0,
            "source": 0
        }
    ],
    "materials": [
        {
            "pbrMetallicRoughness": {
                "baseColorTexture": {
                    "index": 0,
                    "texCoord": 0
                }
            },
            "alphaMode": "BLEND"
        }
    ],
    "meshes": [
        {
            "primitives": [
                {
                    "attributes": {
                        "POSITION": 0,
                        "TEXCOORD_0": 1
                    },
                    "indices": 2,
                    "material": 0,
                    "mode": 4
                }
            ]
        }
    ],
    "nodes": [
        {
            "mesh": 0
        }
    ],
    "scenes": [
        {
            "nodes": [ 0 ]
        }
    ],
    "scene": 0
}
