{
  "asset": {
    "version": "2.0",
    "generator": "babylon.js glTF exporter for 3dsmax 2024 v20250428.5"
  },
  "scene": 0,
  "scenes": [
    {
      "nodes": [
        0,
        1,
        2,
        3,
        4,
        5,
        6,
        7
      ]
    }
  ],
  "nodes": [
    {
      "mesh": 0,
      "translation": [
        -2.5,
        0.238837942,
        0.0
      ],
      "name": "Изостык"
    },
    {
      "mesh": 1,
      "translation": [
        0.0,
        3.65999985,
        1.921349
      ],
      "name": "Светофор выходной"
    },
    {
      "mesh": 2,
      "translation": [
        0.0,
        6.761802,
        2.48393536
      ],
      "name": "YELLOW_Lens"
    },
    {
      "mesh": 3,
      "translation": [
        0.0,
        6.45766926,
        2.48322678
      ],
      "name": "GREEN_Lens"
    },
    {
      "mesh": 4,
      "translation": [
        0.0,
        5.200523,
        2.48322678
      ],
      "name": "BOTTOM_YELLOW_Lens"
    },
    {
      "mesh": 5,
      "translation": [
        0.0,
        5.504656,
        2.48393536
      ],
      "name": "RED_Lens"
    },
    {
      "mesh": 6,
      "translation": [
        0.0,
        6.609736,
        2.47768545
      ],
      "rotation": [
        0.7071068,
        0.0,
        0.0,
        0.7071067
      ],
      "name": "Cylinder001"
    },
    {
      "mesh": 7,
      "translation": [
        0.0,
        5.35582542,
        2.47768545
      ],
      "rotation": [
        0.7071068,
        0.0,
        0.0,
        0.7071067
      ],
      "name": "Cylinder002"
    }
  ],
  "meshes": [
    {
      "primitives": [
        {
          "attributes": {
            "POSITION": 1,
            "NORMAL": 2,
            "TEXCOORD_0": 3
          },
          "indices": 0,
          "material": 0
        }
      ],
      "name": "Изостык"
    },
    {
      "primitives": [
        {
          "attributes": {
            "POSITION": 5,
            "NORMAL": 6,
            "TEXCOORD_0": 7
          },
          "indices": 4,
          "material": 1
        }
      ],
      "name": "Светофор выходной"
    },
    {
      "primitives": [
        {
          "attributes": {
            "POSITION": 9,
            "NORMAL": 10,
            "TEXCOORD_0": 11
          },
          "indices": 8,
          "material": 2
        }
      ],
      "name": "YELLOW_Lens"
    },
    {
      "primitives": [
        {
          "attributes": {
            "POSITION": 13,
            "NORMAL": 14,
            "TEXCOORD_0": 15
          },
          "indices": 12,
          "material": 2
        }
      ],
      "name": "GREEN_Lens"
    },
    {
      "primitives": [
        {
          "attributes": {
            "POSITION": 17,
            "NORMAL": 18,
            "TEXCOORD_0": 19
          },
          "indices": 16,
          "material": 2
        }
      ],
      "name": "BOTTOM_YELLOW_Lens"
    },
    {
      "primitives": [
        {
          "attributes": {
            "POSITION": 21,
            "NORMAL": 22,
            "TEXCOORD_0": 23
          },
          "indices": 20,
          "material": 2
        }
      ],
      "name": "RED_Lens"
    },
    {
      "primitives": [
        {
          "attributes": {
            "POSITION": 25,
            "NORMAL": 26,
            "TEXCOORD_0": 27
          },
          "indices": 24,
          "material": 1
        }
      ],
      "name": "Cylinder001"
    },
    {
      "primitives": [
        {
          "attributes": {
            "POSITION": 29,
            "NORMAL": 30,
            "TEXCOORD_0": 31
          },
          "indices": 28,
          "material": 1
        }
      ],
      "name": "Cylinder002"
    }
  ],
  "accessors": [
    {
      "bufferView": 0,
      "componentType": 5123,
      "count": 16380,
      "type": "SCALAR",
      "name": "accessorIndices"
    },
    {
      "bufferView": 1,
      "componentType": 5126,
      "count": 6428,
      "max": [
        2.759115,
        0.92159,
        1.06322038
      ],
      "min": [
        -1.30488682,
        -0.310489774,
        -1.3671571
      ],
      "type": "VEC3",
      "name": "accessorPositions"
    },
    {
      "bufferView": 1,
      "byteOffset": 77136,
      "componentType": 5126,
      "count": 6428,
      "type": "VEC3",
      "name": "accessorNormals"
    },
    {
      "bufferView": 2,
      "componentType": 5126,
      "count": 6428,
      "type": "VEC2",
      "name": "accessorUVs"
    },
    {
      "bufferView": 0,
      "byteOffset": 32760,
      "componentType": 5123,
      "count": 17592,
      "type": "SCALAR",
      "name": "accessorIndices"
    },
    {
      "bufferView": 1,
      "byteOffset": 154272,
      "componentType": 5126,
      "count": 10188,
      "max": [
        0.177856,
        3.65999985,
        1.24904251
      ],
      "min": [
        -0.177019,
        -3.913684,
        -1.12091637
      ],
      "type": "VEC3",
      "name": "accessorPositions"
    },
    {
      "bufferView": 1,
      "byteOffset": 276528,
      "componentType": 5126,
      "count": 10188,
      "type": "VEC3",
      "name": "accessorNormals"
    },
    {
      "bufferView": 2,
      "byteOffset": 51424,
      "componentType": 5126,
      "count": 10188,
      "type": "VEC2",
      "name": "accessorUVs"
    },
    {
      "bufferView": 0,
      "byteOffset": 67944,
      "componentType": 5123,
      "count": 138,
      "type": "SCALAR",
      "name": "accessorIndices"
    },
    {
      "bufferView": 1,
      "byteOffset": 398784,
      "componentType": 5126,
      "count": 64,
      "max": [
        0.127627134,
        0.127627611,
        0.003543973
      ],
      "min": [
        -0.1276269,
        -0.127627373,
        -0.00354403257
      ],
      "type": "VEC3",
      "name": "accessorPositions"
    },
    {
      "bufferView": 1,
      "byteOffset": 399552,
      "componentType": 5126,
      "count": 64,
      "type": "VEC3",
      "name": "accessorNormals"
    },
    {
      "bufferView": 2,
      "byteOffset": 132928,
      "componentType": 5126,
      "count": 64,
      "type": "VEC2",
      "name": "accessorUVs"
    },
    {
      "bufferView": 0,
      "byteOffset": 68220,
      "componentType": 5123,
      "count": 138,
      "type": "SCALAR",
      "name": "accessorIndices"
    },
    {
      "bufferView": 1,
      "byteOffset": 400320,
      "componentType": 5126,
      "count": 64,
      "max": [
        0.127627134,
        0.127627611,
        0.003543973
      ],
      "min": [
        -0.1276269,
        -0.127627373,
        -0.00354403257
      ],
      "type": "VEC3",
      "name": "accessorPositions"
    },
    {
      "bufferView": 1,
      "byteOffset": 401088,
      "componentType": 5126,
      "count": 64,
      "type": "VEC3",
      "name": "accessorNormals"
    },
    {
      "bufferView": 2,
      "byteOffset": 133440,
      "componentType": 5126,
      "count": 64,
      "type": "VEC2",
      "name": "accessorUVs"
    },
    {
      "bufferView": 0,
      "byteOffset": 68496,
      "componentType": 5123,
      "count": 138,
      "type": "SCALAR",
      "name": "accessorIndices"
    },
    {
      "bufferView": 1,
      "byteOffset": 401856,
      "componentType": 5126,
      "count": 64,
      "max": [
        0.127627134,
        0.127627611,
        0.003543973
      ],
      "min": [
        -0.1276269,
        -0.127627373,
        -0.00354403257
      ],
      "type": "VEC3",
      "name": "accessorPositions"
    },
    {
      "bufferView": 1,
      "byteOffset": 402624,
      "componentType": 5126,
      "count": 64,
      "type": "VEC3",
      "name": "accessorNormals"
    },
    {
      "bufferView": 2,
      "byteOffset": 133952,
      "componentType": 5126,
      "count": 64,
      "type": "VEC2",
      "name": "accessorUVs"
    },
    {
      "bufferView": 0,
      "byteOffset": 68772,
      "componentType": 5123,
      "count": 138,
      "type": "SCALAR",
      "name": "accessorIndices"
    },
    {
      "bufferView": 1,
      "byteOffset": 403392,
      "componentType": 5126,
      "count": 64,
      "max": [
        0.127627134,
        0.127627611,
        0.003543973
      ],
      "min": [
        -0.1276269,
        -0.127627373,
        -0.00354403257
      ],
      "type": "VEC3",
      "name": "accessorPositions"
    },
    {
      "bufferView": 1,
      "byteOffset": 404160,
      "componentType": 5126,
      "count": 64,
      "type": "VEC3",
      "name": "accessorNormals"
    },
    {
      "bufferView": 2,
      "byteOffset": 134464,
      "componentType": 5126,
      "count": 64,
      "type": "VEC2",
      "name": "accessorUVs"
    },
    {
      "bufferView": 0,
      "byteOffset": 69048,
      "componentType": 5123,
      "count": 420,
      "type": "SCALAR",
      "name": "accessorIndices"
    },
    {
      "bufferView": 1,
      "byteOffset": 404928,
      "componentType": 5126,
      "count": 146,
      "max": [
        0.418933243,
        0.00270596845,
        0.554653168
      ],
      "min": [
        -0.418933243,
        -0.002706057,
        -0.5546531
      ],
      "type": "VEC3",
      "name": "accessorPositions"
    },
    {
      "bufferView": 1,
      "byteOffset": 406680,
      "componentType": 5126,
      "count": 146,
      "type": "VEC3",
      "name": "accessorNormals"
    },
    {
      "bufferView": 2,
      "byteOffset": 134976,
      "componentType": 5126,
      "count": 146,
      "type": "VEC2",
      "name": "accessorUVs"
    },
    {
      "bufferView": 0,
      "byteOffset": 69888,
      "componentType": 5123,
      "count": 420,
      "type": "SCALAR",
      "name": "accessorIndices"
    },
    {
      "bufferView": 1,
      "byteOffset": 408432,
      "componentType": 5126,
      "count": 146,
      "max": [
        0.418933243,
        0.00270596845,
        0.554653168
      ],
      "min": [
        -0.418933243,
        -0.002706057,
        -0.5546531
      ],
      "type": "VEC3",
      "name": "accessorPositions"
    },
    {
      "bufferView": 1,
      "byteOffset": 410184,
      "componentType": 5126,
      "count": 146,
      "type": "VEC3",
      "name": "accessorNormals"
    },
    {
      "bufferView": 2,
      "byteOffset": 136144,
      "componentType": 5126,
      "count": 146,
      "type": "VEC2",
      "name": "accessorUVs"
    }
  ],
  "bufferViews": [
    {
      "buffer": 0,
      "byteLength": 70728,
      "name": "bufferViewScalar"
    },
    {
      "buffer": 0,
      "byteOffset": 70728,
      "byteLength": 411936,
      "byteStride": 12,
      "name": "bufferViewFloatVec3"
    },
    {
      "buffer": 0,
      "byteOffset": 482664,
      "byteLength": 137312,
      "byteStride": 8,
      "name": "bufferViewFloatVec2"
    }
  ],
  "buffers": [
    {
      "uri": "RM_sig_MM2_2+2.bin",
      "byteLength": 619976
    }
  ],
  "materials": [
    {
      "pbrMetallicRoughness": {
        "baseColorTexture": {
          "index": 0
        },
        "metallicFactor": 0.0,
        "roughnessFactor": 0.450053632
      },
      "name": "Изостык"
    },
    {
      "pbrMetallicRoughness": {
        "baseColorTexture": {
          "index": 1
        },
        "metallicFactor": 0.0,
        "roughnessFactor": 0.450053632
      },
      "name": "Проходной сигнал"
    },
    {
      "pbrMetallicRoughness": {
        "baseColorFactor": [
          0.9934211,
          0.9934211,
          0.9934211,
          1.0
        ],
        "metallicFactor": 0.0,
        "roughnessFactor": 0.450053632
      },
      "name": "Линзы"
    }
  ],
  "textures": [
    {
      "sampler": 0,
      "source": 0,
      "name": "RM_izostyk.jpg"
    },
    {
      "sampler": 0,
      "source": 1,
      "name": "RM_exit.jpg"
    }
  ],
  "images": [
    {
      "uri": "RM_izostyk.jpg"
    },
    {
      "uri": "RM_exit.jpg"
    }
  ],
  "samplers": [
    {
      "magFilter": 9729,
      "minFilter": 9987
    }
  ]
}