{
  "accessors": [
    {
      "bufferView": 0,
      "componentType": 5123,
      "count": 16380,
      "name": "accessorIndices",
      "type": "SCALAR"
    },
    {
      "bufferView": 1,
      "componentType": 5126,
      "count": 6428,
      "max": [
        0.25911498,
        0.92159,
        1.0632204
      ],
      "min": [
        -3.8048868,
        -0.31048977,
        -1.3671571
      ],
      "name": "accessorPositions",
      "type": "VEC3"
    },
    {
      "bufferView": 1,
      "byteOffset": 77136,
      "componentType": 5126,
      "count": 6428,
      "name": "accessorNormals",
      "type": "VEC3"
    },
    {
      "bufferView": 2,
      "componentType": 5126,
      "count": 6428,
      "name": "accessorUVs",
      "type": "VEC2"
    },
    {
      "bufferView": 0,
      "byteOffset": 32760,
      "componentType": 5123,
      "count": 22332,
      "name": "accessorIndices",
      "type": "SCALAR"
    },
    {
      "bufferView": 1,
      "byteOffset": 154272,
      "componentType": 5126,
      "count": 13079,
      "max": [
        0.29826587,
        3.6599998,
        1.2601354
      ],
      "min": [
        -0.30173415,
        -3.913684,
        -1.1209164
      ],
      "name": "accessorPositions",
      "type": "VEC3"
    },
    {
      "bufferView": 1,
      "byteOffset": 311220,
      "componentType": 5126,
      "count": 13079,
      "name": "accessorNormals",
      "type": "VEC3"
    },
    {
      "bufferView": 2,
      "byteOffset": 51424,
      "componentType": 5126,
      "count": 13079,
      "name": "accessorUVs",
      "type": "VEC2"
    },
    {
      "bufferView": 0,
      "byteOffset": 77424,
      "componentType": 5123,
      "count": 1890,
      "name": "accessorIndices",
      "type": "SCALAR"
    },
    {
      "bufferView": 1,
      "byteOffset": 468168,
      "componentType": 5126,
      "count": 531,
      "max": [
        0.106532946,
        0.004435625,
        0.106532946
      ],
      "min": [
        -0.106532976,
        -4.9883965e-08,
        -0.106532976
      ],
      "name": "accessorPositions",
      "type": "VEC3"
    },
    {
      "bufferView": 1,
      "byteOffset": 474540,
      "componentType": 5126,
      "count": 531,
      "name": "accessorNormals",
      "type": "VEC3"
    },
    {
      "bufferView": 2,
      "byteOffset": 156056,
      "componentType": 5126,
      "count": 531,
      "name": "accessorUVs",
      "type": "VEC2"
    },
    {
      "bufferView": 0,
      "byteOffset": 81204,
      "componentType": 5123,
      "count": 1890,
      "name": "accessorIndices",
      "type": "SCALAR"
    },
    {
      "bufferView": 1,
      "byteOffset": 480912,
      "componentType": 5126,
      "count": 531,
      "max": [
        0.106532946,
        0.004435625,
        0.106532946
      ],
      "min": [
        -0.106532976,
        -4.9883965e-08,
        -0.106532976
      ],
      "name": "accessorPositions",
      "type": "VEC3"
    },
    {
      "bufferView": 1,
      "byteOffset": 487284,
      "componentType": 5126,
      "count": 531,
      "name": "accessorNormals",
      "type": "VEC3"
    },
    {
      "bufferView": 2,
      "byteOffset": 160304,
      "componentType": 5126,
      "count": 531,
      "name": "accessorUVs",
      "type": "VEC2"
    },
    {
      "bufferView": 0,
      "byteOffset": 84984,
      "componentType": 5123,
      "count": 1890,
      "name": "accessorIndices",
      "type": "SCALAR"
    },
    {
      "bufferView": 1,
      "byteOffset": 493656,
      "componentType": 5126,
      "count": 531,
      "max": [
        0.106532946,
        0.004435625,
        0.106532946
      ],
      "min": [
        -0.106532976,
        -4.9883965e-08,
        -0.106532976
      ],
      "name": "accessorPositions",
      "type": "VEC3"
    },
    {
      "bufferView": 1,
      "byteOffset": 500028,
      "componentType": 5126,
      "count": 531,
      "name": "accessorNormals",
      "type": "VEC3"
    },
    {
      "bufferView": 2,
      "byteOffset": 164552,
      "componentType": 5126,
      "count": 531,
      "name": "accessorUVs",
      "type": "VEC2"
    },
    {
      "bufferView": 0,
      "byteOffset": 88764,
      "componentType": 5123,
      "count": 1890,
      "name": "accessorIndices",
      "type": "SCALAR"
    },
    {
      "bufferView": 1,
      "byteOffset": 506400,
      "componentType": 5126,
      "count": 531,
      "max": [
        0.106532946,
        0.004435625,
        0.106532946
      ],
      "min": [
        -0.106532976,
        -4.9883965e-08,
        -0.106532976
      ],
      "name": "accessorPositions",
      "type": "VEC3"
    },
    {
      "bufferView": 1,
      "byteOffset": 512772,
      "componentType": 5126,
      "count": 531,
      "name": "accessorNormals",
      "type": "VEC3"
    },
    {
      "bufferView": 2,
      "byteOffset": 168800,
      "componentType": 5126,
      "count": 531,
      "name": "accessorUVs",
      "type": "VEC2"
    },
    {
      "bufferView": 0,
      "byteOffset": 92544,
      "componentType": 5123,
      "count": 1890,
      "name": "accessorIndices",
      "type": "SCALAR"
    },
    {
      "bufferView": 1,
      "byteOffset": 519144,
      "componentType": 5126,
      "count": 531,
      "max": [
        0.106532946,
        0.004435625,
        0.106532946
      ],
      "min": [
        -0.106532976,
        -4.9883965e-08,
        -0.106532976
      ],
      "name": "accessorPositions",
      "type": "VEC3"
    },
    {
      "bufferView": 1,
      "byteOffset": 525516,
      "componentType": 5126,
      "count": 531,
      "name": "accessorNormals",
      "type": "VEC3"
    },
    {
      "bufferView": 2,
      "byteOffset": 173048,
      "componentType": 5126,
      "count": 531,
      "name": "accessorUVs",
      "type": "VEC2"
    }
  ],
  "asset": {
    "generator": "babylon.js glTF exporter for 3dsmax 2026 v4",
    "version": "2.0"
  },
  "bufferViews": [
    {
      "buffer": 0,
      "byteLength": 96324,
      "name": "bufferViewScalar"
    },
    {
      "buffer": 0,
      "byteLength": 531888,
      "byteOffset": 96324,
      "byteStride": 12,
      "name": "bufferViewFloatVec3"
    },
    {
      "buffer": 0,
      "byteLength": 177296,
      "byteOffset": 628212,
      "byteStride": 8,
      "name": "bufferViewFloatVec2"
    }
  ],
  "buffers": [
    {
      "byteLength": 805508,
      "uri": "ab_entr.bin"
    }
  ],
  "images": [
    {
      "uri": "textures\\RM_izostyk_N.ktx2"
    },
    {
      "uri": "textures\\RM_izostyk_ORM.ktx2"
    },
    {
      "uri": "textures\\RM_izostyk_RGBA.ktx2"
    },
    {
      "uri": "textures\\RM_MM1-2_N.ktx2"
    },
    {
      "uri": "textures\\RM_MM1-2_ORM.ktx2"
    },
    {
      "uri": "textures\\RM_MM1-2_RGBA.ktx2"
    }
  ],
  "materials": [
    {
      "name": "Material #34",
      "normalTexture": {
        "index": 0
      },
      "occlusionTexture": {
        "index": 1
      },
      "pbrMetallicRoughness": {
        "baseColorTexture": {
          "index": 2
        },
        "metallicRoughnessTexture": {
          "index": 1
        }
      }
    },
    {
      "name": "Material #35",
      "normalTexture": {
        "index": 3
      },
      "occlusionTexture": {
        "index": 4
      },
      "pbrMetallicRoughness": {
        "baseColorTexture": {
          "index": 5
        },
        "metallicRoughnessTexture": {
          "index": 4
        }
      }
    }
  ],
  "meshes": [
    {
      "name": "Изостык",
      "primitives": [
        {
          "attributes": {
            "NORMAL": 2,
            "POSITION": 1,
            "TEXCOORD_0": 3
          },
          "indices": 0,
          "material": 0
        }
      ]
    },
    {
      "name": "Светофор 2+2+1",
      "primitives": [
        {
          "attributes": {
            "NORMAL": 6,
            "POSITION": 5,
            "TEXCOORD_0": 7
          },
          "indices": 4,
          "material": 1
        }
      ]
    },
    {
      "name": "BOTTOM_YELLOW_Lens",
      "primitives": [
        {
          "attributes": {
            "NORMAL": 10,
            "POSITION": 9,
            "TEXCOORD_0": 11
          },
          "indices": 8
        }
      ]
    },
    {
      "name": "GREEN_Lens",
      "primitives": [
        {
          "attributes": {
            "NORMAL": 14,
            "POSITION": 13,
            "TEXCOORD_0": 15
          },
          "indices": 12
        }
      ]
    },
    {
      "name": "YELLOW_Lens",
      "primitives": [
        {
          "attributes": {
            "NORMAL": 18,
            "POSITION": 17,
            "TEXCOORD_0": 19
          },
          "indices": 16
        }
      ]
    },
    {
      "name": "WHITE_Lens",
      "primitives": [
        {
          "attributes": {
            "NORMAL": 22,
            "POSITION": 21,
            "TEXCOORD_0": 23
          },
          "indices": 20
        }
      ]
    },
    {
      "name": "RED_Lens",
      "primitives": [
        {
          "attributes": {
            "NORMAL": 26,
            "POSITION": 25,
            "TEXCOORD_0": 27
          },
          "indices": 24
        }
      ]
    }
  ],
  "nodes": [
    {
      "mesh": 0,
      "name": "Изостык",
      "translation": [
        2.5,
        -0.073162064,
        -0.0
      ]
    },
    {
      "mesh": 1,
      "name": "Светофор 2+2+1",
      "translation": [
        2.5,
        3.3479998,
        1.1209164
      ]
    },
    {
      "mesh": 2,
      "name": "BOTTOM_YELLOW_Lens",
      "rotation": [
        0.7071068,
        7.832296e-17,
        -7.832296e-17,
        0.7071067
      ],
      "translation": [
        2.5,
        4.887999,
        1.6910517
      ]
    },
    {
      "mesh": 3,
      "name": "GREEN_Lens",
      "rotation": [
        0.7071068,
        7.832296e-17,
        -7.832296e-17,
        0.7071067
      ],
      "translation": [
        2.5,
        6.14191,
        1.6910517
      ]
    },
    {
      "mesh": 4,
      "name": "YELLOW_Lens",
      "rotation": [
        0.7071068,
        7.832296e-17,
        -7.832296e-17,
        0.7071067
      ],
      "translation": [
        2.5,
        6.4459014,
        1.6910517
      ]
    },
    {
      "mesh": 5,
      "name": "WHITE_Lens",
      "rotation": [
        0.7071068,
        7.832296e-17,
        -7.832296e-17,
        0.7071067
      ],
      "translation": [
        2.5,
        4.188,
        1.6910517
      ]
    },
    {
      "mesh": 6,
      "name": "RED_Lens",
      "rotation": [
        0.7071068,
        7.832296e-17,
        -7.832296e-17,
        0.7071067
      ],
      "translation": [
        2.5,
        5.1919904,
        1.6910517
      ]
    }
  ],
  "samplers": [
    {
      "magFilter": 9729,
      "minFilter": 9987
    }
  ],
  "scene": 0,
  "scenes": [
    {
      "nodes": [
        0,
        1,
        2,
        3,
        4,
        5,
        6
      ]
    }
  ],
  "textures": [
    {
      "name": "RM_izostyk_N.jpg",
      "sampler": 0,
      "source": 0
    },
    {
      "name": "RM_izostyk_ORM.jpg",
      "sampler": 0,
      "source": 1
    },
    {
      "name": "RM_izostyk_RGBA.jpg",
      "sampler": 0,
      "source": 2
    },
    {
      "name": "RM_MM1-2_N.jpg",
      "sampler": 0,
      "source": 3
    },
    {
      "name": "RM_MM1-2_ORM.jpg",
      "sampler": 0,
      "source": 4
    },
    {
      "name": "RM_MM1-2_RGBA.jpg",
      "sampler": 0,
      "source": 5
    }
  ]
}