{
  "accessors": [
    {
      "bufferView": 0,
      "componentType": 5123,
      "count": 16380,
      "name": "accessorIndices",
      "type": "SCALAR"
    },
    {
      "bufferView": 1,
      "componentType": 5126,
      "count": 6428,
      "max": [
        0.25911498,
        0.92159,
        1.0632204
      ],
      "min": [
        -3.8048868,
        -0.31048977,
        -1.3671571
      ],
      "name": "accessorPositions",
      "type": "VEC3"
    },
    {
      "bufferView": 1,
      "byteOffset": 77136,
      "componentType": 5126,
      "count": 6428,
      "name": "accessorNormals",
      "type": "VEC3"
    },
    {
      "bufferView": 2,
      "componentType": 5126,
      "count": 6428,
      "name": "accessorUVs",
      "type": "VEC2"
    },
    {
      "bufferView": 0,
      "byteOffset": 32760,
      "componentType": 5123,
      "count": 3810,
      "name": "accessorIndices",
      "type": "SCALAR"
    },
    {
      "bufferView": 1,
      "byteOffset": 154272,
      "componentType": 5126,
      "count": 2282,
      "max": [
        0.21846606,
        0.67491704,
        0.48284817
      ],
      "min": [
        -0.21847782,
        -1.523979,
        -0.73899674
      ],
      "name": "accessorPositions",
      "type": "VEC3"
    },
    {
      "bufferView": 1,
      "byteOffset": 181656,
      "componentType": 5126,
      "count": 2282,
      "name": "accessorNormals",
      "type": "VEC3"
    },
    {
      "bufferView": 2,
      "byteOffset": 51424,
      "componentType": 5126,
      "count": 2282,
      "name": "accessorUVs",
      "type": "VEC2"
    },
    {
      "bufferView": 0,
      "byteOffset": 40380,
      "componentType": 5123,
      "count": 1890,
      "name": "accessorIndices",
      "type": "SCALAR"
    },
    {
      "bufferView": 1,
      "byteOffset": 209040,
      "componentType": 5126,
      "count": 531,
      "max": [
        0.106532946,
        0.004435625,
        0.106532946
      ],
      "min": [
        -0.106532976,
        -4.9883965e-08,
        -0.106532976
      ],
      "name": "accessorPositions",
      "type": "VEC3"
    },
    {
      "bufferView": 1,
      "byteOffset": 215412,
      "componentType": 5126,
      "count": 531,
      "name": "accessorNormals",
      "type": "VEC3"
    },
    {
      "bufferView": 2,
      "byteOffset": 69680,
      "componentType": 5126,
      "count": 531,
      "name": "accessorUVs",
      "type": "VEC2"
    },
    {
      "bufferView": 0,
      "byteOffset": 44160,
      "componentType": 5123,
      "count": 1890,
      "name": "accessorIndices",
      "type": "SCALAR"
    },
    {
      "bufferView": 1,
      "byteOffset": 221784,
      "componentType": 5126,
      "count": 531,
      "max": [
        0.106532946,
        0.004435625,
        0.106532946
      ],
      "min": [
        -0.106532976,
        -4.9883965e-08,
        -0.106532976
      ],
      "name": "accessorPositions",
      "type": "VEC3"
    },
    {
      "bufferView": 1,
      "byteOffset": 228156,
      "componentType": 5126,
      "count": 531,
      "name": "accessorNormals",
      "type": "VEC3"
    },
    {
      "bufferView": 2,
      "byteOffset": 73928,
      "componentType": 5126,
      "count": 531,
      "name": "accessorUVs",
      "type": "VEC2"
    }
  ],
  "asset": {
    "generator": "babylon.js glTF exporter for 3dsmax 2026 v4",
    "version": "2.0"
  },
  "bufferViews": [
    {
      "buffer": 0,
      "byteLength": 47940,
      "name": "bufferViewScalar"
    },
    {
      "buffer": 0,
      "byteLength": 234528,
      "byteOffset": 47940,
      "byteStride": 12,
      "name": "bufferViewFloatVec3"
    },
    {
      "buffer": 0,
      "byteLength": 78176,
      "byteOffset": 282468,
      "byteStride": 8,
      "name": "bufferViewFloatVec2"
    }
  ],
  "buffers": [
    {
      "byteLength": 360644,
      "uri": "ab_shnt.bin"
    }
  ],
  "images": [
    {
      "uri": "textures\\RM_izostyk_N.ktx2"
    },
    {
      "uri": "textures\\RM_izostyk_ORM.ktx2"
    },
    {
      "uri": "textures\\RM_izostyk_RGBA.ktx2"
    },
    {
      "uri": "textures\\RM_KM1_N.ktx2"
    },
    {
      "uri": "textures\\RM_KM1_ORM.ktx2"
    },
    {
      "uri": "textures\\RM_KM1_RGBA.ktx2"
    }
  ],
  "materials": [
    {
      "name": "Material #3",
      "normalTexture": {
        "index": 0
      },
      "occlusionTexture": {
        "index": 1
      },
      "pbrMetallicRoughness": {
        "baseColorTexture": {
          "index": 2
        },
        "metallicRoughnessTexture": {
          "index": 1
        }
      }
    },
    {
      "name": "Material #4",
      "normalTexture": {
        "index": 3
      },
      "occlusionTexture": {
        "index": 4
      },
      "pbrMetallicRoughness": {
        "baseColorTexture": {
          "index": 5
        },
        "metallicRoughnessTexture": {
          "index": 4
        }
      }
    }
  ],
  "meshes": [
    {
      "name": "Изостык",
      "primitives": [
        {
          "attributes": {
            "NORMAL": 2,
            "POSITION": 1,
            "TEXCOORD_0": 3
          },
          "indices": 0,
          "material": 0
        }
      ]
    },
    {
      "name": "Светофор 3",
      "primitives": [
        {
          "attributes": {
            "NORMAL": 6,
            "POSITION": 5,
            "TEXCOORD_0": 7
          },
          "indices": 4,
          "material": 1
        }
      ]
    },
    {
      "name": "WHITE_Lens",
      "primitives": [
        {
          "attributes": {
            "NORMAL": 10,
            "POSITION": 9,
            "TEXCOORD_0": 11
          },
          "indices": 8
        }
      ]
    },
    {
      "name": "BLUE_Lens",
      "primitives": [
        {
          "attributes": {
            "NORMAL": 14,
            "POSITION": 13,
            "TEXCOORD_0": 15
          },
          "indices": 12
        }
      ]
    }
  ],
  "nodes": [
    {
      "mesh": 0,
      "name": "Изостык",
      "translation": [
        2.5,
        -0.073162064,
        -0.0
      ]
    },
    {
      "mesh": 1,
      "name": "Светофор 3",
      "translation": [
        2.5,
        0.2776016,
        0.39912801999999997
      ]
    },
    {
      "mesh": 2,
      "name": "WHITE_Lens",
      "rotation": [
        0.7071068,
        7.832296e-17,
        -7.832296e-17,
        0.7071067
      ],
      "translation": [
        2.499988,
        0.7991073,
        0.47047144
      ]
    },
    {
      "mesh": 3,
      "name": "BLUE_Lens",
      "rotation": [
        0.7071068,
        7.832296e-17,
        -7.832296e-17,
        0.7071067
      ],
      "translation": [
        2.499988,
        0.49705195,
        0.47047144
      ]
    }
  ],
  "samplers": [
    {
      "magFilter": 9729,
      "minFilter": 9987
    }
  ],
  "scene": 0,
  "scenes": [
    {
      "nodes": [
        0,
        1,
        2,
        3
      ]
    }
  ],
  "textures": [
    {
      "name": "RM_izostyk_N.jpg",
      "sampler": 0,
      "source": 0
    },
    {
      "name": "RM_izostyk_ORM.jpg",
      "sampler": 0,
      "source": 1
    },
    {
      "name": "RM_izostyk_RGBA.jpg",
      "sampler": 0,
      "source": 2
    },
    {
      "name": "RM_KM1_N.jpg",
      "sampler": 0,
      "source": 3
    },
    {
      "name": "RM_KM1_ORM.jpg",
      "sampler": 0,
      "source": 4
    },
    {
      "name": "RM_KM1_RGBA.jpg",
      "sampler": 0,
      "source": 5
    }
  ]
}