{
    "asset": {
        "version": "2.0"
    },
    "scenes": [
        {
            "nodes": [0]
        }
    ],
    "scene": 0,
    "nodes": [
        {
            "name": "Scene Root",
            "children": [1, 4, 7, 10, 13, 16, 19],
            "matrix": [
                1.000000, 0.000000, 0.000000, 0.000000,
                0.000000, 0.000000, -1.000000, 0.000000,
                0.000000, 1.000000, 0.000000, 0.000000,
                0.000000, 0.000000, 0.000000, 1.000000
            ]
        },
        {
            "name": "Body",
            "children": [2],
            "matrix": [
                1.000000, 0.000000, 0.000000, 0.000000,
                0.000000, 1.000000, 0.000000, 0.000000,
                0.000000, 0.000000, 1.000000, 0.000000,
                0.000000, 0.000000, 0.000000, 1.000000
            ]
        },
        {
            "name": "Body-GEODE",
            "children": [3]
        },
        {
            "name": "01 - Default",
            "mesh": 0
        },
        {
            "name": "Boige-1",
            "children": [5],
            "matrix": [
                1.000000, 0.000000, 0.000000, 0.000000,
                0.000000, 1.000000, 0.000000, 0.000000,
                0.000000, 0.000000, 1.000000, 0.000000,
                0.000000, -5.100000, -0.000000, 1.000000
            ]
        },
        {
            "name": "Boige-1-GEODE",
            "children": [6]
        },
        {
            "name": "01 - Default",
            "mesh": 1
        },
        {
            "name": "Boige-2",
            "children": [8],
            "matrix": [
                1.000000, 0.000000, 0.000000, 0.000000,
                0.000000, 1.000000, 0.000000, 0.000000,
                0.000000, 0.000000, 1.000000, 0.000000,
                0.000000, 5.100000, -0.000000, 1.000000
            ]
        },
        {
            "name": "Boige-2-GEODE",
            "children": [9]
        },
        {
            "name": "01 - Default",
            "mesh": 2
        },
        {
            "name": "Wheel-4",
            "children": [11],
            "matrix": [
                1.000000, 0.000000, 0.000000, 0.000000,
                0.000000, 1.000000, 0.000000, 0.000000,
                0.000000, 0.000000, 1.000000, 0.000000,
                0.000000, 6.025810, 0.786237, 1.000000
            ]
        },
        {
            "name": "Wheel-4-GEODE",
            "children": [12]
        },
        {
            "name": "01 - Default",
            "mesh": 3
        },
        {
            "name": "Wheel-3",
            "children": [14],
            "matrix": [
                1.000000, 0.000000, 0.000000, 0.000000,
                0.000000, 1.000000, 0.000000, 0.000000,
                0.000000, 0.000000, 1.000000, 0.000000,
                0.000000, 4.176000, 0.786237, 1.000000
            ]
        },
        {
            "name": "Wheel-3-GEODE",
            "children": [15]
        },
        {
            "name": "01 - Default",
            "mesh": 4
        },
        {
            "name": "Wheel-2",
            "children": [17],
            "matrix": [
                1.000000, 0.000000, 0.000000, 0.000000,
                0.000000, 1.000000, 0.000000, 0.000000,
                0.000000, 0.000000, 1.000000, 0.000000,
                0.000000, -4.176000, 0.786237, 1.000000
            ]
        },
        {
            "name": "Wheel-2-GEODE",
            "children": [18]
        },
        {
            "name": "01 - Default",
            "mesh": 5
        },
        {
            "name": "Wheel-1",
            "children": [20],
            "matrix": [
                1.000000, 0.000000, 0.000000, 0.000000,
                0.000000, 1.000000, 0.000000, 0.000000,
                0.000000, 0.000000, 1.000000, 0.000000,
                0.000000, -6.026000, 0.786237, 1.000000
            ]
        },
        {
            "name": "Wheel-1-GEODE",
            "children": [21]
        },
        {
            "name": "01 - Default",
            "mesh": 6
        }
    ],
    "buffers": [
        {
            "byteLength": 328752,
            "uri": "Fr_hopper-1.bin"
        }
    ],
    "bufferViews": [
        {
            "buffer": 0,
            "byteLength": 120576,
            "byteOffset": 0,
            "target": 34962
        },
        {
            "buffer": 0,
            "byteLength": 15072,
            "byteOffset": 120576,
            "target": 34963
        },
        {
            "buffer": 0,
            "byteLength": 38976,
            "byteOffset": 135648,
            "target": 34962
        },
        {
            "buffer": 0,
            "byteLength": 4872,
            "byteOffset": 174624,
            "target": 34963
        },
        {
            "buffer": 0,
            "byteLength": 38976,
            "byteOffset": 179496,
            "target": 34962
        },
        {
            "buffer": 0,
            "byteLength": 4872,
            "byteOffset": 218472,
            "target": 34963
        },
        {
            "buffer": 0,
            "byteLength": 23424,
            "byteOffset": 223344,
            "target": 34962
        },
        {
            "buffer": 0,
            "byteLength": 2928,
            "byteOffset": 246768,
            "target": 34963
        },
        {
            "buffer": 0,
            "byteLength": 23424,
            "byteOffset": 249696,
            "target": 34962
        },
        {
            "buffer": 0,
            "byteLength": 2928,
            "byteOffset": 273120,
            "target": 34963
        },
        {
            "buffer": 0,
            "byteLength": 23424,
            "byteOffset": 276048,
            "target": 34962
        },
        {
            "buffer": 0,
            "byteLength": 2928,
            "byteOffset": 299472,
            "target": 34963
        },
        {
            "buffer": 0,
            "byteLength": 23424,
            "byteOffset": 302400,
            "target": 34962
        },
        {
            "buffer": 0,
            "byteLength": 2928,
            "byteOffset": 325824,
            "target": 34963
        }
    ],
    "accessors": [
        {
            "bufferView": 0,
            "byteOffset": 0,
            "componentType": 5126,
            "count": 3768,
            "min": [-1.637180, -7.368000, 0.527189],
            "max": [1.637130, 7.368000, 5.318350],
            "type": "VEC3"
        },
        {
            "bufferView": 0,
            "byteOffset": 45216,
            "componentType": 5126,
            "count": 3768,
            "type": "VEC3"
        },
        {
            "bufferView": 0,
            "byteOffset": 90432,
            "componentType": 5126,
            "count": 3768,
            "type": "VEC2"
        },
        {
            "bufferView": 1,
            "byteOffset": 0,
            "componentType": 5125,
            "count": 3768,
            "type": "SCALAR"
        },
        {
            "bufferView": 2,
            "byteOffset": 0,
            "componentType": 5126,
            "count": 1218,
            "min": [-1.308090, -1.194230, 0.495557],
            "max": [1.308090, 1.212780, 1.233550],
            "type": "VEC3"
        },
        {
            "bufferView": 2,
            "byteOffset": 14616,
            "componentType": 5126,
            "count": 1218,
            "type": "VEC3"
        },
        {
            "bufferView": 2,
            "byteOffset": 29232,
            "componentType": 5126,
            "count": 1218,
            "type": "VEC2"
        },
        {
            "bufferView": 3,
            "byteOffset": 0,
            "componentType": 5125,
            "count": 1218,
            "type": "SCALAR"
        },
        {
            "bufferView": 4,
            "byteOffset": 0,
            "componentType": 5126,
            "count": 1218,
            "min": [-1.308090, -1.212780, 0.495557],
            "max": [1.308090, 1.194230, 1.233550],
            "type": "VEC3"
        },
        {
            "bufferView": 4,
            "byteOffset": 14616,
            "componentType": 5126,
            "count": 1218,
            "type": "VEC3"
        },
        {
            "bufferView": 4,
            "byteOffset": 29232,
            "componentType": 5126,
            "count": 1218,
            "type": "VEC2"
        },
        {
            "bufferView": 5,
            "byteOffset": 0,
            "componentType": 5125,
            "count": 1218,
            "type": "SCALAR"
        },
        {
            "bufferView": 6,
            "byteOffset": 0,
            "componentType": 5126,
            "count": 732,
            "min": [-0.851240, -0.509093, -0.516946],
            "max": [0.851240, 0.509093, 0.516946],
            "type": "VEC3"
        },
        {
            "bufferView": 6,
            "byteOffset": 8784,
            "componentType": 5126,
            "count": 732,
            "type": "VEC3"
        },
        {
            "bufferView": 6,
            "byteOffset": 17568,
            "componentType": 5126,
            "count": 732,
            "type": "VEC2"
        },
        {
            "bufferView": 7,
            "byteOffset": 0,
            "componentType": 5125,
            "count": 732,
            "type": "SCALAR"
        },
        {
            "bufferView": 8,
            "byteOffset": 0,
            "componentType": 5126,
            "count": 732,
            "min": [-0.851240, -0.509093, -0.516946],
            "max": [0.851240, 0.509093, 0.516946],
            "type": "VEC3"
        },
        {
            "bufferView": 8,
            "byteOffset": 8784,
            "componentType": 5126,
            "count": 732,
            "type": "VEC3"
        },
        {
            "bufferView": 8,
            "byteOffset": 17568,
            "componentType": 5126,
            "count": 732,
            "type": "VEC2"
        },
        {
            "bufferView": 9,
            "byteOffset": 0,
            "componentType": 5125,
            "count": 732,
            "type": "SCALAR"
        },
        {
            "bufferView": 10,
            "byteOffset": 0,
            "componentType": 5126,
            "count": 732,
            "min": [-0.851240, -0.509093, -0.516946],
            "max": [0.851240, 0.509093, 0.516946],
            "type": "VEC3"
        },
        {
            "bufferView": 10,
            "byteOffset": 8784,
            "componentType": 5126,
            "count": 732,
            "type": "VEC3"
        },
        {
            "bufferView": 10,
            "byteOffset": 17568,
            "componentType": 5126,
            "count": 732,
            "type": "VEC2"
        },
        {
            "bufferView": 11,
            "byteOffset": 0,
            "componentType": 5125,
            "count": 732,
            "type": "SCALAR"
        },
        {
            "bufferView": 12,
            "byteOffset": 0,
            "componentType": 5126,
            "count": 732,
            "min": [-0.851240, -0.509093, -0.516946],
            "max": [0.851240, 0.509093, 0.516946],
            "type": "VEC3"
        },
        {
            "bufferView": 12,
            "byteOffset": 8784,
            "componentType": 5126,
            "count": 732,
            "type": "VEC3"
        },
        {
            "bufferView": 12,
            "byteOffset": 17568,
            "componentType": 5126,
            "count": 732,
            "type": "VEC2"
        },
        {
            "bufferView": 13,
            "byteOffset": 0,
            "componentType": 5125,
            "count": 732,
            "type": "SCALAR"
        }
    ],
    "images": [
        {
            "uri": "T_hopper_RZD-2851//T_hopper_RZD-2851.tga"
        }
    ],
    "samplers": [
        {
            "magFilter": 9729,
            "minFilter": 9987,
            "wrapS": 10497,
            "wrapT": 10497
        }
    ],
    "textures": [
        {
            "sampler": 0,
            "source": 0
        }
    ],
    "materials": [
        {
            "name": "01 - Default",
            "pbrMetallicRoughness": {
                "baseColorTexture": {
                    "index": 0,
                    "texCoord": 0
                }
            },
            "alphaMode": "BLEND"
        }
    ],
    "meshes": [
        {
            "name": "01 - Default",
            "primitives": [
                {
                    "attributes": {
                        "POSITION": 0,
                        "NORMAL": 1,
                        "TEXCOORD_0": 2
                    },
                    "indices": 3,
                    "material": 0,
                    "mode": 4
                }
            ]
        },
        {
            "name": "01 - Default",
            "primitives": [
                {
                    "attributes": {
                        "POSITION": 4,
                        "NORMAL": 5,
                        "TEXCOORD_0": 6
                    },
                    "indices": 7,
                    "material": 0,
                    "mode": 4
                }
            ]
        },
        {
            "name": "01 - Default",
            "primitives": [
                {
                    "attributes": {
                        "POSITION": 8,
                        "NORMAL": 9,
                        "TEXCOORD_0": 10
                    },
                    "indices": 11,
                    "material": 0,
                    "mode": 4
                }
            ]
        },
        {
            "name": "01 - Default",
            "primitives": [
                {
                    "attributes": {
                        "POSITION": 12,
                        "NORMAL": 13,
                        "TEXCOORD_0": 14
                    },
                    "indices": 15,
                    "material": 0,
                    "mode": 4
                }
            ]
        },
        {
            "name": "01 - Default",
            "primitives": [
                {
                    "attributes": {
                        "POSITION": 16,
                        "NORMAL": 17,
                        "TEXCOORD_0": 18
                    },
                    "indices": 19,
                    "material": 0,
                    "mode": 4
                }
            ]
        },
        {
            "name": "01 - Default",
            "primitives": [
                {
                    "attributes": {
                        "POSITION": 20,
                        "NORMAL": 21,
                        "TEXCOORD_0": 22
                    },
                    "indices": 23,
                    "material": 0,
                    "mode": 4
                }
            ]
        },
        {
            "name": "01 - Default",
            "primitives": [
                {
                    "attributes": {
                        "POSITION": 24,
                        "NORMAL": 25,
                        "TEXCOORD_0": 26
                    },
                    "indices": 27,
                    "material": 0,
                    "mode": 4
                }
            ]
        }
    ]
}