{
    "asset": {
        "version": "2.0"
    },
    "buffers": [
        {
            "uri": "bin/1dprr_4950.bin",
            "byteLength": 25016
        }
    ],
    "bufferViews": [
        {
            "buffer": 0,
            "byteOffset": 0,
            "byteLength": 7392,
            "target": 34962
        },
        {
            "buffer": 0,
            "byteOffset": 7392,
            "byteLength": 7392,
            "target": 34962
        },
        {
            "buffer": 0,
            "byteOffset": 14784,
            "byteLength": 4928,
            "target": 34962
        },
        {
            "buffer": 0,
            "byteOffset": 19712,
            "byteLength": 5304,
            "target": 34963
        }
    ],
    "accessors": [
        {
            "bufferView": 0,
            "componentType": 5126,
            "count": 616,
            "type": "VEC3",
            "max": [
                2.73,
                9.39499,
                0.134774
            ],
            "min": [
                -0.0164357,
                7.27434,
                -49.5
            ]
        },
        {
            "bufferView": 1,
            "componentType": 5126,
            "count": 616,
            "type": "VEC3",
            "max": [
                1,
                1,
                1
            ],
            "min": [
                -1,
                -1,
                -1
            ]
        },
        {
            "bufferView": 2,
            "componentType": 5126,
            "count": 616,
            "type": "VEC2",
            "max": [
                0.999579,
                0.864454
            ],
            "min": [
                0.0752862,
                0.173577
            ]
        },
        {
            "bufferView": 3,
            "componentType": 5125,
            "count": 1326,
            "type": "SCALAR",
            "max": [
                615
            ],
            "min": [
                0
            ]
        }
    ],
    "images": [
        {
            "uri": "../textures/KontSet_1.tga"
        }
    ],
    "samplers": [
        {
            "magFilter": 9729,
            "minFilter": 9987,
            "wrapS": 10497,
            "wrapT": 10497
        }
    ],
    "textures": [
        {
            "sampler": 0,
            "source": 0
        }
    ],
    "materials": [
        {
            "pbrMetallicRoughness": {
                "baseColorTexture": {
                    "index": 0,
                    "texCoord": 0
                }
            },
            "alphaMode": "BLEND"
        }
    ],
    "meshes": [
        {
            "primitives": [
                {
                    "attributes": {
                        "POSITION": 0,
                        "NORMAL": 1,
                        "TEXCOORD_0": 2
                    },
                    "indices": 3,
                    "material": 0,
                    "mode": 4
                }
            ]
        }
    ],
    "nodes": [
        {
            "mesh": 0
        }
    ],
    "scenes": [
        {
            "nodes": [ 0 ]
        }
    ],
    "scene": 0
}
