{
    "asset": {
        "version": "2.0"
    },
    "buffers": [
        {
            "uri": "bin/1nasip500l.bin",
            "byteLength": 16512
        }
    ],
    "bufferViews": [
        {
            "buffer": 0,
            "byteOffset": 0,
            "byteLength": 4032,
            "target": 34962
        },
        {
            "buffer": 0,
            "byteOffset": 4032,
            "byteLength": 4032,
            "target": 34962
        },
        {
            "buffer": 0,
            "byteOffset": 8064,
            "byteLength": 2688,
            "target": 34962
        },
        {
            "buffer": 0,
            "byteOffset": 10752,
            "byteLength": 5760,
            "target": 34963
        }
    ],
    "accessors": [
        {
            "bufferView": 0,
            "componentType": 5126,
            "count": 336,
            "type": "VEC3",
            "max": [
                18.7334,
                -0.2,
                6.14596
            ],
            "min": [
                -28.2305,
                -10.2206,
                -107.787
            ]
        },
        {
            "bufferView": 1,
            "componentType": 5126,
            "count": 336,
            "type": "VEC3",
            "max": [
                0.647228,
                1,
                0.697022
            ],
            "min": [
                -0.663054,
                0.514258,
                -0.777038
            ]
        },
        {
            "bufferView": 2,
            "componentType": 5126,
            "count": 336,
            "type": "VEC2",
            "max": [
                0.374769,
                1.0004
            ],
            "min": [
                0,
                0
            ]
        },
        {
            "bufferView": 3,
            "componentType": 5125,
            "count": 1440,
            "type": "SCALAR",
            "max": [
                335
            ],
            "min": [
                0
            ]
        }
    ],
    "images": [
        {
            "uri": "../textures/nasip_TSM.bmp"
        }
    ],
    "samplers": [
        {
            "magFilter": 9729,
            "minFilter": 9987,
            "wrapS": 10497,
            "wrapT": 10497
        }
    ],
    "textures": [
        {
            "sampler": 0,
            "source": 0
        }
    ],
    "materials": [
        {
            "pbrMetallicRoughness": {
                "baseColorTexture": {
                    "index": 0,
                    "texCoord": 0
                }
            }
        }
    ],
    "meshes": [
        {
            "primitives": [
                {
                    "attributes": {
                        "POSITION": 0,
                        "NORMAL": 1,
                        "TEXCOORD_0": 2
                    },
                    "indices": 3,
                    "material": 0,
                    "mode": 4
                }
            ]
        }
    ],
    "nodes": [
        {
            "mesh": 0
        }
    ],
    "scenes": [
        {
            "nodes": [ 0 ]
        }
    ],
    "scene": 0
}
