{
    "asset": {
        "version": "2.0"
    },
    "buffers": [
        {
            "uri": "bin/1nasip_TSM.bin",
            "byteLength": 8664
        }
    ],
    "bufferViews": [
        {
            "buffer": 0,
            "byteOffset": 0,
            "byteLength": 2304,
            "target": 34962
        },
        {
            "buffer": 0,
            "byteOffset": 2304,
            "byteLength": 2304,
            "target": 34962
        },
        {
            "buffer": 0,
            "byteOffset": 4608,
            "byteLength": 1536,
            "target": 34962
        },
        {
            "buffer": 0,
            "byteOffset": 6144,
            "byteLength": 2520,
            "target": 34963
        }
    ],
    "accessors": [
        {
            "bufferView": 0,
            "componentType": 5126,
            "count": 192,
            "type": "VEC3",
            "max": [
                18.7331,
                -0.2,
                7.58104
            ],
            "min": [
                -18.7334,
                -10.2206,
                -107.581
            ]
        },
        {
            "bufferView": 1,
            "componentType": 5126,
            "count": 192,
            "type": "VEC3",
            "max": [
                0.647246,
                0.964509,
                0.584863
            ],
            "min": [
                -0.647242,
                0.582092,
                -0.584818
            ]
        },
        {
            "bufferView": 2,
            "componentType": 5126,
            "count": 192,
            "type": "VEC2",
            "max": [
                0.374769,
                1
            ],
            "min": [
                0,
                0
            ]
        },
        {
            "bufferView": 3,
            "componentType": 5125,
            "count": 630,
            "type": "SCALAR",
            "max": [
                191
            ],
            "min": [
                0
            ]
        }
    ],
    "images": [
        {
            "uri": "../textures/nasip_TSM_1.bmp"
        }
    ],
    "samplers": [
        {
            "magFilter": 9729,
            "minFilter": 9987,
            "wrapS": 10497,
            "wrapT": 10497
        }
    ],
    "textures": [
        {
            "sampler": 0,
            "source": 0
        }
    ],
    "materials": [
        {
            "pbrMetallicRoughness": {
                "baseColorTexture": {
                    "index": 0,
                    "texCoord": 0
                }
            }
        }
    ],
    "meshes": [
        {
            "primitives": [
                {
                    "attributes": {
                        "POSITION": 0,
                        "NORMAL": 1,
                        "TEXCOORD_0": 2
                    },
                    "indices": 3,
                    "material": 0,
                    "mode": 4
                }
            ]
        }
    ],
    "nodes": [
        {
            "mesh": 0
        }
    ],
    "scenes": [
        {
            "nodes": [ 0 ]
        }
    ],
    "scene": 0
}
