{
    "asset": {
        "version": "2.0"
    },
    "buffers": [
        {
            "uri": "bin/1op0l4.3_.bin",
            "byteLength": 35064
        }
    ],
    "bufferViews": [
        {
            "buffer": 0,
            "byteOffset": 0,
            "byteLength": 10944,
            "target": 34962
        },
        {
            "buffer": 0,
            "byteOffset": 10944,
            "byteLength": 10944,
            "target": 34962
        },
        {
            "buffer": 0,
            "byteOffset": 21888,
            "byteLength": 7296,
            "target": 34962
        },
        {
            "buffer": 0,
            "byteOffset": 29184,
            "byteLength": 5880,
            "target": 34963
        }
    ],
    "accessors": [
        {
            "bufferView": 0,
            "componentType": 5126,
            "count": 912,
            "type": "VEC3",
            "max": [
                1.04983,
                10.9914,
                0.404859
            ],
            "min": [
                -2.6851,
                6.78818,
                -0.375352
            ]
        },
        {
            "bufferView": 1,
            "componentType": 5126,
            "count": 912,
            "type": "VEC3",
            "max": [
                1,
                1,
                1
            ],
            "min": [
                -1,
                -1,
                -1
            ]
        },
        {
            "bufferView": 2,
            "componentType": 5126,
            "count": 912,
            "type": "VEC2",
            "max": [
                2.23082,
                0.750101
            ],
            "min": [
                -0.998183,
                0.009386
            ]
        },
        {
            "bufferView": 3,
            "componentType": 5125,
            "count": 1470,
            "type": "SCALAR",
            "max": [
                911
            ],
            "min": [
                0
            ]
        }
    ],
    "images": [
        {
            "uri": "../textures/1op04.3_.jpg"
        }
    ],
    "samplers": [
        {
            "magFilter": 9729,
            "minFilter": 9987,
            "wrapS": 10497,
            "wrapT": 10497
        }
    ],
    "textures": [
        {
            "sampler": 0,
            "source": 0
        }
    ],
    "materials": [
        {
            "pbrMetallicRoughness": {
                "baseColorTexture": {
                    "index": 0,
                    "texCoord": 0
                }
            }
        }
    ],
    "meshes": [
        {
            "primitives": [
                {
                    "attributes": {
                        "POSITION": 0,
                        "NORMAL": 1,
                        "TEXCOORD_0": 2
                    },
                    "indices": 3,
                    "material": 0,
                    "mode": 4
                }
            ]
        }
    ],
    "nodes": [
        {
            "mesh": 0
        }
    ],
    "scenes": [
        {
            "nodes": [ 0 ]
        }
    ],
    "scene": 0
}
