{
    "asset": {
        "version": "2.0"
    },
    "buffers": [
        {
            "uri": "bin/1op0l4.6.bin",
            "byteLength": 25040
        }
    ],
    "bufferViews": [
        {
            "buffer": 0,
            "byteOffset": 0,
            "byteLength": 7752,
            "target": 34962
        },
        {
            "buffer": 0,
            "byteOffset": 7752,
            "byteLength": 7752,
            "target": 34962
        },
        {
            "buffer": 0,
            "byteOffset": 15504,
            "byteLength": 5168,
            "target": 34962
        },
        {
            "buffer": 0,
            "byteOffset": 20672,
            "byteLength": 4368,
            "target": 34963
        }
    ],
    "accessors": [
        {
            "bufferView": 0,
            "componentType": 5126,
            "count": 646,
            "type": "VEC3",
            "max": [
                -4.18731,
                9.72413,
                0.573138
            ],
            "min": [
                -4.85675,
                -2.76916,
                -0.6238
            ]
        },
        {
            "bufferView": 1,
            "componentType": 5126,
            "count": 646,
            "type": "VEC3",
            "max": [
                1,
                1,
                1
            ],
            "min": [
                -1,
                -1,
                -1
            ]
        },
        {
            "bufferView": 2,
            "componentType": 5126,
            "count": 646,
            "type": "VEC2",
            "max": [
                0.728104,
                0.995934
            ],
            "min": [
                0.00601864,
                0.001504
            ]
        },
        {
            "bufferView": 3,
            "componentType": 5125,
            "count": 1092,
            "type": "SCALAR",
            "max": [
                645
            ],
            "min": [
                0
            ]
        }
    ],
    "images": [
        {
            "uri": "../textures/1op04.5.jpg"
        }
    ],
    "samplers": [
        {
            "magFilter": 9729,
            "minFilter": 9987,
            "wrapS": 10497,
            "wrapT": 10497
        }
    ],
    "textures": [
        {
            "sampler": 0,
            "source": 0
        }
    ],
    "materials": [
        {
            "pbrMetallicRoughness": {
                "baseColorTexture": {
                    "index": 0,
                    "texCoord": 0
                }
            }
        }
    ],
    "meshes": [
        {
            "primitives": [
                {
                    "attributes": {
                        "POSITION": 0,
                        "NORMAL": 1,
                        "TEXCOORD_0": 2
                    },
                    "indices": 3,
                    "material": 0,
                    "mode": 4
                }
            ]
        }
    ],
    "nodes": [
        {
            "mesh": 0
        }
    ],
    "scenes": [
        {
            "nodes": [ 0 ]
        }
    ],
    "scene": 0
}
