{
    "asset": {
        "version": "2.0"
    },
    "buffers": [
        {
            "uri": "bin/1op0r4.1_.bin",
            "byteLength": 14640
        }
    ],
    "bufferViews": [
        {
            "buffer": 0,
            "byteOffset": 0,
            "byteLength": 4392,
            "target": 34962
        },
        {
            "buffer": 0,
            "byteOffset": 4392,
            "byteLength": 4392,
            "target": 34962
        },
        {
            "buffer": 0,
            "byteOffset": 8784,
            "byteLength": 2928,
            "target": 34962
        },
        {
            "buffer": 0,
            "byteOffset": 11712,
            "byteLength": 2928,
            "target": 34963
        }
    ],
    "accessors": [
        {
            "bufferView": 0,
            "componentType": 5126,
            "count": 366,
            "type": "VEC3",
            "max": [
                2.47445,
                10.513,
                0.190507
            ],
            "min": [
                -0.782737,
                6.83544,
                -0.190507
            ]
        },
        {
            "bufferView": 1,
            "componentType": 5126,
            "count": 366,
            "type": "VEC3",
            "max": [
                1,
                1,
                1
            ],
            "min": [
                -1,
                -1,
                -1
            ]
        },
        {
            "bufferView": 2,
            "componentType": 5126,
            "count": 366,
            "type": "VEC2",
            "max": [
                0.545472,
                0.872607
            ],
            "min": [
                0.155918,
                0.000943533
            ]
        },
        {
            "bufferView": 3,
            "componentType": 5125,
            "count": 732,
            "type": "SCALAR",
            "max": [
                365
            ],
            "min": [
                0
            ]
        }
    ],
    "images": [
        {
            "uri": "../textures/KontSet_2.tga"
        }
    ],
    "samplers": [
        {
            "magFilter": 9729,
            "minFilter": 9987,
            "wrapS": 10497,
            "wrapT": 10497
        }
    ],
    "textures": [
        {
            "sampler": 0,
            "source": 0
        }
    ],
    "materials": [
        {
            "pbrMetallicRoughness": {
                "baseColorTexture": {
                    "index": 0,
                    "texCoord": 0
                }
            },
            "alphaMode": "BLEND"
        }
    ],
    "meshes": [
        {
            "primitives": [
                {
                    "attributes": {
                        "POSITION": 0,
                        "NORMAL": 1,
                        "TEXCOORD_0": 2
                    },
                    "indices": 3,
                    "material": 0,
                    "mode": 4
                }
            ]
        }
    ],
    "nodes": [
        {
            "mesh": 0
        }
    ],
    "scenes": [
        {
            "nodes": [ 0 ]
        }
    ],
    "scene": 0
}
