{
    "asset": {
        "version": "2.0"
    },
    "buffers": [
        {
            "uri": "bin/1op0r4.5.bin",
            "byteLength": 57140
        }
    ],
    "bufferViews": [
        {
            "buffer": 0,
            "byteOffset": 0,
            "byteLength": 17472,
            "target": 34962
        },
        {
            "buffer": 0,
            "byteOffset": 17472,
            "byteLength": 17472,
            "target": 34962
        },
        {
            "buffer": 0,
            "byteOffset": 34944,
            "byteLength": 11648,
            "target": 34962
        },
        {
            "buffer": 0,
            "byteOffset": 46592,
            "byteLength": 10548,
            "target": 34963
        }
    ],
    "accessors": [
        {
            "bufferView": 0,
            "componentType": 5126,
            "count": 1456,
            "type": "VEC3",
            "max": [
                4.85606,
                12.5082,
                0.794119
            ],
            "min": [
                3.49443,
                -2.76916,
                -0.713404
            ]
        },
        {
            "bufferView": 1,
            "componentType": 5126,
            "count": 1456,
            "type": "VEC3",
            "max": [
                1,
                1,
                1
            ],
            "min": [
                -1,
                -1,
                -1
            ]
        },
        {
            "bufferView": 2,
            "componentType": 5126,
            "count": 1456,
            "type": "VEC2",
            "max": [
                0.991152,
                0.995934
            ],
            "min": [
                0.00385702,
                0.00133699
            ]
        },
        {
            "bufferView": 3,
            "componentType": 5125,
            "count": 2637,
            "type": "SCALAR",
            "max": [
                1455
            ],
            "min": [
                0
            ]
        }
    ],
    "images": [
        {
            "uri": "../textures/1op04.5.jpg"
        }
    ],
    "samplers": [
        {
            "magFilter": 9729,
            "minFilter": 9987,
            "wrapS": 10497,
            "wrapT": 10497
        }
    ],
    "textures": [
        {
            "sampler": 0,
            "source": 0
        }
    ],
    "materials": [
        {
            "pbrMetallicRoughness": {
                "baseColorTexture": {
                    "index": 0,
                    "texCoord": 0
                }
            }
        }
    ],
    "meshes": [
        {
            "primitives": [
                {
                    "attributes": {
                        "POSITION": 0,
                        "NORMAL": 1,
                        "TEXCOORD_0": 2
                    },
                    "indices": 3,
                    "material": 0,
                    "mode": 4
                }
            ]
        }
    ],
    "nodes": [
        {
            "mesh": 0
        }
    ],
    "scenes": [
        {
            "nodes": [ 0 ]
        }
    ],
    "scene": 0
}
