{
    "asset": {
        "version": "2.0"
    },
    "buffers": [
        {
            "uri": "bin/1op0r4.4.bin",
            "byteLength": 78272
        }
    ],
    "bufferViews": [
        {
            "buffer": 0,
            "byteOffset": 0,
            "byteLength": 25608,
            "target": 34962
        },
        {
            "buffer": 0,
            "byteOffset": 25608,
            "byteLength": 25608,
            "target": 34962
        },
        {
            "buffer": 0,
            "byteOffset": 51216,
            "byteLength": 17072,
            "target": 34962
        },
        {
            "buffer": 0,
            "byteOffset": 68288,
            "byteLength": 9984,
            "target": 34963
        }
    ],
    "accessors": [
        {
            "bufferView": 0,
            "componentType": 5126,
            "count": 2134,
            "type": "VEC3",
            "max": [
                4.74452,
                9.72408,
                0.435395
            ],
            "min": [
                4.05419,
                -2.77573,
                -0.429207
            ]
        },
        {
            "bufferView": 1,
            "componentType": 5126,
            "count": 2134,
            "type": "VEC3",
            "max": [
                1,
                1,
                1
            ],
            "min": [
                -1,
                -1,
                -1
            ]
        },
        {
            "bufferView": 2,
            "componentType": 5126,
            "count": 2134,
            "type": "VEC2",
            "max": [
                0.995663,
                0.653256
            ],
            "min": [
                0.00493115,
                0.00396901
            ]
        },
        {
            "bufferView": 3,
            "componentType": 5125,
            "count": 2496,
            "type": "SCALAR",
            "max": [
                2133
            ],
            "min": [
                0
            ]
        }
    ],
    "images": [
        {
            "uri": "../textures/1op04.4.jpg"
        }
    ],
    "samplers": [
        {
            "magFilter": 9729,
            "minFilter": 9987,
            "wrapS": 10497,
            "wrapT": 10497
        }
    ],
    "textures": [
        {
            "sampler": 0,
            "source": 0
        }
    ],
    "materials": [
        {
            "pbrMetallicRoughness": {
                "baseColorTexture": {
                    "index": 0,
                    "texCoord": 0
                }
            }
        }
    ],
    "meshes": [
        {
            "primitives": [
                {
                    "attributes": {
                        "POSITION": 0,
                        "NORMAL": 1,
                        "TEXCOORD_0": 2
                    },
                    "indices": 3,
                    "material": 0,
                    "mode": 4
                }
            ]
        }
    ],
    "nodes": [
        {
            "mesh": 0
        }
    ],
    "scenes": [
        {
            "nodes": [ 0 ]
        }
    ],
    "scene": 0
}
