{
    "asset": {
        "version": "2.0"
    },
    "buffers": [
        {
            "uri": "bin/1op0l4.3.bin",
            "byteLength": 81752
        }
    ],
    "bufferViews": [
        {
            "buffer": 0,
            "byteOffset": 0,
            "byteLength": 24528,
            "target": 34962
        },
        {
            "buffer": 0,
            "byteOffset": 24528,
            "byteLength": 24528,
            "target": 34962
        },
        {
            "buffer": 0,
            "byteOffset": 49056,
            "byteLength": 16352,
            "target": 34962
        },
        {
            "buffer": 0,
            "byteOffset": 65408,
            "byteLength": 16344,
            "target": 34963
        }
    ],
    "accessors": [
        {
            "bufferView": 0,
            "componentType": 5126,
            "count": 2044,
            "type": "VEC3",
            "max": [
                -3.51999,
                12.3187,
                0.427776
            ],
            "min": [
                -4.74854,
                -2.77573,
                -0.429193
            ]
        },
        {
            "bufferView": 1,
            "componentType": 5126,
            "count": 2044,
            "type": "VEC3",
            "max": [
                1,
                1,
                1
            ],
            "min": [
                -1,
                -1,
                -1
            ]
        },
        {
            "bufferView": 2,
            "componentType": 5126,
            "count": 2044,
            "type": "VEC2",
            "max": [
                0.995091,
                0.648089
            ],
            "min": [
                0.0039275,
                0.217659
            ]
        },
        {
            "bufferView": 3,
            "componentType": 5125,
            "count": 4086,
            "type": "SCALAR",
            "max": [
                2043
            ],
            "min": [
                0
            ]
        }
    ],
    "images": [
        {
            "uri": "../textures/1op04.3.jpg"
        }
    ],
    "samplers": [
        {
            "magFilter": 9729,
            "minFilter": 9987,
            "wrapS": 10497,
            "wrapT": 10497
        }
    ],
    "textures": [
        {
            "sampler": 0,
            "source": 0
        }
    ],
    "materials": [
        {
            "pbrMetallicRoughness": {
                "baseColorTexture": {
                    "index": 0,
                    "texCoord": 0
                }
            }
        }
    ],
    "meshes": [
        {
            "primitives": [
                {
                    "attributes": {
                        "POSITION": 0,
                        "NORMAL": 1,
                        "TEXCOORD_0": 2
                    },
                    "indices": 3,
                    "material": 0,
                    "mode": 4
                }
            ]
        }
    ],
    "nodes": [
        {
            "mesh": 0
        }
    ],
    "scenes": [
        {
            "nodes": [ 0 ]
        }
    ],
    "scene": 0
}
