{
    "asset": {
        "version": "2.0"
    },
    "buffers": [
        {
            "uri": "bin/1op0r4.2.bin",
            "byteLength": 3512
        }
    ],
    "bufferViews": [
        {
            "buffer": 0,
            "byteOffset": 0,
            "byteLength": 1128,
            "target": 34962
        },
        {
            "buffer": 0,
            "byteOffset": 1128,
            "byteLength": 1128,
            "target": 34962
        },
        {
            "buffer": 0,
            "byteOffset": 2256,
            "byteLength": 752,
            "target": 34962
        },
        {
            "buffer": 0,
            "byteOffset": 3008,
            "byteLength": 504,
            "target": 34963
        }
    ],
    "accessors": [
        {
            "bufferView": 0,
            "componentType": 5126,
            "count": 94,
            "type": "VEC3",
            "max": [
                5.9452,
                11,
                0.445198
            ],
            "min": [
                5.0548,
                -2.57443,
                -0.445198
            ]
        },
        {
            "bufferView": 1,
            "componentType": 5126,
            "count": 94,
            "type": "VEC3",
            "max": [
                1,
                1,
                1
            ],
            "min": [
                -1,
                -1,
                -1
            ]
        },
        {
            "bufferView": 2,
            "componentType": 5126,
            "count": 94,
            "type": "VEC2",
            "max": [
                1,
                1.2811
            ],
            "min": [
                0,
                0
            ]
        },
        {
            "bufferView": 3,
            "componentType": 5125,
            "count": 126,
            "type": "SCALAR",
            "max": [
                93
            ],
            "min": [
                0
            ]
        }
    ],
    "images": [
        {
            "uri": "../textures/KontSet_2.tga"
        }
    ],
    "samplers": [
        {
            "magFilter": 9729,
            "minFilter": 9987,
            "wrapS": 10497,
            "wrapT": 10497
        }
    ],
    "textures": [
        {
            "sampler": 0,
            "source": 0
        }
    ],
    "materials": [
        {
            "pbrMetallicRoughness": {
                "baseColorTexture": {
                    "index": 0,
                    "texCoord": 0
                }
            },
            "alphaMode": "BLEND"
        }
    ],
    "meshes": [
        {
            "primitives": [
                {
                    "attributes": {
                        "POSITION": 0,
                        "NORMAL": 1,
                        "TEXCOORD_0": 2
                    },
                    "indices": 3,
                    "material": 0,
                    "mode": 4
                }
            ]
        }
    ],
    "nodes": [
        {
            "mesh": 0
        }
    ],
    "scenes": [
        {
            "nodes": [ 0 ]
        }
    ],
    "scene": 0
}
