{
    "asset": {
        "version": "2.0"
    },
    "buffers": [
        {
            "uri": "bin/1op4.3_.bin",
            "byteLength": 148992
        }
    ],
    "bufferViews": [
        {
            "buffer": 0,
            "byteOffset": 0,
            "byteLength": 49392,
            "target": 34962
        },
        {
            "buffer": 0,
            "byteOffset": 49392,
            "byteLength": 49392,
            "target": 34962
        },
        {
            "buffer": 0,
            "byteOffset": 98784,
            "byteLength": 32928,
            "target": 34962
        },
        {
            "buffer": 0,
            "byteOffset": 131712,
            "byteLength": 17280,
            "target": 34963
        }
    ],
    "accessors": [
        {
            "bufferView": 0,
            "componentType": 5126,
            "count": 4116,
            "type": "VEC3",
            "max": [
                6.66867,
                10.9398,
                0.378866
            ],
            "min": [
                -6.6445,
                9.7177,
                -0.379544
            ]
        },
        {
            "bufferView": 1,
            "componentType": 5126,
            "count": 4116,
            "type": "VEC3",
            "max": [
                1,
                1,
                1
            ],
            "min": [
                -1,
                -1,
                -1
            ]
        },
        {
            "bufferView": 2,
            "componentType": 5126,
            "count": 4116,
            "type": "VEC2",
            "max": [
                1.00012,
                0.692257
            ],
            "min": [
                0.00101048,
                0.103607
            ]
        },
        {
            "bufferView": 3,
            "componentType": 5125,
            "count": 4320,
            "type": "SCALAR",
            "max": [
                4115
            ],
            "min": [
                0
            ]
        }
    ],
    "images": [
        {
            "uri": "../textures/1op4.3_.jpg"
        }
    ],
    "samplers": [
        {
            "magFilter": 9729,
            "minFilter": 9987,
            "wrapS": 10497,
            "wrapT": 10497
        }
    ],
    "textures": [
        {
            "sampler": 0,
            "source": 0
        }
    ],
    "materials": [
        {
            "pbrMetallicRoughness": {
                "baseColorTexture": {
                    "index": 0,
                    "texCoord": 0
                }
            }
        }
    ],
    "meshes": [
        {
            "primitives": [
                {
                    "attributes": {
                        "POSITION": 0,
                        "NORMAL": 1,
                        "TEXCOORD_0": 2
                    },
                    "indices": 3,
                    "material": 0,
                    "mode": 4
                }
            ]
        }
    ],
    "nodes": [
        {
            "mesh": 0
        }
    ],
    "scenes": [
        {
            "nodes": [ 0 ]
        }
    ],
    "scene": 0
}
