{
    "asset": {
        "version": "2.0"
    },
    "buffers": [
        {
            "uri": "bin/1r_100mPros1.bin",
            "byteLength": 600
        }
    ],
    "bufferViews": [
        {
            "buffer": 0,
            "byteOffset": 0,
            "byteLength": 144,
            "target": 34962
        },
        {
            "buffer": 0,
            "byteOffset": 144,
            "byteLength": 144,
            "target": 34962
        },
        {
            "buffer": 0,
            "byteOffset": 288,
            "byteLength": 96,
            "target": 34962
        },
        {
            "buffer": 0,
            "byteOffset": 384,
            "byteLength": 216,
            "target": 34963
        }
    ],
    "accessors": [
        {
            "bufferView": 0,
            "componentType": 5126,
            "count": 12,
            "type": "VEC3",
            "max": [
                4.67917,
                1,
                2.48423
            ],
            "min": [
                -4.67917,
                -1.01092,
                -102.48
            ]
        },
        {
            "bufferView": 1,
            "componentType": 5126,
            "count": 12,
            "type": "VEC3",
            "max": [
                0.683291,
                0.974705,
                0.862285
            ],
            "min": [
                -0.370995,
                0.506424,
                -0.86225
            ]
        },
        {
            "bufferView": 2,
            "componentType": 5126,
            "count": 12,
            "type": "VEC2",
            "max": [
                0.734877,
                0.99869
            ],
            "min": [
                0.53246,
                -2.29103
            ]
        },
        {
            "bufferView": 3,
            "componentType": 5125,
            "count": 54,
            "type": "SCALAR",
            "max": [
                11
            ],
            "min": [
                0
            ]
        }
    ],
    "images": [
        {
            "uri": "../textures/RoadSections.bmp"
        }
    ],
    "samplers": [
        {
            "magFilter": 9729,
            "minFilter": 9987,
            "wrapS": 10497,
            "wrapT": 10497
        }
    ],
    "textures": [
        {
            "sampler": 0,
            "source": 0
        }
    ],
    "materials": [
        {
            "pbrMetallicRoughness": {
                "baseColorTexture": {
                    "index": 0,
                    "texCoord": 0
                }
            }
        }
    ],
    "meshes": [
        {
            "primitives": [
                {
                    "attributes": {
                        "POSITION": 0,
                        "NORMAL": 1,
                        "TEXCOORD_0": 2
                    },
                    "indices": 3,
                    "material": 0,
                    "mode": 4
                }
            ]
        }
    ],
    "nodes": [
        {
            "mesh": 0
        }
    ],
    "scenes": [
        {
            "nodes": [ 0 ]
        }
    ],
    "scene": 0
}
