{
    "asset": {
        "version": "2.0"
    },
    "buffers": [
        {
            "uri": "bin/1track_s_4.bin",
            "byteLength": 38072
        }
    ],
    "bufferViews": [
        {
            "buffer": 0,
            "byteOffset": 0,
            "byteLength": 11280,
            "target": 34962
        },
        {
            "buffer": 0,
            "byteOffset": 11280,
            "byteLength": 11280,
            "target": 34962
        },
        {
            "buffer": 0,
            "byteOffset": 22560,
            "byteLength": 7520,
            "target": 34962
        },
        {
            "buffer": 0,
            "byteOffset": 30080,
            "byteLength": 7992,
            "target": 34963
        }
    ],
    "accessors": [
        {
            "bufferView": 0,
            "componentType": 5126,
            "count": 940,
            "type": "VEC3",
            "max": [
                1.35,
                0.311741,
                -8.05017e-05
            ],
            "min": [
                -1.35,
                -0.06782,
                -5.00001
            ]
        },
        {
            "bufferView": 1,
            "componentType": 5126,
            "count": 940,
            "type": "VEC3",
            "max": [
                1,
                0.999028,
                1
            ],
            "min": [
                -1,
                -0.912556,
                -1
            ]
        },
        {
            "bufferView": 2,
            "componentType": 5126,
            "count": 940,
            "type": "VEC2",
            "max": [
                0.960324,
                0.971098
            ],
            "min": [
                0.200713,
                6.59986e-05
            ]
        },
        {
            "bufferView": 3,
            "componentType": 5125,
            "count": 1998,
            "type": "SCALAR",
            "max": [
                939
            ],
            "min": [
                0
            ]
        }
    ],
    "images": [
        {
            "uri": "../textures/TBB_Rails.tga"
        }
    ],
    "samplers": [
        {
            "magFilter": 9729,
            "minFilter": 9987,
            "wrapS": 10497,
            "wrapT": 10497
        }
    ],
    "textures": [
        {
            "sampler": 0,
            "source": 0
        }
    ],
    "materials": [
        {
            "pbrMetallicRoughness": {
                "baseColorTexture": {
                    "index": 0,
                    "texCoord": 0
                }
            },
            "alphaMode": "BLEND"
        }
    ],
    "meshes": [
        {
            "primitives": [
                {
                    "attributes": {
                        "POSITION": 0,
                        "NORMAL": 1,
                        "TEXCOORD_0": 2
                    },
                    "indices": 3,
                    "material": 0,
                    "mode": 4
                }
            ]
        }
    ],
    "nodes": [
        {
            "mesh": 0
        }
    ],
    "scenes": [
        {
            "nodes": [ 0 ]
        }
    ],
    "scene": 0
}
