{
    "asset": {
        "version": "2.0"
    },
    "buffers": [
        {
            "uri": "bin/1track_90_der_TSM.bin",
            "byteLength": 400464
        }
    ],
    "bufferViews": [
        {
            "buffer": 0,
            "byteOffset": 0,
            "byteLength": 117144,
            "target": 34962
        },
        {
            "buffer": 0,
            "byteOffset": 117144,
            "byteLength": 117144,
            "target": 34962
        },
        {
            "buffer": 0,
            "byteOffset": 234288,
            "byteLength": 78096,
            "target": 34962
        },
        {
            "buffer": 0,
            "byteOffset": 312384,
            "byteLength": 88080,
            "target": 34963
        }
    ],
    "accessors": [
        {
            "bufferView": 0,
            "componentType": 5126,
            "count": 9762,
            "type": "VEC3",
            "max": [
                3.40664,
                0.311741,
                0.400015
            ],
            "min": [
                -3.29512,
                -0.332085,
                -90.4
            ]
        },
        {
            "bufferView": 1,
            "componentType": 5126,
            "count": 9762,
            "type": "VEC3",
            "max": [
                1,
                0.999961,
                1
            ],
            "min": [
                -1,
                -0.912556,
                -1
            ]
        },
        {
            "bufferView": 2,
            "componentType": 5126,
            "count": 9762,
            "type": "VEC2",
            "max": [
                0.997101,
                0.811293
            ],
            "min": [
                0.0010975,
                0
            ]
        },
        {
            "bufferView": 3,
            "componentType": 5125,
            "count": 22020,
            "type": "SCALAR",
            "max": [
                9761
            ],
            "min": [
                0
            ]
        }
    ],
    "images": [
        {
            "uri": "../textures/TBB_Rails.tga"
        }
    ],
    "samplers": [
        {
            "magFilter": 9729,
            "minFilter": 9987,
            "wrapS": 10497,
            "wrapT": 10497
        }
    ],
    "textures": [
        {
            "sampler": 0,
            "source": 0
        }
    ],
    "materials": [
        {
            "pbrMetallicRoughness": {
                "baseColorTexture": {
                    "index": 0,
                    "texCoord": 0
                }
            },
            "alphaMode": "BLEND"
        }
    ],
    "meshes": [
        {
            "primitives": [
                {
                    "attributes": {
                        "POSITION": 0,
                        "NORMAL": 1,
                        "TEXCOORD_0": 2
                    },
                    "indices": 3,
                    "material": 0,
                    "mode": 4
                }
            ]
        }
    ],
    "nodes": [
        {
            "mesh": 0
        }
    ],
    "scenes": [
        {
            "nodes": [ 0 ]
        }
    ],
    "scene": 0
}
