{
    "asset": {
        "version": "2.0"
    },
    "buffers": [
        {
            "uri": "bin/grass3r.bin",
            "byteLength": 13680
        }
    ],
    "bufferViews": [
        {
            "buffer": 0,
            "byteOffset": 0,
            "byteLength": 4320,
            "target": 34962
        },
        {
            "buffer": 0,
            "byteOffset": 4320,
            "byteLength": 4320,
            "target": 34962
        },
        {
            "buffer": 0,
            "byteOffset": 8640,
            "byteLength": 2880,
            "target": 34962
        },
        {
            "buffer": 0,
            "byteOffset": 11520,
            "byteLength": 2160,
            "target": 34963
        }
    ],
    "accessors": [
        {
            "bufferView": 0,
            "componentType": 5126,
            "count": 360,
            "type": "VEC3",
            "max": [
                20.8233,
                1.5,
                2.03956
            ],
            "min": [
                0.425554,
                -2.38419e-07,
                -103.22
            ]
        },
        {
            "bufferView": 1,
            "componentType": 5126,
            "count": 360,
            "type": "VEC3",
            "max": [
                -0.707103,
                6.67572e-06,
                0.707111
            ],
            "min": [
                -1,
                -6.68764e-06,
                -0.707111
            ]
        },
        {
            "bufferView": 2,
            "componentType": 5126,
            "count": 360,
            "type": "VEC2",
            "max": [
                1.99838,
                0.992754
            ],
            "min": [
                -0.997672,
                0.180064
            ]
        },
        {
            "bufferView": 3,
            "componentType": 5125,
            "count": 540,
            "type": "SCALAR",
            "max": [
                359
            ],
            "min": [
                0
            ]
        }
    ],
    "images": [
        {
            "uri": "../textures/grass2.tga"
        }
    ],
    "samplers": [
        {
            "magFilter": 9729,
            "minFilter": 9987,
            "wrapS": 10497,
            "wrapT": 10497
        }
    ],
    "textures": [
        {
            "sampler": 0,
            "source": 0
        }
    ],
    "materials": [
        {
            "pbrMetallicRoughness": {
                "baseColorTexture": {
                    "index": 0,
                    "texCoord": 0
                }
            },
            "alphaMode": "BLEND"
        }
    ],
    "meshes": [
        {
            "primitives": [
                {
                    "attributes": {
                        "POSITION": 0,
                        "NORMAL": 1,
                        "TEXCOORD_0": 2
                    },
                    "indices": 3,
                    "material": 0,
                    "mode": 4
                }
            ]
        }
    ],
    "nodes": [
        {
            "mesh": 0
        }
    ],
    "scenes": [
        {
            "nodes": [ 0 ]
        }
    ],
    "scene": 0
}
