{
    "asset": {
        "version": "2.0"
    },
    "buffers": [
        {
            "uri": "bin/izol_pram.bin",
            "byteLength": 19032
        }
    ],
    "bufferViews": [
        {
            "buffer": 0,
            "byteOffset": 0,
            "byteLength": 5616,
            "target": 34962
        },
        {
            "buffer": 0,
            "byteOffset": 5616,
            "byteLength": 5616,
            "target": 34962
        },
        {
            "buffer": 0,
            "byteOffset": 11232,
            "byteLength": 3744,
            "target": 34962
        },
        {
            "buffer": 0,
            "byteOffset": 14976,
            "byteLength": 4056,
            "target": 34963
        }
    ],
    "accessors": [
        {
            "bufferView": 0,
            "componentType": 5126,
            "count": 468,
            "type": "VEC3",
            "max": [
                1.54663,
                8.87103,
                0.133653
            ],
            "min": [
                -0.419385,
                6.49234,
                -0.135087
            ]
        },
        {
            "bufferView": 1,
            "componentType": 5126,
            "count": 468,
            "type": "VEC3",
            "max": [
                1,
                1,
                1
            ],
            "min": [
                -1,
                -0.999959,
                -1
            ]
        },
        {
            "bufferView": 2,
            "componentType": 5126,
            "count": 468,
            "type": "VEC2",
            "max": [
                0.997783,
                0.8647
            ],
            "min": [
                0.0726362,
                0.479644
            ]
        },
        {
            "bufferView": 3,
            "componentType": 5125,
            "count": 1014,
            "type": "SCALAR",
            "max": [
                467
            ],
            "min": [
                0
            ]
        }
    ],
    "images": [
        {
            "uri": "../textures/KontSet_1.tga"
        }
    ],
    "samplers": [
        {
            "magFilter": 9729,
            "minFilter": 9987,
            "wrapS": 10497,
            "wrapT": 10497
        }
    ],
    "textures": [
        {
            "sampler": 0,
            "source": 0
        }
    ],
    "materials": [
        {
            "pbrMetallicRoughness": {
                "baseColorTexture": {
                    "index": 0,
                    "texCoord": 0
                }
            },
            "alphaMode": "BLEND"
        }
    ],
    "meshes": [
        {
            "primitives": [
                {
                    "attributes": {
                        "POSITION": 0,
                        "NORMAL": 1,
                        "TEXCOORD_0": 2
                    },
                    "indices": 3,
                    "material": 0,
                    "mode": 4
                }
            ]
        }
    ],
    "nodes": [
        {
            "mesh": 0
        }
    ],
    "scenes": [
        {
            "nodes": [ 0 ]
        }
    ],
    "scene": 0
}
