{
    "asset": {
        "version": "2.0"
    },
    "buffers": [
        {
            "uri": "bin/KP30m_back.bin",
            "byteLength": 68680
        }
    ],
    "bufferViews": [
        {
            "buffer": 0,
            "byteOffset": 0,
            "byteLength": 20184,
            "target": 34962
        },
        {
            "buffer": 0,
            "byteOffset": 20184,
            "byteLength": 20184,
            "target": 34962
        },
        {
            "buffer": 0,
            "byteOffset": 40368,
            "byteLength": 13456,
            "target": 34962
        },
        {
            "buffer": 0,
            "byteOffset": 53824,
            "byteLength": 14856,
            "target": 34963
        }
    ],
    "accessors": [
        {
            "bufferView": 0,
            "componentType": 5126,
            "count": 1682,
            "type": "VEC3",
            "max": [
                0.399503,
                9.52933,
                35.3488
            ],
            "min": [
                -0.705082,
                -3.22001,
                -0.00518434
            ]
        },
        {
            "bufferView": 1,
            "componentType": 5126,
            "count": 1682,
            "type": "VEC3",
            "max": [
                1,
                1,
                1
            ],
            "min": [
                -1,
                -1,
                -1
            ]
        },
        {
            "bufferView": 2,
            "componentType": 5126,
            "count": 1682,
            "type": "VEC2",
            "max": [
                0.999579,
                0.864454
            ],
            "min": [
                0.000663955,
                0.000706188
            ]
        },
        {
            "bufferView": 3,
            "componentType": 5125,
            "count": 3714,
            "type": "SCALAR",
            "max": [
                1681
            ],
            "min": [
                0
            ]
        }
    ],
    "images": [
        {
            "uri": "../textures/KontSet_1.tga"
        }
    ],
    "samplers": [
        {
            "magFilter": 9729,
            "minFilter": 9987,
            "wrapS": 10497,
            "wrapT": 10497
        }
    ],
    "textures": [
        {
            "sampler": 0,
            "source": 0
        }
    ],
    "materials": [
        {
            "pbrMetallicRoughness": {
                "baseColorTexture": {
                    "index": 0,
                    "texCoord": 0
                }
            },
            "alphaMode": "BLEND"
        }
    ],
    "meshes": [
        {
            "primitives": [
                {
                    "attributes": {
                        "POSITION": 0,
                        "NORMAL": 1,
                        "TEXCOORD_0": 2
                    },
                    "indices": 3,
                    "material": 0,
                    "mode": 4
                }
            ]
        }
    ],
    "nodes": [
        {
            "mesh": 0
        }
    ],
    "scenes": [
        {
            "nodes": [ 0 ]
        }
    ],
    "scene": 0
}
