{
    "asset": {
        "version": "2.0"
    },
    "buffers": [
        {
            "uri": "bin/KPt_back.bin",
            "byteLength": 58808
        }
    ],
    "bufferViews": [
        {
            "buffer": 0,
            "byteOffset": 0,
            "byteLength": 17400,
            "target": 34962
        },
        {
            "buffer": 0,
            "byteOffset": 17400,
            "byteLength": 17400,
            "target": 34962
        },
        {
            "buffer": 0,
            "byteOffset": 34800,
            "byteLength": 11600,
            "target": 34962
        },
        {
            "buffer": 0,
            "byteOffset": 46400,
            "byteLength": 12408,
            "target": 34963
        }
    ],
    "accessors": [
        {
            "bufferView": 0,
            "componentType": 5126,
            "count": 1450,
            "type": "VEC3",
            "max": [
                0.54069,
                9.52933,
                57.7711
            ],
            "min": [
                -0.557139,
                -3.22001,
                -0.00518417
            ]
        },
        {
            "bufferView": 1,
            "componentType": 5126,
            "count": 1450,
            "type": "VEC3",
            "max": [
                1,
                1,
                1
            ],
            "min": [
                -1,
                -1,
                -1
            ]
        },
        {
            "bufferView": 2,
            "componentType": 5126,
            "count": 1450,
            "type": "VEC2",
            "max": [
                0.999282,
                0.864934
            ],
            "min": [
                0.0012013,
                0.00100137
            ]
        },
        {
            "bufferView": 3,
            "componentType": 5125,
            "count": 3102,
            "type": "SCALAR",
            "max": [
                1449
            ],
            "min": [
                0
            ]
        }
    ],
    "images": [
        {
            "uri": "../textures/KontSet_1.tga"
        }
    ],
    "samplers": [
        {
            "magFilter": 9729,
            "minFilter": 9987,
            "wrapS": 10497,
            "wrapT": 10497
        }
    ],
    "textures": [
        {
            "sampler": 0,
            "source": 0
        }
    ],
    "materials": [
        {
            "pbrMetallicRoughness": {
                "baseColorTexture": {
                    "index": 0,
                    "texCoord": 0
                }
            },
            "alphaMode": "BLEND"
        }
    ],
    "meshes": [
        {
            "primitives": [
                {
                    "attributes": {
                        "POSITION": 0,
                        "NORMAL": 1,
                        "TEXCOORD_0": 2
                    },
                    "indices": 3,
                    "material": 0,
                    "mode": 4
                }
            ]
        }
    ],
    "nodes": [
        {
            "mesh": 0
        }
    ],
    "scenes": [
        {
            "nodes": [ 0 ]
        }
    ],
    "scene": 0
}
