{
    "asset": {
        "version": "2.0"
    },
    "buffers": [
        {
            "uri": "bin/KZDM_arka_127m.bin",
            "byteLength": 3139688
        }
    ],
    "bufferViews": [
        {
            "buffer": 0,
            "byteOffset": 0,
            "byteLength": 1014888,
            "target": 34962
        },
        {
            "buffer": 0,
            "byteOffset": 1014888,
            "byteLength": 1014888,
            "target": 34962
        },
        {
            "buffer": 0,
            "byteOffset": 2029776,
            "byteLength": 676592,
            "target": 34962
        },
        {
            "buffer": 0,
            "byteOffset": 2706368,
            "byteLength": 433320,
            "target": 34963
        }
    ],
    "accessors": [
        {
            "bufferView": 0,
            "componentType": 5126,
            "count": 84574,
            "type": "VEC3",
            "max": [
                3.78542,
                23.8857,
                0.00462341
            ],
            "min": [
                -3.78542,
                -3.73627,
                -128.004
            ]
        },
        {
            "bufferView": 1,
            "componentType": 5126,
            "count": 84574,
            "type": "VEC3",
            "max": [
                1,
                1,
                1
            ],
            "min": [
                -1,
                -1,
                -1
            ]
        },
        {
            "bufferView": 2,
            "componentType": 5126,
            "count": 84574,
            "type": "VEC2",
            "max": [
                1,
                1
            ],
            "min": [
                0,
                0
            ]
        },
        {
            "bufferView": 3,
            "componentType": 5125,
            "count": 108330,
            "type": "SCALAR",
            "max": [
                84573
            ],
            "min": [
                0
            ]
        }
    ],
    "images": [
        {
            "uri": "../textures/KZDM_arka_127m.jpg"
        }
    ],
    "samplers": [
        {
            "magFilter": 9729,
            "minFilter": 9987,
            "wrapS": 10497,
            "wrapT": 10497
        }
    ],
    "textures": [
        {
            "sampler": 0,
            "source": 0
        }
    ],
    "materials": [
        {
            "pbrMetallicRoughness": {
                "baseColorTexture": {
                    "index": 0,
                    "texCoord": 0
                }
            }
        }
    ],
    "meshes": [
        {
            "primitives": [
                {
                    "attributes": {
                        "POSITION": 0,
                        "NORMAL": 1,
                        "TEXCOORD_0": 2
                    },
                    "indices": 3,
                    "material": 0,
                    "mode": 4
                }
            ]
        }
    ],
    "nodes": [
        {
            "mesh": 0
        }
    ],
    "scenes": [
        {
            "nodes": [ 0 ]
        }
    ],
    "scene": 0
}
