{
    "asset": {
        "version": "2.0"
    },
    "buffers": [
        {
            "uri": "bin/LEP10kV_T_50m.bin",
            "byteLength": 10032
        }
    ],
    "bufferViews": [
        {
            "buffer": 0,
            "byteOffset": 0,
            "byteLength": 2952,
            "target": 34962
        },
        {
            "buffer": 0,
            "byteOffset": 2952,
            "byteLength": 2952,
            "target": 34962
        },
        {
            "buffer": 0,
            "byteOffset": 5904,
            "byteLength": 1968,
            "target": 34962
        },
        {
            "buffer": 0,
            "byteOffset": 7872,
            "byteLength": 2160,
            "target": 34963
        }
    ],
    "accessors": [
        {
            "bufferView": 0,
            "componentType": 5126,
            "count": 246,
            "type": "VEC3",
            "max": [
                0.852401,
                9.4288,
                0.289332
            ],
            "min": [
                -0.852401,
                -5.23492,
                -50.008
            ]
        },
        {
            "bufferView": 1,
            "componentType": 5126,
            "count": 246,
            "type": "VEC3",
            "max": [
                1,
                1,
                1
            ],
            "min": [
                -1,
                -1,
                -1
            ]
        },
        {
            "bufferView": 2,
            "componentType": 5126,
            "count": 246,
            "type": "VEC2",
            "max": [
                0.992866,
                0.999231
            ],
            "min": [
                0.213637,
                0.0385461
            ]
        },
        {
            "bufferView": 3,
            "componentType": 5125,
            "count": 540,
            "type": "SCALAR",
            "max": [
                245
            ],
            "min": [
                0
            ]
        }
    ],
    "images": [
        {
            "uri": "../textures/IMR_LEP.tga"
        }
    ],
    "samplers": [
        {
            "magFilter": 9729,
            "minFilter": 9987,
            "wrapS": 10497,
            "wrapT": 10497
        }
    ],
    "textures": [
        {
            "sampler": 0,
            "source": 0
        }
    ],
    "materials": [
        {
            "pbrMetallicRoughness": {
                "baseColorTexture": {
                    "index": 0,
                    "texCoord": 0
                }
            },
            "alphaMode": "BLEND"
        }
    ],
    "meshes": [
        {
            "primitives": [
                {
                    "attributes": {
                        "POSITION": 0,
                        "NORMAL": 1,
                        "TEXCOORD_0": 2
                    },
                    "indices": 3,
                    "material": 0,
                    "mode": 4
                }
            ]
        }
    ],
    "nodes": [
        {
            "mesh": 0
        }
    ],
    "scenes": [
        {
            "nodes": [ 0 ]
        }
    ],
    "scene": 0
}
