{
    "asset": {
        "version": "2.0"
    },
    "buffers": [
        {
            "uri": "bin/LEP50kV_2.bin",
            "byteLength": 15144
        }
    ],
    "bufferViews": [
        {
            "buffer": 0,
            "byteOffset": 0,
            "byteLength": 4536,
            "target": 34962
        },
        {
            "buffer": 0,
            "byteOffset": 4536,
            "byteLength": 4536,
            "target": 34962
        },
        {
            "buffer": 0,
            "byteOffset": 9072,
            "byteLength": 3024,
            "target": 34962
        },
        {
            "buffer": 0,
            "byteOffset": 12096,
            "byteLength": 3048,
            "target": 34963
        }
    ],
    "accessors": [
        {
            "bufferView": 0,
            "componentType": 5126,
            "count": 378,
            "type": "VEC3",
            "max": [
                2.25637,
                28.2259,
                0.347856
            ],
            "min": [
                -4.35143,
                -0.00883072,
                -100.007
            ]
        },
        {
            "bufferView": 1,
            "componentType": 5126,
            "count": 378,
            "type": "VEC3",
            "max": [
                0.999954,
                0.948045,
                1
            ],
            "min": [
                -0.999331,
                -1,
                -1
            ]
        },
        {
            "bufferView": 2,
            "componentType": 5126,
            "count": 378,
            "type": "VEC2",
            "max": [
                0.999615,
                0.999752
            ],
            "min": [
                0.212874,
                0.000498481
            ]
        },
        {
            "bufferView": 3,
            "componentType": 5125,
            "count": 762,
            "type": "SCALAR",
            "max": [
                377
            ],
            "min": [
                0
            ]
        }
    ],
    "images": [
        {
            "uri": "../textures/IMR_LEP.tga"
        }
    ],
    "samplers": [
        {
            "magFilter": 9729,
            "minFilter": 9987,
            "wrapS": 10497,
            "wrapT": 10497
        }
    ],
    "textures": [
        {
            "sampler": 0,
            "source": 0
        }
    ],
    "materials": [
        {
            "pbrMetallicRoughness": {
                "baseColorTexture": {
                    "index": 0,
                    "texCoord": 0
                }
            },
            "alphaMode": "BLEND"
        }
    ],
    "meshes": [
        {
            "primitives": [
                {
                    "attributes": {
                        "POSITION": 0,
                        "NORMAL": 1,
                        "TEXCOORD_0": 2
                    },
                    "indices": 3,
                    "material": 0,
                    "mode": 4
                }
            ]
        }
    ],
    "nodes": [
        {
            "mesh": 0
        }
    ],
    "scenes": [
        {
            "nodes": [ 0 ]
        }
    ],
    "scene": 0
}
