{
    "asset": {
        "version": "2.0"
    },
    "buffers": [
        {
            "uri": "bin/opk1l6k.bin",
            "byteLength": 19552
        }
    ],
    "bufferViews": [
        {
            "buffer": 0,
            "byteOffset": 0,
            "byteLength": 5820,
            "target": 34962
        },
        {
            "buffer": 0,
            "byteOffset": 5820,
            "byteLength": 5820,
            "target": 34962
        },
        {
            "buffer": 0,
            "byteOffset": 11640,
            "byteLength": 3880,
            "target": 34962
        },
        {
            "buffer": 0,
            "byteOffset": 15520,
            "byteLength": 4032,
            "target": 34963
        }
    ],
    "accessors": [
        {
            "bufferView": 0,
            "componentType": 5126,
            "count": 485,
            "type": "VEC3",
            "max": [
                1.69173,
                9.33502,
                0.340809
            ],
            "min": [
                -6.10273,
                -2.42849,
                -0.329189
            ]
        },
        {
            "bufferView": 1,
            "componentType": 5126,
            "count": 485,
            "type": "VEC3",
            "max": [
                1,
                1,
                1
            ],
            "min": [
                -1,
                -1,
                -1
            ]
        },
        {
            "bufferView": 2,
            "componentType": 5126,
            "count": 485,
            "type": "VEC2",
            "max": [
                0.998,
                0.864238
            ],
            "min": [
                7.08508e-05,
                6.49497e-05
            ]
        },
        {
            "bufferView": 3,
            "componentType": 5125,
            "count": 1008,
            "type": "SCALAR",
            "max": [
                484
            ],
            "min": [
                0
            ]
        }
    ],
    "images": [
        {
            "uri": "../textures/KontSet_1.tga"
        }
    ],
    "samplers": [
        {
            "magFilter": 9729,
            "minFilter": 9987,
            "wrapS": 10497,
            "wrapT": 10497
        }
    ],
    "textures": [
        {
            "sampler": 0,
            "source": 0
        }
    ],
    "materials": [
        {
            "pbrMetallicRoughness": {
                "baseColorTexture": {
                    "index": 0,
                    "texCoord": 0
                }
            },
            "alphaMode": "BLEND"
        }
    ],
    "meshes": [
        {
            "primitives": [
                {
                    "attributes": {
                        "POSITION": 0,
                        "NORMAL": 1,
                        "TEXCOORD_0": 2
                    },
                    "indices": 3,
                    "material": 0,
                    "mode": 4
                }
            ]
        }
    ],
    "nodes": [
        {
            "mesh": 0
        }
    ],
    "scenes": [
        {
            "nodes": [ 0 ]
        }
    ],
    "scene": 0
}
