{
    "asset": {
        "version": "2.0"
    },
    "buffers": [
        {
            "uri": "bin/opk1l3.bin",
            "byteLength": 12848
        }
    ],
    "bufferViews": [
        {
            "buffer": 0,
            "byteOffset": 0,
            "byteLength": 3864,
            "target": 34962
        },
        {
            "buffer": 0,
            "byteOffset": 3864,
            "byteLength": 3864,
            "target": 34962
        },
        {
            "buffer": 0,
            "byteOffset": 7728,
            "byteLength": 2576,
            "target": 34962
        },
        {
            "buffer": 0,
            "byteOffset": 10304,
            "byteLength": 2544,
            "target": 34963
        }
    ],
    "accessors": [
        {
            "bufferView": 0,
            "componentType": 5126,
            "count": 322,
            "type": "VEC3",
            "max": [
                1.59574,
                11.3863,
                0.3362
            ],
            "min": [
                -6.1307,
                -3,
                -0.3338
            ]
        },
        {
            "bufferView": 1,
            "componentType": 5126,
            "count": 322,
            "type": "VEC3",
            "max": [
                1,
                1,
                1
            ],
            "min": [
                -1,
                -1,
                -1
            ]
        },
        {
            "bufferView": 2,
            "componentType": 5126,
            "count": 322,
            "type": "VEC2",
            "max": [
                0.3942,
                0.864
            ],
            "min": [
                0.0001,
                0.0001
            ]
        },
        {
            "bufferView": 3,
            "componentType": 5125,
            "count": 636,
            "type": "SCALAR",
            "max": [
                321
            ],
            "min": [
                0
            ]
        }
    ],
    "images": [
        {
            "uri": "../textures/KontSet_1.tga"
        }
    ],
    "samplers": [
        {
            "magFilter": 9729,
            "minFilter": 9987,
            "wrapS": 10497,
            "wrapT": 10497
        }
    ],
    "textures": [
        {
            "sampler": 0,
            "source": 0
        }
    ],
    "materials": [
        {
            "pbrMetallicRoughness": {
                "baseColorTexture": {
                    "index": 0,
                    "texCoord": 0
                }
            },
            "alphaMode": "BLEND"
        }
    ],
    "meshes": [
        {
            "primitives": [
                {
                    "attributes": {
                        "POSITION": 0,
                        "NORMAL": 1,
                        "TEXCOORD_0": 2
                    },
                    "indices": 3,
                    "material": 0,
                    "mode": 4
                }
            ]
        }
    ],
    "nodes": [
        {
            "mesh": 0
        }
    ],
    "scenes": [
        {
            "nodes": [ 0 ]
        }
    ],
    "scene": 0
}
