{
    "asset": {
        "version": "2.0"
    },
    "buffers": [
        {
            "uri": "bin/opk1r6k.bin",
            "byteLength": 18248
        }
    ],
    "bufferViews": [
        {
            "buffer": 0,
            "byteOffset": 0,
            "byteLength": 5412,
            "target": 34962
        },
        {
            "buffer": 0,
            "byteOffset": 5412,
            "byteLength": 5412,
            "target": 34962
        },
        {
            "buffer": 0,
            "byteOffset": 10824,
            "byteLength": 3608,
            "target": 34962
        },
        {
            "buffer": 0,
            "byteOffset": 14432,
            "byteLength": 3816,
            "target": 34963
        }
    ],
    "accessors": [
        {
            "bufferView": 0,
            "componentType": 5126,
            "count": 451,
            "type": "VEC3",
            "max": [
                6.10272,
                9.34958,
                0.329645
            ],
            "min": [
                -0.497572,
                -2.42849,
                -0.340355
            ]
        },
        {
            "bufferView": 1,
            "componentType": 5126,
            "count": 451,
            "type": "VEC3",
            "max": [
                1,
                1,
                1
            ],
            "min": [
                -1,
                -1,
                -1
            ]
        },
        {
            "bufferView": 2,
            "componentType": 5126,
            "count": 451,
            "type": "VEC2",
            "max": [
                0.998,
                0.864238
            ],
            "min": [
                0.00177704,
                0.000936835
            ]
        },
        {
            "bufferView": 3,
            "componentType": 5125,
            "count": 954,
            "type": "SCALAR",
            "max": [
                450
            ],
            "min": [
                0
            ]
        }
    ],
    "images": [
        {
            "uri": "../textures/KontSet_1.tga"
        }
    ],
    "samplers": [
        {
            "magFilter": 9729,
            "minFilter": 9987,
            "wrapS": 10497,
            "wrapT": 10497
        }
    ],
    "textures": [
        {
            "sampler": 0,
            "source": 0
        }
    ],
    "materials": [
        {
            "pbrMetallicRoughness": {
                "baseColorTexture": {
                    "index": 0,
                    "texCoord": 0
                }
            },
            "alphaMode": "BLEND"
        }
    ],
    "meshes": [
        {
            "primitives": [
                {
                    "attributes": {
                        "POSITION": 0,
                        "NORMAL": 1,
                        "TEXCOORD_0": 2
                    },
                    "indices": 3,
                    "material": 0,
                    "mode": 4
                }
            ]
        }
    ],
    "nodes": [
        {
            "mesh": 0
        }
    ],
    "scenes": [
        {
            "nodes": [ 0 ]
        }
    ],
    "scene": 0
}
