{
    "asset": {
        "version": "2.0"
    },
    "buffers": [
        {
            "uri": "bin/opk_anker_ntL.bin",
            "byteLength": 153552
        }
    ],
    "bufferViews": [
        {
            "buffer": 0,
            "byteOffset": 0,
            "byteLength": 45936,
            "target": 34962
        },
        {
            "buffer": 0,
            "byteOffset": 45936,
            "byteLength": 45936,
            "target": 34962
        },
        {
            "buffer": 0,
            "byteOffset": 91872,
            "byteLength": 30624,
            "target": 34962
        },
        {
            "buffer": 0,
            "byteOffset": 122496,
            "byteLength": 31056,
            "target": 34963
        }
    ],
    "accessors": [
        {
            "bufferView": 0,
            "componentType": 5126,
            "count": 3828,
            "type": "VEC3",
            "max": [
                1.8353,
                9.52933,
                5.68645
            ],
            "min": [
                -4.77837,
                -3.22001,
                -105.674
            ]
        },
        {
            "bufferView": 1,
            "componentType": 5126,
            "count": 3828,
            "type": "VEC3",
            "max": [
                1,
                1,
                1
            ],
            "min": [
                -1,
                -1,
                -1
            ]
        },
        {
            "bufferView": 2,
            "componentType": 5126,
            "count": 3828,
            "type": "VEC2",
            "max": [
                0.999579,
                0.8647
            ],
            "min": [
                0.000663955,
                0.000706188
            ]
        },
        {
            "bufferView": 3,
            "componentType": 5125,
            "count": 7764,
            "type": "SCALAR",
            "max": [
                3827
            ],
            "min": [
                0
            ]
        }
    ],
    "images": [
        {
            "uri": "../textures/KontSet_1.tga"
        }
    ],
    "samplers": [
        {
            "magFilter": 9729,
            "minFilter": 9987,
            "wrapS": 10497,
            "wrapT": 10497
        }
    ],
    "textures": [
        {
            "sampler": 0,
            "source": 0
        }
    ],
    "materials": [
        {
            "pbrMetallicRoughness": {
                "baseColorTexture": {
                    "index": 0,
                    "texCoord": 0
                }
            },
            "alphaMode": "BLEND"
        }
    ],
    "meshes": [
        {
            "primitives": [
                {
                    "attributes": {
                        "POSITION": 0,
                        "NORMAL": 1,
                        "TEXCOORD_0": 2
                    },
                    "indices": 3,
                    "material": 0,
                    "mode": 4
                }
            ]
        }
    ],
    "nodes": [
        {
            "mesh": 0
        }
    ],
    "scenes": [
        {
            "nodes": [ 0 ]
        }
    ],
    "scene": 0
}
