{
    "asset": {
        "version": "2.0"
    },
    "buffers": [
        {
            "uri": "bin/opk_ankerR1_.bin",
            "byteLength": 6992
        }
    ],
    "bufferViews": [
        {
            "buffer": 0,
            "byteOffset": 0,
            "byteLength": 2208,
            "target": 34962
        },
        {
            "buffer": 0,
            "byteOffset": 2208,
            "byteLength": 2208,
            "target": 34962
        },
        {
            "buffer": 0,
            "byteOffset": 4416,
            "byteLength": 1472,
            "target": 34962
        },
        {
            "buffer": 0,
            "byteOffset": 5888,
            "byteLength": 1104,
            "target": 34963
        }
    ],
    "accessors": [
        {
            "bufferView": 0,
            "componentType": 5126,
            "count": 184,
            "type": "VEC3",
            "max": [
                4.14304,
                10.0267,
                0.300003
            ],
            "min": [
                3.55801,
                -2.78142,
                -50.3
            ]
        },
        {
            "bufferView": 1,
            "componentType": 5126,
            "count": 184,
            "type": "VEC3",
            "max": [
                1,
                1,
                1
            ],
            "min": [
                -1,
                -1,
                -1
            ]
        },
        {
            "bufferView": 2,
            "componentType": 5126,
            "count": 184,
            "type": "VEC2",
            "max": [
                0.982431,
                0.989555
            ],
            "min": [
                0.0052046,
                0.00303897
            ]
        },
        {
            "bufferView": 3,
            "componentType": 5125,
            "count": 276,
            "type": "SCALAR",
            "max": [
                183
            ],
            "min": [
                0
            ]
        }
    ],
    "images": [
        {
            "uri": "../textures/KontSet_2.tga"
        }
    ],
    "samplers": [
        {
            "magFilter": 9729,
            "minFilter": 9987,
            "wrapS": 10497,
            "wrapT": 10497
        }
    ],
    "textures": [
        {
            "sampler": 0,
            "source": 0
        }
    ],
    "materials": [
        {
            "pbrMetallicRoughness": {
                "baseColorTexture": {
                    "index": 0,
                    "texCoord": 0
                }
            },
            "alphaMode": "BLEND"
        }
    ],
    "meshes": [
        {
            "primitives": [
                {
                    "attributes": {
                        "POSITION": 0,
                        "NORMAL": 1,
                        "TEXCOORD_0": 2
                    },
                    "indices": 3,
                    "material": 0,
                    "mode": 4
                }
            ]
        }
    ],
    "nodes": [
        {
            "mesh": 0
        }
    ],
    "scenes": [
        {
            "nodes": [ 0 ]
        }
    ],
    "scene": 0
}
