{
    "asset": {
        "version": "2.0"
    },
    "buffers": [
        {
            "uri": "bin/opk_ankerL1.bin",
            "byteLength": 329136
        }
    ],
    "bufferViews": [
        {
            "buffer": 0,
            "byteOffset": 0,
            "byteLength": 98208,
            "target": 34962
        },
        {
            "buffer": 0,
            "byteOffset": 98208,
            "byteLength": 98208,
            "target": 34962
        },
        {
            "buffer": 0,
            "byteOffset": 196416,
            "byteLength": 65472,
            "target": 34962
        },
        {
            "buffer": 0,
            "byteOffset": 261888,
            "byteLength": 67248,
            "target": 34963
        }
    ],
    "accessors": [
        {
            "bufferView": 0,
            "componentType": 5126,
            "count": 8184,
            "type": "VEC3",
            "max": [
                1.8353,
                9.51079,
                57.8037
            ],
            "min": [
                -5.02234,
                -3.22001,
                -107.779
            ]
        },
        {
            "bufferView": 1,
            "componentType": 5126,
            "count": 8184,
            "type": "VEC3",
            "max": [
                1,
                1,
                1
            ],
            "min": [
                -1,
                -1,
                -1
            ]
        },
        {
            "bufferView": 2,
            "componentType": 5126,
            "count": 8184,
            "type": "VEC2",
            "max": [
                0.999579,
                0.8647
            ],
            "min": [
                0.00189118,
                0.00194014
            ]
        },
        {
            "bufferView": 3,
            "componentType": 5125,
            "count": 16812,
            "type": "SCALAR",
            "max": [
                8183
            ],
            "min": [
                0
            ]
        }
    ],
    "images": [
        {
            "uri": "../textures/KontSet_1.tga"
        }
    ],
    "samplers": [
        {
            "magFilter": 9729,
            "minFilter": 9987,
            "wrapS": 10497,
            "wrapT": 10497
        }
    ],
    "textures": [
        {
            "sampler": 0,
            "source": 0
        }
    ],
    "materials": [
        {
            "pbrMetallicRoughness": {
                "baseColorTexture": {
                    "index": 0,
                    "texCoord": 0
                }
            },
            "alphaMode": "BLEND"
        }
    ],
    "meshes": [
        {
            "primitives": [
                {
                    "attributes": {
                        "POSITION": 0,
                        "NORMAL": 1,
                        "TEXCOORD_0": 2
                    },
                    "indices": 3,
                    "material": 0,
                    "mode": 4
                }
            ]
        }
    ],
    "nodes": [
        {
            "mesh": 0
        }
    ],
    "scenes": [
        {
            "nodes": [ 0 ]
        }
    ],
    "scene": 0
}
