{
    "asset": {
        "version": "2.0"
    },
    "buffers": [
        {
            "uri": "bin/opk_ankerR.bin",
            "byteLength": 221016
        }
    ],
    "bufferViews": [
        {
            "buffer": 0,
            "byteOffset": 0,
            "byteLength": 68040,
            "target": 34962
        },
        {
            "buffer": 0,
            "byteOffset": 68040,
            "byteLength": 68040,
            "target": 34962
        },
        {
            "buffer": 0,
            "byteOffset": 136080,
            "byteLength": 45360,
            "target": 34962
        },
        {
            "buffer": 0,
            "byteOffset": 181440,
            "byteLength": 39576,
            "target": 34963
        }
    ],
    "accessors": [
        {
            "bufferView": 0,
            "componentType": 5126,
            "count": 5670,
            "type": "VEC3",
            "max": [
                5.02235,
                9.52681,
                58.1488
            ],
            "min": [
                -1.83538,
                -3.22001,
                -108.11
            ]
        },
        {
            "bufferView": 1,
            "componentType": 5126,
            "count": 5670,
            "type": "VEC3",
            "max": [
                1,
                1,
                1
            ],
            "min": [
                -1,
                -1,
                -1
            ]
        },
        {
            "bufferView": 2,
            "componentType": 5126,
            "count": 5670,
            "type": "VEC2",
            "max": [
                1.00341,
                0.86535
            ],
            "min": [
                7.08508e-05,
                -0.000144582
            ]
        },
        {
            "bufferView": 3,
            "componentType": 5125,
            "count": 9894,
            "type": "SCALAR",
            "max": [
                5669
            ],
            "min": [
                0
            ]
        }
    ],
    "images": [
        {
            "uri": "../textures/KontSet_1.tga"
        }
    ],
    "samplers": [
        {
            "magFilter": 9729,
            "minFilter": 9987,
            "wrapS": 10497,
            "wrapT": 10497
        }
    ],
    "textures": [
        {
            "sampler": 0,
            "source": 0
        }
    ],
    "materials": [
        {
            "pbrMetallicRoughness": {
                "baseColorTexture": {
                    "index": 0,
                    "texCoord": 0
                }
            },
            "alphaMode": "BLEND"
        }
    ],
    "meshes": [
        {
            "primitives": [
                {
                    "attributes": {
                        "POSITION": 0,
                        "NORMAL": 1,
                        "TEXCOORD_0": 2
                    },
                    "indices": 3,
                    "material": 0,
                    "mode": 4
                }
            ]
        }
    ],
    "nodes": [
        {
            "mesh": 0
        }
    ],
    "scenes": [
        {
            "nodes": [ 0 ]
        }
    ],
    "scene": 0
}
