{
    "asset": {
        "version": "2.0"
    },
    "buffers": [
        {
            "uri": "bin/opkr_m.bin",
            "byteLength": 390216
        }
    ],
    "bufferViews": [
        {
            "buffer": 0,
            "byteOffset": 0,
            "byteLength": 117180,
            "target": 34962
        },
        {
            "buffer": 0,
            "byteOffset": 117180,
            "byteLength": 117180,
            "target": 34962
        },
        {
            "buffer": 0,
            "byteOffset": 234360,
            "byteLength": 78120,
            "target": 34962
        },
        {
            "buffer": 0,
            "byteOffset": 312480,
            "byteLength": 77736,
            "target": 34963
        }
    ],
    "accessors": [
        {
            "bufferView": 0,
            "componentType": 5126,
            "count": 9765,
            "type": "VEC3",
            "max": [
                4.03094,
                9.91986,
                1.22875
            ],
            "min": [
                -1.68023,
                -3.66147,
                -100.006
            ]
        },
        {
            "bufferView": 1,
            "componentType": 5126,
            "count": 9765,
            "type": "VEC3",
            "max": [
                1,
                1,
                1
            ],
            "min": [
                -1,
                -1,
                -1
            ]
        },
        {
            "bufferView": 2,
            "componentType": 5126,
            "count": 9765,
            "type": "VEC2",
            "max": [
                0.975626,
                0.910406
            ],
            "min": [
                0.00354519,
                0.00636899
            ]
        },
        {
            "bufferView": 3,
            "componentType": 5125,
            "count": 19434,
            "type": "SCALAR",
            "max": [
                9764
            ],
            "min": [
                0
            ]
        }
    ],
    "images": [
        {
            "uri": "../textures/opk_m.jpg"
        }
    ],
    "samplers": [
        {
            "magFilter": 9729,
            "minFilter": 9987,
            "wrapS": 10497,
            "wrapT": 10497
        }
    ],
    "textures": [
        {
            "sampler": 0,
            "source": 0
        }
    ],
    "materials": [
        {
            "pbrMetallicRoughness": {
                "baseColorTexture": {
                    "index": 0,
                    "texCoord": 0
                }
            }
        }
    ],
    "meshes": [
        {
            "primitives": [
                {
                    "attributes": {
                        "POSITION": 0,
                        "NORMAL": 1,
                        "TEXCOORD_0": 2
                    },
                    "indices": 3,
                    "material": 0,
                    "mode": 4
                }
            ]
        }
    ],
    "nodes": [
        {
            "mesh": 0
        }
    ],
    "scenes": [
        {
            "nodes": [ 0 ]
        }
    ],
    "scene": 0
}
