{
    "asset": {
        "version": "2.0"
    },
    "buffers": [
        {
            "uri": "bin/opkr.bin",
            "byteLength": 47056
        }
    ],
    "bufferViews": [
        {
            "buffer": 0,
            "byteOffset": 0,
            "byteLength": 14352,
            "target": 34962
        },
        {
            "buffer": 0,
            "byteOffset": 14352,
            "byteLength": 14352,
            "target": 34962
        },
        {
            "buffer": 0,
            "byteOffset": 28704,
            "byteLength": 9568,
            "target": 34962
        },
        {
            "buffer": 0,
            "byteOffset": 38272,
            "byteLength": 8784,
            "target": 34963
        }
    ],
    "accessors": [
        {
            "bufferView": 0,
            "componentType": 5126,
            "count": 1196,
            "type": "VEC3",
            "max": [
                4.13068,
                9.52933,
                0.334283
            ],
            "min": [
                -1.8353,
                -3,
                -50.3362
            ]
        },
        {
            "bufferView": 1,
            "componentType": 5126,
            "count": 1196,
            "type": "VEC3",
            "max": [
                1,
                1,
                1
            ],
            "min": [
                -1,
                -1,
                -1
            ]
        },
        {
            "bufferView": 2,
            "componentType": 5126,
            "count": 1196,
            "type": "VEC2",
            "max": [
                0.25227,
                0.864238
            ],
            "min": [
                7.08508e-05,
                6.49497e-05
            ]
        },
        {
            "bufferView": 3,
            "componentType": 5125,
            "count": 2196,
            "type": "SCALAR",
            "max": [
                1195
            ],
            "min": [
                0
            ]
        }
    ],
    "images": [
        {
            "uri": "../textures/KontSet_4.tga"
        }
    ],
    "samplers": [
        {
            "magFilter": 9729,
            "minFilter": 9987,
            "wrapS": 10497,
            "wrapT": 10497
        }
    ],
    "textures": [
        {
            "sampler": 0,
            "source": 0
        }
    ],
    "materials": [
        {
            "pbrMetallicRoughness": {
                "baseColorTexture": {
                    "index": 0,
                    "texCoord": 0
                }
            },
            "alphaMode": "BLEND"
        }
    ],
    "meshes": [
        {
            "primitives": [
                {
                    "attributes": {
                        "POSITION": 0,
                        "NORMAL": 1,
                        "TEXCOORD_0": 2
                    },
                    "indices": 3,
                    "material": 0,
                    "mode": 4
                }
            ]
        }
    ],
    "nodes": [
        {
            "mesh": 0
        }
    ],
    "scenes": [
        {
            "nodes": [ 0 ]
        }
    ],
    "scene": 0
}
