{
    "asset": {
        "version": "2.0"
    },
    "buffers": [
        {
            "uri": "bin/opora2_kzdm.bin",
            "byteLength": 1872
        }
    ],
    "bufferViews": [
        {
            "buffer": 0,
            "byteOffset": 0,
            "byteLength": 576,
            "target": 34962
        },
        {
            "buffer": 0,
            "byteOffset": 576,
            "byteLength": 576,
            "target": 34962
        },
        {
            "buffer": 0,
            "byteOffset": 1152,
            "byteLength": 384,
            "target": 34962
        },
        {
            "buffer": 0,
            "byteOffset": 1536,
            "byteLength": 336,
            "target": 34963
        }
    ],
    "accessors": [
        {
            "bufferView": 0,
            "componentType": 5126,
            "count": 48,
            "type": "VEC3",
            "max": [
                6.83604,
                1.06745,
                1.96498
            ],
            "min": [
                -6.83604,
                -1.12782,
                -1.96498
            ]
        },
        {
            "bufferView": 1,
            "componentType": 5126,
            "count": 48,
            "type": "VEC3",
            "max": [
                1,
                1,
                1
            ],
            "min": [
                -1,
                -1,
                -1
            ]
        },
        {
            "bufferView": 2,
            "componentType": 5126,
            "count": 48,
            "type": "VEC2",
            "max": [
                0.998047,
                0.998047
            ],
            "min": [
                0.00195312,
                0.101164
            ]
        },
        {
            "bufferView": 3,
            "componentType": 5125,
            "count": 84,
            "type": "SCALAR",
            "max": [
                47
            ],
            "min": [
                0
            ]
        }
    ],
    "images": [
        {
            "uri": "../textures/jd_kolonny.jpg"
        }
    ],
    "samplers": [
        {
            "magFilter": 9729,
            "minFilter": 9987,
            "wrapS": 10497,
            "wrapT": 10497
        }
    ],
    "textures": [
        {
            "sampler": 0,
            "source": 0
        }
    ],
    "materials": [
        {
            "pbrMetallicRoughness": {
                "baseColorTexture": {
                    "index": 0,
                    "texCoord": 0
                }
            }
        }
    ],
    "meshes": [
        {
            "primitives": [
                {
                    "attributes": {
                        "POSITION": 0,
                        "NORMAL": 1,
                        "TEXCOORD_0": 2
                    },
                    "indices": 3,
                    "material": 0,
                    "mode": 4
                }
            ]
        }
    ],
    "nodes": [
        {
            "mesh": 0
        }
    ],
    "scenes": [
        {
            "nodes": [ 0 ]
        }
    ],
    "scene": 0
}
