{
    "asset": {
        "version": "2.0"
    },
    "buffers": [
        {
            "uri": "bin/opora1_kzdm.bin",
            "byteLength": 768
        }
    ],
    "bufferViews": [
        {
            "buffer": 0,
            "byteOffset": 0,
            "byteLength": 216,
            "target": 34962
        },
        {
            "buffer": 0,
            "byteOffset": 216,
            "byteLength": 216,
            "target": 34962
        },
        {
            "buffer": 0,
            "byteOffset": 432,
            "byteLength": 144,
            "target": 34962
        },
        {
            "buffer": 0,
            "byteOffset": 576,
            "byteLength": 192,
            "target": 34963
        }
    ],
    "accessors": [
        {
            "bufferView": 0,
            "componentType": 5126,
            "count": 18,
            "type": "VEC3",
            "max": [
                1.5,
                7.15256e-07,
                1.49999
            ],
            "min": [
                -1.5,
                -34.442,
                -1.49999
            ]
        },
        {
            "bufferView": 1,
            "componentType": 5126,
            "count": 18,
            "type": "VEC3",
            "max": [
                0.923884,
                6.40658e-08,
                0.92388
            ],
            "min": [
                -0.923884,
                -6.40629e-08,
                -0.923892
            ]
        },
        {
            "bufferView": 2,
            "componentType": 5126,
            "count": 18,
            "type": "VEC2",
            "max": [
                0.206347,
                0.998047
            ],
            "min": [
                0.00195312,
                0.231561
            ]
        },
        {
            "bufferView": 3,
            "componentType": 5125,
            "count": 48,
            "type": "SCALAR",
            "max": [
                17
            ],
            "min": [
                0
            ]
        }
    ],
    "images": [
        {
            "uri": "../textures/jd_kolonny.jpg"
        }
    ],
    "samplers": [
        {
            "magFilter": 9729,
            "minFilter": 9987,
            "wrapS": 10497,
            "wrapT": 10497
        }
    ],
    "textures": [
        {
            "sampler": 0,
            "source": 0
        }
    ],
    "materials": [
        {
            "pbrMetallicRoughness": {
                "baseColorTexture": {
                    "index": 0,
                    "texCoord": 0
                }
            }
        }
    ],
    "meshes": [
        {
            "primitives": [
                {
                    "attributes": {
                        "POSITION": 0,
                        "NORMAL": 1,
                        "TEXCOORD_0": 2
                    },
                    "indices": 3,
                    "material": 0,
                    "mode": 4
                }
            ]
        }
    ],
    "nodes": [
        {
            "mesh": 0
        }
    ],
    "scenes": [
        {
            "nodes": [ 0 ]
        }
    ],
    "scene": 0
}
