{
    "asset": {
        "version": "2.0"
    },
    "buffers": [
        {
            "uri": "bin/platform_rus_l.bin",
            "byteLength": 2040
        }
    ],
    "bufferViews": [
        {
            "buffer": 0,
            "byteOffset": 0,
            "byteLength": 576,
            "target": 34962
        },
        {
            "buffer": 0,
            "byteOffset": 576,
            "byteLength": 576,
            "target": 34962
        },
        {
            "buffer": 0,
            "byteOffset": 1152,
            "byteLength": 384,
            "target": 34962
        },
        {
            "buffer": 0,
            "byteOffset": 1536,
            "byteLength": 504,
            "target": 34963
        }
    ],
    "accessors": [
        {
            "bufferView": 0,
            "componentType": 5126,
            "count": 48,
            "type": "VEC3",
            "max": [
                4.50713,
                0.75,
                2.95774
            ],
            "min": [
                -4.50713,
                -4,
                -102.958
            ]
        },
        {
            "bufferView": 1,
            "componentType": 5126,
            "count": 48,
            "type": "VEC3",
            "max": [
                1,
                1,
                0.926544
            ],
            "min": [
                -1,
                0,
                -1
            ]
        },
        {
            "bufferView": 2,
            "componentType": 5126,
            "count": 48,
            "type": "VEC2",
            "max": [
                0.80542,
                11.3431
            ],
            "min": [
                0.00100207,
                -4.24108
            ]
        },
        {
            "bufferView": 3,
            "componentType": 5125,
            "count": 126,
            "type": "SCALAR",
            "max": [
                47
            ],
            "min": [
                0
            ]
        }
    ],
    "images": [
        {
            "uri": "../textures/platform_zab1.tga"
        }
    ],
    "samplers": [
        {
            "magFilter": 9729,
            "minFilter": 9987,
            "wrapS": 10497,
            "wrapT": 10497
        }
    ],
    "textures": [
        {
            "sampler": 0,
            "source": 0
        }
    ],
    "materials": [
        {
            "pbrMetallicRoughness": {
                "baseColorTexture": {
                    "index": 0,
                    "texCoord": 0
                }
            },
            "alphaMode": "BLEND"
        }
    ],
    "meshes": [
        {
            "primitives": [
                {
                    "attributes": {
                        "POSITION": 0,
                        "NORMAL": 1,
                        "TEXCOORD_0": 2
                    },
                    "indices": 3,
                    "material": 0,
                    "mode": 4
                }
            ]
        }
    ],
    "nodes": [
        {
            "mesh": 0
        }
    ],
    "scenes": [
        {
            "nodes": [ 0 ]
        }
    ],
    "scene": 0
}
