{
    "asset": {
        "version": "2.0"
    },
    "buffers": [
        {
            "uri": "bin/platform_uz_L20_zab.bin",
            "byteLength": 12240
        }
    ],
    "bufferViews": [
        {
            "buffer": 0,
            "byteOffset": 0,
            "byteLength": 3816,
            "target": 34962
        },
        {
            "buffer": 0,
            "byteOffset": 3816,
            "byteLength": 3816,
            "target": 34962
        },
        {
            "buffer": 0,
            "byteOffset": 7632,
            "byteLength": 2544,
            "target": 34962
        },
        {
            "buffer": 0,
            "byteOffset": 10176,
            "byteLength": 2064,
            "target": 34963
        }
    ],
    "accessors": [
        {
            "bufferView": 0,
            "componentType": 5126,
            "count": 318,
            "type": "VEC3",
            "max": [
                -1.97533,
                2.62423,
                0
            ],
            "min": [
                -6.02467,
                -1,
                -20
            ]
        },
        {
            "bufferView": 1,
            "componentType": 5126,
            "count": 318,
            "type": "VEC3",
            "max": [
                1,
                1,
                1
            ],
            "min": [
                -0.0621992,
                -0.998083,
                -1
            ]
        },
        {
            "bufferView": 2,
            "componentType": 5126,
            "count": 318,
            "type": "VEC2",
            "max": [
                10.0274,
                0.655472
            ],
            "min": [
                0.292544,
                0
            ]
        },
        {
            "bufferView": 3,
            "componentType": 5125,
            "count": 516,
            "type": "SCALAR",
            "max": [
                317
            ],
            "min": [
                0
            ]
        }
    ],
    "images": [
        {
            "uri": "../textures/platform_uz.tga"
        }
    ],
    "samplers": [
        {
            "magFilter": 9729,
            "minFilter": 9987,
            "wrapS": 10497,
            "wrapT": 10497
        }
    ],
    "textures": [
        {
            "sampler": 0,
            "source": 0
        }
    ],
    "materials": [
        {
            "pbrMetallicRoughness": {
                "baseColorTexture": {
                    "index": 0,
                    "texCoord": 0
                }
            },
            "alphaMode": "BLEND"
        }
    ],
    "meshes": [
        {
            "primitives": [
                {
                    "attributes": {
                        "POSITION": 0,
                        "NORMAL": 1,
                        "TEXCOORD_0": 2
                    },
                    "indices": 3,
                    "material": 0,
                    "mode": 4
                }
            ]
        }
    ],
    "nodes": [
        {
            "mesh": 0
        }
    ],
    "scenes": [
        {
            "nodes": [ 0 ]
        }
    ],
    "scene": 0
}
