{
    "asset": {
        "version": "2.0"
    },
    "buffers": [
        {
            "uri": "bin/platform_rus_2r50.bin",
            "byteLength": 5656
        }
    ],
    "bufferViews": [
        {
            "buffer": 0,
            "byteOffset": 0,
            "byteLength": 1536,
            "target": 34962
        },
        {
            "buffer": 0,
            "byteOffset": 1536,
            "byteLength": 1536,
            "target": 34962
        },
        {
            "buffer": 0,
            "byteOffset": 3072,
            "byteLength": 1024,
            "target": 34962
        },
        {
            "buffer": 0,
            "byteOffset": 4096,
            "byteLength": 1560,
            "target": 34963
        }
    ],
    "accessors": [
        {
            "bufferView": 0,
            "componentType": 5126,
            "count": 128,
            "type": "VEC3",
            "max": [
                4.50508,
                0.75,
                2.96398
            ],
            "min": [
                -5.16222,
                -4,
                -53.0354
            ]
        },
        {
            "bufferView": 1,
            "componentType": 5126,
            "count": 128,
            "type": "VEC3",
            "max": [
                0.999997,
                1,
                0.926818
            ],
            "min": [
                -0.999997,
                0,
                -0.999726
            ]
        },
        {
            "bufferView": 2,
            "componentType": 5126,
            "count": 128,
            "type": "VEC2",
            "max": [
                0.80542,
                5.89144
            ],
            "min": [
                0.00102368,
                -4.24108
            ]
        },
        {
            "bufferView": 3,
            "componentType": 5125,
            "count": 390,
            "type": "SCALAR",
            "max": [
                127
            ],
            "min": [
                0
            ]
        }
    ],
    "images": [
        {
            "uri": "../textures/platform_zab1.tga"
        }
    ],
    "samplers": [
        {
            "magFilter": 9729,
            "minFilter": 9987,
            "wrapS": 10497,
            "wrapT": 10497
        }
    ],
    "textures": [
        {
            "sampler": 0,
            "source": 0
        }
    ],
    "materials": [
        {
            "pbrMetallicRoughness": {
                "baseColorTexture": {
                    "index": 0,
                    "texCoord": 0
                }
            },
            "alphaMode": "BLEND"
        }
    ],
    "meshes": [
        {
            "primitives": [
                {
                    "attributes": {
                        "POSITION": 0,
                        "NORMAL": 1,
                        "TEXCOORD_0": 2
                    },
                    "indices": 3,
                    "material": 0,
                    "mode": 4
                }
            ]
        }
    ],
    "nodes": [
        {
            "mesh": 0
        }
    ],
    "scenes": [
        {
            "nodes": [ 0 ]
        }
    ],
    "scene": 0
}
