{
    "asset": {
        "version": "2.0"
    },
    "buffers": [
        {
            "uri": "bin/platform_rus_2r.bin",
            "byteLength": 10440
        }
    ],
    "bufferViews": [
        {
            "buffer": 0,
            "byteOffset": 0,
            "byteLength": 2736,
            "target": 34962
        },
        {
            "buffer": 0,
            "byteOffset": 2736,
            "byteLength": 2736,
            "target": 34962
        },
        {
            "buffer": 0,
            "byteOffset": 5472,
            "byteLength": 1824,
            "target": 34962
        },
        {
            "buffer": 0,
            "byteOffset": 7296,
            "byteLength": 3144,
            "target": 34963
        }
    ],
    "accessors": [
        {
            "bufferView": 0,
            "componentType": 5126,
            "count": 228,
            "type": "VEC3",
            "max": [
                4.50496,
                0.75,
                2.96432
            ],
            "min": [
                -7.12639,
                -4,
                -103.206
            ]
        },
        {
            "bufferView": 1,
            "componentType": 5126,
            "count": 228,
            "type": "VEC3",
            "max": [
                0.999997,
                1,
                0.926836
            ],
            "min": [
                -0.999997,
                -1.34792e-05,
                -0.920879
            ]
        },
        {
            "bufferView": 2,
            "componentType": 5126,
            "count": 228,
            "type": "VEC2",
            "max": [
                0.80542,
                11.3431
            ],
            "min": [
                0.00100207,
                -4.24108
            ]
        },
        {
            "bufferView": 3,
            "componentType": 5125,
            "count": 786,
            "type": "SCALAR",
            "max": [
                227
            ],
            "min": [
                0
            ]
        }
    ],
    "images": [
        {
            "uri": "../textures/platform_zab1.tga"
        }
    ],
    "samplers": [
        {
            "magFilter": 9729,
            "minFilter": 9987,
            "wrapS": 10497,
            "wrapT": 10497
        }
    ],
    "textures": [
        {
            "sampler": 0,
            "source": 0
        }
    ],
    "materials": [
        {
            "pbrMetallicRoughness": {
                "baseColorTexture": {
                    "index": 0,
                    "texCoord": 0
                }
            },
            "alphaMode": "BLEND"
        }
    ],
    "meshes": [
        {
            "primitives": [
                {
                    "attributes": {
                        "POSITION": 0,
                        "NORMAL": 1,
                        "TEXCOORD_0": 2
                    },
                    "indices": 3,
                    "material": 0,
                    "mode": 4
                }
            ]
        }
    ],
    "nodes": [
        {
            "mesh": 0
        }
    ],
    "scenes": [
        {
            "nodes": [ 0 ]
        }
    ],
    "scene": 0
}
