{
    "asset": {
        "version": "2.0"
    },
    "buffers": [
        {
            "uri": "bin/poleL.bin",
            "byteLength": 3480
        }
    ],
    "bufferViews": [
        {
            "buffer": 0,
            "byteOffset": 0,
            "byteLength": 1008,
            "target": 34962
        },
        {
            "buffer": 0,
            "byteOffset": 1008,
            "byteLength": 1008,
            "target": 34962
        },
        {
            "buffer": 0,
            "byteOffset": 2016,
            "byteLength": 672,
            "target": 34962
        },
        {
            "buffer": 0,
            "byteOffset": 2688,
            "byteLength": 792,
            "target": 34963
        }
    ],
    "accessors": [
        {
            "bufferView": 0,
            "componentType": 5126,
            "count": 84,
            "type": "VEC3",
            "max": [
                1.03441e-05,
                0,
                50.8645
            ],
            "min": [
                -300,
                -20,
                -150.864
            ]
        },
        {
            "bufferView": 1,
            "componentType": 5126,
            "count": 84,
            "type": "VEC3",
            "max": [
                2.0416e-07,
                1,
                0.590957
            ],
            "min": [
                -2.04162e-07,
                0.806687,
                -0.590979
            ]
        },
        {
            "bufferView": 2,
            "componentType": 5126,
            "count": 84,
            "type": "VEC2",
            "max": [
                1,
                1
            ],
            "min": [
                0.000413558,
                0
            ]
        },
        {
            "bufferView": 3,
            "componentType": 5125,
            "count": 198,
            "type": "SCALAR",
            "max": [
                83
            ],
            "min": [
                0
            ]
        }
    ],
    "images": [
        {
            "uri": "../textures/pole1.bmp"
        }
    ],
    "samplers": [
        {
            "magFilter": 9729,
            "minFilter": 9987,
            "wrapS": 10497,
            "wrapT": 10497
        }
    ],
    "textures": [
        {
            "sampler": 0,
            "source": 0
        }
    ],
    "materials": [
        {
            "pbrMetallicRoughness": {
                "baseColorTexture": {
                    "index": 0,
                    "texCoord": 0
                }
            }
        }
    ],
    "meshes": [
        {
            "primitives": [
                {
                    "attributes": {
                        "POSITION": 0,
                        "NORMAL": 1,
                        "TEXCOORD_0": 2
                    },
                    "indices": 3,
                    "material": 0,
                    "mode": 4
                }
            ]
        }
    ],
    "nodes": [
        {
            "mesh": 0
        }
    ],
    "scenes": [
        {
            "nodes": [ 0 ]
        }
    ],
    "scene": 0
}
