{
    "asset": {
        "version": "2.0"
    },
    "buffers": [
        {
            "uri": "bin/poleR1.bin",
            "byteLength": 6384
        }
    ],
    "bufferViews": [
        {
            "buffer": 0,
            "byteOffset": 0,
            "byteLength": 2016,
            "target": 34962
        },
        {
            "buffer": 0,
            "byteOffset": 2016,
            "byteLength": 2016,
            "target": 34962
        },
        {
            "buffer": 0,
            "byteOffset": 4032,
            "byteLength": 1344,
            "target": 34962
        },
        {
            "buffer": 0,
            "byteOffset": 5376,
            "byteLength": 1008,
            "target": 34963
        }
    ],
    "accessors": [
        {
            "bufferView": 0,
            "componentType": 5126,
            "count": 168,
            "type": "VEC3",
            "max": [
                300.14,
                1.99582,
                20
            ],
            "min": [
                0.279495,
                -20,
                -120
            ]
        },
        {
            "bufferView": 1,
            "componentType": 5126,
            "count": 168,
            "type": "VEC3",
            "max": [
                0,
                1,
                0.707107
            ],
            "min": [
                -1,
                -0,
                -0.707107
            ]
        },
        {
            "bufferView": 2,
            "componentType": 5126,
            "count": 168,
            "type": "VEC2",
            "max": [
                17.2166,
                0.985786
            ],
            "min": [
                -1.71964,
                0
            ]
        },
        {
            "bufferView": 3,
            "componentType": 5125,
            "count": 252,
            "type": "SCALAR",
            "max": [
                167
            ],
            "min": [
                0
            ]
        }
    ],
    "images": [
        {
            "uri": "../textures/pole3.tga"
        }
    ],
    "samplers": [
        {
            "magFilter": 9729,
            "minFilter": 9987,
            "wrapS": 10497,
            "wrapT": 10497
        }
    ],
    "textures": [
        {
            "sampler": 0,
            "source": 0
        }
    ],
    "materials": [
        {
            "pbrMetallicRoughness": {
                "baseColorTexture": {
                    "index": 0,
                    "texCoord": 0
                }
            },
            "alphaMode": "BLEND"
        }
    ],
    "meshes": [
        {
            "primitives": [
                {
                    "attributes": {
                        "POSITION": 0,
                        "NORMAL": 1,
                        "TEXCOORD_0": 2
                    },
                    "indices": 3,
                    "material": 0,
                    "mode": 4
                }
            ]
        }
    ],
    "nodes": [
        {
            "mesh": 0
        }
    ],
    "scenes": [
        {
            "nodes": [ 0 ]
        }
    ],
    "scene": 0
}
