{
    "asset": {
        "version": "2.0"
    },
    "buffers": [
        {
            "uri": "bin/signal_pred.bin",
            "byteLength": 53428
        }
    ],
    "bufferViews": [
        {
            "buffer": 0,
            "byteOffset": 0,
            "byteLength": 15936,
            "target": 34962
        },
        {
            "buffer": 0,
            "byteOffset": 15936,
            "byteLength": 15936,
            "target": 34962
        },
        {
            "buffer": 0,
            "byteOffset": 31872,
            "byteLength": 10624,
            "target": 34962
        },
        {
            "buffer": 0,
            "byteOffset": 42496,
            "byteLength": 10932,
            "target": 34963
        }
    ],
    "accessors": [
        {
            "bufferView": 0,
            "componentType": 5126,
            "count": 1328,
            "type": "VEC3",
            "max": [
                0.320487,
                6.04897,
                0.761263
            ],
            "min": [
                -3.75709,
                -0.0023427,
                -2.9701
            ]
        },
        {
            "bufferView": 1,
            "componentType": 5126,
            "count": 1328,
            "type": "VEC3",
            "max": [
                1,
                1,
                1
            ],
            "min": [
                -1,
                -1,
                -1
            ]
        },
        {
            "bufferView": 2,
            "componentType": 5126,
            "count": 1328,
            "type": "VEC2",
            "max": [
                1,
                1.34372
            ],
            "min": [
                0,
                0
            ]
        },
        {
            "bufferView": 3,
            "componentType": 5125,
            "count": 2733,
            "type": "SCALAR",
            "max": [
                1327
            ],
            "min": [
                0
            ]
        }
    ],
    "images": [
        {
            "uri": "../textures/IMR.tga"
        }
    ],
    "samplers": [
        {
            "magFilter": 9729,
            "minFilter": 9987,
            "wrapS": 10497,
            "wrapT": 10497
        }
    ],
    "textures": [
        {
            "sampler": 0,
            "source": 0
        }
    ],
    "materials": [
        {
            "pbrMetallicRoughness": {
                "baseColorTexture": {
                    "index": 0,
                    "texCoord": 0
                }
            },
            "alphaMode": "BLEND"
        }
    ],
    "meshes": [
        {
            "primitives": [
                {
                    "attributes": {
                        "POSITION": 0,
                        "NORMAL": 1,
                        "TEXCOORD_0": 2
                    },
                    "indices": 3,
                    "material": 0,
                    "mode": 4
                }
            ]
        }
    ],
    "nodes": [
        {
            "mesh": 0
        }
    ],
    "scenes": [
        {
            "nodes": [ 0 ]
        }
    ],
    "scene": 0
}
