{
    "asset": {
        "version": "2.0"
    },
    "buffers": [
        {
            "uri": "bin/sigznak_NV.bin",
            "byteLength": 1616
        }
    ],
    "bufferViews": [
        {
            "buffer": 0,
            "byteOffset": 0,
            "byteLength": 480,
            "target": 34962
        },
        {
            "buffer": 0,
            "byteOffset": 480,
            "byteLength": 480,
            "target": 34962
        },
        {
            "buffer": 0,
            "byteOffset": 960,
            "byteLength": 320,
            "target": 34962
        },
        {
            "buffer": 0,
            "byteOffset": 1280,
            "byteLength": 336,
            "target": 34963
        }
    ],
    "accessors": [
        {
            "bufferView": 0,
            "componentType": 5126,
            "count": 40,
            "type": "VEC3",
            "max": [
                -0.000120044,
                5.82987,
                -0.00180947
            ],
            "min": [
                -0.791214,
                4.53674,
                -0.00419192
            ]
        },
        {
            "bufferView": 1,
            "componentType": 5126,
            "count": 40,
            "type": "VEC3",
            "max": [
                -0,
                -1.52008e-08,
                1
            ],
            "min": [
                -0,
                -5.08399e-07,
                -1
            ]
        },
        {
            "bufferView": 2,
            "componentType": 5126,
            "count": 40,
            "type": "VEC2",
            "max": [
                0.66459,
                0.862322
            ],
            "min": [
                0.518449,
                0.696662
            ]
        },
        {
            "bufferView": 3,
            "componentType": 5125,
            "count": 84,
            "type": "SCALAR",
            "max": [
                39
            ],
            "min": [
                0
            ]
        }
    ],
    "images": [
        {
            "uri": "../textures/KontSet_1.tga"
        }
    ],
    "samplers": [
        {
            "magFilter": 9729,
            "minFilter": 9987,
            "wrapS": 10497,
            "wrapT": 10497
        }
    ],
    "textures": [
        {
            "sampler": 0,
            "source": 0
        }
    ],
    "materials": [
        {
            "pbrMetallicRoughness": {
                "baseColorTexture": {
                    "index": 0,
                    "texCoord": 0
                }
            },
            "alphaMode": "BLEND"
        }
    ],
    "meshes": [
        {
            "primitives": [
                {
                    "attributes": {
                        "POSITION": 0,
                        "NORMAL": 1,
                        "TEXCOORD_0": 2
                    },
                    "indices": 3,
                    "material": 0,
                    "mode": 4
                }
            ]
        }
    ],
    "nodes": [
        {
            "mesh": 0
        }
    ],
    "scenes": [
        {
            "nodes": [ 0 ]
        }
    ],
    "scene": 0
}
