{
    "asset": {
        "version": "2.0"
    },
    "buffers": [
        {
            "uri": "bin/sigznak_NV2l.bin",
            "byteLength": 608
        }
    ],
    "bufferViews": [
        {
            "buffer": 0,
            "byteOffset": 0,
            "byteLength": 192,
            "target": 34962
        },
        {
            "buffer": 0,
            "byteOffset": 192,
            "byteLength": 192,
            "target": 34962
        },
        {
            "buffer": 0,
            "byteOffset": 384,
            "byteLength": 128,
            "target": 34962
        },
        {
            "buffer": 0,
            "byteOffset": 512,
            "byteLength": 96,
            "target": 34963
        }
    ],
    "accessors": [
        {
            "bufferView": 0,
            "componentType": 5126,
            "count": 16,
            "type": "VEC3",
            "max": [
                -2.78794,
                6.14181,
                0.00145796
            ],
            "min": [
                -3.65549,
                5.5032,
                -0.00145608
            ]
        },
        {
            "bufferView": 1,
            "componentType": 5126,
            "count": 16,
            "type": "VEC3",
            "max": [
                1.56774e-07,
                1.51935e-08,
                1
            ],
            "min": [
                -1.50573e-07,
                -1.65263e-08,
                -1
            ]
        },
        {
            "bufferView": 2,
            "componentType": 5126,
            "count": 16,
            "type": "VEC2",
            "max": [
                0.660969,
                0.864137
            ],
            "min": [
                0.0711749,
                0.508985
            ]
        },
        {
            "bufferView": 3,
            "componentType": 5125,
            "count": 24,
            "type": "SCALAR",
            "max": [
                15
            ],
            "min": [
                0
            ]
        }
    ],
    "images": [
        {
            "uri": "../textures/KontSet_1.tga"
        }
    ],
    "samplers": [
        {
            "magFilter": 9729,
            "minFilter": 9987,
            "wrapS": 10497,
            "wrapT": 10497
        }
    ],
    "textures": [
        {
            "sampler": 0,
            "source": 0
        }
    ],
    "materials": [
        {
            "pbrMetallicRoughness": {
                "baseColorTexture": {
                    "index": 0,
                    "texCoord": 0
                }
            },
            "alphaMode": "BLEND"
        }
    ],
    "meshes": [
        {
            "primitives": [
                {
                    "attributes": {
                        "POSITION": 0,
                        "NORMAL": 1,
                        "TEXCOORD_0": 2
                    },
                    "indices": 3,
                    "material": 0,
                    "mode": 4
                }
            ]
        }
    ],
    "nodes": [
        {
            "mesh": 0
        }
    ],
    "scenes": [
        {
            "nodes": [ 0 ]
        }
    ],
    "scene": 0
}
