{
    "asset": {
        "version": "2.0"
    },
    "buffers": [
        {
            "uri": "bin/sky.bin",
            "byteLength": 5120
        }
    ],
    "bufferViews": [
        {
            "buffer": 0,
            "byteOffset": 0,
            "byteLength": 1272,
            "target": 34962
        },
        {
            "buffer": 0,
            "byteOffset": 1272,
            "byteLength": 1272,
            "target": 34962
        },
        {
            "buffer": 0,
            "byteOffset": 2544,
            "byteLength": 848,
            "target": 34962
        },
        {
            "buffer": 0,
            "byteOffset": 3392,
            "byteLength": 1728,
            "target": 34963
        }
    ],
    "accessors": [
        {
            "bufferView": 0,
            "componentType": 5126,
            "count": 106,
            "type": "VEC3",
            "max": [
                750,
                750,
                750
            ],
            "min": [
                -750,
                -287.012,
                -750
            ]
        },
        {
            "bufferView": 1,
            "componentType": 5126,
            "count": 106,
            "type": "VEC3",
            "max": [
                0.962638,
                0.191483,
                0.962638
            ],
            "min": [
                -0.962638,
                -0.980048,
                -0.962638
            ]
        },
        {
            "bufferView": 2,
            "componentType": 5126,
            "count": 106,
            "type": "VEC2",
            "max": [
                0.999,
                0.998124
            ],
            "min": [
                0.001,
                0
            ]
        },
        {
            "bufferView": 3,
            "componentType": 5125,
            "count": 432,
            "type": "SCALAR",
            "max": [
                105
            ],
            "min": [
                0
            ]
        }
    ],
    "images": [
        {
            "uri": "../textures/sky_day.bmp"
        }
    ],
    "samplers": [
        {
            "magFilter": 9729,
            "minFilter": 9987,
            "wrapS": 10497,
            "wrapT": 10497
        }
    ],
    "textures": [
        {
            "sampler": 0,
            "source": 0
        }
    ],
    "materials": [
        {
            "pbrMetallicRoughness": {
                "baseColorTexture": {
                    "index": 0,
                    "texCoord": 0
                }
            }
        }
    ],
    "meshes": [
        {
            "primitives": [
                {
                    "attributes": {
                        "POSITION": 0,
                        "NORMAL": 1,
                        "TEXCOORD_0": 2
                    },
                    "indices": 3,
                    "material": 0,
                    "mode": 4
                }
            ]
        }
    ],
    "nodes": [
        {
            "mesh": 0
        }
    ],
    "scenes": [
        {
            "nodes": [ 0 ]
        }
    ],
    "scene": 0
}
