{
    "asset": {
        "version": "2.0"
    },
    "buffers": [
        {
            "uri": "bin/str_tr.bin",
            "byteLength": 9619700
        }
    ],
    "bufferViews": [
        {
            "buffer": 0,
            "byteOffset": 0,
            "byteLength": 2824716,
            "target": 34962
        },
        {
            "buffer": 0,
            "byteOffset": 2824716,
            "byteLength": 2824716,
            "target": 34962
        },
        {
            "buffer": 0,
            "byteOffset": 5649432,
            "byteLength": 1883144,
            "target": 34962
        },
        {
            "buffer": 0,
            "byteOffset": 7532576,
            "byteLength": 2087124,
            "target": 34963
        }
    ],
    "accessors": [
        {
            "bufferView": 0,
            "componentType": 5126,
            "count": 235393,
            "type": "VEC3",
            "max": [
                3.39202,
                0.441734,
                0.40315
            ],
            "min": [
                -267.964,
                -0.504614,
                -449.869
            ]
        },
        {
            "bufferView": 1,
            "componentType": 5126,
            "count": 235393,
            "type": "VEC3",
            "max": [
                1,
                1,
                1
            ],
            "min": [
                -1,
                -1,
                -1
            ]
        },
        {
            "bufferView": 2,
            "componentType": 5126,
            "count": 235393,
            "type": "VEC2",
            "max": [
                0.960329,
                0.971188
            ],
            "min": [
                0.0010975,
                -1.33239e-06
            ]
        },
        {
            "bufferView": 3,
            "componentType": 5125,
            "count": 521781,
            "type": "SCALAR",
            "max": [
                235392
            ],
            "min": [
                0
            ]
        }
    ],
    "images": [
        {
            "uri": "../textures/TBB_Rails.tga"
        }
    ],
    "samplers": [
        {
            "magFilter": 9729,
            "minFilter": 9987,
            "wrapS": 10497,
            "wrapT": 10497
        }
    ],
    "textures": [
        {
            "sampler": 0,
            "source": 0
        }
    ],
    "materials": [
        {
            "pbrMetallicRoughness": {
                "baseColorTexture": {
                    "index": 0,
                    "texCoord": 0
                }
            },
            "alphaMode": "BLEND"
        }
    ],
    "meshes": [
        {
            "primitives": [
                {
                    "attributes": {
                        "POSITION": 0,
                        "NORMAL": 1,
                        "TEXCOORD_0": 2
                    },
                    "indices": 3,
                    "material": 0,
                    "mode": 4
                }
            ]
        }
    ],
    "nodes": [
        {
            "mesh": 0
        }
    ],
    "scenes": [
        {
            "nodes": [ 0 ]
        }
    ],
    "scene": 0
}
