{
    "asset": {
        "version": "2.0"
    },
    "buffers": [
        {
            "uri": "bin/TSM_Jction_1d9_R_Pr.bin",
            "byteLength": 550380
        }
    ],
    "bufferViews": [
        {
            "buffer": 0,
            "byteOffset": 0,
            "byteLength": 166428,
            "target": 34962
        },
        {
            "buffer": 0,
            "byteOffset": 166428,
            "byteLength": 166428,
            "target": 34962
        },
        {
            "buffer": 0,
            "byteOffset": 332856,
            "byteLength": 110952,
            "target": 34962
        },
        {
            "buffer": 0,
            "byteOffset": 443808,
            "byteLength": 106572,
            "target": 34963
        }
    ],
    "accessors": [
        {
            "bufferView": 0,
            "componentType": 5126,
            "count": 13869,
            "type": "VEC3",
            "max": [
                5.51865,
                0.441619,
                3.11318
            ],
            "min": [
                -3.40664,
                -0.504614,
                -35.8522
            ]
        },
        {
            "bufferView": 1,
            "componentType": 5126,
            "count": 13869,
            "type": "VEC3",
            "max": [
                1,
                1,
                1
            ],
            "min": [
                -1,
                -1,
                -1
            ]
        },
        {
            "bufferView": 2,
            "componentType": 5126,
            "count": 13869,
            "type": "VEC2",
            "max": [
                0.999538,
                0.816814
            ],
            "min": [
                0.00109751,
                -1.33239e-06
            ]
        },
        {
            "bufferView": 3,
            "componentType": 5125,
            "count": 26643,
            "type": "SCALAR",
            "max": [
                13868
            ],
            "min": [
                0
            ]
        }
    ],
    "images": [
        {
            "uri": "../textures/TBB_Rails.tga"
        }
    ],
    "samplers": [
        {
            "magFilter": 9729,
            "minFilter": 9987,
            "wrapS": 10497,
            "wrapT": 10497
        }
    ],
    "textures": [
        {
            "sampler": 0,
            "source": 0
        }
    ],
    "materials": [
        {
            "pbrMetallicRoughness": {
                "baseColorTexture": {
                    "index": 0,
                    "texCoord": 0
                }
            },
            "alphaMode": "BLEND"
        }
    ],
    "meshes": [
        {
            "primitives": [
                {
                    "attributes": {
                        "POSITION": 0,
                        "NORMAL": 1,
                        "TEXCOORD_0": 2
                    },
                    "indices": 3,
                    "material": 0,
                    "mode": 4
                }
            ]
        }
    ],
    "nodes": [
        {
            "mesh": 0
        }
    ],
    "scenes": [
        {
            "nodes": [ 0 ]
        }
    ],
    "scene": 0
}
