{
    "asset": {
        "version": "2.0"
    },
    "buffers": [
        {
            "uri": "bin/TSM_track_1l9_L_Nz.bin",
            "byteLength": 520952
        }
    ],
    "bufferViews": [
        {
            "buffer": 0,
            "byteOffset": 0,
            "byteLength": 151932,
            "target": 34962
        },
        {
            "buffer": 0,
            "byteOffset": 151932,
            "byteLength": 151932,
            "target": 34962
        },
        {
            "buffer": 0,
            "byteOffset": 303864,
            "byteLength": 101288,
            "target": 34962
        },
        {
            "buffer": 0,
            "byteOffset": 405152,
            "byteLength": 115800,
            "target": 34963
        }
    ],
    "accessors": [
        {
            "bufferView": 0,
            "componentType": 5126,
            "count": 12661,
            "type": "VEC3",
            "max": [
                0.677933,
                0.311741,
                90.4
            ],
            "min": [
                -8.29514,
                -0.332085,
                33.6206
            ]
        },
        {
            "bufferView": 1,
            "componentType": 5126,
            "count": 12661,
            "type": "VEC3",
            "max": [
                1,
                0.999967,
                1
            ],
            "min": [
                -1,
                -0.912617,
                -1
            ]
        },
        {
            "bufferView": 2,
            "componentType": 5126,
            "count": 12661,
            "type": "VEC2",
            "max": [
                0.960324,
                0.971098
            ],
            "min": [
                0.0010975,
                0
            ]
        },
        {
            "bufferView": 3,
            "componentType": 5125,
            "count": 28950,
            "type": "SCALAR",
            "max": [
                12660
            ],
            "min": [
                0
            ]
        }
    ],
    "images": [
        {
            "uri": "../textures/TBB_Rails.tga"
        }
    ],
    "samplers": [
        {
            "magFilter": 9729,
            "minFilter": 9987,
            "wrapS": 10497,
            "wrapT": 10497
        }
    ],
    "textures": [
        {
            "sampler": 0,
            "source": 0
        }
    ],
    "materials": [
        {
            "pbrMetallicRoughness": {
                "baseColorTexture": {
                    "index": 0,
                    "texCoord": 0
                }
            },
            "alphaMode": "BLEND"
        }
    ],
    "meshes": [
        {
            "primitives": [
                {
                    "attributes": {
                        "POSITION": 0,
                        "NORMAL": 1,
                        "TEXCOORD_0": 2
                    },
                    "indices": 3,
                    "material": 0,
                    "mode": 4
                }
            ]
        }
    ],
    "nodes": [
        {
            "mesh": 0
        }
    ],
    "scenes": [
        {
            "nodes": [ 0 ]
        }
    ],
    "scene": 0
}
