{
    "asset": {
        "version": "2.0"
    },
    "buffers": [
        {
            "uri": "bin/tupik.bin",
            "byteLength": 10684
        }
    ],
    "bufferViews": [
        {
            "buffer": 0,
            "byteOffset": 0,
            "byteLength": 3300,
            "target": 34962
        },
        {
            "buffer": 0,
            "byteOffset": 3300,
            "byteLength": 3300,
            "target": 34962
        },
        {
            "buffer": 0,
            "byteOffset": 6600,
            "byteLength": 2200,
            "target": 34962
        },
        {
            "buffer": 0,
            "byteOffset": 8800,
            "byteLength": 1884,
            "target": 34963
        }
    ],
    "accessors": [
        {
            "bufferView": 0,
            "componentType": 5126,
            "count": 275,
            "type": "VEC3",
            "max": [
                10.8994,
                1.91097,
                12.4617
            ],
            "min": [
                -10.8994,
                -8.39767,
                -4.40661
            ]
        },
        {
            "bufferView": 1,
            "componentType": 5126,
            "count": 275,
            "type": "VEC3",
            "max": [
                1,
                1,
                1
            ],
            "min": [
                -1,
                -1,
                -1
            ]
        },
        {
            "bufferView": 2,
            "componentType": 5126,
            "count": 275,
            "type": "VEC2",
            "max": [
                1.48681,
                0.967371
            ],
            "min": [
                -0.482109,
                -0.974567
            ]
        },
        {
            "bufferView": 3,
            "componentType": 5125,
            "count": 471,
            "type": "SCALAR",
            "max": [
                274
            ],
            "min": [
                0
            ]
        }
    ],
    "images": [
        {
            "uri": "../textures/tupik.tga"
        }
    ],
    "samplers": [
        {
            "magFilter": 9729,
            "minFilter": 9987,
            "wrapS": 10497,
            "wrapT": 10497
        }
    ],
    "textures": [
        {
            "sampler": 0,
            "source": 0
        }
    ],
    "materials": [
        {
            "pbrMetallicRoughness": {
                "baseColorTexture": {
                    "index": 0,
                    "texCoord": 0
                }
            },
            "alphaMode": "BLEND"
        }
    ],
    "meshes": [
        {
            "primitives": [
                {
                    "attributes": {
                        "POSITION": 0,
                        "NORMAL": 1,
                        "TEXCOORD_0": 2
                    },
                    "indices": 3,
                    "material": 0,
                    "mode": 4
                }
            ]
        }
    ],
    "nodes": [
        {
            "mesh": 0
        }
    ],
    "scenes": [
        {
            "nodes": [ 0 ]
        }
    ],
    "scene": 0
}
