{
    "asset": {
        "version": "2.0"
    },
    "buffers": [
        {
            "uri": "bin/v_forest27l.bin",
            "byteLength": 9728
        }
    ],
    "bufferViews": [
        {
            "buffer": 0,
            "byteOffset": 0,
            "byteLength": 3072,
            "target": 34962
        },
        {
            "buffer": 0,
            "byteOffset": 3072,
            "byteLength": 3072,
            "target": 34962
        },
        {
            "buffer": 0,
            "byteOffset": 6144,
            "byteLength": 2048,
            "target": 34962
        },
        {
            "buffer": 0,
            "byteOffset": 8192,
            "byteLength": 1536,
            "target": 34963
        }
    ],
    "accessors": [
        {
            "bufferView": 0,
            "componentType": 5126,
            "count": 256,
            "type": "VEC3",
            "max": [
                -0.782533,
                16.6052,
                0.842974
            ],
            "min": [
                -21.6784,
                -0.419877,
                -100.776
            ]
        },
        {
            "bufferView": 1,
            "componentType": 5126,
            "count": 256,
            "type": "VEC3",
            "max": [
                0.707123,
                0.0798402,
                0.707299
            ],
            "min": [
                -0.707124,
                -0.07984,
                -0.707298
            ]
        },
        {
            "bufferView": 2,
            "componentType": 5126,
            "count": 256,
            "type": "VEC2",
            "max": [
                0.98907,
                0.710522
            ],
            "min": [
                0.00102213,
                0.251843
            ]
        },
        {
            "bufferView": 3,
            "componentType": 5125,
            "count": 384,
            "type": "SCALAR",
            "max": [
                255
            ],
            "min": [
                0
            ]
        }
    ],
    "images": [
        {
            "uri": "../textures/v_forest444.tga"
        }
    ],
    "samplers": [
        {
            "magFilter": 9729,
            "minFilter": 9987,
            "wrapS": 10497,
            "wrapT": 10497
        }
    ],
    "textures": [
        {
            "sampler": 0,
            "source": 0
        }
    ],
    "materials": [
        {
            "pbrMetallicRoughness": {
                "baseColorTexture": {
                    "index": 0,
                    "texCoord": 0
                }
            },
            "alphaMode": "BLEND"
        }
    ],
    "meshes": [
        {
            "primitives": [
                {
                    "attributes": {
                        "POSITION": 0,
                        "NORMAL": 1,
                        "TEXCOORD_0": 2
                    },
                    "indices": 3,
                    "material": 0,
                    "mode": 4
                }
            ]
        }
    ],
    "nodes": [
        {
            "mesh": 0
        }
    ],
    "scenes": [
        {
            "nodes": [ 0 ]
        }
    ],
    "scene": 0
}
