{
    "asset": {
        "version": "2.0"
    },
    "buffers": [
        {
            "uri": "bin/wire500l.bin",
            "byteLength": 57664
        }
    ],
    "bufferViews": [
        {
            "buffer": 0,
            "byteOffset": 0,
            "byteLength": 17232,
            "target": 34962
        },
        {
            "buffer": 0,
            "byteOffset": 17232,
            "byteLength": 17232,
            "target": 34962
        },
        {
            "buffer": 0,
            "byteOffset": 34464,
            "byteLength": 11488,
            "target": 34962
        },
        {
            "buffer": 0,
            "byteOffset": 45952,
            "byteLength": 11712,
            "target": 34963
        }
    ],
    "accessors": [
        {
            "bufferView": 0,
            "componentType": 5126,
            "count": 1436,
            "type": "VEC3",
            "max": [
                1.54696,
                8.86576,
                0.136113
            ],
            "min": [
                -9.9987,
                6.49008,
                -99.2707
            ]
        },
        {
            "bufferView": 1,
            "componentType": 5126,
            "count": 1436,
            "type": "VEC3",
            "max": [
                0.999744,
                1,
                0.999743
            ],
            "min": [
                -0.999743,
                -0.999999,
                -0.999743
            ]
        },
        {
            "bufferView": 2,
            "componentType": 5126,
            "count": 1436,
            "type": "VEC2",
            "max": [
                0.997783,
                0.8647
            ],
            "min": [
                0.0726362,
                0.479644
            ]
        },
        {
            "bufferView": 3,
            "componentType": 5125,
            "count": 2928,
            "type": "SCALAR",
            "max": [
                1435
            ],
            "min": [
                0
            ]
        }
    ],
    "images": [
        {
            "uri": "../textures/KontSet_1.tga"
        }
    ],
    "samplers": [
        {
            "magFilter": 9729,
            "minFilter": 9987,
            "wrapS": 10497,
            "wrapT": 10497
        }
    ],
    "textures": [
        {
            "sampler": 0,
            "source": 0
        }
    ],
    "materials": [
        {
            "pbrMetallicRoughness": {
                "baseColorTexture": {
                    "index": 0,
                    "texCoord": 0
                }
            },
            "alphaMode": "BLEND"
        }
    ],
    "meshes": [
        {
            "primitives": [
                {
                    "attributes": {
                        "POSITION": 0,
                        "NORMAL": 1,
                        "TEXCOORD_0": 2
                    },
                    "indices": 3,
                    "material": 0,
                    "mode": 4
                }
            ]
        }
    ],
    "nodes": [
        {
            "mesh": 0
        }
    ],
    "scenes": [
        {
            "nodes": [ 0 ]
        }
    ],
    "scene": 0
}
