{
    "asset": {
        "version": "2.0"
    },
    "buffers": [
        {
            "uri": "bin/wire50n.bin",
            "byteLength": 31624
        }
    ],
    "bufferViews": [
        {
            "buffer": 0,
            "byteOffset": 0,
            "byteLength": 9816,
            "target": 34962
        },
        {
            "buffer": 0,
            "byteOffset": 9816,
            "byteLength": 9816,
            "target": 34962
        },
        {
            "buffer": 0,
            "byteOffset": 19632,
            "byteLength": 6544,
            "target": 34962
        },
        {
            "buffer": 0,
            "byteOffset": 26176,
            "byteLength": 5448,
            "target": 34963
        }
    ],
    "accessors": [
        {
            "bufferView": 0,
            "componentType": 5126,
            "count": 818,
            "type": "VEC3",
            "max": [
                1.54663,
                8.87364,
                1.12971
            ],
            "min": [
                -1.57881,
                6.49008,
                -50.1375
            ]
        },
        {
            "bufferView": 1,
            "componentType": 5126,
            "count": 818,
            "type": "VEC3",
            "max": [
                1,
                0.983871,
                1
            ],
            "min": [
                -1,
                -0.999999,
                -1
            ]
        },
        {
            "bufferView": 2,
            "componentType": 5126,
            "count": 818,
            "type": "VEC2",
            "max": [
                0.997783,
                0.86535
            ],
            "min": [
                0.0726362,
                0.479644
            ]
        },
        {
            "bufferView": 3,
            "componentType": 5125,
            "count": 1362,
            "type": "SCALAR",
            "max": [
                817
            ],
            "min": [
                0
            ]
        }
    ],
    "images": [
        {
            "uri": "../textures/KontSet_1.tga"
        }
    ],
    "samplers": [
        {
            "magFilter": 9729,
            "minFilter": 9987,
            "wrapS": 10497,
            "wrapT": 10497
        }
    ],
    "textures": [
        {
            "sampler": 0,
            "source": 0
        }
    ],
    "materials": [
        {
            "pbrMetallicRoughness": {
                "baseColorTexture": {
                    "index": 0,
                    "texCoord": 0
                }
            },
            "alphaMode": "BLEND"
        }
    ],
    "meshes": [
        {
            "primitives": [
                {
                    "attributes": {
                        "POSITION": 0,
                        "NORMAL": 1,
                        "TEXCOORD_0": 2
                    },
                    "indices": 3,
                    "material": 0,
                    "mode": 4
                }
            ]
        }
    ],
    "nodes": [
        {
            "mesh": 0
        }
    ],
    "scenes": [
        {
            "nodes": [ 0 ]
        }
    ],
    "scene": 0
}
