{
    "asset": {
        "version": "2.0"
    },
    "buffers": [
        {
            "uri": "bin/wire50n_switch.bin",
            "byteLength": 91944
        }
    ],
    "bufferViews": [
        {
            "buffer": 0,
            "byteOffset": 0,
            "byteLength": 27792,
            "target": 34962
        },
        {
            "buffer": 0,
            "byteOffset": 27792,
            "byteLength": 27792,
            "target": 34962
        },
        {
            "buffer": 0,
            "byteOffset": 55584,
            "byteLength": 18528,
            "target": 34962
        },
        {
            "buffer": 0,
            "byteOffset": 74112,
            "byteLength": 17832,
            "target": 34963
        }
    ],
    "accessors": [
        {
            "bufferView": 0,
            "componentType": 5126,
            "count": 2316,
            "type": "VEC3",
            "max": [
                1.54663,
                8.87103,
                1.19716
            ],
            "min": [
                -1.57881,
                6.48997,
                -50.1351
            ]
        },
        {
            "bufferView": 1,
            "componentType": 5126,
            "count": 2316,
            "type": "VEC3",
            "max": [
                1,
                1,
                1
            ],
            "min": [
                -1,
                -1,
                -1
            ]
        },
        {
            "bufferView": 2,
            "componentType": 5126,
            "count": 2316,
            "type": "VEC2",
            "max": [
                0.997783,
                0.8647
            ],
            "min": [
                0.0726362,
                0.411795
            ]
        },
        {
            "bufferView": 3,
            "componentType": 5125,
            "count": 4458,
            "type": "SCALAR",
            "max": [
                2315
            ],
            "min": [
                0
            ]
        }
    ],
    "images": [
        {
            "uri": "../textures/KontSet_1.tga"
        }
    ],
    "samplers": [
        {
            "magFilter": 9729,
            "minFilter": 9987,
            "wrapS": 10497,
            "wrapT": 10497
        }
    ],
    "textures": [
        {
            "sampler": 0,
            "source": 0
        }
    ],
    "materials": [
        {
            "pbrMetallicRoughness": {
                "baseColorTexture": {
                    "index": 0,
                    "texCoord": 0
                }
            },
            "alphaMode": "BLEND"
        }
    ],
    "meshes": [
        {
            "primitives": [
                {
                    "attributes": {
                        "POSITION": 0,
                        "NORMAL": 1,
                        "TEXCOORD_0": 2
                    },
                    "indices": 3,
                    "material": 0,
                    "mode": 4
                }
            ]
        }
    ],
    "nodes": [
        {
            "mesh": 0
        }
    ],
    "scenes": [
        {
            "nodes": [ 0 ]
        }
    ],
    "scene": 0
}
