{
    "asset": {
        "version": "2.0"
    },
    "buffers": [
        {
            "uri": "bin/Znak_S.bin",
            "byteLength": 2408
        }
    ],
    "bufferViews": [
        {
            "buffer": 0,
            "byteOffset": 0,
            "byteLength": 696,
            "target": 34962
        },
        {
            "buffer": 0,
            "byteOffset": 696,
            "byteLength": 696,
            "target": 34962
        },
        {
            "buffer": 0,
            "byteOffset": 1392,
            "byteLength": 464,
            "target": 34962
        },
        {
            "buffer": 0,
            "byteOffset": 1856,
            "byteLength": 552,
            "target": 34963
        }
    ],
    "accessors": [
        {
            "bufferView": 0,
            "componentType": 5126,
            "count": 58,
            "type": "VEC3",
            "max": [
                0.176507,
                2.09509,
                0.0591258
            ],
            "min": [
                -0.176507,
                -0.000147654,
                -0.0591258
            ]
        },
        {
            "bufferView": 1,
            "componentType": 5126,
            "count": 58,
            "type": "VEC3",
            "max": [
                0.92388,
                1,
                1
            ],
            "min": [
                -0.92388,
                -5.78415e-08,
                -1
            ]
        },
        {
            "bufferView": 2,
            "componentType": 5126,
            "count": 58,
            "type": "VEC2",
            "max": [
                0.999187,
                0.857917
            ],
            "min": [
                0.840642,
                0.126808
            ]
        },
        {
            "bufferView": 3,
            "componentType": 5125,
            "count": 138,
            "type": "SCALAR",
            "max": [
                57
            ],
            "min": [
                0
            ]
        }
    ],
    "images": [
        {
            "uri": "../textures/KM_ZnakSignal.tga"
        }
    ],
    "samplers": [
        {
            "magFilter": 9729,
            "minFilter": 9987,
            "wrapS": 10497,
            "wrapT": 10497
        }
    ],
    "textures": [
        {
            "sampler": 0,
            "source": 0
        }
    ],
    "materials": [
        {
            "pbrMetallicRoughness": {
                "baseColorTexture": {
                    "index": 0,
                    "texCoord": 0
                }
            },
            "alphaMode": "BLEND"
        }
    ],
    "meshes": [
        {
            "primitives": [
                {
                    "attributes": {
                        "POSITION": 0,
                        "NORMAL": 1,
                        "TEXCOORD_0": 2
                    },
                    "indices": 3,
                    "material": 0,
                    "mode": 4
                }
            ]
        }
    ],
    "nodes": [
        {
            "mesh": 0
        }
    ],
    "scenes": [
        {
            "nodes": [ 0 ]
        }
    ],
    "scene": 0
}
