{
    "asset": {
        "version": "2.0"
    },
    "buffers": [
        {
            "uri": "bin/Znak_S_.bin",
            "byteLength": 1704
        }
    ],
    "bufferViews": [
        {
            "buffer": 0,
            "byteOffset": 0,
            "byteLength": 504,
            "target": 34962
        },
        {
            "buffer": 0,
            "byteOffset": 504,
            "byteLength": 504,
            "target": 34962
        },
        {
            "buffer": 0,
            "byteOffset": 1008,
            "byteLength": 336,
            "target": 34962
        },
        {
            "buffer": 0,
            "byteOffset": 1344,
            "byteLength": 360,
            "target": 34963
        }
    ],
    "accessors": [
        {
            "bufferView": 0,
            "componentType": 5126,
            "count": 42,
            "type": "VEC3",
            "max": [
                0.381046,
                2.09509,
                0.00102912
            ],
            "min": [
                -0.176507,
                1.6239,
                -0.00218492
            ]
        },
        {
            "bufferView": 1,
            "componentType": 5126,
            "count": 42,
            "type": "VEC3",
            "max": [
                2.99247e-06,
                2.74609e-06,
                1
            ],
            "min": [
                -2.0471e-06,
                0,
                -1
            ]
        },
        {
            "bufferView": 2,
            "componentType": 5126,
            "count": 42,
            "type": "VEC2",
            "max": [
                0.999187,
                0.857917
            ],
            "min": [
                0.840642,
                0.715525
            ]
        },
        {
            "bufferView": 3,
            "componentType": 5125,
            "count": 90,
            "type": "SCALAR",
            "max": [
                41
            ],
            "min": [
                0
            ]
        }
    ],
    "images": [
        {
            "uri": "../textures/KM_ZnakSignal.tga"
        }
    ],
    "samplers": [
        {
            "magFilter": 9729,
            "minFilter": 9987,
            "wrapS": 10497,
            "wrapT": 10497
        }
    ],
    "textures": [
        {
            "sampler": 0,
            "source": 0
        }
    ],
    "materials": [
        {
            "pbrMetallicRoughness": {
                "baseColorTexture": {
                    "index": 0,
                    "texCoord": 0
                }
            },
            "alphaMode": "BLEND"
        }
    ],
    "meshes": [
        {
            "primitives": [
                {
                    "attributes": {
                        "POSITION": 0,
                        "NORMAL": 1,
                        "TEXCOORD_0": 2
                    },
                    "indices": 3,
                    "material": 0,
                    "mode": 4
                }
            ]
        }
    ],
    "nodes": [
        {
            "mesh": 0
        }
    ],
    "scenes": [
        {
            "nodes": [ 0 ]
        }
    ],
    "scene": 0
}
