{
    "asset": {
        "version": "2.0"
    },
    "buffers": [
        {
            "uri": "bin/Znak_OstLoc.bin",
            "byteLength": 1064
        }
    ],
    "bufferViews": [
        {
            "buffer": 0,
            "byteOffset": 0,
            "byteLength": 336,
            "target": 34962
        },
        {
            "buffer": 0,
            "byteOffset": 336,
            "byteLength": 336,
            "target": 34962
        },
        {
            "buffer": 0,
            "byteOffset": 672,
            "byteLength": 224,
            "target": 34962
        },
        {
            "buffer": 0,
            "byteOffset": 896,
            "byteLength": 168,
            "target": 34963
        }
    ],
    "accessors": [
        {
            "bufferView": 0,
            "componentType": 5126,
            "count": 28,
            "type": "VEC3",
            "max": [
                0.25,
                2.1,
                0.0559878
            ],
            "min": [
                -0.25,
                0,
                -0.05
            ]
        },
        {
            "bufferView": 1,
            "componentType": 5126,
            "count": 28,
            "type": "VEC3",
            "max": [
                1,
                1,
                1
            ],
            "min": [
                -1,
                0,
                -1
            ]
        },
        {
            "bufferView": 2,
            "componentType": 5126,
            "count": 28,
            "type": "VEC2",
            "max": [
                0.998767,
                0.751395
            ],
            "min": [
                0.500835,
                0.127501
            ]
        },
        {
            "bufferView": 3,
            "componentType": 5125,
            "count": 42,
            "type": "SCALAR",
            "max": [
                27
            ],
            "min": [
                0
            ]
        }
    ],
    "images": [
        {
            "uri": "../textures/KM_ZnakSignal.tga"
        }
    ],
    "samplers": [
        {
            "magFilter": 9729,
            "minFilter": 9987,
            "wrapS": 10497,
            "wrapT": 10497
        }
    ],
    "textures": [
        {
            "sampler": 0,
            "source": 0
        }
    ],
    "materials": [
        {
            "pbrMetallicRoughness": {
                "baseColorTexture": {
                    "index": 0,
                    "texCoord": 0
                }
            },
            "alphaMode": "BLEND"
        }
    ],
    "meshes": [
        {
            "primitives": [
                {
                    "attributes": {
                        "POSITION": 0,
                        "NORMAL": 1,
                        "TEXCOORD_0": 2
                    },
                    "indices": 3,
                    "material": 0,
                    "mode": 4
                }
            ]
        }
    ],
    "nodes": [
        {
            "mesh": 0
        }
    ],
    "scenes": [
        {
            "nodes": [ 0 ]
        }
    ],
    "scene": 0
}
