{
    "asset": {
        "version": "2.0"
    },
    "buffers": [
        {
            "uri": "bin/op0r.bin",
            "byteLength": 39536
        }
    ],
    "bufferViews": [
        {
            "buffer": 0,
            "byteOffset": 0,
            "byteLength": 16608,
            "target": 34962
        },
        {
            "buffer": 0,
            "byteOffset": 16608,
            "byteLength": 11072,
            "target": 34962
        },
        {
            "buffer": 0,
            "byteOffset": 27680,
            "byteLength": 11856,
            "target": 34963
        }
    ],
    "accessors": [
        {
            "bufferView": 0,
            "componentType": 5126,
            "count": 1384,
            "type": "VEC3",
            "max": [
                7.95702,
                10.3599,
                0.349148
            ],
            "min": [
                3.7496,
                -1.96516,
                -50.3492
            ]
        },
        {
            "bufferView": 1,
            "componentType": 5126,
            "count": 1384,
            "type": "VEC2",
            "max": [
                0.999351,
                0.999044
            ],
            "min": [
                0.000838339,
                0.000936835
            ]
        },
        {
            "bufferView": 2,
            "componentType": 5125,
            "count": 2964,
            "type": "SCALAR",
            "max": [
                1383
            ],
            "min": [
                0
            ]
        }
    ],
    "images": [
        {
            "uri": "../../textures/KontSet.tga"
        }
    ],
    "samplers": [
        {
            "magFilter": 9729,
            "minFilter": 9987,
            "wrapS": 10497,
            "wrapT": 10497
        }
    ],
    "textures": [
        {
            "sampler": 0,
            "source": 0
        }
    ],
    "materials": [
        {
            "pbrMetallicRoughness": {
                "baseColorTexture": {
                    "index": 0,
                    "texCoord": 0
                }
            },
            "alphaMode": "BLEND"
        }
    ],
    "meshes": [
        {
            "primitives": [
                {
                    "attributes": {
                        "POSITION": 0,
                        "TEXCOORD_0": 1
                    },
                    "indices": 2,
                    "material": 0,
                    "mode": 4
                }
            ]
        }
    ],
    "nodes": [
        {
            "mesh": 0
        }
    ],
    "scenes": [
        {
            "nodes": [ 0 ]
        }
    ],
    "scene": 0
}
