{
    "asset": {
        "version": "2.0"
    },
    "buffers": [
        {
            "uri": "bin/op2l.bin",
            "byteLength": 84856
        }
    ],
    "bufferViews": [
        {
            "buffer": 0,
            "byteOffset": 0,
            "byteLength": 35376,
            "target": 34962
        },
        {
            "buffer": 0,
            "byteOffset": 35376,
            "byteLength": 23584,
            "target": 34962
        },
        {
            "buffer": 0,
            "byteOffset": 58960,
            "byteLength": 25896,
            "target": 34963
        }
    ],
    "accessors": [
        {
            "bufferView": 0,
            "componentType": 5126,
            "count": 2948,
            "type": "VEC3",
            "max": [
                3.75001,
                10.3599,
                0.34915
            ],
            "min": [
                -15.4559,
                -1.96516,
                -50.3491
            ]
        },
        {
            "bufferView": 1,
            "componentType": 5126,
            "count": 2948,
            "type": "VEC2",
            "max": [
                0.999351,
                0.999044
            ],
            "min": [
                -0.563033,
                0.000936835
            ]
        },
        {
            "bufferView": 2,
            "componentType": 5125,
            "count": 6474,
            "type": "SCALAR",
            "max": [
                2947
            ],
            "min": [
                0
            ]
        }
    ],
    "images": [
        {
            "uri": "../../textures/KontSet.tga"
        }
    ],
    "samplers": [
        {
            "magFilter": 9729,
            "minFilter": 9987,
            "wrapS": 10497,
            "wrapT": 10497
        }
    ],
    "textures": [
        {
            "sampler": 0,
            "source": 0
        }
    ],
    "materials": [
        {
            "pbrMetallicRoughness": {
                "baseColorTexture": {
                    "index": 0,
                    "texCoord": 0
                }
            },
            "alphaMode": "BLEND"
        }
    ],
    "meshes": [
        {
            "primitives": [
                {
                    "attributes": {
                        "POSITION": 0,
                        "TEXCOORD_0": 1
                    },
                    "indices": 2,
                    "material": 0,
                    "mode": 4
                }
            ]
        }
    ],
    "nodes": [
        {
            "mesh": 0
        }
    ],
    "scenes": [
        {
            "nodes": [ 0 ]
        }
    ],
    "scene": 0
}
