{
    "asset": {
        "version": "2.0"
    },
    "buffers": [
        {
            "uri": "bin/op4l.bin",
            "byteLength": 129968
        }
    ],
    "bufferViews": [
        {
            "buffer": 0,
            "byteOffset": 0,
            "byteLength": 54048,
            "target": 34962
        },
        {
            "buffer": 0,
            "byteOffset": 54048,
            "byteLength": 36032,
            "target": 34962
        },
        {
            "buffer": 0,
            "byteOffset": 90080,
            "byteLength": 39888,
            "target": 34963
        }
    ],
    "accessors": [
        {
            "bufferView": 0,
            "componentType": 5126,
            "count": 4504,
            "type": "VEC3",
            "max": [
                3.75003,
                10.3599,
                0.349152
            ],
            "min": [
                -30.4568,
                -1.96516,
                -50.3491
            ]
        },
        {
            "bufferView": 1,
            "componentType": 5126,
            "count": 4504,
            "type": "VEC2",
            "max": [
                2.00134,
                0.999044
            ],
            "min": [
                -0.68688,
                0.000936835
            ]
        },
        {
            "bufferView": 2,
            "componentType": 5125,
            "count": 9972,
            "type": "SCALAR",
            "max": [
                4503
            ],
            "min": [
                0
            ]
        }
    ],
    "images": [
        {
            "uri": "../../textures/KontSet.tga"
        }
    ],
    "samplers": [
        {
            "magFilter": 9729,
            "minFilter": 9987,
            "wrapS": 10497,
            "wrapT": 10497
        }
    ],
    "textures": [
        {
            "sampler": 0,
            "source": 0
        }
    ],
    "materials": [
        {
            "pbrMetallicRoughness": {
                "baseColorTexture": {
                    "index": 0,
                    "texCoord": 0
                }
            },
            "alphaMode": "BLEND"
        }
    ],
    "meshes": [
        {
            "primitives": [
                {
                    "attributes": {
                        "POSITION": 0,
                        "TEXCOORD_0": 1
                    },
                    "indices": 2,
                    "material": 0,
                    "mode": 4
                }
            ]
        }
    ],
    "nodes": [
        {
            "mesh": 0
        }
    ],
    "scenes": [
        {
            "nodes": [ 0 ]
        }
    ],
    "scene": 0
}
