{
    "asset": {
        "version": "2.0"
    },
    "buffers": [
        {
            "uri": "bin/opk1000r.bin",
            "byteLength": 62944
        }
    ],
    "bufferViews": [
        {
            "buffer": 0,
            "byteOffset": 0,
            "byteLength": 27024,
            "target": 34962
        },
        {
            "buffer": 0,
            "byteOffset": 27024,
            "byteLength": 18016,
            "target": 34962
        },
        {
            "buffer": 0,
            "byteOffset": 45040,
            "byteLength": 17904,
            "target": 34963
        }
    ],
    "accessors": [
        {
            "bufferView": 0,
            "componentType": 5126,
            "count": 2252,
            "type": "VEC3",
            "max": [
                5.09738,
                9.52933,
                1.20758
            ],
            "min": [
                -1.5229,
                -1.96516,
                -100.861
            ]
        },
        {
            "bufferView": 1,
            "componentType": 5126,
            "count": 2252,
            "type": "VEC2",
            "max": [
                0.999579,
                0.864454
            ],
            "min": [
                7.08508e-05,
                6.49497e-05
            ]
        },
        {
            "bufferView": 2,
            "componentType": 5125,
            "count": 4476,
            "type": "SCALAR",
            "max": [
                2251
            ],
            "min": [
                0
            ]
        }
    ],
    "images": [
        {
            "uri": "../../textures/KontSet.tga"
        }
    ],
    "samplers": [
        {
            "magFilter": 9729,
            "minFilter": 9987,
            "wrapS": 10497,
            "wrapT": 10497
        }
    ],
    "textures": [
        {
            "sampler": 0,
            "source": 0
        }
    ],
    "materials": [
        {
            "pbrMetallicRoughness": {
                "baseColorTexture": {
                    "index": 0,
                    "texCoord": 0
                }
            },
            "alphaMode": "BLEND"
        }
    ],
    "meshes": [
        {
            "primitives": [
                {
                    "attributes": {
                        "POSITION": 0,
                        "TEXCOORD_0": 1
                    },
                    "indices": 2,
                    "material": 0,
                    "mode": 4
                }
            ]
        }
    ],
    "nodes": [
        {
            "mesh": 0
        }
    ],
    "scenes": [
        {
            "nodes": [ 0 ]
        }
    ],
    "scene": 0
}
