{
    "asset": {
        "version": "2.0"
    },
    "buffers": [
        {
            "uri": "bin/wire_switch.bin",
            "byteLength": 58800
        }
    ],
    "bufferViews": [
        {
            "buffer": 0,
            "byteOffset": 0,
            "byteLength": 18036,
            "target": 34962
        },
        {
            "buffer": 0,
            "byteOffset": 18036,
            "byteLength": 18036,
            "target": 34962
        },
        {
            "buffer": 0,
            "byteOffset": 36072,
            "byteLength": 12024,
            "target": 34962
        },
        {
            "buffer": 0,
            "byteOffset": 48096,
            "byteLength": 10704,
            "target": 34963
        }
    ],
    "accessors": [
        {
            "bufferView": 0,
            "componentType": 5126,
            "count": 1503,
            "type": "VEC3",
            "max": [
                0.406349,
                8.28732,
                0.0109367
            ],
            "min": [
                -0.329741,
                6.49004,
                -100.004
            ]
        },
        {
            "bufferView": 1,
            "componentType": 5126,
            "count": 1503,
            "type": "VEC3",
            "max": [
                1,
                1,
                1
            ],
            "min": [
                -1,
                -1,
                -1
            ]
        },
        {
            "bufferView": 2,
            "componentType": 5126,
            "count": 1503,
            "type": "VEC2",
            "max": [
                0.997783,
                0.8647
            ],
            "min": [
                0.188946,
                0.411795
            ]
        },
        {
            "bufferView": 3,
            "componentType": 5125,
            "count": 2676,
            "type": "SCALAR",
            "max": [
                1502
            ],
            "min": [
                0
            ]
        }
    ],
    "images": [
        {
            "uri": "../../textures/KontSet.tga"
        }
    ],
    "samplers": [
        {
            "magFilter": 9729,
            "minFilter": 9987,
            "wrapS": 10497,
            "wrapT": 10497
        }
    ],
    "textures": [
        {
            "sampler": 0,
            "source": 0
        }
    ],
    "materials": [
        {
            "pbrMetallicRoughness": {
                "baseColorTexture": {
                    "index": 0,
                    "texCoord": 0
                }
            },
            "alphaMode": "BLEND"
        }
    ],
    "meshes": [
        {
            "primitives": [
                {
                    "attributes": {
                        "POSITION": 0,
                        "NORMAL": 1,
                        "TEXCOORD_0": 2
                    },
                    "indices": 3,
                    "material": 0,
                    "mode": 4
                }
            ]
        }
    ],
    "nodes": [
        {
            "mesh": 0
        }
    ],
    "scenes": [
        {
            "nodes": [ 0 ]
        }
    ],
    "scene": 0
}
