{
    "asset": {
        "version": "2.0"
    },
    "buffers": [
        {
            "uri": "bin/wire.bin",
            "byteLength": 60800
        }
    ],
    "bufferViews": [
        {
            "buffer": 0,
            "byteOffset": 0,
            "byteLength": 18192,
            "target": 34962
        },
        {
            "buffer": 0,
            "byteOffset": 18192,
            "byteLength": 18192,
            "target": 34962
        },
        {
            "buffer": 0,
            "byteOffset": 36384,
            "byteLength": 12128,
            "target": 34962
        },
        {
            "buffer": 0,
            "byteOffset": 48512,
            "byteLength": 12288,
            "target": 34963
        }
    ],
    "accessors": [
        {
            "bufferView": 0,
            "componentType": 5126,
            "count": 1516,
            "type": "VEC3",
            "max": [
                1.69398,
                9.97857,
                0.133653
            ],
            "min": [
                -1.6949,
                6.49008,
                -100.008
            ]
        },
        {
            "bufferView": 1,
            "componentType": 5126,
            "count": 1516,
            "type": "VEC3",
            "max": [
                1,
                1,
                1
            ],
            "min": [
                -1,
                -0.999999,
                -1
            ]
        },
        {
            "bufferView": 2,
            "componentType": 5126,
            "count": 1516,
            "type": "VEC2",
            "max": [
                0.997783,
                0.8647
            ],
            "min": [
                0.0726362,
                0.479644
            ]
        },
        {
            "bufferView": 3,
            "componentType": 5125,
            "count": 3072,
            "type": "SCALAR",
            "max": [
                1515
            ],
            "min": [
                0
            ]
        }
    ],
    "images": [
        {
            "uri": "../../textures/KontSet.tga"
        }
    ],
    "samplers": [
        {
            "magFilter": 9729,
            "minFilter": 9987,
            "wrapS": 10497,
            "wrapT": 10497
        }
    ],
    "textures": [
        {
            "sampler": 0,
            "source": 0
        }
    ],
    "materials": [
        {
            "pbrMetallicRoughness": {
                "baseColorTexture": {
                    "index": 0,
                    "texCoord": 0
                }
            },
            "alphaMode": "BLEND"
        }
    ],
    "meshes": [
        {
            "primitives": [
                {
                    "attributes": {
                        "POSITION": 0,
                        "NORMAL": 1,
                        "TEXCOORD_0": 2
                    },
                    "indices": 3,
                    "material": 0,
                    "mode": 4
                }
            ]
        }
    ],
    "nodes": [
        {
            "mesh": 0
        }
    ],
    "scenes": [
        {
            "nodes": [ 0 ]
        }
    ],
    "scene": 0
}
