{
    "asset": {
        "version": "2.0"
    },
    "buffers": [
        {
            "uri": "bin/1track1+2.bin",
            "byteLength": 107744
        }
    ],
    "bufferViews": [
        {
            "buffer": 0,
            "byteOffset": 0,
            "byteLength": 47604,
            "target": 34962
        },
        {
            "buffer": 0,
            "byteOffset": 47604,
            "byteLength": 31736,
            "target": 34962
        },
        {
            "buffer": 0,
            "byteOffset": 79340,
            "byteLength": 28404,
            "target": 34963
        }
    ],
    "accessors": [
        {
            "bufferView": 0,
            "componentType": 5126,
            "count": 3967,
            "type": "VEC3",
            "max": [
                22.9539,
                0.577428,
                1.00012
            ],
            "min": [
                -15.4415,
                -10.051,
                -101.03
            ]
        },
        {
            "bufferView": 1,
            "componentType": 5126,
            "count": 3967,
            "type": "VEC2",
            "max": [
                0.999923,
                6.99963
            ],
            "min": [
                0,
                -4.21504
            ]
        },
        {
            "bufferView": 2,
            "componentType": 5125,
            "count": 7101,
            "type": "SCALAR",
            "max": [
                3966
            ],
            "min": [
                0
            ]
        }
    ],
    "images": [
        {
            "uri": "../../textures/TrackSections.tga"
        }
    ],
    "samplers": [
        {
            "magFilter": 9729,
            "minFilter": 9987,
            "wrapS": 10497,
            "wrapT": 10497
        }
    ],
    "textures": [
        {
            "sampler": 0,
            "source": 0
        }
    ],
    "materials": [
        {
            "pbrMetallicRoughness": {
                "baseColorTexture": {
                    "index": 0,
                    "texCoord": 0
                }
            },
            "alphaMode": "BLEND"
        }
    ],
    "meshes": [
        {
            "primitives": [
                {
                    "attributes": {
                        "POSITION": 0,
                        "TEXCOORD_0": 1
                    },
                    "indices": 2,
                    "material": 0,
                    "mode": 4
                }
            ]
        }
    ],
    "nodes": [
        {
            "mesh": 0
        }
    ],
    "scenes": [
        {
            "nodes": [ 0 ]
        }
    ],
    "scene": 0
}
