{
    "asset": {
        "version": "2.0"
    },
    "buffers": [
        {
            "uri": "bin/1track2000r.bin",
            "byteLength": 38088
        }
    ],
    "bufferViews": [
        {
            "buffer": 0,
            "byteOffset": 0,
            "byteLength": 16416,
            "target": 34962
        },
        {
            "buffer": 0,
            "byteOffset": 16416,
            "byteLength": 10944,
            "target": 34962
        },
        {
            "buffer": 0,
            "byteOffset": 27360,
            "byteLength": 10728,
            "target": 34963
        }
    ],
    "accessors": [
        {
            "bufferView": 0,
            "componentType": 5126,
            "count": 1368,
            "type": "VEC3",
            "max": [
                17.9894,
                0.311454,
                1.00778
            ],
            "min": [
                -15.4415,
                -10.051,
                -101.741
            ]
        },
        {
            "bufferView": 1,
            "componentType": 5126,
            "count": 1368,
            "type": "VEC2",
            "max": [
                0.999402,
                0.999555
            ],
            "min": [
                0,
                0.000686826
            ]
        },
        {
            "bufferView": 2,
            "componentType": 5125,
            "count": 2682,
            "type": "SCALAR",
            "max": [
                1367
            ],
            "min": [
                0
            ]
        }
    ],
    "images": [
        {
            "uri": "../../textures/TrackSections.tga"
        }
    ],
    "samplers": [
        {
            "magFilter": 9729,
            "minFilter": 9987,
            "wrapS": 10497,
            "wrapT": 10497
        }
    ],
    "textures": [
        {
            "sampler": 0,
            "source": 0
        }
    ],
    "materials": [
        {
            "pbrMetallicRoughness": {
                "baseColorTexture": {
                    "index": 0,
                    "texCoord": 0
                }
            },
            "alphaMode": "BLEND"
        }
    ],
    "meshes": [
        {
            "primitives": [
                {
                    "attributes": {
                        "POSITION": 0,
                        "TEXCOORD_0": 1
                    },
                    "indices": 2,
                    "material": 0,
                    "mode": 4
                }
            ]
        }
    ],
    "nodes": [
        {
            "mesh": 0
        }
    ],
    "scenes": [
        {
            "nodes": [ 0 ]
        }
    ],
    "scene": 0
}
