{
    "asset": {
        "version": "2.0"
    },
    "buffers": [
        {
            "uri": "bin/1track.bin",
            "byteLength": 11912
        }
    ],
    "bufferViews": [
        {
            "buffer": 0,
            "byteOffset": 0,
            "byteLength": 3576,
            "target": 34962
        },
        {
            "buffer": 0,
            "byteOffset": 3576,
            "byteLength": 3576,
            "target": 34962
        },
        {
            "buffer": 0,
            "byteOffset": 7152,
            "byteLength": 2384,
            "target": 34962
        },
        {
            "buffer": 0,
            "byteOffset": 9536,
            "byteLength": 2376,
            "target": 34963
        }
    ],
    "accessors": [
        {
            "bufferView": 0,
            "componentType": 5126,
            "count": 298,
            "type": "VEC3",
            "max": [
                15.4415,
                0.311454,
                1.00004
            ],
            "min": [
                -15.4415,
                -10.051,
                -101
            ]
        },
        {
            "bufferView": 1,
            "componentType": 5126,
            "count": 298,
            "type": "VEC3",
            "max": [
                1,
                1,
                1
            ],
            "min": [
                -1,
                -0.999773,
                -0.0397356
            ]
        },
        {
            "bufferView": 2,
            "componentType": 5126,
            "count": 298,
            "type": "VEC2",
            "max": [
                1,
                5.99836
            ],
            "min": [
                0,
                -3.99888
            ]
        },
        {
            "bufferView": 3,
            "componentType": 5125,
            "count": 594,
            "type": "SCALAR",
            "max": [
                297
            ],
            "min": [
                0
            ]
        }
    ],
    "images": [
        {
            "uri": "../../textures/TrackSections.tga"
        }
    ],
    "samplers": [
        {
            "magFilter": 9729,
            "minFilter": 9987,
            "wrapS": 10497,
            "wrapT": 10497
        }
    ],
    "textures": [
        {
            "sampler": 0,
            "source": 0
        }
    ],
    "materials": [
        {
            "pbrMetallicRoughness": {
                "baseColorTexture": {
                    "index": 0,
                    "texCoord": 0
                }
            },
            "alphaMode": "BLEND"
        }
    ],
    "meshes": [
        {
            "primitives": [
                {
                    "attributes": {
                        "POSITION": 0,
                        "NORMAL": 1,
                        "TEXCOORD_0": 2
                    },
                    "indices": 3,
                    "material": 0,
                    "mode": 4
                }
            ]
        }
    ],
    "nodes": [
        {
            "mesh": 0
        }
    ],
    "scenes": [
        {
            "nodes": [ 0 ]
        }
    ],
    "scene": 0
}
