{
    "asset": {
        "version": "2.0"
    },
    "buffers": [
        {
            "uri": "bin/2track2+2.bin",
            "byteLength": 243840
        }
    ],
    "bufferViews": [
        {
            "buffer": 0,
            "byteOffset": 0,
            "byteLength": 75024,
            "target": 34962
        },
        {
            "buffer": 0,
            "byteOffset": 75024,
            "byteLength": 75024,
            "target": 34962
        },
        {
            "buffer": 0,
            "byteOffset": 150048,
            "byteLength": 50016,
            "target": 34962
        },
        {
            "buffer": 0,
            "byteOffset": 200064,
            "byteLength": 43776,
            "target": 34963
        }
    ],
    "accessors": [
        {
            "bufferView": 0,
            "componentType": 5126,
            "count": 6252,
            "type": "VEC3",
            "max": [
                19.1796,
                0.577428,
                1.00014
            ],
            "min": [
                -19.2034,
                -10.051,
                -101
            ]
        },
        {
            "bufferView": 1,
            "componentType": 5126,
            "count": 6252,
            "type": "VEC3",
            "max": [
                1,
                1,
                1
            ],
            "min": [
                -1,
                -1,
                -1
            ]
        },
        {
            "bufferView": 2,
            "componentType": 5126,
            "count": 6252,
            "type": "VEC2",
            "max": [
                0.999923,
                6.99963
            ],
            "min": [
                0,
                -4.21504
            ]
        },
        {
            "bufferView": 3,
            "componentType": 5125,
            "count": 10944,
            "type": "SCALAR",
            "max": [
                6251
            ],
            "min": [
                0
            ]
        }
    ],
    "images": [
        {
            "uri": "../../textures/TrackSections.tga"
        }
    ],
    "samplers": [
        {
            "magFilter": 9729,
            "minFilter": 9987,
            "wrapS": 10497,
            "wrapT": 10497
        }
    ],
    "textures": [
        {
            "sampler": 0,
            "source": 0
        }
    ],
    "materials": [
        {
            "pbrMetallicRoughness": {
                "baseColorTexture": {
                    "index": 0,
                    "texCoord": 0
                }
            },
            "alphaMode": "BLEND"
        }
    ],
    "meshes": [
        {
            "primitives": [
                {
                    "attributes": {
                        "POSITION": 0,
                        "NORMAL": 1,
                        "TEXCOORD_0": 2
                    },
                    "indices": 3,
                    "material": 0,
                    "mode": 4
                }
            ]
        }
    ],
    "nodes": [
        {
            "mesh": 0
        }
    ],
    "scenes": [
        {
            "nodes": [ 0 ]
        }
    ],
    "scene": 0
}
