{
  "accessors": [
    {
      "bufferView": 0,
      "componentType": 5126,
      "count": 10,
      "max": [
        0.04874992370605469,
        0.059828758239746094,
        4.261853536746685e-09
      ],
      "min": [
        -0.04874992370605469,
        -0.05982851982116699,
        -0.03656291961669922
      ],
      "type": "VEC3"
    },
    {
      "bufferView": 1,
      "componentType": 5126,
      "count": 10,
      "type": "VEC3"
    },
    {
      "bufferView": 2,
      "componentType": 5126,
      "count": 10,
      "type": "VEC2"
    },
    {
      "bufferView": 3,
      "componentType": 5123,
      "count": 24,
      "type": "SCALAR"
    },
    {
      "bufferView": 4,
      "componentType": 5126,
      "count": 10,
      "max": [
        0.04874992370605469,
        0.059828758239746094,
        0.03656291961669922
      ],
      "min": [
        -0.04874992370605469,
        -0.05982851982116699,
        0
      ],
      "type": "VEC3"
    },
    {
      "bufferView": 5,
      "componentType": 5126,
      "count": 10,
      "type": "VEC3"
    },
    {
      "bufferView": 6,
      "componentType": 5126,
      "count": 10,
      "type": "VEC2"
    },
    {
      "bufferView": 7,
      "componentType": 5126,
      "count": 50,
      "max": [
        0.07664000988006592,
        0.13866686820983887,
        0.03750038146972656
      ],
      "min": [
        -0.08386003971099854,
        -0.11274313926696777,
        -0.0034008026123046875
      ],
      "type": "VEC3"
    },
    {
      "bufferView": 8,
      "componentType": 5126,
      "count": 50,
      "type": "VEC3"
    },
    {
      "bufferView": 9,
      "componentType": 5126,
      "count": 50,
      "type": "VEC2"
    },
    {
      "bufferView": 10,
      "componentType": 5123,
      "count": 96,
      "type": "SCALAR"
    },
    {
      "bufferView": 11,
      "componentType": 5126,
      "count": 10,
      "max": [
        0.04999995231628418,
        0.05318117141723633,
        0.03750038146972656
      ],
      "min": [
        -0.04999995231628418,
        -0.05318093299865723,
        0
      ],
      "type": "VEC3"
    },
    {
      "bufferView": 12,
      "componentType": 5126,
      "count": 10,
      "type": "VEC3"
    },
    {
      "bufferView": 13,
      "componentType": 5126,
      "count": 10,
      "type": "VEC2"
    },
    {
      "bufferView": 14,
      "componentType": 5126,
      "count": 756,
      "max": [
        1.5354000329971313,
        1.1775699853897095,
        -1.0672800540924072
      ],
      "min": [
        -1.5354000329971313,
        0.41936996579170227,
        -6.13877010345459
      ],
      "type": "VEC3"
    },
    {
      "bufferView": 15,
      "componentType": 5126,
      "count": 756,
      "type": "VEC3"
    },
    {
      "bufferView": 16,
      "componentType": 5126,
      "count": 756,
      "type": "VEC2"
    },
    {
      "bufferView": 17,
      "componentType": 5123,
      "count": 756,
      "type": "SCALAR"
    },
    {
      "bufferView": 18,
      "componentType": 5126,
      "count": 1320,
      "max": [
        -0.11196698993444443,
        1.1898829936981201,
        1.584704041481018
      ],
      "min": [
        -1.1427420377731323,
        0.4641359746456146,
        -0.8995271921157837
      ],
      "type": "VEC3"
    },
    {
      "bufferView": 19,
      "componentType": 5126,
      "count": 1320,
      "type": "VEC3"
    },
    {
      "bufferView": 20,
      "componentType": 5126,
      "count": 1320,
      "type": "VEC2"
    },
    {
      "bufferView": 21,
      "componentType": 5123,
      "count": 1320,
      "type": "SCALAR"
    },
    {
      "bufferView": 22,
      "componentType": 5126,
      "count": 2292,
      "max": [
        1.419667363166809,
        1.15339994430542,
        11.772056579589844
      ],
      "min": [
        -1.4730252027511597,
        0.28458431363105774,
        -11.772400856018066
      ],
      "type": "VEC3"
    },
    {
      "bufferView": 23,
      "componentType": 5126,
      "count": 2292,
      "type": "VEC3"
    },
    {
      "bufferView": 24,
      "componentType": 5126,
      "count": 2292,
      "type": "VEC2"
    },
    {
      "bufferView": 25,
      "componentType": 5123,
      "count": 2292,
      "type": "SCALAR"
    },
    {
      "bufferView": 26,
      "componentType": 5126,
      "count": 24,
      "max": [
        1.3129892349243164,
        1.109984040260315,
        -1.3537999391555786
      ],
      "min": [
        0.8079814910888672,
        0.4330122768878937,
        -2.6313188076019287
      ],
      "type": "VEC3"
    },
    {
      "bufferView": 27,
      "componentType": 5126,
      "count": 24,
      "type": "VEC3"
    },
    {
      "bufferView": 28,
      "componentType": 5126,
      "count": 24,
      "type": "VEC2"
    },
    {
      "bufferView": 29,
      "componentType": 5123,
      "count": 24,
      "type": "SCALAR"
    },
    {
      "bufferView": 30,
      "componentType": 5126,
      "count": 838,
      "max": [
        1.5290700197219849,
        4.35655403137207,
        12.211299896240234
      ],
      "min": [
        -1.5290100574493408,
        0.8305739164352417,
        -12.212599754333496
      ],
      "type": "VEC3"
    },
    {
      "bufferView": 31,
      "componentType": 5126,
      "count": 838,
      "type": "VEC3"
    },
    {
      "bufferView": 32,
      "componentType": 5126,
      "count": 838,
      "type": "VEC2"
    },
    {
      "bufferView": 33,
      "componentType": 5123,
      "count": 906,
      "type": "SCALAR"
    },
    {
      "bufferView": 34,
      "componentType": 5126,
      "count": 13764,
      "max": [
        1.594249963760376,
        1.0720199346542358,
        10.649849891662598
      ],
      "min": [
        -1.594249963760376,
        0.19289496541023254,
        6.750150203704834
      ],
      "type": "VEC3"
    },
    {
      "bufferView": 35,
      "componentType": 5126,
      "count": 13764,
      "type": "VEC3"
    },
    {
      "bufferView": 36,
      "componentType": 5126,
      "count": 13764,
      "type": "VEC2"
    },
    {
      "bufferView": 37,
      "componentType": 5123,
      "count": 13764,
      "type": "SCALAR"
    },
    {
      "bufferView": 38,
      "componentType": 5126,
      "count": 732,
      "max": [
        0.8512402772903442,
        0.5169913172721863,
        0.5090779066085815
      ],
      "min": [
        -0.851239800453186,
        -0.5168986916542053,
        -0.50910484790802
      ],
      "type": "VEC3"
    },
    {
      "bufferView": 39,
      "componentType": 5126,
      "count": 732,
      "type": "VEC3"
    },
    {
      "bufferView": 40,
      "componentType": 5126,
      "count": 732,
      "type": "VEC2"
    },
    {
      "bufferView": 41,
      "componentType": 5123,
      "count": 732,
      "type": "SCALAR"
    },
    {
      "bufferView": 42,
      "componentType": 5126,
      "count": 900,
      "max": [
        0.8512398600578308,
        0.5170027613639832,
        0.5090670585632324
      ],
      "min": [
        -0.8512402176856995,
        -0.5168872475624084,
        -0.5091161727905273
      ],
      "type": "VEC3"
    },
    {
      "bufferView": 43,
      "componentType": 5126,
      "count": 900,
      "type": "VEC3"
    },
    {
      "bufferView": 44,
      "componentType": 5126,
      "count": 900,
      "type": "VEC2"
    },
    {
      "bufferView": 45,
      "componentType": 5123,
      "count": 900,
      "type": "SCALAR"
    },
    {
      "bufferView": 46,
      "componentType": 5126,
      "count": 13248,
      "max": [
        1.594249963760376,
        1.0720199346542358,
        -6.750150203704834
      ],
      "min": [
        -1.594249963760376,
        0.19289496541023254,
        -10.649849891662598
      ],
      "type": "VEC3"
    },
    {
      "bufferView": 47,
      "componentType": 5126,
      "count": 13248,
      "type": "VEC3"
    },
    {
      "bufferView": 48,
      "componentType": 5126,
      "count": 13248,
      "type": "VEC2"
    },
    {
      "bufferView": 49,
      "componentType": 5123,
      "count": 13248,
      "type": "SCALAR"
    },
    {
      "bufferView": 50,
      "componentType": 5126,
      "count": 732,
      "max": [
        0.8512402176856995,
        0.516991376876831,
        0.5090756416320801
      ],
      "min": [
        -0.8512398600578308,
        -0.5168986320495605,
        -0.5091075897216797
      ],
      "type": "VEC3"
    },
    {
      "bufferView": 51,
      "componentType": 5126,
      "count": 732,
      "type": "VEC3"
    },
    {
      "bufferView": 52,
      "componentType": 5126,
      "count": 732,
      "type": "VEC2"
    },
    {
      "bufferView": 53,
      "componentType": 5126,
      "count": 732,
      "max": [
        0.8512402176856995,
        0.5169914364814758,
        0.5090770721435547
      ],
      "min": [
        -0.8512398600578308,
        -0.5168985724449158,
        -0.5091056823730469
      ],
      "type": "VEC3"
    },
    {
      "bufferView": 54,
      "componentType": 5126,
      "count": 732,
      "type": "VEC3"
    },
    {
      "bufferView": 55,
      "componentType": 5126,
      "count": 732,
      "type": "VEC2"
    },
    {
      "bufferView": 56,
      "componentType": 5126,
      "count": 474,
      "max": [
        0.3796430230140686,
        0.876380205154419,
        5.422224998474121
      ],
      "min": [
        -0.3774740695953369,
        0.24941220879554749,
        4.65121603012085
      ],
      "type": "VEC3"
    },
    {
      "bufferView": 57,
      "componentType": 5126,
      "count": 474,
      "type": "VEC3"
    },
    {
      "bufferView": 58,
      "componentType": 5126,
      "count": 474,
      "type": "VEC2"
    },
    {
      "bufferView": 59,
      "componentType": 5123,
      "count": 474,
      "type": "SCALAR"
    },
    {
      "bufferView": 60,
      "componentType": 5126,
      "count": 180,
      "max": [
        0.7646843194961548,
        0.04975926876068115,
        0.06569545716047287
      ],
      "min": [
        -0.7613458633422852,
        -0.05418598651885986,
        -0.06522395461797714
      ],
      "type": "VEC3"
    },
    {
      "bufferView": 61,
      "componentType": 5126,
      "count": 180,
      "type": "VEC3"
    },
    {
      "bufferView": 62,
      "componentType": 5126,
      "count": 180,
      "type": "VEC2"
    },
    {
      "bufferView": 63,
      "componentType": 5123,
      "count": 180,
      "type": "SCALAR"
    },
    {
      "bufferView": 64,
      "componentType": 5126,
      "count": 132,
      "max": [
        0.09600311517715454,
        0.13468118011951447,
        0.1353897899389267
      ],
      "min": [
        -0.08290190994739532,
        -0.12322479486465454,
        -0.13539014756679535
      ],
      "type": "VEC3"
    },
    {
      "bufferView": 65,
      "componentType": 5126,
      "count": 132,
      "type": "VEC3"
    },
    {
      "bufferView": 66,
      "componentType": 5126,
      "count": 132,
      "type": "VEC2"
    },
    {
      "bufferView": 67,
      "componentType": 5123,
      "count": 132,
      "type": "SCALAR"
    },
    {
      "bufferView": 68,
      "componentType": 5126,
      "count": 312,
      "max": [
        1.279770016670227,
        1.2592930793762207,
        12.496600151062012
      ],
      "min": [
        -1.279770016670227,
        0.8681631088256836,
        -12.496600151062012
      ],
      "type": "VEC3"
    },
    {
      "bufferView": 69,
      "componentType": 5126,
      "count": 312,
      "type": "VEC3"
    },
    {
      "bufferView": 70,
      "componentType": 5126,
      "count": 312,
      "type": "VEC2"
    },
    {
      "bufferView": 71,
      "componentType": 5123,
      "count": 312,
      "type": "SCALAR"
    },
    {
      "bufferView": 72,
      "componentType": 5126,
      "count": 144,
      "max": [
        1.5460904836654663,
        1.127864956855774,
        1.006002426147461
      ],
      "min": [
        -1.2416126728057861,
        0.4831019341945648,
        0.6536151170730591
      ],
      "type": "VEC3"
    },
    {
      "bufferView": 73,
      "componentType": 5126,
      "count": 144,
      "type": "VEC3"
    },
    {
      "bufferView": 74,
      "componentType": 5126,
      "count": 144,
      "type": "VEC2"
    },
    {
      "bufferView": 75,
      "componentType": 5123,
      "count": 144,
      "type": "SCALAR"
    },
    {
      "bufferView": 76,
      "componentType": 5126,
      "count": 252,
      "max": [
        -0.6658239960670471,
        4.38235330581665,
        10.639899253845215
      ],
      "min": [
        -1.2851719856262207,
        4.102104187011719,
        -11.607992172241211
      ],
      "type": "VEC3"
    },
    {
      "bufferView": 77,
      "componentType": 5126,
      "count": 252,
      "type": "VEC3"
    },
    {
      "bufferView": 78,
      "componentType": 5126,
      "count": 252,
      "type": "VEC2"
    },
    {
      "bufferView": 79,
      "componentType": 5123,
      "count": 252,
      "type": "SCALAR"
    },
    {
      "bufferView": 80,
      "componentType": 5126,
      "count": 12,
      "max": [
        0.4108690023422241,
        1.9172539710998535,
        12.346199989318848
      ],
      "min": [
        -0.4108709990978241,
        1.399893879890442,
        -12.346199989318848
      ],
      "type": "VEC3"
    },
    {
      "bufferView": 81,
      "componentType": 5126,
      "count": 12,
      "type": "VEC3"
    },
    {
      "bufferView": 82,
      "componentType": 5126,
      "count": 12,
      "type": "VEC2"
    },
    {
      "bufferView": 83,
      "componentType": 5123,
      "count": 12,
      "type": "SCALAR"
    },
    {
      "bufferView": 84,
      "componentType": 5126,
      "count": 204,
      "max": [
        -0.1312084197998047,
        1.190845012664795,
        5.128117084503174
      ],
      "min": [
        -0.7063539028167725,
        0.7378145456314087,
        3.652622938156128
      ],
      "type": "VEC3"
    },
    {
      "bufferView": 85,
      "componentType": 5126,
      "count": 204,
      "type": "VEC3"
    },
    {
      "bufferView": 86,
      "componentType": 5126,
      "count": 204,
      "type": "VEC2"
    },
    {
      "bufferView": 87,
      "componentType": 5123,
      "count": 204,
      "type": "SCALAR"
    },
    {
      "bufferView": 88,
      "componentType": 5126,
      "count": 636,
      "max": [
        0.4727019965648651,
        1.0040339231491089,
        12.563699722290039
      ],
      "min": [
        -0.06939209997653961,
        0.3739180266857147,
        9.935600280761719
      ],
      "type": "VEC3"
    },
    {
      "bufferView": 89,
      "componentType": 5126,
      "count": 636,
      "type": "VEC3"
    },
    {
      "bufferView": 90,
      "componentType": 5126,
      "count": 636,
      "type": "VEC2"
    },
    {
      "bufferView": 91,
      "componentType": 5123,
      "count": 636,
      "type": "SCALAR"
    },
    {
      "bufferView": 92,
      "componentType": 5126,
      "count": 636,
      "max": [
        0.0693902000784874,
        1.0040339231491089,
        -9.935600280761719
      ],
      "min": [
        -0.4727030098438263,
        0.3739180266857147,
        -12.563699722290039
      ],
      "type": "VEC3"
    },
    {
      "bufferView": 93,
      "componentType": 5126,
      "count": 636,
      "type": "VEC3"
    },
    {
      "bufferView": 94,
      "componentType": 5126,
      "count": 636,
      "type": "VEC2"
    },
    {
      "bufferView": 95,
      "componentType": 5126,
      "count": 636,
      "max": [
        1.4115300178527832,
        4.396270275115967,
        12.329099655151367
      ],
      "min": [
        -1.4115300178527832,
        1.2252299785614014,
        -12.329099655151367
      ],
      "type": "VEC3"
    },
    {
      "bufferView": 96,
      "componentType": 5126,
      "count": 636,
      "type": "VEC3"
    },
    {
      "bufferView": 97,
      "componentType": 5126,
      "count": 636,
      "type": "VEC2"
    },
    {
      "bufferView": 98,
      "componentType": 5126,
      "count": 1509,
      "max": [
        1.495166301727295,
        1.1200884580612183,
        3.1516075134277344
      ],
      "min": [
        -0.8403764963150024,
        0.2658984363079071,
        -1.2176309823989868
      ],
      "type": "VEC3"
    },
    {
      "bufferView": 99,
      "componentType": 5126,
      "count": 1509,
      "type": "VEC3"
    },
    {
      "bufferView": 100,
      "componentType": 5126,
      "count": 1509,
      "type": "VEC2"
    },
    {
      "bufferView": 101,
      "componentType": 5123,
      "count": 1509,
      "type": "SCALAR"
    },
    {
      "bufferView": 102,
      "componentType": 5126,
      "count": 288,
      "max": [
        0.4973732531070709,
        3.3483099937438965,
        12.203399658203125
      ],
      "min": [
        -0.4972767233848572,
        2.329319953918457,
        -12.203399658203125
      ],
      "type": "VEC3"
    },
    {
      "bufferView": 103,
      "componentType": 5126,
      "count": 288,
      "type": "VEC3"
    },
    {
      "bufferView": 104,
      "componentType": 5126,
      "count": 288,
      "type": "VEC2"
    },
    {
      "bufferView": 105,
      "componentType": 5123,
      "count": 288,
      "type": "SCALAR"
    },
    {
      "bufferView": 106,
      "componentType": 5126,
      "count": 306,
      "max": [
        -0.8865818381309509,
        1.5547739267349243,
        -12.071200370788574
      ],
      "min": [
        -1.3628119230270386,
        0.43290600180625916,
        -12.34529972076416
      ],
      "type": "VEC3"
    },
    {
      "bufferView": 107,
      "componentType": 5126,
      "count": 306,
      "type": "VEC3"
    },
    {
      "bufferView": 108,
      "componentType": 5126,
      "count": 306,
      "type": "VEC2"
    },
    {
      "bufferView": 109,
      "componentType": 5123,
      "count": 306,
      "type": "SCALAR"
    },
    {
      "bufferView": 110,
      "componentType": 5126,
      "count": 306,
      "max": [
        0.9251142144203186,
        0.777877926826477,
        12.883536338806152
      ],
      "min": [
        0.7872790098190308,
        0.2575148046016693,
        12.07115364074707
      ],
      "type": "VEC3"
    },
    {
      "bufferView": 111,
      "componentType": 5126,
      "count": 306,
      "type": "VEC3"
    },
    {
      "bufferView": 112,
      "componentType": 5126,
      "count": 306,
      "type": "VEC2"
    },
    {
      "bufferView": 113,
      "componentType": 5126,
      "count": 528,
      "max": [
        1.5294500589370728,
        1.3172239065170288,
        11.928400039672852
      ],
      "min": [
        -1.5288900136947632,
        1.1017539501190186,
        -11.928400039672852
      ],
      "type": "VEC3"
    },
    {
      "bufferView": 114,
      "componentType": 5126,
      "count": 528,
      "type": "VEC3"
    },
    {
      "bufferView": 115,
      "componentType": 5126,
      "count": 528,
      "type": "VEC2"
    },
    {
      "bufferView": 116,
      "componentType": 5123,
      "count": 528,
      "type": "SCALAR"
    },
    {
      "bufferView": 117,
      "componentType": 5126,
      "count": 24,
      "max": [
        0.0971062034368515,
        0.9921839237213135,
        11.900899887084961
      ],
      "min": [
        -0.09710799902677536,
        0.3488280475139618,
        -11.900899887084961
      ],
      "type": "VEC3"
    },
    {
      "bufferView": 118,
      "componentType": 5126,
      "count": 24,
      "type": "VEC3"
    },
    {
      "bufferView": 119,
      "componentType": 5126,
      "count": 24,
      "type": "VEC2"
    },
    {
      "bufferView": 120,
      "componentType": 5126,
      "count": 768,
      "max": [
        1.5424000024795532,
        2.680673837661743,
        12.071100234985352
      ],
      "min": [
        -1.5423500537872314,
        1.384813904762268,
        -12.071100234985352
      ],
      "type": "VEC3"
    },
    {
      "bufferView": 121,
      "componentType": 5126,
      "count": 768,
      "type": "VEC3"
    },
    {
      "bufferView": 122,
      "componentType": 5126,
      "count": 768,
      "type": "VEC2"
    },
    {
      "bufferView": 123,
      "componentType": 5123,
      "count": 768,
      "type": "SCALAR"
    },
    {
      "bufferView": 124,
      "componentType": 5126,
      "count": 288,
      "max": [
        0.327908992767334,
        1.1882526874542236,
        6.52546501159668
      ],
      "min": [
        -0.3258621394634247,
        0.23998776078224182,
        5.749654293060303
      ],
      "type": "VEC3"
    },
    {
      "bufferView": 125,
      "componentType": 5126,
      "count": 288,
      "type": "VEC3"
    },
    {
      "bufferView": 126,
      "componentType": 5126,
      "count": 288,
      "type": "VEC2"
    },
    {
      "bufferView": 127,
      "componentType": 5126,
      "count": 216,
      "max": [
        0.6742200255393982,
        1.19923996925354,
        6.547369956970215
      ],
      "min": [
        -0.6876260042190552,
        0.8926699161529541,
        -6.5474700927734375
      ],
      "type": "VEC3"
    },
    {
      "bufferView": 128,
      "componentType": 5126,
      "count": 216,
      "type": "VEC3"
    },
    {
      "bufferView": 129,
      "componentType": 5126,
      "count": 216,
      "type": "VEC2"
    },
    {
      "bufferView": 130,
      "componentType": 5123,
      "count": 216,
      "type": "SCALAR"
    },
    {
      "bufferView": 131,
      "componentType": 5126,
      "count": 462,
      "max": [
        0.39119791984558105,
        1.194046974182129,
        5.602391719818115
      ],
      "min": [
        -0.3894646167755127,
        0.21379300951957703,
        4.24702787399292
      ],
      "type": "VEC3"
    },
    {
      "bufferView": 132,
      "componentType": 5126,
      "count": 462,
      "type": "VEC3"
    },
    {
      "bufferView": 133,
      "componentType": 5126,
      "count": 462,
      "type": "VEC2"
    },
    {
      "bufferView": 134,
      "componentType": 5123,
      "count": 462,
      "type": "SCALAR"
    },
    {
      "bufferView": 135,
      "componentType": 5126,
      "count": 786,
      "max": [
        1.3588299751281738,
        1.0411139726638794,
        12.365400314331055
      ],
      "min": [
        -1.3588299751281738,
        0.4465239942073822,
        -12.365400314331055
      ],
      "type": "VEC3"
    },
    {
      "bufferView": 136,
      "componentType": 5126,
      "count": 786,
      "type": "VEC3"
    },
    {
      "bufferView": 137,
      "componentType": 5126,
      "count": 786,
      "type": "VEC2"
    },
    {
      "bufferView": 138,
      "componentType": 5123,
      "count": 786,
      "type": "SCALAR"
    },
    {
      "bufferView": 139,
      "componentType": 5126,
      "count": 384,
      "max": [
        0.8905868530273438,
        3.6673200130462646,
        12.505800247192383
      ],
      "min": [
        -0.8900181651115417,
        1.3947099447250366,
        -12.505800247192383
      ],
      "type": "VEC3"
    },
    {
      "bufferView": 140,
      "componentType": 5126,
      "count": 384,
      "type": "VEC3"
    },
    {
      "bufferView": 141,
      "componentType": 5126,
      "count": 384,
      "type": "VEC2"
    },
    {
      "bufferView": 142,
      "componentType": 5123,
      "count": 384,
      "type": "SCALAR"
    },
    {
      "bufferView": 143,
      "componentType": 5126,
      "count": 534,
      "max": [
        0.9393069744110107,
        1.3161839246749878,
        12.14579963684082
      ],
      "min": [
        -0.9393090009689331,
        0.6648269891738892,
        -12.14579963684082
      ],
      "type": "VEC3"
    },
    {
      "bufferView": 144,
      "componentType": 5126,
      "count": 534,
      "type": "VEC3"
    },
    {
      "bufferView": 145,
      "componentType": 5126,
      "count": 534,
      "type": "VEC2"
    },
    {
      "bufferView": 146,
      "componentType": 5123,
      "count": 534,
      "type": "SCALAR"
    },
    {
      "bufferView": 147,
      "componentType": 5126,
      "count": 606,
      "max": [
        0.2796057164669037,
        1.2874269485473633,
        12.63521957397461
      ],
      "min": [
        -0.26976561546325684,
        0.833745002746582,
        11.662010192871094
      ],
      "type": "VEC3"
    },
    {
      "bufferView": 148,
      "componentType": 5126,
      "count": 606,
      "type": "VEC3"
    },
    {
      "bufferView": 149,
      "componentType": 5126,
      "count": 606,
      "type": "VEC2"
    },
    {
      "bufferView": 150,
      "componentType": 5123,
      "count": 606,
      "type": "SCALAR"
    },
    {
      "bufferView": 151,
      "componentType": 5126,
      "count": 606,
      "max": [
        0.2697637975215912,
        1.2874269485473633,
        -11.662010192871094
      ],
      "min": [
        -0.2796076238155365,
        0.833745002746582,
        -12.63521957397461
      ],
      "type": "VEC3"
    },
    {
      "bufferView": 152,
      "componentType": 5126,
      "count": 606,
      "type": "VEC3"
    },
    {
      "bufferView": 153,
      "componentType": 5126,
      "count": 606,
      "type": "VEC2"
    },
    {
      "bufferView": 154,
      "componentType": 5126,
      "count": 756,
      "max": [
        1.5850199460983276,
        1.1913039684295654,
        11.95479965209961
      ],
      "min": [
        -1.5850199460983276,
        0.449938029050827,
        -11.92080020904541
      ],
      "type": "VEC3"
    },
    {
      "bufferView": 155,
      "componentType": 5126,
      "count": 756,
      "type": "VEC3"
    },
    {
      "bufferView": 156,
      "componentType": 5126,
      "count": 756,
      "type": "VEC2"
    },
    {
      "bufferView": 157,
      "componentType": 5126,
      "count": 168,
      "max": [
        0.7940530180931091,
        4.395910263061523,
        11.96090030670166
      ],
      "min": [
        -0.808555006980896,
        4.2696003913879395,
        -11.958600044250488
      ],
      "type": "VEC3"
    },
    {
      "bufferView": 158,
      "componentType": 5126,
      "count": 168,
      "type": "VEC3"
    },
    {
      "bufferView": 159,
      "componentType": 5126,
      "count": 168,
      "type": "VEC2"
    },
    {
      "bufferView": 160,
      "componentType": 5123,
      "count": 168,
      "type": "SCALAR"
    },
    {
      "bufferView": 161,
      "componentType": 5126,
      "count": 354,
      "max": [
        0.6804669499397278,
        1.2055399417877197,
        7.133760929107666
      ],
      "min": [
        -0.6804659962654114,
        0.8750560283660889,
        -7.143208980560303
      ],
      "type": "VEC3"
    },
    {
      "bufferView": 162,
      "componentType": 5126,
      "count": 354,
      "type": "VEC3"
    },
    {
      "bufferView": 163,
      "componentType": 5126,
      "count": 354,
      "type": "VEC2"
    },
    {
      "bufferView": 164,
      "componentType": 5123,
      "count": 354,
      "type": "SCALAR"
    },
    {
      "bufferView": 165,
      "componentType": 5126,
      "count": 360,
      "max": [
        1.3345509767532349,
        4.576735019683838,
        10.751230239868164
      ],
      "min": [
        0.6517990231513977,
        4.1112380027771,
        8.8996000289917
      ],
      "type": "VEC3"
    },
    {
      "bufferView": 166,
      "componentType": 5126,
      "count": 360,
      "type": "VEC3"
    },
    {
      "bufferView": 167,
      "componentType": 5126,
      "count": 360,
      "type": "VEC2"
    },
    {
      "bufferView": 168,
      "componentType": 5123,
      "count": 360,
      "type": "SCALAR"
    },
    {
      "bufferView": 169,
      "componentType": 5126,
      "count": 24,
      "max": [
        1.527999997138977,
        1.1683599948883057,
        11.966300010681152
      ],
      "min": [
        -1.528980016708374,
        0.9041500091552734,
        -11.966300010681152
      ],
      "type": "VEC3"
    },
    {
      "bufferView": 170,
      "componentType": 5126,
      "count": 24,
      "type": "VEC3"
    },
    {
      "bufferView": 171,
      "componentType": 5126,
      "count": 24,
      "type": "VEC2"
    },
    {
      "bufferView": 172,
      "componentType": 5126,
      "count": 24,
      "max": [
        1.3692959547042847,
        1.1362041234970093,
        6.017881870269775
      ],
      "min": [
        0.834443986415863,
        0.3806159794330597,
        5.029397487640381
      ],
      "type": "VEC3"
    },
    {
      "bufferView": 173,
      "componentType": 5126,
      "count": 24,
      "type": "VEC3"
    },
    {
      "bufferView": 174,
      "componentType": 5126,
      "count": 24,
      "type": "VEC2"
    },
    {
      "bufferView": 175,
      "componentType": 5126,
      "count": 72,
      "max": [
        -0.7926374077796936,
        1.1355597972869873,
        2.896468162536621
      ],
      "min": [
        -1.3613626956939697,
        0.42330655455589294,
        1.754455327987671
      ],
      "type": "VEC3"
    },
    {
      "bufferView": 176,
      "componentType": 5126,
      "count": 72,
      "type": "VEC3"
    },
    {
      "bufferView": 177,
      "componentType": 5126,
      "count": 72,
      "type": "VEC2"
    },
    {
      "bufferView": 178,
      "componentType": 5123,
      "count": 72,
      "type": "SCALAR"
    },
    {
      "bufferView": 179,
      "componentType": 5126,
      "count": 744,
      "max": [
        -0.795212984085083,
        1.1952461004257202,
        5.8761701583862305
      ],
      "min": [
        -1.4192670583724976,
        0.37991419434547424,
        3.056741952896118
      ],
      "type": "VEC3"
    },
    {
      "bufferView": 180,
      "componentType": 5126,
      "count": 744,
      "type": "VEC3"
    },
    {
      "bufferView": 181,
      "componentType": 5126,
      "count": 744,
      "type": "VEC2"
    },
    {
      "bufferView": 182,
      "componentType": 5123,
      "count": 744,
      "type": "SCALAR"
    },
    {
      "bufferView": 183,
      "componentType": 5126,
      "count": 60,
      "max": [
        1.36651611328125,
        1.136203646659851,
        4.455534934997559
      ],
      "min": [
        0.7883036732673645,
        0.38061580061912537,
        3.1854052543640137
      ],
      "type": "VEC3"
    },
    {
      "bufferView": 184,
      "componentType": 5126,
      "count": 60,
      "type": "VEC3"
    },
    {
      "bufferView": 185,
      "componentType": 5126,
      "count": 60,
      "type": "VEC2"
    },
    {
      "bufferView": 186,
      "componentType": 5123,
      "count": 60,
      "type": "SCALAR"
    },
    {
      "bufferView": 187,
      "componentType": 5126,
      "count": 696,
      "max": [
        1.419619083404541,
        1.8127598762512207,
        12.427102088928223
      ],
      "min": [
        -1.4196245670318604,
        1.5433399677276611,
        -12.427080154418945
      ],
      "type": "VEC3"
    },
    {
      "bufferView": 188,
      "componentType": 5126,
      "count": 696,
      "type": "VEC3"
    },
    {
      "bufferView": 189,
      "componentType": 5126,
      "count": 696,
      "type": "VEC2"
    },
    {
      "bufferView": 190,
      "componentType": 5123,
      "count": 696,
      "type": "SCALAR"
    }
  ],
  "asset": {
    "generator": "Khronos glTF Blender I/O v4.4.56",
    "version": "2.0"
  },
  "bufferViews": [
    {
      "buffer": 0,
      "byteLength": 120,
      "byteOffset": 0,
      "target": 34962
    },
    {
      "buffer": 0,
      "byteLength": 120,
      "byteOffset": 120,
      "target": 34962
    },
    {
      "buffer": 0,
      "byteLength": 80,
      "byteOffset": 240,
      "target": 34962
    },
    {
      "buffer": 0,
      "byteLength": 48,
      "byteOffset": 320,
      "target": 34963
    },
    {
      "buffer": 0,
      "byteLength": 120,
      "byteOffset": 368,
      "target": 34962
    },
    {
      "buffer": 0,
      "byteLength": 120,
      "byteOffset": 488,
      "target": 34962
    },
    {
      "buffer": 0,
      "byteLength": 80,
      "byteOffset": 608,
      "target": 34962
    },
    {
      "buffer": 0,
      "byteLength": 600,
      "byteOffset": 688,
      "target": 34962
    },
    {
      "buffer": 0,
      "byteLength": 600,
      "byteOffset": 1288,
      "target": 34962
    },
    {
      "buffer": 0,
      "byteLength": 400,
      "byteOffset": 1888,
      "target": 34962
    },
    {
      "buffer": 0,
      "byteLength": 192,
      "byteOffset": 2288,
      "target": 34963
    },
    {
      "buffer": 0,
      "byteLength": 120,
      "byteOffset": 2480,
      "target": 34962
    },
    {
      "buffer": 0,
      "byteLength": 120,
      "byteOffset": 2600,
      "target": 34962
    },
    {
      "buffer": 0,
      "byteLength": 80,
      "byteOffset": 2720,
      "target": 34962
    },
    {
      "buffer": 0,
      "byteLength": 9072,
      "byteOffset": 2800,
      "target": 34962
    },
    {
      "buffer": 0,
      "byteLength": 9072,
      "byteOffset": 11872,
      "target": 34962
    },
    {
      "buffer": 0,
      "byteLength": 6048,
      "byteOffset": 20944,
      "target": 34962
    },
    {
      "buffer": 0,
      "byteLength": 1512,
      "byteOffset": 26992,
      "target": 34963
    },
    {
      "buffer": 0,
      "byteLength": 15840,
      "byteOffset": 28504,
      "target": 34962
    },
    {
      "buffer": 0,
      "byteLength": 15840,
      "byteOffset": 44344,
      "target": 34962
    },
    {
      "buffer": 0,
      "byteLength": 10560,
      "byteOffset": 60184,
      "target": 34962
    },
    {
      "buffer": 0,
      "byteLength": 2640,
      "byteOffset": 70744,
      "target": 34963
    },
    {
      "buffer": 0,
      "byteLength": 27504,
      "byteOffset": 73384,
      "target": 34962
    },
    {
      "buffer": 0,
      "byteLength": 27504,
      "byteOffset": 100888,
      "target": 34962
    },
    {
      "buffer": 0,
      "byteLength": 18336,
      "byteOffset": 128392,
      "target": 34962
    },
    {
      "buffer": 0,
      "byteLength": 4584,
      "byteOffset": 146728,
      "target": 34963
    },
    {
      "buffer": 0,
      "byteLength": 288,
      "byteOffset": 151312,
      "target": 34962
    },
    {
      "buffer": 0,
      "byteLength": 288,
      "byteOffset": 151600,
      "target": 34962
    },
    {
      "buffer": 0,
      "byteLength": 192,
      "byteOffset": 151888,
      "target": 34962
    },
    {
      "buffer": 0,
      "byteLength": 48,
      "byteOffset": 152080,
      "target": 34963
    },
    {
      "buffer": 0,
      "byteLength": 10056,
      "byteOffset": 152128,
      "target": 34962
    },
    {
      "buffer": 0,
      "byteLength": 10056,
      "byteOffset": 162184,
      "target": 34962
    },
    {
      "buffer": 0,
      "byteLength": 6704,
      "byteOffset": 172240,
      "target": 34962
    },
    {
      "buffer": 0,
      "byteLength": 1812,
      "byteOffset": 178944,
      "target": 34963
    },
    {
      "buffer": 0,
      "byteLength": 165168,
      "byteOffset": 180756,
      "target": 34962
    },
    {
      "buffer": 0,
      "byteLength": 165168,
      "byteOffset": 345924,
      "target": 34962
    },
    {
      "buffer": 0,
      "byteLength": 110112,
      "byteOffset": 511092,
      "target": 34962
    },
    {
      "buffer": 0,
      "byteLength": 27528,
      "byteOffset": 621204,
      "target": 34963
    },
    {
      "buffer": 0,
      "byteLength": 8784,
      "byteOffset": 648732,
      "target": 34962
    },
    {
      "buffer": 0,
      "byteLength": 8784,
      "byteOffset": 657516,
      "target": 34962
    },
    {
      "buffer": 0,
      "byteLength": 5856,
      "byteOffset": 666300,
      "target": 34962
    },
    {
      "buffer": 0,
      "byteLength": 1464,
      "byteOffset": 672156,
      "target": 34963
    },
    {
      "buffer": 0,
      "byteLength": 10800,
      "byteOffset": 673620,
      "target": 34962
    },
    {
      "buffer": 0,
      "byteLength": 10800,
      "byteOffset": 684420,
      "target": 34962
    },
    {
      "buffer": 0,
      "byteLength": 7200,
      "byteOffset": 695220,
      "target": 34962
    },
    {
      "buffer": 0,
      "byteLength": 1800,
      "byteOffset": 702420,
      "target": 34963
    },
    {
      "buffer": 0,
      "byteLength": 158976,
      "byteOffset": 704220,
      "target": 34962
    },
    {
      "buffer": 0,
      "byteLength": 158976,
      "byteOffset": 863196,
      "target": 34962
    },
    {
      "buffer": 0,
      "byteLength": 105984,
      "byteOffset": 1022172,
      "target": 34962
    },
    {
      "buffer": 0,
      "byteLength": 26496,
      "byteOffset": 1128156,
      "target": 34963
    },
    {
      "buffer": 0,
      "byteLength": 8784,
      "byteOffset": 1154652,
      "target": 34962
    },
    {
      "buffer": 0,
      "byteLength": 8784,
      "byteOffset": 1163436,
      "target": 34962
    },
    {
      "buffer": 0,
      "byteLength": 5856,
      "byteOffset": 1172220,
      "target": 34962
    },
    {
      "buffer": 0,
      "byteLength": 8784,
      "byteOffset": 1178076,
      "target": 34962
    },
    {
      "buffer": 0,
      "byteLength": 8784,
      "byteOffset": 1186860,
      "target": 34962
    },
    {
      "buffer": 0,
      "byteLength": 5856,
      "byteOffset": 1195644,
      "target": 34962
    },
    {
      "buffer": 0,
      "byteLength": 5688,
      "byteOffset": 1201500,
      "target": 34962
    },
    {
      "buffer": 0,
      "byteLength": 5688,
      "byteOffset": 1207188,
      "target": 34962
    },
    {
      "buffer": 0,
      "byteLength": 3792,
      "byteOffset": 1212876,
      "target": 34962
    },
    {
      "buffer": 0,
      "byteLength": 948,
      "byteOffset": 1216668,
      "target": 34963
    },
    {
      "buffer": 0,
      "byteLength": 2160,
      "byteOffset": 1217616,
      "target": 34962
    },
    {
      "buffer": 0,
      "byteLength": 2160,
      "byteOffset": 1219776,
      "target": 34962
    },
    {
      "buffer": 0,
      "byteLength": 1440,
      "byteOffset": 1221936,
      "target": 34962
    },
    {
      "buffer": 0,
      "byteLength": 360,
      "byteOffset": 1223376,
      "target": 34963
    },
    {
      "buffer": 0,
      "byteLength": 1584,
      "byteOffset": 1223736,
      "target": 34962
    },
    {
      "buffer": 0,
      "byteLength": 1584,
      "byteOffset": 1225320,
      "target": 34962
    },
    {
      "buffer": 0,
      "byteLength": 1056,
      "byteOffset": 1226904,
      "target": 34962
    },
    {
      "buffer": 0,
      "byteLength": 264,
      "byteOffset": 1227960,
      "target": 34963
    },
    {
      "buffer": 0,
      "byteLength": 3744,
      "byteOffset": 1228224,
      "target": 34962
    },
    {
      "buffer": 0,
      "byteLength": 3744,
      "byteOffset": 1231968,
      "target": 34962
    },
    {
      "buffer": 0,
      "byteLength": 2496,
      "byteOffset": 1235712,
      "target": 34962
    },
    {
      "buffer": 0,
      "byteLength": 624,
      "byteOffset": 1238208,
      "target": 34963
    },
    {
      "buffer": 0,
      "byteLength": 1728,
      "byteOffset": 1238832,
      "target": 34962
    },
    {
      "buffer": 0,
      "byteLength": 1728,
      "byteOffset": 1240560,
      "target": 34962
    },
    {
      "buffer": 0,
      "byteLength": 1152,
      "byteOffset": 1242288,
      "target": 34962
    },
    {
      "buffer": 0,
      "byteLength": 288,
      "byteOffset": 1243440,
      "target": 34963
    },
    {
      "buffer": 0,
      "byteLength": 3024,
      "byteOffset": 1243728,
      "target": 34962
    },
    {
      "buffer": 0,
      "byteLength": 3024,
      "byteOffset": 1246752,
      "target": 34962
    },
    {
      "buffer": 0,
      "byteLength": 2016,
      "byteOffset": 1249776,
      "target": 34962
    },
    {
      "buffer": 0,
      "byteLength": 504,
      "byteOffset": 1251792,
      "target": 34963
    },
    {
      "buffer": 0,
      "byteLength": 144,
      "byteOffset": 1252296,
      "target": 34962
    },
    {
      "buffer": 0,
      "byteLength": 144,
      "byteOffset": 1252440,
      "target": 34962
    },
    {
      "buffer": 0,
      "byteLength": 96,
      "byteOffset": 1252584,
      "target": 34962
    },
    {
      "buffer": 0,
      "byteLength": 24,
      "byteOffset": 1252680,
      "target": 34963
    },
    {
      "buffer": 0,
      "byteLength": 2448,
      "byteOffset": 1252704,
      "target": 34962
    },
    {
      "buffer": 0,
      "byteLength": 2448,
      "byteOffset": 1255152,
      "target": 34962
    },
    {
      "buffer": 0,
      "byteLength": 1632,
      "byteOffset": 1257600,
      "target": 34962
    },
    {
      "buffer": 0,
      "byteLength": 408,
      "byteOffset": 1259232,
      "target": 34963
    },
    {
      "buffer": 0,
      "byteLength": 7632,
      "byteOffset": 1259640,
      "target": 34962
    },
    {
      "buffer": 0,
      "byteLength": 7632,
      "byteOffset": 1267272,
      "target": 34962
    },
    {
      "buffer": 0,
      "byteLength": 5088,
      "byteOffset": 1274904,
      "target": 34962
    },
    {
      "buffer": 0,
      "byteLength": 1272,
      "byteOffset": 1279992,
      "target": 34963
    },
    {
      "buffer": 0,
      "byteLength": 7632,
      "byteOffset": 1281264,
      "target": 34962
    },
    {
      "buffer": 0,
      "byteLength": 7632,
      "byteOffset": 1288896,
      "target": 34962
    },
    {
      "buffer": 0,
      "byteLength": 5088,
      "byteOffset": 1296528,
      "target": 34962
    },
    {
      "buffer": 0,
      "byteLength": 7632,
      "byteOffset": 1301616,
      "target": 34962
    },
    {
      "buffer": 0,
      "byteLength": 7632,
      "byteOffset": 1309248,
      "target": 34962
    },
    {
      "buffer": 0,
      "byteLength": 5088,
      "byteOffset": 1316880,
      "target": 34962
    },
    {
      "buffer": 0,
      "byteLength": 18108,
      "byteOffset": 1321968,
      "target": 34962
    },
    {
      "buffer": 0,
      "byteLength": 18108,
      "byteOffset": 1340076,
      "target": 34962
    },
    {
      "buffer": 0,
      "byteLength": 12072,
      "byteOffset": 1358184,
      "target": 34962
    },
    {
      "buffer": 0,
      "byteLength": 3018,
      "byteOffset": 1370256,
      "target": 34963
    },
    {
      "buffer": 0,
      "byteLength": 3456,
      "byteOffset": 1373276,
      "target": 34962
    },
    {
      "buffer": 0,
      "byteLength": 3456,
      "byteOffset": 1376732,
      "target": 34962
    },
    {
      "buffer": 0,
      "byteLength": 2304,
      "byteOffset": 1380188,
      "target": 34962
    },
    {
      "buffer": 0,
      "byteLength": 576,
      "byteOffset": 1382492,
      "target": 34963
    },
    {
      "buffer": 0,
      "byteLength": 3672,
      "byteOffset": 1383068,
      "target": 34962
    },
    {
      "buffer": 0,
      "byteLength": 3672,
      "byteOffset": 1386740,
      "target": 34962
    },
    {
      "buffer": 0,
      "byteLength": 2448,
      "byteOffset": 1390412,
      "target": 34962
    },
    {
      "buffer": 0,
      "byteLength": 612,
      "byteOffset": 1392860,
      "target": 34963
    },
    {
      "buffer": 0,
      "byteLength": 3672,
      "byteOffset": 1393472,
      "target": 34962
    },
    {
      "buffer": 0,
      "byteLength": 3672,
      "byteOffset": 1397144,
      "target": 34962
    },
    {
      "buffer": 0,
      "byteLength": 2448,
      "byteOffset": 1400816,
      "target": 34962
    },
    {
      "buffer": 0,
      "byteLength": 6336,
      "byteOffset": 1403264,
      "target": 34962
    },
    {
      "buffer": 0,
      "byteLength": 6336,
      "byteOffset": 1409600,
      "target": 34962
    },
    {
      "buffer": 0,
      "byteLength": 4224,
      "byteOffset": 1415936,
      "target": 34962
    },
    {
      "buffer": 0,
      "byteLength": 1056,
      "byteOffset": 1420160,
      "target": 34963
    },
    {
      "buffer": 0,
      "byteLength": 288,
      "byteOffset": 1421216,
      "target": 34962
    },
    {
      "buffer": 0,
      "byteLength": 288,
      "byteOffset": 1421504,
      "target": 34962
    },
    {
      "buffer": 0,
      "byteLength": 192,
      "byteOffset": 1421792,
      "target": 34962
    },
    {
      "buffer": 0,
      "byteLength": 9216,
      "byteOffset": 1421984,
      "target": 34962
    },
    {
      "buffer": 0,
      "byteLength": 9216,
      "byteOffset": 1431200,
      "target": 34962
    },
    {
      "buffer": 0,
      "byteLength": 6144,
      "byteOffset": 1440416,
      "target": 34962
    },
    {
      "buffer": 0,
      "byteLength": 1536,
      "byteOffset": 1446560,
      "target": 34963
    },
    {
      "buffer": 0,
      "byteLength": 3456,
      "byteOffset": 1448096,
      "target": 34962
    },
    {
      "buffer": 0,
      "byteLength": 3456,
      "byteOffset": 1451552,
      "target": 34962
    },
    {
      "buffer": 0,
      "byteLength": 2304,
      "byteOffset": 1455008,
      "target": 34962
    },
    {
      "buffer": 0,
      "byteLength": 2592,
      "byteOffset": 1457312,
      "target": 34962
    },
    {
      "buffer": 0,
      "byteLength": 2592,
      "byteOffset": 1459904,
      "target": 34962
    },
    {
      "buffer": 0,
      "byteLength": 1728,
      "byteOffset": 1462496,
      "target": 34962
    },
    {
      "buffer": 0,
      "byteLength": 432,
      "byteOffset": 1464224,
      "target": 34963
    },
    {
      "buffer": 0,
      "byteLength": 5544,
      "byteOffset": 1464656,
      "target": 34962
    },
    {
      "buffer": 0,
      "byteLength": 5544,
      "byteOffset": 1470200,
      "target": 34962
    },
    {
      "buffer": 0,
      "byteLength": 3696,
      "byteOffset": 1475744,
      "target": 34962
    },
    {
      "buffer": 0,
      "byteLength": 924,
      "byteOffset": 1479440,
      "target": 34963
    },
    {
      "buffer": 0,
      "byteLength": 9432,
      "byteOffset": 1480364,
      "target": 34962
    },
    {
      "buffer": 0,
      "byteLength": 9432,
      "byteOffset": 1489796,
      "target": 34962
    },
    {
      "buffer": 0,
      "byteLength": 6288,
      "byteOffset": 1499228,
      "target": 34962
    },
    {
      "buffer": 0,
      "byteLength": 1572,
      "byteOffset": 1505516,
      "target": 34963
    },
    {
      "buffer": 0,
      "byteLength": 4608,
      "byteOffset": 1507088,
      "target": 34962
    },
    {
      "buffer": 0,
      "byteLength": 4608,
      "byteOffset": 1511696,
      "target": 34962
    },
    {
      "buffer": 0,
      "byteLength": 3072,
      "byteOffset": 1516304,
      "target": 34962
    },
    {
      "buffer": 0,
      "byteLength": 768,
      "byteOffset": 1519376,
      "target": 34963
    },
    {
      "buffer": 0,
      "byteLength": 6408,
      "byteOffset": 1520144,
      "target": 34962
    },
    {
      "buffer": 0,
      "byteLength": 6408,
      "byteOffset": 1526552,
      "target": 34962
    },
    {
      "buffer": 0,
      "byteLength": 4272,
      "byteOffset": 1532960,
      "target": 34962
    },
    {
      "buffer": 0,
      "byteLength": 1068,
      "byteOffset": 1537232,
      "target": 34963
    },
    {
      "buffer": 0,
      "byteLength": 7272,
      "byteOffset": 1538300,
      "target": 34962
    },
    {
      "buffer": 0,
      "byteLength": 7272,
      "byteOffset": 1545572,
      "target": 34962
    },
    {
      "buffer": 0,
      "byteLength": 4848,
      "byteOffset": 1552844,
      "target": 34962
    },
    {
      "buffer": 0,
      "byteLength": 1212,
      "byteOffset": 1557692,
      "target": 34963
    },
    {
      "buffer": 0,
      "byteLength": 7272,
      "byteOffset": 1558904,
      "target": 34962
    },
    {
      "buffer": 0,
      "byteLength": 7272,
      "byteOffset": 1566176,
      "target": 34962
    },
    {
      "buffer": 0,
      "byteLength": 4848,
      "byteOffset": 1573448,
      "target": 34962
    },
    {
      "buffer": 0,
      "byteLength": 9072,
      "byteOffset": 1578296,
      "target": 34962
    },
    {
      "buffer": 0,
      "byteLength": 9072,
      "byteOffset": 1587368,
      "target": 34962
    },
    {
      "buffer": 0,
      "byteLength": 6048,
      "byteOffset": 1596440,
      "target": 34962
    },
    {
      "buffer": 0,
      "byteLength": 2016,
      "byteOffset": 1602488,
      "target": 34962
    },
    {
      "buffer": 0,
      "byteLength": 2016,
      "byteOffset": 1604504,
      "target": 34962
    },
    {
      "buffer": 0,
      "byteLength": 1344,
      "byteOffset": 1606520,
      "target": 34962
    },
    {
      "buffer": 0,
      "byteLength": 336,
      "byteOffset": 1607864,
      "target": 34963
    },
    {
      "buffer": 0,
      "byteLength": 4248,
      "byteOffset": 1608200,
      "target": 34962
    },
    {
      "buffer": 0,
      "byteLength": 4248,
      "byteOffset": 1612448,
      "target": 34962
    },
    {
      "buffer": 0,
      "byteLength": 2832,
      "byteOffset": 1616696,
      "target": 34962
    },
    {
      "buffer": 0,
      "byteLength": 708,
      "byteOffset": 1619528,
      "target": 34963
    },
    {
      "buffer": 0,
      "byteLength": 4320,
      "byteOffset": 1620236,
      "target": 34962
    },
    {
      "buffer": 0,
      "byteLength": 4320,
      "byteOffset": 1624556,
      "target": 34962
    },
    {
      "buffer": 0,
      "byteLength": 2880,
      "byteOffset": 1628876,
      "target": 34962
    },
    {
      "buffer": 0,
      "byteLength": 720,
      "byteOffset": 1631756,
      "target": 34963
    },
    {
      "buffer": 0,
      "byteLength": 288,
      "byteOffset": 1632476,
      "target": 34962
    },
    {
      "buffer": 0,
      "byteLength": 288,
      "byteOffset": 1632764,
      "target": 34962
    },
    {
      "buffer": 0,
      "byteLength": 192,
      "byteOffset": 1633052,
      "target": 34962
    },
    {
      "buffer": 0,
      "byteLength": 288,
      "byteOffset": 1633244,
      "target": 34962
    },
    {
      "buffer": 0,
      "byteLength": 288,
      "byteOffset": 1633532,
      "target": 34962
    },
    {
      "buffer": 0,
      "byteLength": 192,
      "byteOffset": 1633820,
      "target": 34962
    },
    {
      "buffer": 0,
      "byteLength": 864,
      "byteOffset": 1634012,
      "target": 34962
    },
    {
      "buffer": 0,
      "byteLength": 864,
      "byteOffset": 1634876,
      "target": 34962
    },
    {
      "buffer": 0,
      "byteLength": 576,
      "byteOffset": 1635740,
      "target": 34962
    },
    {
      "buffer": 0,
      "byteLength": 144,
      "byteOffset": 1636316,
      "target": 34963
    },
    {
      "buffer": 0,
      "byteLength": 8928,
      "byteOffset": 1636460,
      "target": 34962
    },
    {
      "buffer": 0,
      "byteLength": 8928,
      "byteOffset": 1645388,
      "target": 34962
    },
    {
      "buffer": 0,
      "byteLength": 5952,
      "byteOffset": 1654316,
      "target": 34962
    },
    {
      "buffer": 0,
      "byteLength": 1488,
      "byteOffset": 1660268,
      "target": 34963
    },
    {
      "buffer": 0,
      "byteLength": 720,
      "byteOffset": 1661756,
      "target": 34962
    },
    {
      "buffer": 0,
      "byteLength": 720,
      "byteOffset": 1662476,
      "target": 34962
    },
    {
      "buffer": 0,
      "byteLength": 480,
      "byteOffset": 1663196,
      "target": 34962
    },
    {
      "buffer": 0,
      "byteLength": 120,
      "byteOffset": 1663676,
      "target": 34963
    },
    {
      "buffer": 0,
      "byteLength": 8352,
      "byteOffset": 1663796,
      "target": 34962
    },
    {
      "buffer": 0,
      "byteLength": 8352,
      "byteOffset": 1672148,
      "target": 34962
    },
    {
      "buffer": 0,
      "byteLength": 5568,
      "byteOffset": 1680500,
      "target": 34962
    },
    {
      "buffer": 0,
      "byteLength": 1392,
      "byteOffset": 1686068,
      "target": 34963
    }
  ],
  "buffers": [
    {
      "byteLength": 1687460,
      "uri": "Pass_CupAmm1.bin"
    }
  ],
  "extensionsUsed": [
    "KHR_materials_specular"
  ],
  "images": [
    {
      "name": "pass_rzd-13819",
      "uri": "T_pass_rzd-13819\\pass_rzd-13819.ktx2"
    }
  ],
  "materials": [
    {
      "emissiveTexture": {
        "index": 0
      },
      "extensions": {
        "KHR_materials_specular": {
          "specularFactor": 0
        }
      },
      "name": "Material_pass_13819_emission",
      "pbrMetallicRoughness": {
        "baseColorFactor": [
          0,
          0,
          0,
          1
        ],
        "roughnessFactor": 0.5
      }
    },
    {
      "extensions": {
        "KHR_materials_specular": {
          "specularFactor": 0
        }
      },
      "name": "Material_pass_13819",
      "pbrMetallicRoughness": {
        "baseColorTexture": {
          "index": 1
        },
        "roughnessFactor": 0.75
      }
    },
    {
      "alphaMode": "BLEND",
      "extensions": {
        "KHR_materials_specular": {
          "specularFactor": 0
        }
      },
      "name": "Material_pass_13819_alfa",
      "pbrMetallicRoughness": {
        "baseColorFactor": [
          1,
          1,
          1,
          0.25
        ],
        "baseColorTexture": {
          "index": 2
        },
        "roughnessFactor": 0.125
      }
    },
    {
      "doubleSided": true,
      "extensions": {
        "KHR_materials_specular": {
          "specularFactor": 0
        }
      },
      "name": "Material_pass_13819_two_sided",
      "pbrMetallicRoughness": {
        "baseColorTexture": {
          "index": 3
        },
        "roughnessFactor": 0.75
      }
    },
    {
      "extensions": {
        "KHR_materials_specular": {
          "specularFactor": 0
        }
      },
      "name": "Material_pass_13819_rezina",
      "pbrMetallicRoughness": {
        "baseColorTexture": {
          "index": 4
        },
        "metallicFactor": 0.0625,
        "roughnessFactor": 0.875
      }
    }
  ],
  "meshes": [
    {
      "name": "End_of_train_red_fwd",
      "primitives": [
        {
          "attributes": {
            "NORMAL": 1,
            "POSITION": 0,
            "TEXCOORD_0": 2
          },
          "indices": 3,
          "material": 0
        }
      ]
    },
    {
      "name": "End_of_train_red_bwd",
      "primitives": [
        {
          "attributes": {
            "NORMAL": 5,
            "POSITION": 4,
            "TEXCOORD_0": 6
          },
          "indices": 3,
          "material": 0
        }
      ]
    },
    {
      "name": "End_of_train_lamps",
      "primitives": [
        {
          "attributes": {
            "NORMAL": 8,
            "POSITION": 7,
            "TEXCOORD_0": 9
          },
          "indices": 10,
          "material": 1
        },
        {
          "attributes": {
            "NORMAL": 12,
            "POSITION": 11,
            "TEXCOORD_0": 13
          },
          "indices": 3,
          "material": 2
        }
      ]
    },
    {
      "name": "AB",
      "primitives": [
        {
          "attributes": {
            "NORMAL": 15,
            "POSITION": 14,
            "TEXCOORD_0": 16
          },
          "indices": 17,
          "material": 1
        }
      ]
    },
    {
      "name": "Avtotormoz",
      "primitives": [
        {
          "attributes": {
            "NORMAL": 19,
            "POSITION": 18,
            "TEXCOORD_0": 20
          },
          "indices": 21,
          "material": 1
        }
      ]
    },
    {
      "name": "Bak_ECHT",
      "primitives": [
        {
          "attributes": {
            "NORMAL": 23,
            "POSITION": 22,
            "TEXCOORD_0": 24
          },
          "indices": 25,
          "material": 1
        }
      ]
    },
    {
      "name": "Belevoy_yachik",
      "primitives": [
        {
          "attributes": {
            "NORMAL": 27,
            "POSITION": 26,
            "TEXCOORD_0": 28
          },
          "indices": 29,
          "material": 1
        }
      ]
    },
    {
      "name": "Body",
      "primitives": [
        {
          "attributes": {
            "NORMAL": 31,
            "POSITION": 30,
            "TEXCOORD_0": 32
          },
          "indices": 33,
          "material": 3
        }
      ]
    },
    {
      "name": "Boige-1",
      "primitives": [
        {
          "attributes": {
            "NORMAL": 35,
            "POSITION": 34,
            "TEXCOORD_0": 36
          },
          "indices": 37,
          "material": 1
        }
      ]
    },
    {
      "name": "Wheel-1",
      "primitives": [
        {
          "attributes": {
            "NORMAL": 39,
            "POSITION": 38,
            "TEXCOORD_0": 40
          },
          "indices": 41,
          "material": 1
        }
      ]
    },
    {
      "name": "Wheel-2",
      "primitives": [
        {
          "attributes": {
            "NORMAL": 43,
            "POSITION": 42,
            "TEXCOORD_0": 44
          },
          "indices": 45,
          "material": 1
        }
      ]
    },
    {
      "name": "Boige-2",
      "primitives": [
        {
          "attributes": {
            "NORMAL": 47,
            "POSITION": 46,
            "TEXCOORD_0": 48
          },
          "indices": 49,
          "material": 1
        }
      ]
    },
    {
      "name": "Wheel-3",
      "primitives": [
        {
          "attributes": {
            "NORMAL": 51,
            "POSITION": 50,
            "TEXCOORD_0": 52
          },
          "indices": 41,
          "material": 1
        }
      ]
    },
    {
      "name": "Wheel-4",
      "primitives": [
        {
          "attributes": {
            "NORMAL": 54,
            "POSITION": 53,
            "TEXCOORD_0": 55
          },
          "indices": 41,
          "material": 1
        }
      ]
    },
    {
      "name": "DCG-4435",
      "primitives": [
        {
          "attributes": {
            "NORMAL": 57,
            "POSITION": 56,
            "TEXCOORD_0": 58
          },
          "indices": 59,
          "material": 1
        }
      ]
    },
    {
      "name": "Gen_Kardan",
      "primitives": [
        {
          "attributes": {
            "NORMAL": 61,
            "POSITION": 60,
            "TEXCOORD_0": 62
          },
          "indices": 63,
          "material": 1
        }
      ]
    },
    {
      "name": "Gen_Mufta1",
      "primitives": [
        {
          "attributes": {
            "NORMAL": 65,
            "POSITION": 64,
            "TEXCOORD_0": 66
          },
          "indices": 67,
          "material": 1
        }
      ]
    },
    {
      "name": "Bufera",
      "primitives": [
        {
          "attributes": {
            "NORMAL": 69,
            "POSITION": 68,
            "TEXCOORD_0": 70
          },
          "indices": 71,
          "material": 1
        }
      ]
    },
    {
      "name": "otpuskVR",
      "primitives": [
        {
          "attributes": {
            "NORMAL": 73,
            "POSITION": 72,
            "TEXCOORD_0": 74
          },
          "indices": 75,
          "material": 1
        }
      ]
    },
    {
      "name": "Deflektor",
      "primitives": [
        {
          "attributes": {
            "NORMAL": 77,
            "POSITION": 76,
            "TEXCOORD_0": 78
          },
          "indices": 79,
          "material": 1
        }
      ]
    },
    {
      "name": "Fartuki",
      "primitives": [
        {
          "attributes": {
            "NORMAL": 81,
            "POSITION": 80,
            "TEXCOORD_0": 82
          },
          "indices": 83,
          "material": 1
        }
      ]
    },
    {
      "name": "Kabel_G",
      "primitives": [
        {
          "attributes": {
            "NORMAL": 85,
            "POSITION": 84,
            "TEXCOORD_0": 86
          },
          "indices": 87,
          "material": 4
        }
      ]
    },
    {
      "name": "KoncevoyRuk_1",
      "primitives": [
        {
          "attributes": {
            "NORMAL": 89,
            "POSITION": 88,
            "TEXCOORD_0": 90
          },
          "indices": 91,
          "material": 4
        }
      ]
    },
    {
      "name": "KoncevoyRuk_2",
      "primitives": [
        {
          "attributes": {
            "NORMAL": 93,
            "POSITION": 92,
            "TEXCOORD_0": 94
          },
          "indices": 91,
          "material": 4
        }
      ]
    },
    {
      "name": "LestnicaKrisha",
      "primitives": [
        {
          "attributes": {
            "NORMAL": 96,
            "POSITION": 95,
            "TEXCOORD_0": 97
          },
          "indices": 91,
          "material": 1
        }
      ]
    },
    {
      "name": "MAB-II",
      "primitives": [
        {
          "attributes": {
            "NORMAL": 99,
            "POSITION": 98,
            "TEXCOORD_0": 100
          },
          "indices": 101,
          "material": 1
        }
      ]
    },
    {
      "name": "Perehod_det",
      "primitives": [
        {
          "attributes": {
            "NORMAL": 103,
            "POSITION": 102,
            "TEXCOORD_0": 104
          },
          "indices": 105,
          "material": 1
        }
      ]
    },
    {
      "name": "PinchOFF",
      "primitives": [
        {
          "attributes": {
            "NORMAL": 107,
            "POSITION": 106,
            "TEXCOORD_0": 108
          },
          "indices": 109,
          "material": 4
        }
      ]
    },
    {
      "name": "PinchON",
      "primitives": [
        {
          "attributes": {
            "NORMAL": 111,
            "POSITION": 110,
            "TEXCOORD_0": 112
          },
          "indices": 109,
          "material": 4
        }
      ]
    },
    {
      "name": "Podtambur",
      "primitives": [
        {
          "attributes": {
            "NORMAL": 114,
            "POSITION": 113,
            "TEXCOORD_0": 115
          },
          "indices": 116,
          "material": 1
        }
      ]
    },
    {
      "name": "Podveska",
      "primitives": [
        {
          "attributes": {
            "NORMAL": 118,
            "POSITION": 117,
            "TEXCOORD_0": 119
          },
          "indices": 29,
          "material": 1
        }
      ]
    },
    {
      "name": "Poruchni_ut",
      "primitives": [
        {
          "attributes": {
            "NORMAL": 121,
            "POSITION": 120,
            "TEXCOORD_0": 122
          },
          "indices": 123,
          "material": 1
        }
      ]
    },
    {
      "name": "PredohrKV",
      "primitives": [
        {
          "attributes": {
            "NORMAL": 125,
            "POSITION": 124,
            "TEXCOORD_0": 126
          },
          "indices": 105,
          "material": 1
        }
      ]
    },
    {
      "name": "PredohrSkob",
      "primitives": [
        {
          "attributes": {
            "NORMAL": 128,
            "POSITION": 127,
            "TEXCOORD_0": 129
          },
          "indices": 130,
          "material": 1
        }
      ]
    },
    {
      "name": "RamaGen",
      "primitives": [
        {
          "attributes": {
            "NORMAL": 132,
            "POSITION": 131,
            "TEXCOORD_0": 133
          },
          "indices": 134,
          "material": 1
        }
      ]
    },
    {
      "name": "Rascep",
      "primitives": [
        {
          "attributes": {
            "NORMAL": 136,
            "POSITION": 135,
            "TEXCOORD_0": 137
          },
          "indices": 138,
          "material": 1
        }
      ]
    },
    {
      "name": "RezinaPerehod",
      "primitives": [
        {
          "attributes": {
            "NORMAL": 140,
            "POSITION": 139,
            "TEXCOORD_0": 141
          },
          "indices": 142,
          "material": 4
        }
      ]
    },
    {
      "name": "RozetkiOT",
      "primitives": [
        {
          "attributes": {
            "NORMAL": 144,
            "POSITION": 143,
            "TEXCOORD_0": 145
          },
          "indices": 146,
          "material": 1
        }
      ]
    },
    {
      "name": "SA-3-1",
      "primitives": [
        {
          "attributes": {
            "NORMAL": 148,
            "POSITION": 147,
            "TEXCOORD_0": 149
          },
          "indices": 150,
          "material": 1
        }
      ]
    },
    {
      "name": "SA-3-2",
      "primitives": [
        {
          "attributes": {
            "NORMAL": 152,
            "POSITION": 151,
            "TEXCOORD_0": 153
          },
          "indices": 150,
          "material": 1
        }
      ]
    },
    {
      "name": "Stupenky",
      "primitives": [
        {
          "attributes": {
            "NORMAL": 155,
            "POSITION": 154,
            "TEXCOORD_0": 156
          },
          "indices": 17,
          "material": 1
        }
      ]
    },
    {
      "name": "TehLuk",
      "primitives": [
        {
          "attributes": {
            "NORMAL": 158,
            "POSITION": 157,
            "TEXCOORD_0": 159
          },
          "indices": 160,
          "material": 1
        }
      ]
    },
    {
      "name": "TRP",
      "primitives": [
        {
          "attributes": {
            "NORMAL": 162,
            "POSITION": 161,
            "TEXCOORD_0": 163
          },
          "indices": 164,
          "material": 1
        }
      ]
    },
    {
      "name": "Trub_kotla",
      "primitives": [
        {
          "attributes": {
            "NORMAL": 166,
            "POSITION": 165,
            "TEXCOORD_0": 167
          },
          "indices": 168,
          "material": 1
        }
      ]
    },
    {
      "name": "UgolkyTorcZub",
      "primitives": [
        {
          "attributes": {
            "NORMAL": 170,
            "POSITION": 169,
            "TEXCOORD_0": 171
          },
          "indices": 29,
          "material": 1
        }
      ]
    },
    {
      "name": "Yashik_3kV",
      "primitives": [
        {
          "attributes": {
            "NORMAL": 173,
            "POSITION": 172,
            "TEXCOORD_0": 174
          },
          "indices": 29,
          "material": 1
        }
      ]
    },
    {
      "name": "Yashik_KU",
      "primitives": [
        {
          "attributes": {
            "NORMAL": 176,
            "POSITION": 175,
            "TEXCOORD_0": 177
          },
          "indices": 178,
          "material": 1
        }
      ]
    },
    {
      "name": "Yashik_RSH",
      "primitives": [
        {
          "attributes": {
            "NORMAL": 180,
            "POSITION": 179,
            "TEXCOORD_0": 181
          },
          "indices": 182,
          "material": 1
        }
      ]
    },
    {
      "name": "Yashik_VU",
      "primitives": [
        {
          "attributes": {
            "NORMAL": 184,
            "POSITION": 183,
            "TEXCOORD_0": 185
          },
          "indices": 186,
          "material": 1
        }
      ]
    },
    {
      "name": "ZaglushkaPinch",
      "primitives": [
        {
          "attributes": {
            "NORMAL": 188,
            "POSITION": 187,
            "TEXCOORD_0": 189
          },
          "indices": 190,
          "material": 1
        }
      ]
    }
  ],
  "nodes": [
    {
      "mesh": 0,
      "name": "End_of_train_red_fwd_up_r",
      "translation": [
        1.2599999904632568,
        3.440000057220459,
        -12.21500015258789
      ]
    },
    {
      "mesh": 0,
      "name": "End_of_train_red_fwd_up_l",
      "translation": [
        -1.2599999904632568,
        3.440000057220459,
        -12.21500015258789
      ]
    },
    {
      "mesh": 0,
      "name": "End_of_train_red_fwd_bot_l",
      "translation": [
        -1.1299999952316284,
        1.7999999523162842,
        -12.21500015258789
      ]
    },
    {
      "mesh": 1,
      "name": "End_of_train_red_bwd_up_r",
      "translation": [
        -1.2599999904632568,
        3.440000057220459,
        12.21500015258789
      ]
    },
    {
      "mesh": 1,
      "name": "End_of_train_red_bwd_up_l",
      "translation": [
        1.2599999904632568,
        3.440000057220459,
        12.21500015258789
      ]
    },
    {
      "mesh": 1,
      "name": "End_of_train_red_bwd_bot_l",
      "translation": [
        1.1299999952316284,
        1.7999999523162842,
        12.21500015258789
      ]
    },
    {
      "mesh": 2,
      "name": "End_of_train_lamps_fwd_up_r",
      "rotation": [
        0,
        -1,
        0,
        4.371138828673793e-08
      ],
      "translation": [
        1.2599999904632568,
        3.440000057220459,
        -12.21500015258789
      ]
    },
    {
      "mesh": 2,
      "name": "End_of_train_lamps_fwd_up_l",
      "rotation": [
        0,
        -1,
        0,
        4.371138828673793e-08
      ],
      "translation": [
        -1.2599999904632568,
        3.440000057220459,
        -12.21500015258789
      ]
    },
    {
      "mesh": 2,
      "name": "End_of_train_lamps_fwd_bot_l",
      "rotation": [
        0,
        -1,
        0,
        4.371138828673793e-08
      ],
      "translation": [
        -1.1299999952316284,
        1.7999999523162842,
        -12.21500015258789
      ]
    },
    {
      "mesh": 2,
      "name": "End_of_train_lamps_bwd_up_r",
      "translation": [
        -1.2599999904632568,
        3.440000057220459,
        12.21500015258789
      ]
    },
    {
      "mesh": 2,
      "name": "End_of_train_lamps_bwd_up_l",
      "translation": [
        1.2599999904632568,
        3.440000057220459,
        12.21500015258789
      ]
    },
    {
      "mesh": 2,
      "name": "End_of_train_lamps_bwd_bot_l",
      "translation": [
        1.1299999952316284,
        1.7999999523162842,
        12.21500015258789
      ]
    },
    {
      "mesh": 3,
      "name": "AB"
    },
    {
      "mesh": 4,
      "name": "Avtotormoz"
    },
    {
      "mesh": 5,
      "name": "Bak_ECHT"
    },
    {
      "mesh": 6,
      "name": "Belevoy_yachik"
    },
    {
      "mesh": 7,
      "name": "Body"
    },
    {
      "mesh": 8,
      "name": "Boige-1"
    },
    {
      "mesh": 9,
      "name": "Wheel-1",
      "translation": [
        0,
        0.4749999940395355,
        9.900012016296387
      ]
    },
    {
      "mesh": 10,
      "name": "Wheel-2",
      "translation": [
        0,
        0.4749999940395355,
        7.500026226043701
      ]
    },
    {
      "mesh": 11,
      "name": "Boige-2"
    },
    {
      "mesh": 12,
      "name": "Wheel-3",
      "translation": [
        0,
        0.4749999940395355,
        -7.499985694885254
      ]
    },
    {
      "mesh": 13,
      "name": "Wheel-4",
      "translation": [
        0,
        0.4749999940395355,
        -9.89998722076416
      ]
    },
    {
      "mesh": 14,
      "name": "DCG-4435"
    },
    {
      "mesh": 15,
      "name": "Gen_Kardan",
      "rotation": [
        0.016042368486523628,
        0.7069247961044312,
        0.01604236662387848,
        0.7069247364997864
      ],
      "translation": [
        -0.0011818867642432451,
        0.5020936727523804,
        6.35971212387085
      ]
    },
    {
      "mesh": 16,
      "name": "Gen_Mufta1",
      "rotation": [
        0,
        0.7071068286895752,
        0,
        0.7071068286895752
      ],
      "translation": [
        0.0008727312670089304,
        0.5380001068115234,
        5.524901866912842
      ]
    },
    {
      "mesh": 17,
      "name": "Bufera"
    },
    {
      "mesh": 18,
      "name": "otpuskVR"
    },
    {
      "mesh": 19,
      "name": "Deflektor"
    },
    {
      "mesh": 20,
      "name": "Fartuki"
    },
    {
      "mesh": 21,
      "name": "Kabel_G"
    },
    {
      "mesh": 22,
      "name": "KoncevoyRuk_1"
    },
    {
      "mesh": 23,
      "name": "KoncevoyRuk_2"
    },
    {
      "mesh": 24,
      "name": "LestnicaKrisha"
    },
    {
      "mesh": 25,
      "name": "MAB-II"
    },
    {
      "mesh": 26,
      "name": "Perehod_det"
    },
    {
      "mesh": 27,
      "name": "PinchOFF"
    },
    {
      "mesh": 28,
      "name": "PinchON"
    },
    {
      "mesh": 29,
      "name": "Podtambur"
    },
    {
      "mesh": 30,
      "name": "Podveska"
    },
    {
      "mesh": 31,
      "name": "Poruchni_ut"
    },
    {
      "mesh": 32,
      "name": "PredohrKV"
    },
    {
      "mesh": 33,
      "name": "PredohrSkob"
    },
    {
      "mesh": 34,
      "name": "RamaGen"
    },
    {
      "mesh": 35,
      "name": "Rascep"
    },
    {
      "mesh": 36,
      "name": "RezinaPerehod"
    },
    {
      "mesh": 37,
      "name": "RozetkiOT"
    },
    {
      "mesh": 38,
      "name": "SA-3-1"
    },
    {
      "mesh": 39,
      "name": "SA-3-2"
    },
    {
      "mesh": 40,
      "name": "Stupenky"
    },
    {
      "mesh": 41,
      "name": "TehLuk"
    },
    {
      "mesh": 42,
      "name": "TRP"
    },
    {
      "mesh": 43,
      "name": "Trub_kotla"
    },
    {
      "mesh": 44,
      "name": "UgolkyTorcZub"
    },
    {
      "mesh": 45,
      "name": "Yashik_3kV"
    },
    {
      "mesh": 46,
      "name": "Yashik_KU"
    },
    {
      "mesh": 47,
      "name": "Yashik_RSH"
    },
    {
      "mesh": 48,
      "name": "Yashik_VU"
    },
    {
      "mesh": 49,
      "name": "ZaglushkaPinch"
    }
  ],
  "samplers": [
    {
      "magFilter": 9729,
      "minFilter": 9987
    }
  ],
  "scene": 0,
  "scenes": [
    {
      "name": "Scene",
      "nodes": [
        0,
        1,
        2,
        3,
        4,
        5,
        6,
        7,
        8,
        9,
        10,
        11,
        12,
        13,
        14,
        15,
        16,
        17,
        18,
        19,
        20,
        21,
        22,
        23,
        24,
        25,
        26,
        27,
        28,
        29,
        30,
        31,
        32,
        33,
        34,
        35,
        36,
        37,
        38,
        39,
        40,
        41,
        42,
        43,
        44,
        45,
        46,
        47,
        48,
        49,
        50,
        51,
        52,
        53,
        54,
        55,
        56,
        57,
        58
      ]
    }
  ],
  "textures": [
    {
      "sampler": 0,
      "source": 0
    },
    {
      "sampler": 0,
      "source": 0
    },
    {
      "sampler": 0,
      "source": 0
    },
    {
      "sampler": 0,
      "source": 0
    },
    {
      "sampler": 0,
      "source": 0
    }
  ]
}